<?xml version="1.0" standalone="no"?>
<!DOCTYPE svg PUBLIC "-//W3C//DTD SVG 1.1//EN" "http://www.w3.org/Graphics/SVG/1.1/DTD/svg11.dtd" >
<svg xmlns="http://www.w3.org/2000/svg" xmlns:xlink="http://www.w3.org/1999/xlink" version="1.1">
<metadata>
Created by FontForge 20170731 at Wed Nov 25 18:24:38 2015
 By Aleksey,,,
Copyright (c) 2015 by Hannes von Doehren. All rights reserved.
</metadata>
<defs>
<font id="BrandonTextWeb-Thin" horiz-adv-x="600" >
  <font-face 
    font-family="BrandonTextWeb-Thin"
    font-weight="400"
    font-stretch="normal"
    units-per-em="1000"
    panose-1="2 11 4 3 2 2 3 6 2 3"
    ascent="739"
    descent="-261"
    x-height="462"
    cap-height="700"
    bbox="-157.286 -250.571 1182 1026"
    underline-thickness="18"
    underline-position="-118"
    unicode-range="U+000D-FB04"
  />
<missing-glyph horiz-adv-x="599" 
d="M50 670q0 30 30 30h439q30 0 30 -30v-640q0 -30 -30 -30h-439q-30 0 -30 30v640zM262 314q0 -5 4.5 -8.5t9.5 -3.5h36q15 0 15 13v26q0 18 16.5 31.5t36 29t36 36t16.5 53.5q0 24 -9.5 44.5t-26.5 35.5t-39.5 23t-49.5 8q-33 0 -57 -10t-41 -21q-19 -13 -32 -30
q-3 -5 -4 -9.5t4 -8.5l22 -22q8 -6 17 0q5 4 12 11t17 14t23.5 11.5t31.5 4.5q30 0 45.5 -16t15.5 -36q0 -24 -15.5 -39t-34 -30t-34 -32.5t-15.5 -45.5v-29zM245 156q0 -20 14 -34t34 -14t34.5 14t14.5 34t-14.5 34t-34.5 14t-34 -14t-14 -34z" />
    <glyph glyph-name="uniFB00" unicode="ff" horiz-adv-x="677" 
d="M108 444h-71q-8 0 -8 6v5q0 7 8 7h71v43q0 96 48 145.5t137 49.5q33 0 59 -5.5t45 -13t32 -16t22 -15.5q19 28 46.5 44t74.5 16q49 0 82.5 -16.5t51.5 -32.5q7 -5 1 -11l-4 -4q-5 -5 -11 0q-15 14 -45 30t-75 16q-36 0 -61 -12t-40.5 -34t-22.5 -52.5t-7 -66.5v-65h210
q8 0 8 -7v-5q0 -6 -8 -6h-210v-436q0 -8 -6 -8h-6q-6 0 -6 8v436h-297v-436q0 -8 -7 -8h-4q-7 0 -7 8v436zM423 462v65q0 34 5 59.5t13 45.5q-8 7 -21 15.5t-31 16t-42 12.5t-54 5q-80 0 -123.5 -43t-43.5 -133v-43h297z" />
    <glyph glyph-name="uniFB01" unicode="fi" horiz-adv-x="532" 
d="M112 444h-84q-7 0 -7 6v5q0 7 8 7h83v56q0 96 45.5 144t120.5 48q32 0 57 -7.5t43.5 -18t31.5 -22t21 -19.5q5 -5 0 -10l-4 -4q-6 -6 -11 1q-6 7 -17.5 17.5t-28.5 20.5t-40 17t-52 7q-66 0 -107 -44t-41 -130v-56h309q7 0 7 -8v-446q0 -8 -6 -8h-5q-7 0 -7 8v436h-298
v-436q0 -8 -9 -8h-3q-6 0 -6 8v436z" />
    <glyph glyph-name="uniFB02" unicode="fl" horiz-adv-x="572" 
d="M112 444h-83q-8 0 -8 6v5q0 7 8 7h83v58q0 100 49 145t132 45q31 0 56.5 -6t46 -15.5t36 -21t26.5 -21.5v46q0 8 6 8h6q6 0 6 -8v-684q0 -8 -6 -8h-6q-6 0 -6 8v613q-9 8 -23 20t-34.5 23.5t-47 19.5t-60.5 8q-37 0 -67 -9.5t-51.5 -30t-33 -53.5t-11.5 -79v-58h200
q9 0 9 -7v-5q0 -6 -9 -6h-200v-436q0 -8 -8 -8h-4q-6 0 -6 8v436z" />
    <glyph glyph-name="uniFB03" unicode="ffi" horiz-adv-x="843" 
d="M589 710q32 0 57 -7.5t43.5 -18t31.5 -22t21 -19.5q5 -5 0 -10l-4 -4q-6 -6 -11 1q-6 7 -17.5 17.5t-28.5 20.5t-40 17t-52 7q-66 0 -107 -44t-41 -130v-56h309q7 0 7 -8v-446q0 -8 -6 -8h-5q-7 0 -7 8v436h-298v-436q0 -8 -6 -8h-6q-6 0 -6 8v436h-297v-436q0 -8 -7 -8
h-4q-7 0 -7 8v436h-71q-8 0 -8 6v5q0 7 8 7h71v43q0 96 48 145.5t137 49.5q33 0 60 -5.5t47.5 -13t34.5 -16t23 -15.5q19 28 51.5 44t79.5 16zM423 462v56q0 41 6.5 68t17.5 47q-8 7 -22 15.5t-33.5 15.5t-44 12t-54.5 5q-80 0 -123.5 -43t-43.5 -133v-43h297z" />
    <glyph glyph-name="uniFB04" unicode="ffl" horiz-adv-x="883" 
d="M604 710q31 0 56.5 -6t46 -15.5t36 -21t26.5 -21.5v46q0 8 6 8h6q6 0 6 -8v-684q0 -8 -6 -8h-6q-6 0 -6 8v613q-9 8 -23 20t-34.5 23.5t-47 19.5t-60.5 8q-77 0 -120 -39.5t-43 -132.5v-58h200q9 0 9 -7v-5q0 -6 -9 -6h-200v-436q0 -8 -6 -8h-6q-6 0 -6 8v436h-297v-436
q0 -8 -7 -8h-4q-7 0 -7 8v436h-71q-8 0 -8 6v5q0 7 8 7h71v43q0 96 48 145.5t137 49.5q33 0 59.5 -5.5t46.5 -13t34 -16t23 -15.5q19 24 54.5 42t93.5 18zM423 462v58q0 70 22 112q-8 7 -21.5 15.5t-32.5 16t-43.5 12.5t-54.5 5q-80 0 -123.5 -43t-43.5 -133v-43h297z" />
    <glyph glyph-name="f_f_j.liga" unicode="ffj" horiz-adv-x="843" 
d="M423 462v56q0 41 6.5 68t17.5 47q-8 7 -22 15.5t-33.5 15.5t-44 12t-54.5 5q-80 0 -123.5 -43t-43.5 -133v-43h297zM739 444h-298v-436q0 -8 -6 -8h-6q-6 0 -6 8v436h-297v-436q0 -8 -7 -8h-4q-7 0 -7 8v436h-71q-8 0 -8 6v5q0 7 8 7h71v43q0 96 48 145.5t137 49.5
q33 0 60 -5.5t47.5 -13t34.5 -16t23 -15.5q19 28 51.5 44t79.5 16q32 0 57 -7.5t43.5 -18t31.5 -22t21 -19.5q5 -5 0 -10l-4 -4q-6 -6 -11 1q-6 7 -17.5 17.5t-28.5 20.5t-40 17t-52 7q-66 0 -107 -44t-41 -130v-56h309q7 0 7 -8v-519q0 -84 -31.5 -127t-98.5 -57
q-10 -2 -11 5l-1 4q-1 6 7 8q30 7 52 19.5t36.5 32t21.5 48t7 67.5v509z" />
    <glyph glyph-name="f_j.liga" unicode="fj" horiz-adv-x="532" 
d="M428 444h-298v-436q0 -8 -9 -8h-3q-6 0 -6 8v436h-84q-7 0 -7 6v5q0 7 8 7h83v56q0 96 45.5 144t120.5 48q32 0 57 -7.5t43.5 -18t31.5 -22t21 -19.5q5 -5 0 -10l-4 -4q-6 -6 -11 1q-6 7 -17.5 17.5t-28.5 20.5t-40 17t-52 7q-66 0 -107 -44t-41 -130v-56h309q7 0 7 -8
v-519q0 -84 -31.5 -127t-98.5 -57q-10 -2 -11 5l-1 4q-1 6 7 8q30 7 52 19.5t36.5 32t21.5 48t7 67.5v509z" />
    <glyph glyph-name="f_f_k.liga" unicode="ffk" horiz-adv-x="1127" 
d="M780 700q7 0 7 -8v-425l293 201q6 4 9 -2l3 -5q3 -5 -2 -9l-286 -196l294 -244q5 -4 0 -11l-3 -4q-3 -4 -8 -1l-300 251v-239q0 -8 -7 -8h-5q-6 0 -6 8v613q-9 8 -23 20t-34.5 23.5t-47 19.5t-60.5 8q-77 0 -120 -39.5t-43 -132.5v-58h200q9 0 9 -7v-5q0 -6 -9 -6h-200
v-436q0 -8 -6 -8h-6q-6 0 -6 8v436h-297v-436q0 -8 -7 -8h-4q-7 0 -7 8v436h-71q-8 0 -8 6v5q0 7 8 7h71v43q0 96 48 145.5t137 49.5q33 0 59.5 -5.5t46.5 -13t34 -16t23 -15.5q19 24 54.5 42t93.5 18q31 0 56.5 -6t46 -15.5t36 -21t26.5 -21.5v46q0 8 6 8h5zM423 462v58
q0 70 22 112q-8 7 -21.5 15.5t-32.5 16t-43.5 12.5t-54.5 5q-80 0 -123.5 -43t-43.5 -133v-43h297z" />
    <glyph glyph-name="f_k.liga" unicode="fk" horiz-adv-x="816" 
d="M464 0q-6 0 -6 8v613q-9 8 -23 20t-34.5 23.5t-47 19.5t-60.5 8q-37 0 -67 -9.5t-51.5 -30t-33 -53.5t-11.5 -79v-58h200q9 0 9 -7v-5q0 -6 -9 -6h-200v-436q0 -8 -8 -8h-4q-6 0 -6 8v436h-83q-8 0 -8 6v5q0 7 8 7h83v58q0 100 49 145t132 45q31 0 56.5 -6t46 -15.5
t36 -21t26.5 -21.5v46q0 8 6 8h5q7 0 7 -8v-425l293 201q6 4 9 -2l3 -5q3 -5 -2 -9l-286 -196l294 -244q5 -4 0 -11l-3 -4q-3 -4 -8 -1l-300 251v-239q0 -8 -7 -8h-5z" />
    <glyph glyph-name="f_b.liga" unicode="fb" horiz-adv-x="927" 
d="M871 232q0 -51 -17.5 -95.5t-47.5 -77t-70 -51.5t-85 -19q-35 0 -62.5 7.5t-49 18.5t-37.5 24t-26 25v-56q0 -8 -7 -8h-4q-7 0 -7 8v613q-9 8 -23 20t-34.5 23.5t-47 19.5t-60.5 8q-37 0 -67 -9.5t-51.5 -30t-33 -53.5t-11.5 -79v-58h200q9 0 9 -7v-5q0 -6 -9 -6h-200
v-436q0 -8 -8 -8h-4q-6 0 -6 8v436h-83q-8 0 -8 6v5q0 7 8 7h83v58q0 100 49 145t132 45q31 0 56.5 -6t46 -15.5t36 -21t26.5 -21.5v46q0 8 7 8h4q7 0 7 -8v-285q20 18 46 32q22 12 52.5 22.5t68.5 10.5q51 0 93 -18t72 -50t46.5 -76t16.5 -96zM853 232q0 48 -15.5 88.5
t-43 70t-66.5 46.5t-85 17q-39 0 -70 -11.5t-53 -25.5q-26 -17 -44 -37v-287q2 -3 13 -16.5t32.5 -28.5t53.5 -27.5t76 -12.5q41 0 77.5 17.5t64.5 47.5t44 71t16 88z" />
    <glyph glyph-name="f_h.liga" unicode="fh" horiz-adv-x="909" 
d="M457 622q-9 8 -23.5 20t-34.5 23t-46.5 19t-59.5 8q-37 0 -67 -9.5t-51.5 -30t-33 -53.5t-11.5 -79v-58h200q9 0 9 -7v-5q0 -6 -9 -6h-200v-436q0 -8 -8 -8h-4q-6 0 -6 8v436h-83q-8 0 -8 6v5q0 7 8 7h83v58q0 100 49 145t132 45q31 0 56.5 -6t45.5 -15.5t35.5 -20.5
t26.5 -21v45q0 8 7 8h4q7 0 7 -8v-305q11 12 26.5 26.5t36.5 27.5t48 22t60 9q94 0 137.5 -54t43.5 -160v-250q0 -8 -7 -8h-4q-7 0 -7 8v250q0 95 -39.5 145.5t-123.5 50.5q-38 0 -68 -13t-52 -29.5t-34.5 -32t-16.5 -20.5v-351q0 -8 -7 -8h-4q-7 0 -7 8v614z" />
    <glyph glyph-name="f_f_h.liga" unicode="ffh" horiz-adv-x="1220" 
d="M769 621q-9 8 -23 20t-34.5 23.5t-47 19.5t-60.5 8q-77 0 -120 -39.5t-43 -132.5v-58h200q9 0 9 -7v-5q0 -6 -9 -6h-200v-436q0 -8 -6 -8h-6q-6 0 -6 8v436h-297v-436q0 -8 -7 -8h-4q-7 0 -7 8v436h-71q-8 0 -8 6v5q0 7 8 7h71v43q0 96 48 145.5t137 49.5q33 0 59.5 -5.5
t46.5 -13t34 -16t23 -15.5q19 24 54.5 42t93.5 18q31 0 56.5 -6t46 -15.5t36 -21t26.5 -21.5v46q0 8 7 8h4q7 0 7 -8v-305q11 12 26.5 26.5t36.5 27.5t48 22t60 9q94 0 137.5 -54t43.5 -160v-250q0 -8 -7 -8h-4q-7 0 -7 8v250q0 95 -39.5 145.5t-123.5 50.5q-38 0 -68 -13
t-52 -29.5t-34.5 -32t-16.5 -20.5v-351q0 -8 -7 -8h-4q-7 0 -7 8v613zM423 462v58q0 70 22 112q-8 7 -21.5 15.5t-32.5 16t-43.5 12.5t-54.5 5q-80 0 -123.5 -43t-43.5 -133v-43h297z" />
    <glyph glyph-name="f_f_b.liga" unicode="ffb" horiz-adv-x="1238" 
d="M1182 232q0 -51 -17.5 -95.5t-47.5 -77t-70 -51.5t-85 -19q-35 0 -62.5 7.5t-49 18.5t-37.5 24t-26 25v-56q0 -8 -7 -8h-4q-7 0 -7 8v613q-9 8 -23 20t-34.5 23.5t-47 19.5t-60.5 8q-77 0 -120 -39.5t-43 -132.5v-58h200q9 0 9 -7v-5q0 -6 -9 -6h-200v-436q0 -8 -6 -8h-6
q-6 0 -6 8v436h-297v-436q0 -8 -7 -8h-4q-7 0 -7 8v436h-71q-8 0 -8 6v5q0 7 8 7h71v43q0 96 48 145.5t137 49.5q33 0 59.5 -5.5t46.5 -13t34 -16t23 -15.5q19 24 54.5 42t93.5 18q31 0 56.5 -6t46 -15.5t36 -21t26.5 -21.5v46q0 8 7 8h4q7 0 7 -8v-285q20 18 46 32
q22 12 52.5 22.5t68.5 10.5q51 0 93 -18t72 -50t46.5 -76t16.5 -96zM1164 232q0 48 -15.5 88.5t-43 70t-66.5 46.5t-85 17q-39 0 -70 -11.5t-53 -25.5q-26 -17 -44 -37v-287q2 -3 13 -16.5t32.5 -28.5t53.5 -27.5t76 -12.5q41 0 77.5 17.5t64.5 47.5t44 71t16 88zM423 462
v58q0 70 22 112q-8 7 -21.5 15.5t-32.5 16t-43.5 12.5t-54.5 5q-80 0 -123.5 -43t-43.5 -133v-43h297z" />
    <glyph glyph-name=".notdef" horiz-adv-x="599" 
d="M50 670q0 30 30 30h439q30 0 30 -30v-640q0 -30 -30 -30h-439q-30 0 -30 30v640zM262 314q0 -5 4.5 -8.5t9.5 -3.5h36q15 0 15 13v26q0 18 16.5 31.5t36 29t36 36t16.5 53.5q0 24 -9.5 44.5t-26.5 35.5t-39.5 23t-49.5 8q-33 0 -57 -10t-41 -21q-19 -13 -32 -30
q-3 -5 -4 -9.5t4 -8.5l22 -22q8 -6 17 0q5 4 12 11t17 14t23.5 11.5t31.5 4.5q30 0 45.5 -16t15.5 -36q0 -24 -15.5 -39t-34 -30t-34 -32.5t-15.5 -45.5v-29zM245 156q0 -20 14 -34t34 -14t34.5 14t14.5 34t-14.5 34t-34.5 14t-34 -14t-14 -34z" />
    <glyph glyph-name="glyph1" horiz-adv-x="0" 
 />
    <glyph glyph-name="glyph1" horiz-adv-x="0" 
 />
    <glyph glyph-name="uni000D" unicode="&#xd;" horiz-adv-x="0" 
 />
    <glyph glyph-name="space" unicode=" " horiz-adv-x="240" 
 />
    <glyph glyph-name="exclam" unicode="!" horiz-adv-x="223" 
d="M109 267q-7 0 -7 7v419q0 7 7 7h4q7 0 7 -7v-419q0 -7 -7 -7h-4zM87 14q0 10 7 16.5t17 6.5q11 0 17.5 -6.5t6.5 -16.5t-6.5 -17t-17.5 -7q-10 0 -17 7t-7 17z" />
    <glyph glyph-name="quotedbl" unicode="&#x22;" horiz-adv-x="311" 
d="M228 501q-7 0 -7 7v185q0 7 7 7h3q7 0 7 -7v-185q0 -7 -7 -7h-3zM80 501q-7 0 -7 7v185q0 7 7 7h3q7 0 7 -7v-185q0 -7 -7 -7h-3z" />
    <glyph glyph-name="numbersign" unicode="#" horiz-adv-x="561" 
d="M154 217h-97q-6 0 -6 7v3q0 7 6 7h99l38 194h-109q-7 0 -7 7v4q0 7 7 7h113l48 248q2 6 7 6h3q9 0 7 -8l-48 -246h175l48 248q2 6 7 6h4q8 0 6 -8l-48 -246h95q6 0 6 -7v-4q0 -7 -6 -7h-98l-37 -194h107q7 0 7 -7v-3q0 -7 -7 -7h-111l-40 -211q-2 -6 -7 -6h-4q-9 0 -7 8
l41 209h-175l-40 -211q-2 -6 -7 -6h-4q-9 0 -7 8zM349 234l37 194h-174l-37 -194h174z" />
    <glyph glyph-name="dollar" unicode="$" 
d="M94 73q-5 4 0 9l3 3q5 5 10 0q4 -4 19.5 -16.5t40.5 -25.5t58.5 -23.5t74.5 -11.5v339q-46 12 -85 26.5t-67.5 36t-44.5 51.5t-16 74q0 30 11.5 60.5t37 55.5t66 41t98.5 17v43q0 7 7 7h4q7 0 7 -7v-44q35 -2 64.5 -10t50.5 -17q25 -11 45 -23q3 -3 3 -6l-2 -4
q0 -5 -3.5 -6.5t-7.5 0.5q-19 11 -43 22q-20 8 -47.5 16t-59.5 10v-329q49 -14 88 -30.5t66 -39.5t41.5 -53.5t14.5 -72.5q0 -35 -17 -66t-46 -54.5t-67 -38t-80 -16.5v-113q0 -6 -7 -6h-4q-7 0 -7 6v113q-43 1 -79 12.5t-62.5 25.5t-43.5 27t-21 18zM300 691
q-53 -1 -90.5 -15t-60.5 -36.5t-33.5 -50t-10.5 -54.5q0 -38 14 -65t39.5 -46t61.5 -32.5t80 -25.5v325zM318 8q38 1 73 14t61.5 34.5t42 49t15.5 59.5q0 38 -14 66t-39.5 48.5t-60.5 35.5t-78 27v-334z" />
    <glyph glyph-name="percent" unicode="%" horiz-adv-x="682" 
d="M187 427q-29 0 -55 11t-45 30.5t-30 45t-11 55.5q0 29 11 55t30 45t45 30t55 11t55 -11t45 -30t30 -45t11 -55q0 -30 -11 -55.5t-30 -45t-45 -30.5t-55 -11zM187 445q25 0 48 9.5t39.5 26.5t26.5 39.5t10 48.5q0 25 -10 47.5t-26.5 39.5t-39.5 26.5t-48 9.5
q-26 0 -48.5 -9.5t-39 -26.5t-26 -39.5t-9.5 -47.5q0 -26 9.5 -48.5t26 -39.5t39 -26.5t48.5 -9.5zM356 131q0 30 11 55.5t30 45t44.5 30.5t55.5 11q29 0 54.5 -11t45 -30.5t30.5 -45t11 -55.5q0 -29 -11 -55t-30.5 -45t-45 -30t-54.5 -11q-30 0 -55.5 11t-44.5 30t-30 45
t-11 55zM373 131q0 -26 9.5 -48t26.5 -39t39.5 -26.5t48.5 -9.5q25 0 47.5 9.5t39.5 26.5t26.5 39t9.5 48t-9.5 48.5t-26.5 39.5t-39.5 26.5t-47.5 9.5q-26 0 -48.5 -9.5t-39.5 -26.5t-26.5 -39.5t-9.5 -48.5zM535 698q3 4 8 1l6 -3q2 -1 3 -2.5t-1 -5.5l-417 -686
q-4 -5 -7 -3l-8 5q-4 3 -1 8z" />
    <glyph glyph-name="ampersand" unicode="&#x26;" horiz-adv-x="677" 
d="M77 173q0 38 12 69t33 55.5t49.5 44.5t61.5 36l-30 31q-31 31 -54.5 71t-23.5 82q0 23 9.5 49t29.5 48t51 36.5t75 14.5q40 0 69 -12.5t48 -33.5t28.5 -47.5t9.5 -54.5q0 -29 -14 -55.5t-38.5 -50t-57.5 -44t-70 -37.5h-1l242 -239q38 51 59 111.5t21 118.5q0 7 -0.5 15
t-1.5 16q0 8 7 8h4q7 0 7 -6q1 -8 1.5 -16.5t0.5 -16.5q0 -61 -22 -124t-63 -117l112 -111q4 -5 1 -8l-7 -6q-3 -3 -7 1l-111 109q-45 -54 -106.5 -87t-137.5 -33q-42 0 -76.5 14.5t-59 39.5t-37.5 58.5t-13 70.5zM251 387q37 17 69.5 36.5t56.5 41t37.5 46t13.5 51.5
q0 24 -8.5 47.5t-25.5 42t-43 29.5t-61 11q-39 0 -67 -12.5t-46 -32t-26.5 -42t-8.5 -43.5q0 -19 6.5 -37.5t17 -36.5t23.5 -34.5t26 -30.5q9 -9 17.5 -18t18.5 -18zM94 173q0 -34 12 -64t34 -52.5t53 -35.5t70 -13q72 0 130.5 31.5t101.5 82.5l-249 245
q-32 -16 -59.5 -34.5t-48 -42t-32.5 -52.5t-12 -65z" />
    <glyph glyph-name="quotesingle" unicode="'" horiz-adv-x="164" 
d="M80 501q-7 0 -7 7v185q0 7 7 7h4q7 0 7 -7v-185q0 -7 -7 -7h-4v0z" />
    <glyph glyph-name="parenleft" unicode="(" horiz-adv-x="333" 
d="M300 -61q7 0 7 -7v-4q0 -6 -7 -6q-44 2 -87 22.5t-77 66t-55.5 120.5t-21.5 185t21.5 184.5t55.5 120.5t77 66.5t87 22.5q7 0 7 -7v-4q0 -7 -7 -7q-41 -2 -80.5 -21.5t-71.5 -63t-51.5 -115t-19.5 -176.5q0 -106 19.5 -177t51.5 -115t71.5 -63.5t80.5 -21.5z" />
    <glyph glyph-name="parenright" unicode=")" horiz-adv-x="333" 
d="M33 -61q40 2 80 21.5t72 63.5t51.5 115t19.5 177q0 105 -19.5 176.5t-51.5 115t-72 63t-80 21.5q-7 0 -7 7v4q0 7 7 7q43 -2 86.5 -22.5t77.5 -66.5t55.5 -120.5t21.5 -184.5t-21.5 -185t-55.5 -120.5t-77.5 -66t-86.5 -22.5q-7 0 -7 6v4q0 7 7 7z" />
    <glyph glyph-name="asterisk" unicode="*" horiz-adv-x="418" 
d="M207 406q-7 0 -7 7v124l-108 -62q-6 -3 -8 1l-4 7q-2 5 3 7l107 63l-107 63q-5 2 -2 7l3 6q1 2 2.5 3t5.5 -1l108 -62v124q0 7 7 7h4q7 0 7 -7v-124l108 62q4 2 5.5 1t2.5 -3l3 -6q3 -5 -2 -7l-107 -63l107 -63q5 -2 3 -7l-4 -7q-3 -4 -8 -1l-108 62v-124q0 -7 -7 -7h-4
v0z" />
    <glyph glyph-name="plus" unicode="+" 
d="M292 339h-186q-7 0 -7 7v4q0 7 7 7h186v185q0 7 7 7h4q7 0 7 -7v-185h185q7 0 7 -7v-4q0 -7 -7 -7h-185v-186q0 -7 -7 -7h-4q-7 0 -7 7v186z" />
    <glyph glyph-name="comma" unicode="," horiz-adv-x="186" 
d="M63 13q0 11 7.5 18t18.5 7q12 0 21.5 -8.5t15.5 -21t9 -28t3 -29.5q0 -41 -16 -68.5t-39 -45.5q-7 -6 -10 0l-4 6q-3 5 -2 7t4 4q20 15 33.5 38.5t13.5 54.5q0 36 -11 53q-4 -5 -8 -7.5t-12 -2.5q-10 0 -17 6.5t-7 16.5z" />
    <glyph glyph-name="hyphen" unicode="-" horiz-adv-x="405" 
d="M81 243q-6 0 -6 7v4q0 7 6 7h243q6 0 6 -7v-4q0 -7 -6 -7h-243v0z" />
    <glyph glyph-name="period" unicode="." horiz-adv-x="178" 
d="M64 15q0 10 7 17t18 7t18 -7t7 -17q0 -11 -7 -18.5t-18 -7.5t-18 7.5t-7 18.5z" />
    <glyph glyph-name="slash" unicode="/" horiz-adv-x="369" 
d="M298 695q2 5 7 5h7q6 0 4 -6l-246 -690q-2 -4 -3.5 -4h-3.5h-7q-5 0 -3 6z" />
    <glyph glyph-name="zero" unicode="0" horiz-adv-x="659" 
d="M330 -10q-61 0 -108.5 25t-80 71.5t-49.5 113.5t-17 151q0 171 66.5 265t188.5 94t188 -94t66 -265q0 -84 -17 -151t-49.5 -113.5t-79.5 -71.5t-108 -25zM330 8q57 0 101 23t74 67.5t46 108t16 144.5q0 164 -61.5 252.5t-175.5 88.5q-115 0 -176 -88.5t-61 -252.5
q0 -162 61.5 -252.5t175.5 -90.5z" />
    <glyph glyph-name="one" unicode="1" horiz-adv-x="345" 
d="M214 676l-171 -127q-5 -3 -8 1l-6 7q-1 2 -1 3.5t4 3.5l189 139q5 3 8 1t3 -7v-690q0 -7 -7 -7h-4q-7 0 -7 7v669z" />
    <glyph glyph-name="two" unicode="2" horiz-adv-x="548" 
d="M339 286q55 51 89.5 104.5t34.5 118.5q0 37 -13 70t-38 58t-61.5 40t-82.5 15q-49 0 -83 -15t-55 -32q-25 -20 -40 -46q-3 -5 -7 -3l-7 4q-2 2 -3 4t1 6q17 28 44 50q23 19 60 34.5t90 15.5q51 0 90.5 -16t67 -44t41.5 -64.5t14 -76.5q0 -68 -36 -124.5t-94 -110.5
l-273 -255h390q8 0 8 -8v-4q0 -7 -8 -7h-418q-5 0 -7 4.5t2 7.5z" />
    <glyph glyph-name="three" unicode="3" horiz-adv-x="582" 
d="M65 82q-4 6 0 10l5 4q5 3 9 -1q9 -9 24 -23.5t38 -29t56 -24.5t78 -10q51 0 90.5 14t67.5 38.5t42.5 58.5t14.5 73q0 31 -13 60t-36.5 51.5t-57 36.5t-74.5 14h-139q-7 0 -7 8v4q0 7 7 7h139q32 0 61.5 11.5t52.5 32.5t36.5 50t13.5 65q0 34 -13 63.5t-36.5 51
t-56.5 33.5t-74 12q-47 0 -82.5 -13.5t-58.5 -29.5q-28 -18 -47 -42q-3 -5 -8 -2l-6 4q-6 3 -3 8q22 26 52 46q26 17 64 32t89 15q45 0 81.5 -13.5t62.5 -37t40 -56t14 -71.5q0 -31 -10 -58t-27 -48.5t-39.5 -37t-48.5 -23.5q32 -8 58 -25.5t45 -41t29 -51t10 -55.5
q0 -43 -16 -80t-46.5 -64t-73.5 -42.5t-97 -15.5q-48 0 -83.5 11t-61 26t-41 30.5z" />
    <glyph glyph-name="four" unicode="4" horiz-adv-x="613" 
d="M34 164q-5 0 -7 3.5t2 7.5l445 538q3 4 7.5 2.5t4.5 -6.5v-528h73q7 0 7 -6v-4q0 -7 -7 -7h-73v-157q0 -7 -7 -7h-3q-8 0 -8 7v157h-434zM468 181v497l-411 -497h411z" />
    <glyph glyph-name="five" unicode="5" horiz-adv-x="577" 
d="M79 78q-4 5 0 10l5 4q4 2 6 1t4 -3q9 -11 24 -25t38 -27t53.5 -21.5t71.5 -8.5q49 0 90.5 17.5t71.5 47.5t47 70t17 86q0 95 -57 144t-168 49h-186q-7 0 -7 8v263q0 7 7 7h336q7 0 7 -7v-3q0 -7 -7 -7h-325v-243h175q120 0 181.5 -54t61.5 -157q0 -50 -18 -93.5
t-50.5 -75.5t-77.5 -51t-98 -19q-43 0 -76 9t-58 22.5t-41.5 29t-26.5 27.5z" />
    <glyph glyph-name="six" unicode="6" horiz-adv-x="588" 
d="M67 284q0 71 19.5 129.5t50 104.5t68.5 81t75.5 60t70 40t52.5 22q6 2 8 -3l2 -7q1 -5 -4 -8q-18 -7 -47 -20t-62 -34t-68 -50t-64.5 -68t-51.5 -87.5t-29 -108.5q12 16 32.5 37t48.5 40t65 31.5t82 12.5t85.5 -16t72 -45.5t50 -71.5t18.5 -94q0 -50 -18.5 -93.5t-50 -76
t-74 -51t-89.5 -18.5q-58 0 -103 22.5t-76 62.5t-47 93.5t-16 115.5zM84 284q0 -58 15 -108.5t44 -87.5t70.5 -58.5t95.5 -21.5q43 0 82 17t68.5 47t46.5 70.5t17 86.5q0 48 -17 86.5t-46 66t-66.5 42t-78.5 14.5q-57 0 -99 -20.5t-70.5 -45.5t-43.5 -47.5t-18 -25.5v-15z
" />
    <glyph glyph-name="seven" unicode="7" horiz-adv-x="493" 
d="M454 683h-422q-7 0 -7 7v3q0 7 7 7h439q4 0 6 -3t0 -6l-304 -690q-3 -6 -8 -3l-5 2q-5 2 -2 9z" />
    <glyph glyph-name="eight" unicode="8" horiz-adv-x="605" 
d="M73 180q0 69 49.5 116t135.5 61q-37 7 -67.5 22.5t-52.5 37.5t-34 49.5t-12 59.5q0 34 11.5 67t36 59t64.5 42t97 16t97 -16t66 -42t38 -59t12 -67q0 -64 -45.5 -109t-120.5 -60q86 -14 135 -59t49 -118q0 -50 -18 -86t-49 -59t-73 -34t-90 -11t-90 11t-72.5 34t-48.5 59
t-18 86zM303 370q41 2 76 13.5t61 31.5t40.5 48t14.5 63q0 31 -11 61t-34.5 53.5t-60.5 38t-88 14.5t-87.5 -14.5t-59.5 -38t-33.5 -53.5t-10.5 -61q0 -35 15 -63t41 -48t61 -31.5t76 -13.5zM91 180q0 -45 16 -78t44.5 -54t67 -31.5t83.5 -10.5q44 0 83 10.5t67.5 31.5
t45 54t16.5 78q0 68 -57 113.5t-154 52.5q-97 -7 -154.5 -50t-57.5 -116z" />
    <glyph glyph-name="nine" unicode="9" horiz-adv-x="588" 
d="M175 -9q-1 5 4 8q18 6 47 19.5t62 34.5t68 50t64.5 68t51 87.5t28.5 108.5q-12 -17 -32 -38t-48 -39.5t-65 -31.5t-82 -13t-85.5 16t-72 46t-50 72t-18.5 94q0 50 18.5 93t50 75t74 50.5t89.5 18.5q58 0 103 -22.5t76 -62t47 -93t16 -115.5q0 -71 -19.5 -129.5
t-50 -104.5t-68.5 -81t-75.5 -59.5t-70 -40t-52.5 -22.5q-6 -2 -8 4zM273 264q57 0 99 20.5t70.5 45.5t43.5 47.5t18 25.5v14q0 58 -15 108.5t-44 87t-70.5 57.5t-95.5 21q-44 0 -82.5 -17t-68 -46t-46.5 -69t-17 -86q0 -48 17 -87t46 -66t66.5 -41.5t78.5 -14.5z" />
    <glyph glyph-name="colon" unicode=":" horiz-adv-x="205" 
d="M102 419q-11 0 -19 8t-8 19q0 12 8 20t19 8q13 0 20.5 -8t7.5 -20q0 -11 -7.5 -19t-20.5 -8zM75 16q0 11 8 19t19 8q13 0 20.5 -8t7.5 -19t-7.5 -19.5t-20.5 -8.5q-11 0 -19 8.5t-8 19.5z" />
    <glyph glyph-name="semicolon" unicode=";" horiz-adv-x="245" 
d="M113 419q-11 0 -18.5 8t-7.5 19q0 12 7.5 20t18.5 8q13 0 20.5 -8t7.5 -20q0 -11 -7.5 -19t-20.5 -8zM89 13q0 11 7.5 18t18.5 7q12 0 21.5 -8.5t15.5 -21t9 -28t3 -29.5q0 -41 -16 -68.5t-39 -45.5q-7 -6 -10 0l-4 6q-3 5 -2 7t4 4q20 15 33.5 38.5t13.5 54.5
q0 36 -11 53q-4 -5 -8 -7.5t-12 -2.5q-10 0 -17 6.5t-7 16.5z" />
    <glyph glyph-name="less" unicode="&#x3c;" 
d="M102 226q-4 2 -4 6t4 6l365 235q6 3 9 -2l3 -5q4 -6 -2 -9l-350 -225l350 -218q6 -3 2 -9l-3 -5q-3 -5 -9 -2l-365 228v0z" />
    <glyph glyph-name="equal" unicode="=" 
d="M134 382q-7 0 -7 7v4q0 7 7 7h331q7 0 7 -7v-4q0 -7 -7 -7h-331zM134 176q-7 0 -7 7v4q0 7 7 7h331q7 0 7 -7v-4q0 -7 -7 -7h-331z" />
    <glyph glyph-name="greater" unicode="&#x3e;" 
d="M120 5q-4 6 2 9l350 218l-350 225q-6 3 -2 9l3 5q3 5 9 2l365 -235q4 -2 4 -6t-4 -6l-365 -228q-6 -3 -9 2l-3 5v0z" />
    <glyph glyph-name="question" unicode="?" horiz-adv-x="467" 
d="M218 257q-7 0 -7 7v60q0 18 6 31.5t15 23t19 15.5t18 10q16 9 38 23.5t42 34.5t33.5 45t13.5 56q0 27 -11.5 51t-33 41t-51.5 27t-66 10q-45 0 -77.5 -13t-53.5 -28q-25 -18 -41 -41q-4 -6 -8 -2l-5 4l-3 3t1 5q18 25 45 45q23 17 58 31t84 14q40 0 73 -11.5t56.5 -31
t36.5 -46.5t13 -58q0 -35 -14.5 -62.5t-35.5 -49.5t-44.5 -37.5t-41.5 -25.5q-7 -4 -15.5 -9t-15.5 -12.5t-12 -17.5t-5 -25v-60q0 -7 -7 -7h-4zM201 14q0 10 6.5 16.5t16.5 6.5q11 0 17.5 -6.5t6.5 -16.5t-6.5 -17t-17.5 -7q-10 0 -16.5 7t-6.5 17z" />
    <glyph glyph-name="at" unicode="@" horiz-adv-x="987" 
d="M60 225q0 106 32.5 195.5t92.5 153.5t145 100t190 36q100 0 178.5 -31.5t132.5 -87.5t82.5 -133t28.5 -167q0 -50 -11 -98.5t-35 -87t-62 -62t-92 -23.5q-48 0 -74.5 23t-34.5 57q-8 -12 -20 -26t-30 -26t-43.5 -20t-58.5 -8q-44 0 -79 16.5t-60.5 45.5t-39 68t-13.5 84
q0 44 14.5 82t41 65.5t62 43t77.5 15.5q28 0 51 -5.5t41 -13.5t31.5 -17.5t22.5 -17.5v37q0 7 7 7h4q7 0 7 -7v-289q0 -42 23.5 -69t70.5 -27q48 0 82.5 22t57 57.5t33 81t10.5 92.5q0 87 -27 160.5t-79 127t-127.5 83.5t-171.5 30q-102 0 -183.5 -34.5t-139.5 -96.5
t-89 -147.5t-31 -188.5q0 -78 22 -145t61 -122t93 -97t119 -69q5 -3 3 -7l-3 -6q-3 -6 -8 -3q-66 28 -122 71.5t-96.5 100.5t-63 126.5t-22.5 150.5zM307 234q0 -41 12.5 -77t35 -62.5t54.5 -41.5t72 -15q44 0 72.5 15t45.5 33q20 21 31 49v224q-2 3 -12 13t-28 21t-45 20
t-61 9q-39 0 -71.5 -14t-56 -39.5t-36.5 -60t-13 -74.5z" />
    <glyph glyph-name="A" unicode="A" horiz-adv-x="633" 
d="M312 717q2 4 5 4h2q3 0 5 -4l302 -710q1 -5 -3 -6l-9 -3q-3 -1 -5 3l-89 209h-409l-90 -209q-2 -4 -5 -3l-9 3q-5 1 -3 6zM512 227l-194 458l-199 -458h393z" />
    <glyph glyph-name="B" unicode="B" horiz-adv-x="625" 
d="M108 693q0 7 7 7h206q47 0 85.5 -11.5t66.5 -34t43 -55.5t15 -76q0 -62 -34.5 -103.5t-92.5 -58.5q67 -13 108 -55.5t41 -117.5q0 -42 -16.5 -76.5t-46 -59.5t-70.5 -38.5t-90 -13.5h-215q-7 0 -7 7v686zM323 367q42 0 76.5 10.5t60 30.5t39.5 49t14 66q0 39 -14 68.5
t-39 49.5t-60.5 30.5t-78.5 10.5h-195v-315h197zM330 18q46 0 83.5 12t64.5 34.5t42 54t15 69.5q0 42 -14.5 72t-40 50t-61 29.5t-77.5 9.5h-216v-331h204z" />
    <glyph glyph-name="C" unicode="C" horiz-adv-x="724" 
d="M60 349q0 75 28.5 141t77.5 115t115.5 77t141.5 28q77 0 134.5 -25t108.5 -68q4 -4 1 -8l-5 -6q-4 -4 -8 0q-49 42 -104 65.5t-127 23.5t-134.5 -26.5t-109.5 -73t-74 -109t-27 -134.5t27 -134t74 -108t109.5 -72.5t134.5 -26.5q129 0 231 93q5 5 8 0l5 -6q3 -4 0 -7
q-52 -50 -114.5 -74t-129.5 -24q-75 0 -141.5 28t-115.5 76.5t-77.5 114t-28.5 140.5z" />
    <glyph glyph-name="D" unicode="D" horiz-adv-x="728" 
d="M108 693q0 7 6 7h200q73 0 137.5 -27.5t112.5 -74.5t75.5 -111t27.5 -136q0 -73 -27.5 -137t-75.5 -111.5t-112.5 -75t-137.5 -27.5h-200q-6 0 -6 7v686zM314 18q69 0 130.5 26t107 71t72 106t26.5 130t-26.5 129t-72 105t-107 71t-130.5 26h-189v-664h189z" />
    <glyph glyph-name="E" unicode="E" horiz-adv-x="587" 
d="M108 693q0 7 7 7h407q7 0 7 -7v-4q0 -7 -7 -7h-396v-309h348q7 0 7 -7v-4q0 -7 -7 -7h-348v-337h396q7 0 7 -7v-4q0 -7 -7 -7h-407q-7 0 -7 7v686z" />
    <glyph glyph-name="F" unicode="F" horiz-adv-x="561" 
d="M108 693q0 7 7 7h407q7 0 7 -7v-4q0 -7 -7 -7h-396v-334h348q7 0 7 -7v-4q0 -7 -7 -7h-348v-323q0 -7 -7 -7h-4q-7 0 -7 7v686z" />
    <glyph glyph-name="G" unicode="G" horiz-adv-x="752" 
d="M60 349q0 75 28.5 141t77.5 115t115.5 77t141.5 28q77 0 134.5 -25t108.5 -68q4 -4 1 -8l-5 -6q-4 -4 -8 0q-49 42 -104 65.5t-127 23.5t-134.5 -26.5t-109.5 -73t-74 -109t-27 -134.5t27 -134t74 -108t109.5 -72.5t134.5 -26.5q50 0 90.5 8.5t70 19.5t48 23t26.5 18v235
h-227q-7 0 -7 7v4q0 6 7 6h238q7 0 7 -6v-253q-3 -4 -20.5 -17t-49.5 -27t-78 -25t-105 -11q-75 0 -141.5 28t-115.5 76.5t-77.5 114t-28.5 140.5z" />
    <glyph glyph-name="H" unicode="H" horiz-adv-x="744" 
d="M108 693q0 7 7 7h4q7 0 7 -7v-320h492v320q0 7 7 7h4q7 0 7 -7v-686q0 -7 -7 -7h-4q-7 0 -7 7v348h-492v-348q0 -7 -7 -7h-4q-7 0 -7 7v686z" />
    <glyph glyph-name="I" unicode="I" horiz-adv-x="234" 
d="M108 693q0 7 7 7h4q7 0 7 -7v-686q0 -7 -7 -7h-4q-7 0 -7 7v686z" />
    <glyph glyph-name="J" unicode="J" horiz-adv-x="463" 
d="M21 67q-4 5 1 9l4 3q5 3 8 -2q6 -8 17.5 -19.5t29 -22.5t41.5 -19t54 -8q83 0 126 50.5t43 150.5v484q0 7 7 7h3q7 0 7 -7v-484q0 -106 -47.5 -162.5t-138.5 -56.5q-33 0 -59 9t-45.5 21.5t-32 25.5t-18.5 21z" />
    <glyph glyph-name="K" unicode="K" horiz-adv-x="541" 
d="M108 693q0 7 7 7h4q7 0 7 -7v-333l372 339q5 5 10 0l3 -3q5 -5 0 -10l-369 -335l379 -340q3 -3 4 -5.5t-2 -5.5l-4 -4q-4 -4 -9 2l-384 344v-335q0 -7 -7 -7h-4q-7 0 -7 7v686z" />
    <glyph glyph-name="L" unicode="L" horiz-adv-x="496" 
d="M108 693q0 7 7 7h4q6 0 6 -7v-675h349q7 0 7 -7v-4q0 -7 -7 -7h-359q-7 0 -7 7v686z" />
    <glyph glyph-name="M" unicode="M" horiz-adv-x="859" 
d="M199 712q1 5 6.5 5t7.5 -5l217 -676l214 676q2 5 7 5t7 -5l151 -704q1 -7 -3 -8l-8 -2q-5 -2 -6 6l-144 662l-211 -674q-2 -5 -7 -5t-7 5l-215 674l-139 -662q-2 -8 -6 -6l-8 2q-4 1 -3 8z" />
    <glyph glyph-name="N" unicode="N" horiz-adv-x="764" 
d="M108 710q0 5 5 7t8 -3l517 -689v668q0 7 7 7h4q7 0 7 -7v-701q0 -5 -5 -7t-8 3l-517 689v-670q0 -7 -7 -7h-4q-7 0 -7 7v703z" />
    <glyph glyph-name="O" unicode="O" horiz-adv-x="844" 
d="M61 349q0 75 28 141t77 115t115 77t141 28t141 -28t115 -77t77.5 -115t28.5 -141t-28.5 -140.5t-77.5 -114t-115 -76.5t-141 -28t-141 28t-115 76.5t-77 114t-28 140.5zM79 349q0 -72 26.5 -134t73 -108t109 -72.5t134.5 -26.5t134.5 26.5t109 72.5t73.5 108t27 134
t-27 134.5t-73.5 109t-109 73t-134.5 26.5t-134.5 -26.5t-109 -73t-73 -109t-26.5 -134.5z" />
    <glyph glyph-name="P" unicode="P" horiz-adv-x="592" 
d="M108 693q0 7 7 7h208q47 0 89 -18t73 -48.5t49 -72t18 -87.5q0 -47 -18 -89t-49 -73t-72.5 -49t-88.5 -18h-198v-238q0 -7 -7 -7h-4q-7 0 -7 7v686zM324 263q43 0 81.5 16.5t67 45.5t45 67t16.5 82q0 43 -16.5 80.5t-45.5 66t-67.5 45t-81.5 16.5h-197v-419h198z" />
    <glyph glyph-name="Q" unicode="Q" horiz-adv-x="844" 
d="M61 349q0 75 28 141t77 115t115 77t141 28t141 -28t115 -77t77.5 -115t28.5 -141q0 -59 -17.5 -112t-49 -96.5t-75 -76t-95.5 -51.5l117 -192q3 -5 -1 -8l-9 -5q-4 -1 -6 3l-118 196q-53 -17 -108 -17q-75 0 -141 28t-115 76.5t-77 114t-28 140.5zM79 349
q0 -72 26.5 -134t73 -108t109 -72.5t134.5 -26.5t134.5 26.5t109 72.5t73.5 108t27 134t-27 134.5t-73.5 109t-109 73t-134.5 26.5t-134.5 -26.5t-109 -73t-73 -109t-26.5 -134.5z" />
    <glyph glyph-name="R" unicode="R" horiz-adv-x="641" 
d="M108 693q0 7 7 7h237q47 0 88.5 -16t72.5 -44.5t49 -68t18 -85.5q0 -42 -14 -78t-38.5 -64t-57.5 -47t-72 -26l156 -261q3 -5 -1 -8l-9 -5q-4 -1 -6 3l-159 268q-7 -1 -13 -1h-13h-228v-260q0 -7 -6 -7h-4q-7 0 -7 7v686zM353 284q43 0 81.5 15t67 42t45 64t16.5 81
q0 43 -16.5 79t-45.5 62t-67.5 40.5t-81.5 14.5h-227v-398h228z" />
    <glyph glyph-name="S" unicode="S" horiz-adv-x="550" 
d="M69 73q-5 4 0 9l4 4q4 4 9 -1q5 -4 21 -16.5t41.5 -26t60.5 -24t77 -10.5t79 12.5t64.5 35t43.5 53t16 66.5q0 37 -15.5 64t-44 47t-67.5 34.5t-87 27.5q-45 12 -83.5 26.5t-66.5 35.5t-43.5 51t-15.5 74q0 30 12 61.5t38 56.5t67.5 41t100.5 16q38 0 69.5 -8t54.5 -18
q27 -11 49 -25q5 -3 2 -8l-4 -6q-3 -5 -8 -2q-21 13 -47 24q-22 9 -51.5 17t-64.5 8q-54 0 -92 -14.5t-62 -37t-35 -50.5t-11 -55q0 -38 14 -65t40 -46t62 -32.5t80 -25.5q52 -15 94.5 -31.5t71.5 -38.5t45 -51.5t16 -69.5q0 -39 -17 -73t-46.5 -59t-70 -39t-87.5 -14
q-45 0 -82 11.5t-64.5 25.5t-44.5 27.5t-22 18.5z" />
    <glyph glyph-name="T" unicode="T" horiz-adv-x="498" 
d="M239 682h-208q-7 0 -7 7v4q0 7 7 7h436q7 0 7 -7v-4q0 -7 -7 -7h-210v-675q0 -7 -7 -7h-4q-7 0 -7 7v675z" />
    <glyph glyph-name="U" unicode="U" horiz-adv-x="718" 
d="M100 693q0 7 7 7h4q7 0 7 -7v-441q0 -54 16.5 -99t47.5 -77t75.5 -50t100.5 -18t101 18t76.5 50t48 77t16.5 99v441q0 7 7 7h4q7 0 7 -7v-441q0 -58 -18 -106t-52 -82.5t-82 -54t-108 -19.5t-107.5 19.5t-81 54t-51.5 82.5t-18 106v441z" />
    <glyph glyph-name="V" unicode="V" horiz-adv-x="628" 
d="M5 693q-2 4 3 6l9 3q3 1 5 -3l290 -683l297 683q2 4 5 3l9 -3q4 -2 3 -6l-308 -709q-2 -5 -6 -5t-6 5z" />
    <glyph glyph-name="W" unicode="W" horiz-adv-x="868" 
d="M29 693q-2 4 3 6l8 3q4 1 6 -3l194 -668l184 677q2 5 7 5t7 -5l193 -676l187 667q1 4 6 3l8 -3q4 -2 3 -6l-197 -705q-2 -5 -7 -5t-7 5l-193 676l-184 -676q-2 -5 -7 -5t-7 5z" />
    <glyph glyph-name="X" unicode="X" horiz-adv-x="537" 
d="M34 3q-5 3 -1 9l223 345l-213 331q-4 5 1 9l6 4q4 2 8 -3l210 -325l210 325q3 5 8 3l6 -4q5 -4 1 -9l-214 -331l225 -345q4 -6 -1 -9l-6 -4q-5 -2 -8 3l-221 338l-220 -338q-4 -5 -8 -3l-6 4v0z" />
    <glyph glyph-name="Y" unicode="Y" horiz-adv-x="552" 
d="M267 343l-264 345q-4 5 1 9l6 4q3 2 4.5 0.5l3.5 -3.5l258 -339l258 339q4 6 8 3l6 -4q5 -4 1 -9l-264 -344v-337q0 -7 -7 -7h-4q-7 0 -7 7v336z" />
    <glyph glyph-name="Z" unicode="Z" horiz-adv-x="515" 
d="M462 682h-399q-7 0 -7 7v4q0 7 7 7h419q5 0 6.5 -3.5t-0.5 -7.5l-439 -671h411q7 0 7 -7v-4q0 -7 -7 -7h-431q-5 0 -6.5 3.5t0.5 7.5z" />
    <glyph glyph-name="bracketleft" unicode="[" horiz-adv-x="328" 
d="M299 -220q7 0 7 -7v-4q0 -7 -7 -7h-203q-7 0 -7 7v924q0 7 7 7h203q7 0 7 -7v-4q0 -7 -7 -7h-192v-902h192z" />
    <glyph glyph-name="backslash" unicode="\" horiz-adv-x="369" 
d="M53 693q-2 6 3 7h7q6 0 7 -4l245 -690q2 -6 -3 -6h-7h-3.5t-3.5 4z" />
    <glyph glyph-name="bracketright" unicode="]" horiz-adv-x="328" 
d="M221 -220v902h-192q-7 0 -7 7v4q0 7 7 7h203q7 0 7 -7v-924q0 -7 -7 -7h-203q-7 0 -7 7v4q0 7 7 7h192z" />
    <glyph glyph-name="asciicircum" unicode="^" horiz-adv-x="524" 
d="M42 402q-5 3 -2 8l219 305q6 8 12 0l213 -305q3 -5 -2 -8l-6 -4q-5 -3 -8 2l-203 291l-209 -291q-3 -5 -8 -2z" />
    <glyph glyph-name="underscore" unicode="_" horiz-adv-x="533" 
d="M94 -17q0 7 7 7h331q7 0 7 -7v-4q0 -6 -7 -6h-331q-7 0 -7 6v4v0z" />
    <glyph glyph-name="grave" unicode="`" horiz-adv-x="302" 
d="M57 650q-6 3 -3 9l2 4q2 4 4.5 4t4.5 -1l182 -91q5 -3 3 -7l-2 -5q-3 -6 -9 -3z" />
    <glyph glyph-name="a" unicode="a" horiz-adv-x="487" 
d="M44 144q0 34 14.5 63t41 50t63.5 33t83 12q43 0 81.5 -9t57.5 -17v43q0 69 -28.5 102t-101.5 33q-33 0 -58.5 -4.5t-42.5 -10.5t-27.5 -11.5t-13.5 -7.5q-8 -4 -11 2l-2 4q-2 5 -1 7t3 3q3 2 14.5 8t30.5 12t46 11t62 5q42 0 70.5 -9t46 -28t24.5 -48t7 -68v-311
q0 -8 -7 -8h-4q-7 0 -7 8v52q-14 -12 -33 -24.5t-42.5 -23t-50.5 -17t-55 -6.5q-34 0 -63 10.5t-50.5 30.5t-34 49t-12.5 65zM62 144q0 -32 11 -57.5t30.5 -43t45 -27t55.5 -9.5q31 0 60 8.5t53 20.5t41.5 25.5t26.5 24.5v171q-6 2 -20 6.5t-32.5 9t-41 8t-45.5 3.5
q-41 0 -75 -10.5t-58 -29.5t-37.5 -44.5t-13.5 -55.5z" />
    <glyph glyph-name="b" unicode="b" horiz-adv-x="557" 
d="M501 232q0 -51 -17.5 -95.5t-47.5 -77t-70 -51.5t-85 -19q-35 0 -62.5 7.5t-49 18.5t-37.5 24t-26 25v-56q0 -8 -7 -8h-4q-7 0 -7 8v684q0 8 7 8h4q7 0 7 -8v-285q20 18 46 32q22 12 52.5 22.5t68.5 10.5q51 0 93 -18t72 -50t46.5 -76t16.5 -96zM483 232q0 48 -15.5 88.5
t-43 70t-66.5 46.5t-85 17q-39 0 -70 -11.5t-53 -25.5q-26 -17 -44 -37v-287q2 -3 13 -16.5t32.5 -28.5t53.5 -27.5t76 -12.5q41 0 77.5 17.5t64.5 47.5t44 71t16 88z" />
    <glyph glyph-name="c" unicode="c" horiz-adv-x="535" 
d="M55 233q0 52 19.5 96t53 76t78.5 49.5t95 17.5q42 0 73 -8t52.5 -18t34.5 -20.5t18 -14.5q5 -5 0 -10l-5 -6q-3 -3 -10 2q-5 4 -17 13.5t-32 19t-48.5 17t-65.5 7.5q-46 0 -87 -16.5t-72.5 -46t-50 -70t-18.5 -88.5q0 -49 19 -90.5t50.5 -71.5t72.5 -47t86 -17
q39 0 69.5 10.5t52 24t34 25.5t15.5 15q5 5 9 1l5 -5q4 -5 0 -9l-15 -15t-36.5 -27.5t-57 -26t-76.5 -11.5q-49 0 -93.5 18t-78.5 50.5t-54 77.5t-20 98z" />
    <glyph glyph-name="d" unicode="d" horiz-adv-x="557" 
d="M56 232q0 52 16.5 96t46.5 76t72 50t93 18q37 0 68 -10.5t53 -22.5q26 -14 46 -32v285q0 8 7 8h4q7 0 7 -8v-684q0 -8 -7 -8h-4q-7 0 -7 8v56q-11 -12 -26.5 -25t-37 -24t-49.5 -18.5t-62 -7.5q-45 0 -85 19t-70 51.5t-47.5 77t-17.5 95.5zM74 232q0 -47 16 -88t44 -71
t64.5 -47.5t77.5 -17.5q44 0 76 12.5t53.5 27.5t32.5 28.5t13 16.5v287q-19 20 -45 37q-22 14 -52.5 25.5t-69.5 11.5q-47 0 -85.5 -17t-66 -46.5t-43 -70t-15.5 -88.5z" />
    <glyph glyph-name="e" unicode="e" horiz-adv-x="541" 
d="M74 223q1 -45 16 -84.5t42 -68.5t65.5 -46t85.5 -17q27 0 51.5 5t45 12.5t36 16.5t25.5 17q3 2 5.5 1.5t3.5 -2.5l4 -7q2 -3 -2 -7q-11 -8 -28 -17.5t-39 -17.5t-47.5 -13.5t-54.5 -5.5q-53 0 -95 19t-71.5 52t-45 77.5t-15.5 95.5q0 50 15.5 93.5t45 76t71.5 51t95 18.5
q46 0 84.5 -15t66 -43t43 -66.5t15.5 -85.5q0 -6 -1 -18t-4 -16q-3 -5 -7 -5h-406zM473 241q1 6 1 11.5v9.5q0 43 -14.5 78t-40.5 60.5t-61 39.5t-75 14q-47 0 -85 -16.5t-65 -45.5t-42.5 -68t-16.5 -83h399z" />
    <glyph glyph-name="f" unicode="f" horiz-adv-x="362" 
d="M108 444h-71q-8 0 -8 7v4q0 7 8 7h71v65q0 89 36.5 136t114.5 47q48 0 81 -16.5t50 -32.5q4 -4 0 -10l-3 -4q-5 -6 -11 0q-15 14 -44 29.5t-73 15.5q-69 0 -101 -43t-32 -122v-65h210q8 0 8 -7v-4q0 -7 -8 -7h-210v-436q0 -8 -7 -8h-4q-7 0 -7 8v436z" />
    <glyph glyph-name="g" unicode="g" horiz-adv-x="556" 
d="M450 383q-3 4 -14.5 15.5t-32.5 24t-51 22t-69 9.5q-45 0 -83.5 -17t-66 -46.5t-43.5 -70t-16 -87.5q0 -48 15 -89t43.5 -71.5t69 -48t91.5 -17.5q36 0 64 9.5t48 21.5t31.5 23t13.5 14v308zM450 46q-10 -9 -25 -19t-35 -18.5t-44.5 -14t-52.5 -5.5q-55 0 -99 18.5
t-74.5 51.5t-47 77.5t-16.5 96.5q0 51 17 95t47 76t71.5 50t91.5 18q32 0 58.5 -6t47 -15t36 -19.5t25.5 -19.5v42q0 8 7 8h4q7 0 7 -8v-469q0 -50 -15 -88.5t-40.5 -64t-60.5 -38.5t-74 -13q-30 0 -55 6.5t-44.5 15.5t-34 19.5t-23.5 18.5q-4 4 -5 5.5t2 5.5l4 5q3 3 9 -1
q10 -9 23.5 -19t31.5 -18.5t41 -14t51 -5.5q34 0 65 11.5t55 34.5t38 58t14 82v61z" />
    <glyph glyph-name="h" unicode="h" horiz-adv-x="540" 
d="M88 692q0 8 7 8h4q7 0 7 -8v-305q11 12 26.5 26.5t36.5 27.5t48 22t60 9q94 0 137.5 -54t43.5 -160v-250q0 -8 -7 -8h-4q-7 0 -7 8v250q0 95 -39.5 145.5t-123.5 50.5q-38 0 -68 -13t-52 -29.5t-34.5 -32t-16.5 -20.5v-351q0 -8 -7 -8h-4q-7 0 -7 8v684z" />
    <glyph glyph-name="i" unicode="i" horiz-adv-x="194" 
d="M88 454q0 8 7 8h4q7 0 7 -8v-446q0 -8 -7 -8h-4q-7 0 -7 8v446zM98 605q-11 0 -17 7t-6 16q0 10 6 17.5t17 7.5q10 0 16.5 -7.5t6.5 -17.5q0 -9 -6.5 -16t-16.5 -7z" />
    <glyph glyph-name="j" unicode="j" horiz-adv-x="194" 
d="M106 -65q0 -84 -31.5 -127t-98.5 -57q-10 -2 -11 5l-1 4q-1 6 7 8q30 7 52 19.5t36.5 32t21.5 48t7 67.5v519q0 8 7 8h4q7 0 7 -8v-519zM98 605q-11 0 -17 7t-6 16q0 10 6 17.5t17 7.5q10 0 16.5 -7.5t6.5 -17.5q0 -9 -6.5 -16t-16.5 -7z" />
    <glyph glyph-name="k" unicode="k" horiz-adv-x="446" 
d="M88 692q0 8 7 8h4q7 0 7 -8v-425l293 201q6 4 9 -2l3 -5q3 -5 -2 -9l-286 -196l294 -244q5 -4 0 -11l-3 -4q-3 -4 -8 -1l-300 251v-239q0 -8 -7 -8h-4q-7 0 -7 8v684z" />
    <glyph glyph-name="l" unicode="l" horiz-adv-x="210" 
d="M96 692q0 8 7 8h4q7 0 7 -8v-684q0 -8 -7 -8h-4q-7 0 -7 8v684z" />
    <glyph glyph-name="m" unicode="m" horiz-adv-x="828" 
d="M88 454q0 8 7 8h4q7 0 7 -8v-63q10 12 23.5 26.5t33 26.5t45 20t60.5 8q54 0 88.5 -23t54.5 -68q8 12 21.5 27.5t33 30t46.5 24t63 9.5q90 0 130.5 -54t40.5 -160v-250q0 -8 -7 -8h-4q-7 0 -7 8v250q0 95 -37 145.5t-116 50.5q-38 0 -65 -11.5t-45.5 -27t-29 -31
t-15.5 -23.5q15 -42 15 -103v-250q0 -8 -7 -8h-5q-6 0 -6 8v250q0 95 -37 145.5t-112 50.5q-40 0 -68.5 -11.5t-48 -27t-30.5 -31t-15 -22.5v-354q0 -8 -7 -8h-4q-7 0 -7 8v446z" />
    <glyph glyph-name="n" unicode="n" horiz-adv-x="539" 
d="M88 454q0 8 7 8h4q7 0 7 -8v-63q11 12 26.5 26t36.5 26t48 20.5t60 8.5q94 0 137 -54t43 -160v-250q0 -8 -6 -8h-4q-8 0 -8 8v250q0 95 -39 145.5t-123 50.5q-38 0 -68 -12t-52 -27.5t-34.5 -30t-16.5 -19.5v-357q0 -8 -7 -8h-4q-7 0 -7 8v446z" />
    <glyph glyph-name="o" unicode="o" horiz-adv-x="577" 
d="M55 232q0 50 18 94t49.5 76.5t74 51t91.5 18.5t92 -18.5t74.5 -51t49.5 -76.5t18 -94q0 -51 -18 -95.5t-49.5 -77t-74.5 -51.5t-92 -19t-91.5 19t-74 51.5t-49.5 77t-18 95.5zM73 232q0 -47 16.5 -88t46 -71.5t68.5 -48t84 -17.5t84.5 17.5t69 48t46 71.5t16.5 88
q0 46 -16.5 86.5t-46 70.5t-69 47.5t-84.5 17.5t-84 -17.5t-68.5 -47.5t-46 -70.5t-16.5 -86.5z" />
    <glyph glyph-name="p" unicode="p" horiz-adv-x="556" 
d="M106 -230q0 -8 -7 -8h-4q-7 0 -7 8v684q0 8 7 8h4q7 0 7 -8v-42q10 9 25.5 19.5t36 19.5t47 15t58.5 6q49 0 91 -18t72 -50t47 -76t17 -95q0 -52 -16.5 -96.5t-47 -77.5t-74.5 -51.5t-99 -18.5q-28 0 -52.5 5.5t-44.5 14t-35 18.5t-25 19v-276zM106 75q2 -3 13.5 -14
t31.5 -23t48 -21.5t64 -9.5q51 0 91.5 17.5t69 48t43.5 71.5t15 89q0 47 -16 87.5t-43.5 70t-66 46.5t-83.5 17q-39 0 -69 -9.5t-51 -22t-32.5 -24t-14.5 -15.5v-308z" />
    <glyph glyph-name="q" unicode="q" horiz-adv-x="556" 
d="M450 46q-10 -9 -25 -19t-35 -18.5t-44.5 -14t-52.5 -5.5q-55 0 -99 18.5t-74.5 51.5t-47 77.5t-16.5 96.5q0 51 17 95t47 76t71.5 50t91.5 18q32 0 58.5 -6t47 -15t36 -19.5t25.5 -19.5v42q0 8 7 8h4q7 0 7 -8v-684q0 -8 -7 -8h-4q-7 0 -7 8v276zM450 383
q-3 4 -14.5 15.5t-32.5 24t-51 22t-69 9.5q-45 0 -83.5 -17t-66 -46.5t-43.5 -70t-16 -87.5q0 -48 15 -89t43.5 -71.5t69 -48t91.5 -17.5q36 0 64 9.5t48 21.5t31.5 23t13.5 14v308z" />
    <glyph glyph-name="r" unicode="r" horiz-adv-x="366" 
d="M88 454q0 8 7 8h4q7 0 7 -8v-61q9 12 23 26t33 25.5t43 19.5t53 8q40 0 59.5 -7.5t25.5 -11.5q5 -4 2 -11l-2 -4q-1 -2 -4 -3t-7 1q-5 3 -22.5 10.5t-51.5 7.5q-35 0 -62 -12.5t-45.5 -28.5t-30 -31t-14.5 -20v-354q0 -8 -7 -8h-4q-7 0 -7 8v446z" />
    <glyph glyph-name="s" unicode="s" horiz-adv-x="425" 
d="M215 -11q-58 0 -96.5 17.5t-56.5 33.5q-5 5 -2 10l4 5q4 6 10 1q18 -15 52.5 -32t88.5 -17q31 0 58 8.5t47 23.5t31.5 34.5t11.5 41.5q0 25 -12.5 43t-34.5 31t-50.5 23t-61.5 19q-77 21 -113.5 48t-36.5 76q0 20 9.5 40.5t28.5 37.5t48 28t68 11q47 0 80.5 -12t51.5 -23
q2 -2 3 -5t-1 -6l-2 -3q-2 -3 -4 -4t-7 1q-19 11 -49 22.5t-72 11.5q-35 0 -61 -9.5t-42.5 -23.5t-24.5 -32t-8 -34q0 -42 35 -64.5t102 -41.5q35 -10 66 -20.5t54.5 -25t37.5 -36t14 -52.5q0 -27 -13 -50t-35.5 -40t-52.5 -26.5t-65 -9.5z" />
    <glyph glyph-name="t" unicode="t" horiz-adv-x="344" 
d="M97 444h-49q-7 0 -7 6v5q0 7 7 7h49v125q0 7 6 7h5q7 0 7 -7v-125h190q7 0 7 -7v-5q0 -6 -7 -6h-190v-320q0 -24 2 -45.5t10 -37.5t25.5 -25t47.5 -9q18 0 37.5 4.5t37 10.5t30.5 12.5t19 10.5q4 2 5.5 1t3.5 -3l3 -5q3 -5 -2 -8q-6 -4 -19.5 -11t-32 -13.5t-40 -11.5
t-42.5 -5q-36 0 -57 10.5t-31 28.5t-12.5 42.5t-2.5 53.5v320z" />
    <glyph glyph-name="u" unicode="u" horiz-adv-x="528" 
d="M82 454q0 8 6 8h6q6 0 6 -8v-253q0 -95 39 -144t123 -49q39 0 68 12.5t48.5 28.5t30 31t13.5 19v355q0 8 7 8h5q6 0 6 -8v-446q0 -8 -6 -8h-5q-7 0 -7 8v61q-10 -12 -24.5 -26t-34 -26t-44.5 -20t-57 -8q-94 0 -137 53t-43 159v253z" />
    <glyph glyph-name="v" unicode="v" horiz-adv-x="468" 
d="M23 457q-3 7 1 9l6 3q6 3 8 -4l196 -451l196 451q2 6 8 4l6 -4q4 -3 1 -8l-204 -469q-7 -12 -14 0z" />
    <glyph glyph-name="w" unicode="w" horiz-adv-x="680" 
d="M32 458q-2 6 3 8l5 2q7 4 9 -4l145 -440l138 450q2 5 8 5t8 -5l137 -450l146 438q1 3 3 5.5t6 0.5l5 -2q5 -1 3 -8l-154 -467q-2 -7 -8 -7t-8 7l-138 447l-137 -447q-2 -7 -8 -7t-8 7z" />
    <glyph glyph-name="x" unicode="x" horiz-adv-x="451" 
d="M50 1q-2 -2 -3.5 -2.5t-5.5 1.5l-4 3q-4 4 -1 9l179 227l-173 216q-2 4 2 8l5 4q4 4 8 -2l168 -214l170 214q4 5 7 2l6 -5q3 -3 1 -7l-173 -216l180 -227q4 -6 -1 -9l-5 -4q-2 -1 -4.5 -1.5t-4.5 2.5l-176 226z" />
    <glyph glyph-name="y" unicode="y" horiz-adv-x="470" 
d="M22 457q-3 5 1 8l6 3q6 3 8 -4l200 -438l195 438q2 7 8 4l6 -3q4 -3 1 -8l-310 -695q-4 -9 -10 -5l-4 2q-6 3 -2 10l106 239z" />
    <glyph glyph-name="z" unicode="z" horiz-adv-x="420" 
d="M356 444h-288q-7 0 -7 6v5q0 7 7 7h308q6 0 8.5 -4t-0.5 -9l-329 -431h309q8 0 8 -7v-4q0 -7 -8 -7h-328q-5 0 -8 4t1 9z" />
    <glyph glyph-name="braceleft" unicode="{" horiz-adv-x="332" 
d="M114 133q0 22 -8 39.5t-19 28.5t-23.5 17t-22.5 6q-7 0 -7 7v4q0 7 7 7q9 0 21.5 5.5t24 16.5t19.5 28.5t8 40.5v145q0 69 15 114t40.5 71.5t60 36.5t74.5 10q7 0 7 -7v-4q0 -7 -7 -7q-36 0 -67.5 -9.5t-54.5 -33.5t-36.5 -65.5t-13.5 -105.5v-145q0 -39 -19.5 -64
t-40.5 -36q21 -11 40.5 -36t19.5 -64v-148q0 -64 13.5 -106t36.5 -66.5t54.5 -34t67.5 -9.5q7 0 7 -7v-4q0 -7 -7 -7q-40 0 -74.5 10.5t-60 37t-40.5 72t-15 114.5v148z" />
    <glyph glyph-name="bar" unicode="|" horiz-adv-x="194" 
d="M88 752q0 7 7 7h4q7 0 7 -7v-983q0 -7 -7 -7h-4q-7 0 -7 7v983z" />
    <glyph glyph-name="braceright" unicode="}" horiz-adv-x="331" 
d="M200 133q0 39 19.5 64t40.5 36q-21 11 -40.5 36t-19.5 64v145q0 64 -13.5 105.5t-36.5 65.5t-54.5 33.5t-67.5 9.5q-7 0 -7 7v4q0 7 7 7q40 0 74.5 -10t60 -36.5t40.5 -71.5t15 -114v-145q0 -23 8 -40.5t19.5 -28.5t24 -16.5t21.5 -5.5q7 0 7 -7v-4q0 -7 -7 -7
q-10 0 -22.5 -6t-24 -17t-19 -28.5t-7.5 -39.5v-148q0 -69 -15 -114.5t-40.5 -72t-60 -37t-74.5 -10.5q-7 0 -7 7v4q0 7 7 7q36 0 67.5 9.5t54.5 34t36.5 66.5t13.5 106v148z" />
    <glyph glyph-name="asciitilde" unicode="~" horiz-adv-x="583" 
d="M70 253q-4 3 -2 8q14 27 33 49q17 18 41.5 33.5t57.5 15.5q18 0 33.5 -6t28 -15t22.5 -20.5t18 -21.5q15 -20 35.5 -38t50.5 -18q29 0 50.5 13.5t36.5 30.5q18 19 30 44q2 5 7 3l5 -2q6 -3 3 -8q-14 -28 -33 -49q-17 -19 -41.5 -34t-57.5 -15q-19 0 -34 6t-27 15t-22 20
t-18 22q-14 19 -35 37t-52 18q-29 0 -50.5 -13.5t-36.5 -30.5q-18 -19 -30 -44q-3 -6 -8 -3z" />
    <glyph glyph-name="uni00A0" unicode="&#xa0;" horiz-adv-x="240" 
 />
    <glyph glyph-name="exclamdown" unicode="&#xa1;" horiz-adv-x="198" 
d="M99 425q-11 0 -17.5 6.5t-6.5 16.5t6.5 17t17.5 7q10 0 17 -7t7 -17t-7 -16.5t-17 -6.5zM90 188q0 7 7 7h4q7 0 7 -7v-419q0 -7 -7 -7h-4q-7 0 -7 7v419z" />
    <glyph glyph-name="cent" unicode="&#xa2;" horiz-adv-x="551" 
d="M59 233q0 52 19.5 96t53 76t78.5 49.5t95 17.5q22 0 42 -3l12 45q3 7 10 6l4 -1q3 -1 4 -4.5t0 -6.5l-11 -41q52 -10 80.5 -29.5t36.5 -26.5q5 -5 0 -10l-5 -6q-3 -3 -10 2q-8 6 -34.5 24t-72.5 27l-115 -433q30 -8 59 -8q39 0 69.5 10.5t52 24t34 25.5t15.5 15q5 5 9 1
l5 -5q4 -5 0 -9l-15 -15t-36.5 -27.5t-57 -26t-76.5 -11.5q-32 0 -64 8l-26 -97q-2 -7 -10 -5l-4 1q-6 1 -4 11l25 96q-35 12 -65 34t-51.5 51.5t-34 66t-12.5 78.5zM77 233q0 -38 11.5 -71.5t31.5 -61t47.5 -47.5t59.5 -32l115 430q-17 3 -37 3q-46 0 -87 -16.5t-72.5 -46
t-50 -70t-18.5 -88.5z" />
    <glyph glyph-name="sterling" unicode="&#xa3;" 
d="M111 10q29 69 40 121.5t11 95.5q0 22 -2.5 43t-6.5 41h-43q-7 0 -7 7v4q0 6 7 6h40q-11 46 -21 88.5t-10 94.5q0 45 16.5 81.5t43.5 62.5t62.5 40.5t73.5 14.5q40 0 70.5 -8t53.5 -19.5t38.5 -23.5t24.5 -21q4 -5 0 -9l-4 -4q-2 -2 -4 -2.5t-4 1.5q-9 8 -23.5 19.5
t-35.5 22.5t-50 18.5t-66 7.5q-35 0 -67 -13t-57 -36.5t-40 -57t-15 -74.5q0 -48 10 -92t22 -91h240q7 0 7 -6v-4q0 -7 -7 -7h-236q3 -20 5 -40.5t2 -43.5q0 -43 -10 -93t-37 -116h350q7 0 7 -7v-4q0 -7 -7 -7h-365q-10 0 -6 10z" />
    <glyph glyph-name="currency" unicode="&#xa4;" horiz-adv-x="494" 
d="M130 311q0 -24 9 -45t25 -36.5t37 -25t45 -9.5q23 0 44.5 9.5t37.5 25t25.5 37t9.5 45.5q0 23 -9 44t-25 37t-37 25.5t-45 9.5t-45.5 -9.5t-37 -25t-25 -37t-9.5 -45.5zM85 153q-3 5 0 10l60 61q-16 19 -24 41t-8 45q0 25 8 48t25 43l-61 62q-3 5 0 10l2 2q5 3 10 0
l62 -62q19 17 41.5 24.5t46.5 7.5q23 0 46 -8t41 -24l63 62q5 3 10 0l2 -2q3 -5 0 -10l-62 -63q34 -39 34 -88q0 -50 -32 -88l60 -61q3 -5 0 -10l-2 -2q-5 -3 -10 0l-61 60q-20 -17 -42.5 -25t-46.5 -8t-47 8t-42 25l-61 -60q-5 -3 -10 0z" />
    <glyph glyph-name="yen" unicode="&#xa5;" 
d="M122 155q-6 0 -6 6v4q0 3 2 5.5t4 1.5h169v101h-169q-6 0 -6 6v4q0 3 2 5.5t4 1.5h169v53l-244 345q-4 5 1 9l6 4q3 2 4.5 0.5l3.5 -3.5l238 -339l238 339q4 6 8 3l6 -4q5 -4 1 -9l-244 -344v-54h170q6 0 6 -7v-4q0 -6 -6 -6h-170v-101h170q6 0 6 -7v-4q0 -6 -6 -6h-170
v-148q0 -7 -7 -7h-4q-7 0 -7 7v148h-169z" />
    <glyph glyph-name="brokenbar" unicode="&#xa6;" horiz-adv-x="200" 
d="M98 384q-7 0 -7 7v361q0 7 7 7h4q7 0 7 -7v-361q0 -7 -7 -7h-4zM91 131q0 6 7 6h4q7 0 7 -6v-361q0 -7 -7 -7h-4q-7 0 -7 7v361z" />
    <glyph glyph-name="section" unicode="&#xa7;" horiz-adv-x="564" 
d="M95 -120q3 3 8 -1q4 -5 19.5 -17t39.5 -24.5t56.5 -22.5t72.5 -10q37 0 71.5 11.5t61 31t42 45.5t15.5 56q0 38 -15 65t-41.5 47t-63.5 34t-82 25q-44 11 -82 25.5t-66 36.5t-44.5 52.5t-16.5 72.5q0 29 11.5 58t37.5 54q-23 21 -35 49t-12 66q0 30 12 61.5t38 57
t67 41.5t100 16q38 0 68.5 -8t53.5 -18q26 -11 48 -25q4 -2 1 -7l-4 -7q-1 -2 -3 -3.5t-5 0.5q-20 14 -45 25q-21 9 -50 17t-64 8q-54 0 -92 -14.5t-62 -37t-35 -51t-11 -55.5q0 -36 14.5 -63.5t40 -48t61 -35t78.5 -24.5q48 -12 88 -27t68.5 -36t44.5 -51t16 -72
q0 -29 -17 -57.5t-39 -50.5q26 -21 40 -49.5t14 -70.5q0 -33 -17 -62.5t-45.5 -51.5t-66 -34.5t-78.5 -12.5q-42 0 -76.5 10.5t-60.5 23.5t-42.5 25.5t-21.5 17.5t-1 9zM283 137q45 -11 81.5 -24.5t64.5 -32.5q20 19 36 45t16 52q0 37 -15 64t-41.5 46.5t-63.5 33.5t-82 25
q-44 11 -81 25.5t-65 36.5q-23 -22 -33.5 -48t-10.5 -53q0 -36 14.5 -63.5t40 -47.5t61 -34.5t78.5 -24.5z" />
    <glyph glyph-name="dieresis" unicode="&#xa8;" horiz-adv-x="414" 
d="M319 605q-22 0 -22 22q0 23 22 23q23 0 23 -23q0 -22 -23 -22zM130 605q-23 0 -23 22q0 23 23 23q22 0 22 -23q0 -22 -22 -22z" />
    <glyph glyph-name="copyright" unicode="&#xa9;" horiz-adv-x="859" 
d="M68 350q0 75 28.5 140.5t77.5 114t114.5 77t140.5 28.5t140.5 -28.5t115 -77t78 -114t28.5 -140.5t-28.5 -140.5t-78 -114t-115 -77t-140.5 -28.5t-140.5 28.5t-114.5 77t-77.5 114t-28.5 140.5zM86 350q0 -71 27 -133t73.5 -108.5t109 -73.5t133.5 -27t133.5 27
t109.5 73.5t74 108.5t27 133t-27 133t-74 108.5t-109.5 73.5t-133.5 27t-133.5 -27t-109 -73.5t-73.5 -108.5t-27 -133zM246 348q0 40 15 75.5t41 61.5t61 41t75 15q31 0 61 -9.5t56 -29.5q5 -3 2 -8l-4 -5q-3 -4 -7 -1q-24 19 -52 27.5t-56 8.5q-36 0 -68 -13.5
t-55.5 -37.5t-37.5 -56t-14 -69q0 -36 14 -67.5t37.5 -55.5t55.5 -37.5t68 -13.5q29 0 56 8.5t53 30.5q5 5 9 -2l3 -5q2 -4 -1 -7q-26 -23 -56 -33t-64 -10q-40 0 -75 15t-61 41t-41 61t-15 75z" />
    <glyph glyph-name="ordfeminine" unicode="&#xaa;" horiz-adv-x="355" 
d="M155 401q-44 0 -73 27t-29 74q0 42 35 70t93 28q24 0 46 -4t35 -9v26q0 42 -16 60.5t-59 18.5q-21 0 -37 -3.5t-27 -7.5q-13 -4 -23 -10q-5 -2 -7 1l-3 6q-4 4 2 8q11 7 25 12q12 5 29.5 8.5t40.5 3.5q53 0 73 -24.5t20 -72.5v-196q0 -7 -7 -7h-4q-7 0 -7 7v25
q-17 -14 -45.5 -27.5t-61.5 -13.5zM155 419q18 0 35 5t31 12t24.5 15.5t16.5 15.5v102q-9 3 -31.5 9t-49.5 6q-51 0 -80.5 -23.5t-29.5 -58.5q0 -40 24 -61.5t60 -21.5z" />
    <glyph glyph-name="guillemotleft" unicode="&#xab;" horiz-adv-x="416" 
d="M216 234q-3 4 0 8l122 170q3 5 9 2l5 -3q5 -3 2 -8l-117 -165l117 -167q3 -5 -2 -8l-5 -3q-6 -3 -9 2zM56 234q-3 4 0 8l122 170q3 5 9 2l5 -3q5 -3 2 -8l-117 -165l117 -167q3 -5 -2 -8l-5 -3q-6 -3 -9 2z" />
    <glyph glyph-name="logicalnot" unicode="&#xac;" horiz-adv-x="588" 
d="M104 340q-7 0 -7 7v4q0 7 7 7h389q7 0 7 -7v-197q0 -7 -7 -7h-4q-7 0 -7 7v186h-378z" />
    <glyph glyph-name="uni00AD" unicode="&#xad;" horiz-adv-x="405" 
d="M81 243q-6 0 -6 7v4q0 7 6 7h243q6 0 6 -7v-4q0 -7 -6 -7h-243z" />
    <glyph glyph-name="registered" unicode="&#xae;" horiz-adv-x="859" 
d="M68 350q0 75 28.5 140.5t77.5 114t114.5 77t140.5 28.5t140.5 -28.5t115 -77t78 -114t28.5 -140.5t-28.5 -140.5t-78 -114t-115 -77t-140.5 -28.5t-140.5 28.5t-114.5 77t-77.5 114t-28.5 140.5zM86 350q0 -71 27 -133t73.5 -108.5t109 -73.5t133.5 -27t133.5 27
t109.5 73.5t74 108.5t27 133t-27 133t-74 108.5t-109.5 73.5t-133.5 27t-133.5 -27t-109 -73.5t-73.5 -108.5t-27 -133zM298 532q0 7 6 7h150q25 0 48.5 -6.5t41.5 -20.5t29 -35.5t11 -51.5q0 -26 -9.5 -46.5t-24.5 -34.5t-34.5 -22.5t-40.5 -11.5l78 -134q3 -4 -2 -7l-6 -3
q-4 -3 -8 3l-81 140h-2h-139v-136q0 -7 -7 -7h-4q-6 0 -6 7v359zM454 326q20 0 40 6t36 18.5t26 31t10 43.5t-9.5 43.5t-25.5 30.5t-36 17.5t-41 5.5h-139v-196h139z" />
    <glyph glyph-name="macron" unicode="&#xaf;" horiz-adv-x="414" 
d="M63 607q-7 0 -7 7v4q0 7 7 7h288q7 0 7 -7v-4q0 -7 -7 -7h-288z" />
    <glyph glyph-name="degree" unicode="&#xb0;" horiz-adv-x="390" 
d="M195 427q-29 0 -55 11t-45 30.5t-30 45t-11 55.5q0 29 11 55t30 45t45 30t55 11t54.5 -11t45 -30t30.5 -45t11 -55q0 -30 -11 -55.5t-30.5 -45t-45 -30.5t-54.5 -11zM195 445q25 0 47.5 9.5t39 26.5t26 39.5t9.5 48.5q0 25 -9.5 47.5t-26 39.5t-39 26.5t-47.5 9.5
q-26 0 -48.5 -9.5t-39 -26.5t-26 -39.5t-9.5 -47.5q0 -26 9.5 -48.5t26 -39.5t39 -26.5t48.5 -9.5z" />
    <glyph glyph-name="plusminus" unicode="&#xb1;" 
d="M290 381h-186q-7 0 -7 7v4q0 7 7 7h186v185q0 7 7 7h4q7 0 7 -7v-185h185q7 0 7 -7v-4q0 -7 -7 -7h-185v-156q0 -7 -7 -7h-4q-7 0 -7 7v156zM100 96q0 7 7 7h389q7 0 7 -7v-4q0 -7 -7 -7h-389q-7 0 -7 7v4z" />
    <glyph glyph-name="uni00B2" unicode="&#xb2;" horiz-adv-x="286" 
d="M42 504q-5 0 -7 4.5t2 7.5l132 110q23 19 39.5 41.5t16.5 51.5q0 28 -22 50.5t-64 22.5q-20 0 -34 -5.5t-23 -12.5q-11 -8 -17 -18q-3 -7 -9 -3l-5 4l-2.5 2.5t0.5 5.5q8 12 21 22q11 8 28 15.5t41 7.5q25 0 44.5 -7.5t32.5 -20.5t20 -29t7 -34q0 -30 -17.5 -55.5
t-44.5 -48.5l-112 -93h165q6 0 6 -7v-4q0 -7 -6 -7h-192z" />
    <glyph glyph-name="uni00B3" unicode="&#xb3;" horiz-adv-x="305" 
d="M147 494q-23 0 -41 5t-31 12t-22 14t-13 11q-5 5 0 10l3 3q5 5 10 0q4 -3 11 -9.5t18 -12.5t27.5 -10.5t38.5 -4.5q44 0 69 19.5t25 49.5q0 26 -22 45.5t-61 19.5h-65q-7 0 -7 7v4q0 7 7 7h65q32 0 53 19t21 46q0 29 -21.5 46t-59.5 17q-23 0 -39 -5.5t-27 -12.5
q-12 -8 -21 -18q-4 -4 -7 -1l-5 4q-4 3 -4 5t2 4q10 11 25 21q13 8 31.5 14.5t44.5 6.5q45 0 72.5 -21.5t27.5 -59.5q0 -23 -16 -43.5t-36 -29.5q27 -9 44 -30t17 -45q0 -38 -31.5 -62.5t-82.5 -24.5z" />
    <glyph glyph-name="acute" unicode="&#xb4;" horiz-adv-x="302" 
d="M63 560q-6 -3 -9 3l-2 5q-2 4 3 7l182 91q2 1 4.5 1t4.5 -4l2 -4q3 -6 -3 -9z" />
    <glyph glyph-name="mu" unicode="&#xb5;" horiz-adv-x="525" 
d="M96 454q0 8 6 8h6q6 0 6 -8v-253q0 -95 39 -144t123 -49q39 0 68 12.5t48.5 28.5t30 31t13.5 19v355q0 8 7 8h5q6 0 6 -8v-446q0 -8 -6 -8h-5q-7 0 -7 8v61q-10 -12 -24.5 -26t-34 -26t-44.5 -20t-57 -8q-125 0 -162 97v-316q0 -8 -7 -8h-4q-7 0 -7 8v420v11v253z" />
    <glyph glyph-name="paragraph" unicode="&#xb6;" horiz-adv-x="700" 
d="M251 274q-44 0 -82.5 16.5t-67.5 45.5t-46 68t-17 84q0 44 15.5 82.5t42 67.5t63 45.5t78.5 16.5h414q7 0 7 -7v-4q0 -7 -7 -7h-100v-913q0 -7 -7 -7h-4q-7 0 -7 7v913h-193v-913q0 -7 -7 -7h-4q-6 0 -6 7v913h-86q-38 0 -71 -15.5t-57.5 -41.5t-38.5 -61.5t-14 -75.5
q0 -42 15.5 -78t42 -62.5t62 -41.5t75.5 -15q7 0 7 -7v-4q0 -6 -7 -6z" />
    <glyph glyph-name="periodcentered" unicode="&#xb7;" horiz-adv-x="198" 
d="M99 238q-10 0 -17 7t-7 17t7 16.5t17 6.5q11 0 17.5 -6.5t6.5 -16.5t-6.5 -17t-17.5 -7z" />
    <glyph glyph-name="cedilla" unicode="&#xb8;" horiz-adv-x="247" 
d="M150 3l-54 -80q13 6 33 6q15 0 30.5 -5t27.5 -14.5t19.5 -25t7.5 -36.5q0 -36 -25.5 -59.5t-65.5 -23.5q-26 0 -45.5 10t-32.5 24q-5 4 0 9l6 5q5 3 9 -1q11 -13 25.5 -21t37.5 -8q33 0 52.5 18t19.5 47q0 31 -19.5 47t-47.5 16q-27 0 -48 -9q-5 -2 -8 3t-1 8l57 90h22z
" />
    <glyph glyph-name="uni00B9" unicode="&#xb9;" horiz-adv-x="167" 
d="M102 504q-7 0 -7 7v266l-55 -41q-5 -3 -8 1l-5 7q-2 4 2 7l73 53q4 3 7.5 1t3.5 -7v-287q0 -7 -7 -7h-4z" />
    <glyph glyph-name="ordmasculine" unicode="&#xba;" horiz-adv-x="360" 
d="M180 394q-57 0 -89 42.5t-32 115.5q0 74 32 116t89 42t89.5 -42t32.5 -116q0 -73 -32.5 -115.5t-89.5 -42.5zM180 412q50 0 77 37t27 103t-27 103.5t-77 37.5q-49 0 -76.5 -37.5t-27.5 -103.5t27.5 -103t76.5 -37z" />
    <glyph glyph-name="guillemotright" unicode="&#xbb;" horiz-adv-x="417" 
d="M340 238l-117 165q-4 5 2 8l5 3q6 3 9 -2l122 -170q3 -4 0 -8l-122 -172q-3 -5 -9 -2l-5 3q-6 3 -2 8zM65 63q-6 3 -2 8l117 167l-117 165q-4 5 2 8l5 3q6 3 9 -2l122 -170q3 -4 0 -8l-122 -172q-3 -5 -9 -2z" />
    <glyph glyph-name="onequarter" unicode="&#xbc;" horiz-adv-x="624" 
d="M129 404q-7 0 -7 7v266l-55 -41q-5 -3 -8 1l-5 7q-2 4 2 7l73 53q4 3 7.5 1t3.5 -7v-287q0 -7 -7 -7h-4zM482 698q3 4 8 1l6 -3q2 -1 3 -2.5t-1 -5.5l-417 -686q-4 -5 -7 -3l-8 5q-4 3 -1 8zM508 302q4 3 8 1.5t4 -6.5v-212h50q7 0 7 -7v-4q0 -6 -7 -6h-50v-61
q0 -7 -7 -7h-4q-7 0 -7 7v61h-192q-5 0 -6.5 3.5t1.5 7.5zM502 85v185l-170 -185h170z" />
    <glyph glyph-name="onehalf" unicode="&#xbd;" horiz-adv-x="609" 
d="M129 404q-7 0 -7 7v266l-55 -41q-5 -3 -8 1l-5 7q-2 4 2 7l73 53q4 3 7.5 1t3.5 -7v-287q0 -7 -7 -7h-4zM482 698q3 4 8 1l6 -3q2 -1 3 -2.5t-1 -5.5l-417 -686q-4 -5 -7 -3l-8 5q-4 3 -1 8zM478 122q23 19 39.5 41.5t16.5 51.5q0 28 -22 50.5t-64 22.5q-20 0 -34 -5.5
t-23 -12.5q-11 -8 -17 -18q-3 -7 -9 -3l-5 4l-2.5 2.5t0.5 5.5q8 12 21 22q11 8 28 15.5t41 7.5q25 0 44.5 -7.5t32.5 -20.5t20 -29t7 -34q0 -30 -17.5 -55.5t-44.5 -48.5l-112 -93h165q6 0 6 -7v-4q0 -7 -6 -7h-192q-5 0 -7 4.5t2 7.5z" />
    <glyph glyph-name="threequarters" unicode="&#xbe;" horiz-adv-x="685" 
d="M164 394q-23 0 -41 5t-31 12t-22 14t-13 11q-5 5 0 10l3 3q5 5 10 0q4 -3 11 -9.5t18 -12.5t27.5 -10.5t38.5 -4.5q44 0 69 19.5t25 49.5q0 26 -22 45.5t-61 19.5h-65q-7 0 -7 7v4q0 7 7 7h65q32 0 53 19t21 46q0 29 -21.5 46t-59.5 17q-23 0 -39 -5.5t-27 -12.5
q-12 -8 -21 -18q-4 -4 -7 -1l-5 4q-4 3 -4 5t2 4q10 11 25 21q13 8 31.5 14.5t44.5 6.5q45 0 72.5 -21.5t27.5 -59.5q0 -23 -16 -43.5t-36 -29.5q27 -9 44 -30t17 -45q0 -38 -31.5 -62.5t-82.5 -24.5zM543 698q3 4 8 1l6 -3q2 -1 3 -2.5t-1 -5.5l-417 -686q-4 -5 -7 -3l-8 5
q-4 3 -1 8zM569 302q4 3 8 1.5t4 -6.5v-212h50q7 0 7 -7v-4q0 -6 -7 -6h-50v-61q0 -7 -7 -7h-4q-7 0 -7 7v61h-192q-5 0 -6.5 3.5t1.5 7.5zM563 85v185l-170 -185h170z" />
    <glyph glyph-name="questiondown" unicode="&#xbf;" horiz-adv-x="476" 
d="M261 425q-11 0 -17.5 6.5t-6.5 16.5t6.5 17t17.5 7q10 0 16.5 -7t6.5 -17t-6.5 -16.5t-16.5 -6.5zM208 73q7 4 15.5 9t15.5 12.5t12 17.5t5 25v60q0 7 7 7h4q7 0 7 -7v-60q0 -18 -6.5 -31.5t-15.5 -23t-19 -15.5t-17 -10q-17 -9 -38.5 -23.5t-41.5 -34.5t-33.5 -45
t-13.5 -56q0 -27 11.5 -51t33 -41t51.5 -27t66 -10q45 0 77.5 12.5t53.5 28.5q25 18 41 41q4 6 8 2l5 -4l3 -3t-1 -5q-18 -26 -45 -45q-23 -17 -58.5 -31t-83.5 -14q-40 0 -73 11.5t-56.5 31t-36.5 46.5t-13 58q0 34 14.5 62t35.5 50t44.5 37.5t41.5 25.5z" />
    <glyph glyph-name="Agrave" unicode="&#xc0;" horiz-adv-x="633" 
d="M312 717q2 4 5 4h2q3 0 5 -4l302 -710q1 -5 -3 -6l-9 -3q-3 -1 -5 3l-89 209h-409l-90 -209q-2 -4 -5 -3l-9 3q-5 1 -3 6zM512 227l-194 458l-199 -458h393zM233 868q-6 3 -3 9l2 4q2 4 4.5 4t4.5 -1l182 -91q5 -3 3 -7l-2 -5q-3 -6 -9 -3z" />
    <glyph glyph-name="Aacute" unicode="&#xc1;" horiz-adv-x="633" 
d="M312 717q2 4 5 4h2q3 0 5 -4l302 -710q1 -5 -3 -6l-9 -3q-3 -1 -5 3l-89 209h-409l-90 -209q-2 -4 -5 -3l-9 3q-5 1 -3 6zM512 227l-194 458l-199 -458h393zM237 778q-6 -3 -9 3l-2 5q-2 4 3 7l182 91q2 1 4.5 1t4.5 -4l2 -4q3 -6 -3 -9z" />
    <glyph glyph-name="Acircumflex" unicode="&#xc2;" horiz-adv-x="633" 
d="M312 717q2 4 5 4h2q3 0 5 -4l302 -710q1 -5 -3 -6l-9 -3q-3 -1 -5 3l-89 209h-409l-90 -209q-2 -4 -5 -3l-9 3q-5 1 -3 6zM512 227l-194 458l-199 -458h393zM193 763q-3 -2 -4.5 -1t-2.5 2l-4 5q-2 4 2 8l129 106q4 4 8 0l129 -106q4 -4 2 -8l-4 -5q-1 -1 -2.5 -2t-4.5 1
l-124 101z" />
    <glyph glyph-name="Atilde" unicode="&#xc3;" horiz-adv-x="633" 
d="M312 717q2 4 5 4h2q3 0 5 -4l302 -710q1 -5 -3 -6l-9 -3q-3 -1 -5 3l-89 209h-409l-90 -209q-2 -4 -5 -3l-9 3q-5 1 -3 6zM512 227l-194 458l-199 -458h393zM173 804q-6 1 -3 9q2 7 7.5 21t15.5 28t25.5 24.5t37.5 10.5q17 0 28.5 -6t19 -15.5t12.5 -20t9 -19.5
q6 -14 17.5 -30t35.5 -16q17 0 29 9t20 21t12.5 24t6.5 18q2 7 7 5l8 -2q6 -2 3 -9q-2 -7 -7.5 -21t-15.5 -28t-25.5 -24.5t-37.5 -10.5q-17 0 -29 6.5t-20 15.5t-13.5 19.5t-8.5 18.5q-3 6 -6.5 14.5t-9.5 16t-14.5 12.5t-20.5 5q-17 0 -29 -9t-20 -21t-12.5 -24.5
t-6.5 -18.5q-2 -7 -7 -5z" />
    <glyph glyph-name="Adieresis" unicode="&#xc4;" horiz-adv-x="633" 
d="M312 717q2 4 5 4h2q3 0 5 -4l302 -710q1 -5 -3 -6l-9 -3q-3 -1 -5 3l-89 209h-409l-90 -209q-2 -4 -5 -3l-9 3q-5 1 -3 6zM512 227l-194 458l-199 -458h393zM421 808q-23 0 -23 22q0 23 23 23t23 -23q0 -22 -23 -22zM214 808q-23 0 -23 22q0 23 23 23t23 -23
q0 -22 -23 -22z" />
    <glyph glyph-name="Aring" unicode="&#xc5;" horiz-adv-x="633" 
d="M312 717q2 4 5 4h2q3 0 5 -4l302 -710q1 -5 -3 -6l-9 -3q-3 -1 -5 3l-89 209h-409l-90 -209q-2 -4 -5 -3l-9 3q-5 1 -3 6zM512 227l-194 458l-199 -458h393zM318 750q-45 0 -74.5 29.5t-29.5 74.5q0 44 29.5 74t74.5 30q44 0 74 -30t30 -74q0 -45 -30 -74.5t-74 -29.5z
M318 767q18 0 33.5 7t27 18.5t18.5 27.5t7 34t-7 33.5t-18.5 27.5t-27 19t-33.5 7t-33.5 -7t-27.5 -19t-18.5 -27.5t-6.5 -33.5q0 -36 25 -61.5t61 -25.5z" />
    <glyph glyph-name="AE" unicode="&#xc6;" horiz-adv-x="916" 
d="M-7 2l-3 3t1 5l445 682q3 5 6 6.5t11 1.5h398q7 0 7 -7v-4q0 -7 -7 -7h-396v-309h348q7 0 7 -7v-4q0 -7 -7 -7h-348v-337h396q7 0 7 -7v-4q0 -7 -7 -7h-406q-7 0 -7 7v203h-295l-137 -210q-3 -4 -8 -1zM438 227v435l-285 -435h285z" />
    <glyph glyph-name="Ccedilla" unicode="&#xc7;" horiz-adv-x="724" 
d="M60 349q0 75 28.5 141t77.5 115t115.5 77t141.5 28q77 0 134.5 -25t108.5 -68q4 -4 1 -8l-5 -6q-4 -4 -8 0q-49 42 -104 65.5t-127 23.5t-134.5 -26.5t-109.5 -73t-74 -109t-27 -134.5t27 -134t74 -108t109.5 -72.5t134.5 -26.5q129 0 231 93q5 5 8 0l5 -6q3 -4 0 -7
q-52 -50 -114.5 -74t-129.5 -24h-10.5t-10.5 1l-45 -68q13 6 33 6q15 0 30.5 -5t27.5 -14.5t19.5 -25t7.5 -36.5q0 -36 -25.5 -59.5t-65.5 -23.5q-26 0 -45.5 10t-32.5 24q-5 4 0 9l6 5q5 3 9 -1q11 -13 25.5 -21t37.5 -8q33 0 52.5 18t19.5 47q0 31 -19.5 47t-47.5 16
q-27 0 -48 -9q-5 -2 -8 3t-1 8l50 79q-68 7 -127 37.5t-102.5 78t-68 109.5t-24.5 132z" />
    <glyph glyph-name="Egrave" unicode="&#xc8;" horiz-adv-x="587" 
d="M108 693q0 7 7 7h407q7 0 7 -7v-4q0 -7 -7 -7h-396v-309h348q7 0 7 -7v-4q0 -7 -7 -7h-348v-337h396q7 0 7 -7v-4q0 -7 -7 -7h-407q-7 0 -7 7v686zM235 868q-6 3 -3 9l2 4q2 4 4.5 4t4.5 -1l182 -91q5 -3 3 -7l-2 -5q-3 -6 -9 -3z" />
    <glyph glyph-name="Eacute" unicode="&#xc9;" horiz-adv-x="587" 
d="M108 693q0 7 7 7h407q7 0 7 -7v-4q0 -7 -7 -7h-396v-309h348q7 0 7 -7v-4q0 -7 -7 -7h-348v-337h396q7 0 7 -7v-4q0 -7 -7 -7h-407q-7 0 -7 7v686zM239 778q-6 -3 -9 3l-2 5q-2 4 3 7l182 91q2 1 4.5 1t4.5 -4l2 -4q3 -6 -3 -9z" />
    <glyph glyph-name="Ecircumflex" unicode="&#xca;" horiz-adv-x="587" 
d="M108 693q0 7 7 7h407q7 0 7 -7v-4q0 -7 -7 -7h-396v-309h348q7 0 7 -7v-4q0 -7 -7 -7h-348v-337h396q7 0 7 -7v-4q0 -7 -7 -7h-407q-7 0 -7 7v686zM194 763q-3 -2 -4.5 -1t-2.5 2l-4 5q-2 4 2 8l129 106q4 4 8 0l129 -106q4 -4 2 -8l-4 -5q-1 -1 -2.5 -2t-4.5 1l-124 101
z" />
    <glyph glyph-name="Edieresis" unicode="&#xcb;" horiz-adv-x="587" 
d="M108 693q0 7 7 7h407q7 0 7 -7v-4q0 -7 -7 -7h-396v-309h348q7 0 7 -7v-4q0 -7 -7 -7h-348v-337h396q7 0 7 -7v-4q0 -7 -7 -7h-407q-7 0 -7 7v686zM423 808q-23 0 -23 22q0 23 23 23t23 -23q0 -22 -23 -22zM216 808q-23 0 -23 22q0 23 23 23t23 -23q0 -22 -23 -22z" />
    <glyph glyph-name="Igrave" unicode="&#xcc;" horiz-adv-x="234" 
d="M108 693q0 7 7 7h4q7 0 7 -7v-686q0 -7 -7 -7h-4q-7 0 -7 7v686zM34 868q-6 3 -3 9l2 4q2 4 4.5 4t4.5 -1l182 -91q5 -3 3 -7l-2 -5q-3 -6 -9 -3z" />
    <glyph glyph-name="Iacute" unicode="&#xcd;" horiz-adv-x="234" 
d="M108 693q0 7 7 7h4q7 0 7 -7v-686q0 -7 -7 -7h-4q-7 0 -7 7v686zM37 778q-6 -3 -9 3l-2 5q-2 4 3 7l182 91q2 1 4.5 1t4.5 -4l2 -4q3 -6 -3 -9z" />
    <glyph glyph-name="Icircumflex" unicode="&#xce;" horiz-adv-x="234" 
d="M108 693q0 7 7 7h4q7 0 7 -7v-686q0 -7 -7 -7h-4q-7 0 -7 7v686zM-6 763q-3 -2 -4.5 -1t-2.5 2l-4 5q-2 4 2 8l129 106q4 4 8 0l129 -106q4 -4 2 -8l-4 -5q-1 -1 -2.5 -2t-4.5 1l-124 101z" />
    <glyph glyph-name="Idieresis" unicode="&#xcf;" horiz-adv-x="234" 
d="M108 693q0 7 7 7h4q7 0 7 -7v-686q0 -7 -7 -7h-4q-7 0 -7 7v686zM222 808q-23 0 -23 22q0 23 23 23t23 -23q0 -22 -23 -22zM15 808q-23 0 -23 22q0 23 23 23t23 -23q0 -22 -23 -22z" />
    <glyph glyph-name="Eth" unicode="&#xd0;" horiz-adv-x="749" 
d="M108 340h-40q-7 0 -7 7v4q0 7 7 7h40v335q0 7 7 7h220q73 0 137 -27.5t112 -74.5t76 -111t28 -136q0 -73 -28 -137t-76 -111.5t-112 -75t-137 -27.5h-220q-7 0 -7 7v333zM335 18q69 0 130 26t106.5 71t72 106t26.5 130t-26.5 129t-72 105t-106.5 71t-130 26h-209v-324
h289q7 0 7 -7v-4q0 -7 -7 -7h-289v-322h209z" />
    <glyph glyph-name="Ntilde" unicode="&#xd1;" horiz-adv-x="764" 
d="M108 710q0 5 5 7t8 -3l517 -689v668q0 7 7 7h4q7 0 7 -7v-701q0 -5 -5 -7t-8 3l-517 689v-670q0 -7 -7 -7h-4q-7 0 -7 7v703zM260 804q-6 1 -3 9q2 7 7.5 21t15.5 28t25.5 24.5t37.5 10.5q17 0 28.5 -6t19 -15.5t12.5 -20t9 -19.5q6 -14 17.5 -30t35.5 -16q17 0 29 9
t20 21t12.5 24t6.5 18q2 7 7 5l8 -2q6 -2 3 -9q-2 -7 -7.5 -21t-15.5 -28t-25.5 -24.5t-37.5 -10.5q-17 0 -29 6.5t-20 15.5t-13.5 19.5t-8.5 18.5q-3 6 -6.5 14.5t-9.5 16t-14.5 12.5t-20.5 5q-17 0 -29 -9t-20 -21t-12.5 -24.5t-6.5 -18.5q-2 -7 -7 -5z" />
    <glyph glyph-name="Ograve" unicode="&#xd2;" horiz-adv-x="844" 
d="M61 349q0 75 28 141t77 115t115 77t141 28t141 -28t115 -77t77.5 -115t28.5 -141t-28.5 -140.5t-77.5 -114t-115 -76.5t-141 -28t-141 28t-115 76.5t-77 114t-28 140.5zM79 349q0 -72 26.5 -134t73 -108t109 -72.5t134.5 -26.5t134.5 26.5t109 72.5t73.5 108t27 134
t-27 134.5t-73.5 109t-109 73t-134.5 26.5t-134.5 -26.5t-109 -73t-73 -109t-26.5 -134.5zM338 868q-6 3 -3 9l2 4q2 4 4.5 4t4.5 -1l182 -91q5 -3 3 -7l-2 -5q-3 -6 -9 -3z" />
    <glyph glyph-name="Oacute" unicode="&#xd3;" horiz-adv-x="844" 
d="M61 349q0 75 28 141t77 115t115 77t141 28t141 -28t115 -77t77.5 -115t28.5 -141t-28.5 -140.5t-77.5 -114t-115 -76.5t-141 -28t-141 28t-115 76.5t-77 114t-28 140.5zM79 349q0 -72 26.5 -134t73 -108t109 -72.5t134.5 -26.5t134.5 26.5t109 72.5t73.5 108t27 134
t-27 134.5t-73.5 109t-109 73t-134.5 26.5t-134.5 -26.5t-109 -73t-73 -109t-26.5 -134.5zM342 778q-6 -3 -9 3l-2 5q-2 4 3 7l182 91q2 1 4.5 1t4.5 -4l2 -4q3 -6 -3 -9z" />
    <glyph glyph-name="Ocircumflex" unicode="&#xd4;" horiz-adv-x="844" 
d="M61 349q0 75 28 141t77 115t115 77t141 28t141 -28t115 -77t77.5 -115t28.5 -141t-28.5 -140.5t-77.5 -114t-115 -76.5t-141 -28t-141 28t-115 76.5t-77 114t-28 140.5zM79 349q0 -72 26.5 -134t73 -108t109 -72.5t134.5 -26.5t134.5 26.5t109 72.5t73.5 108t27 134
t-27 134.5t-73.5 109t-109 73t-134.5 26.5t-134.5 -26.5t-109 -73t-73 -109t-26.5 -134.5zM297 763q-3 -2 -4.5 -1t-2.5 2l-4 5q-2 4 2 8l129 106q4 4 8 0l129 -106q4 -4 2 -8l-4 -5q-1 -1 -2.5 -2t-4.5 1l-124 101z" />
    <glyph glyph-name="Otilde" unicode="&#xd5;" horiz-adv-x="844" 
d="M61 349q0 75 28 141t77 115t115 77t141 28t141 -28t115 -77t77.5 -115t28.5 -141t-28.5 -140.5t-77.5 -114t-115 -76.5t-141 -28t-141 28t-115 76.5t-77 114t-28 140.5zM79 349q0 -72 26.5 -134t73 -108t109 -72.5t134.5 -26.5t134.5 26.5t109 72.5t73.5 108t27 134
t-27 134.5t-73.5 109t-109 73t-134.5 26.5t-134.5 -26.5t-109 -73t-73 -109t-26.5 -134.5zM277 804q-6 1 -3 9q2 7 7.5 21t15.5 28t25.5 24.5t37.5 10.5q17 0 28.5 -6t19 -15.5t12.5 -20t9 -19.5q6 -14 17.5 -30t35.5 -16q17 0 29 9t20 21t12.5 24t6.5 18q2 7 7 5l8 -2
q6 -2 3 -9q-2 -7 -7.5 -21t-15.5 -28t-25.5 -24.5t-37.5 -10.5q-17 0 -29 6.5t-20 15.5t-13.5 19.5t-8.5 18.5q-3 6 -6.5 14.5t-9.5 16t-14.5 12.5t-20.5 5q-17 0 -29 -9t-20 -21t-12.5 -24.5t-6.5 -18.5q-2 -7 -7 -5z" />
    <glyph glyph-name="Odieresis" unicode="&#xd6;" horiz-adv-x="844" 
d="M61 349q0 75 28 141t77 115t115 77t141 28t141 -28t115 -77t77.5 -115t28.5 -141t-28.5 -140.5t-77.5 -114t-115 -76.5t-141 -28t-141 28t-115 76.5t-77 114t-28 140.5zM79 349q0 -72 26.5 -134t73 -108t109 -72.5t134.5 -26.5t134.5 26.5t109 72.5t73.5 108t27 134
t-27 134.5t-73.5 109t-109 73t-134.5 26.5t-134.5 -26.5t-109 -73t-73 -109t-26.5 -134.5zM526 808q-23 0 -23 22q0 23 23 23t23 -23q0 -22 -23 -22zM319 808q-23 0 -23 22q0 23 23 23t23 -23q0 -22 -23 -22z" />
    <glyph glyph-name="multiply" unicode="&#xd7;" 
d="M156 207q-2 2 -2 4.5t2 4.5l131 132l-131 131q-3 5 0 10l3 3q5 3 10 0l131 -131l131 131q5 3 10 0l3 -3q3 -5 0 -10l-131 -131l131 -132q2 -2 2 -4.5t-2 -4.5l-3 -3q-2 -2 -4.5 -2t-4.5 2l-132 131l-132 -131q-2 -2 -4.5 -2t-4.5 2z" />
    <glyph glyph-name="Oslash" unicode="&#xd8;" horiz-adv-x="844" 
d="M86 34q-5 5 0 10l66 64q-42 48 -66.5 109.5t-24.5 131.5q0 75 28 141t77 115t115 77t141 28t140.5 -27.5t114.5 -76.5l68 65q4 5 9 0l3 -3q5 -5 0 -10l-68 -65q44 -49 69.5 -111t25.5 -133q0 -75 -28.5 -140.5t-77.5 -114t-115 -76.5t-141 -28q-77 0 -142.5 27t-115.5 77
l-66 -63q-4 -5 -9 0zM664 594q-48 46 -109.5 72t-132.5 26q-72 0 -134.5 -26.5t-109 -73t-73 -109t-26.5 -134.5q0 -67 22.5 -125.5t63.5 -103.5zM178 107q47 -48 109.5 -73.5t134.5 -25.5t134.5 26.5t109 72.5t73.5 108t27 134q0 67 -23.5 126.5t-65.5 105.5z" />
    <glyph glyph-name="Ugrave" unicode="&#xd9;" horiz-adv-x="718" 
d="M100 693q0 7 7 7h4q7 0 7 -7v-441q0 -54 16.5 -99t47.5 -77t75.5 -50t100.5 -18t101 18t76.5 50t48 77t16.5 99v441q0 7 7 7h4q7 0 7 -7v-441q0 -58 -18 -106t-52 -82.5t-82 -54t-108 -19.5t-107.5 19.5t-81 54t-51.5 82.5t-18 106v441zM275 868q-6 3 -3 9l2 4q2 4 4.5 4
t4.5 -1l182 -91q5 -3 3 -7l-2 -5q-3 -6 -9 -3z" />
    <glyph glyph-name="Uacute" unicode="&#xda;" horiz-adv-x="718" 
d="M100 693q0 7 7 7h4q7 0 7 -7v-441q0 -54 16.5 -99t47.5 -77t75.5 -50t100.5 -18t101 18t76.5 50t48 77t16.5 99v441q0 7 7 7h4q7 0 7 -7v-441q0 -58 -18 -106t-52 -82.5t-82 -54t-108 -19.5t-107.5 19.5t-81 54t-51.5 82.5t-18 106v441zM279 778q-6 -3 -9 3l-2 5
q-2 4 3 7l182 91q2 1 4.5 1t4.5 -4l2 -4q3 -6 -3 -9z" />
    <glyph glyph-name="Ucircumflex" unicode="&#xdb;" horiz-adv-x="718" 
d="M100 693q0 7 7 7h4q7 0 7 -7v-441q0 -54 16.5 -99t47.5 -77t75.5 -50t100.5 -18t101 18t76.5 50t48 77t16.5 99v441q0 7 7 7h4q7 0 7 -7v-441q0 -58 -18 -106t-52 -82.5t-82 -54t-108 -19.5t-107.5 19.5t-81 54t-51.5 82.5t-18 106v441zM234 763q-3 -2 -4.5 -1t-2.5 2
l-4 5q-2 4 2 8l129 106q4 4 8 0l129 -106q4 -4 2 -8l-4 -5q-1 -1 -2.5 -2t-4.5 1l-124 101z" />
    <glyph glyph-name="Udieresis" unicode="&#xdc;" horiz-adv-x="718" 
d="M100 693q0 7 7 7h4q7 0 7 -7v-441q0 -54 16.5 -99t47.5 -77t75.5 -50t100.5 -18t101 18t76.5 50t48 77t16.5 99v441q0 7 7 7h4q7 0 7 -7v-441q0 -58 -18 -106t-52 -82.5t-82 -54t-108 -19.5t-107.5 19.5t-81 54t-51.5 82.5t-18 106v441zM463 808q-23 0 -23 22q0 23 23 23
t23 -23q0 -22 -23 -22zM256 808q-23 0 -23 22q0 23 23 23t23 -23q0 -22 -23 -22z" />
    <glyph glyph-name="Yacute" unicode="&#xdd;" horiz-adv-x="552" 
d="M267 343l-264 345q-4 5 1 9l6 4q3 2 4.5 0.5l3.5 -3.5l258 -339l258 339q4 6 8 3l6 -4q5 -4 1 -9l-264 -344v-337q0 -7 -7 -7h-4q-7 0 -7 7v336zM190 778q-6 -3 -9 3l-2 5q-2 4 3 7l182 91q2 1 4.5 1t4.5 -4l2 -4q3 -6 -3 -9z" />
    <glyph glyph-name="Thorn" unicode="&#xde;" horiz-adv-x="592" 
d="M108 693q0 7 7 7h4q7 0 7 -7v-115h197q47 0 89 -18t73 -48.5t49 -71.5t18 -87q0 -48 -18 -89.5t-49 -72.5t-72.5 -49t-88.5 -18h-198v-117q0 -7 -7 -7h-4q-7 0 -7 7v686zM324 141q43 0 81.5 16.5t67 45.5t45 67.5t16.5 82.5q0 43 -16.5 80.5t-45.5 66t-67.5 45
t-81.5 16.5h-197v-420h198z" />
    <glyph glyph-name="germandbls" unicode="&#xdf;" horiz-adv-x="553" 
d="M88 458q0 55 8.5 101.5t29.5 80t56 52t89 18.5q37 0 67 -12.5t52 -35t34 -54t12 -70.5q0 -35 -14 -62.5t-30.5 -49.5t-30.5 -38.5t-14 -29.5q0 -10 11.5 -22.5t31.5 -27.5q18 -14 38 -30.5t36.5 -36t27 -43.5t10.5 -52q0 -44 -14 -73.5t-38 -48.5t-56 -27t-67 -8
q-39 0 -69 8.5t-40 13.5q-6 3 -4 8l3 6q3 7 9 4q8 -5 36.5 -13.5t64.5 -8.5q31 0 59.5 7.5t50 24t34.5 43t13 64.5q0 25 -10 47t-26 40t-34.5 33.5t-34.5 28.5q-20 17 -35 31.5t-15 30.5q0 17 14 34t30.5 38t30.5 47t14 62q0 72 -40.5 113t-106.5 41q-49 0 -81 -16.5
t-50.5 -46.5t-26 -72.5t-7.5 -94.5v-454q0 -8 -7 -8h-4q-7 0 -7 8v450z" />
    <glyph glyph-name="agrave" unicode="&#xe0;" horiz-adv-x="487" 
d="M44 144q0 34 14.5 63t41 50t63.5 33t83 12q43 0 81.5 -9t57.5 -17v43q0 69 -28.5 102t-101.5 33q-33 0 -58.5 -4.5t-42.5 -10.5t-27.5 -11.5t-13.5 -7.5q-8 -4 -11 2l-2 4q-2 5 -1 7t3 3q3 2 14.5 8t30.5 12t46 11t62 5q42 0 70.5 -9t46 -28t24.5 -48t7 -68v-311
q0 -8 -7 -8h-4q-7 0 -7 8v52q-14 -12 -33 -24.5t-42.5 -23t-50.5 -17t-55 -6.5q-34 0 -63 10.5t-50.5 30.5t-34 49t-12.5 65zM62 144q0 -32 11 -57.5t30.5 -43t45 -27t55.5 -9.5q31 0 60 8.5t53 20.5t41.5 25.5t26.5 24.5v171q-6 2 -20 6.5t-32.5 9t-41 8t-45.5 3.5
q-41 0 -75 -10.5t-58 -29.5t-37.5 -44.5t-13.5 -55.5zM148 650q-6 3 -3 9l2 4q2 4 4.5 4t4.5 -1l182 -91q5 -3 3 -7l-2 -5q-3 -6 -9 -3z" />
    <glyph glyph-name="aacute" unicode="&#xe1;" horiz-adv-x="487" 
d="M44 144q0 34 14.5 63t41 50t63.5 33t83 12q43 0 81.5 -9t57.5 -17v43q0 69 -28.5 102t-101.5 33q-33 0 -58.5 -4.5t-42.5 -10.5t-27.5 -11.5t-13.5 -7.5q-8 -4 -11 2l-2 4q-2 5 -1 7t3 3q3 2 14.5 8t30.5 12t46 11t62 5q42 0 70.5 -9t46 -28t24.5 -48t7 -68v-311
q0 -8 -7 -8h-4q-7 0 -7 8v52q-14 -12 -33 -24.5t-42.5 -23t-50.5 -17t-55 -6.5q-34 0 -63 10.5t-50.5 30.5t-34 49t-12.5 65zM62 144q0 -32 11 -57.5t30.5 -43t45 -27t55.5 -9.5q31 0 60 8.5t53 20.5t41.5 25.5t26.5 24.5v171q-6 2 -20 6.5t-32.5 9t-41 8t-45.5 3.5
q-41 0 -75 -10.5t-58 -29.5t-37.5 -44.5t-13.5 -55.5zM167 560q-6 -3 -9 3l-2 5q-2 4 3 7l182 91q2 1 4.5 1t4.5 -4l2 -4q3 -6 -3 -9z" />
    <glyph glyph-name="acircumflex" unicode="&#xe2;" horiz-adv-x="487" 
d="M44 144q0 34 14.5 63t41 50t63.5 33t83 12q43 0 81.5 -9t57.5 -17v43q0 69 -28.5 102t-101.5 33q-33 0 -58.5 -4.5t-42.5 -10.5t-27.5 -11.5t-13.5 -7.5q-8 -4 -11 2l-2 4q-2 5 -1 7t3 3q3 2 14.5 8t30.5 12t46 11t62 5q42 0 70.5 -9t46 -28t24.5 -48t7 -68v-311
q0 -8 -7 -8h-4q-7 0 -7 8v52q-14 -12 -33 -24.5t-42.5 -23t-50.5 -17t-55 -6.5q-34 0 -63 10.5t-50.5 30.5t-34 49t-12.5 65zM62 144q0 -32 11 -57.5t30.5 -43t45 -27t55.5 -9.5q31 0 60 8.5t53 20.5t41.5 25.5t26.5 24.5v171q-6 2 -20 6.5t-32.5 9t-41 8t-45.5 3.5
q-41 0 -75 -10.5t-58 -29.5t-37.5 -44.5t-13.5 -55.5zM119 548q-3 -2 -4.5 -1t-2.5 2l-4 5q-2 4 2 8l129 106q4 4 8 0l129 -106q4 -4 2 -8l-4 -5q-1 -1 -2.5 -2t-4.5 1l-124 101z" />
    <glyph glyph-name="atilde" unicode="&#xe3;" horiz-adv-x="487" 
d="M44 144q0 34 14.5 63t41 50t63.5 33t83 12q43 0 81.5 -9t57.5 -17v43q0 69 -28.5 102t-101.5 33q-33 0 -58.5 -4.5t-42.5 -10.5t-27.5 -11.5t-13.5 -7.5q-8 -4 -11 2l-2 4q-2 5 -1 7t3 3q3 2 14.5 8t30.5 12t46 11t62 5q42 0 70.5 -9t46 -28t24.5 -48t7 -68v-311
q0 -8 -7 -8h-4q-7 0 -7 8v52q-14 -12 -33 -24.5t-42.5 -23t-50.5 -17t-55 -6.5q-34 0 -63 10.5t-50.5 30.5t-34 49t-12.5 65zM62 144q0 -32 11 -57.5t30.5 -43t45 -27t55.5 -9.5q31 0 60 8.5t53 20.5t41.5 25.5t26.5 24.5v171q-6 2 -20 6.5t-32.5 9t-41 8t-45.5 3.5
q-41 0 -75 -10.5t-58 -29.5t-37.5 -44.5t-13.5 -55.5zM97 585q-6 1 -3 9q2 7 7.5 21t15.5 28t25.5 24.5t37.5 10.5q17 0 28.5 -6t19 -15.5t12.5 -20t9 -19.5q6 -14 17.5 -30t35.5 -16q17 0 29 9t20 21t12.5 24t6.5 18q2 7 7 5l8 -2q6 -2 3 -9q-2 -7 -7.5 -21t-15.5 -28
t-25.5 -24.5t-37.5 -10.5q-17 0 -29 6.5t-20 15.5t-13.5 19.5t-8.5 18.5q-3 6 -6.5 14.5t-9.5 16t-14.5 12.5t-20.5 5q-17 0 -29 -9t-20 -21t-12.5 -24.5t-6.5 -18.5q-2 -7 -7 -5z" />
    <glyph glyph-name="adieresis" unicode="&#xe4;" horiz-adv-x="487" 
d="M44 144q0 34 14.5 63t41 50t63.5 33t83 12q43 0 81.5 -9t57.5 -17v43q0 69 -28.5 102t-101.5 33q-33 0 -58.5 -4.5t-42.5 -10.5t-27.5 -11.5t-13.5 -7.5q-8 -4 -11 2l-2 4q-2 5 -1 7t3 3q3 2 14.5 8t30.5 12t46 11t62 5q42 0 70.5 -9t46 -28t24.5 -48t7 -68v-311
q0 -8 -7 -8h-4q-7 0 -7 8v52q-14 -12 -33 -24.5t-42.5 -23t-50.5 -17t-55 -6.5q-34 0 -63 10.5t-50.5 30.5t-34 49t-12.5 65zM62 144q0 -32 11 -57.5t30.5 -43t45 -27t55.5 -9.5q31 0 60 8.5t53 20.5t41.5 25.5t26.5 24.5v171q-6 2 -20 6.5t-32.5 9t-41 8t-45.5 3.5
q-41 0 -75 -10.5t-58 -29.5t-37.5 -44.5t-13.5 -55.5zM343 605q-22 0 -22 22q0 23 22 23q23 0 23 -23q0 -22 -23 -22zM154 605q-23 0 -23 22q0 23 23 23q22 0 22 -23q0 -22 -22 -22z" />
    <glyph glyph-name="aring" unicode="&#xe5;" horiz-adv-x="487" 
d="M44 144q0 34 14.5 63t41 50t63.5 33t83 12q43 0 81.5 -9t57.5 -17v43q0 69 -28.5 102t-101.5 33q-33 0 -58.5 -4.5t-42.5 -10.5t-27.5 -11.5t-13.5 -7.5q-8 -4 -11 2l-2 4q-2 5 -1 7t3 3q3 2 14.5 8t30.5 12t46 11t62 5q42 0 70.5 -9t46 -28t24.5 -48t7 -68v-311
q0 -8 -7 -8h-4q-7 0 -7 8v52q-14 -12 -33 -24.5t-42.5 -23t-50.5 -17t-55 -6.5q-34 0 -63 10.5t-50.5 30.5t-34 49t-12.5 65zM62 144q0 -32 11 -57.5t30.5 -43t45 -27t55.5 -9.5q31 0 60 8.5t53 20.5t41.5 25.5t26.5 24.5v171q-6 2 -20 6.5t-32.5 9t-41 8t-45.5 3.5
q-41 0 -75 -10.5t-58 -29.5t-37.5 -44.5t-13.5 -55.5zM240 508q-45 0 -74.5 29.5t-29.5 74.5q0 44 29.5 74t74.5 30q44 0 74 -30t30 -74q0 -45 -30 -74.5t-74 -29.5zM240 525q18 0 33.5 7t27 18.5t18.5 27.5t7 34t-7 33.5t-18.5 27.5t-27 19t-33.5 7t-33.5 -7t-27.5 -19
t-18.5 -27.5t-6.5 -33.5q0 -36 25 -61.5t61 -25.5z" />
    <glyph glyph-name="ae" unicode="&#xe6;" horiz-adv-x="824" 
d="M44 146q0 33 14.5 61.5t41 49.5t63.5 33t83 12q43 0 82.5 -9t58.5 -17v43q0 69 -28.5 102t-102.5 33q-30 0 -54.5 -4.5t-42 -10.5t-29 -12t-16.5 -8q-7 -3 -11 2l-3 6q-2 7 2 9q17 10 41 18q20 7 48.5 12.5t64.5 5.5q57 0 90.5 -18t47.5 -55q31 35 76 54t96 19
q47 0 85.5 -15.5t66.5 -43t43 -66.5t15 -85q0 -6 -1 -17.5t-3 -16.5t-8 -5h-358v-140q33 -42 74 -59t88 -17q54 0 95.5 17.5t61.5 33.5q3 2 5.5 1.5t3.5 -2.5l4 -7q3 -4 -3 -8q-26 -17 -68 -35t-99 -18q-55 0 -99 20.5t-73 55.5q-12 -12 -31.5 -25.5t-44.5 -25t-55 -18.5
t-61 -7q-34 0 -63 10.5t-50.5 30.5t-34 49t-12.5 67zM756 241q1 6 1 11.5v9.5q0 42 -14 77.5t-39.5 61t-60.5 39.5t-77 14q-52 0 -95.5 -21t-68.5 -58q2 -12 3 -26.5t1 -29.5v-78h350zM62 146q0 -33 11 -59t30.5 -43.5t45 -27t55.5 -9.5q31 0 60 7.5t53.5 19t42.5 25
t27 24.5v174q-6 2 -20 6.5t-33 9t-41.5 8t-46.5 3.5q-41 0 -75 -10.5t-58 -29.5t-37.5 -44t-13.5 -54z" />
    <glyph glyph-name="ccedilla" unicode="&#xe7;" horiz-adv-x="535" 
d="M55 233q0 52 19.5 96t53 76t78.5 49.5t95 17.5q42 0 73 -8t52.5 -18t34.5 -20.5t18 -14.5q5 -5 0 -10l-5 -6q-3 -3 -10 2q-5 4 -17 13.5t-32 19t-48.5 17t-65.5 7.5q-46 0 -87 -16.5t-72.5 -46t-50 -70t-18.5 -88.5q0 -49 19 -90.5t50.5 -71.5t72.5 -47t86 -17
q39 0 69.5 10.5t52 24t34 25.5t15.5 15q5 5 9 1l5 -5q4 -5 0 -9l-15 -15t-36.5 -27.5t-57 -26t-76.5 -11.5l-44 -66q13 6 33 6q15 0 30.5 -5t27.5 -14.5t19.5 -25t7.5 -36.5q0 -36 -25.5 -59.5t-65.5 -23.5q-26 0 -45.5 10t-32.5 24q-5 4 0 9l6 5q5 3 9 -1q11 -13 25.5 -21
t37.5 -8q33 0 52.5 18t19.5 47q0 31 -19.5 47t-47.5 16q-27 0 -48 -9q-5 -2 -8 3t-1 8l48 77q-46 4 -87 23.5t-71.5 51.5t-48.5 74.5t-18 93.5z" />
    <glyph glyph-name="egrave" unicode="&#xe8;" horiz-adv-x="541" 
d="M74 223q1 -45 16 -84.5t42 -68.5t65.5 -46t85.5 -17q27 0 51.5 5t45 12.5t36 16.5t25.5 17q3 2 5.5 1.5t3.5 -2.5l4 -7q2 -3 -2 -7q-11 -8 -28 -17.5t-39 -17.5t-47.5 -13.5t-54.5 -5.5q-53 0 -95 19t-71.5 52t-45 77.5t-15.5 95.5q0 50 15.5 93.5t45 76t71.5 51t95 18.5
q46 0 84.5 -15t66 -43t43 -66.5t15.5 -85.5q0 -6 -1 -18t-4 -16q-3 -5 -7 -5h-406zM473 241q1 6 1 11.5v9.5q0 43 -14.5 78t-40.5 60.5t-61 39.5t-75 14q-47 0 -85 -16.5t-65 -45.5t-42.5 -68t-16.5 -83h399zM188 650q-6 3 -3 9l2 4q2 4 4.5 4t4.5 -1l182 -91q5 -3 3 -7
l-2 -5q-3 -6 -9 -3z" />
    <glyph glyph-name="eacute" unicode="&#xe9;" horiz-adv-x="541" 
d="M74 223q1 -45 16 -84.5t42 -68.5t65.5 -46t85.5 -17q27 0 51.5 5t45 12.5t36 16.5t25.5 17q3 2 5.5 1.5t3.5 -2.5l4 -7q2 -3 -2 -7q-11 -8 -28 -17.5t-39 -17.5t-47.5 -13.5t-54.5 -5.5q-53 0 -95 19t-71.5 52t-45 77.5t-15.5 95.5q0 50 15.5 93.5t45 76t71.5 51t95 18.5
q46 0 84.5 -15t66 -43t43 -66.5t15.5 -85.5q0 -6 -1 -18t-4 -16q-3 -5 -7 -5h-406zM473 241q1 6 1 11.5v9.5q0 43 -14.5 78t-40.5 60.5t-61 39.5t-75 14q-47 0 -85 -16.5t-65 -45.5t-42.5 -68t-16.5 -83h399zM200 560q-6 -3 -9 3l-2 5q-2 4 3 7l182 91q2 1 4.5 1t4.5 -4
l2 -4q3 -6 -3 -9z" />
    <glyph glyph-name="ecircumflex" unicode="&#xea;" horiz-adv-x="541" 
d="M74 223q1 -45 16 -84.5t42 -68.5t65.5 -46t85.5 -17q27 0 51.5 5t45 12.5t36 16.5t25.5 17q3 2 5.5 1.5t3.5 -2.5l4 -7q2 -3 -2 -7q-11 -8 -28 -17.5t-39 -17.5t-47.5 -13.5t-54.5 -5.5q-53 0 -95 19t-71.5 52t-45 77.5t-15.5 95.5q0 50 15.5 93.5t45 76t71.5 51t95 18.5
q46 0 84.5 -15t66 -43t43 -66.5t15.5 -85.5q0 -6 -1 -18t-4 -16q-3 -5 -7 -5h-406zM473 241q1 6 1 11.5v9.5q0 43 -14.5 78t-40.5 60.5t-61 39.5t-75 14q-47 0 -85 -16.5t-65 -45.5t-42.5 -68t-16.5 -83h399zM159 548q-3 -2 -4.5 -1t-2.5 2l-4 5q-2 4 2 8l129 106q4 4 8 0
l129 -106q4 -4 2 -8l-4 -5q-1 -1 -2.5 -2t-4.5 1l-124 101z" />
    <glyph glyph-name="edieresis" unicode="&#xeb;" horiz-adv-x="541" 
d="M74 223q1 -45 16 -84.5t42 -68.5t65.5 -46t85.5 -17q27 0 51.5 5t45 12.5t36 16.5t25.5 17q3 2 5.5 1.5t3.5 -2.5l4 -7q2 -3 -2 -7q-11 -8 -28 -17.5t-39 -17.5t-47.5 -13.5t-54.5 -5.5q-53 0 -95 19t-71.5 52t-45 77.5t-15.5 95.5q0 50 15.5 93.5t45 76t71.5 51t95 18.5
q46 0 84.5 -15t66 -43t43 -66.5t15.5 -85.5q0 -6 -1 -18t-4 -16q-3 -5 -7 -5h-406zM473 241q1 6 1 11.5v9.5q0 43 -14.5 78t-40.5 60.5t-61 39.5t-75 14q-47 0 -85 -16.5t-65 -45.5t-42.5 -68t-16.5 -83h399zM385 605q-22 0 -22 22q0 23 22 23q23 0 23 -23q0 -22 -23 -22z
M196 605q-23 0 -23 22q0 23 23 23q22 0 22 -23q0 -22 -22 -22z" />
    <glyph glyph-name="igrave" unicode="&#xec;" horiz-adv-x="194" 
d="M89 454q0 8 7 8h4q7 0 7 -8v-446q0 -8 -7 -8h-4q-7 0 -7 8v446zM7 650q-6 3 -3 9l2 4q2 4 4.5 4t4.5 -1l182 -91q5 -3 3 -7l-2 -5q-3 -6 -9 -3z" />
    <glyph glyph-name="iacute" unicode="&#xed;" horiz-adv-x="194" 
d="M88 454q0 8 7 8h4q7 0 7 -8v-446q0 -8 -7 -8h-4q-7 0 -7 8v446zM13 560q-6 -3 -9 3l-2 5q-2 4 3 7l182 91q2 1 4.5 1t4.5 -4l2 -4q3 -6 -3 -9z" />
    <glyph glyph-name="icircumflex" unicode="&#xee;" horiz-adv-x="194" 
d="M88 454q0 8 7 8h4q7 0 7 -8v-446q0 -8 -7 -8h-4q-7 0 -7 8v446zM-24 548q-3 -2 -4.5 -1t-2.5 2l-4 5q-2 4 2 8l129 106q4 4 8 0l129 -106q4 -4 2 -8l-4 -5q-1 -1 -2.5 -2t-4.5 1l-124 101z" />
    <glyph glyph-name="idieresis" unicode="&#xef;" horiz-adv-x="194" 
d="M88 454q0 8 7 8h4q7 0 7 -8v-446q0 -8 -7 -8h-4q-7 0 -7 8v446zM195 605q-22 0 -22 22q0 23 22 23q23 0 23 -23q0 -22 -23 -22zM6 605q-23 0 -23 22q0 23 23 23q22 0 22 -23q0 -22 -22 -22z" />
    <glyph glyph-name="eth" unicode="&#xf0;" horiz-adv-x="592" 
d="M55 229q0 52 18.5 94t50 71.5t72.5 45.5t85 16q46 0 82.5 -12.5t65 -31.5t48.5 -40t32 -37q-6 48 -21.5 89t-37.5 76t-48.5 63.5t-53.5 51.5l-138 -79q-6 -4 -9 3l-2 3q-4 6 3 9l131 75q-44 34 -83.5 53.5t-62.5 28.5q-5 3 -4 8l2 7q2 5 8 3q24 -8 67 -30t90 -59l70 40
q5 4 9 -2l2 -3q3 -8 -3 -11l-64 -37q32 -27 61.5 -61t52.5 -76t37 -92.5t14 -110.5q0 -62 -16 -115.5t-47 -93.5t-76 -62.5t-103 -22.5q-47 0 -89 18.5t-74 51t-50.5 76t-18.5 93.5zM73 229q0 -46 17 -86.5t46.5 -70.5t68 -47t82.5 -17q54 0 95.5 21.5t70.5 58.5t44 87.5
t15 108.5v15l-17 25.5t-43.5 47.5t-71 45.5t-99.5 20.5q-41 0 -78.5 -14.5t-66.5 -42t-46 -66t-17 -86.5z" />
    <glyph glyph-name="ntilde" unicode="&#xf1;" horiz-adv-x="539" 
d="M88 454q0 8 7 8h4q7 0 7 -8v-63q11 12 26.5 26t36.5 26t48 20.5t60 8.5q94 0 137 -54t43 -160v-250q0 -8 -6 -8h-4q-8 0 -8 8v250q0 95 -39 145.5t-123 50.5q-38 0 -68 -12t-52 -27.5t-34.5 -30t-16.5 -19.5v-357q0 -8 -7 -8h-4q-7 0 -7 8v446zM129 586q-6 1 -3 9
q2 7 7.5 21t15.5 28t25.5 24.5t37.5 10.5q17 0 28.5 -6t19 -15.5t12.5 -20t9 -19.5q6 -14 17.5 -30t35.5 -16q17 0 29 9t20 21t12.5 24t6.5 18q2 7 7 5l8 -2q6 -2 3 -9q-2 -7 -7.5 -21t-15.5 -28t-25.5 -24.5t-37.5 -10.5q-17 0 -29 6.5t-20 15.5t-13.5 19.5t-8.5 18.5
q-3 6 -6.5 14.5t-9.5 16t-14.5 12.5t-20.5 5q-17 0 -29 -9t-20 -21t-12.5 -24.5t-6.5 -18.5q-2 -7 -7 -5z" />
    <glyph glyph-name="ograve" unicode="&#xf2;" horiz-adv-x="577" 
d="M55 232q0 50 18 94t49.5 76.5t74 51t91.5 18.5t92 -18.5t74.5 -51t49.5 -76.5t18 -94q0 -51 -18 -95.5t-49.5 -77t-74.5 -51.5t-92 -19t-91.5 19t-74 51.5t-49.5 77t-18 95.5zM73 232q0 -47 16.5 -88t46 -71.5t68.5 -48t84 -17.5t84.5 17.5t69 48t46 71.5t16.5 88
q0 46 -16.5 86.5t-46 70.5t-69 47.5t-84.5 17.5t-84 -17.5t-68.5 -47.5t-46 -70.5t-16.5 -86.5zM196 650q-6 3 -3 9l2 4q2 4 4.5 4t4.5 -1l182 -91q5 -3 3 -7l-2 -5q-3 -6 -9 -3z" />
    <glyph glyph-name="oacute" unicode="&#xf3;" horiz-adv-x="577" 
d="M55 232q0 50 18 94t49.5 76.5t74 51t91.5 18.5t92 -18.5t74.5 -51t49.5 -76.5t18 -94q0 -51 -18 -95.5t-49.5 -77t-74.5 -51.5t-92 -19t-91.5 19t-74 51.5t-49.5 77t-18 95.5zM73 232q0 -47 16.5 -88t46 -71.5t68.5 -48t84 -17.5t84.5 17.5t69 48t46 71.5t16.5 88
q0 46 -16.5 86.5t-46 70.5t-69 47.5t-84.5 17.5t-84 -17.5t-68.5 -47.5t-46 -70.5t-16.5 -86.5zM203 560q-6 -3 -9 3l-2 5q-2 4 3 7l182 91q2 1 4.5 1t4.5 -4l2 -4q3 -6 -3 -9z" />
    <glyph glyph-name="ocircumflex" unicode="&#xf4;" horiz-adv-x="577" 
d="M55 232q0 50 18 94t49.5 76.5t74 51t91.5 18.5t92 -18.5t74.5 -51t49.5 -76.5t18 -94q0 -51 -18 -95.5t-49.5 -77t-74.5 -51.5t-92 -19t-91.5 19t-74 51.5t-49.5 77t-18 95.5zM73 232q0 -47 16.5 -88t46 -71.5t68.5 -48t84 -17.5t84.5 17.5t69 48t46 71.5t16.5 88
q0 46 -16.5 86.5t-46 70.5t-69 47.5t-84.5 17.5t-84 -17.5t-68.5 -47.5t-46 -70.5t-16.5 -86.5zM166 548q-3 -2 -4.5 -1t-2.5 2l-4 5q-2 4 2 8l129 106q4 4 8 0l129 -106q4 -4 2 -8l-4 -5q-1 -1 -2.5 -2t-4.5 1l-124 101z" />
    <glyph glyph-name="otilde" unicode="&#xf5;" horiz-adv-x="577" 
d="M55 232q0 50 18 94t49.5 76.5t74 51t91.5 18.5t92 -18.5t74.5 -51t49.5 -76.5t18 -94q0 -51 -18 -95.5t-49.5 -77t-74.5 -51.5t-92 -19t-91.5 19t-74 51.5t-49.5 77t-18 95.5zM73 232q0 -47 16.5 -88t46 -71.5t68.5 -48t84 -17.5t84.5 17.5t69 48t46 71.5t16.5 88
q0 46 -16.5 86.5t-46 70.5t-69 47.5t-84.5 17.5t-84 -17.5t-68.5 -47.5t-46 -70.5t-16.5 -86.5zM146 585q-6 1 -3 9q2 7 7.5 21t15.5 28t25.5 24.5t37.5 10.5q17 0 28.5 -6t19 -15.5t12.5 -20t9 -19.5q6 -14 17.5 -30t35.5 -16q17 0 29 9t20 21t12.5 24t6.5 18q2 7 7 5l8 -2
q6 -2 3 -9q-2 -7 -7.5 -21t-15.5 -28t-25.5 -24.5t-37.5 -10.5q-17 0 -29 6.5t-20 15.5t-13.5 19.5t-8.5 18.5q-3 6 -6.5 14.5t-9.5 16t-14.5 12.5t-20.5 5q-17 0 -29 -9t-20 -21t-12.5 -24.5t-6.5 -18.5q-2 -7 -7 -5z" />
    <glyph glyph-name="odieresis" unicode="&#xf6;" horiz-adv-x="577" 
d="M55 232q0 50 18 94t49.5 76.5t74 51t91.5 18.5t92 -18.5t74.5 -51t49.5 -76.5t18 -94q0 -51 -18 -95.5t-49.5 -77t-74.5 -51.5t-92 -19t-91.5 19t-74 51.5t-49.5 77t-18 95.5zM73 232q0 -47 16.5 -88t46 -71.5t68.5 -48t84 -17.5t84.5 17.5t69 48t46 71.5t16.5 88
q0 46 -16.5 86.5t-46 70.5t-69 47.5t-84.5 17.5t-84 -17.5t-68.5 -47.5t-46 -70.5t-16.5 -86.5zM385 605q-22 0 -22 22q0 23 22 23q23 0 23 -23q0 -22 -23 -22zM196 605q-23 0 -23 22q0 23 23 23q22 0 22 -23q0 -22 -22 -22z" />
    <glyph glyph-name="divide" unicode="&#xf7;" 
d="M296 465q-10 0 -17 7t-7 17t7 16.5t17 6.5q11 0 17.5 -6.5t6.5 -16.5t-6.5 -17t-17.5 -7zM105 340q-7 0 -7 7v4q0 7 7 7h389q7 0 7 -7v-4q0 -7 -7 -7h-389zM272 209q0 10 7 16.5t17 6.5q11 0 17.5 -6.5t6.5 -16.5t-6.5 -17t-17.5 -7q-10 0 -17 7t-7 17z" />
    <glyph glyph-name="oslash" unicode="&#xf8;" horiz-adv-x="577" 
d="M55 232q0 50 18 94t49.5 76.5t74 51t91.5 18.5q54 0 99.5 -22t77.5 -60l16 14q4 4 10 -1l3 -3q6 -6 0 -11l-17 -15q21 -29 33 -65.5t12 -76.5q0 -51 -18 -95.5t-49.5 -77t-74.5 -51.5t-92 -19q-51 0 -93.5 19t-74.5 53l-19 -17q-5 -5 -10 0l-3 3q-6 5 0 11l20 18
q-26 32 -39.5 71.5t-13.5 84.5zM73 232q0 -42 13 -78.5t36 -65.5l329 290q-29 35 -71 55.5t-92 20.5q-45 0 -84 -17.5t-68.5 -47.5t-46 -70.5t-16.5 -86.5zM504 232q0 37 -10.5 70t-30.5 60l-329 -289q29 -31 68.5 -48.5t85.5 -17.5q45 0 84.5 17.5t69 48t46 71.5t16.5 88z
" />
    <glyph glyph-name="ugrave" unicode="&#xf9;" horiz-adv-x="528" 
d="M82 454q0 8 6 8h6q6 0 6 -8v-253q0 -95 39 -144t123 -49q39 0 68 12.5t48.5 28.5t30 31t13.5 19v355q0 8 7 8h5q6 0 6 -8v-446q0 -8 -6 -8h-5q-7 0 -7 8v61q-10 -12 -24.5 -26t-34 -26t-44.5 -20t-57 -8q-94 0 -137 53t-43 159v253zM166 650q-6 3 -3 9l2 4q2 4 4.5 4
t4.5 -1l182 -91q5 -3 3 -7l-2 -5q-3 -6 -9 -3z" />
    <glyph glyph-name="uacute" unicode="&#xfa;" horiz-adv-x="528" 
d="M82 454q0 8 6 8h6q6 0 6 -8v-253q0 -95 39 -144t123 -49q39 0 68 12.5t48.5 28.5t30 31t13.5 19v355q0 8 7 8h5q6 0 6 -8v-446q0 -8 -6 -8h-5q-7 0 -7 8v61q-10 -12 -24.5 -26t-34 -26t-44.5 -20t-57 -8q-94 0 -137 53t-43 159v253zM173 560q-6 -3 -9 3l-2 5q-2 4 3 7
l182 91q2 1 4.5 1t4.5 -4l2 -4q3 -6 -3 -9z" />
    <glyph glyph-name="ucircumflex" unicode="&#xfb;" horiz-adv-x="528" 
d="M82 454q0 8 6 8h6q6 0 6 -8v-253q0 -95 39 -144t123 -49q39 0 68 12.5t48.5 28.5t30 31t13.5 19v355q0 8 7 8h5q6 0 6 -8v-446q0 -8 -6 -8h-5q-7 0 -7 8v61q-10 -12 -24.5 -26t-34 -26t-44.5 -20t-57 -8q-94 0 -137 53t-43 159v253zM135 548q-3 -2 -4.5 -1t-2.5 2l-4 5
q-2 4 2 8l129 106q4 4 8 0l129 -106q4 -4 2 -8l-4 -5q-1 -1 -2.5 -2t-4.5 1l-124 101z" />
    <glyph glyph-name="udieresis" unicode="&#xfc;" horiz-adv-x="528" 
d="M82 454q0 8 6 8h6q6 0 6 -8v-253q0 -95 39 -144t123 -49q39 0 68 12.5t48.5 28.5t30 31t13.5 19v355q0 8 7 8h5q6 0 6 -8v-446q0 -8 -6 -8h-5q-7 0 -7 8v61q-10 -12 -24.5 -26t-34 -26t-44.5 -20t-57 -8q-94 0 -137 53t-43 159v253zM354 605q-22 0 -22 22q0 23 22 23
q23 0 23 -23q0 -22 -23 -22zM165 605q-23 0 -23 22q0 23 23 23q22 0 22 -23q0 -22 -22 -22z" />
    <glyph glyph-name="yacute" unicode="&#xfd;" horiz-adv-x="470" 
d="M22 457q-3 5 1 8l6 3q6 3 8 -4l200 -438l195 438q2 7 8 4l6 -3q4 -3 1 -8l-310 -695q-4 -9 -10 -5l-4 2q-6 3 -2 10l106 239zM150 560q-6 -3 -9 3l-2 5q-2 4 3 7l182 91q2 1 4.5 1t4.5 -4l2 -4q3 -6 -3 -9z" />
    <glyph glyph-name="thorn" unicode="&#xfe;" horiz-adv-x="556" 
d="M106 -230q0 -8 -7 -8h-5q-6 0 -6 8v922q0 8 6 8h5q7 0 7 -8v-285q8 7 23.5 18.5t37.5 21.5t48.5 17.5t57.5 7.5q54 0 96.5 -19t71.5 -52t44.5 -77t15.5 -93q0 -43 -15 -86.5t-44 -78t-70.5 -56t-93.5 -21.5q-61 0 -104 23.5t-68 51.5v-294zM106 93q10 -14 26 -29
t37.5 -27.5t48.5 -20.5t60 -8q48 0 86 20t64 51.5t40.5 71.5t14.5 80q0 45 -14 85t-41.5 71t-66.5 49t-88 18q-37 0 -67 -10.5t-52 -24t-34.5 -25.5t-13.5 -14v-287z" />
    <glyph glyph-name="ydieresis" unicode="&#xff;" horiz-adv-x="470" 
d="M22 457q-3 5 1 8l6 3q6 3 8 -4l200 -438l195 438q2 7 8 4l6 -3q4 -3 1 -8l-310 -695q-4 -9 -10 -5l-4 2q-6 3 -2 10l106 239zM332 605q-22 0 -22 22q0 23 22 23q23 0 23 -23q0 -22 -23 -22zM143 605q-23 0 -23 22q0 23 23 23q22 0 22 -23q0 -22 -22 -22z" />
    <glyph glyph-name="Amacron" unicode="&#x100;" horiz-adv-x="633" 
d="M312 717q2 4 5 4h2q3 0 5 -4l302 -710q1 -5 -3 -6l-9 -3q-3 -1 -5 3l-89 209h-409l-90 -209q-2 -4 -5 -3l-9 3q-5 1 -3 6zM512 227l-194 458l-199 -458h393zM173 842q-7 0 -7 7v4q0 7 7 7h288q7 0 7 -7v-4q0 -7 -7 -7h-288z" />
    <glyph glyph-name="amacron" unicode="&#x101;" horiz-adv-x="487" 
d="M44 144q0 34 14.5 63t41 50t63.5 33t83 12q43 0 81.5 -9t57.5 -17v43q0 69 -28.5 102t-101.5 33q-33 0 -58.5 -4.5t-42.5 -10.5t-27.5 -11.5t-13.5 -7.5q-8 -4 -11 2l-2 4q-2 5 -1 7t3 3q3 2 14.5 8t30.5 12t46 11t62 5q42 0 70.5 -9t46 -28t24.5 -48t7 -68v-311
q0 -8 -7 -8h-4q-7 0 -7 8v52q-14 -12 -33 -24.5t-42.5 -23t-50.5 -17t-55 -6.5q-34 0 -63 10.5t-50.5 30.5t-34 49t-12.5 65zM62 144q0 -32 11 -57.5t30.5 -43t45 -27t55.5 -9.5q31 0 60 8.5t53 20.5t41.5 25.5t26.5 24.5v171q-6 2 -20 6.5t-32.5 9t-41 8t-45.5 3.5
q-41 0 -75 -10.5t-58 -29.5t-37.5 -44.5t-13.5 -55.5zM101 607q-7 0 -7 7v4q0 7 7 7h288q7 0 7 -7v-4q0 -7 -7 -7h-288z" />
    <glyph glyph-name="Abreve" unicode="&#x102;" horiz-adv-x="633" 
d="M312 717q2 4 5 4h2q3 0 5 -4l302 -710q1 -5 -3 -6l-9 -3q-3 -1 -5 3l-89 209h-409l-90 -209q-2 -4 -5 -3l-9 3q-5 1 -3 6zM512 227l-194 458l-199 -458h393zM317 780q-51 0 -85.5 31t-41.5 77q-1 2 1.5 4.5t4.5 2.5h7q5 0 5 -6q6 -40 36 -65.5t73 -25.5q42 0 72 25.5
t37 65.5q0 6 5 6h7q2 0 4.5 -2.5t1.5 -4.5q-8 -46 -42.5 -77t-84.5 -31z" />
    <glyph glyph-name="abreve" unicode="&#x103;" horiz-adv-x="487" 
d="M44 144q0 34 14.5 63t41 50t63.5 33t83 12q43 0 81.5 -9t57.5 -17v43q0 69 -28.5 102t-101.5 33q-33 0 -58.5 -4.5t-42.5 -10.5t-27.5 -11.5t-13.5 -7.5q-8 -4 -11 2l-2 4q-2 5 -1 7t3 3q3 2 14.5 8t30.5 12t46 11t62 5q42 0 70.5 -9t46 -28t24.5 -48t7 -68v-311
q0 -8 -7 -8h-4q-7 0 -7 8v52q-14 -12 -33 -24.5t-42.5 -23t-50.5 -17t-55 -6.5q-34 0 -63 10.5t-50.5 30.5t-34 49t-12.5 65zM62 144q0 -32 11 -57.5t30.5 -43t45 -27t55.5 -9.5q31 0 60 8.5t53 20.5t41.5 25.5t26.5 24.5v171q-6 2 -20 6.5t-32.5 9t-41 8t-45.5 3.5
q-41 0 -75 -10.5t-58 -29.5t-37.5 -44.5t-13.5 -55.5zM243 545q-51 0 -85.5 31t-41.5 76q-1 3 1.5 5.5t4.5 2.5h7q5 0 5 -6q6 -41 36 -66t73 -25q42 0 72 25t37 66q0 6 5 6h7q2 0 4.5 -2.5t1.5 -5.5q-8 -45 -42.5 -76t-84.5 -31z" />
    <glyph glyph-name="Aogonek" unicode="&#x104;" horiz-adv-x="633" 
d="M312 717q2 4 5 4h2q3 0 5 -4l302 -710q1 -5 -3 -6q-23 -9 -45.5 -22.5t-40.5 -31.5t-29 -41.5t-11 -52.5t18 -51t53 -22q25 0 43.5 10.5t24.5 13.5t8 -2l3 -6q3 -6 -7 -11q-9 -5 -29 -14t-43 -9q-42 0 -65.5 26t-23.5 65q0 32 12.5 57.5t31.5 45t41 33t41 21.5l-85 200
h-409l-90 -209q-2 -4 -5 -3l-9 3q-5 1 -3 6zM512 227l-194 458l-199 -458h393z" />
    <glyph glyph-name="aogonek" unicode="&#x105;" horiz-adv-x="486" 
d="M44 144q0 34 14.5 63t41 50t63.5 33t83 12q43 0 81.5 -9t57.5 -17v43q0 69 -28.5 102t-101.5 33q-33 0 -58.5 -4.5t-42.5 -10.5t-27.5 -11.5t-13.5 -7.5q-8 -4 -11 2l-2 4q-2 5 -1 7t3 3q3 2 14.5 8t30.5 12t46 11t62 5q42 0 70.5 -9t46 -28t24.5 -48t7 -68v-309
q0 -7 -7 -10q-19 -10 -40 -23t-39 -30.5t-30 -40.5t-12 -53q0 -29 18 -51t53 -22q25 0 43.5 10.5t24.5 13.5t8 -2l3 -6q3 -6 -7 -11q-9 -5 -29 -14t-43 -9q-42 0 -65.5 26t-23.5 65q0 32 13 57.5t32 45t41.5 33.5t41.5 24v47q-14 -12 -33 -24.5t-42.5 -23t-50.5 -17
t-55 -6.5q-34 0 -63 10.5t-50.5 30.5t-34 49t-12.5 65zM62 144q0 -32 11 -57.5t30.5 -43t45 -27t55.5 -9.5q31 0 60 8.5t53 20.5t41.5 25.5t26.5 24.5v171q-6 2 -20 6.5t-32.5 9t-41 8t-45.5 3.5q-41 0 -75 -10.5t-58 -29.5t-37.5 -44.5t-13.5 -55.5z" />
    <glyph glyph-name="Cacute" unicode="&#x106;" horiz-adv-x="724" 
d="M60 349q0 75 28.5 141t77.5 115t115.5 77t141.5 28q77 0 134.5 -25t108.5 -68q4 -4 1 -8l-5 -6q-4 -4 -8 0q-49 42 -104 65.5t-127 23.5t-134.5 -26.5t-109.5 -73t-74 -109t-27 -134.5t27 -134t74 -108t109.5 -72.5t134.5 -26.5q129 0 231 93q5 5 8 0l5 -6q3 -4 0 -7
q-52 -50 -114.5 -74t-129.5 -24q-75 0 -141.5 28t-115.5 76.5t-77.5 114t-28.5 140.5zM345 778q-6 -3 -9 3l-2 5q-2 4 3 7l182 91q2 1 4.5 1t4.5 -4l2 -4q3 -6 -3 -9z" />
    <glyph glyph-name="cacute" unicode="&#x107;" horiz-adv-x="535" 
d="M55 233q0 52 19.5 96t53 76t78.5 49.5t95 17.5q42 0 73 -8t52.5 -18t34.5 -20.5t18 -14.5q5 -5 0 -10l-5 -6q-3 -3 -10 2q-5 4 -17 13.5t-32 19t-48.5 17t-65.5 7.5q-46 0 -87 -16.5t-72.5 -46t-50 -70t-18.5 -88.5q0 -49 19 -90.5t50.5 -71.5t72.5 -47t86 -17
q39 0 69.5 10.5t52 24t34 25.5t15.5 15q5 5 9 1l5 -5q4 -5 0 -9l-15 -15t-36.5 -27.5t-57 -26t-76.5 -11.5q-49 0 -93.5 18t-78.5 50.5t-54 77.5t-20 98zM217 560q-6 -3 -9 3l-2 5q-2 4 3 7l182 91q2 1 4.5 1t4.5 -4l2 -4q3 -6 -3 -9z" />
    <glyph glyph-name="Ccircumflex" unicode="&#x108;" horiz-adv-x="724" 
d="M60 349q0 75 28.5 141t77.5 115t115.5 77t141.5 28q77 0 134.5 -25t108.5 -68q4 -4 1 -8l-5 -6q-4 -4 -8 0q-49 42 -104 65.5t-127 23.5t-134.5 -26.5t-109.5 -73t-74 -109t-27 -134.5t27 -134t74 -108t109.5 -72.5t134.5 -26.5q129 0 231 93q5 5 8 0l5 -6q3 -4 0 -7
q-52 -50 -114.5 -74t-129.5 -24q-75 0 -141.5 28t-115.5 76.5t-77.5 114t-28.5 140.5zM300 763q-3 -2 -4.5 -1t-2.5 2l-4 5q-2 4 2 8l129 106q4 4 8 0l129 -106q4 -4 2 -8l-4 -5q-1 -1 -2.5 -2t-4.5 1l-124 101z" />
    <glyph glyph-name="ccircumflex" unicode="&#x109;" horiz-adv-x="535" 
d="M55 233q0 52 19.5 96t53 76t78.5 49.5t95 17.5q42 0 73 -8t52.5 -18t34.5 -20.5t18 -14.5q5 -5 0 -10l-5 -6q-3 -3 -10 2q-5 4 -17 13.5t-32 19t-48.5 17t-65.5 7.5q-46 0 -87 -16.5t-72.5 -46t-50 -70t-18.5 -88.5q0 -49 19 -90.5t50.5 -71.5t72.5 -47t86 -17
q39 0 69.5 10.5t52 24t34 25.5t15.5 15q5 5 9 1l5 -5q4 -5 0 -9l-15 -15t-36.5 -27.5t-57 -26t-76.5 -11.5q-49 0 -93.5 18t-78.5 50.5t-54 77.5t-20 98zM174 548q-3 -2 -4.5 -1t-2.5 2l-4 5q-2 4 2 8l129 106q4 4 8 0l129 -106q4 -4 2 -8l-4 -5q-1 -1 -2.5 -2t-4.5 1
l-124 101z" />
    <glyph glyph-name="Cdotaccent" unicode="&#x10a;" horiz-adv-x="724" 
d="M60 349q0 75 28.5 141t77.5 115t115.5 77t141.5 28q77 0 134.5 -25t108.5 -68q4 -4 1 -8l-5 -6q-4 -4 -8 0q-49 42 -104 65.5t-127 23.5t-134.5 -26.5t-109.5 -73t-74 -109t-27 -134.5t27 -134t74 -108t109.5 -72.5t134.5 -26.5q129 0 231 93q5 5 8 0l5 -6q3 -4 0 -7
q-52 -50 -114.5 -74t-129.5 -24q-75 0 -141.5 28t-115.5 76.5t-77.5 114t-28.5 140.5zM424 819q-11 0 -17 7t-6 16q0 10 6 17.5t17 7.5q10 0 16.5 -7.5t6.5 -17.5q0 -9 -6.5 -16t-16.5 -7z" />
    <glyph glyph-name="cdotaccent" unicode="&#x10b;" horiz-adv-x="535" 
d="M55 233q0 52 19.5 96t53 76t78.5 49.5t95 17.5q42 0 73 -8t52.5 -18t34.5 -20.5t18 -14.5q5 -5 0 -10l-5 -6q-3 -3 -10 2q-5 4 -17 13.5t-32 19t-48.5 17t-65.5 7.5q-46 0 -87 -16.5t-72.5 -46t-50 -70t-18.5 -88.5q0 -49 19 -90.5t50.5 -71.5t72.5 -47t86 -17
q39 0 69.5 10.5t52 24t34 25.5t15.5 15q5 5 9 1l5 -5q4 -5 0 -9l-15 -15t-36.5 -27.5t-57 -26t-76.5 -11.5q-49 0 -93.5 18t-78.5 50.5t-54 77.5t-20 98zM299 605q-11 0 -17 7t-6 16q0 10 6 17.5t17 7.5q10 0 16.5 -7.5t6.5 -17.5q0 -9 -6.5 -16t-16.5 -7z" />
    <glyph glyph-name="Ccaron" unicode="&#x10c;" horiz-adv-x="724" 
d="M60 349q0 75 28.5 141t77.5 115t115.5 77t141.5 28q77 0 134.5 -25t108.5 -68q4 -4 1 -8l-5 -6q-4 -4 -8 0q-49 42 -104 65.5t-127 23.5t-134.5 -26.5t-109.5 -73t-74 -109t-27 -134.5t27 -134t74 -108t109.5 -72.5t134.5 -26.5q129 0 231 93q5 5 8 0l5 -6q3 -4 0 -7
q-52 -50 -114.5 -74t-129.5 -24q-75 0 -141.5 28t-115.5 76.5t-77.5 114t-28.5 140.5zM291 877q-4 4 -2 8l4 5q1 1 2.5 2t4.5 -1l124 -101l124 101q3 2 4.5 1t2.5 -2l4 -5q2 -4 -2 -8l-129 -106q-4 -4 -8 0z" />
    <glyph glyph-name="ccaron" unicode="&#x10d;" horiz-adv-x="535" 
d="M55 233q0 52 19.5 96t53 76t78.5 49.5t95 17.5q42 0 73 -8t52.5 -18t34.5 -20.5t18 -14.5q5 -5 0 -10l-5 -6q-3 -3 -10 2q-5 4 -17 13.5t-32 19t-48.5 17t-65.5 7.5q-46 0 -87 -16.5t-72.5 -46t-50 -70t-18.5 -88.5q0 -49 19 -90.5t50.5 -71.5t72.5 -47t86 -17
q39 0 69.5 10.5t52 24t34 25.5t15.5 15q5 5 9 1l5 -5q4 -5 0 -9l-15 -15t-36.5 -27.5t-57 -26t-76.5 -11.5q-49 0 -93.5 18t-78.5 50.5t-54 77.5t-20 98zM165 659q-4 4 -2 8l4 5q1 1 2.5 2t4.5 -1l124 -101l124 101q3 2 4.5 1t2.5 -2l4 -5q2 -4 -2 -8l-129 -106q-4 -4 -8 0z
" />
    <glyph glyph-name="Dcaron" unicode="&#x10e;" horiz-adv-x="728" 
d="M108 693q0 7 6 7h200q73 0 137.5 -27.5t112.5 -74.5t75.5 -111t27.5 -136q0 -73 -27.5 -137t-75.5 -111.5t-112.5 -75t-137.5 -27.5h-200q-6 0 -6 7v686zM314 18q69 0 130.5 26t107 71t72 106t26.5 130t-26.5 129t-72 105t-107 71t-130.5 26h-189v-664h189zM170 877
q-4 4 -2 8l4 5q1 1 2.5 2t4.5 -1l124 -101l124 101q3 2 4.5 1t2.5 -2l4 -5q2 -4 -2 -8l-129 -106q-4 -4 -8 0z" />
    <glyph glyph-name="dcaron" unicode="&#x10f;" horiz-adv-x="565" 
d="M531 685q0 11 7.5 18t18.5 7q22 0 32 -19t10 -48q0 -27 -10.5 -50t-24.5 -34q-4 -3 -5.5 -2.5t-3.5 2.5l-5 6q-4 5 -2.5 7t4.5 4q11 8 19 25t8 38q0 20 -6 29q-6 -6 -18 -6q-10 0 -17 6.5t-7 16.5zM56 232q0 52 16.5 96t46.5 76t72 50t93 18q37 0 68 -10.5t53 -22.5
q26 -14 46 -32v285q0 8 7 8h4q7 0 7 -8v-684q0 -8 -7 -8h-4q-7 0 -7 8v56q-11 -12 -26.5 -25t-37 -24t-49.5 -18.5t-62 -7.5q-45 0 -85 19t-70 51.5t-47.5 77t-17.5 95.5zM74 232q0 -47 16 -88t44 -71t64.5 -47.5t77.5 -17.5q44 0 76 12.5t53.5 27.5t32.5 28.5t13 16.5v287
q-19 20 -45 37q-22 14 -52.5 25.5t-69.5 11.5q-47 0 -85.5 -17t-66 -46.5t-43 -70t-15.5 -88.5z" />
    <glyph glyph-name="Dcroat" unicode="&#x110;" horiz-adv-x="749" 
d="M108 340h-40q-7 0 -7 7v4q0 7 7 7h40v335q0 7 7 7h220q73 0 137 -27.5t112 -74.5t76 -111t28 -136q0 -73 -28 -137t-76 -111.5t-112 -75t-137 -27.5h-220q-7 0 -7 7v333zM335 18q69 0 130 26t106.5 71t72 106t26.5 130t-26.5 129t-72 105t-106.5 71t-130 26h-209v-324
h289q7 0 7 -7v-4q0 -7 -7 -7h-289v-322h209z" />
    <glyph glyph-name="dcroat" unicode="&#x111;" horiz-adv-x="557" 
d="M56 232q0 52 16.5 96t46.5 76t72 50t93 18q37 0 68 -10.5t53 -22.5q26 -14 46 -32v141h-228q-7 0 -7 7v4q0 7 7 7h228v126q0 8 7 8h4q7 0 7 -8v-126h43q7 0 7 -7v-4q0 -7 -7 -7h-43v-540q0 -8 -7 -8h-4q-7 0 -7 8v56q-11 -12 -26.5 -25t-37 -24t-49.5 -18.5t-62 -7.5
q-45 0 -85 19t-70 51.5t-47.5 77t-17.5 95.5zM74 232q0 -47 16 -88t44 -71t64.5 -47.5t77.5 -17.5q44 0 76 12.5t53.5 27.5t32.5 28.5t13 16.5v287q-19 20 -45 37q-22 14 -52.5 25.5t-69.5 11.5q-47 0 -85.5 -17t-66 -46.5t-43 -70t-15.5 -88.5z" />
    <glyph glyph-name="Emacron" unicode="&#x112;" horiz-adv-x="587" 
d="M108 693q0 7 7 7h407q7 0 7 -7v-4q0 -7 -7 -7h-396v-309h348q7 0 7 -7v-4q0 -7 -7 -7h-348v-337h396q7 0 7 -7v-4q0 -7 -7 -7h-407q-7 0 -7 7v686zM175 842q-7 0 -7 7v4q0 7 7 7h288q7 0 7 -7v-4q0 -7 -7 -7h-288z" />
    <glyph glyph-name="emacron" unicode="&#x113;" horiz-adv-x="541" 
d="M74 223q1 -45 16 -84.5t42 -68.5t65.5 -46t85.5 -17q27 0 51.5 5t45 12.5t36 16.5t25.5 17q3 2 5.5 1.5t3.5 -2.5l4 -7q2 -3 -2 -7q-11 -8 -28 -17.5t-39 -17.5t-47.5 -13.5t-54.5 -5.5q-53 0 -95 19t-71.5 52t-45 77.5t-15.5 95.5q0 50 15.5 93.5t45 76t71.5 51t95 18.5
q46 0 84.5 -15t66 -43t43 -66.5t15.5 -85.5q0 -6 -1 -18t-4 -16q-3 -5 -7 -5h-406zM473 241q1 6 1 11.5v9.5q0 43 -14.5 78t-40.5 60.5t-61 39.5t-75 14q-47 0 -85 -16.5t-65 -45.5t-42.5 -68t-16.5 -83h399zM135 607q-7 0 -7 7v4q0 7 7 7h288q7 0 7 -7v-4q0 -7 -7 -7h-288z
" />
    <glyph glyph-name="Ebreve" unicode="&#x114;" horiz-adv-x="587" 
d="M108 693q0 7 7 7h407q7 0 7 -7v-4q0 -7 -7 -7h-396v-309h348q7 0 7 -7v-4q0 -7 -7 -7h-348v-337h396q7 0 7 -7v-4q0 -7 -7 -7h-407q-7 0 -7 7v686zM319 780q-51 0 -85.5 31t-41.5 77q-1 2 1.5 4.5t4.5 2.5h7q5 0 5 -6q6 -40 36 -65.5t73 -25.5q42 0 72 25.5t37 65.5
q0 6 5 6h7q2 0 4.5 -2.5t1.5 -4.5q-8 -46 -42.5 -77t-84.5 -31z" />
    <glyph glyph-name="ebreve" unicode="&#x115;" horiz-adv-x="541" 
d="M74 223q1 -45 16 -84.5t42 -68.5t65.5 -46t85.5 -17q27 0 51.5 5t45 12.5t36 16.5t25.5 17q3 2 5.5 1.5t3.5 -2.5l4 -7q2 -3 -2 -7q-11 -8 -28 -17.5t-39 -17.5t-47.5 -13.5t-54.5 -5.5q-53 0 -95 19t-71.5 52t-45 77.5t-15.5 95.5q0 50 15.5 93.5t45 76t71.5 51t95 18.5
q46 0 84.5 -15t66 -43t43 -66.5t15.5 -85.5q0 -6 -1 -18t-4 -16q-3 -5 -7 -5h-406zM473 241q1 6 1 11.5v9.5q0 43 -14.5 78t-40.5 60.5t-61 39.5t-75 14q-47 0 -85 -16.5t-65 -45.5t-42.5 -68t-16.5 -83h399zM278 545q-51 0 -85.5 31t-41.5 76q-1 3 1.5 5.5t4.5 2.5h7
q5 0 5 -6q6 -41 36 -66t73 -25q42 0 72 25t37 66q0 6 5 6h7q2 0 4.5 -2.5t1.5 -5.5q-8 -45 -42.5 -76t-84.5 -31z" />
    <glyph glyph-name="Edotaccent" unicode="&#x116;" horiz-adv-x="587" 
d="M108 693q0 7 7 7h407q7 0 7 -7v-4q0 -7 -7 -7h-396v-309h348q7 0 7 -7v-4q0 -7 -7 -7h-348v-337h396q7 0 7 -7v-4q0 -7 -7 -7h-407q-7 0 -7 7v686zM318 819q-11 0 -17 7t-6 16q0 10 6 17.5t17 7.5q10 0 16.5 -7.5t6.5 -17.5q0 -9 -6.5 -16t-16.5 -7z" />
    <glyph glyph-name="edotaccent" unicode="&#x117;" horiz-adv-x="541" 
d="M74 223q1 -45 16 -84.5t42 -68.5t65.5 -46t85.5 -17q27 0 51.5 5t45 12.5t36 16.5t25.5 17q3 2 5.5 1.5t3.5 -2.5l4 -7q2 -3 -2 -7q-11 -8 -28 -17.5t-39 -17.5t-47.5 -13.5t-54.5 -5.5q-53 0 -95 19t-71.5 52t-45 77.5t-15.5 95.5q0 50 15.5 93.5t45 76t71.5 51t95 18.5
q46 0 84.5 -15t66 -43t43 -66.5t15.5 -85.5q0 -6 -1 -18t-4 -16q-3 -5 -7 -5h-406zM473 241q1 6 1 11.5v9.5q0 43 -14.5 78t-40.5 60.5t-61 39.5t-75 14q-47 0 -85 -16.5t-65 -45.5t-42.5 -68t-16.5 -83h399zM283 605q-11 0 -17 7t-6 16q0 10 6 17.5t17 7.5q10 0 16.5 -7.5
t6.5 -17.5q0 -9 -6.5 -16t-16.5 -7z" />
    <glyph glyph-name="Eogonek" unicode="&#x118;" horiz-adv-x="588" 
d="M108 693q0 7 7 7h407q7 0 7 -7v-4q0 -7 -7 -7h-396v-309h348q7 0 7 -7v-4q0 -7 -7 -7h-348v-337h396q7 0 7 -7v-2q0 -3 -3 -5t-5 -4q-18 -11 -39.5 -24t-39.5 -30.5t-30 -40t-12 -52.5q0 -29 18 -51t53 -22q25 0 43.5 10.5t24.5 13.5t8 -2l3 -6q3 -6 -7 -11
q-9 -5 -29 -14t-43 -9q-42 0 -65.5 26t-23.5 65q0 28 10 50.5t25 40.5t34 31.5t37 24.5h-373q-7 0 -7 7v686z" />
    <glyph glyph-name="eogonek" unicode="&#x119;" horiz-adv-x="541" 
d="M76 223q1 -45 16 -84.5t41.5 -68.5t64.5 -46t85 -17q27 0 51.5 5t45 12.5t36 16.5t25.5 17q3 2 5.5 1.5t3.5 -2.5l4 -7q2 -3 -2 -7q-14 -11 -36 -22.5t-51 -19.5q-19 -10 -40.5 -23t-40 -30.5t-30.5 -41t-12 -53.5q0 -29 18 -51t53 -22q25 0 43.5 10.5t24.5 13.5t8 -2
l3 -6q3 -6 -7 -11q-9 -5 -29 -14t-43 -9q-42 0 -65.5 26t-23.5 65q0 25 7.5 45.5t20.5 37.5t28.5 30.5t32.5 24.5q-8 -1 -15 -1.5t-15 -0.5q-53 0 -95 19t-71.5 52t-45 77.5t-15.5 95.5q0 50 15.5 93.5t45 76t71.5 51t95 18.5q46 0 84.5 -15t66 -43t43 -66.5t15.5 -85.5
q0 -6 -1 -18t-4 -16q-3 -5 -7 -5h-404zM472 241q1 6 1 11.5v9.5q0 43 -14.5 78t-40 60.5t-60.5 39.5t-75 14q-47 0 -85 -16.5t-64.5 -45.5t-41.5 -68t-16 -83h396z" />
    <glyph glyph-name="Ecaron" unicode="&#x11a;" horiz-adv-x="587" 
d="M108 693q0 7 7 7h407q7 0 7 -7v-4q0 -7 -7 -7h-396v-309h348q7 0 7 -7v-4q0 -7 -7 -7h-348v-337h396q7 0 7 -7v-4q0 -7 -7 -7h-407q-7 0 -7 7v686zM185 877q-4 4 -2 8l4 5q1 1 2.5 2t4.5 -1l124 -101l124 101q3 2 4.5 1t2.5 -2l4 -5q2 -4 -2 -8l-129 -106q-4 -4 -8 0z
" />
    <glyph glyph-name="ecaron" unicode="&#x11b;" horiz-adv-x="541" 
d="M74 223q1 -45 16 -84.5t42 -68.5t65.5 -46t85.5 -17q27 0 51.5 5t45 12.5t36 16.5t25.5 17q3 2 5.5 1.5t3.5 -2.5l4 -7q2 -3 -2 -7q-11 -8 -28 -17.5t-39 -17.5t-47.5 -13.5t-54.5 -5.5q-53 0 -95 19t-71.5 52t-45 77.5t-15.5 95.5q0 50 15.5 93.5t45 76t71.5 51t95 18.5
q46 0 84.5 -15t66 -43t43 -66.5t15.5 -85.5q0 -6 -1 -18t-4 -16q-3 -5 -7 -5h-406zM473 241q1 6 1 11.5v9.5q0 43 -14.5 78t-40.5 60.5t-61 39.5t-75 14q-47 0 -85 -16.5t-65 -45.5t-42.5 -68t-16.5 -83h399zM150 659q-4 4 -2 8l4 5q1 1 2.5 2t4.5 -1l124 -101l124 101
q3 2 4.5 1t2.5 -2l4 -5q2 -4 -2 -8l-129 -106q-4 -4 -8 0z" />
    <glyph glyph-name="Gcircumflex" unicode="&#x11c;" horiz-adv-x="752" 
d="M60 349q0 75 28.5 141t77.5 115t115.5 77t141.5 28q77 0 134.5 -25t108.5 -68q4 -4 1 -8l-5 -6q-4 -4 -8 0q-49 42 -104 65.5t-127 23.5t-134.5 -26.5t-109.5 -73t-74 -109t-27 -134.5t27 -134t74 -108t109.5 -72.5t134.5 -26.5q50 0 90.5 8.5t70 19.5t48 23t26.5 18v235
h-227q-7 0 -7 7v4q0 6 7 6h238q7 0 7 -6v-253q-3 -4 -20.5 -17t-49.5 -27t-78 -25t-105 -11q-75 0 -141.5 28t-115.5 76.5t-77.5 114t-28.5 140.5zM299 763q-3 -2 -4.5 -1t-2.5 2l-4 5q-2 4 2 8l129 106q4 4 8 0l129 -106q4 -4 2 -8l-4 -5q-1 -1 -2.5 -2t-4.5 1l-124 101z
" />
    <glyph glyph-name="gcircumflex" unicode="&#x11d;" horiz-adv-x="556" 
d="M169 548q-3 -2 -4.5 -1t-2.5 2l-4 5q-2 4 2 8l129 106q4 4 8 0l129 -106q4 -4 2 -8l-4 -5q-1 -1 -2.5 -2t-4.5 1l-124 101l-124 -101v0zM450 383q-3 4 -14.5 15.5t-32.5 24t-51 22t-69 9.5q-45 0 -83.5 -17t-66 -46.5t-43.5 -70t-16 -87.5q0 -48 15 -89t43.5 -71.5
t69 -48t91.5 -17.5q36 0 64 9.5t48 21.5t31.5 23t13.5 14v308zM450 46q-10 -9 -25 -19t-35 -18.5t-44.5 -14t-52.5 -5.5q-55 0 -99 18.5t-74.5 51.5t-47 77.5t-16.5 96.5q0 51 17 95t47 76t71.5 50t91.5 18q32 0 58.5 -6t47 -15t36 -19.5t25.5 -19.5v42q0 8 7 8h4q7 0 7 -8
v-469q0 -50 -15 -88.5t-40.5 -64t-60.5 -38.5t-74 -13q-30 0 -55 6.5t-44.5 15.5t-34 19.5t-23.5 18.5q-4 4 -5 5.5t2 5.5l4 5q3 3 9 -1q10 -9 23.5 -19t31.5 -18.5t41 -14t51 -5.5q34 0 65 11.5t55 34.5t38 58t14 82v61z" />
    <glyph glyph-name="Gbreve" unicode="&#x11e;" horiz-adv-x="752" 
d="M60 349q0 75 28.5 141t77.5 115t115.5 77t141.5 28q77 0 134.5 -25t108.5 -68q4 -4 1 -8l-5 -6q-4 -4 -8 0q-49 42 -104 65.5t-127 23.5t-134.5 -26.5t-109.5 -73t-74 -109t-27 -134.5t27 -134t74 -108t109.5 -72.5t134.5 -26.5q50 0 90.5 8.5t70 19.5t48 23t26.5 18v235
h-227q-7 0 -7 7v4q0 6 7 6h238q7 0 7 -6v-253q-3 -4 -20.5 -17t-49.5 -27t-78 -25t-105 -11q-75 0 -141.5 28t-115.5 76.5t-77.5 114t-28.5 140.5zM424 780q-51 0 -85.5 31t-41.5 77q-1 2 1.5 4.5t4.5 2.5h7q5 0 5 -6q6 -40 36 -65.5t73 -25.5q42 0 72 25.5t37 65.5q0 6 5 6
h7q2 0 4.5 -2.5t1.5 -4.5q-8 -46 -42.5 -77t-84.5 -31z" />
    <glyph glyph-name="gbreve" unicode="&#x11f;" horiz-adv-x="556" 
d="M294 545q-51 0 -85.5 31t-41.5 76q-1 3 1.5 5.5t4.5 2.5h5q5 0 5 -6q6 -41 37 -67t74 -26q42 0 73 26t38 67q0 6 5 6h5q2 0 4.5 -2.5t1.5 -5.5q-8 -45 -42.5 -76t-84.5 -31zM450 383q-3 4 -14.5 15.5t-32.5 24t-51 22t-69 9.5q-45 0 -83.5 -17t-66 -46.5t-43.5 -70
t-16 -87.5q0 -48 15 -89t43.5 -71.5t69 -48t91.5 -17.5q36 0 64 9.5t48 21.5t31.5 23t13.5 14v308zM450 46q-10 -9 -25 -19t-35 -18.5t-44.5 -14t-52.5 -5.5q-55 0 -99 18.5t-74.5 51.5t-47 77.5t-16.5 96.5q0 51 17 95t47 76t71.5 50t91.5 18q32 0 58.5 -6t47 -15t36 -19.5
t25.5 -19.5v42q0 8 7 8h4q7 0 7 -8v-469q0 -50 -15 -88.5t-40.5 -64t-60.5 -38.5t-74 -13q-30 0 -55 6.5t-44.5 15.5t-34 19.5t-23.5 18.5q-4 4 -5 5.5t2 5.5l4 5q3 3 9 -1q10 -9 23.5 -19t31.5 -18.5t41 -14t51 -5.5q34 0 65 11.5t55 34.5t38 58t14 82v61z" />
    <glyph glyph-name="Gdotaccent" unicode="&#x120;" horiz-adv-x="752" 
d="M60 349q0 75 28.5 141t77.5 115t115.5 77t141.5 28q77 0 134.5 -25t108.5 -68q4 -4 1 -8l-5 -6q-4 -4 -8 0q-49 42 -104 65.5t-127 23.5t-134.5 -26.5t-109.5 -73t-74 -109t-27 -134.5t27 -134t74 -108t109.5 -72.5t134.5 -26.5q50 0 90.5 8.5t70 19.5t48 23t26.5 18v235
h-227q-7 0 -7 7v4q0 6 7 6h238q7 0 7 -6v-253q-3 -4 -20.5 -17t-49.5 -27t-78 -25t-105 -11q-75 0 -141.5 28t-115.5 76.5t-77.5 114t-28.5 140.5zM423 819q-11 0 -17 7t-6 16q0 10 6 17.5t17 7.5q10 0 16.5 -7.5t6.5 -17.5q0 -9 -6.5 -16t-16.5 -7z" />
    <glyph glyph-name="gdotaccent" unicode="&#x121;" horiz-adv-x="556" 
d="M450 383q-3 4 -14.5 15.5t-32.5 24t-51 22t-69 9.5q-45 0 -83.5 -17t-66 -46.5t-43.5 -70t-16 -87.5q0 -48 15 -89t43.5 -71.5t69 -48t91.5 -17.5q36 0 64 9.5t48 21.5t31.5 23t13.5 14v308zM450 46q-10 -9 -25 -19t-35 -18.5t-44.5 -14t-52.5 -5.5q-55 0 -99 18.5
t-74.5 51.5t-47 77.5t-16.5 96.5q0 51 17 95t47 76t71.5 50t91.5 18q32 0 58.5 -6t47 -15t36 -19.5t25.5 -19.5v42q0 8 7 8h4q7 0 7 -8v-469q0 -50 -15 -88.5t-40.5 -64t-60.5 -38.5t-74 -13q-30 0 -55 6.5t-44.5 15.5t-34 19.5t-23.5 18.5q-4 4 -5 5.5t2 5.5l4 5q3 3 9 -1
q10 -9 23.5 -19t31.5 -18.5t41 -14t51 -5.5q34 0 65 11.5t55 34.5t38 58t14 82v61zM285 605q-11 0 -17 7t-6 16q0 10 6 17.5t17 7.5q10 0 16.5 -7.5t6.5 -17.5q0 -9 -6.5 -16t-16.5 -7z" />
    <glyph glyph-name="uni0122" unicode="&#x122;" horiz-adv-x="751" 
d="M60 349q0 75 28.5 141t77.5 115t115.5 77t141.5 28q77 0 134.5 -25t108.5 -68q4 -4 1 -8l-5 -6q-4 -4 -8 0q-49 42 -104 65.5t-127 23.5t-134.5 -26.5t-109.5 -73t-74 -109t-27 -134.5t27 -134t74 -108t109.5 -72.5t134.5 -26.5q50 0 90.5 8.5t70 19.5t48 23t26.5 18v235
h-227q-7 0 -7 7v4q0 6 7 6h238q7 0 7 -6v-253q-3 -4 -20.5 -17t-49.5 -27t-78 -25t-105 -11q-75 0 -141.5 28t-115.5 76.5t-77.5 114t-28.5 140.5zM387 -108q0 11 7.5 18t18.5 7q22 0 32 -19t10 -48q0 -27 -10.5 -50t-24.5 -34q-4 -3 -5.5 -2.5t-3.5 2.5l-5 6q-4 5 -2.5 7
t4.5 4q11 8 19 25t8 38q0 20 -6 29q-6 -6 -18 -6q-10 0 -17 6.5t-7 16.5z" />
    <glyph glyph-name="uni0123" unicode="&#x123;" horiz-adv-x="556" 
d="M450 383q-3 4 -14.5 15.5t-32.5 24t-51 22t-69 9.5q-45 0 -83.5 -17t-66 -46.5t-43.5 -70t-16 -87.5q0 -48 15 -89t43.5 -71.5t69 -48t91.5 -17.5q36 0 64 9.5t48 21.5t31.5 23t13.5 14v308zM450 46q-10 -9 -25 -19t-35 -18.5t-44.5 -14t-52.5 -5.5q-55 0 -99 18.5
t-74.5 51.5t-47 77.5t-16.5 96.5q0 51 17 95t47 76t71.5 50t91.5 18q32 0 58.5 -6t47 -15t36 -19.5t25.5 -19.5v42q0 8 7 8h4q7 0 7 -8v-469q0 -50 -15 -88.5t-40.5 -64t-60.5 -38.5t-74 -13q-30 0 -55 6.5t-44.5 15.5t-34 19.5t-23.5 18.5q-4 4 -5 5.5t2 5.5l4 5q3 3 9 -1
q10 -9 23.5 -19t31.5 -18.5t41 -14t51 -5.5q34 0 65 11.5t55 34.5t38 58t14 82v61zM322 601q0 -11 -7.5 -18t-18.5 -7q-22 0 -32 19t-10 48q0 27 10.5 50t24.5 34q4 3 5.5 2.5t3.5 -2.5l5 -6q4 -5 2.5 -7t-4.5 -4q-11 -8 -19 -25t-8 -38q0 -20 6 -29q6 6 18 6q10 0 17 -6.5
t7 -16.5z" />
    <glyph glyph-name="Hcircumflex" unicode="&#x124;" horiz-adv-x="744" 
d="M108 693q0 7 7 7h4q7 0 7 -7v-320h492v320q0 7 7 7h4q7 0 7 -7v-686q0 -7 -7 -7h-4q-7 0 -7 7v348h-492v-348q0 -7 -7 -7h-4q-7 0 -7 7v686zM247 763q-3 -2 -4.5 -1t-2.5 2l-4 5q-2 4 2 8l129 106q4 4 8 0l129 -106q4 -4 2 -8l-4 -5q-1 -1 -2.5 -2t-4.5 1l-124 101z" />
    <glyph glyph-name="hcircumflex" unicode="&#x125;" horiz-adv-x="539" 
d="M89 692q0 8 7 8h4q7 0 7 -8v-305q11 12 26.5 26.5t36.5 27.5t48 22t60 9q94 0 137.5 -54t43.5 -160v-250q0 -8 -7 -8h-4q-7 0 -7 8v250q0 95 -39.5 145.5t-123.5 50.5q-38 0 -68 -13t-52 -29.5t-34.5 -32t-16.5 -20.5v-351q0 -8 -7 -8h-4q-7 0 -7 8v684zM-33 765
q-3 -2 -4.5 -1t-2.5 2l-4 5q-2 4 2 8l129 106q4 4 8 0l129 -106q4 -4 2 -8l-4 -5q-1 -1 -2.5 -2t-4.5 1l-124 101z" />
    <glyph glyph-name="Hbar" unicode="&#x126;" horiz-adv-x="744" 
d="M108 548h-29q-7 0 -7 7v4q0 7 7 7h29v127q0 7 7 7h4q7 0 7 -7v-127h492v127q0 7 7 7h4q7 0 7 -7v-127h32q7 0 7 -7v-4q0 -7 -7 -7h-32v-541q0 -7 -7 -7h-4q-7 0 -7 7v348h-492v-348q0 -7 -7 -7h-4q-7 0 -7 7v541zM618 373v175h-492v-175h492z" />
    <glyph glyph-name="hbar" unicode="&#x127;" horiz-adv-x="560" 
d="M88 548h-44q-7 0 -7 7v4q0 7 7 7h44v126q0 8 7 8h4q7 0 7 -8v-126h227q7 0 7 -7v-4q0 -7 -7 -7h-227v-161q11 12 28 26.5t40 27.5t51.5 22t61.5 9q94 0 142.5 -54t48.5 -160v-250q0 -8 -7 -8h-4q-7 0 -7 8v250q0 95 -44.5 145.5t-128.5 50.5q-38 0 -70 -13t-55 -29.5
t-37.5 -32t-18.5 -20.5v-351q0 -8 -7 -8h-4q-7 0 -7 8v540z" />
    <glyph glyph-name="Itilde" unicode="&#x128;" horiz-adv-x="234" 
d="M108 693q0 7 7 7h4q7 0 7 -7v-686q0 -7 -7 -7h-4q-7 0 -7 7v686zM-27 804q-6 1 -3 9q2 7 7.5 21t15.5 28t25.5 24.5t37.5 10.5q17 0 28.5 -6t19 -15.5t12.5 -20t9 -19.5q6 -14 17.5 -30t35.5 -16q17 0 29 9t20 21t12.5 24t6.5 18q2 7 7 5l8 -2q6 -2 3 -9q-2 -7 -7.5 -21
t-15.5 -28t-25.5 -24.5t-37.5 -10.5q-17 0 -29 6.5t-20 15.5t-13.5 19.5t-8.5 18.5q-3 6 -6.5 14.5t-9.5 16t-14.5 12.5t-20.5 5q-17 0 -29 -9t-20 -21t-12.5 -24.5t-6.5 -18.5q-2 -7 -7 -5z" />
    <glyph glyph-name="itilde" unicode="&#x129;" horiz-adv-x="194" 
d="M89 454q0 8 7 8h4q7 0 7 -8v-446q0 -8 -7 -8h-4q-7 0 -7 8v446zM-43 585q-6 1 -3 9q2 7 7.5 21t15.5 28t25.5 24.5t37.5 10.5q17 0 28.5 -6t19 -15.5t12.5 -20t9 -19.5q6 -14 17.5 -30t35.5 -16q17 0 29 9t20 21t12.5 24t6.5 18q2 7 7 5l8 -2q6 -2 3 -9q-2 -7 -7.5 -21
t-15.5 -28t-25.5 -24.5t-37.5 -10.5q-17 0 -29 6.5t-20 15.5t-13.5 19.5t-8.5 18.5q-3 6 -6.5 14.5t-9.5 16t-14.5 12.5t-20.5 5q-17 0 -29 -9t-20 -21t-12.5 -24.5t-6.5 -18.5q-2 -7 -7 -5z" />
    <glyph glyph-name="Imacron" unicode="&#x12a;" horiz-adv-x="234" 
d="M108 693q0 7 7 7h4q7 0 7 -7v-686q0 -7 -7 -7h-4q-7 0 -7 7v686zM-27 842q-7 0 -7 7v4q0 7 7 7h288q7 0 7 -7v-4q0 -7 -7 -7h-288z" />
    <glyph glyph-name="imacron" unicode="&#x12b;" horiz-adv-x="194" 
d="M88 454q0 8 7 8h4q7 0 7 -8v-446q0 -8 -7 -8h-4q-7 0 -7 8v446zM-44 607q-7 0 -7 7v4q0 7 7 7h288q7 0 7 -7v-4q0 -7 -7 -7h-288z" />
    <glyph glyph-name="Ibreve" unicode="&#x12c;" horiz-adv-x="234" 
d="M108 693q0 7 7 7h4q7 0 7 -7v-686q0 -7 -7 -7h-4q-7 0 -7 7v686zM117 780q-51 0 -85.5 31t-41.5 77q-1 2 1.5 4.5t4.5 2.5h7q5 0 5 -6q6 -40 36 -65.5t73 -25.5q42 0 72 25.5t37 65.5q0 6 5 6h7q2 0 4.5 -2.5t1.5 -4.5q-8 -46 -42.5 -77t-84.5 -31z" />
    <glyph glyph-name="ibreve" unicode="&#x12d;" horiz-adv-x="194" 
d="M88 454q0 8 7 8h4q7 0 7 -8v-446q0 -8 -7 -8h-4q-7 0 -7 8v446zM100 545q-51 0 -85.5 31t-41.5 76q-1 3 1.5 5.5t4.5 2.5h7q5 0 5 -6q6 -41 36 -66t73 -25q42 0 72 25t37 66q0 6 5 6h7q2 0 4.5 -2.5t1.5 -5.5q-8 -45 -42.5 -76t-84.5 -31z" />
    <glyph glyph-name="Iogonek" unicode="&#x12e;" horiz-adv-x="234" 
d="M119 0q-19 -10 -40.5 -23t-39.5 -30.5t-30 -40.5t-12 -53q0 -29 18 -51t53 -22q25 0 43.5 10.5t24.5 13.5t8 -2l3 -6q3 -6 -7 -11q-9 -5 -29 -14t-43 -9q-42 0 -65.5 26t-23.5 65q0 33 13 58.5t32.5 45t42 33.5t41.5 24v679q0 7 7 7h4q7 0 7 -7v-682q0 -8 -7 -11z" />
    <glyph glyph-name="iogonek" unicode="&#x12f;" horiz-adv-x="194" 
d="M106 11q0 -7 -7 -11q-18 -11 -39.5 -24t-39.5 -30t-30 -40t-12 -53q0 -29 18 -51t53 -22q25 0 43.5 10.5t24.5 13.5t8 -2l3 -6q3 -6 -7 -11q-9 -5 -29 -14t-43 -9q-42 0 -65.5 26t-23.5 65q0 32 13 57t32 44.5t41.5 33t41.5 23.5v443q0 8 7 8h4q7 0 7 -8v-443zM98 605
q-11 0 -17 7t-6 16q0 10 6 17.5t17 7.5q10 0 16.5 -7.5t6.5 -17.5q0 -9 -6.5 -16t-16.5 -7z" />
    <glyph glyph-name="Idotaccent" unicode="&#x130;" horiz-adv-x="234" 
d="M108 693q0 7 7 7h4q7 0 7 -7v-686q0 -7 -7 -7h-4q-7 0 -7 7v686zM116 819q-11 0 -17 7t-6 16q0 10 6 17.5t17 7.5q10 0 16.5 -7.5t6.5 -17.5q0 -9 -6.5 -16t-16.5 -7z" />
    <glyph glyph-name="dotlessi" unicode="&#x131;" horiz-adv-x="194" 
d="M88 454q0 8 7 8h4q7 0 7 -8v-446q0 -8 -7 -8h-4q-7 0 -7 8v446z" />
    <glyph glyph-name="IJ" unicode="&#x132;" horiz-adv-x="653" 
d="M108 693q0 7 7 7h4q7 0 7 -7v-686q0 -7 -7 -7h-4q-7 0 -7 7v686zM211 67q-4 5 1 9l4 3q5 3 8 -2q6 -8 17.5 -19.5t29 -22.5t41.5 -19t54 -8q83 0 126 50.5t43 150.5v484q0 7 7 7h3q7 0 7 -7v-484q0 -106 -47.5 -162.5t-138.5 -56.5q-33 0 -59 9t-45.5 21.5t-32 25.5
t-18.5 21z" />
    <glyph glyph-name="ij" unicode="&#x133;" horiz-adv-x="431" 
d="M88 454q0 8 7 8h4q7 0 7 -8v-446q0 -8 -7 -8h-4q-7 0 -7 8v446zM98 605q-11 0 -17 7t-6 16q0 10 6 17.5t17 7.5q10 0 16.5 -7.5t6.5 -17.5q0 -9 -6.5 -16t-16.5 -7zM343 -65q0 -84 -31.5 -127t-98.5 -57q-10 -2 -11 5l-1 4q-1 6 7 8q30 7 52 19.5t36.5 32t21.5 48t7 67.5
v519q0 8 7 8h4q7 0 7 -8v-519zM335 605q-11 0 -17 7t-6 16q0 10 6 17.5t17 7.5q10 0 16.5 -7.5t6.5 -17.5q0 -9 -6.5 -16t-16.5 -7z" />
    <glyph glyph-name="Jcircumflex" unicode="&#x134;" horiz-adv-x="463" 
d="M21 67q-4 5 1 9l4 3q5 3 8 -2q6 -8 17.5 -19.5t29 -22.5t41.5 -19t54 -8q83 0 126 50.5t43 150.5v484q0 7 7 7h3q7 0 7 -7v-484q0 -106 -47.5 -162.5t-138.5 -56.5q-33 0 -59 9t-45.5 21.5t-32 25.5t-18.5 21zM230 763q-3 -2 -4.5 -1t-2.5 2l-4 5q-2 4 2 8l129 106
q4 4 8 0l129 -106q4 -4 2 -8l-4 -5q-1 -1 -2.5 -2t-4.5 1l-124 101z" />
    <glyph glyph-name="jcircumflex" unicode="&#x135;" horiz-adv-x="194" 
d="M106 -65q0 -84 -31.5 -127t-98.5 -57q-10 -2 -11 5l-1 4q-1 6 7 8q30 7 52 19.5t36.5 32t21.5 48t7 67.5v519q0 8 7 8h4q7 0 7 -8v-519zM-26 548q-3 -2 -4.5 -1t-2.5 2l-4 5q-2 4 2 8l129 106q4 4 8 0l129 -106q4 -4 2 -8l-4 -5q-1 -1 -2.5 -2t-4.5 1l-124 101z" />
    <glyph glyph-name="uni0136" unicode="&#x136;" horiz-adv-x="541" 
d="M108 693q0 7 7 7h4q7 0 7 -7v-333l372 339q5 5 10 0l3 -3q5 -5 0 -10l-369 -335l379 -340q3 -3 4 -5.5t-2 -5.5l-4 -4q-4 -4 -9 2l-384 344v-335q0 -7 -7 -7h-4q-7 0 -7 7v686zM294 -108q0 11 7.5 18t18.5 7q22 0 32 -19t10 -48q0 -27 -10.5 -50t-24.5 -34
q-4 -3 -5.5 -2.5t-3.5 2.5l-5 6q-4 5 -2.5 7t4.5 4q11 8 19 25t8 38q0 20 -6 29q-6 -6 -18 -6q-10 0 -17 6.5t-7 16.5z" />
    <glyph glyph-name="uni0137" unicode="&#x137;" horiz-adv-x="446" 
d="M88 692q0 8 7 8h4q7 0 7 -8v-425l293 201q6 4 9 -2l3 -5q3 -5 -2 -9l-286 -196l294 -244q5 -4 0 -11l-3 -4q-3 -4 -8 -1l-300 251v-239q0 -8 -7 -8h-4q-7 0 -7 8v684zM196 -108q0 11 7.5 18t18.5 7q22 0 32 -19t10 -48q0 -27 -10.5 -50t-24.5 -34q-4 -3 -5.5 -2.5
t-3.5 2.5l-5 6q-4 5 -2.5 7t4.5 4q11 8 19 25t8 38q0 20 -6 29q-6 -6 -18 -6q-10 0 -17 6.5t-7 16.5z" />
    <glyph glyph-name="kgreenlandic" unicode="&#x138;" horiz-adv-x="452" 
d="M88 454q0 8 7 8h4q7 0 7 -8v-213l287 227q6 4 9 -2l4 -6q3 -6 -2 -9l-280 -219l298 -220q6 -4 1 -10l-4 -5q-5 -5 -10 -1l-303 226v-214q0 -8 -7 -8h-4q-7 0 -7 8v446z" />
    <glyph glyph-name="Lacute" unicode="&#x139;" horiz-adv-x="496" 
d="M108 693q0 7 7 7h4q6 0 6 -7v-675h349q7 0 7 -7v-4q0 -7 -7 -7h-359q-7 0 -7 7v686zM85 778q-6 -3 -9 3l-2 5q-2 4 3 7l182 91q2 1 4.5 1t4.5 -4l2 -4q3 -6 -3 -9z" />
    <glyph glyph-name="lacute" unicode="&#x13a;" horiz-adv-x="210" 
d="M96 692q0 8 7 8h4q7 0 7 -8v-684q0 -8 -7 -8h-4q-7 0 -7 8v684zM20 777q-6 -3 -9 3l-2 5q-2 4 3 7l182 91q2 1 4.5 1t4.5 -4l2 -4q3 -6 -3 -9z" />
    <glyph glyph-name="uni013B" unicode="&#x13b;" horiz-adv-x="496" 
d="M108 693q0 7 7 7h4q6 0 6 -7v-675h349q7 0 7 -7v-4q0 -7 -7 -7h-359q-7 0 -7 7v686zM251 -108q0 11 7.5 18t18.5 7q22 0 32 -19t10 -48q0 -27 -10.5 -50t-24.5 -34q-4 -3 -5.5 -2.5t-3.5 2.5l-5 6q-4 5 -2.5 7t4.5 4q11 8 19 25t8 38q0 20 -6 29q-6 -6 -18 -6
q-10 0 -17 6.5t-7 16.5z" />
    <glyph glyph-name="uni013C" unicode="&#x13c;" horiz-adv-x="210" 
d="M96 692q0 8 7 8h4q7 0 7 -8v-684q0 -8 -7 -8h-4q-7 0 -7 8v684zM67 -108q0 11 7.5 18t18.5 7q22 0 32 -19t10 -48q0 -27 -10.5 -50t-24.5 -34q-4 -3 -5.5 -2.5t-3.5 2.5l-5 6q-4 5 -2.5 7t4.5 4q11 8 19 25t8 38q0 20 -6 29q-6 -6 -18 -6q-10 0 -17 6.5t-7 16.5z" />
    <glyph glyph-name="Lcaron" unicode="&#x13d;" horiz-adv-x="500" 
d="M108 693q0 7 7 7h4q6 0 6 -7v-675h349q7 0 7 -7v-4q0 -7 -7 -7h-359q-7 0 -7 7v686zM353 685q0 11 7.5 18t18.5 7q22 0 32 -19t10 -48q0 -27 -10.5 -50t-24.5 -34q-4 -3 -5.5 -2.5t-3.5 2.5l-5 6q-4 5 -2.5 7t4.5 4q11 8 19 25t8 38q0 20 -6 29q-6 -6 -18 -6
q-10 0 -17 6.5t-7 16.5z" />
    <glyph glyph-name="lcaron" unicode="&#x13e;" horiz-adv-x="210" 
d="M96 692q0 8 7 8h4q7 0 7 -8v-684q0 -8 -7 -8h-4q-7 0 -7 8v684zM176 685q0 11 7.5 18t18.5 7q22 0 32 -19t10 -48q0 -27 -10.5 -50t-24.5 -34q-4 -3 -5.5 -2.5t-3.5 2.5l-5 6q-4 5 -2.5 7t4.5 4q11 8 19 25t8 38q0 20 -6 29q-6 -6 -18 -6q-10 0 -17 6.5t-7 16.5z" />
    <glyph glyph-name="Ldot" unicode="&#x13f;" horiz-adv-x="503" 
d="M108 693q0 7 7 7h4q6 0 6 -7v-675h349q7 0 7 -7v-4q0 -7 -7 -7h-359q-7 0 -7 7v686zM419 322q-10 0 -17 7t-7 17t7 16.5t17 6.5q11 0 17.5 -6.5t6.5 -16.5t-6.5 -17t-17.5 -7z" />
    <glyph glyph-name="ldot" unicode="&#x140;" horiz-adv-x="328" 
d="M96 692q0 8 7 8h4q7 0 7 -8v-684q0 -8 -7 -8h-4q-7 0 -7 8v684zM246 321q-10 0 -17 7t-7 17t7 16.5t17 6.5q11 0 17.5 -6.5t6.5 -16.5t-6.5 -17t-17.5 -7z" />
    <glyph glyph-name="Lslash" unicode="&#x141;" horiz-adv-x="502" 
d="M108 329l-44 -20q-6 -3 -8 1l-4 8q-2 5 4 7l52 24v344q0 7 7 7h4q7 0 7 -7v-336l180 85q7 2 9 -3l3 -6q2 -2 0 -4t-4 -3l-188 -89v-319h369q7 0 7 -7v-4q0 -7 -7 -7h-380q-7 0 -7 7v322z" />
    <glyph glyph-name="lslash" unicode="&#x142;" horiz-adv-x="284" 
d="M107 349l-85 -40q-5 -2 -7 2l-3 6q-2 3 -0.5 5t3.5 3l92 43v324q0 8 7 8h4q7 0 7 -8v-316l140 66q4 3 7 -3l3 -6q2 -4 -3 -7l-147 -69v-349q0 -8 -7 -8h-4q-7 0 -7 8v341z" />
    <glyph glyph-name="Nacute" unicode="&#x143;" horiz-adv-x="764" 
d="M108 710q0 5 5 7t8 -3l517 -689v668q0 7 7 7h4q7 0 7 -7v-701q0 -5 -5 -7t-8 3l-517 689v-670q0 -7 -7 -7h-4q-7 0 -7 7v703zM325 778q-6 -3 -9 3l-2 5q-2 4 3 7l182 91q2 1 4.5 1t4.5 -4l2 -4q3 -6 -3 -9z" />
    <glyph glyph-name="nacute" unicode="&#x144;" horiz-adv-x="539" 
d="M88 454q0 8 7 8h4q7 0 7 -8v-63q11 12 26.5 26t36.5 26t48 20.5t60 8.5q94 0 137 -54t43 -160v-250q0 -8 -6 -8h-4q-8 0 -8 8v250q0 95 -39 145.5t-123 50.5q-38 0 -68 -12t-52 -27.5t-34.5 -30t-16.5 -19.5v-357q0 -8 -7 -8h-4q-7 0 -7 8v446zM187 561q-6 -3 -9 3l-2 5
q-2 4 3 7l182 91q2 1 4.5 1t4.5 -4l2 -4q3 -6 -3 -9z" />
    <glyph glyph-name="uni0145" unicode="&#x145;" horiz-adv-x="764" 
d="M108 710q0 5 5 7t8 -3l517 -689v668q0 7 7 7h4q7 0 7 -7v-701q0 -5 -5 -7t-8 3l-517 689v-670q0 -7 -7 -7h-4q-7 0 -7 7v703zM358 -108q0 11 7.5 18t18.5 7q22 0 32 -19t10 -48q0 -27 -10.5 -50t-24.5 -34q-4 -3 -5.5 -2.5t-3.5 2.5l-5 6q-4 5 -2.5 7t4.5 4q11 8 19 25
t8 38q0 20 -6 29q-6 -6 -18 -6q-10 0 -17 6.5t-7 16.5z" />
    <glyph glyph-name="uni0146" unicode="&#x146;" horiz-adv-x="539" 
d="M88 454q0 8 7 8h4q7 0 7 -8v-63q11 12 26.5 26t36.5 26t48 20.5t60 8.5q94 0 137 -54t43 -160v-250q0 -8 -6 -8h-4q-8 0 -8 8v250q0 95 -39 145.5t-123 50.5q-38 0 -68 -12t-52 -27.5t-34.5 -30t-16.5 -19.5v-357q0 -8 -7 -8h-4q-7 0 -7 8v446zM240 -107q0 11 7.5 18
t18.5 7q22 0 32 -19t10 -48q0 -27 -10.5 -50t-24.5 -34q-4 -3 -5.5 -2.5t-3.5 2.5l-5 6q-4 5 -2.5 7t4.5 4q11 8 19 25t8 38q0 20 -6 29q-6 -6 -18 -6q-10 0 -17 6.5t-7 16.5z" />
    <glyph glyph-name="Ncaron" unicode="&#x147;" horiz-adv-x="764" 
d="M108 710q0 5 5 7t8 -3l517 -689v668q0 7 7 7h4q7 0 7 -7v-701q0 -5 -5 -7t-8 3l-517 689v-670q0 -7 -7 -7h-4q-7 0 -7 7v703zM271 877q-4 4 -2 8l4 5q1 1 2.5 2t4.5 -1l124 -101l124 101q3 2 4.5 1t2.5 -2l4 -5q2 -4 -2 -8l-129 -106q-4 -4 -8 0z" />
    <glyph glyph-name="ncaron" unicode="&#x148;" horiz-adv-x="539" 
d="M88 454q0 8 7 8h4q7 0 7 -8v-63q11 12 26.5 26t36.5 26t48 20.5t60 8.5q94 0 137 -54t43 -160v-250q0 -8 -6 -8h-4q-8 0 -8 8v250q0 95 -39 145.5t-123 50.5q-38 0 -68 -12t-52 -27.5t-34.5 -30t-16.5 -19.5v-357q0 -8 -7 -8h-4q-7 0 -7 8v446zM140 660q-4 4 -2 8l4 5
q1 1 2.5 2t4.5 -1l124 -101l124 101q3 2 4.5 1t2.5 -2l4 -5q2 -4 -2 -8l-129 -106q-4 -4 -8 0z" />
    <glyph glyph-name="napostrophe" unicode="&#x149;" horiz-adv-x="539" 
d="M88 454q0 8 7 8h4q7 0 7 -8v-63q11 12 26.5 26t36.5 26t48 20.5t60 8.5q94 0 137 -54t43 -160v-250q0 -8 -6 -8h-4q-8 0 -8 8v250q0 95 -39 145.5t-123 50.5q-38 0 -68 -12t-52 -27.5t-34.5 -30t-16.5 -19.5v-357q0 -8 -7 -8h-4q-7 0 -7 8v446zM-13 685q0 11 7.5 18
t18.5 7q22 0 32 -19t10 -48q0 -27 -10.5 -50t-24.5 -34q-4 -3 -5.5 -2.5t-3.5 2.5l-5 6q-4 5 -2.5 7t4.5 4q11 8 19 25t8 38q0 20 -6 29q-6 -6 -18 -6q-10 0 -17 6.5t-7 16.5z" />
    <glyph glyph-name="Eng" unicode="&#x14a;" horiz-adv-x="764" 
d="M656 -65q0 -84 -31.5 -127t-98.5 -57q-10 -2 -11 5l-1 4q-1 6 7 8q30 7 52 19.5t36.5 32t21.5 48t7 67.5v60l-512 682v-670q0 -7 -7 -7h-4q-7 0 -7 7v703q0 5 5 7t8 -3l517 -689v668q0 7 7 7h4q7 0 7 -7v-758z" />
    <glyph glyph-name="eng" unicode="&#x14b;" horiz-adv-x="539" 
d="M88 454q0 8 7 8h4q7 0 7 -8v-63q11 12 26.5 26t36.5 26t48 20.5t60 8.5q94 0 137 -54t43 -160v-323q0 -84 -31.5 -127t-98.5 -57q-10 -2 -11 5l-1 4q-1 6 7 8q30 7 52 19.5t36.5 32t21.5 48t7 67.5v323q0 95 -39 145.5t-123 50.5q-38 0 -68 -12t-52 -27.5t-34.5 -30
t-16.5 -19.5v-357q0 -8 -7 -8h-4q-7 0 -7 8v446z" />
    <glyph glyph-name="Omacron" unicode="&#x14c;" horiz-adv-x="844" 
d="M61 349q0 75 28 141t77 115t115 77t141 28t141 -28t115 -77t77.5 -115t28.5 -141t-28.5 -140.5t-77.5 -114t-115 -76.5t-141 -28t-141 28t-115 76.5t-77 114t-28 140.5zM79 349q0 -72 26.5 -134t73 -108t109 -72.5t134.5 -26.5t134.5 26.5t109 72.5t73.5 108t27 134
t-27 134.5t-73.5 109t-109 73t-134.5 26.5t-134.5 -26.5t-109 -73t-73 -109t-26.5 -134.5zM278 842q-7 0 -7 7v4q0 7 7 7h288q7 0 7 -7v-4q0 -7 -7 -7h-288z" />
    <glyph glyph-name="omacron" unicode="&#x14d;" horiz-adv-x="577" 
d="M55 232q0 50 18 94t49.5 76.5t74 51t91.5 18.5t92 -18.5t74.5 -51t49.5 -76.5t18 -94q0 -51 -18 -95.5t-49.5 -77t-74.5 -51.5t-92 -19t-91.5 19t-74 51.5t-49.5 77t-18 95.5zM73 232q0 -47 16.5 -88t46 -71.5t68.5 -48t84 -17.5t84.5 17.5t69 48t46 71.5t16.5 88
q0 46 -16.5 86.5t-46 70.5t-69 47.5t-84.5 17.5t-84 -17.5t-68.5 -47.5t-46 -70.5t-16.5 -86.5zM146 607q-7 0 -7 7v4q0 7 7 7h288q7 0 7 -7v-4q0 -7 -7 -7h-288z" />
    <glyph glyph-name="Obreve" unicode="&#x14e;" horiz-adv-x="844" 
d="M61 349q0 75 28 141t77 115t115 77t141 28t141 -28t115 -77t77.5 -115t28.5 -141t-28.5 -140.5t-77.5 -114t-115 -76.5t-141 -28t-141 28t-115 76.5t-77 114t-28 140.5zM79 349q0 -72 26.5 -134t73 -108t109 -72.5t134.5 -26.5t134.5 26.5t109 72.5t73.5 108t27 134
t-27 134.5t-73.5 109t-109 73t-134.5 26.5t-134.5 -26.5t-109 -73t-73 -109t-26.5 -134.5zM422 780q-51 0 -85.5 31t-41.5 77q-1 2 1.5 4.5t4.5 2.5h7q5 0 5 -6q6 -40 36 -65.5t73 -25.5q42 0 72 25.5t37 65.5q0 6 5 6h7q2 0 4.5 -2.5t1.5 -4.5q-8 -46 -42.5 -77t-84.5 -31z
" />
    <glyph glyph-name="obreve" unicode="&#x14f;" horiz-adv-x="577" 
d="M55 232q0 50 18 94t49.5 76.5t74 51t91.5 18.5t92 -18.5t74.5 -51t49.5 -76.5t18 -94q0 -51 -18 -95.5t-49.5 -77t-74.5 -51.5t-92 -19t-91.5 19t-74 51.5t-49.5 77t-18 95.5zM73 232q0 -47 16.5 -88t46 -71.5t68.5 -48t84 -17.5t84.5 17.5t69 48t46 71.5t16.5 88
q0 46 -16.5 86.5t-46 70.5t-69 47.5t-84.5 17.5t-84 -17.5t-68.5 -47.5t-46 -70.5t-16.5 -86.5zM290 545q-51 0 -85.5 31t-41.5 76q-1 3 1.5 5.5t4.5 2.5h7q5 0 5 -6q6 -41 36 -66t73 -25q42 0 72 25t37 66q0 6 5 6h7q2 0 4.5 -2.5t1.5 -5.5q-8 -45 -42.5 -76t-84.5 -31z
" />
    <glyph glyph-name="Ohungarumlaut" unicode="&#x150;" horiz-adv-x="844" 
d="M61 349q0 75 28 141t77 115t115 77t141 28t141 -28t115 -77t77.5 -115t28.5 -141t-28.5 -140.5t-77.5 -114t-115 -76.5t-141 -28t-141 28t-115 76.5t-77 114t-28 140.5zM79 349q0 -72 26.5 -134t73 -108t109 -72.5t134.5 -26.5t134.5 26.5t109 72.5t73.5 108t27 134
t-27 134.5t-73.5 109t-109 73t-134.5 26.5t-134.5 -26.5t-109 -73t-73 -109t-26.5 -134.5zM503 759q-2 2 -3 3.5t1 5.5l108 173q4 5 9 2l3 -2q2 -2 3 -3.5t-1 -5.5l-108 -173q-4 -5 -9 -2zM337 759q-2 2 -3 3.5t1 5.5l108 173q4 5 9 2l3 -2q2 -2 3 -3.5t-1 -5.5l-108 -173
q-4 -5 -9 -2z" />
    <glyph glyph-name="ohungarumlaut" unicode="&#x151;" horiz-adv-x="577" 
d="M55 232q0 50 18 94t49.5 76.5t74 51t91.5 18.5t92 -18.5t74.5 -51t49.5 -76.5t18 -94q0 -51 -18 -95.5t-49.5 -77t-74.5 -51.5t-92 -19t-91.5 19t-74 51.5t-49.5 77t-18 95.5zM73 232q0 -47 16.5 -88t46 -71.5t68.5 -48t84 -17.5t84.5 17.5t69 48t46 71.5t16.5 88
q0 46 -16.5 86.5t-46 70.5t-69 47.5t-84.5 17.5t-84 -17.5t-68.5 -47.5t-46 -70.5t-16.5 -86.5zM363 515q-2 2 -3 3.5t1 5.5l108 173q4 5 9 2l3 -2q2 -2 3 -3.5t-1 -5.5l-108 -173q-4 -5 -9 -2zM197 515q-2 2 -3 3.5t1 5.5l108 173q4 5 9 2l3 -2q2 -2 3 -3.5t-1 -5.5
l-108 -173q-4 -5 -9 -2z" />
    <glyph glyph-name="OE" unicode="&#x152;" horiz-adv-x="973" 
d="M61 349q0 75 28 141t76.5 115t114.5 77t141 28q22 0 42.5 -2.5t40.5 -7.5h404q6 0 6 -7v-4q0 -7 -6 -7h-396v-309h348q6 0 6 -7v-4q0 -7 -6 -7h-348v-337h396q6 0 6 -7v-4q0 -7 -6 -7h-402q-20 -5 -42 -7.5t-44 -2.5q-75 0 -140.5 28t-114 76.5t-76.5 114t-28 140.5z
M78 349q0 -72 26.5 -134t73 -108t108.5 -72.5t134 -26.5q20 0 37.5 1.5t36.5 6.5v668q-19 4 -36 6t-37 2q-72 0 -134.5 -26.5t-109 -73t-73 -109t-26.5 -134.5z" />
    <glyph glyph-name="oe" unicode="&#x153;" horiz-adv-x="911" 
d="M55 231q0 50 18 94t49.5 76.5t74 51.5t91.5 19q62 0 106 -25t76 -67q29 42 75 67t107 25q46 0 85 -15.5t67 -43t43.5 -66.5t15.5 -86q0 -6 -0.5 -17t-2.5 -16t-7 -5h-373v-120q28 -45 72 -70.5t102 -25.5q54 0 95.5 17.5t62.5 33.5q5 5 9 -2l3 -4q3 -3 2 -5t-3 -4
q-11 -8 -27.5 -17.5t-38.5 -17.5t-48 -13.5t-55 -5.5q-61 0 -107.5 25.5t-75.5 67.5q-32 -43 -77.5 -68t-105.5 -25q-49 0 -91.5 18.5t-74 51t-49.5 77t-18 95.5zM843 241q1 5 1 11v9q0 43 -14.5 78.5t-40 61t-60.5 39.5t-77 14q-63 0 -106.5 -29t-65.5 -68v-116h363z
M73 231q0 -47 16.5 -88t46 -71t68.5 -47.5t84 -17.5q61 0 105.5 28.5t67.5 67.5v254q-22 39 -65.5 68t-107.5 29q-45 0 -84 -17.5t-68.5 -48t-46 -71t-16.5 -86.5z" />
    <glyph glyph-name="Racute" unicode="&#x154;" horiz-adv-x="641" 
d="M108 693q0 7 7 7h237q47 0 88.5 -16t72.5 -44.5t49 -68t18 -85.5q0 -42 -14 -78t-38.5 -64t-57.5 -47t-72 -26l156 -261q3 -5 -1 -8l-9 -5q-4 -1 -6 3l-159 268q-7 -1 -13 -1h-13h-228v-260q0 -7 -6 -7h-4q-7 0 -7 7v686zM353 284q43 0 81.5 15t67 42t45 64t16.5 81
q0 43 -16.5 79t-45.5 62t-67.5 40.5t-81.5 14.5h-227v-398h228zM217 778q-6 -3 -9 3l-2 5q-2 4 3 7l182 91q2 1 4.5 1t4.5 -4l2 -4q3 -6 -3 -9z" />
    <glyph glyph-name="racute" unicode="&#x155;" horiz-adv-x="366" 
d="M88 454q0 8 7 8h4q7 0 7 -8v-61q9 12 23 26t33 25.5t43 19.5t53 8q40 0 59.5 -7.5t25.5 -11.5q5 -4 2 -11l-2 -4q-1 -2 -4 -3t-7 1q-5 3 -22.5 10.5t-51.5 7.5q-35 0 -62 -12.5t-45.5 -28.5t-30 -31t-14.5 -20v-354q0 -8 -7 -8h-4q-7 0 -7 8v446zM112 560q-6 -3 -9 3
l-2 5q-2 4 3 7l182 91q2 1 4.5 1t4.5 -4l2 -4q3 -6 -3 -9z" />
    <glyph glyph-name="uni0156" unicode="&#x156;" horiz-adv-x="641" 
d="M108 693q0 7 7 7h237q47 0 88.5 -16t72.5 -44.5t49 -68t18 -85.5q0 -42 -14 -78t-38.5 -64t-57.5 -47t-72 -26l156 -261q3 -5 -1 -8l-9 -5q-4 -1 -6 3l-159 268q-7 -1 -13 -1h-13h-228v-260q0 -7 -6 -7h-4q-7 0 -7 7v686zM353 284q43 0 81.5 15t67 42t45 64t16.5 81
q0 43 -16.5 79t-45.5 62t-67.5 40.5t-81.5 14.5h-227v-398h228zM271 -108q0 11 7.5 18t18.5 7q22 0 32 -19t10 -48q0 -27 -10.5 -50t-24.5 -34q-4 -3 -5.5 -2.5t-3.5 2.5l-5 6q-4 5 -2.5 7t4.5 4q11 8 19 25t8 38q0 20 -6 29q-6 -6 -18 -6q-10 0 -17 6.5t-7 16.5z" />
    <glyph glyph-name="uni0157" unicode="&#x157;" horiz-adv-x="366" 
d="M88 454q0 8 7 8h4q7 0 7 -8v-61q9 12 23 26t33 25.5t43 19.5t53 8q40 0 59.5 -7.5t25.5 -11.5q5 -4 2 -11l-2 -4q-1 -2 -4 -3t-7 1q-5 3 -22.5 10.5t-51.5 7.5q-35 0 -62 -12.5t-45.5 -28.5t-30 -31t-14.5 -20v-354q0 -8 -7 -8h-4q-7 0 -7 8v446zM71 -108q0 11 7.5 18
t18.5 7q22 0 32 -19t10 -48q0 -27 -10.5 -50t-24.5 -34q-4 -3 -5.5 -2.5t-3.5 2.5l-5 6q-4 5 -2.5 7t4.5 4q11 8 19 25t8 38q0 20 -6 29q-6 -6 -18 -6q-10 0 -17 6.5t-7 16.5z" />
    <glyph glyph-name="Rcaron" unicode="&#x158;" horiz-adv-x="641" 
d="M108 693q0 7 7 7h237q47 0 88.5 -16t72.5 -44.5t49 -68t18 -85.5q0 -42 -14 -78t-38.5 -64t-57.5 -47t-72 -26l156 -261q3 -5 -1 -8l-9 -5q-4 -1 -6 3l-159 268q-7 -1 -13 -1h-13h-228v-260q0 -7 -6 -7h-4q-7 0 -7 7v686zM353 284q43 0 81.5 15t67 42t45 64t16.5 81
q0 43 -16.5 79t-45.5 62t-67.5 40.5t-81.5 14.5h-227v-398h228zM163 877q-4 4 -2 8l4 5q1 1 2.5 2t4.5 -1l124 -101l124 101q3 2 4.5 1t2.5 -2l4 -5q2 -4 -2 -8l-129 -106q-4 -4 -8 0z" />
    <glyph glyph-name="rcaron" unicode="&#x159;" horiz-adv-x="366" 
d="M89 454q0 8 7 8h4q7 0 7 -8v-61q9 12 23 26t33 25.5t43 19.5t53 8q40 0 59.5 -7.5t25.5 -11.5q5 -4 2 -11l-2 -4q-1 -2 -4 -3t-7 1q-5 3 -22.5 10.5t-51.5 7.5q-35 0 -62 -12.5t-45.5 -28.5t-30 -31t-14.5 -20v-354q0 -8 -7 -8h-4q-7 0 -7 8v446zM65 659q-4 4 -2 8l4 5
q1 1 2.5 2t4.5 -1l124 -101l124 101q3 2 4.5 1t2.5 -2l4 -5q2 -4 -2 -8l-129 -106q-4 -4 -8 0z" />
    <glyph glyph-name="Sacute" unicode="&#x15a;" horiz-adv-x="550" 
d="M69 73q-5 4 0 9l4 4q4 4 9 -1q5 -4 21 -16.5t41.5 -26t60.5 -24t77 -10.5t79 12.5t64.5 35t43.5 53t16 66.5q0 37 -15.5 64t-44 47t-67.5 34.5t-87 27.5q-45 12 -83.5 26.5t-66.5 35.5t-43.5 51t-15.5 74q0 30 12 61.5t38 56.5t67.5 41t100.5 16q38 0 69.5 -8t54.5 -18
q27 -11 49 -25q5 -3 2 -8l-4 -6q-3 -5 -8 -2q-21 13 -47 24q-22 9 -51.5 17t-64.5 8q-54 0 -92 -14.5t-62 -37t-35 -50.5t-11 -55q0 -38 14 -65t40 -46t62 -32.5t80 -25.5q52 -15 94.5 -31.5t71.5 -38.5t45 -51.5t16 -69.5q0 -39 -17 -73t-46.5 -59t-70 -39t-87.5 -14
q-45 0 -82 11.5t-64.5 25.5t-44.5 27.5t-22 18.5zM206 764q-6 -3 -9 3l-2 5q-2 4 3 7l182 91q2 1 4.5 1t4.5 -4l2 -4q3 -6 -3 -9z" />
    <glyph glyph-name="sacute" unicode="&#x15b;" horiz-adv-x="425" 
d="M215 -11q-58 0 -96.5 17.5t-56.5 33.5q-5 5 -2 10l4 5q4 6 10 1q18 -15 52.5 -32t88.5 -17q31 0 58 8.5t47 23.5t31.5 34.5t11.5 41.5q0 25 -12.5 43t-34.5 31t-50.5 23t-61.5 19q-77 21 -113.5 48t-36.5 76q0 20 9.5 40.5t28.5 37.5t48 28t68 11q47 0 80.5 -12t51.5 -23
q2 -2 3 -5t-1 -6l-2 -3q-2 -3 -4 -4t-7 1q-19 11 -49 22.5t-72 11.5q-35 0 -61 -9.5t-42.5 -23.5t-24.5 -32t-8 -34q0 -42 35 -64.5t102 -41.5q35 -10 66 -20.5t54.5 -25t37.5 -36t14 -52.5q0 -27 -13 -50t-35.5 -40t-52.5 -26.5t-65 -9.5zM122 563q-6 -3 -9 3l-2 5
q-2 4 3 7l182 91q2 1 4.5 1t4.5 -4l2 -4q3 -6 -3 -9z" />
    <glyph glyph-name="Scircumflex" unicode="&#x15c;" horiz-adv-x="550" 
d="M69 73q-5 4 0 9l4 4q4 4 9 -1q5 -4 21 -16.5t41.5 -26t60.5 -24t77 -10.5t79 12.5t64.5 35t43.5 53t16 66.5q0 37 -15.5 64t-44 47t-67.5 34.5t-87 27.5q-45 12 -83.5 26.5t-66.5 35.5t-43.5 51t-15.5 74q0 30 12 61.5t38 56.5t67.5 41t100.5 16q38 0 69.5 -8t54.5 -18
q27 -11 49 -25q5 -3 2 -8l-4 -6q-3 -5 -8 -2q-21 13 -47 24q-22 9 -51.5 17t-64.5 8q-54 0 -92 -14.5t-62 -37t-35 -50.5t-11 -55q0 -38 14 -65t40 -46t62 -32.5t80 -25.5q52 -15 94.5 -31.5t71.5 -38.5t45 -51.5t16 -69.5q0 -39 -17 -73t-46.5 -59t-70 -39t-87.5 -14
q-45 0 -82 11.5t-64.5 25.5t-44.5 27.5t-22 18.5zM161 749q-3 -2 -4.5 -1t-2.5 2l-4 5q-2 4 2 8l129 106q4 4 8 0l129 -106q4 -4 2 -8l-4 -5q-1 -1 -2.5 -2t-4.5 1l-124 101z" />
    <glyph glyph-name="scircumflex" unicode="&#x15d;" horiz-adv-x="425" 
d="M215 -11q-58 0 -96.5 17.5t-56.5 33.5q-5 5 -2 10l4 5q4 6 10 1q18 -15 52.5 -32t88.5 -17q31 0 58 8.5t47 23.5t31.5 34.5t11.5 41.5q0 25 -12.5 43t-34.5 31t-50.5 23t-61.5 19q-77 21 -113.5 48t-36.5 76q0 20 9.5 40.5t28.5 37.5t48 28t68 11q47 0 80.5 -12t51.5 -23
q2 -2 3 -5t-1 -6l-2 -3q-2 -3 -4 -4t-7 1q-19 11 -49 22.5t-72 11.5q-35 0 -61 -9.5t-42.5 -23.5t-24.5 -32t-8 -34q0 -42 35 -64.5t102 -41.5q35 -10 66 -20.5t54.5 -25t37.5 -36t14 -52.5q0 -27 -13 -50t-35.5 -40t-52.5 -26.5t-65 -9.5zM84 551q-3 -2 -4.5 -1t-2.5 2
l-4 5q-2 4 2 8l129 106q4 4 8 0l129 -106q4 -4 2 -8l-4 -5q-1 -1 -2.5 -2t-4.5 1l-124 101z" />
    <glyph glyph-name="Scedilla" unicode="&#x15e;" horiz-adv-x="550" 
d="M69 73q-5 4 0 9l4 4q4 4 9 -1q5 -4 21 -16.5t41.5 -26t60.5 -24t77 -10.5q40 0 77 12.5t65 34t44.5 50t16.5 61.5q0 41 -15.5 69.5t-44 49.5t-67.5 35.5t-87 27.5q-45 12 -83.5 26.5t-66.5 35.5t-43.5 51t-15.5 74q0 30 12 61.5t38 56.5t67.5 41t100.5 16q38 0 69.5 -8
t54.5 -18q27 -11 49 -25q5 -3 2 -8l-4 -6q-3 -5 -8 -2q-21 13 -47 24q-22 9 -51.5 17t-64.5 8q-54 0 -92 -14.5t-62 -37t-35 -50.5t-11 -55q0 -38 14 -65t40 -46t62 -32.5t80 -25.5q52 -15 94.5 -31.5t71.5 -39.5t45 -54.5t16 -74.5q0 -35 -17.5 -66.5t-47 -55.5t-68 -38.5
t-81.5 -15.5l-45 -67q13 6 33 6q15 0 30.5 -5t27.5 -14.5t19.5 -25t7.5 -36.5q0 -36 -25.5 -59.5t-65.5 -23.5q-26 0 -45.5 10t-32.5 24q-5 4 0 9l6 5q5 3 9 -1q11 -13 25.5 -21t37.5 -8q33 0 52.5 18t19.5 47q0 31 -19.5 47t-47.5 16q-27 0 -48 -9q-5 -2 -8 3t-1 8l49 78
q-42 2 -76.5 13.5t-60.5 25t-42 26t-20 17.5z" />
    <glyph glyph-name="scedilla" unicode="&#x15f;" horiz-adv-x="425" 
d="M214 -11l-44 -66q13 6 33 6q15 0 30.5 -5t27.5 -14.5t19.5 -25t7.5 -36.5q0 -36 -25.5 -59.5t-65.5 -23.5q-26 0 -45.5 10t-32.5 24q-5 4 0 9l6 5q5 3 9 -1q11 -13 25.5 -21t37.5 -8q33 0 52.5 18t19.5 47q0 31 -19.5 47t-47.5 16q-27 0 -48 -9q-5 -2 -8 3t-1 8l48 77
q-49 4 -82 20t-49 30q-5 5 -2 10l4 5q4 6 10 1q18 -15 52.5 -32t88.5 -17q31 0 58 8.5t47 23.5t31.5 34.5t11.5 41.5q0 25 -12.5 43t-34.5 31t-50.5 23t-61.5 19q-77 21 -113.5 48t-36.5 76q0 19 9.5 39.5t28.5 38t48 28.5t68 11q47 0 80.5 -12t51.5 -23q2 -2 3 -5t-1 -6
l-2 -3q-2 -3 -4 -4t-7 1q-17 10 -48 22t-73 12q-35 0 -61 -9.5t-42.5 -24t-24.5 -32t-8 -33.5q0 -42 35 -64.5t102 -41.5q35 -10 66 -20.5t54.5 -25t37.5 -36t14 -52.5q0 -27 -13 -50t-35.5 -40t-52.5 -26.5t-65 -9.5h-1z" />
    <glyph glyph-name="Scaron" unicode="&#x160;" horiz-adv-x="550" 
d="M69 73q-5 4 0 9l4 4q4 4 9 -1q5 -4 21 -16.5t41.5 -26t60.5 -24t77 -10.5t79 12.5t64.5 35t43.5 53t16 66.5q0 37 -15.5 64t-44 47t-67.5 34.5t-87 27.5q-45 12 -83.5 26.5t-66.5 35.5t-43.5 51t-15.5 74q0 30 12 61.5t38 56.5t67.5 41t100.5 16q38 0 69.5 -8t54.5 -18
q27 -11 49 -25q5 -3 2 -8l-4 -6q-3 -5 -8 -2q-21 13 -47 24q-22 9 -51.5 17t-64.5 8q-54 0 -92 -14.5t-62 -37t-35 -50.5t-11 -55q0 -38 14 -65t40 -46t62 -32.5t80 -25.5q52 -15 94.5 -31.5t71.5 -38.5t45 -51.5t16 -69.5q0 -39 -17 -73t-46.5 -59t-70 -39t-87.5 -14
q-45 0 -82 11.5t-64.5 25.5t-44.5 27.5t-22 18.5zM152 863q-4 4 -2 8l4 5q1 1 2.5 2t4.5 -1l124 -101l124 101q3 2 4.5 1t2.5 -2l4 -5q2 -4 -2 -8l-129 -106q-4 -4 -8 0z" />
    <glyph glyph-name="scaron" unicode="&#x161;" horiz-adv-x="425" 
d="M215 -11q-58 0 -96.5 17.5t-56.5 33.5q-5 5 -2 10l4 5q4 6 10 1q18 -15 52.5 -32t88.5 -17q31 0 58 8.5t47 23.5t31.5 34.5t11.5 41.5q0 25 -12.5 43t-34.5 31t-50.5 23t-61.5 19q-77 21 -113.5 48t-36.5 76q0 20 9.5 40.5t28.5 37.5t48 28t68 11q47 0 80.5 -12t51.5 -23
q2 -2 3 -5t-1 -6l-2 -3q-2 -3 -4 -4t-7 1q-19 11 -49 22.5t-72 11.5q-35 0 -61 -9.5t-42.5 -23.5t-24.5 -32t-8 -34q0 -42 35 -64.5t102 -41.5q35 -10 66 -20.5t54.5 -25t37.5 -36t14 -52.5q0 -27 -13 -50t-35.5 -40t-52.5 -26.5t-65 -9.5zM73 662q-4 4 -2 8l4 5q1 1 2.5 2
t4.5 -1l124 -101l124 101q3 2 4.5 1t2.5 -2l4 -5q2 -4 -2 -8l-129 -106q-4 -4 -8 0z" />
    <glyph glyph-name="uni0162" unicode="&#x162;" horiz-adv-x="498" 
d="M239 682h-208q-7 0 -7 7v4q0 7 7 7h436q7 0 7 -7v-4q0 -7 -7 -7h-210v-671q0 -5 -1.5 -8l-3.5 -7l-48 -73q13 6 33 6q15 0 30.5 -5t27.5 -14.5t19.5 -25t7.5 -36.5q0 -36 -25.5 -59.5t-65.5 -23.5q-26 0 -45.5 10t-32.5 24q-5 4 0 9l6 5q5 3 9 -1q11 -13 25.5 -21
t37.5 -8q33 0 52.5 18t19.5 47q0 31 -19.5 47t-47.5 16q-27 0 -48 -9q-5 -2 -8 3t-1 8l60 91v678z" />
    <glyph glyph-name="uni0163" unicode="&#x163;" horiz-adv-x="345" 
d="M98 444h-49q-7 0 -7 6v5q0 7 7 7h49v125q0 7 6 7h5q7 0 7 -7v-125h190q7 0 7 -7v-5q0 -6 -7 -6h-190v-320q0 -24 2 -45.5t10 -37.5t25.5 -25t47.5 -9q18 0 37.5 4.5t37 10.5t30.5 12.5t19 10.5q4 2 5.5 1t3.5 -3l3 -5q3 -5 -2 -8q-6 -4 -19.5 -11t-32 -13.5t-40 -11.5
t-42.5 -5h-6l-44 -66q13 6 33 6q15 0 30.5 -5t27.5 -14.5t19.5 -25t7.5 -36.5q0 -36 -25.5 -59.5t-65.5 -23.5q-26 0 -45.5 10t-32.5 24q-5 4 0 9l6 5q5 3 9 -1q11 -13 25.5 -21t37.5 -8q33 0 52.5 18t19.5 47q0 31 -19.5 47t-47.5 16q-27 0 -48 -9q-5 -2 -8 3t-1 8l49 78
q-27 3 -42.5 14.5t-23 29t-9.5 40.5t-2 49v320z" />
    <glyph glyph-name="Tcaron" unicode="&#x164;" horiz-adv-x="498" 
d="M239 682h-208q-7 0 -7 7v4q0 7 7 7h436q7 0 7 -7v-4q0 -7 -7 -7h-210v-675q0 -7 -7 -7h-4q-7 0 -7 7v675zM115 877q-4 4 -2 8l4 5q1 1 2.5 2t4.5 -1l124 -101l124 101q3 2 4.5 1t2.5 -2l4 -5q2 -4 -2 -8l-129 -106q-4 -4 -8 0z" />
    <glyph glyph-name="tcaron" unicode="&#x165;" horiz-adv-x="344" 
d="M97 444h-49q-7 0 -7 6v5q0 7 7 7h49v125q0 7 6 7h5q7 0 7 -7v-125h190q7 0 7 -7v-5q0 -6 -7 -6h-190v-320q0 -24 2 -45.5t10 -37.5t25.5 -25t47.5 -9q18 0 37.5 4.5t37 10.5t30.5 12.5t19 10.5q4 2 5.5 1t3.5 -3l3 -5q3 -5 -2 -8q-6 -4 -19.5 -11t-32 -13.5t-40 -11.5
t-42.5 -5q-36 0 -57 10.5t-31 28.5t-12.5 42.5t-2.5 53.5v320zM325 685q0 11 7.5 18t18.5 7q22 0 32 -19t10 -48q0 -27 -10.5 -50t-24.5 -34q-4 -3 -5.5 -2.5t-3.5 2.5l-5 6q-4 5 -2.5 7t4.5 4q11 8 19 25t8 38q0 20 -6 29q-6 -6 -18 -6q-10 0 -17 6.5t-7 16.5z" />
    <glyph glyph-name="Tbar" unicode="&#x166;" horiz-adv-x="500" 
d="M240 312h-147q-7 0 -7 7v4q0 6 7 6h147v353h-208q-7 0 -7 7v4q0 7 7 7h436q7 0 7 -7v-4q0 -7 -7 -7h-210v-353h151q7 0 7 -6v-4q0 -7 -7 -7h-151v-305q0 -7 -7 -7h-4q-7 0 -7 7v305z" />
    <glyph glyph-name="tbar" unicode="&#x167;" horiz-adv-x="344" 
d="M97 444h-49q-5 0 -6 3l-1 1v2v1v4v3q1 4 7 4h49v125q0 7 6 7h5q7 0 7 -7v-125h190h2l2 -1q0 -1 1 -1l1 -1v-1q1 -1 1 -3v-4v-1q0 -1 -1 -2v-1q-2 -3 -5 -3h-1h-190v-197h150q7 0 7 -7v-3q0 -7 -7 -7h-150v-106q0 -24 2 -45.5t10 -37.5t25.5 -25t47.5 -9q18 0 37.5 4.5
t37 10.5t30.5 12.5t19 10.5q4 2 5.5 1t3.5 -3l3 -5q3 -5 -2 -8q-6 -4 -19.5 -11t-32 -13.5t-40 -11.5t-42.5 -5q-36 0 -57 10.5t-31 28.5t-12.5 42.5t-2.5 53.5v106h-33q-7 0 -7 7v3q0 7 7 7h33v197z" />
    <glyph glyph-name="Utilde" unicode="&#x168;" horiz-adv-x="718" 
d="M100 693q0 7 7 7h4q7 0 7 -7v-441q0 -54 16.5 -99t47.5 -77t75.5 -50t100.5 -18t101 18t76.5 50t48 77t16.5 99v441q0 7 7 7h4q7 0 7 -7v-441q0 -58 -18 -106t-52 -82.5t-82 -54t-108 -19.5t-107.5 19.5t-81 54t-51.5 82.5t-18 106v441zM214 804q-6 1 -3 9q2 7 7.5 21
t15.5 28t25.5 24.5t37.5 10.5q17 0 28.5 -6t19 -15.5t12.5 -20t9 -19.5q6 -14 17.5 -30t35.5 -16q17 0 29 9t20 21t12.5 24t6.5 18q2 7 7 5l8 -2q6 -2 3 -9q-2 -7 -7.5 -21t-15.5 -28t-25.5 -24.5t-37.5 -10.5q-17 0 -29 6.5t-20 15.5t-13.5 19.5t-8.5 18.5q-3 6 -6.5 14.5
t-9.5 16t-14.5 12.5t-20.5 5q-17 0 -29 -9t-20 -21t-12.5 -24.5t-6.5 -18.5q-2 -7 -7 -5z" />
    <glyph glyph-name="utilde" unicode="&#x169;" horiz-adv-x="528" 
d="M82 454q0 8 6 8h6q6 0 6 -8v-253q0 -95 39 -144t123 -49q39 0 68 12.5t48.5 28.5t30 31t13.5 19v355q0 8 7 8h5q6 0 6 -8v-446q0 -8 -6 -8h-5q-7 0 -7 8v61q-10 -12 -24.5 -26t-34 -26t-44.5 -20t-57 -8q-94 0 -137 53t-43 159v253zM115 585q-6 1 -3 9q2 7 7.5 21
t15.5 28t25.5 24.5t37.5 10.5q17 0 28.5 -6t19 -15.5t12.5 -20t9 -19.5q6 -14 17.5 -30t35.5 -16q17 0 29 9t20 21t12.5 24t6.5 18q2 7 7 5l8 -2q6 -2 3 -9q-2 -7 -7.5 -21t-15.5 -28t-25.5 -24.5t-37.5 -10.5q-17 0 -29 6.5t-20 15.5t-13.5 19.5t-8.5 18.5q-3 6 -6.5 14.5
t-9.5 16t-14.5 12.5t-20.5 5q-17 0 -29 -9t-20 -21t-12.5 -24.5t-6.5 -18.5q-2 -7 -7 -5z" />
    <glyph glyph-name="Umacron" unicode="&#x16a;" horiz-adv-x="718" 
d="M100 693q0 7 7 7h4q7 0 7 -7v-441q0 -54 16.5 -99t47.5 -77t75.5 -50t100.5 -18t101 18t76.5 50t48 77t16.5 99v441q0 7 7 7h4q7 0 7 -7v-441q0 -58 -18 -106t-52 -82.5t-82 -54t-108 -19.5t-107.5 19.5t-81 54t-51.5 82.5t-18 106v441zM215 842q-7 0 -7 7v4q0 7 7 7h288
q7 0 7 -7v-4q0 -7 -7 -7h-288z" />
    <glyph glyph-name="umacron" unicode="&#x16b;" horiz-adv-x="528" 
d="M82 454q0 8 6 8h6q6 0 6 -8v-253q0 -95 39 -144t123 -49q39 0 68 12.5t48.5 28.5t30 31t13.5 19v355q0 8 7 8h5q6 0 6 -8v-446q0 -8 -6 -8h-5q-7 0 -7 8v61q-10 -12 -24.5 -26t-34 -26t-44.5 -20t-57 -8q-94 0 -137 53t-43 159v253zM115 607q-7 0 -7 7v4q0 7 7 7h288
q7 0 7 -7v-4q0 -7 -7 -7h-288z" />
    <glyph glyph-name="Ubreve" unicode="&#x16c;" horiz-adv-x="718" 
d="M100 693q0 7 7 7h4q7 0 7 -7v-441q0 -54 16.5 -99t47.5 -77t75.5 -50t100.5 -18t101 18t76.5 50t48 77t16.5 99v441q0 7 7 7h4q7 0 7 -7v-441q0 -58 -18 -106t-52 -82.5t-82 -54t-108 -19.5t-107.5 19.5t-81 54t-51.5 82.5t-18 106v441zM359 780q-51 0 -85.5 31t-41.5 77
q-1 2 1.5 4.5t4.5 2.5h7q5 0 5 -6q6 -40 36 -65.5t73 -25.5q42 0 72 25.5t37 65.5q0 6 5 6h7q2 0 4.5 -2.5t1.5 -4.5q-8 -46 -42.5 -77t-84.5 -31z" />
    <glyph glyph-name="ubreve" unicode="&#x16d;" horiz-adv-x="528" 
d="M82 454q0 8 6 8h6q6 0 6 -8v-253q0 -95 39 -144t123 -49q39 0 68 12.5t48.5 28.5t30 31t13.5 19v355q0 8 7 8h5q6 0 6 -8v-446q0 -8 -6 -8h-5q-7 0 -7 8v61q-10 -12 -24.5 -26t-34 -26t-44.5 -20t-57 -8q-94 0 -137 53t-43 159v253zM259 545q-51 0 -85.5 31t-41.5 76
q-1 3 1.5 5.5t4.5 2.5h7q5 0 5 -6q6 -41 36 -66t73 -25q42 0 72 25t37 66q0 6 5 6h7q2 0 4.5 -2.5t1.5 -5.5q-8 -45 -42.5 -76t-84.5 -31z" />
    <glyph glyph-name="Uring" unicode="&#x16e;" horiz-adv-x="718" 
d="M100 693q0 7 7 7h4q7 0 7 -7v-441q0 -54 16.5 -99t47.5 -77t75.5 -50t100.5 -18t101 18t76.5 50t48 77t16.5 99v441q0 7 7 7h4q7 0 7 -7v-441q0 -58 -18 -106t-52 -82.5t-82 -54t-108 -19.5t-107.5 19.5t-81 54t-51.5 82.5t-18 106v441zM360 750q-45 0 -74.5 29.5
t-29.5 74.5q0 44 29.5 74t74.5 30q44 0 74 -30t30 -74q0 -45 -30 -74.5t-74 -29.5zM360 767q18 0 33.5 7t27 18.5t18.5 27.5t7 34t-7 33.5t-18.5 27.5t-27 19t-33.5 7t-33.5 -7t-27.5 -19t-18.5 -27.5t-6.5 -33.5q0 -36 25 -61.5t61 -25.5z" />
    <glyph glyph-name="uring" unicode="&#x16f;" horiz-adv-x="528" 
d="M82 454q0 8 6 8h6q6 0 6 -8v-253q0 -95 39 -144t123 -49q39 0 68 12.5t48.5 28.5t30 31t13.5 19v355q0 8 7 8h5q6 0 6 -8v-446q0 -8 -6 -8h-5q-7 0 -7 8v61q-10 -12 -24.5 -26t-34 -26t-44.5 -20t-57 -8q-94 0 -137 53t-43 159v253zM259 509q-45 0 -74.5 29.5t-29.5 74.5
q0 44 29.5 74t74.5 30q44 0 74 -30t30 -74q0 -45 -30 -74.5t-74 -29.5zM259 526q18 0 33.5 7t27 18.5t18.5 27.5t7 34t-7 33.5t-18.5 27.5t-27 19t-33.5 7t-33.5 -7t-27.5 -19t-18.5 -27.5t-6.5 -33.5q0 -36 25 -61.5t61 -25.5z" />
    <glyph glyph-name="Uhungarumlaut" unicode="&#x170;" horiz-adv-x="718" 
d="M100 693q0 7 7 7h4q7 0 7 -7v-441q0 -54 16.5 -99t47.5 -77t75.5 -50t100.5 -18t101 18t76.5 50t48 77t16.5 99v441q0 7 7 7h4q7 0 7 -7v-441q0 -58 -18 -106t-52 -82.5t-82 -54t-108 -19.5t-107.5 19.5t-81 54t-51.5 82.5t-18 106v441zM440 759q-2 2 -3 3.5t1 5.5
l108 173q4 5 9 2l3 -2q2 -2 3 -3.5t-1 -5.5l-108 -173q-4 -5 -9 -2zM274 759q-2 2 -3 3.5t1 5.5l108 173q4 5 9 2l3 -2q2 -2 3 -3.5t-1 -5.5l-108 -173q-4 -5 -9 -2z" />
    <glyph glyph-name="uhungarumlaut" unicode="&#x171;" horiz-adv-x="528" 
d="M82 454q0 8 6 8h6q6 0 6 -8v-253q0 -95 39 -144t123 -49q39 0 68 12.5t48.5 28.5t30 31t13.5 19v355q0 8 7 8h5q6 0 6 -8v-446q0 -8 -6 -8h-5q-7 0 -7 8v61q-10 -12 -24.5 -26t-34 -26t-44.5 -20t-57 -8q-94 0 -137 53t-43 159v253zM337 515q-2 2 -3 3.5t1 5.5l108 173
q4 5 9 2l3 -2q2 -2 3 -3.5t-1 -5.5l-108 -173q-4 -5 -9 -2zM171 515q-2 2 -3 3.5t1 5.5l108 173q4 5 9 2l3 -2q2 -2 3 -3.5t-1 -5.5l-108 -173q-4 -5 -9 -2z" />
    <glyph glyph-name="Uogonek" unicode="&#x172;" horiz-adv-x="718" 
d="M100 693q0 7 7 7h4q7 0 7 -7v-441q0 -54 16.5 -99t47.5 -77t75.5 -50t100.5 -18t101 18t76.5 50t48 77t16.5 99v441q0 7 7 7h4q7 0 7 -7v-441q0 -99 -50.5 -167t-140.5 -88q-19 -10 -39.5 -23t-37.5 -30t-28 -39.5t-11 -51.5t18 -51t53 -22q25 0 43.5 10.5t24.5 13.5
t8 -2l3 -6q3 -6 -7 -11q-9 -5 -29 -14t-43 -9q-42 0 -65.5 26t-23.5 65q0 25 8 46t21.5 38.5t30 30.5t33.5 24q-7 -1 -14 -1.5t-14 -0.5q-60 0 -107.5 19.5t-81 54t-51.5 82.5t-18 106v441z" />
    <glyph glyph-name="uogonek" unicode="&#x173;" horiz-adv-x="528" 
d="M82 454q0 8 6 8h6q6 0 6 -8v-253q0 -95 39 -144t123 -49q39 0 68 12.5t48.5 28.5t30 31t13.5 19v355q0 8 7 8h5q6 0 6 -8v-443q0 -8 -6 -11q-19 -10 -40.5 -23t-39.5 -30.5t-30 -40.5t-12 -53q0 -29 18 -51t53 -22q25 0 43.5 10.5t24.5 13.5t8 -2l3 -6q3 -6 -7 -11
q-9 -5 -29 -14t-43 -9q-42 0 -65.5 26t-23.5 65q0 32 13 57.5t32 45t41.5 33.5t41.5 24v56q-10 -12 -24.5 -26t-34 -26t-44.5 -20t-57 -8q-94 0 -137 53t-43 159v253z" />
    <glyph glyph-name="Wcircumflex" unicode="&#x174;" horiz-adv-x="868" 
d="M29 693q-2 4 3 6l8 3q4 1 6 -3l194 -668l184 677q2 5 7 5t7 -5l193 -676l187 667q1 4 6 3l8 -3q4 -2 3 -6l-197 -705q-2 -5 -7 -5t-7 5l-193 676l-184 -676q-2 -5 -7 -5t-7 5zM307 763q-3 -2 -4.5 -1t-2.5 2l-4 5q-2 4 2 8l129 106q4 4 8 0l129 -106q4 -4 2 -8l-4 -5
q-1 -1 -2.5 -2t-4.5 1l-124 101z" />
    <glyph glyph-name="wcircumflex" unicode="&#x175;" horiz-adv-x="680" 
d="M32 458q-2 6 3 8l5 2q7 4 9 -4l145 -440l138 450q2 5 8 5t8 -5l137 -450l146 438q1 3 3 5.5t6 0.5l5 -2q5 -1 3 -8l-154 -467q-2 -7 -8 -7t-8 7l-138 447l-137 -447q-2 -7 -8 -7t-8 7zM216 548q-3 -2 -4.5 -1t-2.5 2l-4 5q-2 4 2 8l129 106q4 4 8 0l129 -106q4 -4 2 -8
l-4 -5q-1 -1 -2.5 -2t-4.5 1l-124 101z" />
    <glyph glyph-name="Ycircumflex" unicode="&#x176;" horiz-adv-x="552" 
d="M267 343l-264 345q-4 5 1 9l6 4q3 2 4.5 0.5l3.5 -3.5l258 -339l258 339q4 6 8 3l6 -4q5 -4 1 -9l-264 -344v-337q0 -7 -7 -7h-4q-7 0 -7 7v336zM152 763q-3 -2 -4.5 -1t-2.5 2l-4 5q-2 4 2 8l129 106q4 4 8 0l129 -106q4 -4 2 -8l-4 -5q-1 -1 -2.5 -2t-4.5 1l-124 101z
" />
    <glyph glyph-name="ycircumflex" unicode="&#x177;" horiz-adv-x="470" 
d="M22 457q-3 5 1 8l6 3q6 3 8 -4l200 -438l195 438q2 7 8 4l6 -3q4 -3 1 -8l-310 -695q-4 -9 -10 -5l-4 2q-6 3 -2 10l106 239zM113 548q-3 -2 -4.5 -1t-2.5 2l-4 5q-2 4 2 8l129 106q4 4 8 0l129 -106q4 -4 2 -8l-4 -5q-1 -1 -2.5 -2t-4.5 1l-124 101z" />
    <glyph glyph-name="Ydieresis" unicode="&#x178;" horiz-adv-x="552" 
d="M267 343l-264 345q-4 5 1 9l6 4q3 2 4.5 0.5l3.5 -3.5l258 -339l258 339q4 6 8 3l6 -4q5 -4 1 -9l-264 -344v-337q0 -7 -7 -7h-4q-7 0 -7 7v336zM381 808q-23 0 -23 22q0 23 23 23t23 -23q0 -22 -23 -22zM174 808q-23 0 -23 22q0 23 23 23t23 -23q0 -22 -23 -22z" />
    <glyph glyph-name="Zacute" unicode="&#x179;" horiz-adv-x="515" 
d="M462 682h-399q-7 0 -7 7v4q0 7 7 7h419q5 0 6.5 -3.5t-0.5 -7.5l-439 -671h411q7 0 7 -7v-4q0 -7 -7 -7h-431q-5 0 -6.5 3.5t0.5 7.5zM194 778q-6 -3 -9 3l-2 5q-2 4 3 7l182 91q2 1 4.5 1t4.5 -4l2 -4q3 -6 -3 -9z" />
    <glyph glyph-name="zacute" unicode="&#x17a;" horiz-adv-x="420" 
d="M356 444h-288q-7 0 -7 6v5q0 7 7 7h308q6 0 8.5 -4t-0.5 -9l-329 -431h309q8 0 8 -7v-4q0 -7 -8 -7h-328q-5 0 -8 4t1 9zM128 560q-6 -3 -9 3l-2 5q-2 4 3 7l182 91q2 1 4.5 1t4.5 -4l2 -4q3 -6 -3 -9z" />
    <glyph glyph-name="Zdotaccent" unicode="&#x17b;" horiz-adv-x="515" 
d="M462 682h-399q-7 0 -7 7v4q0 7 7 7h419q5 0 6.5 -3.5t-0.5 -7.5l-439 -671h411q7 0 7 -7v-4q0 -7 -7 -7h-431q-5 0 -6.5 3.5t0.5 7.5zM273 819q-11 0 -17 7t-6 16q0 10 6 17.5t17 7.5q10 0 16.5 -7.5t6.5 -17.5q0 -9 -6.5 -16t-16.5 -7z" />
    <glyph glyph-name="zdotaccent" unicode="&#x17c;" horiz-adv-x="420" 
d="M356 444h-288q-7 0 -7 6v5q0 7 7 7h308q6 0 8.5 -4t-0.5 -9l-329 -431h309q8 0 8 -7v-4q0 -7 -8 -7h-328q-5 0 -8 4t1 9zM213 605q-11 0 -17 7t-6 16q0 10 6 17.5t17 7.5q10 0 16.5 -7.5t6.5 -17.5q0 -9 -6.5 -16t-16.5 -7z" />
    <glyph glyph-name="Zcaron" unicode="&#x17d;" horiz-adv-x="515" 
d="M462 682h-399q-7 0 -7 7v4q0 7 7 7h419q5 0 6.5 -3.5t-0.5 -7.5l-439 -671h411q7 0 7 -7v-4q0 -7 -7 -7h-431q-5 0 -6.5 3.5t0.5 7.5zM140 877q-4 4 -2 8l4 5q1 1 2.5 2t4.5 -1l124 -101l124 101q3 2 4.5 1t2.5 -2l4 -5q2 -4 -2 -8l-129 -106q-4 -4 -8 0z" />
    <glyph glyph-name="zcaron" unicode="&#x17e;" horiz-adv-x="420" 
d="M356 444h-288q-7 0 -7 6v5q0 7 7 7h308q6 0 8.5 -4t-0.5 -9l-329 -431h309q8 0 8 -7v-4q0 -7 -8 -7h-328q-5 0 -8 4t1 9zM76 659q-4 4 -2 8l4 5q1 1 2.5 2t4.5 -1l124 -101l124 101q3 2 4.5 1t2.5 -2l4 -5q2 -4 -2 -8l-129 -106q-4 -4 -8 0z" />
    <glyph glyph-name="florin" unicode="&#x192;" horiz-adv-x="380" 
d="M144 382h-110q-7 0 -7 7v4q0 7 7 7h110v134q0 90 41 133t108 43q42 0 71 -14.5t43 -28.5q5 -5 0 -10l-3 -3q-5 -5 -10 0q-13 12 -38 25t-63 13q-60 0 -95.5 -38.5t-35.5 -119.5v-134h181q7 0 7 -7v-4q0 -7 -7 -7h-181v-455q0 -90 -41 -133t-108 -43q-42 0 -71 14.5
t-43 28.5q-5 5 0 10l3 3q5 5 10 0q13 -12 38 -25t63 -13q60 0 95.5 38.5t35.5 119.5v455z" />
    <glyph glyph-name="Aringacute" unicode="&#x1fa;" horiz-adv-x="635" 
d="M238 919q-6 -3 -9 3l-2 5q-2 4 3 7l182 91q2 1 4.5 1t4.5 -4l2 -4q3 -6 -3 -9zM309 708q-41 4 -67.5 33t-26.5 71q0 44 29.5 74t74.5 30q44 0 74 -30t30 -74q0 -42 -27 -71t-68 -33l299 -701q1 -5 -3 -6l-9 -3q-3 -1 -5 3l-89 209h-409l-90 -209q-2 -4 -5 -3l-9 3
q-5 1 -3 6zM319 724q18 0 33.5 7t27.5 19t19 28t7 34t-7 34t-19 28t-27.5 19t-33.5 7t-34 -7t-27.5 -19t-18.5 -28t-7 -34q0 -36 25.5 -62t61.5 -26zM513 227l-194 458l-199 -458h393z" />
    <glyph glyph-name="aringacute" unicode="&#x1fb;" horiz-adv-x="487" 
d="M240 508q-45 0 -74.5 23t-29.5 68q0 44 29.5 67.5t74.5 23.5q44 0 74 -23.5t30 -67.5q0 -45 -30 -68t-74 -23zM240 524q35 0 61 19.5t26 55.5q0 35 -26 55t-61 20q-36 0 -61.5 -20t-25.5 -55q0 -36 25.5 -55.5t61.5 -19.5zM152 703q-6 -3 -9 3l-2 5q-2 4 3 7l182 71
q2 1 4.5 1t4.5 -4l2 -4q3 -6 -3 -9zM44 144q0 34 14.5 63t41 50t63.5 33t83 12q43 0 81.5 -9t57.5 -17v43q0 69 -28.5 102t-101.5 33q-33 0 -58.5 -4.5t-42.5 -10.5t-27.5 -11.5t-13.5 -7.5q-8 -4 -11 2l-2 4q-2 5 -1 7t3 3q3 2 14.5 8t30.5 12t46 11t62 5q42 0 70.5 -9
t46 -28t24.5 -48t7 -68v-311q0 -8 -7 -8h-4q-7 0 -7 8v52q-14 -12 -33 -24.5t-42.5 -23t-50.5 -17t-55 -6.5q-34 0 -63 10.5t-50.5 30.5t-34 49t-12.5 65zM62 144q0 -32 11 -57.5t30.5 -43t45 -27t55.5 -9.5q31 0 60 8.5t53 20.5t41.5 25.5t26.5 24.5v171q-6 2 -20 6.5
t-32.5 9t-41 8t-45.5 3.5q-41 0 -75 -10.5t-58 -29.5t-37.5 -44.5t-13.5 -55.5z" />
    <glyph glyph-name="AEacute" unicode="&#x1fc;" horiz-adv-x="916" 
d="M-7 2l-3 3t1 5l445 682q3 5 6 6.5t11 1.5h398q7 0 7 -7v-4q0 -7 -7 -7h-396v-309h348q7 0 7 -7v-4q0 -7 -7 -7h-348v-337h396q7 0 7 -7v-4q0 -7 -7 -7h-406q-7 0 -7 7v203h-295l-137 -210q-3 -4 -8 -1zM438 227v435l-285 -435h285zM547 779q-6 -3 -9 3l-2 5q-2 4 3 7
l182 91q2 1 4.5 1t4.5 -4l2 -4q3 -6 -3 -9z" />
    <glyph glyph-name="aeacute" unicode="&#x1fd;" horiz-adv-x="824" 
d="M44 146q0 33 14.5 61.5t41 49.5t63.5 33t83 12q43 0 82.5 -9t58.5 -17v43q0 69 -28.5 102t-102.5 33q-30 0 -54.5 -4.5t-42 -10.5t-29 -12t-16.5 -8q-7 -3 -11 2l-3 6q-2 7 2 9q17 10 41 18q20 7 48.5 12.5t64.5 5.5q57 0 90.5 -18t47.5 -55q31 35 76 54t96 19
q47 0 85.5 -15.5t66.5 -43t43 -66.5t15 -85q0 -6 -1 -17.5t-3 -16.5t-8 -5h-358v-140q33 -42 74 -59t88 -17q54 0 95.5 17.5t61.5 33.5q3 2 5.5 1.5t3.5 -2.5l4 -7q3 -4 -3 -8q-26 -17 -68 -35t-99 -18q-55 0 -99 20.5t-73 55.5q-12 -12 -31.5 -25.5t-44.5 -25t-55 -18.5
t-61 -7q-34 0 -63 10.5t-50.5 30.5t-34 49t-12.5 67zM756 241q1 6 1 11.5v9.5q0 42 -14 77.5t-39.5 61t-60.5 39.5t-77 14q-52 0 -95.5 -21t-68.5 -58q2 -12 3 -26.5t1 -29.5v-78h350zM62 146q0 -33 11 -59t30.5 -43.5t45 -27t55.5 -9.5q31 0 60 7.5t53.5 19t42.5 25
t27 24.5v174q-6 2 -20 6.5t-33 9t-41.5 8t-46.5 3.5q-41 0 -75 -10.5t-58 -29.5t-37.5 -44t-13.5 -54zM344 560q-6 -3 -9 3l-2 5q-2 4 3 7l182 91q2 1 4.5 1t4.5 -4l2 -4q3 -6 -3 -9z" />
    <glyph glyph-name="Oslashacute" unicode="&#x1fe;" horiz-adv-x="844" 
d="M86 34q-5 5 0 10l66 64q-42 48 -66.5 109.5t-24.5 131.5q0 75 28 141t77 115t115 77t141 28t140.5 -27.5t114.5 -76.5l68 65q4 5 9 0l3 -3q5 -5 0 -10l-68 -65q44 -49 69.5 -111t25.5 -133q0 -75 -28.5 -140.5t-77.5 -114t-115 -76.5t-141 -28q-77 0 -142.5 27t-115.5 77
l-66 -63q-4 -5 -9 0zM664 594q-48 46 -109.5 72t-132.5 26q-72 0 -134.5 -26.5t-109 -73t-73 -109t-26.5 -134.5q0 -67 22.5 -125.5t63.5 -103.5zM178 107q47 -48 109.5 -73.5t134.5 -25.5t134.5 26.5t109 72.5t73.5 108t27 134q0 67 -23.5 126.5t-65.5 105.5zM342 778
q-6 -3 -9 3l-2 5q-2 4 3 7l182 91q2 1 4.5 1t4.5 -4l2 -4q3 -6 -3 -9z" />
    <glyph glyph-name="oslashacute" unicode="&#x1ff;" horiz-adv-x="577" 
d="M55 232q0 50 18 94t49.5 76.5t74 51t91.5 18.5q54 0 99.5 -22t77.5 -60l16 14q4 4 10 -1l3 -3q6 -6 0 -11l-17 -15q21 -29 33 -65.5t12 -76.5q0 -51 -18 -95.5t-49.5 -77t-74.5 -51.5t-92 -19q-51 0 -93.5 19t-74.5 53l-19 -17q-5 -5 -10 0l-3 3q-6 5 0 11l20 18
q-26 32 -39.5 71.5t-13.5 84.5zM73 232q0 -42 13 -78.5t36 -65.5l329 290q-29 35 -71 55.5t-92 20.5q-45 0 -84 -17.5t-68.5 -47.5t-46 -70.5t-16.5 -86.5zM504 232q0 37 -10.5 70t-30.5 60l-329 -289q29 -31 68.5 -48.5t85.5 -17.5q45 0 84.5 17.5t69 48t46 71.5t16.5 88z
M202 560q-6 -3 -9 3l-2 5q-2 4 3 7l182 91q2 1 4.5 1t4.5 -4l2 -4q3 -6 -3 -9z" />
    <glyph glyph-name="uni0218" unicode="&#x218;" horiz-adv-x="550" 
d="M69 73q-5 4 0 9l4 4q4 4 9 -1q5 -4 21 -16.5t41.5 -26t60.5 -24t77 -10.5t79 12.5t64.5 35t43.5 53t16 66.5q0 37 -15.5 64t-44 47t-67.5 34.5t-87 27.5q-45 12 -83.5 26.5t-66.5 35.5t-43.5 51t-15.5 74q0 30 12 61.5t38 56.5t67.5 41t100.5 16q38 0 69.5 -8t54.5 -18
q27 -11 49 -25q5 -3 2 -8l-4 -6q-3 -5 -8 -2q-21 13 -47 24q-22 9 -51.5 17t-64.5 8q-54 0 -92 -14.5t-62 -37t-35 -50.5t-11 -55q0 -38 14 -65t40 -46t62 -32.5t80 -25.5q52 -15 94.5 -31.5t71.5 -38.5t45 -51.5t16 -69.5q0 -39 -17 -73t-46.5 -59t-70 -39t-87.5 -14
q-45 0 -82 11.5t-64.5 25.5t-44.5 27.5t-22 18.5zM249 -122q0 11 7.5 18t18.5 7q22 0 32 -19t10 -48q0 -27 -10.5 -50t-24.5 -34q-4 -3 -5.5 -2.5t-3.5 2.5l-5 6q-4 5 -2.5 7t4.5 4q11 8 19 25t8 38q0 20 -6 29q-6 -6 -18 -6q-10 0 -17 6.5t-7 16.5z" />
    <glyph glyph-name="uni0219" unicode="&#x219;" horiz-adv-x="425" 
d="M215 -11q-58 0 -96.5 17.5t-56.5 33.5q-5 5 -2 10l4 5q4 6 10 1q18 -15 52.5 -32t88.5 -17q31 0 58 8.5t47 23.5t31.5 34.5t11.5 41.5q0 25 -12.5 43t-34.5 31t-50.5 23t-61.5 19q-77 21 -113.5 48t-36.5 76q0 20 9.5 40.5t28.5 37.5t48 28t68 11q47 0 80.5 -12t51.5 -23
q2 -2 3 -5t-1 -6l-2 -3q-2 -3 -4 -4t-7 1q-19 11 -49 22.5t-72 11.5q-35 0 -61 -9.5t-42.5 -23.5t-24.5 -32t-8 -34q0 -42 35 -64.5t102 -41.5q35 -10 66 -20.5t54.5 -25t37.5 -36t14 -52.5q0 -27 -13 -50t-35.5 -40t-52.5 -26.5t-65 -9.5zM182 -105q0 11 7.5 18t18.5 7
q22 0 32 -19t10 -48q0 -27 -10.5 -50t-24.5 -34q-4 -3 -5.5 -2.5t-3.5 2.5l-5 6q-4 5 -2.5 7t4.5 4q11 8 19 25t8 38q0 20 -6 29q-6 -6 -18 -6q-10 0 -17 6.5t-7 16.5z" />
    <glyph glyph-name="uni021A" unicode="&#x21a;" horiz-adv-x="498" 
d="M239 682h-208q-7 0 -7 7v4q0 7 7 7h436q7 0 7 -7v-4q0 -7 -7 -7h-210v-675q0 -7 -7 -7h-4q-7 0 -7 7v675zM211 -108q0 11 7.5 18t18.5 7q22 0 32 -19t10 -48q0 -27 -10.5 -50t-24.5 -34q-4 -3 -5.5 -2.5t-3.5 2.5l-5 6q-4 5 -2.5 7t4.5 4q11 8 19 25t8 38q0 20 -6 29
q-6 -6 -18 -6q-10 0 -17 6.5t-7 16.5z" />
    <glyph glyph-name="uni021B" unicode="&#x21b;" horiz-adv-x="344" 
d="M97 444h-49q-7 0 -7 6v5q0 7 7 7h49v125q0 7 6 7h5q7 0 7 -7v-125h190q7 0 7 -7v-5q0 -6 -7 -6h-190v-320q0 -24 2 -45.5t10 -37.5t25.5 -25t47.5 -9q18 0 37.5 4.5t37 10.5t30.5 12.5t19 10.5q4 2 5.5 1t3.5 -3l3 -5q3 -5 -2 -8q-6 -4 -19.5 -11t-32 -13.5t-40 -11.5
t-42.5 -5q-36 0 -57 10.5t-31 28.5t-12.5 42.5t-2.5 53.5v320zM161 -108q0 11 7.5 18t18.5 7q22 0 32 -19t10 -48q0 -27 -10.5 -50t-24.5 -34q-4 -3 -5.5 -2.5t-3.5 2.5l-5 6q-4 5 -2.5 7t4.5 4q11 8 19 25t8 38q0 20 -6 29q-6 -6 -18 -6q-10 0 -17 6.5t-7 16.5z" />
    <glyph glyph-name="uni0237" unicode="&#x237;" horiz-adv-x="194" 
d="M106 -65q0 -84 -31.5 -127t-98.5 -57q-10 -2 -11 5l-1 4q-1 6 7 8q30 7 52 19.5t36.5 32t21.5 48t7 67.5v519q0 8 7 8h4q7 0 7 -8v-519z" />
    <glyph glyph-name="circumflex" unicode="&#x2c6;" horiz-adv-x="373" 
d="M62 548q-3 -2 -4.5 -1t-2.5 2l-4 5q-2 4 2 8l129 106q4 4 8 0l129 -106q4 -4 2 -8l-4 -5q-1 -1 -2.5 -2t-4.5 1l-124 101z" />
    <glyph glyph-name="caron" unicode="&#x2c7;" horiz-adv-x="373" 
d="M53 659q-4 4 -2 8l4 5q1 1 2.5 2t4.5 -1l124 -101l124 101q3 2 4.5 1t2.5 -2l4 -5q2 -4 -2 -8l-129 -106q-4 -4 -8 0z" />
    <glyph glyph-name="uni02C9" unicode="&#x2c9;" horiz-adv-x="414" 
d="M63 607q-7 0 -7 7v4q0 7 7 7h288q7 0 7 -7v-4q0 -7 -7 -7h-288z" />
    <glyph glyph-name="breve" unicode="&#x2d8;" horiz-adv-x="346" 
d="M173 545q-51 0 -85.5 31t-41.5 76q-1 3 1.5 5.5t4.5 2.5h7q5 0 5 -6q6 -41 36 -66t73 -25q42 0 72 25t37 66q0 6 5 6h7q2 0 4.5 -2.5t1.5 -5.5q-8 -45 -42.5 -76t-84.5 -31z" />
    <glyph glyph-name="dotaccent" unicode="&#x2d9;" horiz-adv-x="219" 
d="M108 594q-11 0 -17 7t-6 16q0 10 6 17.5t17 7.5q10 0 16.5 -7.5t6.5 -17.5q0 -9 -6.5 -16t-16.5 -7z" />
    <glyph glyph-name="ring" unicode="&#x2da;" horiz-adv-x="290" 
d="M145 500q-45 0 -74.5 29.5t-29.5 74.5q0 44 29.5 74t74.5 30q44 0 74 -30t30 -74q0 -45 -30 -74.5t-74 -29.5zM145 517q18 0 33.5 7t27 18.5t18.5 27.5t7 34t-7 33.5t-18.5 27.5t-27 19t-33.5 7t-33.5 -7t-27.5 -19t-18.5 -27.5t-6.5 -33.5q0 -36 25 -61.5t61 -25.5z" />
    <glyph glyph-name="ogonek" unicode="&#x2db;" horiz-adv-x="276" 
d="M179 3q-19 -10 -41 -23t-41 -31t-32 -41.5t-13 -54.5q0 -29 18 -51t53 -22q25 0 43.5 10.5t24.5 13.5t8 -2l3 -6q3 -6 -7 -11q-9 -5 -29 -14t-43 -9q-42 0 -65.5 26t-23.5 65q0 34 14 60t34.5 46t44 34t42.5 24z" />
    <glyph glyph-name="tilde" unicode="&#x2dc;" horiz-adv-x="380" 
d="M36 585q-6 1 -3 9q2 7 7.5 21t15.5 28t25.5 24.5t37.5 10.5q17 0 28.5 -6t19 -15.5t12.5 -20t9 -19.5q6 -14 17.5 -30t35.5 -16q17 0 29 9t20 21t12.5 24t6.5 18q2 7 7 5l8 -2q6 -2 3 -9q-2 -7 -7.5 -21t-15.5 -28t-25.5 -24.5t-37.5 -10.5q-17 0 -29 6.5t-20 15.5
t-13.5 19.5t-8.5 18.5q-3 6 -6.5 14.5t-9.5 16t-14.5 12.5t-20.5 5q-17 0 -29 -9t-20 -21t-12.5 -24.5t-6.5 -18.5q-2 -7 -7 -5z" />
    <glyph glyph-name="hungarumlaut" unicode="&#x2dd;" horiz-adv-x="392" 
d="M231 515q-2 2 -3 3.5t1 5.5l108 173q4 5 9 2l3 -2q2 -2 3 -3.5t-1 -5.5l-108 -173q-4 -5 -9 -2zM65 515q-2 2 -3 3.5t1 5.5l108 173q4 5 9 2l3 -2q2 -2 3 -3.5t-1 -5.5l-108 -173q-4 -5 -9 -2z" />
    <glyph glyph-name="uni0394" unicode="&#x394;" horiz-adv-x="687" 
d="M340 717q2 4 5 4h2q3 0 5 -4l298 -700q5 -13 -1.5 -15t-11.5 -2h-588q-5 0 -11.5 2t0.5 17zM630 18l-284 667l-291 -667h575z" />
    <glyph glyph-name="uni03A9" unicode="&#x3a9;" horiz-adv-x="848" 
d="M91 11q0 7 7 7h186q-49 20 -90 53t-70 76t-45.5 94t-16.5 108q0 75 28 141t77 115t115 77t141 28t141 -28t115 -77t77.5 -115t28.5 -141q0 -56 -16 -107t-45 -94t-69 -76t-88 -54h185q7 0 7 -7v-4q0 -7 -7 -7h-238q-7 0 -7 7v4q0 7 7 7q55 15 101 46t80 74.5t53 97
t19 113.5q0 72 -27 134.5t-73.5 109t-109 73t-134.5 26.5t-134.5 -26.5t-109 -73t-73 -109t-26.5 -134.5q0 -60 19 -114.5t53 -98t81 -74t103 -44.5q7 0 7 -7v-4q0 -7 -7 -7h-238q-7 0 -7 7v4z" />
    <glyph glyph-name="uni03BC" unicode="&#x3bc;" horiz-adv-x="525" 
d="M96 454q0 8 6 8h6q6 0 6 -8v-253q0 -95 39 -144t123 -49q39 0 68 12.5t48.5 28.5t30 31t13.5 19v355q0 8 7 8h5q6 0 6 -8v-446q0 -8 -6 -8h-5q-7 0 -7 8v61q-10 -12 -24.5 -26t-34 -26t-44.5 -20t-57 -8q-125 0 -162 97v-316q0 -8 -7 -8h-4q-7 0 -7 8v420v11v253z" />
    <glyph glyph-name="pi" unicode="&#x3c0;" horiz-adv-x="634" 
d="M153 444h-126q-8 0 -8 7v5q0 6 8 6h580q8 0 8 -6v-5q0 -7 -8 -7h-127v-436q0 -8 -8 -8h-3q-7 0 -7 8v436h-291v-436q0 -8 -7 -8h-5q-6 0 -6 8v436z" />
    <glyph glyph-name="Wgrave" unicode="&#x1e80;" horiz-adv-x="868" 
d="M29 693q-2 4 3 6l8 3q4 1 6 -3l194 -668l184 677q2 5 7 5t7 -5l193 -676l187 667q1 4 6 3l8 -3q4 -2 3 -6l-197 -705q-2 -5 -7 -5t-7 5l-193 676l-184 -676q-2 -5 -7 -5t-7 5zM337 868q-6 3 -3 9l2 4q2 4 4.5 4t4.5 -1l182 -91q5 -3 3 -7l-2 -5q-3 -6 -9 -3z" />
    <glyph glyph-name="wgrave" unicode="&#x1e81;" horiz-adv-x="680" 
d="M32 458q-2 6 3 8l5 2q7 4 9 -4l145 -440l138 450q2 5 8 5t8 -5l137 -450l146 438q1 3 3 5.5t6 0.5l5 -2q5 -1 3 -8l-154 -467q-2 -7 -8 -7t-8 7l-138 447l-137 -447q-2 -7 -8 -7t-8 7zM246 650q-6 3 -3 9l2 4q2 4 4.5 4t4.5 -1l182 -91q5 -3 3 -7l-2 -5q-3 -6 -9 -3z" />
    <glyph glyph-name="Wacute" unicode="&#x1e82;" horiz-adv-x="868" 
d="M29 693q-2 4 3 6l8 3q4 1 6 -3l194 -668l184 677q2 5 7 5t7 -5l193 -676l187 667q1 4 6 3l8 -3q4 -2 3 -6l-197 -705q-2 -5 -7 -5t-7 5l-193 676l-184 -676q-2 -5 -7 -5t-7 5zM343 778q-6 -3 -9 3l-2 5q-2 4 3 7l182 91q2 1 4.5 1t4.5 -4l2 -4q3 -6 -3 -9z" />
    <glyph glyph-name="wacute" unicode="&#x1e83;" horiz-adv-x="680" 
d="M32 458q-2 6 3 8l5 2q7 4 9 -4l145 -440l138 450q2 5 8 5t8 -5l137 -450l146 438q1 3 3 5.5t6 0.5l5 -2q5 -1 3 -8l-154 -467q-2 -7 -8 -7t-8 7l-138 447l-137 -447q-2 -7 -8 -7t-8 7zM253 560q-6 -3 -9 3l-2 5q-2 4 3 7l182 91q2 1 4.5 1t4.5 -4l2 -4q3 -6 -3 -9z" />
    <glyph glyph-name="Wdieresis" unicode="&#x1e84;" horiz-adv-x="868" 
d="M29 693q-2 4 3 6l8 3q4 1 6 -3l194 -668l184 677q2 5 7 5t7 -5l193 -676l187 667q1 4 6 3l8 -3q4 -2 3 -6l-197 -705q-2 -5 -7 -5t-7 5l-193 676l-184 -676q-2 -5 -7 -5t-7 5zM535 808q-23 0 -23 22q0 23 23 23t23 -23q0 -22 -23 -22zM328 808q-23 0 -23 22q0 23 23 23
t23 -23q0 -22 -23 -22z" />
    <glyph glyph-name="wdieresis" unicode="&#x1e85;" horiz-adv-x="680" 
d="M32 458q-2 6 3 8l5 2q7 4 9 -4l145 -440l138 450q2 5 8 5t8 -5l137 -450l146 438q1 3 3 5.5t6 0.5l5 -2q5 -1 3 -8l-154 -467q-2 -7 -8 -7t-8 7l-138 447l-137 -447q-2 -7 -8 -7t-8 7zM435 605q-22 0 -22 22q0 23 22 23q23 0 23 -23q0 -22 -23 -22zM246 605q-23 0 -23 22
q0 23 23 23q22 0 22 -23q0 -22 -22 -22z" />
    <glyph glyph-name="Ygrave" unicode="&#x1ef2;" horiz-adv-x="552" 
d="M267 343l-264 345q-4 5 1 9l6 4q3 2 4.5 0.5l3.5 -3.5l258 -339l258 339q4 6 8 3l6 -4q5 -4 1 -9l-264 -344v-337q0 -7 -7 -7h-4q-7 0 -7 7v336zM183 868q-6 3 -3 9l2 4q2 4 4.5 4t4.5 -1l182 -91q5 -3 3 -7l-2 -5q-3 -6 -9 -3z" />
    <glyph glyph-name="ygrave" unicode="&#x1ef3;" horiz-adv-x="470" 
d="M22 457q-3 5 1 8l6 3q6 3 8 -4l200 -438l195 438q2 7 8 4l6 -3q4 -3 1 -8l-310 -695q-4 -9 -10 -5l-4 2q-6 3 -2 10l106 239zM143 650q-6 3 -3 9l2 4q2 4 4.5 4t4.5 -1l182 -91q5 -3 3 -7l-2 -5q-3 -6 -9 -3z" />
    <glyph glyph-name="endash" unicode="&#x2013;" horiz-adv-x="563" 
d="M82 243q-7 0 -7 7v4q0 7 7 7h399q7 0 7 -7v-4q0 -7 -7 -7h-399v0z" />
    <glyph glyph-name="emdash" unicode="&#x2014;" horiz-adv-x="779" 
d="M82 243q-7 0 -7 7v4q0 7 7 7h615q7 0 7 -7v-4q0 -7 -7 -7h-615z" />
    <glyph glyph-name="quoteleft" unicode="&#x2018;" horiz-adv-x="196" 
d="M135 530q0 -11 -7.5 -18t-18.5 -7q-12 0 -21.5 8t-15.5 21t-9 28.5t-3 29.5q0 41 16 68.5t39 45.5q7 6 10 0l4 -6q3 -5 2 -7t-4 -4q-20 -15 -33.5 -38.5t-13.5 -54.5q0 -36 11 -53q4 5 8 7.5t12 2.5q10 0 17 -6.5t7 -16.5z" />
    <glyph glyph-name="quoteright" unicode="&#x2019;" horiz-adv-x="194" 
d="M62 685q0 11 7.5 18t18.5 7q12 0 21.5 -8.5t15.5 -21t9 -28t3 -29.5q0 -41 -16 -68.5t-39 -45.5q-7 -6 -10 0l-4 6q-3 5 -2 7t4 4q20 15 33.5 38.5t13.5 54.5q0 36 -11 53q-4 -5 -8 -7.5t-12 -2.5q-10 0 -17 6.5t-7 16.5z" />
    <glyph glyph-name="quotesinglbase" unicode="&#x201a;" horiz-adv-x="186" 
d="M63 13q0 11 7.5 18t18.5 7q12 0 21.5 -8.5t15.5 -21t9 -28t3 -29.5q0 -41 -16 -68.5t-39 -45.5q-7 -6 -10 0l-4 6q-3 5 -2 7t4 4q20 15 33.5 38.5t13.5 54.5q0 36 -11 53q-4 -5 -8 -7.5t-12 -2.5q-10 0 -17 6.5t-7 16.5z" />
    <glyph glyph-name="quotedblleft" unicode="&#x201c;" horiz-adv-x="374" 
d="M135 530q0 -11 -7.5 -18t-18.5 -7q-12 0 -21.5 8t-15.5 21t-9 28.5t-3 29.5q0 41 16 68.5t39 45.5q7 6 10 0l4 -6q3 -5 2 -7t-4 -4q-20 -15 -33.5 -38.5t-13.5 -54.5q0 -36 11 -53q4 5 8 7.5t12 2.5q10 0 17 -6.5t7 -16.5zM313 530q0 -11 -7.5 -18t-18.5 -7
q-12 0 -21.5 8t-15.5 21t-9 28.5t-3 29.5q0 41 16 68.5t39 45.5q7 6 10 0l4 -6q3 -5 2 -7t-4 -4q-20 -15 -33.5 -38.5t-13.5 -54.5q0 -36 11 -53q4 5 8 7.5t12 2.5q10 0 17 -6.5t7 -16.5z" />
    <glyph glyph-name="quotedblright" unicode="&#x201d;" horiz-adv-x="372" 
d="M62 685q0 11 7.5 18t18.5 7q12 0 21.5 -8.5t15.5 -21t9 -28t3 -29.5q0 -41 -16 -68.5t-39 -45.5q-7 -6 -10 0l-4 6q-3 5 -2 7t4 4q20 15 33.5 38.5t13.5 54.5q0 36 -11 53q-4 -5 -8 -7.5t-12 -2.5q-10 0 -17 6.5t-7 16.5zM240 685q0 11 7.5 18t18.5 7q12 0 21.5 -8.5
t15.5 -21t9 -28t3 -29.5q0 -41 -16 -68.5t-39 -45.5q-7 -6 -10 0l-4 6q-3 5 -2 7t4 4q20 15 33.5 38.5t13.5 54.5q0 36 -11 53q-4 -5 -8 -7.5t-12 -2.5q-10 0 -17 6.5t-7 16.5z" />
    <glyph glyph-name="quotedblbase" unicode="&#x201e;" horiz-adv-x="364" 
d="M63 13q0 11 7.5 18t18.5 7q12 0 21.5 -8.5t15.5 -21t9 -28t3 -29.5q0 -41 -16 -68.5t-39 -45.5q-7 -6 -10 0l-4 6q-3 5 -2 7t4 4q20 15 33.5 38.5t13.5 54.5q0 36 -11 53q-4 -5 -8 -7.5t-12 -2.5q-10 0 -17 6.5t-7 16.5zM241 13q0 11 7.5 18t18.5 7q12 0 21.5 -8.5
t15.5 -21t9 -28t3 -29.5q0 -41 -16 -68.5t-39 -45.5q-7 -6 -10 0l-4 6q-3 5 -2 7t4 4q20 15 33.5 38.5t13.5 54.5q0 36 -11 53q-4 -5 -8 -7.5t-12 -2.5q-10 0 -17 6.5t-7 16.5z" />
    <glyph glyph-name="dagger" unicode="&#x2020;" horiz-adv-x="535" 
d="M43 382q-7 0 -7 7v4q0 7 7 7h215v293q0 7 7 7h4q7 0 7 -7v-293h216q7 0 7 -7v-4q0 -7 -7 -7h-216v-613q0 -7 -7 -7h-4q-7 0 -7 7v613h-215z" />
    <glyph glyph-name="daggerdbl" unicode="&#x2021;" horiz-adv-x="555" 
d="M76 11q0 7 7 7h185v382h-215q-7 0 -7 7v4q0 7 7 7h215v275q0 7 7 7h4q7 0 7 -7v-275h216q7 0 7 -7v-4q0 -7 -7 -7h-216v-382h186q7 0 7 -7v-4q0 -7 -7 -7h-186v-231q0 -7 -7 -7h-4q-7 0 -7 7v231h-185q-7 0 -7 7v4z" />
    <glyph glyph-name="bullet" unicode="&#x2022;" horiz-adv-x="254" 
d="M126 219q-16 0 -26.5 11t-10.5 26q0 17 10.5 28t26.5 11q17 0 28 -11t11 -28q0 -15 -11 -26t-28 -11z" />
    <glyph glyph-name="ellipsis" unicode="&#x2026;" horiz-adv-x="564" 
d="M450 21q0 10 6.5 16.5t16.5 6.5q11 0 17.5 -6.5t6.5 -16.5t-6.5 -17t-17.5 -7q-10 0 -16.5 7t-6.5 17zM257 21q0 10 6.5 16.5t16.5 6.5q11 0 17.5 -6.5t6.5 -16.5t-6.5 -17t-17.5 -7q-10 0 -16.5 7t-6.5 17zM67 21q0 10 7 16.5t17 6.5q11 0 17 -6.5t6 -16.5t-6 -17
t-17 -7q-10 0 -17 7t-7 17z" />
    <glyph glyph-name="perthousand" unicode="&#x2030;" horiz-adv-x="1004" 
d="M190 427q-29 0 -55 11t-45 30.5t-30 45t-11 55.5q0 29 11 55t30 45t45 30t55 11t55 -11t45.5 -30t30.5 -45t11 -55q0 -30 -11 -55.5t-30.5 -45t-45.5 -30.5t-55 -11zM190 445q25 0 48 9.5t39.5 26.5t26.5 39.5t10 48.5q0 25 -10 47.5t-26.5 39.5t-39.5 26.5t-48 9.5
q-26 0 -48 -9.5t-39 -26.5t-26.5 -39.5t-9.5 -47.5q0 -26 9.5 -48.5t26.5 -39.5t39 -26.5t48 -9.5zM682 131q0 30 11 55.5t30.5 45t45 30.5t55.5 11q29 0 54.5 -11t45 -30.5t30.5 -45t11 -55.5q0 -29 -11 -55t-30.5 -45t-45 -30t-54.5 -11q-30 0 -55.5 11t-45 30t-30.5 45
t-11 55zM359 131q0 30 11 55.5t30 45t45 30.5t55 11t55 -11t45 -30.5t30 -45t11 -55.5q0 -29 -11 -55t-30 -45t-45 -30t-55 -11t-55 11t-45 30t-30 45t-11 55zM700 131q0 -26 9.5 -48t26.5 -39t39.5 -26.5t48.5 -9.5q25 0 47.5 9.5t39 26.5t26.5 39t10 48t-10 48.5
t-26.5 39.5t-39 26.5t-47.5 9.5q-26 0 -48.5 -9.5t-39.5 -26.5t-26.5 -39.5t-9.5 -48.5zM377 131q0 -26 9.5 -48t26.5 -39t39 -26.5t48 -9.5q25 0 48 9.5t39.5 26.5t26.5 39t10 48t-10 48.5t-26.5 39.5t-39.5 26.5t-48 9.5q-26 0 -48 -9.5t-39 -26.5t-26.5 -39.5t-9.5 -48.5
zM536 698q3 4 8 1l6 -3q2 -1 3 -2.5t-1 -5.5l-417 -686q-4 -5 -7 -3l-8 5q-4 3 -1 8z" />
    <glyph glyph-name="guilsinglleft" unicode="&#x2039;" horiz-adv-x="256" 
d="M56 234q-3 4 0 8l122 170q3 5 9 2l5 -3q5 -3 2 -8l-117 -165l117 -167q3 -5 -2 -8l-5 -3q-6 -3 -9 2z" />
    <glyph glyph-name="guilsinglright" unicode="&#x203a;" horiz-adv-x="257" 
d="M65 63q-6 3 -2 8l117 167l-117 165q-4 5 2 8l5 3q6 3 9 -2l122 -170q3 -4 0 -8l-122 -172q-3 -5 -9 -2l-5 3v0z" />
    <glyph glyph-name="fraction" unicode="&#x2044;" horiz-adv-x="120" 
d="M-140 2q-4 -5 -7 -3l-8 5q-4 3 -1 8l417 686q3 4 8 1l6 -3q2 -1 3 -2.5t-1 -5.5z" />
    <glyph glyph-name="uni2070" unicode="&#x2070;" horiz-adv-x="331" 
d="M165 494q-57 0 -89 42.5t-32 115.5q0 74 32 116t89 42t89.5 -42t32.5 -116q0 -73 -32.5 -115.5t-89.5 -42.5zM165 512q50 0 77 37t27 103t-27 103.5t-77 37.5q-49 0 -76.5 -37.5t-27.5 -103.5t27.5 -103t76.5 -37z" />
    <glyph glyph-name="uni2074" unicode="&#x2074;" horiz-adv-x="328" 
d="M230 504q-7 0 -7 7v61h-192q-5 0 -6.5 3.5t1.5 7.5l203 223q4 3 8 1.5t4 -6.5v-212h50q7 0 7 -7v-4q0 -6 -7 -6h-50v-61q0 -7 -7 -7h-4zM223 589v185l-170 -185h170z" />
    <glyph glyph-name="uni2075" unicode="&#x2075;" horiz-adv-x="303" 
d="M146 494q-22 0 -38 4.5t-28 10.5t-20 12.5t-13 11.5t0 10l4 4q5 5 10 0q8 -9 27 -22t58 -13q23 0 42 7t33 19t21.5 27.5t7.5 33.5q0 37 -26 58t-78 20h-86q-7 0 -7 7v109q0 7 7 7h160q7 0 7 -7v-4q0 -7 -7 -7h-149v-87h75q60 1 91 -25t31 -71q0 -21 -9 -40.5t-25.5 -33.5
t-39 -22.5t-48.5 -8.5z" />
    <glyph glyph-name="uni2076" unicode="&#x2076;" horiz-adv-x="304" 
d="M160 494q-28 0 -50 10.5t-37.5 28.5t-23.5 42t-8 51q0 47 20 81t46.5 57.5t53.5 36.5t41 18q6 2 8 -4l2 -7q0 -6 -4 -7q-12 -4 -33 -14t-43.5 -27t-41.5 -41t-27 -57q14 14 38 28t62 14q21 0 40.5 -7t34.5 -20.5t24 -32.5t9 -43q0 -22 -9 -41.5t-24 -34t-35 -23t-43 -8.5
zM160 512q19 0 35.5 7t29.5 19t20.5 28.5t7.5 34.5q0 19 -7.5 35t-20 26.5t-28.5 16.5t-34 6q-27 0 -46 -8.5t-32 -18.5q-15 -12 -24 -27v-2q0 -48 25.5 -82.5t73.5 -34.5z" />
    <glyph glyph-name="uni2077" unicode="&#x2077;" horiz-adv-x="263" 
d="M67 506q-4 1 -1 8l148 268h-176q-6 0 -6 7v4q0 7 6 7h195q10 0 6 -10l-157 -285q-3 -6 -8 -3z" />
    <glyph glyph-name="uni2078" unicode="&#x2078;" horiz-adv-x="315" 
d="M158 494q-23 0 -44 5t-36.5 15t-24.5 26t-9 38q0 29 20 49.5t55 28.5q-29 8 -47 26.5t-18 44.5q0 32 23.5 57.5t79.5 25.5q55 0 80 -25.5t25 -57.5q0 -26 -18 -44.5t-48 -26.5q36 -8 55.5 -28.5t19.5 -49.5q0 -44 -33.5 -64t-79.5 -20zM158 668q38 2 61.5 17.5t23.5 41.5
t-21 46.5t-65 20.5q-45 0 -64.5 -20.5t-19.5 -46.5t23.5 -41.5t61.5 -17.5zM158 510q38 0 65.5 16.5t27.5 51.5q0 29 -24.5 46.5t-68.5 19.5q-44 -2 -68.5 -19.5t-24.5 -46.5q0 -35 27.5 -51.5t65.5 -16.5z" />
    <glyph glyph-name="uni2079" unicode="&#x2079;" horiz-adv-x="304" 
d="M102 485q-6 -2 -8 4l-2 7q0 6 4 7q12 4 33 14t43.5 27t41.5 41t27 57q-14 -14 -38 -28t-62 -14q-21 0 -40.5 7t-34.5 20.5t-24 32.5t-9 43q0 22 9 41.5t24 34t35 23t43 8.5q28 0 50 -10.5t37.5 -28.5t23.5 -42t8 -51q0 -47 -20 -81t-46.5 -57.5t-53.5 -36.5t-41 -18z
M141 619q26 0 45.5 8t32.5 19q15 11 24 27v2q0 48 -25.5 82.5t-73.5 34.5q-19 0 -36 -7t-29.5 -19t-20 -28.5t-7.5 -34.5q0 -20 7.5 -35.5t20 -26t28.5 -16.5t34 -6z" />
    <glyph glyph-name="uni2080" unicode="&#x2080;" horiz-adv-x="331" 
d="M44 -2q0 74 32 116t89 42t89.5 -42t32.5 -116q0 -73 -32.5 -115.5t-89.5 -42.5t-89 42.5t-32 115.5zM61 -2q0 -66 27.5 -103t76.5 -37q50 0 77 37t27 103t-27 103.5t-77 37.5q-49 0 -76.5 -37.5t-27.5 -103.5z" />
    <glyph glyph-name="uni2081" unicode="&#x2081;" horiz-adv-x="167" 
d="M27 90q-2 4 2 7l73 53q4 3 7.5 1t3.5 -7v-287q0 -7 -7 -7h-4q-7 0 -7 7v266l-55 -41q-5 -3 -8 1z" />
    <glyph glyph-name="uni2082" unicode="&#x2082;" horiz-adv-x="285" 
d="M50 103l-2.5 2.5t0.5 5.5q8 12 21 22q11 8 28 15.5t41 7.5q25 0 44.5 -7.5t32.5 -20.5t20 -29t7 -34q0 -30 -17.5 -55.5t-44.5 -48.5l-112 -93h165q6 0 6 -7v-4q0 -7 -6 -7h-192q-5 0 -7 4.5t2 7.5l132 110q23 19 39.5 41.5t16.5 51.5q0 28 -22 50.5t-64 22.5
q-20 0 -34 -5.5t-23 -12.5q-11 -8 -17 -18q-3 -7 -9 -3z" />
    <glyph glyph-name="uni2083" unicode="&#x2083;" horiz-adv-x="304" 
d="M87 3q0 7 7 7h65q32 0 53 19t21 46q0 29 -21.5 46t-59.5 17q-23 0 -39 -5.5t-27 -12.5q-12 -8 -21 -18q-4 -4 -7 -1l-5 4q-4 3 -4 5t2 4q10 11 25 21q13 8 31.5 14.5t44.5 6.5q45 0 72.5 -21.5t27.5 -59.5q0 -23 -16 -43.5t-36 -29.5q27 -9 44 -30t17 -45
q0 -38 -31.5 -62.5t-82.5 -24.5q-23 0 -41 5t-31 12t-22 14t-13 11q-5 5 0 10l3 3q5 5 10 0q4 -3 11 -9.5t18 -12.5t27.5 -10.5t38.5 -4.5q44 0 69 19.5t25 49.5q0 26 -22 45.5t-61 19.5h-65q-7 0 -7 7v4z" />
    <glyph glyph-name="uni2084" unicode="&#x2084;" horiz-adv-x="328" 
d="M229 152q4 3 8 1.5t4 -6.5v-212h50q7 0 7 -7v-4q0 -6 -7 -6h-50v-61q0 -7 -7 -7h-4q-7 0 -7 7v61h-192q-5 0 -6.5 3.5t1.5 7.5zM223 -65v185l-170 -185h170z" />
    <glyph glyph-name="uni2085" unicode="&#x2085;" horiz-adv-x="302" 
d="M52 139q0 7 7 7h160q7 0 7 -7v-4q0 -7 -7 -7h-149v-87h75q60 1 91 -25t31 -71q0 -21 -9 -40.5t-25.5 -33.5t-39 -22.5t-48.5 -8.5q-22 0 -38 4.5t-28 10.5t-20 12.5t-13 11.5t0 10l4 4q5 5 10 0q8 -9 27 -22t58 -13q23 0 42 7t33 19t21.5 27.5t7.5 33.5q0 37 -26 58
t-78 20h-86q-7 0 -7 7v109z" />
    <glyph glyph-name="uni2086" unicode="&#x2086;" horiz-adv-x="304" 
d="M41 -28q0 47 20 81t46.5 57.5t53.5 36.5t41 18q6 2 8 -4l2 -7q0 -6 -4 -7q-12 -4 -33 -14t-43.5 -27t-41.5 -41t-27 -57q14 14 38 28t62 14q21 0 40.5 -7t34.5 -20.5t24 -32.5t9 -43q0 -22 -9 -41.5t-24 -34t-35 -23t-43 -8.5q-28 0 -50 10.5t-37.5 28.5t-23.5 42t-8 51z
M61 -25q0 -48 25.5 -82.5t73.5 -34.5q19 0 35.5 7t29.5 19t20.5 28.5t7.5 34.5q0 19 -7.5 35t-20 26.5t-28.5 16.5t-34 6q-27 0 -46 -8.5t-32 -18.5q-15 -12 -24 -27v-2z" />
    <glyph glyph-name="uni2087" unicode="&#x2087;" horiz-adv-x="259" 
d="M36 128q-6 0 -6 7v4q0 7 6 7h195q10 0 6 -10l-157 -285q-3 -6 -8 -3l-7 4q-4 1 -1 8l148 268h-176z" />
    <glyph glyph-name="uni2088" unicode="&#x2088;" horiz-adv-x="314" 
d="M43 -76q0 29 20 49.5t55 28.5q-29 8 -47 26.5t-18 44.5q0 32 23.5 57.5t79.5 25.5q55 0 80 -25.5t25 -57.5q0 -26 -18 -44.5t-48 -26.5q36 -8 55.5 -28.5t19.5 -49.5q0 -44 -33.5 -64t-79.5 -20q-23 0 -44 5t-36.5 15t-24.5 26t-9 38zM72 73q0 -26 23.5 -41.5t61.5 -17.5
q38 2 61.5 17.5t23.5 41.5t-21 46.5t-65 20.5q-45 0 -64.5 -20.5t-19.5 -46.5zM64 -76q0 -35 27.5 -51.5t65.5 -16.5t65.5 16.5t27.5 51.5q0 29 -24.5 46.5t-68.5 19.5q-44 -2 -68.5 -19.5t-24.5 -46.5z" />
    <glyph glyph-name="uni2089" unicode="&#x2089;" horiz-adv-x="304" 
d="M33 49q0 22 9 41.5t24 34t35 23t43 8.5q28 0 50 -10.5t37.5 -28.5t23.5 -42t8 -51q0 -47 -20 -81t-46.5 -57.5t-53.5 -36.5t-41 -18q-6 -2 -8 4l-2 7q0 6 4 7q12 4 33 14t43.5 27t41.5 41t27 57q-14 -14 -38 -28t-62 -14q-21 0 -40.5 7t-34.5 20.5t-24 32.5t-9 43zM51 49
q0 -20 7.5 -35.5t20 -26t28.5 -16.5t34 -6q26 0 45.5 8t32.5 19q15 11 24 27v2q0 48 -25.5 82.5t-73.5 34.5q-19 0 -36 -7t-29.5 -19t-20 -28.5t-7.5 -34.5z" />
    <glyph glyph-name="Euro" unicode="&#x20ac;" 
d="M102 382q-1 -8 -1 -16.5v-16.5q0 -17 1 -33.5t3 -33.5h327q6 0 6 -7v-4q0 -6 -6 -6h-324q8 -51 27.5 -97.5t50 -82.5t73.5 -57t99 -21q58 0 99 20t82 64q4 4 8 0l5 -5q4 -4 0 -8q-41 -44 -85.5 -66.5t-108.5 -22.5q-59 0 -105.5 22t-80 59.5t-54 88t-29.5 106.5h-54
q-6 0 -6 6v4q0 3 2 5.5t4 1.5h52q-2 17 -3 33.5t-1 33.5v16.5t1 16.5h-49q-6 0 -6 7v4q0 7 6 7h50q6 63 27.5 119t56.5 98.5t82.5 67.5t106.5 25q60 0 107.5 -23t85.5 -60q4 -4 1 -8l-4 -5q-4 -4 -8 0q-43 40 -85 59t-97 19t-99.5 -23t-77 -63t-52.5 -93t-26 -113h368
q7 0 7 -7v-4q0 -7 -7 -7h-369z" />
    <glyph glyph-name="uni2113" unicode="&#x2113;" horiz-adv-x="465" 
d="M46 217q-6 -1 -8 5l-2 8q-2 6 6 8q20 4 40.5 9t40.5 12l21 105q17 82 36.5 146.5t43.5 109t52.5 67.5t64.5 23q47 0 73 -33t26 -88q0 -68 -25 -122t-67 -96.5t-96 -73.5t-111 -52l-6 -28q-8 -37 -8 -76q0 -25 5 -48.5t17 -42t32.5 -29.5t52.5 -11q40 0 70.5 7t52.5 15
t34 15.5t14 9.5q6 4 10 -1l3 -4q4 -6 0 -10q-2 -2 -15 -10t-36.5 -17.5t-57 -17t-75.5 -7.5q-37 0 -61.5 12.5t-39.5 33t-21 47.5t-6 56q0 20 2.5 41t6.5 41l3 16q-18 -6 -37.5 -11.5t-34.5 -8.5zM145 266q54 20 103.5 50t87.5 70t60.5 90.5t22.5 112.5q0 46 -20 73.5
t-58 27.5q-32 0 -58 -22.5t-47 -65t-38 -103.5t-33 -137z" />
    <glyph glyph-name="uni2117" unicode="&#x2117;" horiz-adv-x="859" 
d="M68 350q0 75 28.5 140.5t77.5 114t114.5 77t140.5 28.5t140.5 -28.5t115 -77t78 -114t28.5 -140.5t-28.5 -140.5t-78 -114t-115 -77t-140.5 -28.5t-140.5 28.5t-114.5 77t-77.5 114t-28.5 140.5zM86 350q0 -71 27 -133t73.5 -108.5t109 -73.5t133.5 -27t133.5 27
t109.5 73.5t74 108.5t27 133t-27 133t-74 108.5t-109.5 73.5t-133.5 27t-133.5 -27t-109 -73.5t-73.5 -108.5t-27 -133zM332 532q0 7 6 7h130q25 0 48.5 -6.5t41.5 -20.5t29 -35.5t11 -51.5q0 -53 -36 -84.5t-94 -31.5h-119v-136q0 -7 -7 -7h-4q-6 0 -6 7v359zM468 326
q20 0 40 6t36 18.5t26 31t10 43.5t-9.5 43.5t-25.5 30.5t-36 17.5t-41 5.5h-119v-196h119z" />
    <glyph glyph-name="trademark" unicode="&#x2122;" horiz-adv-x="801" 
d="M353 389q-5 2 -4 8l83 309q2 5 7 5t6 -5l92 -281l91 281q2 5 7 5t7 -5l82 -309q1 -7 -4 -8l-8 -2q-4 -1 -6 4l-72 270l-90 -278q-2 -5 -7 -5t-7 5l-90 278l-73 -270q-1 -6 -8 -4zM181 389q-7 0 -7 7v286h-104q-7 0 -7 7v4q0 7 7 7h224q7 0 7 -7v-4q0 -7 -7 -7h-102v-286
q0 -7 -7 -7h-4z" />
    <glyph glyph-name="Omega" unicode="&#x2126;" horiz-adv-x="848" 
d="M91 11q0 7 7 7h186q-49 20 -90 53t-70 76t-45.5 94t-16.5 108q0 75 28 141t77 115t115 77t141 28t141 -28t115 -77t77.5 -115t28.5 -141q0 -56 -16 -107t-45 -94t-69 -76t-88 -54h185q7 0 7 -7v-4q0 -7 -7 -7h-238q-7 0 -7 7v4q0 7 7 7q55 15 101 46t80 74.5t53 97
t19 113.5q0 72 -27 134.5t-73.5 109t-109 73t-134.5 26.5t-134.5 -26.5t-109 -73t-73 -109t-26.5 -134.5q0 -60 19 -114.5t53 -98t81 -74t103 -44.5q7 0 7 -7v-4q0 -7 -7 -7h-238q-7 0 -7 7v4z" />
    <glyph glyph-name="estimated" unicode="&#x212e;" horiz-adv-x="839" 
d="M175 118q47 -51 112.5 -80.5t141.5 -29.5q129 0 231 93q5 5 8 0l5 -6q3 -4 0 -7q-52 -50 -114.5 -74t-129.5 -24q-75 0 -141 28t-115 76.5t-77 114t-28 140.5t28 141t77 115t115 77t141 28t140.5 -28t114.5 -76t77.5 -113.5t29.5 -140.5v-1v-4q0 -7 -7 -7h-633v-193
q12 -17 24 -29zM709 358v191q-47 65 -119.5 104t-160.5 39q-87 0 -159 -38t-119 -103v-193h558z" />
    <glyph glyph-name="onethird" unicode="&#x2153;" horiz-adv-x="630" 
d="M129 404q-7 0 -7 7v266l-55 -41q-5 -3 -8 1l-5 7q-2 4 2 7l73 53q4 3 7.5 1t3.5 -7v-287q0 -7 -7 -7h-4zM66 4q-4 3 -1 8l417 686q3 4 8 1l6 -3q2 -1 3 -2.5t-1 -5.5l-417 -686q-4 -5 -7 -3zM356 32q-5 5 0 10l3 3q5 5 10 0q4 -3 11 -9.5t18 -12.5t27.5 -10.5t38.5 -4.5
q44 0 69 19.5t25 49.5q0 26 -22 45.5t-61 19.5h-65q-7 0 -7 7v4q0 7 7 7h65q32 0 53 19t21 46q0 29 -21.5 46t-59.5 17q-23 0 -39 -5.5t-27 -12.5q-12 -8 -21 -18q-4 -4 -7 -1l-5 4q-4 3 -4 5t2 4q10 11 25 21q13 8 31.5 14.5t44.5 6.5q45 0 72.5 -21.5t27.5 -59.5
q0 -23 -16 -43.5t-36 -29.5q27 -9 44 -30t17 -45q0 -38 -31.5 -62.5t-82.5 -24.5q-23 0 -41 5t-31 12t-22 14t-13 11z" />
    <glyph glyph-name="twothirds" unicode="&#x2154;" horiz-adv-x="703" 
d="M62 404q-5 0 -7 4.5t2 7.5l132 110q23 19 39.5 41.5t16.5 51.5q0 28 -22 50.5t-64 22.5q-20 0 -34 -5.5t-23 -12.5q-11 -8 -17 -18q-3 -7 -9 -3l-5 4l-2.5 2.5t0.5 5.5q8 12 21 22q11 8 28 15.5t41 7.5q25 0 44.5 -7.5t32.5 -20.5t20 -29t7 -34q0 -30 -17.5 -55.5
t-44.5 -48.5l-112 -93h165q6 0 6 -7v-4q0 -7 -6 -7h-192zM139 4q-4 3 -1 8l417 686q3 4 8 1l6 -3q2 -1 3 -2.5t-1 -5.5l-417 -686q-4 -5 -7 -3zM429 32q-5 5 0 10l3 3q5 5 10 0q4 -3 11 -9.5t18 -12.5t27.5 -10.5t38.5 -4.5q44 0 69 19.5t25 49.5q0 26 -22 45.5t-61 19.5
h-65q-7 0 -7 7v4q0 7 7 7h65q32 0 53 19t21 46q0 29 -21.5 46t-59.5 17q-23 0 -39 -5.5t-27 -12.5q-12 -8 -21 -18q-4 -4 -7 -1l-5 4q-4 3 -4 5t2 4q10 11 25 21q13 8 31.5 14.5t44.5 6.5q45 0 72.5 -21.5t27.5 -59.5q0 -23 -16 -43.5t-36 -29.5q27 -9 44 -30t17 -45
q0 -38 -31.5 -62.5t-82.5 -24.5q-23 0 -41 5t-31 12t-22 14t-13 11z" />
    <glyph glyph-name="oneeighth" unicode="&#x215b;" horiz-adv-x="642" 
d="M129 404q-7 0 -7 7v266l-55 -41q-5 -3 -8 1l-5 7q-2 4 2 7l73 53q4 3 7.5 1t3.5 -7v-287q0 -7 -7 -7h-4zM66 4q-4 3 -1 8l417 686q3 4 8 1l6 -3q2 -1 3 -2.5t-1 -5.5l-417 -686q-4 -5 -7 -3zM363 74q0 29 20 49.5t55 28.5q-29 8 -47 26.5t-18 44.5q0 32 23.5 57.5
t79.5 25.5q55 0 80 -25.5t25 -57.5q0 -26 -18 -44.5t-48 -26.5q36 -8 55.5 -28.5t19.5 -49.5q0 -44 -33.5 -64t-79.5 -20q-23 0 -44 5t-36.5 15t-24.5 26t-9 38zM392 223q0 -26 23.5 -41.5t61.5 -17.5q38 2 61.5 17.5t23.5 41.5t-21 46.5t-65 20.5q-45 0 -64.5 -20.5
t-19.5 -46.5zM384 74q0 -35 27.5 -51.5t65.5 -16.5t65.5 16.5t27.5 51.5q0 29 -24.5 46.5t-68.5 19.5q-44 -2 -68.5 -19.5t-24.5 -46.5z" />
    <glyph glyph-name="threeeighths" unicode="&#x215c;" horiz-adv-x="694" 
d="M164 394q-23 0 -41 5t-31 12t-22 14t-13 11q-5 5 0 10l3 3q5 5 10 0q4 -3 11 -9.5t18 -12.5t27.5 -10.5t38.5 -4.5q44 0 69 19.5t25 49.5q0 26 -22 45.5t-61 19.5h-65q-7 0 -7 7v4q0 7 7 7h65q32 0 53 19t21 46q0 29 -21.5 46t-59.5 17q-23 0 -39 -5.5t-27 -12.5
q-12 -8 -21 -18q-4 -4 -7 -1l-5 4q-4 3 -4 5t2 4q10 11 25 21q13 8 31.5 14.5t44.5 6.5q45 0 72.5 -21.5t27.5 -59.5q0 -23 -16 -43.5t-36 -29.5q27 -9 44 -30t17 -45q0 -38 -31.5 -62.5t-82.5 -24.5zM543 698q3 4 8 1l6 -3q2 -1 3 -2.5t-1 -5.5l-417 -686q-4 -5 -7 -3l-8 5
q-4 3 -1 8zM414 74q0 29 20 49.5t55 28.5q-29 8 -47 26.5t-18 44.5q0 32 23.5 57.5t79.5 25.5q55 0 80 -25.5t25 -57.5q0 -26 -18 -44.5t-48 -26.5q36 -8 55.5 -28.5t19.5 -49.5q0 -44 -33.5 -64t-79.5 -20q-23 0 -44 5t-36.5 15t-24.5 26t-9 38zM443 223q0 -26 23.5 -41.5
t61.5 -17.5q38 2 61.5 17.5t23.5 41.5t-21 46.5t-65 20.5q-45 0 -64.5 -20.5t-19.5 -46.5zM435 74q0 -35 27.5 -51.5t65.5 -16.5t65.5 16.5t27.5 51.5q0 29 -24.5 46.5t-68.5 19.5q-44 -2 -68.5 -19.5t-24.5 -46.5z" />
    <glyph glyph-name="fiveeighths" unicode="&#x215d;" horiz-adv-x="689" 
d="M162 394q-22 0 -38 4.5t-28 10.5t-20 12.5t-13 11.5t0 10l4 4q5 5 10 0q8 -9 27 -22t58 -13q23 0 42 7t33 19t21.5 27.5t7.5 33.5q0 37 -26 58t-78 20h-86q-7 0 -7 7v109q0 7 7 7h160q7 0 7 -7v-4q0 -7 -7 -7h-149v-87h75q60 1 91 -25t31 -71q0 -21 -9 -40.5t-25.5 -33.5
t-39 -22.5t-48.5 -8.5zM538 698q3 4 8 1l6 -3q2 -1 3 -2.5t-1 -5.5l-417 -686q-4 -5 -7 -3l-8 5q-4 3 -1 8zM409 74q0 29 20 49.5t55 28.5q-29 8 -47 26.5t-18 44.5q0 32 23.5 57.5t79.5 25.5q55 0 80 -25.5t25 -57.5q0 -26 -18 -44.5t-48 -26.5q36 -8 55.5 -28.5
t19.5 -49.5q0 -44 -33.5 -64t-79.5 -20q-23 0 -44 5t-36.5 15t-24.5 26t-9 38zM438 223q0 -26 23.5 -41.5t61.5 -17.5q38 2 61.5 17.5t23.5 41.5t-21 46.5t-65 20.5q-45 0 -64.5 -20.5t-19.5 -46.5zM430 74q0 -35 27.5 -51.5t65.5 -16.5t65.5 16.5t27.5 51.5
q0 29 -24.5 46.5t-68.5 19.5q-44 -2 -68.5 -19.5t-24.5 -46.5z" />
    <glyph glyph-name="seveneighths" unicode="&#x215e;" horiz-adv-x="636" 
d="M91 406q-4 1 -1 8l148 268h-176q-6 0 -6 7v4q0 7 6 7h195q10 0 6 -10l-157 -285q-3 -6 -8 -3zM485 698q3 4 8 1l6 -3q2 -1 3 -2.5t-1 -5.5l-417 -686q-4 -5 -7 -3l-8 5q-4 3 -1 8zM356 74q0 29 20 49.5t55 28.5q-29 8 -47 26.5t-18 44.5q0 32 23.5 57.5t79.5 25.5
q55 0 80 -25.5t25 -57.5q0 -26 -18 -44.5t-48 -26.5q36 -8 55.5 -28.5t19.5 -49.5q0 -44 -33.5 -64t-79.5 -20q-23 0 -44 5t-36.5 15t-24.5 26t-9 38zM385 223q0 -26 23.5 -41.5t61.5 -17.5q38 2 61.5 17.5t23.5 41.5t-21 46.5t-65 20.5q-45 0 -64.5 -20.5t-19.5 -46.5z
M377 74q0 -35 27.5 -51.5t65.5 -16.5t65.5 16.5t27.5 51.5q0 29 -24.5 46.5t-68.5 19.5q-44 -2 -68.5 -19.5t-24.5 -46.5z" />
    <glyph glyph-name="partialdiff" unicode="&#x2202;" horiz-adv-x="587" 
d="M47 229q0 52 18.5 94t50 71.5t72 45.5t85.5 16t81.5 -12.5t65 -31.5t48.5 -40t32 -37q-7 60 -28.5 109t-51.5 88t-64.5 69t-67.5 51.5t-62 35t-47 20.5q-5 3 -4 8l2 7q2 5 8 3q19 -7 51.5 -22.5t70 -41t75.5 -61t69 -82t50.5 -105.5t19.5 -130q0 -62 -16.5 -115.5
t-47.5 -93.5t-76 -62.5t-102 -22.5q-47 0 -89.5 18.5t-74 51t-50 76t-18.5 93.5zM65 229q0 -46 17 -86.5t46 -70.5t68 -47t83 -17q54 0 95.5 21.5t70 58.5t43.5 87.5t15 108.5v15l-17 25.5t-43.5 47.5t-70.5 45.5t-99 20.5q-41 0 -79 -14.5t-66.5 -42t-45.5 -66t-17 -86.5z
" />
    <glyph glyph-name="Delta" unicode="&#x2206;" horiz-adv-x="687" 
d="M340 717q2 4 5 4h2q3 0 5 -4l298 -700q5 -13 -1.5 -15t-11.5 -2h-588q-5 0 -11.5 2t0.5 17zM630 18l-284 667l-291 -667h575z" />
    <glyph glyph-name="product" unicode="&#x220f;" horiz-adv-x="754" 
d="M113 693q0 7 7 7h514q7 0 7 -7v-686q0 -7 -7 -7h-4q-7 0 -7 7v675h-492v-675q0 -7 -7 -7h-4q-7 0 -7 7v686z" />
    <glyph glyph-name="summation" unicode="&#x2211;" horiz-adv-x="532" 
d="M399 365l-350 317q-5 5 -3 11.5t10 6.5h407q7 0 7 -7v-4q0 -7 -7 -7h-385l337 -306l4.5 -4.5t2.5 -5.5v-4q0 -3 -2.5 -5.5l-4.5 -4.5l-341 -334h389q7 0 7 -7v-4q0 -7 -7 -7h-407q-8 0 -9.5 7t2.5 11z" />
    <glyph glyph-name="minus" unicode="&#x2212;" 
d="M105 340q-7 0 -7 7v4q0 7 7 7h389q7 0 7 -7v-4q0 -7 -7 -7h-389z" />
    <glyph glyph-name="uni2215" unicode="&#x2215;" horiz-adv-x="120" 
d="M-140 2q-4 -5 -7 -3l-8 5q-4 3 -1 8l417 686q3 4 8 1l6 -3q2 -1 3 -2.5t-1 -5.5z" />
    <glyph glyph-name="uni2219" unicode="&#x2219;" horiz-adv-x="198" 
d="M99 238q-10 0 -17 7t-7 17t7 16.5t17 6.5q11 0 17.5 -6.5t6.5 -16.5t-6.5 -17t-17.5 -7z" />
    <glyph glyph-name="radical" unicode="&#x221a;" horiz-adv-x="645" 
d="M35 395q-2 4 3 6l9 3q3 1 5 -3l163 -385l294 676q2 5 4.5 6.5t6.5 1.5h112q7 0 7 -7v-4q0 -7 -7 -7h-108l-303 -698q-2 -5 -6 -5t-6 5z" />
    <glyph glyph-name="infinity" unicode="&#x221e;" horiz-adv-x="696" 
d="M215 155q-29 0 -55 11t-45 30t-30 45t-11 55q0 30 11 55.5t30 45t45 30.5t55 11q46 0 82 -26t50 -67q15 41 51 67t83 26q29 0 54.5 -11t45 -30.5t30.5 -45t11 -55.5q0 -29 -11 -55t-30.5 -45t-45 -30t-54.5 -11q-47 0 -83 25.5t-51 66.5q-14 -41 -50 -66.5t-82 -25.5z
M357 296q0 -26 9.5 -48t26.5 -39t39.5 -26.5t48.5 -9.5q25 0 47.5 9.5t39 26.5t26.5 39t10 48t-10 48.5t-26.5 39.5t-39 26.5t-47.5 9.5q-26 0 -48.5 -9.5t-39.5 -26.5t-26.5 -39.5t-9.5 -48.5zM215 173q25 0 48 9.5t39.5 26.5t26.5 39t10 48t-10 48.5t-26.5 39.5
t-39.5 26.5t-48 9.5q-26 0 -48 -9.5t-39 -26.5t-26.5 -39.5t-9.5 -48.5t9.5 -48t26.5 -39t39 -26.5t48 -9.5z" />
    <glyph glyph-name="integral" unicode="&#x222b;" horiz-adv-x="524" 
d="M253 534q0 90 41 133t108 43q42 0 71 -14.5t43 -28.5q5 -5 0 -10l-3 -3q-5 -5 -10 0q-13 12 -38 25t-63 13q-60 0 -95.5 -38.5t-35.5 -119.5v-607q0 -90 -41 -133t-108 -43q-42 0 -71 14.5t-43 28.5q-5 5 0 10l3 3q5 5 10 0q13 -12 38 -25t63 -13q60 0 95.5 38.5
t35.5 119.5v607z" />
    <glyph glyph-name="approxequal" unicode="&#x2248;" 
d="M121 349q-3 2 -1 6q11 22 27 40q14 15 34 27.5t47 12.5q29 0 48.5 -16.5t33.5 -33.5q12 -16 28.5 -30.5t40.5 -14.5q23 0 40.5 10.5t28.5 24.5q13 16 23 36q2 5 6 3l7 -4q4 -3 1 -8q-10 -22 -26 -39q-14 -15 -34 -27t-46 -12q-30 0 -48.5 16.5t-32.5 33.5
q-11 15 -28 29.5t-42 14.5q-23 0 -40.5 -11t-29.5 -24q-14 -16 -24 -35q-4 -5 -7 -3zM121 183q-3 2 -1 6q11 22 27 40q14 15 34 27.5t47 12.5q29 0 48.5 -16.5t33.5 -33.5q12 -16 28.5 -30.5t40.5 -14.5q23 0 40.5 10.5t28.5 24.5q13 16 23 36q2 5 6 3l7 -4q4 -3 1 -8
q-10 -22 -26 -39q-14 -15 -34 -27t-46 -12q-30 0 -48.5 16.5t-32.5 33.5q-11 15 -28 29.5t-42 14.5q-23 0 -40.5 -11t-29.5 -24q-14 -16 -24 -35q-4 -5 -7 -3z" />
    <glyph glyph-name="notequal" unicode="&#x2260;" 
d="M192 83q-6 4 -2 9l48 84h-104q-7 0 -7 7v4q0 7 7 7h115l108 188h-223q-7 0 -7 7v4q0 7 7 7h233l38 66q3 5 10 2l3 -2q7 -3 3 -9l-33 -57h77q7 0 7 -7v-4q0 -7 -7 -7h-88l-108 -188h196q7 0 7 -7v-4q0 -7 -7 -7h-207l-53 -93q-4 -6 -9 -2z" />
    <glyph glyph-name="lessequal" unicode="&#x2264;" 
d="M95 393q-4 2 -4 6t4 6l385 205q6 3 9 -2l3 -5q4 -6 -2 -9l-370 -195l370 -188q6 -3 2 -9l-3 -5q-3 -5 -9 -2zM101 85q-7 0 -7 7v4q0 7 7 7h389q7 0 7 -7v-4q0 -7 -7 -7h-389z" />
    <glyph glyph-name="greaterequal" unicode="&#x2265;" 
d="M119 195q-6 -3 -9 2l-3 5q-4 6 2 9l370 188l-370 195q-6 3 -2 9l3 5q3 5 9 2l385 -205q4 -2 4 -6t-4 -6zM109 85q-7 0 -7 7v4q0 7 7 7h389q7 0 7 -7v-4q0 -7 -7 -7h-389z" />
    <glyph glyph-name="lozenge" unicode="&#x25ca;" horiz-adv-x="563" 
d="M61 328q-5 8 -8 13t-3 9t3 8.5t8 12.5l216 336q2 4 5 4h2q3 0 5 -4l212 -334q11 -17 11 -23t-11 -23l-212 -334q-2 -4 -5 -4h-2q-3 0 -5 4zM495 350l-212 331l-216 -331l216 -332z" />
    <glyph glyph-name="uniF6C3" unicode="&#xf6c3;" horiz-adv-x="292" 
d="M105 -108q0 11 7.5 18t18.5 7q22 0 32 -19t10 -48q0 -27 -10.5 -50t-24.5 -34q-4 -3 -5.5 -2.5t-3.5 2.5l-5 6q-4 5 -2.5 7t4.5 4q11 8 19 25t8 38q0 20 -6 29q-6 -6 -18 -6q-10 0 -17 6.5t-7 16.5z" />
    <glyph glyph-name="uniF8FF" unicode="&#xf8ff;" horiz-adv-x="599" 
d="M50 670q0 30 30 30h439q30 0 30 -30v-640q0 -30 -30 -30h-439q-30 0 -30 30v640zM262 314q0 -5 4.5 -8.5t9.5 -3.5h36q15 0 15 13v26q0 18 16.5 31.5t36 29t36 36t16.5 53.5q0 24 -9.5 44.5t-26.5 35.5t-39.5 23t-49.5 8q-33 0 -57 -10t-41 -21q-19 -13 -32 -30
q-3 -5 -4 -9.5t4 -8.5l22 -22q8 -6 17 0q5 4 12 11t17 14t23.5 11.5t31.5 4.5q30 0 45.5 -16t15.5 -36q0 -24 -15.5 -39t-34 -30t-34 -32.5t-15.5 -45.5v-29zM245 156q0 -20 14 -34t34 -14t34.5 14t14.5 34t-14.5 34t-34.5 14t-34 -14t-14 -34z" />
    <glyph glyph-name="glyph309" horiz-adv-x="302" 
d="M67 868q-6 3 -3 9l2 4q2 4 4.5 4t4.5 -1l182 -91q5 -3 3 -7l-2 -5q-3 -6 -9 -3z" />
    <glyph glyph-name="glyph311" horiz-adv-x="302" 
d="M71 778q-6 -3 -9 3l-2 5q-2 4 3 7l182 91q2 1 4.5 1t4.5 -4l2 -4q3 -6 -3 -9z" />
    <glyph glyph-name="glyph313" horiz-adv-x="373" 
d="M62 763q-3 -2 -4.5 -1t-2.5 2l-4 5q-2 4 2 8l129 106q4 4 8 0l129 -106q4 -4 2 -8l-4 -5q-1 -1 -2.5 -2t-4.5 1l-124 101z" />
    <glyph glyph-name="glyph315" horiz-adv-x="373" 
d="M53 877q-4 4 -2 8l4 5q1 1 2.5 2t4.5 -1l124 -101l124 101q3 2 4.5 1t2.5 -2l4 -5q2 -4 -2 -8l-129 -106q-4 -4 -8 0z" />
    <glyph glyph-name="glyph316" horiz-adv-x="373" 
d="M141 685q0 11 7.5 18t18.5 7q22 0 32 -19t10 -48q0 -27 -10.5 -50t-24.5 -34q-4 -3 -5.5 -2.5t-3.5 2.5l-5 6q-4 5 -2.5 7t4.5 4q11 8 19 25t8 38q0 20 -6 29q-6 -6 -18 -6q-10 0 -17 6.5t-7 16.5z" />
    <glyph glyph-name="glyph318" horiz-adv-x="380" 
d="M45 804q-6 1 -3 9q2 7 7.5 21t15.5 28t25.5 24.5t37.5 10.5q17 0 28.5 -6t19 -15.5t12.5 -20t9 -19.5q6 -14 17.5 -30t35.5 -16q17 0 29 9t20 21t12.5 24t6.5 18q2 7 7 5l8 -2q6 -2 3 -9q-2 -7 -7.5 -21t-15.5 -28t-25.5 -24.5t-37.5 -10.5q-17 0 -29 6.5t-20 15.5
t-13.5 19.5t-8.5 18.5q-3 6 -6.5 14.5t-9.5 16t-14.5 12.5t-20.5 5q-17 0 -29 -9t-20 -21t-12.5 -24.5t-6.5 -18.5q-2 -7 -7 -5z" />
    <glyph glyph-name="glyph320" horiz-adv-x="474" 
d="M341 808q-23 0 -23 22q0 23 23 23t23 -23q0 -22 -23 -22zM134 808q-23 0 -23 22q0 23 23 23t23 -23q0 -22 -23 -22z" />
    <glyph glyph-name="glyph322" horiz-adv-x="414" 
d="M63 842q-7 0 -7 7v4q0 7 7 7h288q7 0 7 -7v-4q0 -7 -7 -7h-288z" />
    <glyph glyph-name="glyph325" horiz-adv-x="346" 
d="M173 780q-51 0 -85.5 31t-41.5 77q-1 2 1.5 4.5t4.5 2.5h7q5 0 5 -6q6 -40 36 -65.5t73 -25.5q42 0 72 25.5t37 65.5q0 6 5 6h7q2 0 4.5 -2.5t1.5 -4.5q-8 -46 -42.5 -77t-84.5 -31z" />
    <glyph glyph-name="glyph327" horiz-adv-x="290" 
d="M146 750q-45 0 -74.5 29.5t-29.5 74.5q0 44 29.5 74t74.5 30q44 0 74 -30t30 -74q0 -45 -30 -74.5t-74 -29.5zM146 767q18 0 33.5 7t27 18.5t18.5 27.5t7 34t-7 33.5t-18.5 27.5t-27 19t-33.5 7t-33.5 -7t-27.5 -19t-18.5 -27.5t-6.5 -33.5q0 -36 25 -61.5t61 -25.5z" />
    <glyph glyph-name="glyph329" horiz-adv-x="392" 
d="M218 759q-2 2 -3 3.5t1 5.5l108 173q4 5 9 2l3 -2q2 -2 3 -3.5t-1 -5.5l-108 -173q-4 -5 -9 -2zM52 759q-2 2 -3 3.5t1 5.5l108 173q4 5 9 2l3 -2q2 -2 3 -3.5t-1 -5.5l-108 -173q-4 -5 -9 -2z" />
    <glyph glyph-name="glyph331" horiz-adv-x="219" 
d="M108 819q-11 0 -17 7t-6 16q0 10 6 17.5t17 7.5q10 0 16.5 -7.5t6.5 -17.5q0 -9 -6.5 -16t-16.5 -7z" />
    <glyph glyph-name="glyph333" horiz-adv-x="247" 
d="M150 3l-54 -80q13 6 33 6q15 0 30.5 -5t27.5 -14.5t19.5 -25t7.5 -36.5q0 -36 -25.5 -59.5t-65.5 -23.5q-26 0 -45.5 10t-32.5 24q-5 4 0 9l6 5q5 3 9 -1q11 -13 25.5 -21t37.5 -8q33 0 52.5 18t19.5 47q0 31 -19.5 47t-47.5 16q-27 0 -48 -9q-5 -2 -8 3t-1 8l57 90h22z
" />
    <glyph glyph-name="glyph335" horiz-adv-x="276" 
d="M179 3q-19 -10 -41 -23t-41 -31t-32 -41.5t-13 -54.5q0 -29 18 -51t53 -22q25 0 43.5 10.5t24.5 13.5t8 -2l3 -6q3 -6 -7 -11q-9 -5 -29 -14t-43 -9q-42 0 -65.5 26t-23.5 65q0 34 14 60t34.5 46t44 34t42.5 24z" />
    <glyph glyph-name="glyph337" horiz-adv-x="292" 
d="M173 601q0 -11 -7.5 -18t-18.5 -7q-22 0 -32 19t-10 48q0 27 10.5 50t24.5 34q4 3 5.5 2.5t3.5 -2.5l5 -6q4 -5 2.5 -7t-4.5 -4q-11 -8 -19 -25t-8 -38q0 -20 6 -29q6 6 18 6q10 0 17 -6.5t7 -16.5z" />
    <glyph glyph-name="glyph338" horiz-adv-x="292" 
d="M105 -108q0 11 7.5 18t18.5 7q22 0 32 -19t10 -48q0 -27 -10.5 -50t-24.5 -34q-4 -3 -5.5 -2.5t-3.5 2.5l-5 6q-4 5 -2.5 7t4.5 4q11 8 19 25t8 38q0 20 -6 29q-6 -6 -18 -6q-10 0 -17 6.5t-7 16.5z" />
    <glyph glyph-name="zero.tnum" 
d="M300 -11q-61 0 -106.5 24.5t-76 71t-46 113.5t-15.5 151q0 85 15.5 152t46 113.5t76 71t106.5 24.5t106.5 -24.5t76 -71t46 -113.5t15.5 -152q0 -84 -15.5 -151t-46 -113.5t-76 -71t-106.5 -24.5zM300 7q113 0 169.5 90t56.5 252q0 163 -56.5 253t-169.5 90t-169.5 -90
t-56.5 -253q0 -162 56.5 -252t169.5 -90z" />
    <glyph glyph-name="one.tnum" 
d="M94 0q-6 0 -6 7v4q0 8 6 8h227v657l-202 -158q-5 -3 -8 1l-5 7q-2 4 2 8l220 169q4 4 8 1.5t4 -7.5v-678h202q7 0 7 -8v-4q0 -7 -7 -7h-448v0z" />
    <glyph glyph-name="two.tnum" 
d="M365 286q55 51 89.5 104.5t34.5 118.5q0 37 -13.5 70t-40 58t-65.5 40t-91 15q-44 0 -74 -15t-50 -33q-23 -21 -38 -48q-3 -6 -8 -3l-7 4q-2 2 -3 4t1 6q17 28 43 51q22 20 55 36t81 16q57 0 99.5 -16t71 -44t43 -64.5t14.5 -76.5q0 -68 -36 -124.5t-94 -110.5l-273 -255
h391q7 0 7 -8v-4q0 -7 -7 -7h-419q-5 0 -7 4.5t2 7.5z" />
    <glyph glyph-name="three.tnum" 
d="M74 82q-4 6 0 10l5 4q6 3 10 -1q8 -9 22.5 -23.5t38 -29t56 -24.5t76.5 -10q51 0 91 14t68.5 38.5t43.5 58.5t15 73q0 31 -13 60t-37 51.5t-58 36t-76 13.5h-137q-7 0 -7 8v4q0 7 7 7h137q32 0 62 11.5t52.5 32.5t36 50.5t13.5 65.5q0 34 -13 63.5t-36 51t-56.5 33.5
t-73.5 12q-48 0 -82.5 -13.5t-57.5 -29.5q-27 -18 -46 -42q-5 -5 -9 -2l-6 4q-5 3 -2 8q21 26 51 46q26 17 63.5 32t88.5 15q44 0 80.5 -13.5t62.5 -37t40.5 -56t14.5 -71.5q0 -31 -10 -58t-27 -49t-40 -37.5t-49 -23.5q32 -8 58.5 -25.5t45.5 -40.5t29.5 -50.5t10.5 -55.5
q0 -43 -16.5 -80t-47 -64t-74 -42.5t-97.5 -15.5q-48 0 -83 11t-59.5 26t-40.5 30.5t-25 24.5z" />
    <glyph glyph-name="four.tnum" 
d="M42 164q-5 0 -6.5 3.5t1.5 7.5l406 538q2 4 6.5 2.5t4.5 -6.5v-528h83q7 0 7 -6v-4q0 -7 -7 -7h-83v-157q0 -7 -7 -7h-3q-7 0 -7 7v157h-395zM437 181v497l-371 -497h371z" />
    <glyph glyph-name="five.tnum" 
d="M93 78q-4 5 0 10l5 4q3 2 5 1t4 -3q9 -11 24.5 -25t38.5 -27t53.5 -21.5t71.5 -8.5q49 0 90 17.5t69.5 47.5t44.5 70t16 86q0 95 -56.5 145t-167.5 48h-182q-7 0 -7 8v263q0 7 7 7h336q7 0 7 -7v-3q0 -7 -7 -7h-324v-243h170q119 2 181 -53t62 -158q0 -50 -17.5 -93.5
t-49 -75.5t-75.5 -51t-97 -19q-44 0 -77 9t-57.5 22.5t-41 29t-26.5 27.5z" />
    <glyph glyph-name="six.tnum" 
d="M76 284q0 71 19 129.5t49.5 104.5t68 81t74.5 60t69 40t52 22q6 2 8 -3l2 -7q1 -5 -4 -8q-18 -7 -46.5 -20t-61.5 -34t-67 -50t-63 -68t-50.5 -87.5t-28.5 -108.5q12 16 31.5 37t47 40t63.5 31.5t82 12.5q44 0 84 -16t70.5 -45.5t48.5 -71.5t18 -94q0 -50 -18 -93.5
t-49 -76t-72.5 -51t-88.5 -18.5q-57 0 -101.5 22.5t-75 62.5t-46 93.5t-15.5 115.5zM94 284q0 -58 14.5 -108.5t42 -87.5t68.5 -58.5t95 -21.5q44 0 82.5 17t67 47t45 70.5t16.5 86.5q0 48 -16.5 86.5t-44.5 66t-65 42t-78 14.5q-57 0 -99 -20.5t-69.5 -45.5t-42 -47.5
t-16.5 -25.5v-15z" />
    <glyph glyph-name="seven.tnum" 
d="M508 683h-422q-8 0 -8 7v3q0 7 8 7h438q5 0 7 -3t0 -6l-304 -690q-3 -6 -8 -3l-6 2q-5 2 -2 9z" />
    <glyph glyph-name="eight.tnum" 
d="M70 180q0 69 49.5 116t136.5 61q-37 7 -68 22.5t-53 37t-34 49t-12 59.5q0 34 11.5 67t36.5 59.5t64.5 42.5t96.5 16t97 -16t66 -42.5t38 -59.5t12 -67q0 -64 -45.5 -108.5t-120.5 -59.5q87 -14 136 -59t49 -118q0 -50 -18 -86t-49 -59t-73.5 -34t-90.5 -11t-90 11
t-72.5 34t-48.5 59t-18 86zM300 370q41 2 76 13.5t61 31.5t41 47.5t15 62.5q0 31 -11 61t-35 54t-61 38.5t-88 14.5t-87.5 -14.5t-59.5 -38.5t-33.5 -54t-10.5 -61q0 -35 15 -62.5t41 -47.5t61 -31.5t76 -13.5zM88 180q0 -45 16.5 -78t45 -54t67 -31.5t82.5 -10.5t83 10.5
t68 31.5t45.5 54t16.5 78q0 34 -15 63t-42.5 50.5t-67 35.5t-87.5 17q-97 -7 -154.5 -50t-57.5 -116z" />
    <glyph glyph-name="nine.tnum" 
d="M181 -9q-1 5 4 8q18 6 46.5 19.5t61.5 34.5t67 50t63 68t50.5 87.5t28.5 108.5q-12 -17 -31.5 -38t-47 -39.5t-63.5 -31.5t-81 -13t-85 16t-70.5 46t-48.5 72t-18 94q0 50 18 93t49 75t72.5 50.5t88.5 18.5q57 0 101.5 -22.5t75 -62t46 -93t15.5 -115.5q0 -71 -19 -129.5
t-49.5 -104.5t-68 -81t-74.5 -59.5t-69.5 -40t-51.5 -22.5q-6 -2 -8 4zM279 264q57 0 98.5 20.5t69 45.5t42 47.5t16.5 25.5v14q0 58 -14.5 108.5t-42 87t-68.5 57.5t-95 21q-44 0 -82 -17t-66.5 -46t-45 -69t-16.5 -86q0 -48 16.5 -87t44.5 -66t65 -41.5t78 -14.5z" />
    <glyph glyph-name="zero.dnom" horiz-adv-x="386" 
d="M72 148q0 74 32 116t89 42t89.5 -42t32.5 -116q0 -73 -32.5 -115.5t-89.5 -42.5t-89 42.5t-32 115.5zM89 148q0 -66 27.5 -103t76.5 -37q50 0 77 37t27 103t-27 103.5t-77 37.5q-49 0 -76.5 -37.5t-27.5 -103.5z" />
    <glyph glyph-name="one.dnom" horiz-adv-x="208" 
d="M113 273l-55 -41q-5 -3 -8 1l-5 7q-2 4 2 7l73 53q4 3 7.5 1t3.5 -7v-287q0 -7 -7 -7h-4q-7 0 -7 7v266z" />
    <glyph glyph-name="two.dnom" horiz-adv-x="326" 
d="M190 122q23 19 39.5 41.5t16.5 51.5q0 28 -22 50.5t-64 22.5q-20 0 -34 -5.5t-23 -12.5q-11 -8 -17 -18q-3 -7 -9 -3l-5 4l-2.5 2.5t0.5 5.5q8 12 21 22q11 8 28 15.5t41 7.5q25 0 44.5 -7.5t32.5 -20.5t20 -29t7 -34q0 -30 -17.5 -55.5t-44.5 -48.5l-112 -93h165
q6 0 6 -7v-4q0 -7 -6 -7h-192q-5 0 -7 4.5t2 7.5z" />
    <glyph glyph-name="three.dnom" horiz-adv-x="355" 
d="M63 32q-5 5 0 10l3 3q5 5 10 0q4 -3 11 -9.5t18 -12.5t27.5 -10.5t38.5 -4.5q44 0 69 19.5t25 49.5q0 26 -22 45.5t-61 19.5h-65q-7 0 -7 7v4q0 7 7 7h65q32 0 53 19t21 46q0 29 -21.5 46t-59.5 17q-23 0 -39 -5.5t-27 -12.5q-12 -8 -21 -18q-4 -4 -7 -1l-5 4q-4 3 -4 5
t2 4q10 11 25 21q13 8 31.5 14.5t44.5 6.5q45 0 72.5 -21.5t27.5 -59.5q0 -23 -16 -43.5t-36 -29.5q27 -9 44 -30t17 -45q0 -38 -31.5 -62.5t-82.5 -24.5q-23 0 -41 5t-31 12t-22 14t-13 11z" />
    <glyph glyph-name="four.dnom" horiz-adv-x="355" 
d="M40 68q-5 0 -6.5 3.5t1.5 7.5l203 223q4 3 8 1.5t4 -6.5v-212h50q7 0 7 -7v-4q0 -6 -7 -6h-50v-61q0 -7 -7 -7h-4q-7 0 -7 7v61h-192zM232 85v185l-170 -185h170z" />
    <glyph glyph-name="five.dnom" horiz-adv-x="350" 
d="M71 29q-5 5 0 10l4 4q5 5 10 0q8 -9 27 -22t58 -13q23 0 42 7t33 19t21.5 27.5t7.5 33.5q0 37 -26 58t-78 20h-86q-7 0 -7 7v109q0 7 7 7h160q7 0 7 -7v-4q0 -7 -7 -7h-149v-87h75q60 1 91 -25t31 -71q0 -21 -9 -40.5t-25.5 -33.5t-39 -22.5t-48.5 -8.5q-22 0 -38 4.5
t-28 10.5t-20 12.5t-13 11.5z" />
    <glyph glyph-name="six.dnom" horiz-adv-x="355" 
d="M65 122q0 47 20 81t46.5 57.5t53.5 36.5t41 18q6 2 8 -4l2 -7q0 -6 -4 -7q-12 -4 -33 -14t-43.5 -27t-41.5 -41t-27 -57q14 14 38 28t62 14q21 0 40.5 -7t34.5 -20.5t24 -32.5t9 -43q0 -22 -9 -41.5t-24 -34t-35 -23t-43 -8.5q-28 0 -50 10.5t-37.5 28.5t-23.5 42t-8 51z
M85 125q0 -48 25.5 -82.5t73.5 -34.5q19 0 35.5 7t29.5 19t20.5 28.5t7.5 34.5q0 19 -7.5 35t-20 26.5t-28.5 16.5t-34 6q-27 0 -46 -8.5t-32 -18.5q-15 -12 -24 -27v-2z" />
    <glyph glyph-name="seven.dnom" horiz-adv-x="316" 
d="M243 278h-176q-6 0 -6 7v4q0 7 6 7h195q10 0 6 -10l-157 -285q-3 -6 -8 -3l-7 4q-4 1 -1 8z" />
    <glyph glyph-name="eight.dnom" horiz-adv-x="368" 
d="M70 74q0 29 20 49.5t55 28.5q-29 8 -47 26.5t-18 44.5q0 32 23.5 57.5t79.5 25.5q55 0 80 -25.5t25 -57.5q0 -26 -18 -44.5t-48 -26.5q36 -8 55.5 -28.5t19.5 -49.5q0 -44 -33.5 -64t-79.5 -20q-23 0 -44 5t-36.5 15t-24.5 26t-9 38zM184 164q38 2 61.5 17.5t23.5 41.5
t-21 46.5t-65 20.5q-45 0 -64.5 -20.5t-19.5 -46.5t23.5 -41.5t61.5 -17.5zM91 74q0 -35 27.5 -51.5t65.5 -16.5t65.5 16.5t27.5 51.5q0 29 -24.5 46.5t-68.5 19.5q-44 -2 -68.5 -19.5t-24.5 -46.5z" />
    <glyph glyph-name="nine.dnom" horiz-adv-x="354" 
d="M118 -8q0 6 4 7q12 4 33 14t43.5 27t41.5 41t27 57q-14 -14 -38 -28t-62 -14q-21 0 -40.5 7t-34.5 20.5t-24 32.5t-9 43q0 22 9 41.5t24 34t35 23t43 8.5q28 0 50 -10.5t37.5 -28.5t23.5 -42t8 -51q0 -47 -20 -81t-46.5 -57.5t-53.5 -36.5t-41 -18q-6 -2 -8 4zM167 115
q26 0 45.5 8t32.5 19q15 11 24 27v2q0 48 -25.5 82.5t-73.5 34.5q-19 0 -36 -7t-29.5 -19t-20 -28.5t-7.5 -34.5q0 -20 7.5 -35.5t20 -26t28.5 -16.5t34 -6z" />
    <glyph glyph-name="zero.numr" horiz-adv-x="331" 
d="M165 394q-57 0 -89 42.5t-32 115.5q0 74 32 116t89 42t89.5 -42t32.5 -116q0 -73 -32.5 -115.5t-89.5 -42.5zM165 412q50 0 77 37t27 103t-27 103.5t-77 37.5q-49 0 -76.5 -37.5t-27.5 -103.5t27.5 -103t76.5 -37z" />
    <glyph glyph-name="one.numr" horiz-adv-x="167" 
d="M102 404q-7 0 -7 7v266l-55 -41q-5 -3 -8 1l-5 7q-2 4 2 7l73 53q4 3 7.5 1t3.5 -7v-287q0 -7 -7 -7h-4v0z" />
    <glyph glyph-name="two.numr" horiz-adv-x="286" 
d="M42 404q-5 0 -7 4.5t2 7.5l132 110q23 19 39.5 41.5t16.5 51.5q0 28 -22 50.5t-64 22.5q-20 0 -34 -5.5t-23 -12.5q-11 -8 -17 -18q-3 -7 -9 -3l-5 4l-2.5 2.5t0.5 5.5q8 12 21 22q11 8 28 15.5t41 7.5q25 0 44.5 -7.5t32.5 -20.5t20 -29t7 -34q0 -30 -17.5 -55.5
t-44.5 -48.5l-112 -93h165q6 0 6 -7v-4q0 -7 -6 -7h-192v0z" />
    <glyph glyph-name="three.numr" horiz-adv-x="305" 
d="M147 394q-23 0 -41 5t-31 12t-22 14t-13 11q-5 5 0 10l3 3q5 5 10 0q4 -3 11 -9.5t18 -12.5t27.5 -10.5t38.5 -4.5q44 0 69 19.5t25 49.5q0 26 -22 45.5t-61 19.5h-65q-7 0 -7 7v4q0 7 7 7h65q32 0 53 19t21 46q0 29 -21.5 46t-59.5 17q-23 0 -39 -5.5t-27 -12.5
q-12 -8 -21 -18q-4 -4 -7 -1l-5 4q-4 3 -4 5t2 4q10 11 25 21q13 8 31.5 14.5t44.5 6.5q45 0 72.5 -21.5t27.5 -59.5q0 -23 -16 -43.5t-36 -29.5q27 -9 44 -30t17 -45q0 -38 -31.5 -62.5t-82.5 -24.5z" />
    <glyph glyph-name="four.numr" horiz-adv-x="328" 
d="M31 472q-5 0 -6.5 3.5t1.5 7.5l203 223q4 3 8 1.5t4 -6.5v-212h50q7 0 7 -7v-4q0 -6 -7 -6h-50v-61q0 -7 -7 -7h-4q-7 0 -7 7v61h-192zM223 489v185l-170 -185h170z" />
    <glyph glyph-name="five.numr" horiz-adv-x="303" 
d="M146 394q-22 0 -38 4.5t-28 10.5t-20 12.5t-13 11.5t0 10l4 4q5 5 10 0q8 -9 27 -22t58 -13q23 0 42 7t33 19t21.5 27.5t7.5 33.5q0 37 -26 58t-78 20h-86q-7 0 -7 7v109q0 7 7 7h160q7 0 7 -7v-4q0 -7 -7 -7h-149v-87h75q60 1 91 -25t31 -71q0 -21 -9 -40.5t-25.5 -33.5
t-39 -22.5t-48.5 -8.5z" />
    <glyph glyph-name="six.numr" horiz-adv-x="304" 
d="M160 394q-28 0 -50 10.5t-37.5 28.5t-23.5 42t-8 51q0 47 20 81t46.5 57.5t53.5 36.5t41 18q6 2 8 -4l2 -7q0 -6 -4 -7q-12 -4 -33 -14t-43.5 -27t-41.5 -41t-27 -57q14 14 38 28t62 14q21 0 40.5 -7t34.5 -20.5t24 -32.5t9 -43q0 -22 -9 -41.5t-24 -34t-35 -23t-43 -8.5
zM160 412q19 0 35.5 7t29.5 19t20.5 28.5t7.5 34.5q0 19 -7.5 35t-20 26.5t-28.5 16.5t-34 6q-27 0 -46 -8.5t-32 -18.5q-15 -12 -24 -27v-2q0 -48 25.5 -82.5t73.5 -34.5z" />
    <glyph glyph-name="seven.numr" horiz-adv-x="263" 
d="M67 406q-4 1 -1 8l148 268h-176q-6 0 -6 7v4q0 7 6 7h195q10 0 6 -10l-157 -285q-3 -6 -8 -3z" />
    <glyph glyph-name="eight.numr" horiz-adv-x="315" 
d="M158 394q-23 0 -44 5t-36.5 15t-24.5 26t-9 38q0 29 20 49.5t55 28.5q-29 8 -47 26.5t-18 44.5q0 32 23.5 57.5t79.5 25.5q55 0 80 -25.5t25 -57.5q0 -26 -18 -44.5t-48 -26.5q36 -8 55.5 -28.5t19.5 -49.5q0 -44 -33.5 -64t-79.5 -20zM158 568q38 2 61.5 17.5t23.5 41.5
t-21 46.5t-65 20.5q-45 0 -64.5 -20.5t-19.5 -46.5t23.5 -41.5t61.5 -17.5zM158 410q38 0 65.5 16.5t27.5 51.5q0 29 -24.5 46.5t-68.5 19.5q-44 -2 -68.5 -19.5t-24.5 -46.5q0 -35 27.5 -51.5t65.5 -16.5z" />
    <glyph glyph-name="nine.numr" horiz-adv-x="304" 
d="M102 385q-6 -2 -8 4l-2 7q0 6 4 7q12 4 33 14t43.5 27t41.5 41t27 57q-14 -14 -38 -28t-62 -14q-21 0 -40.5 7t-34.5 20.5t-24 32.5t-9 43q0 22 9 41.5t24 34t35 23t43 8.5q28 0 50 -10.5t37.5 -28.5t23.5 -42t8 -51q0 -47 -20 -81t-46.5 -57.5t-53.5 -36.5t-41 -18z
M141 519q26 0 45.5 8t32.5 19q15 11 24 27v2q0 48 -25.5 82.5t-73.5 34.5q-19 0 -36 -7t-29.5 -19t-20 -28.5t-7.5 -34.5q0 -20 7.5 -35.5t20 -26t28.5 -16.5t34 -6z" />
    <glyph glyph-name="parenleft.case" horiz-adv-x="323" 
d="M297 -101q7 0 7 -7v-4q0 -6 -7 -6q-44 2 -87 29t-77 83.5t-55.5 143t-21.5 208.5q0 121 21.5 209.5t55.5 146.5t77 87t87 31q7 0 7 -7v-4q0 -7 -7 -7q-41 -2 -80.5 -30t-71.5 -83.5t-51.5 -140.5t-19.5 -202t19.5 -200.5t51.5 -137.5t71.5 -80.5t80.5 -28.5z" />
    <glyph glyph-name="parenright.case" horiz-adv-x="323" 
d="M26 -101q40 2 80 28.5t72 80.5t51.5 137.5t19.5 200.5t-19.5 202t-51.5 140.5t-72 83.5t-80 30q-7 0 -7 7v4q0 7 7 7q43 -2 86.5 -31t77.5 -87t55.5 -146.5t21.5 -209.5q0 -122 -21.5 -208.5t-55.5 -143t-77.5 -83.5t-86.5 -29q-7 0 -7 6v4q0 7 7 7z" />
    <glyph glyph-name="hyphen.case" horiz-adv-x="399" 
d="M79 333q-6 0 -6 7v4q0 7 6 7h243q6 0 6 -7v-4q0 -7 -6 -7h-243v0z" />
    <glyph glyph-name="bracketleft.case" horiz-adv-x="328" 
d="M299 -100q7 0 7 -7v-4q0 -7 -7 -7h-203q-7 0 -7 7v924q0 7 7 7h203q7 0 7 -7v-4q0 -7 -7 -7h-192v-902h192z" />
    <glyph glyph-name="bracketright.case" horiz-adv-x="328" 
d="M221 -100v902h-192q-7 0 -7 7v4q0 7 7 7h203q7 0 7 -7v-924q0 -7 -7 -7h-203q-7 0 -7 7v4q0 7 7 7h192z" />
    <glyph glyph-name="braceleft.case" horiz-adv-x="332" 
d="M114 253q0 22 -8 39.5t-19 28.5t-23.5 17t-22.5 6q-7 0 -7 7v4q0 7 7 7q9 0 21.5 5.5t24 16.5t19.5 28.5t8 40.5v145q0 69 15 114t40.5 71.5t60 36.5t74.5 10q7 0 7 -7v-4q0 -7 -7 -7q-36 0 -67.5 -9.5t-54.5 -33.5t-36.5 -65.5t-13.5 -105.5v-145q0 -39 -19.5 -64
t-40.5 -36q21 -11 40.5 -36t19.5 -64v-148q0 -64 13.5 -106t36.5 -66.5t54.5 -34t67.5 -9.5q7 0 7 -7v-4q0 -7 -7 -7q-40 0 -74.5 10.5t-60 37t-40.5 72t-15 114.5v148z" />
    <glyph glyph-name="bar.case" horiz-adv-x="194" 
d="M88 823q0 7 7 7h4q7 0 7 -7v-983q0 -7 -7 -7h-4q-7 0 -7 7v983z" />
    <glyph glyph-name="braceright.case" horiz-adv-x="331" 
d="M200 253q0 39 19.5 64t40.5 36q-21 11 -40.5 36t-19.5 64v145q0 64 -13.5 105.5t-36.5 65.5t-54.5 33.5t-67.5 9.5q-7 0 -7 7v4q0 7 7 7q40 0 74.5 -10t60 -36.5t40.5 -71.5t15 -114v-145q0 -23 8 -40.5t19.5 -28.5t24 -16.5t21.5 -5.5q7 0 7 -7v-4q0 -7 -7 -7
q-10 0 -22.5 -6t-24 -17t-19 -28.5t-7.5 -39.5v-148q0 -69 -15 -114.5t-40.5 -72t-60 -37t-74.5 -10.5q-7 0 -7 7v4q0 7 7 7q36 0 67.5 9.5t54.5 34t36.5 66.5t13.5 106v148z" />
    <glyph glyph-name="guilsinglleft.case" horiz-adv-x="251" 
d="M55 324q-3 4 0 8l122 170q3 5 9 2l5 -3q5 -3 2 -8l-117 -165l117 -167q3 -5 -2 -8l-5 -3q-6 -3 -9 2z" />
    <glyph glyph-name="guilsinglright.case" horiz-adv-x="251" 
d="M62 153q-6 3 -2 8l117 167l-117 165q-4 5 2 8l5 3q6 3 9 -2l122 -170q3 -4 0 -8l-122 -172q-3 -5 -9 -2l-5 3v0z" />
    <glyph glyph-name="guillemotleft.case" horiz-adv-x="411" 
d="M215 324q-3 4 0 8l122 170q3 5 9 2l5 -3q5 -3 2 -8l-117 -165l117 -167q3 -5 -2 -8l-5 -3q-6 -3 -9 2zM55 324q-3 4 0 8l122 170q3 5 9 2l5 -3q5 -3 2 -8l-117 -165l117 -167q3 -5 -2 -8l-5 -3q-6 -3 -9 2z" />
    <glyph glyph-name="guillemotright.case" horiz-adv-x="411" 
d="M337 328l-117 165q-4 5 2 8l5 3q6 3 9 -2l122 -170q3 -4 0 -8l-122 -172q-3 -5 -9 -2l-5 3q-6 3 -2 8zM62 153q-6 3 -2 8l117 167l-117 165q-4 5 2 8l5 3q6 3 9 -2l122 -170q3 -4 0 -8l-122 -172q-3 -5 -9 -2z" />
    <glyph glyph-name="endash.case" horiz-adv-x="557" 
d="M80 333q-7 0 -7 7v4q0 7 7 7h399q7 0 7 -7v-4q0 -7 -7 -7h-399v0z" />
    <glyph glyph-name="emdash.case" horiz-adv-x="773" 
d="M80 333q-7 0 -7 7v4q0 7 7 7h615q7 0 7 -7v-4q0 -7 -7 -7h-615z" />
    <glyph glyph-name="bullet.case" horiz-adv-x="254" 
d="M126 279q-16 0 -26.5 11t-10.5 26q0 17 10.5 28t26.5 11q17 0 28 -11t11 -28q0 -15 -11 -26t-28 -11z" />
    <glyph glyph-name="periodcentered.case" horiz-adv-x="198" 
d="M99 328q-10 0 -17 7t-7 17t7 16.5t17 6.5q11 0 17.5 -6.5t6.5 -16.5t-6.5 -17t-17.5 -7z" />
    <glyph glyph-name="g.ss02" horiz-adv-x="544" 
d="M54 104q0 22 7 38t17.5 27.5t22.5 18.5t22 12q-15 20 -23 41t-8 53q0 77 52 122.5t140 45.5h203q7 0 7 -7v-4q0 -7 -7 -7h-110q16 -6 33 -18t31 -30.5t23 -43.5t9 -58q0 -38 -14 -68t-39 -50.5t-60 -31.5t-76 -11q-50 0 -87.5 14.5t-60.5 37.5q-7 -3 -17.5 -8.5t-21 -15
t-18 -24t-7.5 -33.5q0 -18 7 -31.5t18 -22t25 -12.5t28 -4h207q38 0 70 -5.5t55 -20t36 -38.5t13 -61q0 -74 -62.5 -116t-170.5 -42q-59 0 -102 12.5t-71 33t-41.5 48t-13.5 57.5q0 25 7 43.5t18 31.5t25 22.5t28 16.5q-18 1 -34.5 6.5t-30 16t-21.5 26.5t-8 39zM284 151
q37 0 68 10t54 28.5t36 45t13 59.5q0 44 -17 73t-42.5 46t-55.5 24t-56 7q-80 0 -127 -41t-47 -109q0 -28 11 -53.5t33 -45.5t54.5 -32t75.5 -12zM88 -98q0 -26 12.5 -50t38 -42.5t65.5 -29.5t94 -11q100 0 157.5 37t57.5 103q0 34 -12 55.5t-33 32.5t-49.5 15t-61.5 4h-158
q-8 -1 -26.5 -6t-37.5 -18t-33 -34.5t-14 -55.5z" />
    <glyph glyph-name="brokenbar.case" horiz-adv-x="202" 
d="M99 455q-7 0 -7 7v361q0 7 7 7h4q7 0 7 -7v-361q0 -7 -7 -7h-4zM92 202q0 6 7 6h4q7 0 7 -6v-361q0 -7 -7 -7h-4q-7 0 -7 7v361z" />
    <glyph glyph-name="a.salt" horiz-adv-x="554" 
d="M466 8q0 -8 -7 -8h-4q-6 0 -6 8v56q-11 -12 -26.5 -25t-36.5 -24t-49 -18.5t-62 -7.5q-45 0 -85 19t-70 52t-47.5 77.5t-17.5 95.5t18 95t49.5 76t74 50t91.5 18q32 0 57 -6t44.5 -15.5t34 -20t25.5 -19.5v43q0 8 6 8h4q7 0 7 -8v-446zM449 387q-8 9 -23 20.5t-35 22
t-46 17.5t-57 7q-45 0 -84 -17t-68 -46.5t-46 -70t-17 -87.5t16 -88t44 -72t64.5 -48.5t77.5 -17.5q44 0 76 12.5t53 28t32 29t13 16.5v294z" />
    <glyph glyph-name="agrave.salt" horiz-adv-x="554" 
d="M203 650q-6 3 -3 9l2 4q2 4 4.5 4t4.5 -1l182 -91q5 -3 3 -7l-2 -5q-3 -6 -9 -3zM466 8q0 -8 -7 -8h-4q-6 0 -6 8v56q-11 -12 -26.5 -25t-36.5 -24t-49 -18.5t-62 -7.5q-45 0 -85 19t-70 52t-47.5 77.5t-17.5 95.5t18 95t49.5 76t74 50t91.5 18q32 0 57 -6t44.5 -15.5
t34 -20t25.5 -19.5v43q0 8 6 8h4q7 0 7 -8v-446zM449 387q-8 9 -23 20.5t-35 22t-46 17.5t-57 7q-45 0 -84 -17t-68 -46.5t-46 -70t-17 -87.5t16 -88t44 -72t64.5 -48.5t77.5 -17.5q44 0 76 12.5t53 28t32 29t13 16.5v294z" />
    <glyph glyph-name="aacute.salt" horiz-adv-x="554" 
d="M209 560q-6 -3 -9 3l-2 5q-2 4 3 7l182 91q2 1 4.5 1t4.5 -4l2 -4q3 -6 -3 -9zM466 8q0 -8 -7 -8h-4q-6 0 -6 8v56q-11 -12 -26.5 -25t-36.5 -24t-49 -18.5t-62 -7.5q-45 0 -85 19t-70 52t-47.5 77.5t-17.5 95.5t18 95t49.5 76t74 50t91.5 18q32 0 57 -6t44.5 -15.5
t34 -20t25.5 -19.5v43q0 8 6 8h4q7 0 7 -8v-446zM449 387q-8 9 -23 20.5t-35 22t-46 17.5t-57 7q-45 0 -84 -17t-68 -46.5t-46 -70t-17 -87.5t16 -88t44 -72t64.5 -48.5t77.5 -17.5q44 0 76 12.5t53 28t32 29t13 16.5v294z" />
    <glyph glyph-name="acircumflex.salt" horiz-adv-x="554" 
d="M174 548q-3 -2 -4.5 -1t-2.5 2l-4 5q-2 4 2 8l129 106q4 4 8 0l129 -106q4 -4 2 -8l-4 -5q-1 -1 -2.5 -2t-4.5 1l-124 101zM466 8q0 -8 -7 -8h-4q-6 0 -6 8v56q-11 -12 -26.5 -25t-36.5 -24t-49 -18.5t-62 -7.5q-45 0 -85 19t-70 52t-47.5 77.5t-17.5 95.5t18 95t49.5 76
t74 50t91.5 18q32 0 57 -6t44.5 -15.5t34 -20t25.5 -19.5v43q0 8 6 8h4q7 0 7 -8v-446zM449 387q-8 9 -23 20.5t-35 22t-46 17.5t-57 7q-45 0 -84 -17t-68 -46.5t-46 -70t-17 -87.5t16 -88t44 -72t64.5 -48.5t77.5 -17.5q44 0 76 12.5t53 28t32 29t13 16.5v294z" />
    </font>
</defs>
</svg>
