<?xml version="1.0" standalone="no"?>
<!DOCTYPE svg PUBLIC "-//W3C//DTD SVG 1.1//EN" "http://www.w3.org/Graphics/SVG/1.1/DTD/svg11.dtd" >
<svg xmlns="http://www.w3.org/2000/svg" xmlns:xlink="http://www.w3.org/1999/xlink" version="1.1">
<metadata>
Created by FontForge 20170731 at Wed Nov 25 18:24:31 2015
 By Aleksey,,,
Copyright (c) 2015 by Hannes von Doehren. All rights reserved.
</metadata>
<defs>
<font id="BrandonTextWeb-Black" horiz-adv-x="600" >
  <font-face 
    font-family="BrandonTextWeb-Black"
    font-weight="400"
    font-stretch="normal"
    units-per-em="1000"
    panose-1="2 11 10 3 2 2 3 6 2 3"
    ascent="740"
    descent="-260"
    x-height="462"
    cap-height="700"
    bbox="-159.381 -322.263 1233 1052.53"
    underline-thickness="100"
    underline-position="-200"
    unicode-range="U+000D-FB04"
  />
<missing-glyph horiz-adv-x="599" 
d="M50 670q0 30 30 30h439q30 0 30 -30v-640q0 -30 -30 -30h-439q-30 0 -30 30v640zM262 314q0 -5 4.5 -8.5t9.5 -3.5h36q15 0 15 13v26q0 18 16.5 31.5t36 29t36 36t16.5 53.5q0 24 -9.5 44.5t-26.5 35.5t-39.5 23t-49.5 8q-33 0 -57 -10t-41 -21q-19 -13 -32 -30
q-3 -5 -4 -9.5t4 -8.5l22 -22q8 -6 17 0q5 4 12 11t17 14t23.5 11.5t31.5 4.5q30 0 45.5 -16t15.5 -36q0 -24 -15.5 -39t-34 -30t-34 -32.5t-15.5 -45.5v-29zM245 156q0 -20 14 -34t34 -14t34.5 14t14.5 34t-14.5 34t-34.5 14t-34 -14t-14 -34z" />
    <glyph glyph-name="uniFB00" unicode="ff" horiz-adv-x="715" 
d="M99 325h-50q-10 0 -16 6.5t-6 15.5v93q0 22 22 22h50v19q0 45 14.5 85t42 70t68 47t92.5 17q28 0 49.5 -4.5t38.5 -12.5t30 -18.5t24 -21.5q29 37 63 52t86 15q22 0 44.5 -4t41 -10.5t33 -14t22.5 -14.5q5 -4 7 -11.5t-2 -14.5l-49 -85q-5 -10 -13 -11t-15 3
q-11 7 -26 12.5t-32 5.5q-20 0 -31.5 -6.5t-17.5 -18t-7.5 -26.5t-1.5 -33v-20h116q9 0 15.5 -6t6.5 -16v-93q0 -9 -6.5 -15.5t-15.5 -6.5h-116v-303q0 -9 -7 -15.5t-15 -6.5h-108q-8 0 -15 6.5t-7 15.5v303h-157v-303q0 -9 -7 -15.5t-16 -6.5h-107q-8 0 -15 6.5t-7 15.5
v303zM408 462v20q0 6 0.5 16t1.5 18q-12 17 -33.5 30t-56.5 13q-20 0 -33 -7.5t-21 -19.5t-11.5 -25.5t-3.5 -25.5v-19h157z" />
    <glyph glyph-name="uniFB01" unicode="fi" horiz-adv-x="608" 
d="M423 537q-19 10 -45 19.5t-61 9.5t-53.5 -21t-18.5 -55v-28h286q22 0 22 -22v-418q0 -9 -6 -15.5t-16 -6.5h-107q-9 0 -15.5 6.5t-6.5 15.5v303h-157v-303q0 -22 -29 -22h-101q-8 0 -15 6.5t-7 15.5v303h-39q-10 0 -16 6.5t-6 15.5v93q0 22 22 22h39v30q0 46 13.5 86
t41 69.5t69.5 46t98 16.5q27 0 52.5 -5t47 -12t39 -15.5t29.5 -14.5q9 -5 11.5 -14t-1.5 -17l-38 -81q-7 -14 -14 -17t-18 3z" />
    <glyph glyph-name="uniFB02" unicode="fl" horiz-adv-x="640" 
d="M94 325h-41q-10 0 -16 6.5t-6 15.5v93q0 22 22 22h41v26q0 55 16.5 97t45 69.5t67.5 41.5t83 14q33 0 58.5 -5t45 -14t34 -20.5t27.5 -24.5l14 32q10 22 30 22h46q8 0 15 -7t7 -15v-656q0 -9 -7 -15.5t-15 -6.5h-108q-8 0 -15 6.5t-7 15.5v476q-5 9 -13 21t-20 22.5
t-28.5 17.5t-38.5 7q-15 0 -30 -3.5t-27.5 -12.5t-20 -24.5t-7.5 -39.5v-24h76q9 0 15.5 -6t6.5 -16v-93q0 -9 -6.5 -15.5t-15.5 -6.5h-76v-303q0 -9 -7 -15.5t-16 -6.5h-109q-8 0 -14 6.5t-6 15.5v303z" />
    <glyph glyph-name="uniFB03" unicode="ffi" horiz-adv-x="924" 
d="M847 462q22 0 22 -22v-418q0 -9 -6 -15.5t-16 -6.5h-107q-9 0 -15.5 6.5t-6.5 15.5v303h-157l-1 -303q0 -9 -7 -15.5t-15 -6.5h-108q-8 0 -15 6.5t-7 15.5v303h-157v-303q0 -9 -7 -15.5t-16 -6.5h-107q-8 0 -15 6.5t-7 15.5v303h-50q-10 0 -16 6.5t-6 15.5v93q0 22 22 22
h50v19q0 45 14.5 85t42 70t68 47t92.5 17q28 0 50 -4.5t39 -12.5t30.5 -18.5t24.5 -21.5q32 37 68 52t88 15q70 0 115 -17t68 -30q9 -5 11.5 -14t-1.5 -17l-38 -81q-7 -14 -14 -17t-18 3q-19 10 -45 19.5t-61 9.5t-53.5 -21t-18.5 -55v-28h286zM408 462v20q0 6 0.5 16
t1.5 18q-12 17 -33.5 30t-56.5 13q-20 0 -33 -7.5t-21 -19.5t-11.5 -25.5t-3.5 -25.5v-19h157z" />
    <glyph glyph-name="uniFB04" unicode="ffl" horiz-adv-x="954" 
d="M620 710q33 0 58.5 -5t45 -14t34 -20.5t27.5 -24.5l14 32q10 22 30 22h46q8 0 15 -7t7 -15v-656q0 -9 -7 -15.5t-15 -6.5h-108q-8 0 -15 6.5t-7 15.5v476q-5 9 -13 21t-20 22.5t-28.5 17.5t-38.5 7q-15 0 -30 -3.5t-27.5 -12.5t-20 -24.5t-7.5 -39.5v-24h76q9 0 15.5 -6
t6.5 -16v-93q0 -9 -6.5 -15.5t-15.5 -6.5h-76v-303q0 -9 -7 -15.5t-15 -6.5h-108q-8 0 -15 6.5t-7 15.5v303h-157v-303q0 -9 -7 -15.5t-16 -6.5h-107q-8 0 -15 6.5t-7 15.5v303h-50q-10 0 -16 6.5t-6 15.5v93q0 22 22 22h50v19q0 45 14.5 85t42 70t68 47t92.5 17
q28 0 49.5 -4.5t38.5 -12.5t30 -18.5t24 -21.5q30 35 70 51t92 16zM408 462v20q0 6 0.5 16t1.5 18q-12 17 -33.5 30t-56.5 13q-20 0 -33 -7.5t-21 -19.5t-11.5 -25.5t-3.5 -25.5v-19h157z" />
    <glyph glyph-name="f_f_h.liga" unicode="ffh" horiz-adv-x="1237" 
d="M875 700q9 0 15.5 -7t6.5 -15v-239q48 33 98 33q54 0 91 -18.5t59 -50.5t31.5 -74.5t9.5 -90.5v-216q0 -9 -7 -15.5t-15 -6.5h-108q-10 0 -16 6.5t-6 15.5v218q0 39 -15.5 64.5t-53.5 25.5q-28 0 -48 -19t-20 -71v-218q0 -22 -25 -22h-105q-8 0 -15 6.5t-7 15.5v476
q-5 9 -13 21t-20 22.5t-28.5 17.5t-38.5 7q-15 0 -30 -3.5t-27.5 -12.5t-20 -24.5t-7.5 -39.5v-24h76q9 0 15.5 -6t6.5 -16v-93q0 -9 -6.5 -15.5t-15.5 -6.5h-76v-303q0 -9 -7 -15.5t-15 -6.5h-108q-8 0 -15 6.5t-7 15.5v303h-157v-303q0 -9 -7 -15.5t-16 -6.5h-107
q-8 0 -15 6.5t-7 15.5v303h-50q-10 0 -16 6.5t-6 15.5v93q0 22 22 22h50v19q0 45 14.5 85t42 70t68 47t92.5 17q28 0 49.5 -4.5t38.5 -12.5t30 -18.5t24 -21.5q30 35 70 51t92 16q33 0 58.5 -5t45 -14t34 -20.5t27.5 -24.5l14 32q10 22 30 22h46zM408 462v20q0 6 0.5 16
t1.5 18q-12 17 -33.5 30t-56.5 13q-20 0 -33 -7.5t-21 -19.5t-11.5 -25.5t-3.5 -25.5v-19h157z" />
    <glyph glyph-name="f_k.liga" unicode="fk" horiz-adv-x="911" 
d="M453 0q-8 0 -15 6.5t-7 15.5v476q-5 9 -13 21t-20 22.5t-28.5 17.5t-38.5 7q-15 0 -30 -3.5t-27.5 -12.5t-20 -24.5t-7.5 -39.5v-24h76q9 0 15.5 -6t6.5 -16v-93q0 -9 -6.5 -15.5t-15.5 -6.5h-76v-303q0 -9 -7 -15.5t-16 -6.5h-109q-8 0 -14 6.5t-6 15.5v303h-41
q-10 0 -16 6.5t-6 15.5v93q0 22 22 22h41v26q0 55 16.5 97t45 69.5t67.5 41.5t83 14q33 0 58.5 -5t45 -14t34 -20.5t27.5 -24.5l14 32q10 22 30 22h46q9 0 15.5 -7t6.5 -15v-391l130 161q5 5 12 9.5t17 4.5h123q15 0 21.5 -12.5t-3.5 -23.5l-154 -178l163 -213
q9 -11 3.5 -23t-20.5 -12h-138q-3 0 -8 2.5t-8 6.5l-138 201v-188q0 -9 -6.5 -15.5t-15.5 -6.5h-108z" />
    <glyph glyph-name="f_j.liga" unicode="fj" horiz-adv-x="608" 
d="M402 325h-157v-303q0 -22 -29 -22h-101q-8 0 -15 6.5t-7 15.5v303h-39q-10 0 -16 6.5t-6 15.5v93q0 22 22 22h39v30q0 46 13.5 86t41 69.5t69.5 46t98 16.5q27 0 52.5 -5t47 -12t39 -15.5t29.5 -14.5q9 -5 11.5 -14t-1.5 -17l-38 -81q-7 -14 -14 -17t-18 3
q-19 10 -45 19.5t-61 9.5t-53.5 -21t-18.5 -55v-28h286q22 0 22 -22v-444q0 -53 -14 -94t-37.5 -71t-54.5 -48.5t-64 -27.5q-21 -5 -32 -1t-17 18l-29 73q-6 16 1 23.5t15 10.5q15 6 29.5 14.5t26 21t18 29.5t6.5 40z" />
    <glyph glyph-name="f_f_j.liga" unicode="ffj" horiz-adv-x="924" 
d="M408 462v20q0 6 0.5 16t1.5 18q-12 17 -33.5 30t-56.5 13q-20 0 -33 -7.5t-21 -19.5t-11.5 -25.5t-3.5 -25.5v-19h157zM718 325h-157l-1 -303q0 -9 -7 -15.5t-15 -6.5h-108q-8 0 -15 6.5t-7 15.5v303h-157v-303q0 -9 -7 -15.5t-16 -6.5h-107q-8 0 -15 6.5t-7 15.5v303
h-50q-10 0 -16 6.5t-6 15.5v93q0 22 22 22h50v19q0 45 14.5 85t42 70t68 47t92.5 17q28 0 50 -4.5t39 -12.5t30.5 -18.5t24.5 -21.5q32 37 68 52t88 15q70 0 115 -17t68 -30q9 -5 11.5 -14t-1.5 -17l-38 -81q-7 -14 -14 -17t-18 3q-19 10 -45 19.5t-61 9.5t-53.5 -21
t-18.5 -55v-28h286q22 0 22 -22v-444q0 -53 -14 -94t-37.5 -71t-54.5 -48.5t-64 -27.5q-21 -5 -32 -1t-17 18l-29 73q-6 16 1 23.5t15 10.5q15 6 30 14.5t26 21t18 29.5t7 40v341z" />
    <glyph glyph-name="f_b.liga" unicode="fb" horiz-adv-x="950" 
d="M561 700q9 0 15.5 -7t6.5 -15v-236q11 9 41.5 19.5t65.5 10.5q46 0 87.5 -14.5t73 -44.5t50 -75.5t18.5 -106.5q0 -50 -17.5 -94t-48 -77t-72 -52t-90.5 -19q-38 0 -67 11t-49 25q-23 16 -40 36l-13 -38q-3 -10 -9.5 -16.5t-14.5 -6.5h-45q-8 0 -15 6.5t-7 15.5v476
q-5 9 -13 21t-20 22.5t-28.5 17.5t-38.5 7q-15 0 -30 -3.5t-27.5 -12.5t-20 -24.5t-7.5 -39.5v-24h76q9 0 15.5 -6t6.5 -16v-93q0 -9 -6.5 -15.5t-15.5 -6.5h-76v-303q0 -9 -7 -15.5t-16 -6.5h-109q-8 0 -14 6.5t-6 15.5v303h-41q-10 0 -16 6.5t-6 15.5v93q0 22 22 22h41v26
q0 55 16.5 97t45 69.5t67.5 41.5t83 14q33 0 58.5 -5t45 -14t34 -20.5t27.5 -24.5l14 32q10 22 30 22h46zM572 232q0 -43 27.5 -70.5t70.5 -27.5q42 0 69.5 27.5t27.5 70.5q0 42 -27.5 69t-69.5 27q-43 0 -70.5 -27t-27.5 -69z" />
    <glyph glyph-name="f_f_k.liga" unicode="ffk" horiz-adv-x="1225" 
d="M408 462v20q0 6 0.5 16t1.5 18q-12 17 -33.5 30t-56.5 13q-20 0 -33 -7.5t-21 -19.5t-11.5 -25.5t-3.5 -25.5v-19h157zM767 0q-8 0 -15 6.5t-7 15.5v476q-5 9 -13 21t-20 22.5t-28.5 17.5t-38.5 7q-15 0 -30 -3.5t-27.5 -12.5t-20 -24.5t-7.5 -39.5v-24h76q9 0 15.5 -6
t6.5 -16v-93q0 -9 -6.5 -15.5t-15.5 -6.5h-76v-303q0 -9 -7 -15.5t-15 -6.5h-108q-8 0 -15 6.5t-7 15.5v303h-157v-303q0 -9 -7 -15.5t-16 -6.5h-107q-8 0 -15 6.5t-7 15.5v303h-50q-10 0 -16 6.5t-6 15.5v93q0 22 22 22h50v19q0 45 14.5 85t42 70t68 47t92.5 17
q28 0 49.5 -4.5t38.5 -12.5t30 -18.5t24 -21.5q30 35 70 51t92 16q33 0 58.5 -5t45 -14t34 -20.5t27.5 -24.5l14 32q10 22 30 22h46q9 0 15.5 -7t6.5 -15v-391l130 161q5 5 12 9.5t17 4.5h123q15 0 21.5 -12.5t-3.5 -23.5l-154 -178l163 -213q9 -11 3.5 -23t-20.5 -12h-138
q-3 0 -8 2.5t-8 6.5l-138 201v-188q0 -9 -6.5 -15.5t-15.5 -6.5h-108z" />
    <glyph glyph-name="f_h.liga" unicode="fh" horiz-adv-x="923" 
d="M561 700q9 0 15.5 -7t6.5 -15v-239q48 33 98 33q54 0 91 -18.5t59 -50.5t31.5 -74.5t9.5 -90.5v-216q0 -9 -7 -15.5t-15 -6.5h-108q-10 0 -16 6.5t-6 15.5v218q0 39 -15.5 64.5t-53.5 25.5q-28 0 -48 -19t-20 -71v-218q0 -11 -5 -16.5t-20 -5.5h-105q-8 0 -15 6.5
t-7 15.5v476q-5 9 -13 21t-20 22.5t-28.5 17.5t-38.5 7q-15 0 -30 -3.5t-27.5 -12.5t-20 -24.5t-7.5 -39.5v-24h76q9 0 15.5 -6t6.5 -16v-93q0 -9 -6.5 -15.5t-15.5 -6.5h-76v-303q0 -9 -7 -15.5t-16 -6.5h-109q-8 0 -14 6.5t-6 15.5v303h-41q-10 0 -16 6.5t-6 15.5v93
q0 22 22 22h41v26q0 55 16.5 97t45 69.5t67.5 41.5t83 14q33 0 58.5 -5t45 -14t34 -20.5t27.5 -24.5l14 32q10 22 30 22h46z" />
    <glyph glyph-name="f_f_b.liga" unicode="ffb" horiz-adv-x="1264" 
d="M875 700q9 0 15.5 -7t6.5 -15v-236q11 9 41.5 19.5t65.5 10.5q46 0 87.5 -14.5t73 -44.5t50 -75.5t18.5 -106.5q0 -50 -17.5 -94t-48 -77t-72 -52t-90.5 -19q-38 0 -67 11t-49 25q-23 16 -40 36l-13 -38q-3 -10 -9.5 -16.5t-14.5 -6.5h-45q-8 0 -15 6.5t-7 15.5v476
q-5 9 -13 21t-20 22.5t-28.5 17.5t-38.5 7q-15 0 -30 -3.5t-27.5 -12.5t-20 -24.5t-7.5 -39.5v-24h76q9 0 15.5 -6t6.5 -16v-93q0 -9 -6.5 -15.5t-15.5 -6.5h-76v-303q0 -9 -7 -15.5t-15 -6.5h-108q-8 0 -15 6.5t-7 15.5v303h-157v-303q0 -9 -7 -15.5t-16 -6.5h-107
q-8 0 -15 6.5t-7 15.5v303h-50q-10 0 -16 6.5t-6 15.5v93q0 22 22 22h50v19q0 45 14.5 85t42 70t68 47t92.5 17q28 0 49.5 -4.5t38.5 -12.5t30 -18.5t24 -21.5q30 35 70 51t92 16q33 0 58.5 -5t45 -14t34 -20.5t27.5 -24.5l14 32q10 22 30 22h46zM408 462v20q0 6 0.5 16
t1.5 18q-12 17 -33.5 30t-56.5 13q-20 0 -33 -7.5t-21 -19.5t-11.5 -25.5t-3.5 -25.5v-19h157zM886 232q0 -43 27.5 -70.5t70.5 -27.5q42 0 69.5 27.5t27.5 70.5q0 42 -27.5 69t-69.5 27q-43 0 -70.5 -27t-27.5 -69z" />
    <glyph glyph-name=".notdef" horiz-adv-x="599" 
d="M50 670q0 30 30 30h439q30 0 30 -30v-640q0 -30 -30 -30h-439q-30 0 -30 30v640zM262 314q0 -5 4.5 -8.5t9.5 -3.5h36q15 0 15 13v26q0 18 16.5 31.5t36 29t36 36t16.5 53.5q0 24 -9.5 44.5t-26.5 35.5t-39.5 23t-49.5 8q-33 0 -57 -10t-41 -21q-19 -13 -32 -30
q-3 -5 -4 -9.5t4 -8.5l22 -22q8 -6 17 0q5 4 12 11t17 14t23.5 11.5t31.5 4.5q30 0 45.5 -16t15.5 -36q0 -24 -15.5 -39t-34 -30t-34 -32.5t-15.5 -45.5v-29zM245 156q0 -20 14 -34t34 -14t34.5 14t14.5 34t-14.5 34t-34.5 14t-34 -14t-14 -34z" />
    <glyph glyph-name="glyph1" horiz-adv-x="0" 
 />
    <glyph glyph-name="glyph1" horiz-adv-x="0" 
 />
    <glyph glyph-name="uni000D" unicode="&#xd;" horiz-adv-x="0" 
 />
    <glyph glyph-name="space" unicode=" " horiz-adv-x="240" 
 />
    <glyph glyph-name="exclam" unicode="!" horiz-adv-x="276" 
d="M117 272q-7 0 -12.5 5t-6.5 11l-49 279v114q0 8 5.5 13.5t13.5 5.5h140q8 0 13.5 -5.5t5.5 -13.5v-112l-49 -281q-1 -6 -6.5 -11t-12.5 -5h-42zM43 84q0 19 7.5 36.5t20.5 31t30 21t36 7.5t36.5 -7.5t31 -21t21 -31t7.5 -36.5t-7.5 -36t-21 -30t-31 -20.5t-36.5 -7.5
t-36 7.5t-30 20.5t-20.5 30t-7.5 36z" />
    <glyph glyph-name="quotedbl" unicode="&#x22;" horiz-adv-x="390" 
d="M244 501q-8 0 -13.5 5.5t-5.5 13.5v161q0 8 5.5 13.5t13.5 5.5h104q10 0 15.5 -7t2.5 -18l-48 -159q-2 -6 -7.5 -10.5t-10.5 -4.5h-56zM63 501q-8 0 -13.5 5.5t-5.5 13.5v161q0 8 5.5 13.5t13.5 5.5h104q10 0 15.5 -7t2.5 -18l-48 -159q-2 -6 -7.5 -10.5t-10.5 -4.5h-56z
" />
    <glyph glyph-name="numbersign" unicode="#" horiz-adv-x="581" 
d="M140 185h-71q-8 0 -13.5 5.5t-5.5 13.5v17q0 19 19 19h78l24 161h-73q-8 0 -13.5 5.5t-5.5 13.5v17q0 8 5.5 13.5t13.5 5.5h80l32 228q1 6 6 11t12 5h17q8 0 14 -6.5t4 -15.5l-30 -222h161l31 228q1 6 6.5 11t12.5 5h16q9 0 15 -6.5t4 -15.5l-30 -222h60q8 0 13.5 -5.5
t5.5 -13.5v-17q0 -8 -5.5 -13.5t-13.5 -5.5h-68l-23 -161h62q8 0 13.5 -5.5t5.5 -13.5v-17q0 -8 -5.5 -13.5t-13.5 -5.5h-70l-23 -169q-2 -16 -19 -16h-16q-9 0 -14.5 6.5t-4.5 15.5l23 163h-162l-22 -169q-1 -7 -6.5 -11.5t-12.5 -4.5h-16q-10 0 -15.5 6.5t-3.5 15.5z
M364 240l22 161h-160l-24 -161h162z" />
    <glyph glyph-name="dollar" unicode="$" 
d="M268 -9q-37 3 -68 12t-55 20.5t-40.5 22.5t-24.5 18q-11 9 -11 18.5t7 22.5l35 66q12 22 32 8q26 -20 55 -36.5t70 -24.5v168q-35 18 -70.5 39t-65 47.5t-48 60t-18.5 78.5q0 37 13 71t38.5 60.5t63 44t87.5 22.5v32q0 8 5.5 13.5t13.5 5.5h19q8 0 13.5 -5.5t5.5 -13.5
v-33q34 -3 63.5 -12t53.5 -20t41.5 -22.5t27.5 -18.5q9 -5 9 -16t-3 -16l-56 -79q-6 -8 -13.5 -9.5t-13.5 3.5q-22 16 -45 31t-64 29v-147q33 -18 70 -38t68.5 -46.5t52.5 -62.5t21 -87q0 -39 -14.5 -74t-42 -63t-67 -46.5t-88.5 -22.5v-104q0 -8 -5.5 -13t-13.5 -5h-19
q-8 0 -13.5 5t-5.5 13v104zM268 585q-24 -3 -40.5 -18t-16.5 -34q0 -27 13.5 -43.5t43.5 -34.5v130zM325 115q23 6 38.5 22.5t15.5 39.5q0 47 -54 84v-146z" />
    <glyph glyph-name="percent" unicode="%" horiz-adv-x="700" 
d="M182 441q-28 0 -52.5 10.5t-43 29t-29 43t-10.5 52.5t10.5 52.5t29 42.5t43 28.5t52.5 10.5t52.5 -10.5t43 -28.5t29 -42.5t10.5 -52.5t-10.5 -52.5t-29 -43t-43 -29t-52.5 -10.5zM464 690q3 5 8 7.5t9 2.5h76q11 0 16.5 -8.5t0.5 -18.5l-345 -663q-2 -3 -7.5 -6.5
t-9.5 -3.5h-74q-11 0 -16.5 8.5t-0.5 18.5zM182 541q14 0 24 10.5t10 24.5t-10 24t-24 10t-24.5 -10t-10.5 -24t10.5 -24.5t24.5 -10.5zM382 125q0 28 10.5 52.5t29 43t43 29t52.5 10.5t53 -10.5t43.5 -29t29 -43t10.5 -52.5t-10.5 -52.5t-29 -43t-43.5 -29t-53 -10.5
t-52.5 10.5t-43 29t-29 43t-10.5 52.5zM483 125q0 -14 10 -24t24 -10t24.5 10t10.5 24t-10.5 24.5t-24.5 10.5t-24 -10.5t-10 -24.5z" />
    <glyph glyph-name="ampersand" unicode="&#x26;" horiz-adv-x="691" 
d="M49 180q0 54 21 92t47 62q30 28 69 47v3l-20 21q-30 32 -48 65.5t-18 77.5q0 28 13 57t38.5 52.5t62.5 38t85 14.5q43 0 78.5 -13t61.5 -35.5t40.5 -53t14.5 -65.5q0 -41 -17 -73t-37.5 -54t-37.5 -34.5t-17 -15.5l90 -92q10 16 19 37.5t14 39.5q5 16 12 25.5t27 1.5
l73 -26q8 -3 11.5 -9t4.5 -12.5t-0.5 -13.5t-2.5 -11q-9 -26 -20 -48.5t-20.5 -39.5t-16 -26.5t-6.5 -10.5l85 -79q5 -5 8.5 -9t4.5 -9t-2.5 -12t-12.5 -16l-56 -57q-9 -8 -21 -8.5t-24 11.5l-65 65q-14 -13 -32.5 -26.5t-45 -25t-61 -18.5t-79.5 -7q-48 0 -88.5 15
t-69.5 41t-45.5 60.5t-16.5 73.5zM301 449q18 9 32 21q12 11 22.5 27t10.5 37q0 26 -18.5 45t-50.5 19q-28 0 -46 -15.5t-18 -38.5q0 -19 8 -31t19 -23zM192 200q0 -36 27 -60.5t67 -24.5q29 0 49.5 7.5t33.5 17.5q15 11 25 26l-131 139q-20 -8 -36 -22q-14 -12 -24.5 -32.5
t-10.5 -50.5z" />
    <glyph glyph-name="quotesingle" unicode="'" horiz-adv-x="208" 
d="M63 501q-8 0 -13.5 5.5t-5.5 13.5v161q0 8 5.5 13.5t13.5 5.5h103q10 0 15.5 -7t2.5 -18l-48 -159q-2 -6 -7.5 -10.5t-10.5 -4.5h-55v0z" />
    <glyph glyph-name="parenleft" unicode="(" horiz-adv-x="338" 
d="M289 -79q-28 2 -58 9.5t-58.5 24t-53.5 45t-43.5 71.5t-29.5 103t-11 141q0 121 23.5 197t60.5 118.5t82 59t88 18.5q8 1 14 -4.5t6 -13.5l4 -85q0 -5 -4 -11t-9 -8q-63 -20 -89 -88.5t-26 -182.5q0 -115 26 -183.5t89 -88.5q5 -2 9 -8t4 -11l-4 -84q-2 -19 -20 -19z" />
    <glyph glyph-name="parenright" unicode=")" horiz-adv-x="338" 
d="M25 25q0 5 4 10.5t9 7.5q63 20 89 88.5t26 183.5q0 114 -26 182.5t-89 88.5q-5 2 -9 8t-4 11l4 85q0 8 6 13.5t14 4.5q43 -2 88 -18.5t82 -59t60.5 -118.5t23.5 -197q0 -81 -11 -141t-29.5 -103t-43.5 -71.5t-53.5 -45t-58.5 -24t-58 -9.5q-8 0 -14 5t-6 13l-4 86v0z" />
    <glyph glyph-name="asterisk" unicode="*" horiz-adv-x="444" 
d="M201 347q-8 0 -13.5 5.5t-5.5 13.5l2 90l-74 -51q-6 -5 -14 -3t-12 8l-22 35q-5 7 -4 14.5t9 12.5l86 51l-86 52q-7 5 -8.5 12.5t2.5 14.5q8 11 13 19t11 16q5 5 12 7t13 -3l74 -51l-2 91q0 8 5.5 13.5t13.5 5.5h41q8 0 13.5 -5.5t5.5 -13.5l-2 -91l75 51q6 4 14 2.5
t12 -7.5l22 -34q5 -7 4 -15t-9 -13l-86 -51l86 -52q8 -5 9 -12.5t-3 -13.5l-25 -35q-4 -6 -11.5 -7.5t-13.5 2.5l-74 50l2 -89q0 -8 -5.5 -13.5t-13.5 -5.5h-41v0z" />
    <glyph glyph-name="plus" unicode="+" 
d="M246 292h-146q-8 0 -13.5 5.5t-5.5 13.5v70q0 8 5.5 13.5t13.5 5.5h146v147q0 8 5.5 13t13.5 5h70q8 0 13.5 -5t5.5 -13v-147h147q8 0 13 -5.5t5 -13.5v-70q0 -8 -5 -13.5t-13 -5.5h-147v-146q0 -8 -5.5 -13t-13.5 -5h-70q-8 0 -13.5 5t-5.5 13v146z" />
    <glyph glyph-name="comma" unicode="," horiz-adv-x="290" 
d="M32 98q0 42 30 70.5t76 28.5q24 0 45 -8.5t37.5 -26.5t26 -45.5t9.5 -65.5q0 -41 -7.5 -77.5t-20.5 -68t-29 -58.5t-32 -50q-11 -15 -27 -2l-40 28q-7 6 -6 13.5t6 15.5q24 35 42 74t18 77q0 6 -1 10q-17 -12 -43 -12q-42 0 -63 28.5t-21 68.5z" />
    <glyph glyph-name="hyphen" unicode="-" horiz-adv-x="365" 
d="M68 178q-8 0 -13.5 5t-5.5 13v91q0 19 19 19h229q19 0 19 -19v-91q0 -8 -5.5 -13t-13.5 -5h-229v0z" />
    <glyph glyph-name="period" unicode="." horiz-adv-x="282" 
d="M31 98q0 23 8.5 43t23.5 35t35 24t42 9t42 -9t35.5 -24t24.5 -35t9 -43q0 -22 -9 -42t-24.5 -35t-35.5 -23.5t-42 -8.5t-42 8.5t-35 23.5t-23.5 35t-8.5 42z" />
    <glyph glyph-name="slash" unicode="/" horiz-adv-x="430" 
d="M246 687q4 13 18 13h98q11 0 16 -7t2 -18l-195 -662q-2 -5 -7.5 -9t-10.5 -4h-99q-10 0 -15.5 7t-2.5 18z" />
    <glyph glyph-name="zero" unicode="0" horiz-adv-x="639" 
d="M319 -10q-63 0 -112 24.5t-82.5 71t-51 113.5t-17.5 151q0 85 17.5 151.5t51 113t82.5 71t112 24.5t112 -24.5t83 -71t51.5 -113t17.5 -151.5q0 -84 -17.5 -151t-51.5 -113.5t-83 -71t-112 -24.5zM319 135q48 0 77.5 56t29.5 159q0 102 -29.5 158t-77.5 56
q-47 0 -76.5 -56t-29.5 -158q0 -103 29.5 -159t76.5 -56z" />
    <glyph glyph-name="one" unicode="1" horiz-adv-x="391" 
d="M149 483h-99q-8 0 -13 6t-5 14v65q0 6 2 9.5t4 5.5l134 105q16 12 36 12h75q8 0 13.5 -5.5t5.5 -13.5v-661q0 -8 -5.5 -14t-13.5 -6h-114q-9 0 -14.5 6t-5.5 14v463z" />
    <glyph glyph-name="two" unicode="2" horiz-adv-x="553" 
d="M289 132h179q8 0 14 -6t6 -14v-92q0 -8 -6 -14t-14 -6h-412q-8 0 -13.5 6t-5.5 14v8q0 8 1.5 12t11.5 17q25 33 60.5 81.5t73 99.5t71.5 99t55 81q10 16 18 36t8 41q0 30 -23.5 52.5t-66.5 22.5q-32 0 -56 -16t-44 -36q-6 -6 -14.5 -6t-14.5 6l-63 64q-5 5 -5.5 13
t4.5 14q15 16 34.5 33.5t45 32.5t57 25t69.5 10q55 0 98.5 -16.5t73.5 -45t46 -66t16 -80.5q0 -41 -10.5 -69t-29.5 -64q-12 -22 -32.5 -52t-43.5 -62t-46.5 -64t-41.5 -57v-2z" />
    <glyph glyph-name="three" unicode="3" horiz-adv-x="551" 
d="M45 79q-5 6 -4.5 13.5t5.5 12.5l60 67q5 5 12.5 6t13.5 -4q19 -16 46 -31.5t67 -15.5q38 0 63.5 22t25.5 60t-32.5 61t-89.5 23h-58q-8 0 -13.5 5.5t-5.5 13.5v86q0 8 5.5 13.5t13.5 5.5h58q54 0 82 22.5t28 55.5q0 34 -21.5 56t-60.5 22q-35 0 -56.5 -14t-33.5 -27
q-5 -7 -13 -7t-15 5l-63 62q-6 5 -5.5 13.5t5.5 13.5q13 14 32 30t43 29.5t54.5 22.5t67.5 9q45 0 85.5 -13t71 -38t48.5 -60t18 -78q0 -30 -10 -55.5t-25.5 -45.5t-34.5 -34.5t-36 -22.5v-4q21 -7 43 -20.5t40 -34t29.5 -48t11.5 -63.5q0 -42 -17.5 -79t-49 -64.5
t-76 -43.5t-97.5 -16q-49 0 -85 10t-61.5 24.5t-41.5 29.5t-24 25z" />
    <glyph glyph-name="four" unicode="4" horiz-adv-x="642" 
d="M48 145q-8 0 -14 6t-6 14v89q0 9 1.5 16.5t12.5 20.5l346 413q2 2 5 4t10 2h74q8 0 14 -6t6 -14v-417h82q20 0 20 -19v-89q0 -8 -5.5 -14t-14.5 -6h-82v-125q0 -8 -5.5 -14t-13.5 -6h-109q-8 0 -13.5 6t-5.5 14v125h-302zM189 269h162v195h-2l-160 -193v-2z" />
    <glyph glyph-name="five" unicode="5" horiz-adv-x="567" 
d="M65 75q-11 12 -11.5 19t8.5 16l63 66q5 5 13.5 5.5t13.5 -4.5q29 -24 57 -36.5t66 -12.5q42 0 70 27.5t28 70.5q0 48 -28 73.5t-79 25.5h-158q-16 0 -24 12t-8 25v319q0 8 5.5 13.5t13.5 5.5h332q8 0 14 -5.5t6 -13.5v-91q0 -8 -6 -13.5t-14 -5.5h-212v-111h73
q53 0 96.5 -16t74 -46t47.5 -72t17 -94q0 -51 -19.5 -95t-53.5 -76.5t-81 -51.5t-101 -19q-40 0 -73.5 9t-59 22t-43.5 27.5t-27 26.5z" />
    <glyph glyph-name="six" unicode="6" horiz-adv-x="581" 
d="M50 269q0 76 19 136.5t49.5 108.5t69 83t77 60t73 40t58.5 22t32 -16l30 -80q3 -9 -0.5 -17t-19.5 -13q-18 -6 -49 -18.5t-63 -33t-59 -49t-36 -65.5q20 9 48.5 15t49.5 6q36 0 73 -13.5t66 -41t47.5 -69.5t18.5 -99q0 -49 -18.5 -92t-51 -75t-75.5 -50.5t-91 -18.5
q-60 0 -106 21t-77.5 58.5t-48 89t-16.5 111.5zM197 230q0 -20 8 -38t21.5 -31.5t31.5 -21.5t38 -8q21 0 39 8t31.5 21.5t21 31.5t7.5 38t-7.5 38.5t-21 32t-31.5 21.5t-39 8q-20 0 -38 -8t-31.5 -21.5t-21.5 -32t-8 -38.5z" />
    <glyph glyph-name="seven" unicode="7" horiz-adv-x="525" 
d="M305 569h-237q-8 0 -14 5.5t-6 13.5v93q0 8 6 13.5t14 5.5h437q17 0 17 -15v-4q0 -4 -0.5 -6.5t-3.5 -9.5l-304 -635q-9 -20 -20 -25t-22 -5h-102q-9 0 -15 5.5t-6 14.5q0 8 1.5 13t4.5 11l250 523v2z" />
    <glyph glyph-name="eight" unicode="8" horiz-adv-x="610" 
d="M54 186q0 34 12.5 62.5t31.5 50.5t41 37t41 23v4q-21 12 -40 26.5t-33.5 33.5t-23.5 43.5t-9 54.5q0 43 18 78t49 60t72.5 38t88.5 13q49 0 92 -13t74.5 -38t49.5 -60t18 -78q0 -29 -9.5 -53.5t-24.5 -44t-34 -34.5t-38 -25v-5q22 -9 44.5 -25t40.5 -37.5t29.5 -49.5
t11.5 -61q0 -46 -18 -82t-51 -61.5t-80 -39t-105 -13.5q-56 0 -101.5 13.5t-78 39t-50.5 61.5t-18 82zM304 431q37 13 55.5 35.5t18.5 48.5t-19.5 46.5t-54.5 20.5q-32 0 -52 -20.5t-20 -46.5q0 -57 72 -84zM221 194q0 -35 22.5 -56.5t62.5 -21.5q38 0 60.5 22t22.5 56
q0 29 -21.5 54.5t-63.5 39.5q-40 -14 -61.5 -39.5t-21.5 -54.5z" />
    <glyph glyph-name="nine" unicode="9" horiz-adv-x="582" 
d="M123 77q-3 10 0.5 17.5t19.5 12.5q18 6 49 18t63 31.5t59 47.5t36 67q-20 -8 -48.5 -14.5t-49.5 -6.5q-36 0 -73 13.5t-66 41.5t-47.5 70t-18.5 99q0 49 18.5 92t51 75t75.5 50.5t91 18.5q60 0 106 -21.5t77.5 -59t48 -88.5t16.5 -111q0 -76 -18 -136.5t-47.5 -107.5
t-67 -82t-76 -59.5t-74.5 -40t-63 -22.5q-24 -7 -32 16zM285 369q20 0 38 8t31.5 21.5t21.5 31.5t8 39q0 20 -8 38t-21.5 31.5t-31.5 21.5t-38 8q-21 0 -39 -8t-31.5 -21.5t-21 -31.5t-7.5 -38q0 -42 28.5 -71t70.5 -29z" />
    <glyph glyph-name="colon" unicode=":" horiz-adv-x="279" 
d="M139 289q-38 0 -64.5 26.5t-26.5 64.5t26.5 65t64.5 27q19 0 36 -7.5t29.5 -20t20 -29t7.5 -35.5t-7.5 -35.5t-20 -29t-29.5 -19.5t-36 -7zM48 81q0 38 26.5 65t64.5 27q19 0 36 -7.5t29.5 -20t20 -29t7.5 -35.5t-7.5 -36t-20 -29.5t-29.5 -19.5t-36 -7t-35.5 7t-29 19.5
t-19.5 29.5t-7 36z" />
    <glyph glyph-name="semicolon" unicode=";" horiz-adv-x="284" 
d="M140 289q-39 0 -65 26.5t-26 64.5q0 19 7 35.5t19 29t28.5 20t36.5 7.5q38 0 65 -27t27 -65t-27 -64.5t-65 -26.5zM51 78q0 35 24.5 58t61.5 23q19 0 36.5 -7t30.5 -21.5t21 -36.5t8 -53q0 -33 -6.5 -62.5t-16.5 -55t-23 -47.5t-26 -41q-10 -14 -23 -1l-32 22
q-5 5 -4.5 11t4.5 13q20 27 34.5 59t14.5 63q0 4 -1 8q-13 -10 -35 -10q-34 0 -51 23t-17 55z" />
    <glyph glyph-name="less" unicode="&#x3c;" 
d="M101 210q-4 2 -7 7t-3 10v5q0 5 3 10t7 7l350 212q10 6 19 1t9 -17v-87q0 -3 -2.5 -7.5t-5.5 -6.5l-191 -113l191 -109q3 -2 5.5 -6.5t2.5 -7.5v-87q0 -12 -9 -17t-19 1l-350 205v0z" />
    <glyph glyph-name="equal" unicode="=" 
d="M130 331q-8 0 -13.5 5.5t-5.5 13.5v70q0 8 5.5 13.5t13.5 5.5h339q8 0 13.5 -5.5t5.5 -13.5v-70q0 -8 -5.5 -13.5t-13.5 -5.5h-339zM130 120q-8 0 -13.5 5.5t-5.5 13.5v71q0 8 5.5 13.5t13.5 5.5h339q8 0 13.5 -5.5t5.5 -13.5v-71q0 -8 -5.5 -13.5t-13.5 -5.5h-339z" />
    <glyph glyph-name="greater" unicode="&#x3e;" 
d="M120 108q0 3 2.5 7.5t5.5 6.5l191 109l-191 113q-3 2 -5.5 6.5t-2.5 7.5v87q0 12 9 17t19 -1l350 -212q4 -2 7 -7t3 -10v-5q0 -5 -3 -10t-7 -7l-350 -205q-10 -6 -19 -1t-9 17v87z" />
    <glyph glyph-name="question" unicode="?" horiz-adv-x="512" 
d="M181 272q-8 0 -13.5 5.5t-5.5 13.5v42q0 31 21.5 55t47.5 45t47.5 41t21.5 44q0 23 -21.5 41t-53.5 18q-26 0 -43.5 -9.5t-30 -19.5t-22 -15t-18.5 3l-61 60q-6 5 -5.5 13t5.5 13q22 25 53 44q26 17 63.5 30.5t86.5 13.5q40 0 76.5 -13t65 -36.5t45.5 -55.5t17 -70
q0 -33 -11 -56.5t-28 -41.5t-36 -33t-36 -31t-28 -35.5t-11 -46.5q0 -8 -5.5 -13.5t-13.5 -5.5h-107zM140 84q0 19 7.5 36.5t20.5 31t30 21t36 7.5t36.5 -7.5t31 -21t21 -31t7.5 -36.5t-7.5 -36t-21 -30t-31 -20.5t-36.5 -7.5t-36 7.5t-30 20.5t-20.5 30t-7.5 36z" />
    <glyph glyph-name="at" unicode="@" horiz-adv-x="1031" 
d="M57 223q0 106 35.5 195.5t99.5 154.5t153 101t196 36q106 0 188.5 -32t139.5 -88.5t86.5 -134t29.5 -167.5q0 -50 -16 -98t-47 -85.5t-75 -61t-99 -23.5q-52 0 -79 23t-41 55h-8q-17 -32 -51 -55t-82 -23q-44 0 -78 17.5t-57.5 46.5t-36 66.5t-12.5 78.5q0 42 14 80.5
t39 67.5t59.5 46t75.5 17q21 0 39.5 -6t34 -15t28 -20t21.5 -21q3 7 6 16.5t7 17t9 13t12 5.5h41q8 0 13.5 -5.5t5.5 -13.5v-168q0 -33 5 -52t13 -29.5t18 -13.5t20 -3q20 0 36 11t26.5 29.5t16 43t5.5 51.5q0 65 -19.5 120.5t-58.5 96.5t-97.5 64t-136.5 23q-79 0 -143 -25
t-109.5 -72t-70 -114t-24.5 -150q0 -56 17 -107.5t47.5 -94.5t72.5 -76.5t93 -54.5q7 -3 10.5 -9.5t1.5 -13.5l-30 -82q-3 -8 -9 -11.5t-14 -0.5q-69 23 -127.5 67t-101.5 103t-67.5 130.5t-24.5 149.5zM427 233q0 -42 22 -63.5t51 -21.5q31 0 51 25.5t20 60.5
q0 38 -20.5 62t-53.5 24q-32 0 -51 -25.5t-19 -61.5z" />
    <glyph glyph-name="A" unicode="A" horiz-adv-x="670" 
d="M17 0q-11 0 -16.5 8t-0.5 18l313 673q5 11 17 11h10q11 0 17 -11l313 -673q5 -10 -0.5 -18t-16.5 -8h-111q-14 0 -21 5.5t-14 19.5l-36 79h-272l-36 -80q-4 -9 -12.5 -16.5t-23.5 -7.5h-110zM411 240l-76 165h-1l-75 -165h152z" />
    <glyph glyph-name="B" unicode="B" horiz-adv-x="610" 
d="M432 356q23 -8 46.5 -20.5t42.5 -32t31 -47t12 -63.5q0 -44 -17.5 -80t-47 -61t-69 -38.5t-84.5 -13.5h-248q-8 0 -13.5 5.5t-5.5 13.5v662q0 8 5.5 13.5t13.5 5.5h233q44 0 83 -14.5t68.5 -39.5t46.5 -59t17 -73q0 -30 -10 -55t-26 -45t-36.5 -34t-41.5 -23v-1zM318 416
q29 0 47 21t18 51t-18 49t-47 19h-83v-140h83zM320 143q38 0 58 18.5t20 53.5q0 30 -19.5 50.5t-56.5 20.5h-87v-143h85z" />
    <glyph glyph-name="C" unicode="C" horiz-adv-x="679" 
d="M39 349q0 75 28.5 141t77 114.5t114.5 77t141 28.5t133 -23t109 -70q15 -14 1 -28l-78 -81q-5 -5 -12.5 -5t-12.5 5q-31 27 -64.5 39t-70.5 12q-42 0 -78 -16.5t-62.5 -44.5t-41 -65.5t-14.5 -79.5t15 -78.5t41 -64.5t62.5 -44t78.5 -16t74.5 12.5t59.5 35.5q5 5 13 4.5
t13 -5.5l78 -83q5 -5 4.5 -13.5t-5.5 -13.5q-51 -50 -113.5 -73.5t-129.5 -23.5q-75 0 -141 28t-114.5 76.5t-77 114t-28.5 140.5z" />
    <glyph glyph-name="D" unicode="D" horiz-adv-x="732" 
d="M79 681q0 8 5 13.5t13 5.5h244q72 0 136 -27.5t112 -75t75.5 -111t27.5 -135.5q0 -73 -27.5 -137t-75.5 -111.5t-112 -75t-136 -27.5h-244q-8 0 -13 5.5t-5 13.5v662zM340 148q42 0 76.5 15.5t59 43t37.5 64.5t13 80q0 42 -13 79t-37.5 64.5t-59 43t-76.5 15.5h-105v-405
h105z" />
    <glyph glyph-name="E" unicode="E" horiz-adv-x="578" 
d="M79 681q0 8 5.5 13.5t13.5 5.5h414q8 0 13.5 -5.5t5.5 -13.5v-109q0 -8 -5.5 -13.5t-13.5 -5.5h-277v-124h228q8 0 13.5 -5.5t5.5 -13.5v-109q0 -8 -5.5 -13.5t-13.5 -5.5h-228v-135h277q8 0 13.5 -5.5t5.5 -13.5v-109q0 -8 -5.5 -13.5t-13.5 -5.5h-414q-8 0 -13.5 5.5
t-5.5 13.5v662z" />
    <glyph glyph-name="F" unicode="F" horiz-adv-x="556" 
d="M79 681q0 8 5.5 13.5t13.5 5.5h414q8 0 13.5 -5.5t5.5 -13.5v-109q0 -8 -5.5 -13.5t-13.5 -5.5h-277v-144h228q8 0 13.5 -5.5t5.5 -13.5v-109q0 -8 -5.5 -13.5t-13.5 -5.5h-228v-243q0 -8 -5.5 -13.5t-13.5 -5.5h-118q-8 0 -13.5 5.5t-5.5 13.5v662z" />
    <glyph glyph-name="G" unicode="G" horiz-adv-x="709" 
d="M39 349q0 75 28 140.5t77 114.5t114 77t140 28q63 0 128 -24.5t116 -69.5q7 -5 7.5 -13t-5.5 -14l-79 -84q-13 -11 -27 -1q-29 26 -61.5 37t-69.5 11q-41 0 -77 -16t-62.5 -43.5t-42 -64.5t-15.5 -78t15.5 -77t42.5 -63t63 -43t77 -16q22 0 44 3.5t45 12.5v58h-63
q-8 0 -13.5 5t-5.5 13v99q0 19 19 19h201q8 0 13 -5.5t5 -13.5l1 -269q0 -7 -2.5 -10.5t-5.5 -5.5q-31 -19 -70 -33q-33 -12 -78.5 -22t-99.5 -10q-75 0 -140 28t-114 76t-77 113.5t-28 140.5z" />
    <glyph glyph-name="H" unicode="H" horiz-adv-x="758" 
d="M79 681q0 8 5.5 13.5t13.5 5.5h119q8 0 13.5 -5.5t5.5 -13.5v-252h286v252q0 8 5.5 13.5t13.5 5.5h119q8 0 13.5 -5.5t5.5 -13.5v-662q0 -8 -5.5 -13.5t-13.5 -5.5h-119q-8 0 -13.5 5.5t-5.5 13.5v263h-286v-263q0 -8 -5.5 -13.5t-13.5 -5.5h-119q-8 0 -13.5 5.5
t-5.5 13.5v662z" />
    <glyph glyph-name="I" unicode="I" horiz-adv-x="316" 
d="M79 681q0 8 5.5 13.5t13.5 5.5h120q8 0 13.5 -5.5t5.5 -13.5v-662q0 -8 -5.5 -13.5t-13.5 -5.5h-120q-8 0 -13.5 5.5t-5.5 13.5v662z" />
    <glyph glyph-name="J" unicode="J" horiz-adv-x="450" 
d="M9 63q-8 13 2 25l68 67q6 5 13.5 5.5t13.5 -5.5q9 -9 21.5 -15t29.5 -6q10 0 21 2.5t19 10t13.5 20t5.5 33.5v481q0 8 5.5 13.5t13.5 5.5h122q8 0 13.5 -5.5t5.5 -13.5v-482q0 -52 -17 -91t-45.5 -65.5t-66 -39.5t-77.5 -13q-36 0 -63.5 8.5t-47 20t-32 24t-18.5 20.5z
" />
    <glyph glyph-name="K" unicode="K" horiz-adv-x="663" 
d="M79 676q0 10 6.5 17t17.5 7h117q10 0 17 -7t7 -17v-267l222 281q3 4 8.5 7t10.5 3h126q14 0 20 -13t-2 -24l-234 -297l255 -328q8 -11 1.5 -24t-20.5 -13h-138q-5 0 -10.5 2.5t-7.5 4.5l-231 310v-294q0 -10 -7 -17t-17 -7h-117q-11 0 -17.5 7t-6.5 17v652z" />
    <glyph glyph-name="L" unicode="L" horiz-adv-x="510" 
d="M79 681q0 8 5.5 13.5t13.5 5.5h119q8 0 13.5 -5.5t5.5 -13.5v-534h238q8 0 13.5 -5.5t5.5 -13.5v-109q0 -8 -5.5 -13.5t-13.5 -5.5h-376q-8 0 -13.5 5.5t-5.5 13.5v662z" />
    <glyph glyph-name="M" unicode="M" horiz-adv-x="878" 
d="M155 694q1 7 6.5 11.5t11.5 4.5h16q4 0 9.5 -2.5t7.5 -7.5l232 -432h2l232 432q2 5 7.5 7.5t9.5 2.5h16q6 0 11.5 -4.5t6.5 -11.5l113 -672q2 -10 -4 -16t-15 -6h-118q-7 0 -12.5 5t-6.5 11l-45 309h-2l-168 -324q-2 -5 -7.5 -8t-9.5 -3h-18q-5 0 -10 3t-7 8l-169 324h-2
l-44 -309q-1 -6 -6 -11t-13 -5h-118q-9 0 -15 6t-4 16z" />
    <glyph glyph-name="N" unicode="N" horiz-adv-x="759" 
d="M78 692q0 8 5.5 13t13.5 5h15q8 0 13.5 -4.5t11.5 -10.5l384 -369h1v355q0 8 5.5 13.5t13.5 5.5h120q8 0 13.5 -5.5t5.5 -13.5v-673q0 -9 -5.5 -13.5t-13.5 -4.5h-10q-14 0 -25 11l-389 391h-1v-373q0 -8 -5.5 -13.5t-13.5 -5.5h-119q-8 0 -13.5 5.5t-5.5 13.5z" />
    <glyph glyph-name="O" unicode="O" horiz-adv-x="797" 
d="M39 349q0 75 28 141t76.5 114.5t114 77t140.5 28.5t140.5 -28.5t114.5 -77t77 -114.5t28 -141t-28 -140.5t-77 -114t-114.5 -76.5t-140.5 -28t-140.5 28t-114 76.5t-76.5 114t-28 140.5zM199 349q0 -41 16 -77t43 -63t63 -43t77 -16t77.5 16t63.5 43t43 63t16 77
t-16 77.5t-43 64t-63.5 43.5t-77.5 16t-77 -16t-63 -43.5t-43 -64t-16 -77.5z" />
    <glyph glyph-name="P" unicode="P" horiz-adv-x="585" 
d="M79 681q0 8 5.5 13.5t13.5 5.5h241q49 0 90.5 -17.5t71 -47.5t46 -70.5t16.5 -85.5q0 -47 -16.5 -87.5t-46 -71.5t-70.5 -48.5t-90 -17.5h-105v-235q0 -8 -5.5 -13.5t-13.5 -5.5h-118q-8 0 -13.5 5.5t-5.5 13.5v662zM336 400q32 0 52.5 22.5t20.5 56.5q0 32 -20.5 53
t-52.5 21h-101v-153h101z" />
    <glyph glyph-name="Q" unicode="Q" horiz-adv-x="797" 
d="M39 349q0 75 28 141t76.5 114.5t114 77t140.5 28.5t140.5 -28.5t114.5 -77t77 -114.5t28 -141q0 -49 -13.5 -95t-38 -86.5t-58.5 -74.5t-75 -59l129 -202q6 -11 1 -20.5t-17 -9.5h-135q-6 0 -10 3t-6 7l-106 179q-9 -1 -17.5 -1h-13.5q-75 0 -140.5 28t-114 76.5
t-76.5 114t-28 140.5zM199 349q0 -41 16 -77t43 -63t63 -43t77 -16t77.5 16t63.5 43t43 63t16 77t-16 77.5t-43 64t-63.5 43.5t-77.5 16t-77 -16t-63 -43.5t-43 -64t-16 -77.5z" />
    <glyph glyph-name="R" unicode="R" horiz-adv-x="662" 
d="M79 681q0 8 5.5 13.5t13.5 5.5h299q48 0 88 -17t69 -46.5t45 -68.5t16 -84q0 -69 -39 -122t-109 -79l137 -254q5 -10 0.5 -19.5t-17.5 -9.5h-133q-6 0 -10 3t-6 6l-133 265h-69v-255q0 -8 -5.5 -13.5t-13.5 -5.5h-119q-8 0 -13.5 5.5t-5.5 13.5v662zM384 401
q31 0 53.5 22.5t22.5 57.5t-22.5 55.5t-53.5 20.5h-148v-156h148z" />
    <glyph glyph-name="S" unicode="S" horiz-adv-x="553" 
d="M278 -10q-49 0 -87 9t-65.5 21t-45.5 25t-27 22q-6 6 -7.5 13t3.5 17l46 81q6 10 16 10.5t18 -4.5q10 -7 25 -16.5t33 -18t39 -14.5t45 -6q30 0 49.5 17t19.5 43q0 32 -26.5 54.5t-76.5 46.5q-36 18 -71 37.5t-62.5 45.5t-44 59.5t-16.5 78.5q0 37 14.5 73t43.5 64t72 45
t101 17q39 0 73 -8.5t61.5 -20.5t48 -25t31.5 -21q9 -5 9 -16t-3 -16l-51 -77q-5 -8 -17 -12t-27 5q-9 6 -23.5 15t-32.5 18t-38.5 15t-40.5 6q-32 0 -46.5 -16.5t-14.5 -38.5q0 -25 28 -46t81 -47q33 -16 68.5 -34.5t65.5 -44.5t49 -62t19 -87q0 -39 -16 -76t-46.5 -66
t-74.5 -47t-99 -18z" />
    <glyph glyph-name="T" unicode="T" horiz-adv-x="534" 
d="M188 553h-143q-8 0 -13.5 5.5t-5.5 13.5v109q0 8 5.5 13.5t13.5 5.5h444q8 0 13.5 -5.5t5.5 -13.5v-109q0 -8 -5.5 -13.5t-13.5 -5.5h-143v-534q0 -8 -5.5 -13.5t-13.5 -5.5h-120q-8 0 -13.5 5.5t-5.5 13.5v534z" />
    <glyph glyph-name="U" unicode="U" horiz-adv-x="714" 
d="M72 681q0 8 5.5 13.5t13.5 5.5h123q8 0 13.5 -5.5t5.5 -13.5v-417q0 -55 34.5 -84.5t88.5 -29.5t89.5 29.5t35.5 84.5v417q0 8 5.5 13.5t13.5 5.5h123q8 0 13.5 -5.5t5.5 -13.5v-425q0 -57 -22.5 -105.5t-61.5 -84.5t-91 -56t-111 -20t-110.5 20t-90 56t-61 84.5
t-22.5 105.5v425z" />
    <glyph glyph-name="V" unicode="V" horiz-adv-x="669" 
d="M503 689q2 4 6.5 7.5t10.5 3.5h133q11 0 16.5 -8t0.5 -18l-314 -673q-6 -11 -17 -11h-10q-12 0 -17 11l-312 673q-5 10 0.5 18t16.5 8h133q6 0 10.5 -3.5t6.5 -7.5l165 -365h6z" />
    <glyph glyph-name="W" unicode="W" horiz-adv-x="884" 
d="M18 676q-3 11 2 17.5t16 6.5h117q6 0 11 -4.5t7 -9.5l86 -339h4l155 352q5 11 17 11h18q13 0 17 -11l155 -352h4l86 339q2 5 7 9.5t11 4.5h117q11 0 16 -6.5t2 -17.5l-189 -672q-4 -14 -18 -14h-16q-12 0 -17 11l-183 409h-3l-182 -409q-6 -11 -17 -11h-16q-6 0 -11 4
t-7 10z" />
    <glyph glyph-name="X" unicode="X" horiz-adv-x="645" 
d="M229 359l-202 313q-6 10 -1 19t18 9h146q5 0 9.5 -3t6.5 -6l115 -186h1l117 186q2 3 6.5 6t9.5 3h146q13 0 18.5 -9t-1.5 -19l-203 -313l210 -331q7 -11 1.5 -19.5t-17.5 -8.5h-139q-5 0 -10 2.5t-7 6.5l-131 202h-2l-128 -202q-2 -3 -6.5 -6t-10.5 -3h-139
q-13 0 -18.5 9t1.5 19z" />
    <glyph glyph-name="Y" unicode="Y" horiz-adv-x="602" 
d="M222 337l-221 334q-6 10 -1 19.5t17 9.5h130q6 0 10 -3t6 -6l139 -205l139 205q2 3 5.5 6t10.5 3h130q12 0 17 -9.5t-1 -19.5l-224 -333v-319q0 -8 -5.5 -13.5t-13.5 -5.5h-119q-8 0 -13.5 5.5t-5.5 13.5v318z" />
    <glyph glyph-name="Z" unicode="Z" horiz-adv-x="542" 
d="M23 26q0 7 1 12t5 12l260 501v2h-218q-8 0 -13.5 5.5t-5.5 13.5v109q0 8 5.5 13.5t13.5 5.5h425q8 0 13.5 -4.5t5.5 -12.5v-8q0 -5 -1 -8t-5 -11l-251 -507v-2h218q8 0 13.5 -5.5t5.5 -13.5v-109q0 -8 -5.5 -13.5t-13.5 -5.5h-434q-8 0 -13.5 5.5t-5.5 13.5v7z" />
    <glyph glyph-name="bracketleft" unicode="[" horiz-adv-x="362" 
d="M323 -121q8 0 13.5 -5t5.5 -13v-81q0 -8 -5.5 -13.5t-13.5 -5.5h-246q-8 0 -13.5 5.5t-5.5 13.5v901q0 8 5.5 13.5t13.5 5.5h246q8 0 13.5 -5.5t5.5 -13.5v-80q0 -8 -5.5 -13.5t-13.5 -5.5h-127v-703h127z" />
    <glyph glyph-name="backslash" unicode="\" horiz-adv-x="430" 
d="M50 675q-3 11 2 18t16 7h98q14 0 18 -13l196 -662q3 -11 -2.5 -18t-15.5 -7h-99q-5 0 -10.5 4t-7.5 9z" />
    <glyph glyph-name="bracketright" unicode="]" horiz-adv-x="362" 
d="M166 -121v703h-127q-8 0 -13.5 5.5t-5.5 13.5v80q0 8 5.5 13.5t13.5 5.5h246q8 0 13.5 -5.5t5.5 -13.5v-901q0 -8 -5.5 -13.5t-13.5 -5.5h-246q-8 0 -13.5 5.5t-5.5 13.5v81q0 8 5.5 13t13.5 5h127z" />
    <glyph glyph-name="asciicircum" unicode="^" horiz-adv-x="524" 
d="M50 378q-12 0 -17 9t1 19l211 298q2 4 7 7t10 3h5q5 0 10 -3t7 -7l206 -298q6 -10 1 -19t-17 -9h-87q-3 0 -7.5 2.5t-6.5 5.5l-110 149l-112 -149q-2 -3 -6.5 -5.5t-7.5 -2.5h-87z" />
    <glyph glyph-name="underscore" unicode="_" horiz-adv-x="585" 
d="M94 -29q0 19 19 19h359q19 0 19 -19v-51q0 -8 -5.5 -13t-13.5 -5h-359q-8 0 -13.5 5t-5.5 13v51v0z" />
    <glyph glyph-name="grave" unicode="`" horiz-adv-x="302" 
d="M50 594q-6 4 -9 11.5t3 18.5l34 59q4 7 12.5 6.5t13.5 -3.5l170 -104q4 -3 6.5 -8t-0.5 -11l-21 -42q-4 -8 -10.5 -11.5t-16.5 2.5z" />
    <glyph glyph-name="a" unicode="a" horiz-adv-x="489" 
d="M29 141q0 33 12 61.5t34 49t53.5 32t70.5 11.5q20 0 36.5 -3t28.5 -7q14 -4 26 -10q0 34 -12 52.5t-52 18.5q-12 0 -27.5 -1t-31.5 -3.5t-31 -5.5t-26 -6q-14 -5 -20 3t-8 21l-11 71q-2 15 4 22.5t14 9.5q4 1 20 4t38 5t47.5 4t48.5 2q54 0 90.5 -11t59.5 -35t33 -61
t10 -88v-255q0 -9 -7 -15.5t-15 -6.5h-49q-5 0 -10.5 2.5t-10.5 12.5l-15 31q-11 -9 -23.5 -19t-29.5 -18.5t-38.5 -14t-48.5 -5.5q-34 0 -63.5 11t-51 30.5t-33.5 47.5t-12 63zM178 152q0 -21 15 -36t36 -15t36.5 15t15.5 36q0 20 -15.5 35.5t-36.5 15.5t-36 -15.5
t-15 -35.5z" />
    <glyph glyph-name="b" unicode="b" horiz-adv-x="576" 
d="M57 678q0 8 6.5 15t15.5 7h108q9 0 15.5 -7t6.5 -15v-236q11 9 41.5 19.5t65.5 10.5q46 0 87.5 -14.5t73 -44.5t50 -75.5t18.5 -106.5q0 -50 -17.5 -94t-48 -77t-72 -52t-90.5 -19q-38 0 -67 11t-49 25q-23 16 -40 36l-13 -38q-3 -10 -9.5 -16.5t-14.5 -6.5h-45
q-9 0 -15.5 6.5t-6.5 15.5v656zM198 232q0 -43 27.5 -70.5t70.5 -27.5q42 0 69.5 27.5t27.5 70.5q0 42 -27.5 69t-69.5 27q-43 0 -70.5 -27t-27.5 -69z" />
    <glyph glyph-name="c" unicode="c" horiz-adv-x="481" 
d="M29 231q0 51 19.5 95t53.5 76.5t78 51t94 18.5q55 0 97.5 -21t75.5 -60q7 -8 4.5 -17t-10.5 -16l-65 -63q-4 -4 -11.5 -4t-14.5 6q-14 13 -31.5 23t-39.5 10q-20 0 -37.5 -8t-31 -22t-21.5 -32t-8 -37q0 -21 7.5 -39t20.5 -31.5t30.5 -21t37.5 -7.5q32 0 50 11.5t33 26.5
q6 8 13.5 9t12.5 -5l65 -56q8 -8 11 -16t-3 -17q-32 -48 -77.5 -72t-108.5 -24q-50 0 -94 18.5t-77.5 50.5t-53 76.5t-19.5 96.5z" />
    <glyph glyph-name="d" unicode="d" horiz-adv-x="576" 
d="M31 231q0 61 18.5 106.5t50 75.5t73 44.5t87.5 14.5q34 0 65 -8.5t42 -17.5v232q0 8 6.5 15t15.5 7h108q9 0 15.5 -7t6.5 -15v-656q0 -9 -6.5 -15.5t-15.5 -6.5h-45q-8 0 -14.5 6.5t-9.5 16.5l-13 38q-17 -20 -40 -36q-20 -14 -49 -25t-67 -11q-49 0 -90.5 19t-72 52
t-48 77t-17.5 94zM184 232q0 -43 28 -71.5t70 -28.5q43 0 70.5 28.5t27.5 71.5q0 42 -27.5 70t-70.5 28q-21 0 -38.5 -7.5t-31 -20.5t-21 -31t-7.5 -39z" />
    <glyph glyph-name="e" unicode="e" horiz-adv-x="513" 
d="M30 231q0 49 18 92.5t50.5 76.5t76.5 52.5t95 19.5q44 0 83.5 -16t69.5 -44.5t48 -68t18 -87.5q0 -5 -0.5 -15t-1.5 -15q-1 -9 -7.5 -14.5t-14.5 -5.5h-285q0 -14 6 -28t18 -25.5t30 -19t42 -7.5q23 0 48 9t40 20q17 15 29 0l51 -67q5 -7 6 -16t-7 -17q-30 -31 -73 -48.5
t-98 -17.5q-52 0 -96 17.5t-76.5 49.5t-51 76.5t-18.5 98.5zM333 294q-2 23 -20 40t-47 17t-46.5 -17t-22.5 -40h136z" />
    <glyph glyph-name="f" unicode="f" horiz-adv-x="400" 
d="M93 325h-40q-10 0 -16 6.5t-6 15.5v93q0 22 22 22h40v38q0 46 12 85t37 66.5t62.5 43t87.5 15.5q22 0 44.5 -4t41 -10.5t33 -14.5t22.5 -15q5 -4 6.5 -11.5t-2.5 -14.5l-49 -86q-4 -6 -11 -8t-14 2q-11 7 -27 12.5t-33 5.5q-20 0 -31.5 -5t-17.5 -14t-7.5 -21t-1.5 -26
v-38h116q9 0 15.5 -6t6.5 -16v-93q0 -9 -6.5 -15.5t-15.5 -6.5h-116v-303q0 -9 -7 -15.5t-16 -6.5h-107q-8 0 -15 6.5t-7 15.5v303z" />
    <glyph glyph-name="g" unicode="g" horiz-adv-x="575" 
d="M519 15q0 -63 -19 -109t-52.5 -76.5t-78.5 -45.5t-97 -15q-26 0 -53 5t-50.5 12.5t-41.5 16.5t-27 16q-11 10 -5 26l35 84q3 7 11 10.5t16 -1.5q17 -10 45 -23.5t67 -13.5q21 0 39 4.5t31 15t20.5 28.5t7.5 44v24q-6 -5 -17 -9.5t-26 -9t-31.5 -7t-32.5 -2.5
q-46 0 -87.5 15t-73 45.5t-50 76t-18.5 106.5q0 49 17.5 93t48 76.5t72 51.5t90.5 19q38 0 67 -11t49 -25q23 -16 40 -35l13 38q3 9 9.5 16t14.5 7h45q9 0 15.5 -7t6.5 -15v-425zM184 231q0 -21 7.5 -39t21 -31.5t31 -21t38.5 -7.5q43 0 70.5 28.5t27.5 70.5t-27.5 70.5
t-70.5 28.5q-42 0 -70 -28.5t-28 -70.5z" />
    <glyph glyph-name="h" unicode="h" horiz-adv-x="549" 
d="M57 678q0 8 6.5 15t15.5 7h108q9 0 15.5 -7t6.5 -15v-239q48 33 98 33q54 0 91 -18.5t59 -50.5t31.5 -74.5t9.5 -90.5v-216q0 -9 -7 -15.5t-15 -6.5h-108q-10 0 -16 6.5t-6 15.5v218q0 39 -15.5 64.5t-53.5 25.5q-28 0 -48 -19t-20 -71v-218q0 -11 -5 -16.5t-20 -5.5
h-105q-9 0 -15.5 6.5t-6.5 15.5v656z" />
    <glyph glyph-name="i" unicode="i" horiz-adv-x="264" 
d="M56 440q0 10 6.5 16t15.5 6h108q9 0 15.5 -6t6.5 -16v-418q0 -9 -6.5 -15.5t-15.5 -6.5h-108q-9 0 -15.5 6.5t-6.5 15.5v418zM131 526q-18 0 -33.5 7t-27.5 18.5t-18.5 27t-6.5 33.5q0 36 25 62t61 26t61.5 -26t25.5 -62q0 -18 -7 -33.5t-18.5 -27t-27.5 -18.5t-34 -7z
" />
    <glyph glyph-name="j" unicode="j" horiz-adv-x="266" 
d="M133 526q-18 0 -33.5 7t-27.5 18.5t-18.5 27t-6.5 33.5q0 36 25 62t61 26t61.5 -26t25.5 -62q0 -18 -7 -33.5t-18.5 -27t-27.5 -18.5t-34 -7zM209 -4q0 -53 -14 -94t-37.5 -71t-54.5 -48.5t-64 -27.5q-21 -5 -32 -1t-17 18l-29 73q-6 16 1 23.5t15 10.5q15 6 29.5 14.5
t26 21t18 29.5t6.5 40v456q0 10 6.5 16t15.5 6h108q9 0 15.5 -6t6.5 -16v-444z" />
    <glyph glyph-name="k" unicode="k" horiz-adv-x="537" 
d="M57 678q0 8 6.5 15t15.5 7h108q9 0 15.5 -7t6.5 -15v-391l130 161q5 5 12 9.5t17 4.5h123q15 0 21.5 -12.5t-3.5 -23.5l-154 -178l163 -213q9 -11 3.5 -23t-20.5 -12h-138q-3 0 -8 2.5t-8 6.5l-138 201v-188q0 -9 -6.5 -15.5t-15.5 -6.5h-108q-9 0 -15.5 6.5t-6.5 15.5
v656z" />
    <glyph glyph-name="l" unicode="l" horiz-adv-x="266" 
d="M57 678q0 8 6.5 15t15.5 7h108q9 0 15.5 -7t6.5 -15v-656q0 -9 -6.5 -15.5t-15.5 -6.5h-108q-9 0 -15.5 6.5t-6.5 15.5v656z" />
    <glyph glyph-name="m" unicode="m" horiz-adv-x="826" 
d="M56 440q0 22 22 22h44q14 0 19 -13l19 -47q11 11 24.5 23.5t30.5 23t38.5 17t49.5 6.5q24 0 42.5 -4.5t34 -13.5t30 -22t30.5 -30q9 10 22 22t30.5 22.5t40.5 18t53 7.5q53 0 89.5 -18t58.5 -49.5t31.5 -74.5t9.5 -92v-216q0 -9 -6.5 -15.5t-15.5 -6.5h-108
q-10 0 -16 6.5t-6 15.5v223q0 18 -3 33.5t-10.5 27t-21 18t-33.5 6.5q-30 0 -47.5 -21.5t-17.5 -55.5v-231q0 -9 -5.5 -15.5t-15.5 -6.5h-109q-9 0 -15.5 6.5t-6.5 15.5v223q0 18 -2 33.5t-8.5 27t-18 18t-30.5 6.5q-35 0 -53 -22t-18 -57v-229q0 -9 -7 -15.5t-15 -6.5h-108
q-10 0 -16 6.5t-6 15.5v418z" />
    <glyph glyph-name="n" unicode="n" horiz-adv-x="549" 
d="M56 440q0 10 6.5 16t15.5 6h45q13 0 21 -14l17 -46q9 10 21 22.5t29 23t39.5 17.5t54.5 7q54 0 91 -18t59.5 -49t32.5 -72.5t10 -89.5v-221q0 -9 -6.5 -15.5t-14.5 -6.5h-109q-10 0 -16 6.5t-6 15.5v223q0 33 -14 59t-53 26q-35 0 -52.5 -22t-17.5 -57v-229
q0 -8 -4.5 -15t-16.5 -7h-110q-9 0 -15.5 6.5t-6.5 15.5v418z" />
    <glyph glyph-name="o" unicode="o" horiz-adv-x="539" 
d="M29 232q0 49 19 92.5t52 76.5t76.5 52t93.5 19q49 0 93 -19t76.5 -52t51.5 -76.5t19 -92.5q0 -50 -19 -94t-51.5 -77t-76.5 -52.5t-93 -19.5q-50 0 -93.5 19.5t-76.5 52.5t-52 77t-19 94zM173 232q0 -20 7.5 -38.5t20.5 -32t31 -21.5t38 -8t37.5 8t30.5 21.5t20.5 32
t7.5 38.5t-7.5 37.5t-20.5 31t-30.5 21.5t-37.5 8t-38 -8t-31 -21.5t-20.5 -31t-7.5 -37.5z" />
    <glyph glyph-name="p" unicode="p" horiz-adv-x="575" 
d="M209 -216q0 -9 -6.5 -15.5t-15.5 -6.5h-108q-9 0 -15.5 6.5t-6.5 15.5v656q0 8 6.5 15t15.5 7h45q8 0 14.5 -7t9.5 -16l13 -38q17 19 40 35q20 14 49 25t67 11q49 0 90.5 -19t72 -51.5t47.5 -76.5t17 -93q0 -61 -18.5 -106.5t-49.5 -76t-72.5 -45.5t-87.5 -15
q-17 0 -33.5 2.5t-31 6.5t-25.5 9t-17 9v-232zM196 231q0 -42 27.5 -70.5t70.5 -28.5q21 0 38.5 7.5t31 21t21 31.5t7.5 39q0 42 -28 70.5t-70 28.5q-43 0 -70.5 -28.5t-27.5 -70.5z" />
    <glyph glyph-name="q" unicode="q" horiz-adv-x="576" 
d="M31 232q0 49 17.5 93t48 76.5t72 51.5t90.5 19q38 0 67 -11t49 -25q23 -16 40 -35l13 38q3 9 9.5 16t14.5 7h45q9 0 15.5 -7t6.5 -15v-656q0 -9 -6.5 -15.5t-15.5 -6.5h-108q-9 0 -15.5 6.5t-6.5 15.5v233q-6 -5 -17 -9.5t-26 -9t-31.5 -7t-32.5 -2.5q-46 0 -87.5 15
t-73 45.5t-50 76t-18.5 106.5zM184 231q0 -21 7.5 -39t21 -31.5t31 -21t38.5 -7.5q43 0 70.5 28.5t27.5 70.5t-27.5 70.5t-70.5 28.5q-42 0 -70 -28.5t-28 -70.5z" />
    <glyph glyph-name="r" unicode="r" horiz-adv-x="382" 
d="M56 440q0 10 6.5 16t15.5 6h48q16 0 21 -14l21 -51q15 28 42.5 51.5t72.5 23.5q32 0 54.5 -7t35.5 -17q6 -5 6.5 -11.5t-3.5 -13.5l-46 -91q-4 -7 -10 -11t-16 0q-6 2 -16.5 4.5t-18.5 2.5q-26 0 -43.5 -17.5t-17.5 -46.5v-242q0 -22 -25 -22h-105q-9 0 -15.5 6.5
t-6.5 15.5v418z" />
    <glyph glyph-name="s" unicode="s" horiz-adv-x="431" 
d="M212 -11q-57 0 -99.5 12t-65.5 26q-15 9 -8 24l37 76q2 6 9 10t15 0q28 -14 55 -21.5t59 -7.5q23 0 29 7t6 15q0 11 -19 21.5t-60 26.5q-67 26 -101 60t-34 90q0 31 10.5 57.5t32 45.5t54.5 30t78 11t88.5 -10.5t69.5 -24.5q9 -5 13 -13t-1 -17l-36 -74q-2 -6 -9.5 -8.5
t-14.5 0.5q-23 11 -51.5 19.5t-56.5 8.5q-20 0 -26.5 -5t-6.5 -14t13.5 -17t38.5 -17q35 -13 65.5 -27t53.5 -33t36.5 -44t13.5 -60q0 -30 -12 -56.5t-36 -47t-59 -32t-81 -11.5z" />
    <glyph glyph-name="t" unicode="t" horiz-adv-x="392" 
d="M85 325h-38q-8 0 -14 6.5t-6 15.5v93q0 10 6 16t14 6h38v128q0 9 6.5 15.5t15.5 6.5h110q8 0 14 -6.5t6 -15.5v-128h93q9 0 15.5 -6t6.5 -16v-93q0 -9 -6.5 -15.5t-15.5 -6.5h-93v-161q0 -32 31 -32q12 0 30.5 4t26.5 6q9 2 16.5 -1.5t9.5 -12.5l20 -87q2 -11 -1.5 -16
t-13.5 -10q-23 -10 -59 -18t-73 -8q-66 0 -102.5 41t-36.5 120v175z" />
    <glyph glyph-name="u" unicode="u" horiz-adv-x="537" 
d="M52 440q0 10 6.5 16t14.5 6h109q9 0 15.5 -6t6.5 -16v-228q0 -39 13.5 -59.5t48.5 -20.5q34 0 48.5 20.5t14.5 51.5v236q0 14 8.5 18t16.5 4h105q9 0 15.5 -6t6.5 -16v-418q0 -9 -6.5 -15.5t-15.5 -6.5h-46q-8 0 -13.5 5t-8.5 11l-16 43q-11 -11 -25 -23t-32.5 -22.5
t-40.5 -17.5t-48 -7q-51 0 -85 16t-54.5 45t-29 69.5t-8.5 89.5v231z" />
    <glyph glyph-name="v" unicode="v" horiz-adv-x="485" 
d="M11 430q-5 12 1 22t19 10h109q16 0 21 -13l79 -187h3l83 187q5 11 12 12t19 1h96q14 0 20.5 -10t-0.5 -22l-209 -429q-2 -5 -8.5 -8.5t-11.5 -3.5h-6q-5 0 -10.5 3.5t-8.5 8.5z" />
    <glyph glyph-name="w" unicode="w" horiz-adv-x="721" 
d="M15 434q-4 11 2 19.5t19 8.5h99q5 0 12 -3.5t9 -10.5l67 -192h1l113 207q2 3 6 6t12 3h11q14 0 18 -9l114 -207h1l66 192q5 14 23 14h97q12 0 18.5 -8.5t2.5 -19.5l-153 -431q-5 -14 -21 -14h-5q-4 0 -10 3t-8 7l-149 249h-1l-147 -249q-2 -4 -8 -7t-10 -3h-6q-6 0 -12 4
t-8 10z" />
    <glyph glyph-name="x" unicode="x" horiz-adv-x="531" 
d="M39 0q-14 0 -19.5 12t2.5 23l145 200l-141 192q-8 11 -2.5 23t20.5 12h127q15 0 19 -9l74 -118h4l75 118q2 4 6 6.5t13 2.5h127q15 0 20.5 -12t-2.5 -23l-141 -190l142 -202q8 -11 2 -23t-20 -12h-125q-6 0 -10.5 3t-6.5 7l-80 121h-4q-9 -12 -20 -28.5t-23 -34
t-23 -33.5t-18 -26q-5 -9 -19 -9h-122v0z" />
    <glyph glyph-name="y" unicode="y" horiz-adv-x="495" 
d="M18 432q-4 11 1 20.5t18 9.5h119q6 0 11 -3.5t7 -9.5l63 -245h2l89 245q5 13 20 13h114q14 0 19.5 -9t0.5 -21l-273 -656q-2 -5 -7.5 -9.5t-11.5 -4.5h-112q-13 0 -18.5 9.5t-0.5 21.5l96 242z" />
    <glyph glyph-name="z" unicode="z" horiz-adv-x="420" 
d="M52 0q-9 0 -15.5 6.5t-6.5 15.5q0 7 1 11t6 15l144 273v2h-119q-8 0 -14.5 6.5t-6.5 15.5v95q0 10 6.5 16t14.5 6h313q13 0 19.5 -9.5t-0.5 -22.5l-155 -290v-2h113q9 0 15.5 -6t6.5 -16v-94q0 -9 -6.5 -15.5t-15.5 -6.5h-300v0z" />
    <glyph glyph-name="braceleft" unicode="{" horiz-adv-x="392" 
d="M98 117q0 17 -7.5 28.5t-18 18.5t-22.5 11t-21 6q-6 1 -10.5 6.5t-4.5 11.5v58q0 6 4 11t9 7q19 7 35 17q14 8 25 19.5t11 27.5v99q0 90 24.5 142.5t62 80.5t81 37t82.5 11q18 2 20 -17l5 -85q0 -6 -4.5 -11.5t-9.5 -7.5q-26 -7 -46.5 -17.5t-34.5 -27.5t-21.5 -42.5
t-7.5 -62.5v-79q0 -30 -13.5 -53.5t-29.5 -40.5q-18 -19 -42 -34v-4q10 -4 24.5 -13t28 -24t23 -35.5t9.5 -47.5v-84q0 -37 7.5 -62.5t21.5 -42.5t34.5 -27.5t46.5 -17.5q5 -2 9.5 -7.5t4.5 -11.5l-5 -85q-1 -8 -6.5 -13t-13.5 -4q-39 2 -82.5 11t-81 37t-62 80.5
t-24.5 142.5v94z" />
    <glyph glyph-name="bar" unicode="|" horiz-adv-x="170" 
d="M58 741q0 8 5.5 13.5t13.5 5.5h17q8 0 13 -5.5t5 -13.5v-961q0 -8 -5.5 -13t-13.5 -5h-16q-8 0 -13.5 5t-5.5 13v961z" />
    <glyph glyph-name="braceright" unicode="}" horiz-adv-x="392" 
d="M294 23q0 -90 -24.5 -142.5t-62 -80.5t-81 -37t-82.5 -11q-8 -1 -13.5 4t-6.5 13l-5 85q0 6 4.5 11.5t9.5 7.5q26 7 46.5 17.5t34.5 27.5t21.5 42.5t7.5 62.5v84q0 27 9.5 47.5t23 35.5t28 24t24.5 13v4q-25 15 -43 34q-16 17 -29 40.5t-13 53.5v79q0 37 -7.5 62.5
t-21.5 42.5t-34.5 27.5t-46.5 17.5q-5 2 -9.5 7.5t-4.5 11.5l5 85q2 19 20 17q39 -2 82.5 -11t81 -37t62 -80.5t24.5 -142.5v-99q0 -16 10.5 -27.5t24.5 -19.5q16 -10 36 -17q5 -2 9 -7t4 -11v-58q0 -6 -4.5 -11.5t-10.5 -6.5q-9 -2 -21 -6t-22.5 -11t-18 -18.5t-7.5 -28.5
v-94z" />
    <glyph glyph-name="asciitilde" unicode="~" horiz-adv-x="538" 
d="M30 235q-5 5 -6 12t4 12q20 28 46 51q21 19 50 35t62 16q31 0 53.5 -12.5t44.5 -26.5q17 -11 34 -21t39 -10q20 0 36.5 17t27.5 32q6 8 14 8t15 -7l58 -61q5 -5 6 -12.5t-4 -12.5q-20 -29 -45 -51q-21 -19 -49 -34.5t-60 -15.5q-38 0 -62.5 13.5t-49.5 30.5
q-14 9 -28.5 16.5t-31.5 7.5q-21 0 -37.5 -16.5t-26.5 -31.5q-6 -8 -14.5 -8.5t-14.5 6.5z" />
    <glyph glyph-name="uni00A0" unicode="&#xa0;" horiz-adv-x="240" 
 />
    <glyph glyph-name="exclamdown" unicode="&#xa1;" horiz-adv-x="260" 
d="M131 282q-20 0 -37 7.5t-30.5 21t-21 30.5t-7.5 37q0 19 7.5 36t21 30t30.5 20.5t37 7.5q19 0 36 -7.5t30 -20.5t20.5 -30t7.5 -36q0 -20 -7.5 -37t-20.5 -30.5t-30 -21t-36 -7.5zM90 174q1 6 6.5 11t12.5 5h42q7 0 12.5 -5t6.5 -11l49 -279v-114q0 -8 -5.5 -13.5
t-13.5 -5.5h-140q-8 0 -13.5 5.5t-5.5 13.5v112z" />
    <glyph glyph-name="cent" unicode="&#xa2;" horiz-adv-x="545" 
d="M59 231q0 51 19.5 95t53.5 76.5t78 51t94 18.5q7 0 13.5 -0.5t13.5 -1.5l13 49q3 8 11 13t16 1l19 -5q9 -2 13.5 -9.5t2.5 -17.5l-13 -47q24 -10 45 -26t39 -37q7 -8 4.5 -17t-10.5 -16l-65 -63q-4 -4 -11.5 -4t-14.5 6q-6 5 -12 9.5t-12 8.5l-50 -183h1q32 0 50 11.5
t33 26.5q6 8 13.5 9t12.5 -5l65 -56q8 -8 11 -16t-3 -17q-32 -48 -77.5 -72t-108.5 -24q-19 0 -35 3l-31 -115q-2 -8 -10 -12.5t-16 -2.5l-19 7q-9 2 -13.5 9t-2.5 16l31 114q-32 13 -59.5 35t-47 51t-30.5 63.5t-11 73.5zM211 231q0 -48 35 -77l47 174q-35 -6 -58.5 -34
t-23.5 -63z" />
    <glyph glyph-name="sterling" unicode="&#xa3;" 
d="M120 37q25 46 34.5 88.5t9.5 82.5q0 21 -2 41t-6 40h-43q-8 0 -13 5.5t-5 13.5v17q0 8 5 13.5t13 5.5h31q-11 41 -20 78t-9 72q0 103 58 159.5t156 56.5q32 0 59.5 -8t49.5 -19.5t38.5 -23.5t25.5 -20q6 -5 6.5 -12.5t-4.5 -13.5l-63 -76q-5 -6 -12.5 -6.5t-13.5 3.5
q-14 10 -28 19q-12 8 -26.5 14t-28.5 6q-27 0 -46 -18t-19 -52q0 -28 15 -67t26 -92h92q8 0 13.5 -5.5t5.5 -13.5v-18q0 -8 -5.5 -13t-13.5 -5h-83q1 -12 1.5 -24.5t0.5 -26.5q0 -24 -2.5 -50t-8.5 -54h169q8 0 13 -5.5t5 -13.5v-96q0 -8 -5 -13.5t-13 -5.5h-338
q-8 0 -13.5 5.5t-5.5 13.5v18z" />
    <glyph glyph-name="currency" unicode="&#xa4;" horiz-adv-x="495" 
d="M71 197q-5 5 -5 13.5t5 13.5l52 52q-9 22 -9 48q0 23 8 47l-52 53q-5 5 -5 13.5t5 13.5l50 49q5 5 13 5t13 -5l51 -51q27 11 52 11t49 -9l51 51q5 5 13.5 5t13.5 -6l49 -49q5 -5 5.5 -13t-4.5 -13l-51 -51q5 -12 7.5 -24.5t2.5 -25.5q0 -26 -11 -53l51 -51q5 -5 4.5 -13
t-5.5 -13l-49 -49q-5 -5 -13 -5.5t-13 4.5l-53 53q-24 -8 -48 -8q-27 0 -49 9l-52 -52q-5 -5 -13.5 -5t-13.5 5zM249 283q17 0 29 12.5t12 30.5q0 16 -12 28t-29 13q-17 -1 -29 -13t-12 -29t12 -29.5t29 -12.5z" />
    <glyph glyph-name="yen" unicode="&#xa5;" 
d="M119 118q-8 0 -13 5.5t-5 13.5v17q0 8 5 13.5t13 5.5h101v65h-101q-8 0 -13 5.5t-5 13.5v17q0 8 5 13.5t13 5.5h101v44l-221 334q-6 10 -1 19.5t17 9.5h130q6 0 10 -3t6 -6l139 -205l139 205q2 3 5.5 6t10.5 3h130q12 0 17 -9.5t-1 -19.5l-224 -333v-45h99q8 0 13.5 -5.5
t5.5 -13.5v-18q0 -8 -5.5 -13t-13.5 -5h-99v-65h99q8 0 13.5 -5.5t5.5 -13.5v-18q0 -8 -5.5 -13t-13.5 -5h-99v-99q0 -8 -5.5 -13.5t-13.5 -5.5h-119q-8 0 -13.5 5.5t-5.5 13.5v99h-101z" />
    <glyph glyph-name="brokenbar" unicode="&#xa6;" horiz-adv-x="176" 
d="M80 392q-8 0 -13.5 5t-5.5 13v331q0 8 5.5 13.5t13.5 5.5h17q8 0 13 -5.5t5 -13.5v-331q0 -8 -5.5 -13t-13.5 -5h-16zM61 111q0 8 5.5 13.5t13.5 5.5h17q8 0 13 -5.5t5 -13.5v-331q0 -8 -5.5 -13t-13.5 -5h-16q-8 0 -13.5 5t-5.5 13v331z" />
    <glyph glyph-name="section" unicode="&#xa7;" horiz-adv-x="558" 
d="M104 -77q6 11 15.5 15t22.5 -4q4 -2 18 -10t32.5 -17t40 -16t40.5 -7q28 0 46.5 15t18.5 41q0 35 -28 56t-68 37q-31 12 -63 30.5t-58.5 43.5t-43.5 58.5t-17 75.5q0 85 68 141q-29 26 -48.5 60.5t-19.5 79.5q0 36 13.5 69.5t40.5 60t67.5 42.5t94.5 16q37 0 69 -8.5
t58 -19.5t44.5 -23.5t29.5 -19.5q8 -5 9 -14.5t-3 -14.5l-53 -78q-12 -19 -33 -4q-6 4 -20.5 13t-32.5 17.5t-37.5 15t-37.5 6.5q-26 0 -43 -13.5t-17 -32.5q0 -27 23 -48t79 -44q28 -11 61 -27.5t62 -42t48.5 -61t19.5 -83.5q0 -41 -17.5 -76t-48.5 -63q28 -26 47 -60.5
t19 -82.5q0 -36 -15.5 -71t-44 -62t-69.5 -44t-93 -17q-46 0 -81.5 8.5t-61.5 20t-42 23t-23 18.5q-8 8 -9.5 15.5t5.5 18.5zM202 254q0 -37 32 -58t83 -42q8 6 14 17q5 9 9.5 22.5t4.5 31.5q0 19 -8.5 32.5t-23.5 25t-36 21.5t-47 21l-4 -4q-6 -7 -15 -23.5t-9 -43.5z" />
    <glyph glyph-name="dieresis" unicode="&#xa8;" horiz-adv-x="414" 
d="M309 530q-32 0 -53.5 22t-21.5 54t21.5 53.5t53.5 21.5t54 -21.5t22 -53.5t-22 -54t-54 -22zM104 530q-32 0 -53.5 22t-21.5 54t21.5 53.5t53.5 21.5t54 -21.5t22 -53.5t-22 -54t-54 -22z" />
    <glyph glyph-name="copyright" unicode="&#xa9;" horiz-adv-x="827" 
d="M54 350q0 74 28 139.5t77 114.5t114.5 77.5t139.5 28.5t139.5 -28.5t114.5 -77.5t77.5 -114.5t28.5 -139.5t-28.5 -139.5t-77.5 -114.5t-114.5 -77.5t-139.5 -28.5t-139.5 28.5t-114.5 77.5t-77 114.5t-28 139.5zM141 350q0 -56 21.5 -106t58.5 -87t86.5 -58.5
t105.5 -21.5q57 0 106.5 21.5t86 58.5t58 87t21.5 106q0 57 -21.5 106.5t-58 86t-86 58t-106.5 21.5q-56 0 -105.5 -21.5t-86.5 -58t-58.5 -86t-21.5 -106.5zM235 348q0 39 14.5 73.5t40 60t59.5 40t73 14.5q30 0 60 -9t55 -29q7 -6 7.5 -14t-5.5 -15l-48 -48q-5 -5 -12 -6
t-12 3q-11 8 -22 10.5t-23 2.5q-34 0 -56 -24t-22 -56q0 -34 22 -57t56 -23q12 0 22.5 2.5t21.5 10.5q5 4 12 3t12 -6l50 -50q5 -6 5 -14t-6 -14q-26 -23 -55.5 -32.5t-61.5 -9.5q-39 0 -73 14.5t-59.5 40t-40 59.5t-14.5 73z" />
    <glyph glyph-name="ordfeminine" unicode="&#xaa;" horiz-adv-x="340" 
d="M133 396q-47 0 -76 28t-29 76q0 39 31 66t88 27q11 0 20.5 -1t16.5 -3q8 -2 14 -3q1 21 -8.5 32t-32.5 11q-15 0 -37.5 -3t-36.5 -6q-16 -3 -18 16l-7 42q-2 11 2 15t9 6q3 1 13 2.5t24 3.5t31 3.5t32 1.5q69 0 97.5 -30.5t28.5 -96.5v-166q0 -5 -4.5 -9.5t-9.5 -4.5h-33
q-9 0 -14 10l-10 21q-14 -13 -34.5 -25.5t-56.5 -12.5zM160 467q14 0 23 9.5t9 23.5q0 13 -9 22.5t-23 9.5t-23 -9.5t-9 -22.5q0 -14 9 -23.5t23 -9.5z" />
    <glyph glyph-name="guillemotleft" unicode="&#xab;" horiz-adv-x="515" 
d="M251 224q-5 6 -4 12.5t4 11.5l109 148q2 4 7 8t11 4h79q13 0 17 -9.5t-2 -21.5l-65 -139l62 -147q5 -12 1.5 -21t-16.5 -9h-84q-3 0 -8 2.5t-7 5.5zM33 224q-5 6 -4 12.5t4 11.5l109 148q2 4 7 8t11 4h79q13 0 17 -9.5t-2 -21.5l-65 -139l62 -147q5 -12 1.5 -21t-16.5 -9
h-84q-3 0 -8 2.5t-7 5.5z" />
    <glyph glyph-name="logicalnot" unicode="&#xac;" horiz-adv-x="572" 
d="M78 293q-8 0 -13.5 5.5t-5.5 13.5v70q0 8 5.5 13.5t13.5 5.5h400q8 0 13.5 -6t5.5 -13v-236q0 -8 -5.5 -13t-13.5 -5h-70q-8 0 -13.5 5t-5.5 13v147h-311z" />
    <glyph glyph-name="uni00AD" unicode="&#xad;" horiz-adv-x="365" 
 />
    <glyph glyph-name="registered" unicode="&#xae;" horiz-adv-x="827" 
d="M54 350q0 74 28 139.5t77 114.5t114.5 77.5t139.5 28.5t139.5 -28.5t114.5 -77.5t77.5 -114.5t28.5 -139.5t-28.5 -139.5t-77.5 -114.5t-114.5 -77.5t-139.5 -28.5t-139.5 28.5t-114.5 77.5t-77 114.5t-28 139.5zM141 350q0 -56 21.5 -106t58.5 -87t86.5 -58.5
t105.5 -21.5q57 0 106.5 21.5t86 58.5t58 87t21.5 106q0 57 -21.5 106.5t-58 86t-86 58t-106.5 21.5q-56 0 -105.5 -21.5t-86.5 -58t-58.5 -86t-21.5 -106.5zM275 515q0 8 5.5 13.5t13.5 5.5h162q23 0 45 -9t39.5 -26t28 -41t10.5 -54q0 -23 -6 -41t-15.5 -31.5t-21.5 -23
t-24 -16.5l40 -97q5 -10 -0.5 -18.5t-16.5 -8.5h-68q-6 0 -11 4.5t-7 9.5l-37 106h-39v-101q0 -8 -5.5 -13.5t-13.5 -5.5h-60q-8 0 -13.5 5.5t-5.5 13.5v328zM439 369q13 0 22.5 9.5t9.5 23.5t-9.5 23.5t-22.5 9.5h-69v-66h69z" />
    <glyph glyph-name="macron" unicode="&#xaf;" horiz-adv-x="414" 
d="M79 563q-8 0 -13.5 5t-5.5 13v41q0 19 19 19h256q19 0 19 -19v-41q0 -8 -5.5 -13t-13.5 -5h-256z" />
    <glyph glyph-name="degree" unicode="&#xb0;" horiz-adv-x="324" 
d="M162 440q-28 0 -52.5 10.5t-43 29t-29 43t-10.5 52.5t10.5 52.5t29 43t43 29t52.5 10.5t52.5 -10.5t43 -29t29 -43t10.5 -52.5t-10.5 -52.5t-29 -43t-43 -29t-52.5 -10.5zM162 540q14 0 24 10.5t10 24.5t-10 24t-24 10t-24.5 -10t-10.5 -24t10.5 -24.5t24.5 -10.5z" />
    <glyph glyph-name="plusminus" unicode="&#xb1;" 
d="M266 239q-8 0 -13.5 5t-5.5 13v96h-146q-8 0 -13.5 5.5t-5.5 13.5v70q0 8 5.5 13.5t13.5 5.5h146v147q0 8 5.5 13t13.5 5h70q8 0 13.5 -5t5.5 -13v-147h147q8 0 13 -5.5t5 -13.5v-70q0 -8 -5 -13.5t-13 -5.5h-147v-96q0 -8 -5.5 -13t-13.5 -5h-70zM92 128q0 8 5.5 13.5
t13.5 5.5h374q8 0 13 -5.5t5 -13.5v-70q0 -8 -5 -13.5t-13 -5.5h-374q-8 0 -13.5 5.5t-5.5 13.5v70z" />
    <glyph glyph-name="uni00B2" unicode="&#xb2;" horiz-adv-x="276" 
d="M34 504q-10 0 -10 9v18l102 123q11 14 15.5 26t4.5 21q0 15 -9.5 22t-21.5 7q-11 0 -21 -5.5t-14 -9.5q-5 -3 -9.5 -3t-8.5 7l-22 36q-5 9 -6 14t10 13q7 5 31.5 16.5t61.5 11.5q44 0 74 -25t30 -69q0 -22 -8 -43t-22 -41l-40 -53h58q10 0 10 -9v-57q0 -9 -10 -9h-195z
" />
    <glyph glyph-name="uni00B3" unicode="&#xb3;" horiz-adv-x="273" 
d="M123 494q-20 0 -35.5 3.5t-26.5 8.5t-18 10t-10 7q-12 9 -3 22l23 34q8 11 20 4l10 -6q10 -5 26 -5q18 0 25.5 6.5t7.5 17.5t-8 18t-25 7h-33q-6 1 -9.5 3.5t-3.5 12.5v34q0 17 18 17h28q11 0 19.5 6.5t8.5 17.5q0 22 -29 22q-9 0 -16.5 -3t-13.5 -8q-5 -3 -8.5 -3.5
t-8.5 7.5l-26 35q-5 7 -4 12t5 9q9 7 22 13q11 5 27.5 9.5t37.5 4.5q51 0 80.5 -22.5t29.5 -60.5q0 -28 -16.5 -44.5t-34.5 -25.5q9 -3 19.5 -9t19.5 -15t15 -22t6 -31q0 -21 -10 -37.5t-26.5 -27t-38 -16t-44.5 -5.5z" />
    <glyph glyph-name="acute" unicode="&#xb4;" horiz-adv-x="302" 
d="M80 512q-10 -6 -16.5 -2.5t-10.5 11.5l-21 42q-3 6 -0.5 11t6.5 8l170 104q5 3 13.5 3.5t12.5 -6.5l34 -59q6 -11 3 -18.5t-9 -11.5z" />
    <glyph glyph-name="mu" unicode="&#xb5;" horiz-adv-x="557" 
d="M74 440q0 10 6.5 16t14.5 6h109q9 0 15.5 -6t6.5 -16v-220q0 -39 13.5 -63.5t48.5 -24.5q34 0 48.5 24.5t14.5 55.5v228q0 14 8.5 18t16.5 4h105q9 0 15.5 -6t6.5 -16v-418q0 -9 -6.5 -15.5t-15.5 -6.5h-46q-8 0 -13.5 5t-8.5 11l-16 43q-11 -11 -22 -23t-27 -22.5
t-39 -17.5t-56 -7q-8 0 -14.5 0.5t-12.5 1.5v-207q0 -9 -6.5 -15.5t-15.5 -6.5h-108q-9 0 -15.5 6.5t-6.5 15.5v656z" />
    <glyph glyph-name="paragraph" unicode="&#xb6;" horiz-adv-x="771" 
d="M249 281q-42 0 -80 16t-66.5 44.5t-45 67t-16.5 82.5q0 43 15 81t41 66.5t61.5 45t76.5 16.5h462q8 0 13.5 -5.5t5.5 -13.5v-61q0 -8 -5.5 -13.5t-13.5 -5.5h-61v-820q0 -8 -5.5 -13.5t-13.5 -5.5h-71q-8 0 -13.5 5.5t-5.5 13.5v820h-126v-820q0 -8 -5.5 -13.5
t-13.5 -5.5h-70q-8 0 -13.5 5.5t-5.5 13.5v500h-44z" />
    <glyph glyph-name="periodcentered" unicode="&#xb7;" horiz-adv-x="280" 
d="M138 149q-21 0 -40.5 8.5t-33.5 22.5t-22.5 33.5t-8.5 40.5q0 22 8.5 42t22.5 35t33.5 23.5t40.5 8.5q22 0 42 -8.5t35 -23.5t23.5 -35t8.5 -42q0 -21 -8.5 -40.5t-23.5 -33.5t-35 -22.5t-42 -8.5z" />
    <glyph glyph-name="cedilla" unicode="&#xb8;" horiz-adv-x="247" 
d="M177 3l-38 -60q5 1 8.5 1h6.5q17 0 33 -5t29 -15.5t20.5 -27t7.5 -40.5q0 -26 -10 -45.5t-27 -32.5t-40 -20t-48 -7q-29 0 -50 6.5t-34 17.5q-7 6 -6.5 13.5t5.5 17.5l10 23q10 24 30 10q4 -3 15 -8t25 -5q19 0 30.5 8t11.5 25t-11.5 25t-30.5 8q-13 0 -21.5 -3.5
t-14.5 -5.5q-8 -3 -16 4t-4 15l47 101h72z" />
    <glyph glyph-name="uni00B9" unicode="&#xb9;" horiz-adv-x="219" 
d="M93 504q-10 0 -10 9v184h-54q-8 0 -8 11v38q0 6 8 11l76 43h63q9 0 9 -9v-278q0 -9 -9 -9h-75z" />
    <glyph glyph-name="ordmasculine" unicode="&#xba;" horiz-adv-x="324" 
d="M162 394q-63 0 -97 42t-34 116q0 75 34 116.5t97 41.5t97 -41.5t34 -116.5q0 -74 -34 -116t-97 -42zM162 474q15 0 23 18t8 60t-8 60t-23 18t-23 -18t-8 -60t8 -60t23 -18z" />
    <glyph glyph-name="guillemotright" unicode="&#xbb;" horiz-adv-x="515" 
d="M325 238l-65 139q-6 12 -2 21.5t17 9.5h79q6 0 11 -4t7 -8l109 -148q3 -5 4 -11.5t-4 -12.5l-104 -155q-2 -3 -7 -5.5t-8 -2.5h-84q-13 0 -16.5 9t1.5 21zM60 61q-13 0 -16.5 9t1.5 21l62 147l-65 139q-6 12 -2 21.5t17 9.5h79q6 0 11 -4t7 -8l109 -148q3 -5 4 -11.5
t-4 -12.5l-104 -155q-2 -3 -7 -5.5t-8 -2.5h-84z" />
    <glyph glyph-name="onequarter" unicode="&#xbc;" horiz-adv-x="666" 
d="M444 690q5 10 17 10h56q11 0 16.5 -8.5t0.5 -18.5l-345 -663q-2 -3 -5.5 -6.5t-11.5 -3.5h-55q-11 0 -16.5 8.5t-0.5 18.5zM119 404q-10 0 -10 9v184h-54q-8 0 -8 11v38q0 6 8 11l76 43h63q9 0 9 -9v-278q0 -9 -9 -9h-75zM343 126l139 167q1 2 3 2.5t4 0.5h71q9 0 9 -9
v-163h39q9 0 9 -8v-51q0 -9 -9 -9h-39v-47q0 -9 -9 -9h-68q-10 0 -10 9v47h-130q-9 0 -9 8v62zM483 122v65l-51 -65h51z" />
    <glyph glyph-name="onehalf" unicode="&#xbd;" horiz-adv-x="668" 
d="M444 690q5 10 17 10h56q11 0 16.5 -8.5t0.5 -18.5l-345 -663q-2 -3 -5.5 -6.5t-11.5 -3.5h-55q-11 0 -16.5 8.5t-0.5 18.5zM119 404q-10 0 -10 9v184h-54q-8 0 -8 11v38q0 6 8 11l76 43h63q9 0 9 -9v-278q0 -9 -9 -9h-75zM397 27l102 123q11 14 15.5 26t4.5 21
q0 15 -9.5 22t-21.5 7q-11 0 -21 -5.5t-14 -9.5q-5 -3 -9.5 -3t-8.5 7l-22 36q-5 9 -6 14t10 13q7 5 31.5 16.5t61.5 11.5q44 0 74 -25t30 -69q0 -22 -8 -43t-22 -41l-40 -53h58q10 0 10 -9v-57q0 -9 -10 -9h-195q-10 0 -10 9v18z" />
    <glyph glyph-name="threequarters" unicode="&#xbe;" horiz-adv-x="690" 
d="M148 394q-20 0 -35.5 3.5t-26.5 8.5t-18 10t-10 7q-12 9 -3 22l23 34q8 11 20 4l10 -6q10 -5 26 -5q18 0 25.5 6.5t7.5 17.5t-8 18t-25 7h-33q-6 1 -9.5 3.5t-3.5 12.5v34q0 17 18 17h28q11 0 19.5 6.5t8.5 17.5q0 22 -29 22q-9 0 -16.5 -3t-13.5 -8q-5 -3 -8.5 -3.5
t-8.5 7.5l-26 35q-5 7 -4 12t5 9q9 7 22 13q11 5 27.5 9.5t37.5 4.5q51 0 80.5 -22.5t29.5 -60.5q0 -28 -16.5 -44.5t-34.5 -25.5q9 -3 19.5 -9t19.5 -15t15 -22t6 -31q0 -21 -10 -37.5t-26.5 -27t-38 -16t-44.5 -5.5zM469 690q5 10 17 10h56q11 0 16.5 -8.5t0.5 -18.5
l-345 -663q-2 -3 -5.5 -6.5t-11.5 -3.5h-55q-11 0 -16.5 8.5t-0.5 18.5zM368 126l139 167q1 2 3 2.5t4 0.5h71q9 0 9 -9v-163h39q9 0 9 -8v-51q0 -9 -9 -9h-39v-47q0 -9 -9 -9h-68q-10 0 -10 9v47h-130q-9 0 -9 8v62zM508 122v65l-51 -65h51z" />
    <glyph glyph-name="questiondown" unicode="&#xbf;" horiz-adv-x="501" 
d="M272 282q-20 0 -37 7.5t-30.5 21t-21 30.5t-7.5 37q0 19 7.5 36t21 30t30.5 20.5t37 7.5q19 0 36 -7.5t30 -20.5t20.5 -30t7.5 -36q0 -20 -7.5 -37t-20.5 -30.5t-30 -21t-36 -7.5zM49 -74q0 33 11 56.5t28 41.5t36 33t36 31t28 35.5t11 46.5q0 8 5.5 13.5t13.5 5.5h107
q8 0 13.5 -5.5t5.5 -13.5v-42q0 -32 -21.5 -55.5t-47.5 -44.5t-47.5 -41t-21.5 -44q0 -23 21.5 -41t53.5 -18q26 0 43.5 9.5t30 19t22 15t18.5 -2.5l61 -60q6 -5 5.5 -13t-5.5 -13q-22 -25 -53 -44q-26 -17 -64 -30.5t-86 -13.5q-40 0 -76.5 13t-65 36.5t-45.5 55.5t-17 70z
" />
    <glyph glyph-name="Agrave" unicode="&#xc0;" horiz-adv-x="670" 
d="M17 0q-11 0 -16.5 8t-0.5 18l313 673q5 11 17 11h10q11 0 17 -11l313 -673q5 -10 -0.5 -18t-16.5 -8h-111q-14 0 -21 5.5t-14 19.5l-36 79h-272l-36 -80q-4 -9 -12.5 -16.5t-23.5 -7.5h-110zM411 240l-76 165h-1l-75 -165h152zM224 844q-6 4 -9 11.5t3 18.5l34 59
q4 7 12.5 6.5t13.5 -3.5l170 -104q4 -3 6.5 -8t-0.5 -11l-21 -42q-4 -8 -10.5 -11.5t-16.5 2.5z" />
    <glyph glyph-name="Aacute" unicode="&#xc1;" horiz-adv-x="670" 
d="M17 0q-11 0 -16.5 8t-0.5 18l313 673q5 11 17 11h10q11 0 17 -11l313 -673q5 -10 -0.5 -18t-16.5 -8h-111q-14 0 -21 5.5t-14 19.5l-36 79h-272l-36 -80q-4 -9 -12.5 -16.5t-23.5 -7.5h-110zM411 240l-76 165h-1l-75 -165h152zM264 762q-10 -6 -16.5 -2.5t-10.5 11.5
l-21 42q-3 6 -0.5 11t6.5 8l170 104q5 3 13.5 3.5t12.5 -6.5l34 -59q6 -11 3 -18.5t-9 -11.5z" />
    <glyph glyph-name="Acircumflex" unicode="&#xc2;" horiz-adv-x="670" 
d="M17 0q-11 0 -16.5 8t-0.5 18l313 673q5 11 17 11h10q11 0 17 -11l313 -673q5 -10 -0.5 -18t-16.5 -8h-111q-14 0 -21 5.5t-14 19.5l-36 79h-272l-36 -80q-4 -9 -12.5 -16.5t-23.5 -7.5h-110zM411 240l-76 165h-1l-75 -165h152zM236 762q-8 -5 -12.5 -3.5t-9.5 7.5l-33 47
q-4 5 -1 10.5t7 8.5l135 104q6 5 12.5 4t11.5 -4l138 -104q4 -3 6.5 -8t-0.5 -11l-34 -46q-9 -12 -21 -5l-99 58z" />
    <glyph glyph-name="Atilde" unicode="&#xc3;" horiz-adv-x="670" 
d="M17 0q-11 0 -16.5 8t-0.5 18l313 673q5 11 17 11h10q11 0 17 -11l313 -673q5 -10 -0.5 -18t-16.5 -8h-111q-14 0 -21 5.5t-14 19.5l-36 79h-272l-36 -80q-4 -9 -12.5 -16.5t-23.5 -7.5h-110zM411 240l-76 165h-1l-75 -165h152zM183 813q-5 4 -6.5 11t0.5 12q4 7 13.5 21
t23.5 28t32 24.5t38 10.5q18 0 31.5 -7.5t25.5 -16t24 -16t27 -7.5q12 0 22.5 11.5t15.5 19.5q4 6 10.5 7.5t14.5 -5.5l34 -26q14 -10 1 -29q-4 -6 -12.5 -19t-21.5 -26t-29.5 -23t-36.5 -10t-34.5 7.5t-27 16.5t-24 16.5t-24.5 7.5q-7 0 -12.5 -4t-10.5 -9.5t-9.5 -11.5
l-7.5 -10q-9 -9 -22 -1z" />
    <glyph glyph-name="Adieresis" unicode="&#xc4;" horiz-adv-x="670" 
d="M17 0q-11 0 -16.5 8t-0.5 18l313 673q5 11 17 11h10q11 0 17 -11l313 -673q5 -10 -0.5 -18t-16.5 -8h-111q-14 0 -21 5.5t-14 19.5l-36 79h-272l-36 -80q-4 -9 -12.5 -16.5t-23.5 -7.5h-110zM411 240l-76 165h-1l-75 -165h152zM467 763q-32 0 -53.5 22t-21.5 54
t21.5 53.5t53.5 21.5t54 -21.5t22 -53.5t-22 -54t-54 -22zM202 763q-32 0 -53.5 22t-21.5 54t21.5 53.5t53.5 21.5t54 -21.5t22 -53.5t-22 -54t-54 -22z" />
    <glyph glyph-name="Aring" unicode="&#xc5;" horiz-adv-x="670" 
d="M17 0q-11 0 -16.5 8t-0.5 18l313 673q5 11 17 11h10q11 0 17 -11l313 -673q5 -10 -0.5 -18t-16.5 -8h-111q-14 0 -21 5.5t-14 19.5l-36 79h-272l-36 -80q-4 -9 -12.5 -16.5t-23.5 -7.5h-110zM411 240l-76 165h-1l-75 -165h152zM335 752q-24 0 -45 9t-36.5 24.5
t-24.5 36.5t-9 45t9 45t24.5 36.5t36.5 24.5t45 9t44.5 -9t36.5 -24.5t25 -36.5t9 -45t-9 -45t-25 -36.5t-36.5 -24.5t-44.5 -9zM335 823q17 0 30 13.5t13 30.5t-13 30t-30 13t-30.5 -13t-13.5 -30t13.5 -30.5t30.5 -13.5z" />
    <glyph glyph-name="AE" unicode="&#xc6;" horiz-adv-x="899" 
d="M-1 0q-11 0 -14.5 8t2.5 18l401 643q10 15 17 23t27 8h401q8 0 13.5 -5.5t5.5 -13.5v-109q0 -8 -5.5 -13.5t-13.5 -5.5h-277v-124h228q8 0 13.5 -5.5t5.5 -13.5v-109q0 -8 -5.5 -13.5t-13.5 -5.5h-228v-135h277q8 0 13.5 -5.5t5.5 -13.5v-109q0 -8 -5.5 -13.5t-13.5 -5.5
h-414q-8 0 -13.5 5.5t-5.5 13.5v85h-184l-53 -87q-5 -9 -11.5 -13t-17.5 -4h-135zM400 240v177l-110 -177h110z" />
    <glyph glyph-name="Ccedilla" unicode="&#xc7;" horiz-adv-x="679" 
d="M39 349q0 75 28.5 141t77 114.5t114.5 77t141 28.5t133 -23t109 -70q15 -14 1 -28l-78 -81q-5 -5 -12.5 -5t-12.5 5q-28 25 -63 38t-72 13q-42 0 -78 -16.5t-62.5 -44.5t-41 -65.5t-14.5 -79.5t15 -78.5t41 -64.5t62.5 -44t78.5 -16q35 0 71 12.5t63 35.5q5 5 13 4.5
t13 -5.5l78 -83q5 -5 4.5 -13.5t-5.5 -13.5q-48 -46 -104.5 -69.5t-118.5 -26.5l-30 -48q5 1 8.5 1h6.5q17 0 33 -5t29 -15.5t20.5 -27t7.5 -40.5q0 -26 -10 -45.5t-27 -32.5t-40 -20t-48 -7q-29 0 -50 6.5t-34 17.5q-7 6 -6.5 13.5t5.5 17.5l10 23q10 24 30 10q4 -3 15 -8
t25 -5q19 0 30.5 8t11.5 25t-11.5 25t-30.5 8q-13 0 -21.5 -3.5t-14.5 -5.5q-8 -3 -16 4t-4 15l42 91q-66 9 -123 39.5t-99 78t-66 108.5t-24 130z" />
    <glyph glyph-name="Egrave" unicode="&#xc8;" horiz-adv-x="578" 
d="M79 681q0 8 5.5 13.5t13.5 5.5h414q8 0 13.5 -5.5t5.5 -13.5v-109q0 -8 -5.5 -13.5t-13.5 -5.5h-277v-124h228q8 0 13.5 -5.5t5.5 -13.5v-109q0 -8 -5.5 -13.5t-13.5 -5.5h-228v-135h277q8 0 13.5 -5.5t5.5 -13.5v-109q0 -8 -5.5 -13.5t-13.5 -5.5h-414q-8 0 -13.5 5.5
t-5.5 13.5v662zM199 844q-6 4 -9 11.5t3 18.5l34 59q4 7 12.5 6.5t13.5 -3.5l170 -104q4 -3 6.5 -8t-0.5 -11l-21 -42q-4 -8 -10.5 -11.5t-16.5 2.5z" />
    <glyph glyph-name="Eacute" unicode="&#xc9;" horiz-adv-x="578" 
d="M79 681q0 8 5.5 13.5t13.5 5.5h414q8 0 13.5 -5.5t5.5 -13.5v-109q0 -8 -5.5 -13.5t-13.5 -5.5h-277v-124h228q8 0 13.5 -5.5t5.5 -13.5v-109q0 -8 -5.5 -13.5t-13.5 -5.5h-228v-135h277q8 0 13.5 -5.5t5.5 -13.5v-109q0 -8 -5.5 -13.5t-13.5 -5.5h-414q-8 0 -13.5 5.5
t-5.5 13.5v662zM239 762q-10 -6 -16.5 -2.5t-10.5 11.5l-21 42q-3 6 -0.5 11t6.5 8l170 104q5 3 13.5 3.5t12.5 -6.5l34 -59q6 -11 3 -18.5t-9 -11.5z" />
    <glyph glyph-name="Ecircumflex" unicode="&#xca;" horiz-adv-x="578" 
d="M79 681q0 8 5.5 13.5t13.5 5.5h414q8 0 13.5 -5.5t5.5 -13.5v-109q0 -8 -5.5 -13.5t-13.5 -5.5h-277v-124h228q8 0 13.5 -5.5t5.5 -13.5v-109q0 -8 -5.5 -13.5t-13.5 -5.5h-228v-135h277q8 0 13.5 -5.5t5.5 -13.5v-109q0 -8 -5.5 -13.5t-13.5 -5.5h-414q-8 0 -13.5 5.5
t-5.5 13.5v662zM211 762q-8 -5 -12.5 -3.5t-9.5 7.5l-33 47q-4 5 -1 10.5t7 8.5l135 104q6 5 12.5 4t11.5 -4l138 -104q4 -3 6.5 -8t-0.5 -11l-34 -46q-9 -12 -21 -5l-99 58z" />
    <glyph glyph-name="Edieresis" unicode="&#xcb;" horiz-adv-x="578" 
d="M79 681q0 8 5.5 13.5t13.5 5.5h414q8 0 13.5 -5.5t5.5 -13.5v-109q0 -8 -5.5 -13.5t-13.5 -5.5h-277v-124h228q8 0 13.5 -5.5t5.5 -13.5v-109q0 -8 -5.5 -13.5t-13.5 -5.5h-228v-135h277q8 0 13.5 -5.5t5.5 -13.5v-109q0 -8 -5.5 -13.5t-13.5 -5.5h-414q-8 0 -13.5 5.5
t-5.5 13.5v662zM439 763q-32 0 -53.5 22t-21.5 54t21.5 53.5t53.5 21.5t54 -21.5t22 -53.5t-22 -54t-54 -22zM174 763q-32 0 -53.5 22t-21.5 54t21.5 53.5t53.5 21.5t54 -21.5t22 -53.5t-22 -54t-54 -22z" />
    <glyph glyph-name="Igrave" unicode="&#xcc;" horiz-adv-x="316" 
d="M79 681q0 8 5.5 13.5t13.5 5.5h120q8 0 13.5 -5.5t5.5 -13.5v-662q0 -8 -5.5 -13.5t-13.5 -5.5h-120q-8 0 -13.5 5.5t-5.5 13.5v662zM47 844q-6 4 -9 11.5t3 18.5l34 59q4 7 12.5 6.5t13.5 -3.5l170 -104q4 -3 6.5 -8t-0.5 -11l-21 -42q-4 -8 -10.5 -11.5t-16.5 2.5z" />
    <glyph glyph-name="Iacute" unicode="&#xcd;" horiz-adv-x="316" 
d="M79 681q0 8 5.5 13.5t13.5 5.5h120q8 0 13.5 -5.5t5.5 -13.5v-662q0 -8 -5.5 -13.5t-13.5 -5.5h-120q-8 0 -13.5 5.5t-5.5 13.5v662zM87 762q-10 -6 -16.5 -2.5t-10.5 11.5l-21 42q-3 6 -0.5 11t6.5 8l170 104q5 3 13.5 3.5t12.5 -6.5l34 -59q6 -11 3 -18.5t-9 -11.5z
" />
    <glyph glyph-name="Icircumflex" unicode="&#xce;" horiz-adv-x="316" 
d="M79 681q0 8 5.5 13.5t13.5 5.5h120q8 0 13.5 -5.5t5.5 -13.5v-662q0 -8 -5.5 -13.5t-13.5 -5.5h-120q-8 0 -13.5 5.5t-5.5 13.5v662zM60 762q-8 -5 -12.5 -3.5t-9.5 7.5l-33 47q-4 5 -1 10.5t7 8.5l135 104q6 5 12.5 4t11.5 -4l138 -104q4 -3 6.5 -8t-0.5 -11l-34 -46
q-9 -12 -21 -5l-99 58z" />
    <glyph glyph-name="Idieresis" unicode="&#xcf;" horiz-adv-x="316" 
d="M79 681q0 8 5.5 13.5t13.5 5.5h120q8 0 13.5 -5.5t5.5 -13.5v-662q0 -8 -5.5 -13.5t-13.5 -5.5h-120q-8 0 -13.5 5.5t-5.5 13.5v662zM291 763q-32 0 -53.5 22t-21.5 54t21.5 53.5t53.5 21.5t54 -21.5t22 -53.5t-22 -54t-54 -22zM26 763q-32 0 -53.5 22t-21.5 54
t21.5 53.5t53.5 21.5t54 -21.5t22 -53.5t-22 -54t-54 -22z" />
    <glyph glyph-name="Eth" unicode="&#xd0;" horiz-adv-x="732" 
d="M79 319h-29q-8 0 -13 5.5t-5 13.5v17q0 8 5 13.5t13 5.5h29v307q0 8 5 13.5t13 5.5h244q72 0 136 -27.5t112 -75t75.5 -111t27.5 -135.5q0 -73 -27.5 -137t-75.5 -111.5t-112 -75t-136 -27.5h-244q-8 0 -13 5.5t-5 13.5v300zM331 148q42 0 78 15.5t62 43t40.5 64.5
t14.5 80q0 42 -14.5 79t-40.5 64.5t-62 43t-78 15.5h-96v-179h142q8 0 13.5 -5.5t5.5 -13.5v-18q0 -8 -5.5 -13t-13.5 -5h-142v-171h96z" />
    <glyph glyph-name="Ntilde" unicode="&#xd1;" horiz-adv-x="759" 
d="M78 692q0 8 5.5 13t13.5 5h15q8 0 13.5 -4.5t11.5 -10.5l384 -369h1v355q0 8 5.5 13.5t13.5 5.5h120q8 0 13.5 -5.5t5.5 -13.5v-673q0 -9 -5.5 -13.5t-13.5 -4.5h-10q-14 0 -25 11l-389 391h-1v-373q0 -8 -5.5 -13.5t-13.5 -5.5h-119q-8 0 -13.5 5.5t-5.5 13.5zM229 813
q-5 4 -6.5 11t0.5 12q4 7 13.5 21t23.5 28t32 24.5t38 10.5q18 0 31.5 -7.5t25.5 -16t24 -16t27 -7.5q12 0 22.5 11.5t15.5 19.5q4 6 10.5 7.5t14.5 -5.5l34 -26q14 -10 1 -29q-4 -6 -12.5 -19t-21.5 -26t-29.5 -23t-36.5 -10t-34.5 7.5t-27 16.5t-24 16.5t-24.5 7.5
q-7 0 -12.5 -4t-10.5 -9.5t-9.5 -11.5l-7.5 -10q-9 -9 -22 -1z" />
    <glyph glyph-name="Ograve" unicode="&#xd2;" horiz-adv-x="797" 
d="M39 349q0 75 28 141t76.5 114.5t114 77t140.5 28.5t140.5 -28.5t114.5 -77t77 -114.5t28 -141t-28 -140.5t-77 -114t-114.5 -76.5t-140.5 -28t-140.5 28t-114 76.5t-76.5 114t-28 140.5zM199 349q0 -41 16 -77t43 -63t63 -43t77 -16t77.5 16t63.5 43t43 63t16 77
t-16 77.5t-43 64t-63.5 43.5t-77.5 16t-77 -16t-63 -43.5t-43 -64t-16 -77.5zM287 844q-6 4 -9 11.5t3 18.5l34 59q4 7 12.5 6.5t13.5 -3.5l170 -104q4 -3 6.5 -8t-0.5 -11l-21 -42q-4 -8 -10.5 -11.5t-16.5 2.5z" />
    <glyph glyph-name="Oacute" unicode="&#xd3;" horiz-adv-x="797" 
d="M39 349q0 75 28 141t76.5 114.5t114 77t140.5 28.5t140.5 -28.5t114.5 -77t77 -114.5t28 -141t-28 -140.5t-77 -114t-114.5 -76.5t-140.5 -28t-140.5 28t-114 76.5t-76.5 114t-28 140.5zM199 349q0 -41 16 -77t43 -63t63 -43t77 -16t77.5 16t63.5 43t43 63t16 77
t-16 77.5t-43 64t-63.5 43.5t-77.5 16t-77 -16t-63 -43.5t-43 -64t-16 -77.5zM327 762q-10 -6 -16.5 -2.5t-10.5 11.5l-21 42q-3 6 -0.5 11t6.5 8l170 104q5 3 13.5 3.5t12.5 -6.5l34 -59q6 -11 3 -18.5t-9 -11.5z" />
    <glyph glyph-name="Ocircumflex" unicode="&#xd4;" horiz-adv-x="797" 
d="M39 349q0 75 28 141t76.5 114.5t114 77t140.5 28.5t140.5 -28.5t114.5 -77t77 -114.5t28 -141t-28 -140.5t-77 -114t-114.5 -76.5t-140.5 -28t-140.5 28t-114 76.5t-76.5 114t-28 140.5zM199 349q0 -41 16 -77t43 -63t63 -43t77 -16t77.5 16t63.5 43t43 63t16 77
t-16 77.5t-43 64t-63.5 43.5t-77.5 16t-77 -16t-63 -43.5t-43 -64t-16 -77.5zM299 762q-8 -5 -12.5 -3.5t-9.5 7.5l-33 47q-4 5 -1 10.5t7 8.5l135 104q6 5 12.5 4t11.5 -4l138 -104q4 -3 6.5 -8t-0.5 -11l-34 -46q-9 -12 -21 -5l-99 58z" />
    <glyph glyph-name="Otilde" unicode="&#xd5;" horiz-adv-x="797" 
d="M39 349q0 75 28 141t76.5 114.5t114 77t140.5 28.5t140.5 -28.5t114.5 -77t77 -114.5t28 -141t-28 -140.5t-77 -114t-114.5 -76.5t-140.5 -28t-140.5 28t-114 76.5t-76.5 114t-28 140.5zM199 349q0 -41 16 -77t43 -63t63 -43t77 -16t77.5 16t63.5 43t43 63t16 77
t-16 77.5t-43 64t-63.5 43.5t-77.5 16t-77 -16t-63 -43.5t-43 -64t-16 -77.5zM246 813q-5 4 -6.5 11t0.5 12q4 7 13.5 21t23.5 28t32 24.5t38 10.5q18 0 31.5 -7.5t25.5 -16t24 -16t27 -7.5q12 0 22.5 11.5t15.5 19.5q4 6 10.5 7.5t14.5 -5.5l34 -26q14 -10 1 -29
q-4 -6 -12.5 -19t-21.5 -26t-29.5 -23t-36.5 -10t-34.5 7.5t-27 16.5t-24 16.5t-24.5 7.5q-7 0 -12.5 -4t-10.5 -9.5t-9.5 -11.5l-7.5 -10q-9 -9 -22 -1z" />
    <glyph glyph-name="Odieresis" unicode="&#xd6;" horiz-adv-x="797" 
d="M39 349q0 75 28 141t76.5 114.5t114 77t140.5 28.5t140.5 -28.5t114.5 -77t77 -114.5t28 -141t-28 -140.5t-77 -114t-114.5 -76.5t-140.5 -28t-140.5 28t-114 76.5t-76.5 114t-28 140.5zM199 349q0 -41 16 -77t43 -63t63 -43t77 -16t77.5 16t63.5 43t43 63t16 77
t-16 77.5t-43 64t-63.5 43.5t-77.5 16t-77 -16t-63 -43.5t-43 -64t-16 -77.5zM530 763q-32 0 -53.5 22t-21.5 54t21.5 53.5t53.5 21.5t54 -21.5t22 -53.5t-22 -54t-54 -22zM265 763q-32 0 -53.5 22t-21.5 54t21.5 53.5t53.5 21.5t54 -21.5t22 -53.5t-22 -54t-54 -22z" />
    <glyph glyph-name="multiply" unicode="&#xd7;" 
d="M120 218q-5 5 -5 13t5 13l103 103l-103 104q-5 5 -5 13t5 13l49 50q5 5 13.5 5t13.5 -5l103 -103l104 104q5 5 13 4.5t13 -5.5l50 -50q5 -5 5.5 -13t-4.5 -13l-104 -104l104 -104q5 -5 4.5 -13t-5.5 -13l-50 -49q-5 -5 -13 -5.5t-13 4.5l-104 104l-103 -103q-5 -5 -13 -5
t-13 5z" />
    <glyph glyph-name="Oslash" unicode="&#xd8;" horiz-adv-x="798" 
d="M59 23q-5 5 -5.5 13t4.5 13l67 66q-40 48 -62.5 107t-22.5 127q0 75 28 141t76.5 114.5t114 77t140.5 28.5q68 0 127.5 -23t107.5 -64l70 69q5 6 13 5.5t13 -5.5l12 -12q14 -12 0 -26l-70 -70q41 -48 64 -107.5t23 -127.5q0 -75 -28 -140.5t-77 -114t-114.5 -76.5
t-140.5 -28q-69 0 -128.5 22.5t-106.5 63.5l-67 -66q-5 -5 -13 -4.5t-13 5.5zM520 509q-26 19 -56.5 30t-64.5 11q-41 0 -77 -16t-63 -43.5t-43 -64t-16 -77.5q0 -34 10.5 -64t29.5 -55zM279 191q25 -20 55.5 -30.5t64.5 -10.5q41 0 77.5 16t63.5 43t43 63t16 77
q0 34 -10.5 65t-30.5 56z" />
    <glyph glyph-name="Ugrave" unicode="&#xd9;" horiz-adv-x="714" 
d="M72 681q0 8 5.5 13.5t13.5 5.5h123q8 0 13.5 -5.5t5.5 -13.5v-417q0 -55 34.5 -84.5t88.5 -29.5t89.5 29.5t35.5 84.5v417q0 8 5.5 13.5t13.5 5.5h123q8 0 13.5 -5.5t5.5 -13.5v-425q0 -57 -22.5 -105.5t-61.5 -84.5t-91 -56t-111 -20t-110.5 20t-90 56t-61 84.5
t-22.5 105.5v425zM246 844q-6 4 -9 11.5t3 18.5l34 59q4 7 12.5 6.5t13.5 -3.5l170 -104q4 -3 6.5 -8t-0.5 -11l-21 -42q-4 -8 -10.5 -11.5t-16.5 2.5z" />
    <glyph glyph-name="Uacute" unicode="&#xda;" horiz-adv-x="714" 
d="M72 681q0 8 5.5 13.5t13.5 5.5h123q8 0 13.5 -5.5t5.5 -13.5v-417q0 -55 34.5 -84.5t88.5 -29.5t89.5 29.5t35.5 84.5v417q0 8 5.5 13.5t13.5 5.5h123q8 0 13.5 -5.5t5.5 -13.5v-425q0 -57 -22.5 -105.5t-61.5 -84.5t-91 -56t-111 -20t-110.5 20t-90 56t-61 84.5
t-22.5 105.5v425zM286 762q-10 -6 -16.5 -2.5t-10.5 11.5l-21 42q-3 6 -0.5 11t6.5 8l170 104q5 3 13.5 3.5t12.5 -6.5l34 -59q6 -11 3 -18.5t-9 -11.5z" />
    <glyph glyph-name="Ucircumflex" unicode="&#xdb;" horiz-adv-x="714" 
d="M72 681q0 8 5.5 13.5t13.5 5.5h123q8 0 13.5 -5.5t5.5 -13.5v-417q0 -55 34.5 -84.5t88.5 -29.5t89.5 29.5t35.5 84.5v417q0 8 5.5 13.5t13.5 5.5h123q8 0 13.5 -5.5t5.5 -13.5v-425q0 -57 -22.5 -105.5t-61.5 -84.5t-91 -56t-111 -20t-110.5 20t-90 56t-61 84.5
t-22.5 105.5v425zM257 762q-8 -5 -12.5 -3.5t-9.5 7.5l-33 47q-4 5 -1 10.5t7 8.5l135 104q6 5 12.5 4t11.5 -4l138 -104q4 -3 6.5 -8t-0.5 -11l-34 -46q-9 -12 -21 -5l-99 58z" />
    <glyph glyph-name="Udieresis" unicode="&#xdc;" horiz-adv-x="714" 
d="M72 681q0 8 5.5 13.5t13.5 5.5h123q8 0 13.5 -5.5t5.5 -13.5v-417q0 -55 34.5 -84.5t88.5 -29.5t89.5 29.5t35.5 84.5v417q0 8 5.5 13.5t13.5 5.5h123q8 0 13.5 -5.5t5.5 -13.5v-425q0 -57 -22.5 -105.5t-61.5 -84.5t-91 -56t-111 -20t-110.5 20t-90 56t-61 84.5
t-22.5 105.5v425zM488 763q-32 0 -53.5 22t-21.5 54t21.5 53.5t53.5 21.5t54 -21.5t22 -53.5t-22 -54t-54 -22zM223 763q-32 0 -53.5 22t-21.5 54t21.5 53.5t53.5 21.5t54 -21.5t22 -53.5t-22 -54t-54 -22z" />
    <glyph glyph-name="Yacute" unicode="&#xdd;" horiz-adv-x="602" 
d="M222 337l-221 334q-6 10 -1 19.5t17 9.5h130q6 0 10 -3t6 -6l139 -205l139 205q2 3 5.5 6t10.5 3h130q12 0 17 -9.5t-1 -19.5l-224 -333v-319q0 -8 -5.5 -13.5t-13.5 -5.5h-119q-8 0 -13.5 5.5t-5.5 13.5v318zM231 762q-10 -6 -16.5 -2.5t-10.5 11.5l-21 42q-3 6 -0.5 11
t6.5 8l170 104q5 3 13.5 3.5t12.5 -6.5l34 -59q6 -11 3 -18.5t-9 -11.5z" />
    <glyph glyph-name="Thorn" unicode="&#xde;" horiz-adv-x="584" 
d="M79 681q0 8 5.5 13.5t13.5 5.5h118q8 0 13.5 -5.5t5.5 -13.5v-108h104q46 0 87 -17.5t71.5 -47.5t48 -70.5t17.5 -85.5q0 -47 -17.5 -87.5t-48 -71.5t-71 -48.5t-86.5 -17.5h-105v-108q0 -8 -5.5 -13.5t-13.5 -5.5h-118q-8 0 -13.5 5.5t-5.5 13.5v662zM330 273
q32 0 55.5 22.5t23.5 56.5q0 32 -23.5 53t-55.5 21h-95v-153h95z" />
    <glyph glyph-name="germandbls" unicode="&#xdf;" horiz-adv-x="580" 
d="M57 424q0 72 17.5 125.5t49 89t75.5 53.5t97 18q40 0 77 -13.5t65 -37.5t44.5 -57t16.5 -71q0 -36 -12.5 -61t-27 -43.5t-27 -32.5t-12.5 -29q0 -14 12.5 -27t31.5 -28q15 -12 30.5 -26.5t28 -32.5t21 -40t8.5 -49q0 -48 -18.5 -81t-48.5 -53t-67.5 -29t-74.5 -10
q-8 0 -14.5 4.5t-8.5 11.5l-20 93q-2 8 3 16t14 9q60 5 60 51q0 26 -15 39.5t-33 28.5q-13 11 -26 22.5t-23 25t-16.5 29t-6.5 35.5q0 30 13 51t29 39t29 34.5t13 37.5t-15 35.5t-38 14.5q-18 0 -32.5 -7t-25 -23.5t-16 -44.5t-5.5 -70v-400q0 -8 -6 -14.5t-14 -6.5h-111
q-8 0 -14.5 6.5t-6.5 14.5v403z" />
    <glyph glyph-name="agrave" unicode="&#xe0;" horiz-adv-x="489" 
d="M29 141q0 33 12 61.5t34 49t53.5 32t70.5 11.5q20 0 36.5 -3t28.5 -7q14 -4 26 -10q0 34 -12 52.5t-52 18.5q-12 0 -27.5 -1t-31.5 -3.5t-31 -5.5t-26 -6q-14 -5 -20 3t-8 21l-11 71q-2 15 4 22.5t14 9.5q4 1 20 4t38 5t47.5 4t48.5 2q54 0 90.5 -11t59.5 -35t33 -61
t10 -88v-255q0 -9 -7 -15.5t-15 -6.5h-49q-5 0 -10.5 2.5t-10.5 12.5l-15 31q-11 -9 -23.5 -19t-29.5 -18.5t-38.5 -14t-48.5 -5.5q-34 0 -63.5 11t-51 30.5t-33.5 47.5t-12 63zM178 152q0 -21 15 -36t36 -15t36.5 15t15.5 36q0 20 -15.5 35.5t-36.5 15.5t-36 -15.5
t-15 -35.5zM150 594q-6 4 -9 11.5t3 18.5l34 59q4 7 12.5 6.5t13.5 -3.5l170 -104q4 -3 6.5 -8t-0.5 -11l-21 -42q-4 -8 -10.5 -11.5t-16.5 2.5z" />
    <glyph glyph-name="aacute" unicode="&#xe1;" horiz-adv-x="489" 
d="M29 141q0 33 12 61.5t34 49t53.5 32t70.5 11.5q20 0 36.5 -3t28.5 -7q14 -4 26 -10q0 34 -12 52.5t-52 18.5q-12 0 -27.5 -1t-31.5 -3.5t-31 -5.5t-26 -6q-14 -5 -20 3t-8 21l-11 71q-2 15 4 22.5t14 9.5q4 1 20 4t38 5t47.5 4t48.5 2q54 0 90.5 -11t59.5 -35t33 -61
t10 -88v-255q0 -9 -7 -15.5t-15 -6.5h-49q-5 0 -10.5 2.5t-10.5 12.5l-15 31q-11 -9 -23.5 -19t-29.5 -18.5t-38.5 -14t-48.5 -5.5q-34 0 -63.5 11t-51 30.5t-33.5 47.5t-12 63zM178 152q0 -21 15 -36t36 -15t36.5 15t15.5 36q0 20 -15.5 35.5t-36.5 15.5t-36 -15.5
t-15 -35.5zM170 512q-10 -6 -16.5 -2.5t-10.5 11.5l-21 42q-3 6 -0.5 11t6.5 8l170 104q5 3 13.5 3.5t12.5 -6.5l34 -59q6 -11 3 -18.5t-9 -11.5z" />
    <glyph glyph-name="acircumflex" unicode="&#xe2;" horiz-adv-x="489" 
d="M29 141q0 33 12 61.5t34 49t53.5 32t70.5 11.5q20 0 36.5 -3t28.5 -7q14 -4 26 -10q0 34 -12 52.5t-52 18.5q-12 0 -27.5 -1t-31.5 -3.5t-31 -5.5t-26 -6q-14 -5 -20 3t-8 21l-11 71q-2 15 4 22.5t14 9.5q4 1 20 4t38 5t47.5 4t48.5 2q54 0 90.5 -11t59.5 -35t33 -61
t10 -88v-255q0 -9 -7 -15.5t-15 -6.5h-49q-5 0 -10.5 2.5t-10.5 12.5l-15 31q-11 -9 -23.5 -19t-29.5 -18.5t-38.5 -14t-48.5 -5.5q-34 0 -63.5 11t-51 30.5t-33.5 47.5t-12 63zM178 152q0 -21 15 -36t36 -15t36.5 15t15.5 36q0 20 -15.5 35.5t-36.5 15.5t-36 -15.5
t-15 -35.5zM153 512q-8 -5 -12.5 -3.5t-9.5 7.5l-33 47q-4 5 -1 10.5t7 8.5l135 104q6 5 12.5 4t11.5 -4l138 -104q4 -3 6.5 -8t-0.5 -11l-34 -46q-9 -12 -21 -5l-99 58z" />
    <glyph glyph-name="atilde" unicode="&#xe3;" horiz-adv-x="489" 
d="M29 141q0 33 12 61.5t34 49t53.5 32t70.5 11.5q20 0 36.5 -3t28.5 -7q14 -4 26 -10q0 34 -12 52.5t-52 18.5q-12 0 -27.5 -1t-31.5 -3.5t-31 -5.5t-26 -6q-14 -5 -20 3t-8 21l-11 71q-2 15 4 22.5t14 9.5q4 1 20 4t38 5t47.5 4t48.5 2q54 0 90.5 -11t59.5 -35t33 -61
t10 -88v-255q0 -9 -7 -15.5t-15 -6.5h-49q-5 0 -10.5 2.5t-10.5 12.5l-15 31q-11 -9 -23.5 -19t-29.5 -18.5t-38.5 -14t-48.5 -5.5q-34 0 -63.5 11t-51 30.5t-33.5 47.5t-12 63zM178 152q0 -21 15 -36t36 -15t36.5 15t15.5 36q0 20 -15.5 35.5t-36.5 15.5t-36 -15.5
t-15 -35.5zM86 583q-5 4 -6.5 11t0.5 12q4 7 13.5 21t23.5 28t32 24.5t38 10.5q18 0 31.5 -7.5t25.5 -16t24 -16t27 -7.5q12 0 22.5 11.5t15.5 19.5q4 6 10.5 7.5t14.5 -5.5l34 -26q14 -10 1 -29q-4 -6 -12.5 -19t-21.5 -26t-29.5 -23t-36.5 -10t-34.5 7.5t-27 16.5
t-24 16.5t-24.5 7.5q-7 0 -12.5 -4t-10.5 -9.5t-9.5 -11.5l-7.5 -10q-9 -9 -22 -1z" />
    <glyph glyph-name="adieresis" unicode="&#xe4;" horiz-adv-x="489" 
d="M29 141q0 33 12 61.5t34 49t53.5 32t70.5 11.5q20 0 36.5 -3t28.5 -7q14 -4 26 -10q0 34 -12 52.5t-52 18.5q-12 0 -27.5 -1t-31.5 -3.5t-31 -5.5t-26 -6q-14 -5 -20 3t-8 21l-11 71q-2 15 4 22.5t14 9.5q4 1 20 4t38 5t47.5 4t48.5 2q54 0 90.5 -11t59.5 -35t33 -61
t10 -88v-255q0 -9 -7 -15.5t-15 -6.5h-49q-5 0 -10.5 2.5t-10.5 12.5l-15 31q-11 -9 -23.5 -19t-29.5 -18.5t-38.5 -14t-48.5 -5.5q-34 0 -63.5 11t-51 30.5t-33.5 47.5t-12 63zM178 152q0 -21 15 -36t36 -15t36.5 15t15.5 36q0 20 -15.5 35.5t-36.5 15.5t-36 -15.5
t-15 -35.5zM353 530q-32 0 -53.5 22t-21.5 54t21.5 53.5t53.5 21.5t54 -21.5t22 -53.5t-22 -54t-54 -22zM148 530q-32 0 -53.5 22t-21.5 54t21.5 53.5t53.5 21.5t54 -21.5t22 -53.5t-22 -54t-54 -22z" />
    <glyph glyph-name="aring" unicode="&#xe5;" horiz-adv-x="489" 
d="M29 141q0 33 12 61.5t34 49t53.5 32t70.5 11.5q20 0 36.5 -3t28.5 -7q14 -4 26 -10q0 34 -12 52.5t-52 18.5q-12 0 -27.5 -1t-31.5 -3.5t-31 -5.5t-26 -6q-14 -5 -20 3t-8 21l-11 71q-2 15 4 22.5t14 9.5q4 1 20 4t38 5t47.5 4t48.5 2q54 0 90.5 -11t59.5 -35t33 -61
t10 -88v-255q0 -9 -7 -15.5t-15 -6.5h-49q-5 0 -10.5 2.5t-10.5 12.5l-15 31q-11 -9 -23.5 -19t-29.5 -18.5t-38.5 -14t-48.5 -5.5q-34 0 -63.5 11t-51 30.5t-33.5 47.5t-12 63zM178 152q0 -21 15 -36t36 -15t36.5 15t15.5 36q0 20 -15.5 35.5t-36.5 15.5t-36 -15.5
t-15 -35.5zM251 510q-24 0 -45 9t-36.5 24.5t-24.5 36.5t-9 45t9 45t24.5 36.5t36.5 24.5t45 9t44.5 -9t36.5 -24.5t25 -36.5t9 -45t-9 -45t-25 -36.5t-36.5 -24.5t-44.5 -9zM251 581q17 0 30 13.5t13 30.5t-13 30t-30 13t-30.5 -13t-13.5 -30t13.5 -30.5t30.5 -13.5z" />
    <glyph glyph-name="ae" unicode="&#xe6;" horiz-adv-x="764" 
d="M29 143q0 32 11.5 60t33.5 48.5t54 32t74 11.5q17 0 33 -3t28 -7q14 -4 27 -10q1 39 -13 55t-49 16q-12 0 -27.5 -1t-32 -3.5t-31.5 -5t-26 -5.5q-23 -7 -27 19l-13 83q-1 8 5 14.5t14 8.5l54 8q23 3 50 5.5t50 2.5q53 0 88 -9.5t58 -29.5q28 19 61.5 29t70.5 10
q44 0 83.5 -16t69.5 -44.5t47.5 -68t17.5 -87.5v-16.5t-2.5 -16t-7 -12.5t-13.5 -5h-286q0 -13 6.5 -27t18.5 -25.5t29.5 -19t40.5 -7.5q33 0 54.5 9.5t35.5 19.5q5 5 14 6t14 -6l50 -68q7 -6 7.5 -15.5t-6.5 -15.5q-32 -32 -74 -50t-96 -18q-51 0 -96.5 20t-77.5 56
q-5 -7 -18.5 -19.5t-33.5 -25t-47.5 -22t-61.5 -9.5q-74 0 -117.5 42.5t-43.5 111.5zM584 294q-2 23 -20 40t-47 17t-46.5 -17t-22.5 -40h136zM178 152q0 -21 15 -36t36 -15t36.5 15t15.5 36q0 20 -15.5 35.5t-36.5 15.5t-36 -15.5t-15 -35.5z" />
    <glyph glyph-name="ccedilla" unicode="&#xe7;" horiz-adv-x="481" 
d="M29 231q0 51 19.5 95t53.5 76.5t78 51t94 18.5q55 0 97.5 -21t75.5 -60q7 -8 4.5 -17t-10.5 -16l-65 -63q-4 -4 -11.5 -4t-14.5 6q-14 13 -31.5 23t-39.5 10q-20 0 -37.5 -8t-31 -22t-21.5 -32t-8 -37q0 -21 7.5 -39t20.5 -31.5t30.5 -21t37.5 -7.5q32 0 50 11.5t33 26.5
q6 8 13.5 9t12.5 -5l65 -56q8 -8 11 -16t-3 -17q-59 -89 -169 -95l-29 -47q5 1 8.5 1h6.5q17 0 33 -5t29 -15.5t20.5 -27t7.5 -40.5q0 -26 -10 -45.5t-27 -32.5t-40 -20t-48 -7q-29 0 -50 6.5t-34 17.5q-7 6 -6.5 13.5t5.5 17.5l10 23q10 24 30 10q4 -3 15 -8t25 -5
q19 0 30.5 8t11.5 25t-11.5 25t-30.5 8q-13 0 -21.5 -3.5t-14.5 -5.5q-8 -3 -16 4t-4 15l43 92q-41 8 -76.5 29t-61.5 52t-41 71t-15 85z" />
    <glyph glyph-name="egrave" unicode="&#xe8;" horiz-adv-x="513" 
d="M30 231q0 49 18 92.5t50.5 76.5t76.5 52.5t95 19.5q44 0 83.5 -16t69.5 -44.5t48 -68t18 -87.5q0 -5 -0.5 -15t-1.5 -15q-1 -9 -7.5 -14.5t-14.5 -5.5h-285q0 -14 6 -28t18 -25.5t30 -19t42 -7.5q23 0 48 9t40 20q17 15 29 0l51 -67q5 -7 6 -16t-7 -17q-30 -31 -73 -48.5
t-98 -17.5q-52 0 -96 17.5t-76.5 49.5t-51 76.5t-18.5 98.5zM333 294q-2 23 -20 40t-47 17t-46.5 -17t-22.5 -40h136zM165 594q-6 4 -9 11.5t3 18.5l34 59q4 7 12.5 6.5t13.5 -3.5l170 -104q4 -3 6.5 -8t-0.5 -11l-21 -42q-4 -8 -10.5 -11.5t-16.5 2.5z" />
    <glyph glyph-name="eacute" unicode="&#xe9;" horiz-adv-x="513" 
d="M30 231q0 49 18 92.5t50.5 76.5t76.5 52.5t95 19.5q44 0 83.5 -16t69.5 -44.5t48 -68t18 -87.5q0 -5 -0.5 -15t-1.5 -15q-1 -9 -7.5 -14.5t-14.5 -5.5h-285q0 -14 6 -28t18 -25.5t30 -19t42 -7.5q23 0 48 9t40 20q17 15 29 0l51 -67q5 -7 6 -16t-7 -17q-30 -31 -73 -48.5
t-98 -17.5q-52 0 -96 17.5t-76.5 49.5t-51 76.5t-18.5 98.5zM333 294q-2 23 -20 40t-47 17t-46.5 -17t-22.5 -40h136zM199 512q-10 -6 -16.5 -2.5t-10.5 11.5l-21 42q-3 6 -0.5 11t6.5 8l170 104q5 3 13.5 3.5t12.5 -6.5l34 -59q6 -11 3 -18.5t-9 -11.5z" />
    <glyph glyph-name="ecircumflex" unicode="&#xea;" horiz-adv-x="513" 
d="M30 231q0 49 18 92.5t50.5 76.5t76.5 52.5t95 19.5q44 0 83.5 -16t69.5 -44.5t48 -68t18 -87.5q0 -5 -0.5 -15t-1.5 -15q-1 -9 -7.5 -14.5t-14.5 -5.5h-285q0 -14 6 -28t18 -25.5t30 -19t42 -7.5q23 0 48 9t40 20q17 15 29 0l51 -67q5 -7 6 -16t-7 -17q-30 -31 -73 -48.5
t-98 -17.5q-52 0 -96 17.5t-76.5 49.5t-51 76.5t-18.5 98.5zM333 294q-2 23 -20 40t-47 17t-46.5 -17t-22.5 -40h136zM174 512q-8 -5 -12.5 -3.5t-9.5 7.5l-33 47q-4 5 -1 10.5t7 8.5l135 104q6 5 12.5 4t11.5 -4l138 -104q4 -3 6.5 -8t-0.5 -11l-34 -46q-9 -12 -21 -5
l-99 58z" />
    <glyph glyph-name="edieresis" unicode="&#xeb;" horiz-adv-x="513" 
d="M30 231q0 49 18 92.5t50.5 76.5t76.5 52.5t95 19.5q44 0 83.5 -16t69.5 -44.5t48 -68t18 -87.5q0 -5 -0.5 -15t-1.5 -15q-1 -9 -7.5 -14.5t-14.5 -5.5h-285q0 -14 6 -28t18 -25.5t30 -19t42 -7.5q23 0 48 9t40 20q17 15 29 0l51 -67q5 -7 6 -16t-7 -17q-30 -31 -73 -48.5
t-98 -17.5q-52 0 -96 17.5t-76.5 49.5t-51 76.5t-18.5 98.5zM333 294q-2 23 -20 40t-47 17t-46.5 -17t-22.5 -40h136zM375 530q-32 0 -53.5 22t-21.5 54t21.5 53.5t53.5 21.5t54 -21.5t22 -53.5t-22 -54t-54 -22zM170 530q-32 0 -53.5 22t-21.5 54t21.5 53.5t53.5 21.5
t54 -21.5t22 -53.5t-22 -54t-54 -22z" />
    <glyph glyph-name="igrave" unicode="&#xec;" horiz-adv-x="283" 
d="M56 440q0 10 6.5 16t15.5 6h127q9 0 15.5 -6t6.5 -16v-418q0 -9 -6.5 -15.5t-15.5 -6.5h-127q-9 0 -15.5 6.5t-6.5 15.5v418zM36 594q-6 4 -9 11.5t3 18.5l34 59q4 7 12.5 6.5t13.5 -3.5l170 -104q4 -3 6.5 -8t-0.5 -11l-21 -42q-4 -8 -10.5 -11.5t-16.5 2.5z" />
    <glyph glyph-name="iacute" unicode="&#xed;" horiz-adv-x="283" 
d="M56 440q0 10 6.5 16t15.5 6h127q9 0 15.5 -6t6.5 -16v-418q0 -9 -6.5 -15.5t-15.5 -6.5h-127q-9 0 -15.5 6.5t-6.5 15.5v418zM58 512q-10 -6 -16.5 -2.5t-10.5 11.5l-21 42q-3 6 -0.5 11t6.5 8l170 104q5 3 13.5 3.5t12.5 -6.5l34 -59q6 -11 3 -18.5t-9 -11.5z" />
    <glyph glyph-name="icircumflex" unicode="&#xee;" horiz-adv-x="283" 
d="M56 440q0 10 6.5 16t15.5 6h127q9 0 15.5 -6t6.5 -16v-418q0 -9 -6.5 -15.5t-15.5 -6.5h-127q-9 0 -15.5 6.5t-6.5 15.5v418zM42 512q-8 -5 -12.5 -3.5t-9.5 7.5l-33 47q-4 5 -1 10.5t7 8.5l135 104q6 5 12.5 4t11.5 -4l138 -104q4 -3 6.5 -8t-0.5 -11l-34 -46
q-9 -12 -21 -5l-99 58z" />
    <glyph glyph-name="idieresis" unicode="&#xef;" horiz-adv-x="283" 
d="M56 440q0 10 6.5 16t15.5 6h127q9 0 15.5 -6t6.5 -16v-418q0 -9 -6.5 -15.5t-15.5 -6.5h-127q-9 0 -15.5 6.5t-6.5 15.5v418zM248 530q-32 0 -53.5 22t-21.5 54t21.5 53.5t53.5 21.5t54 -21.5t22 -53.5t-22 -54t-54 -22zM43 530q-32 0 -53.5 22t-21.5 54t21.5 53.5
t53.5 21.5t54 -21.5t22 -53.5t-22 -54t-54 -22z" />
    <glyph glyph-name="eth" unicode="&#xf0;" horiz-adv-x="551" 
d="M31 226q0 56 18.5 98t47.5 69.5t66 41.5t73 14q22 0 50 -6t48 -15q-9 40 -34.5 69t-57.5 49l-79 -45q-17 -11 -26 6l-9 15q-5 7 -3.5 15t9.5 12l48 28q-6 3 -14.5 7t-17.5 7.5t-17.5 6t-13.5 4.5q-19 6 -12 25l30 80q4 10 13 14t26 -1q14 -5 51 -23t81 -48l73 43
q7 4 14.5 1.5t11.5 -9.5l9 -15q4 -7 2.5 -14.5t-8.5 -11.5l-54 -31q31 -27 60 -61.5t51 -76.5t35 -93t13 -111t-16.5 -111.5t-48 -89t-77.5 -58.5t-106 -21q-48 0 -91 18.5t-75.5 50.5t-51 75t-18.5 92zM170 231q0 -20 7.5 -38t21 -31.5t31.5 -21.5t39 -8q20 0 38 8
t31.5 21.5t21.5 31.5t8 38t-8 38.5t-21.5 32t-31.5 21.5t-38 8q-21 0 -39 -8t-31.5 -21.5t-21 -32t-7.5 -38.5z" />
    <glyph glyph-name="ntilde" unicode="&#xf1;" horiz-adv-x="549" 
d="M56 440q0 10 6.5 16t15.5 6h45q13 0 21 -14l17 -46q9 10 21 22.5t29 23t39.5 17.5t54.5 7q54 0 91 -18t59.5 -49t32.5 -72.5t10 -89.5v-221q0 -9 -6.5 -15.5t-14.5 -6.5h-109q-10 0 -16 6.5t-6 15.5v223q0 33 -14 59t-53 26q-35 0 -52.5 -22t-17.5 -57v-229
q0 -8 -4.5 -15t-16.5 -7h-110q-9 0 -15.5 6.5t-6.5 15.5v418zM133 583q-5 4 -6.5 11t0.5 12q4 7 13.5 21t23.5 28t32 24.5t38 10.5q18 0 31.5 -7.5t25.5 -16t24 -16t27 -7.5q12 0 22.5 11.5t15.5 19.5q4 6 10.5 7.5t14.5 -5.5l34 -26q14 -10 1 -29q-4 -6 -12.5 -19
t-21.5 -26t-29.5 -23t-36.5 -10t-34.5 7.5t-27 16.5t-24 16.5t-24.5 7.5q-7 0 -12.5 -4t-10.5 -9.5t-9.5 -11.5l-7.5 -10q-9 -9 -22 -1z" />
    <glyph glyph-name="ograve" unicode="&#xf2;" horiz-adv-x="539" 
d="M29 232q0 49 19 92.5t52 76.5t76.5 52t93.5 19q49 0 93 -19t76.5 -52t51.5 -76.5t19 -92.5q0 -50 -19 -94t-51.5 -77t-76.5 -52.5t-93 -19.5q-50 0 -93.5 19.5t-76.5 52.5t-52 77t-19 94zM173 232q0 -20 7.5 -38.5t20.5 -32t31 -21.5t38 -8t37.5 8t30.5 21.5t20.5 32
t7.5 38.5t-7.5 37.5t-20.5 31t-30.5 21.5t-37.5 8t-38 -8t-31 -21.5t-20.5 -31t-7.5 -37.5zM163 594q-6 4 -9 11.5t3 18.5l34 59q4 7 12.5 6.5t13.5 -3.5l170 -104q4 -3 6.5 -8t-0.5 -11l-21 -42q-4 -8 -10.5 -11.5t-16.5 2.5z" />
    <glyph glyph-name="oacute" unicode="&#xf3;" horiz-adv-x="539" 
d="M29 232q0 49 19 92.5t52 76.5t76.5 52t93.5 19q49 0 93 -19t76.5 -52t51.5 -76.5t19 -92.5q0 -50 -19 -94t-51.5 -77t-76.5 -52.5t-93 -19.5q-50 0 -93.5 19.5t-76.5 52.5t-52 77t-19 94zM173 232q0 -20 7.5 -38.5t20.5 -32t31 -21.5t38 -8t37.5 8t30.5 21.5t20.5 32
t7.5 38.5t-7.5 37.5t-20.5 31t-30.5 21.5t-37.5 8t-38 -8t-31 -21.5t-20.5 -31t-7.5 -37.5zM201 512q-10 -6 -16.5 -2.5t-10.5 11.5l-21 42q-3 6 -0.5 11t6.5 8l170 104q5 3 13.5 3.5t12.5 -6.5l34 -59q6 -11 3 -18.5t-9 -11.5z" />
    <glyph glyph-name="ocircumflex" unicode="&#xf4;" horiz-adv-x="539" 
d="M29 232q0 49 19 92.5t52 76.5t76.5 52t93.5 19q49 0 93 -19t76.5 -52t51.5 -76.5t19 -92.5q0 -50 -19 -94t-51.5 -77t-76.5 -52.5t-93 -19.5q-50 0 -93.5 19.5t-76.5 52.5t-52 77t-19 94zM173 232q0 -20 7.5 -38.5t20.5 -32t31 -21.5t38 -8t37.5 8t30.5 21.5t20.5 32
t7.5 38.5t-7.5 37.5t-20.5 31t-30.5 21.5t-37.5 8t-38 -8t-31 -21.5t-20.5 -31t-7.5 -37.5zM172 512q-8 -5 -12.5 -3.5t-9.5 7.5l-33 47q-4 5 -1 10.5t7 8.5l135 104q6 5 12.5 4t11.5 -4l138 -104q4 -3 6.5 -8t-0.5 -11l-34 -46q-9 -12 -21 -5l-99 58z" />
    <glyph glyph-name="otilde" unicode="&#xf5;" horiz-adv-x="539" 
d="M29 232q0 49 19 92.5t52 76.5t76.5 52t93.5 19q49 0 93 -19t76.5 -52t51.5 -76.5t19 -92.5q0 -50 -19 -94t-51.5 -77t-76.5 -52.5t-93 -19.5q-50 0 -93.5 19.5t-76.5 52.5t-52 77t-19 94zM173 232q0 -20 7.5 -38.5t20.5 -32t31 -21.5t38 -8t37.5 8t30.5 21.5t20.5 32
t7.5 38.5t-7.5 37.5t-20.5 31t-30.5 21.5t-37.5 8t-38 -8t-31 -21.5t-20.5 -31t-7.5 -37.5zM119 583q-5 4 -6.5 11t0.5 12q4 7 13.5 21t23.5 28t32 24.5t38 10.5q18 0 31.5 -7.5t25.5 -16t24 -16t27 -7.5q12 0 22.5 11.5t15.5 19.5q4 6 10.5 7.5t14.5 -5.5l34 -26
q14 -10 1 -29q-4 -6 -12.5 -19t-21.5 -26t-29.5 -23t-36.5 -10t-34.5 7.5t-27 16.5t-24 16.5t-24.5 7.5q-7 0 -12.5 -4t-10.5 -9.5t-9.5 -11.5l-7.5 -10q-9 -9 -22 -1z" />
    <glyph glyph-name="odieresis" unicode="&#xf6;" horiz-adv-x="539" 
d="M29 232q0 49 19 92.5t52 76.5t76.5 52t93.5 19q49 0 93 -19t76.5 -52t51.5 -76.5t19 -92.5q0 -50 -19 -94t-51.5 -77t-76.5 -52.5t-93 -19.5q-50 0 -93.5 19.5t-76.5 52.5t-52 77t-19 94zM173 232q0 -20 7.5 -38.5t20.5 -32t31 -21.5t38 -8t37.5 8t30.5 21.5t20.5 32
t7.5 38.5t-7.5 37.5t-20.5 31t-30.5 21.5t-37.5 8t-38 -8t-31 -21.5t-20.5 -31t-7.5 -37.5zM372 530q-32 0 -53.5 22t-21.5 54t21.5 53.5t53.5 21.5t54 -21.5t22 -53.5t-22 -54t-54 -22zM167 530q-32 0 -53.5 22t-21.5 54t21.5 53.5t53.5 21.5t54 -21.5t22 -53.5t-22 -54
t-54 -22z" />
    <glyph glyph-name="divide" unicode="&#xf7;" 
d="M297 471q-31 0 -52.5 22t-21.5 53t21.5 52.5t52.5 21.5t53 -21.5t22 -52.5t-22 -53t-53 -22zM100 292q-8 0 -13.5 5.5t-5.5 13.5v70q0 8 5.5 13.5t13.5 5.5h401q8 0 13 -5.5t5 -13.5v-70q0 -8 -5 -13.5t-13 -5.5h-401zM222 154q0 31 21.5 52.5t52.5 21.5t53 -21.5
t22 -52.5t-22 -53t-53 -22t-52.5 22t-21.5 53z" />
    <glyph glyph-name="oslash" unicode="&#xf8;" horiz-adv-x="540" 
d="M30 232q0 49 19 92.5t52 76.5t76.5 52t93.5 19q42 0 79 -13.5t67 -37.5l34 34q6 7 15 6.5t15 -6.5l14 -14q7 -5 7 -14t-7 -15l-34 -35q23 -30 36.5 -67t13.5 -78q0 -50 -19 -94t-51.5 -77t-76.5 -52.5t-93 -19.5q-41 0 -77.5 13t-66.5 36l-29 -29q-6 -6 -15 -5.5t-14 6.5
l-15 14q-5 7 -5.5 15.5t4.5 15.5l28 28q-24 32 -37.5 69.5t-13.5 79.5zM174 232q0 -23 10 -45l131 131q-20 12 -44 12q-20 0 -38 -8t-31 -21.5t-20.5 -31t-7.5 -37.5zM367 232q0 21 -9 41l-129 -132q18 -9 42 -9q20 0 37.5 8t30.5 21.5t20.5 32t7.5 38.5z" />
    <glyph glyph-name="ugrave" unicode="&#xf9;" horiz-adv-x="537" 
d="M52 440q0 10 6.5 16t14.5 6h109q9 0 15.5 -6t6.5 -16v-228q0 -39 13.5 -59.5t48.5 -20.5q34 0 48.5 20.5t14.5 51.5v236q0 14 8.5 18t16.5 4h105q9 0 15.5 -6t6.5 -16v-418q0 -9 -6.5 -15.5t-15.5 -6.5h-46q-8 0 -13.5 5t-8.5 11l-16 43q-11 -11 -25 -23t-32.5 -22.5
t-40.5 -17.5t-48 -7q-51 0 -85 16t-54.5 45t-29 69.5t-8.5 89.5v231zM163 594q-6 4 -9 11.5t3 18.5l34 59q4 7 12.5 6.5t13.5 -3.5l170 -104q4 -3 6.5 -8t-0.5 -11l-21 -42q-4 -8 -10.5 -11.5t-16.5 2.5z" />
    <glyph glyph-name="uacute" unicode="&#xfa;" horiz-adv-x="537" 
d="M52 440q0 10 6.5 16t14.5 6h109q9 0 15.5 -6t6.5 -16v-228q0 -39 13.5 -59.5t48.5 -20.5q34 0 48.5 20.5t14.5 51.5v236q0 14 8.5 18t16.5 4h105q9 0 15.5 -6t6.5 -16v-418q0 -9 -6.5 -15.5t-15.5 -6.5h-46q-8 0 -13.5 5t-8.5 11l-16 43q-11 -11 -25 -23t-32.5 -22.5
t-40.5 -17.5t-48 -7q-51 0 -85 16t-54.5 45t-29 69.5t-8.5 89.5v231zM201 512q-10 -6 -16.5 -2.5t-10.5 11.5l-21 42q-3 6 -0.5 11t6.5 8l170 104q5 3 13.5 3.5t12.5 -6.5l34 -59q6 -11 3 -18.5t-9 -11.5z" />
    <glyph glyph-name="ucircumflex" unicode="&#xfb;" horiz-adv-x="537" 
d="M52 440q0 10 6.5 16t14.5 6h109q9 0 15.5 -6t6.5 -16v-228q0 -39 13.5 -59.5t48.5 -20.5q34 0 48.5 20.5t14.5 51.5v236q0 14 8.5 18t16.5 4h105q9 0 15.5 -6t6.5 -16v-418q0 -9 -6.5 -15.5t-15.5 -6.5h-46q-8 0 -13.5 5t-8.5 11l-16 43q-11 -11 -25 -23t-32.5 -22.5
t-40.5 -17.5t-48 -7q-51 0 -85 16t-54.5 45t-29 69.5t-8.5 89.5v231zM173 512q-8 -5 -12.5 -3.5t-9.5 7.5l-33 47q-4 5 -1 10.5t7 8.5l135 104q6 5 12.5 4t11.5 -4l138 -104q4 -3 6.5 -8t-0.5 -11l-34 -46q-9 -12 -21 -5l-99 58z" />
    <glyph glyph-name="udieresis" unicode="&#xfc;" horiz-adv-x="537" 
d="M52 440q0 10 6.5 16t14.5 6h109q9 0 15.5 -6t6.5 -16v-228q0 -39 13.5 -59.5t48.5 -20.5q34 0 48.5 20.5t14.5 51.5v236q0 14 8.5 18t16.5 4h105q9 0 15.5 -6t6.5 -16v-418q0 -9 -6.5 -15.5t-15.5 -6.5h-46q-8 0 -13.5 5t-8.5 11l-16 43q-11 -11 -25 -23t-32.5 -22.5
t-40.5 -17.5t-48 -7q-51 0 -85 16t-54.5 45t-29 69.5t-8.5 89.5v231zM374 530q-32 0 -53.5 22t-21.5 54t21.5 53.5t53.5 21.5t54 -21.5t22 -53.5t-22 -54t-54 -22zM169 530q-32 0 -53.5 22t-21.5 54t21.5 53.5t53.5 21.5t54 -21.5t22 -53.5t-22 -54t-54 -22z" />
    <glyph glyph-name="yacute" unicode="&#xfd;" horiz-adv-x="495" 
d="M18 432q-4 11 1 20.5t18 9.5h119q6 0 11 -3.5t7 -9.5l63 -245h2l89 245q5 13 20 13h114q14 0 19.5 -9t0.5 -21l-273 -656q-2 -5 -7.5 -9.5t-11.5 -4.5h-112q-13 0 -18.5 9.5t-0.5 21.5l96 242zM161 512q-10 -6 -16.5 -2.5t-10.5 11.5l-21 42q-3 6 -0.5 11t6.5 8l170 104
q5 3 13.5 3.5t12.5 -6.5l34 -59q6 -11 3 -18.5t-9 -11.5z" />
    <glyph glyph-name="thorn" unicode="&#xfe;" horiz-adv-x="575" 
d="M209 -217q0 -8 -6.5 -14.5t-14.5 -6.5h-110q-8 0 -14.5 6.5t-6.5 14.5v896q0 8 6.5 14.5t14.5 6.5h109q8 0 14.5 -6.5t6.5 -14.5v-233q15 11 43 18.5t63 7.5q47 0 88.5 -14.5t73 -44t49.5 -75t18 -107.5q0 -60 -18.5 -105t-51 -75t-76 -45.5t-93.5 -15.5q-23 0 -49 3.5
t-46 13.5v-224zM198 232q0 -43 27.5 -70.5t70.5 -27.5q42 0 69.5 27.5t27.5 70.5q0 42 -27.5 69t-69.5 27q-43 0 -70.5 -27t-27.5 -69z" />
    <glyph glyph-name="ydieresis" unicode="&#xff;" horiz-adv-x="495" 
d="M18 432q-4 11 1 20.5t18 9.5h119q6 0 11 -3.5t7 -9.5l63 -245h2l89 245q5 13 20 13h114q14 0 19.5 -9t0.5 -21l-273 -656q-2 -5 -7.5 -9.5t-11.5 -4.5h-112q-13 0 -18.5 9.5t-0.5 21.5l96 242zM352 530q-32 0 -53.5 22t-21.5 54t21.5 53.5t53.5 21.5t54 -21.5t22 -53.5
t-22 -54t-54 -22zM147 530q-32 0 -53.5 22t-21.5 54t21.5 53.5t53.5 21.5t54 -21.5t22 -53.5t-22 -54t-54 -22z" />
    <glyph glyph-name="Amacron" unicode="&#x100;" horiz-adv-x="670" 
d="M17 0q-11 0 -16.5 8t-0.5 18l313 673q5 11 17 11h10q11 0 17 -11l313 -673q5 -10 -0.5 -18t-16.5 -8h-111q-14 0 -21 5.5t-14 19.5l-36 79h-272l-36 -80q-4 -9 -12.5 -16.5t-23.5 -7.5h-110zM411 240l-76 165h-1l-75 -165h152zM207 801q-8 0 -13.5 5t-5.5 13v41
q0 19 19 19h256q19 0 19 -19v-41q0 -8 -5.5 -13t-13.5 -5h-256z" />
    <glyph glyph-name="amacron" unicode="&#x101;" horiz-adv-x="489" 
d="M29 141q0 33 12 61.5t34 49t53.5 32t70.5 11.5q20 0 36.5 -3t28.5 -7q14 -4 26 -10q0 34 -12 52.5t-52 18.5q-12 0 -27.5 -1t-31.5 -3.5t-31 -5.5t-26 -6q-14 -5 -20 3t-8 21l-11 71q-2 15 4 22.5t14 9.5q4 1 20 4t38 5t47.5 4t48.5 2q54 0 90.5 -11t59.5 -35t33 -61
t10 -88v-255q0 -9 -7 -15.5t-15 -6.5h-49q-5 0 -10.5 2.5t-10.5 12.5l-15 31q-11 -9 -23.5 -19t-29.5 -18.5t-38.5 -14t-48.5 -5.5q-34 0 -63.5 11t-51 30.5t-33.5 47.5t-12 63zM178 152q0 -21 15 -36t36 -15t36.5 15t15.5 36q0 20 -15.5 35.5t-36.5 15.5t-36 -15.5
t-15 -35.5zM121 563q-8 0 -13.5 5t-5.5 13v41q0 19 19 19h256q19 0 19 -19v-41q0 -8 -5.5 -13t-13.5 -5h-256z" />
    <glyph glyph-name="Abreve" unicode="&#x102;" horiz-adv-x="670" 
d="M17 0q-11 0 -16.5 8t-0.5 18l313 673q5 11 17 11h10q11 0 17 -11l313 -673q5 -10 -0.5 -18t-16.5 -8h-111q-14 0 -21 5.5t-14 19.5l-36 79h-272l-36 -80q-4 -9 -12.5 -16.5t-23.5 -7.5h-110zM411 240l-76 165h-1l-75 -165h152zM335 763q-56 0 -95 34.5t-47 85.5
q-2 9 3.5 15.5t15.5 6.5h45q6 0 10.5 -3.5t6.5 -8.5q7 -20 23 -34t38 -14q20 0 36 15t23 33q2 5 7 8.5t10 3.5h47q9 0 14.5 -6.5t4.5 -15.5q-4 -26 -16.5 -47.5t-31.5 -38t-43 -25.5t-51 -9z" />
    <glyph glyph-name="abreve" unicode="&#x103;" horiz-adv-x="489" 
d="M29 141q0 33 12 61.5t34 49t53.5 32t70.5 11.5q20 0 36.5 -3t28.5 -7q14 -4 26 -10q0 34 -12 52.5t-52 18.5q-12 0 -27.5 -1t-31.5 -3.5t-31 -5.5t-26 -6q-14 -5 -20 3t-8 21l-11 71q-2 15 4 22.5t14 9.5q4 1 20 4t38 5t47.5 4t48.5 2q54 0 90.5 -11t59.5 -35t33 -61
t10 -88v-255q0 -9 -7 -15.5t-15 -6.5h-49q-5 0 -10.5 2.5t-10.5 12.5l-15 31q-11 -9 -23.5 -19t-29.5 -18.5t-38.5 -14t-48.5 -5.5q-34 0 -63.5 11t-51 30.5t-33.5 47.5t-12 63zM178 152q0 -21 15 -36t36 -15t36.5 15t15.5 36q0 20 -15.5 35.5t-36.5 15.5t-36 -15.5
t-15 -35.5zM252 527q-56 0 -95 34.5t-47 85.5q-2 9 3.5 15.5t15.5 6.5h45q6 0 10.5 -3.5t6.5 -8.5q7 -20 23 -34t38 -14q20 0 36 15t23 33q2 5 7 8.5t10 3.5h47q9 0 14.5 -6.5t4.5 -15.5q-4 -26 -16.5 -47.5t-31.5 -38t-43 -25.5t-51 -9z" />
    <glyph glyph-name="Aogonek" unicode="&#x104;" horiz-adv-x="670" 
d="M17 0q-11 0 -16.5 8t-0.5 18l313 673q5 11 17 11h10q11 0 17 -11l313 -673q5 -10 -0.5 -18t-16.5 -8h-40q-11 -8 -26 -21t-29 -29t-24 -33.5t-10 -34.5q0 -21 9.5 -29t24.5 -8q20 0 37 11.5t23 17.5q7 7 14.5 4t7.5 -12v-57q0 -10 -3 -18.5t-13 -15.5q-13 -8 -37.5 -16
t-54.5 -8q-54 0 -81 31t-27 76q0 27 9.5 49.5t24 40.5t30.5 31.5t29 23.5l-46 101h-272l-36 -80q-4 -9 -12.5 -16.5t-23.5 -7.5h-110zM411 240l-76 165h-1l-75 -165h152z" />
    <glyph glyph-name="aogonek" unicode="&#x105;" horiz-adv-x="489" 
d="M29 141q0 33 12 61.5t34 49t53.5 32t70.5 11.5q20 0 36.5 -3t28.5 -7q14 -4 26 -10q0 34 -12 52.5t-52 18.5q-12 0 -27.5 -1t-31.5 -3.5t-31 -5.5t-26 -6q-14 -5 -20 3t-8 21l-11 71q-2 15 4 22.5t14 9.5q4 1 20 4t38 5t47.5 4t48.5 2q54 0 90.5 -11t59.5 -35t33 -61
t10 -88v-250q0 -11 -6 -17t-11 -10q-13 -9 -28.5 -22t-29 -29t-23 -33t-9.5 -34q0 -21 9.5 -29t24.5 -8q20 0 37 11.5t23 17.5q7 7 14.5 4t7.5 -12v-57q0 -10 -3 -18.5t-13 -15.5q-13 -8 -37.5 -16t-54.5 -8q-54 0 -81 31t-27 76q0 26 12.5 49.5t30.5 44t38 36t35 24.5
l-16 34q-11 -9 -23.5 -19t-29.5 -18.5t-38.5 -14t-48.5 -5.5q-34 0 -63.5 11t-51 30.5t-33.5 47.5t-12 63zM178 152q0 -21 15 -36t36 -15t36.5 15t15.5 36q0 20 -15.5 35.5t-36.5 15.5t-36 -15.5t-15 -35.5z" />
    <glyph glyph-name="Cacute" unicode="&#x106;" horiz-adv-x="679" 
d="M39 349q0 75 28.5 141t77 114.5t114.5 77t141 28.5t133 -23t109 -70q15 -14 1 -28l-78 -81q-5 -5 -12.5 -5t-12.5 5q-31 27 -64.5 39t-70.5 12q-42 0 -78 -16.5t-62.5 -44.5t-41 -65.5t-14.5 -79.5t15 -78.5t41 -64.5t62.5 -44t78.5 -16t74.5 12.5t59.5 35.5q5 5 13 4.5
t13 -5.5l78 -83q5 -5 4.5 -13.5t-5.5 -13.5q-51 -50 -113.5 -73.5t-129.5 -23.5q-75 0 -141 28t-114.5 76.5t-77 114t-28.5 140.5zM330 762q-10 -6 -16.5 -2.5t-10.5 11.5l-21 42q-3 6 -0.5 11t6.5 8l170 104q5 3 13.5 3.5t12.5 -6.5l34 -59q6 -11 3 -18.5t-9 -11.5z" />
    <glyph glyph-name="cacute" unicode="&#x107;" horiz-adv-x="481" 
d="M29 231q0 51 19.5 95t53.5 76.5t78 51t94 18.5q55 0 97.5 -21t75.5 -60q7 -8 4.5 -17t-10.5 -16l-65 -63q-4 -4 -11.5 -4t-14.5 6q-14 13 -31.5 23t-39.5 10q-20 0 -37.5 -8t-31 -22t-21.5 -32t-8 -37q0 -21 7.5 -39t20.5 -31.5t30.5 -21t37.5 -7.5q32 0 50 11.5t33 26.5
q6 8 13.5 9t12.5 -5l65 -56q8 -8 11 -16t-3 -17q-32 -48 -77.5 -72t-108.5 -24q-50 0 -94 18.5t-77.5 50.5t-53 76.5t-19.5 96.5zM210 512q-10 -6 -16.5 -2.5t-10.5 11.5l-21 42q-3 6 -0.5 11t6.5 8l170 104q5 3 13.5 3.5t12.5 -6.5l34 -59q6 -11 3 -18.5t-9 -11.5z" />
    <glyph glyph-name="Ccircumflex" unicode="&#x108;" horiz-adv-x="679" 
d="M39 349q0 75 28.5 141t77 114.5t114.5 77t141 28.5t133 -23t109 -70q15 -14 1 -28l-78 -81q-5 -5 -12.5 -5t-12.5 5q-31 27 -64.5 39t-70.5 12q-42 0 -78 -16.5t-62.5 -44.5t-41 -65.5t-14.5 -79.5t15 -78.5t41 -64.5t62.5 -44t78.5 -16t74.5 12.5t59.5 35.5q5 5 13 4.5
t13 -5.5l78 -83q5 -5 4.5 -13.5t-5.5 -13.5q-51 -50 -113.5 -73.5t-129.5 -23.5q-75 0 -141 28t-114.5 76.5t-77 114t-28.5 140.5zM302 762q-8 -5 -12.5 -3.5t-9.5 7.5l-33 47q-4 5 -1 10.5t7 8.5l135 104q6 5 12.5 4t11.5 -4l138 -104q4 -3 6.5 -8t-0.5 -11l-34 -46
q-9 -12 -21 -5l-99 58z" />
    <glyph glyph-name="ccircumflex" unicode="&#x109;" horiz-adv-x="481" 
d="M29 231q0 51 19.5 95t53.5 76.5t78 51t94 18.5q55 0 97.5 -21t75.5 -60q7 -8 4.5 -17t-10.5 -16l-65 -63q-4 -4 -11.5 -4t-14.5 6q-14 13 -31.5 23t-39.5 10q-20 0 -37.5 -8t-31 -22t-21.5 -32t-8 -37q0 -21 7.5 -39t20.5 -31.5t30.5 -21t37.5 -7.5q32 0 50 11.5t33 26.5
q6 8 13.5 9t12.5 -5l65 -56q8 -8 11 -16t-3 -17q-32 -48 -77.5 -72t-108.5 -24q-50 0 -94 18.5t-77.5 50.5t-53 76.5t-19.5 96.5zM181 512q-8 -5 -12.5 -3.5t-9.5 7.5l-33 47q-4 5 -1 10.5t7 8.5l135 104q6 5 12.5 4t11.5 -4l138 -104q4 -3 6.5 -8t-0.5 -11l-34 -46
q-9 -12 -21 -5l-99 58z" />
    <glyph glyph-name="Cdotaccent" unicode="&#x10a;" horiz-adv-x="679" 
d="M39 349q0 75 28.5 141t77 114.5t114.5 77t141 28.5t133 -23t109 -70q15 -14 1 -28l-78 -81q-5 -5 -12.5 -5t-12.5 5q-31 27 -64.5 39t-70.5 12q-42 0 -78 -16.5t-62.5 -44.5t-41 -65.5t-14.5 -79.5t15 -78.5t41 -64.5t62.5 -44t78.5 -16t74.5 12.5t59.5 35.5q5 5 13 4.5
t13 -5.5l78 -83q5 -5 4.5 -13.5t-5.5 -13.5q-51 -50 -113.5 -73.5t-129.5 -23.5q-75 0 -141 28t-114.5 76.5t-77 114t-28.5 140.5zM401 766q-18 0 -33.5 7t-27.5 18.5t-18.5 27t-6.5 33.5q0 36 25 62t61 26t61.5 -26t25.5 -62q0 -18 -7 -33.5t-18.5 -27t-27.5 -18.5t-34 -7z
" />
    <glyph glyph-name="cdotaccent" unicode="&#x10b;" horiz-adv-x="481" 
d="M29 231q0 51 19.5 95t53.5 76.5t78 51t94 18.5q55 0 97.5 -21t75.5 -60q7 -8 4.5 -17t-10.5 -16l-65 -63q-4 -4 -11.5 -4t-14.5 6q-14 13 -31.5 23t-39.5 10q-20 0 -37.5 -8t-31 -22t-21.5 -32t-8 -37q0 -21 7.5 -39t20.5 -31.5t30.5 -21t37.5 -7.5q32 0 50 11.5t33 26.5
q6 8 13.5 9t12.5 -5l65 -56q8 -8 11 -16t-3 -17q-32 -48 -77.5 -72t-108.5 -24q-50 0 -94 18.5t-77.5 50.5t-53 76.5t-19.5 96.5zM278 526q-18 0 -33.5 7t-27.5 18.5t-18.5 27t-6.5 33.5q0 36 25 62t61 26t61.5 -26t25.5 -62q0 -18 -7 -33.5t-18.5 -27t-27.5 -18.5t-34 -7z
" />
    <glyph glyph-name="Ccaron" unicode="&#x10c;" horiz-adv-x="679" 
d="M39 349q0 75 28.5 141t77 114.5t114.5 77t141 28.5t133 -23t109 -70q15 -14 1 -28l-78 -81q-5 -5 -12.5 -5t-12.5 5q-31 27 -64.5 39t-70.5 12q-42 0 -78 -16.5t-62.5 -44.5t-41 -65.5t-14.5 -79.5t15 -78.5t41 -64.5t62.5 -44t78.5 -16t74.5 12.5t59.5 35.5q5 5 13 4.5
t13 -5.5l78 -83q5 -5 4.5 -13.5t-5.5 -13.5q-51 -50 -113.5 -73.5t-129.5 -23.5q-75 0 -141 28t-114.5 76.5t-77 114t-28.5 140.5zM252 866q-4 3 -6.5 8t0.5 11l34 46q9 12 21 5l99 -58l100 58q8 5 12.5 3.5t9.5 -7.5l33 -47q4 -5 1 -10.5t-7 -8.5l-135 -104q-6 -5 -12.5 -4
t-11.5 4z" />
    <glyph glyph-name="ccaron" unicode="&#x10d;" horiz-adv-x="481" 
d="M29 231q0 51 19.5 95t53.5 76.5t78 51t94 18.5q55 0 97.5 -21t75.5 -60q7 -8 4.5 -17t-10.5 -16l-65 -63q-4 -4 -11.5 -4t-14.5 6q-14 13 -31.5 23t-39.5 10q-20 0 -37.5 -8t-31 -22t-21.5 -32t-8 -37q0 -21 7.5 -39t20.5 -31.5t30.5 -21t37.5 -7.5q32 0 50 11.5t33 26.5
q6 8 13.5 9t12.5 -5l65 -56q8 -8 11 -16t-3 -17q-32 -48 -77.5 -72t-108.5 -24q-50 0 -94 18.5t-77.5 50.5t-53 76.5t-19.5 96.5zM127 616q-4 3 -6.5 8t0.5 11l34 46q9 12 21 5l99 -58l100 58q8 5 12.5 3.5t9.5 -7.5l33 -47q4 -5 1 -10.5t-7 -8.5l-135 -104q-6 -5 -12.5 -4
t-11.5 4z" />
    <glyph glyph-name="Dcaron" unicode="&#x10e;" horiz-adv-x="732" 
d="M79 681q0 8 5 13.5t13 5.5h244q72 0 136 -27.5t112 -75t75.5 -111t27.5 -135.5q0 -73 -27.5 -137t-75.5 -111.5t-112 -75t-136 -27.5h-244q-8 0 -13 5.5t-5 13.5v662zM340 148q42 0 76.5 15.5t59 43t37.5 64.5t13 80q0 42 -13 79t-37.5 64.5t-59 43t-76.5 15.5h-105v-405
h105zM170 866q-4 3 -6.5 8t0.5 11l34 46q9 12 21 5l99 -58l100 58q8 5 12.5 3.5t9.5 -7.5l33 -47q4 -5 1 -10.5t-7 -8.5l-135 -104q-6 -5 -12.5 -4t-11.5 4z" />
    <glyph glyph-name="dcaron" unicode="&#x10f;" horiz-adv-x="583" 
d="M31 231q0 61 18.5 106.5t50 75.5t73 44.5t87.5 14.5q34 0 65 -8.5t42 -17.5v232q0 8 6.5 15t15.5 7h108q9 0 15.5 -7t6.5 -15v-656q0 -9 -6.5 -15.5t-15.5 -6.5h-45q-8 0 -14.5 6.5t-9.5 16.5l-13 38q-17 -20 -40 -36q-20 -14 -49 -25t-67 -11q-49 0 -90.5 19t-72 52
t-48 77t-17.5 94zM184 232q0 -43 28 -71.5t70 -28.5q43 0 70.5 28.5t27.5 71.5q0 42 -27.5 70t-70.5 28q-21 0 -38.5 -7.5t-31 -20.5t-21 -31t-7.5 -39zM531 630q0 38 24 59t62 21q19 0 36.5 -5.5t30.5 -18t21 -32.5t8 -48q0 -53 -16.5 -88t-35.5 -61q-10 -10 -23 -1l-30 22
q-7 5 -7 11.5t5 11.5q11 13 17.5 31t6.5 34v7q-4 -3 -9 -5t-11 -3t-13 -1q-31 0 -48.5 18.5t-17.5 47.5z" />
    <glyph glyph-name="Dcroat" unicode="&#x110;" horiz-adv-x="732" 
d="M79 319h-29q-8 0 -13 5.5t-5 13.5v17q0 8 5 13.5t13 5.5h29v307q0 8 5 13.5t13 5.5h244q72 0 136 -27.5t112 -75t75.5 -111t27.5 -135.5q0 -73 -27.5 -137t-75.5 -111.5t-112 -75t-136 -27.5h-244q-8 0 -13 5.5t-5 13.5v300zM331 148q42 0 78 15.5t62 43t40.5 64.5
t14.5 80q0 42 -14.5 79t-40.5 64.5t-62 43t-78 15.5h-96v-179h142q8 0 13.5 -5.5t5.5 -13.5v-18q0 -8 -5.5 -13t-13.5 -5h-142v-171h96z" />
    <glyph glyph-name="dcroat" unicode="&#x111;" horiz-adv-x="576" 
d="M31 231q0 61 18.5 106.5t50 75.5t73 44.5t87.5 14.5q34 0 65 -8.5t42 -17.5v85h-100q-8 0 -13.5 5t-5.5 13v18q0 8 5.5 13.5t13.5 5.5h100v92q0 8 6.5 15t15.5 7h108q9 0 15.5 -7t6.5 -15v-92h25q8 0 13 -5.5t5 -13.5v-17q0 -8 -5 -13.5t-13 -5.5h-25v-509
q0 -9 -6.5 -15.5t-15.5 -6.5h-45q-8 0 -14.5 6.5t-9.5 16.5l-13 38q-17 -20 -40 -36q-20 -14 -49 -25t-67 -11q-49 0 -90.5 19t-72 52t-48 77t-17.5 94zM184 232q0 -43 28 -71.5t70 -28.5q43 0 70.5 28.5t27.5 71.5q0 42 -27.5 70t-70.5 28q-21 0 -38.5 -7.5t-31 -20.5
t-21 -31t-7.5 -39z" />
    <glyph glyph-name="Emacron" unicode="&#x112;" horiz-adv-x="578" 
d="M79 681q0 8 5.5 13.5t13.5 5.5h414q8 0 13.5 -5.5t5.5 -13.5v-109q0 -8 -5.5 -13.5t-13.5 -5.5h-277v-124h228q8 0 13.5 -5.5t5.5 -13.5v-109q0 -8 -5.5 -13.5t-13.5 -5.5h-228v-135h277q8 0 13.5 -5.5t5.5 -13.5v-109q0 -8 -5.5 -13.5t-13.5 -5.5h-414q-8 0 -13.5 5.5
t-5.5 13.5v662zM182 801q-8 0 -13.5 5t-5.5 13v41q0 19 19 19h256q19 0 19 -19v-41q0 -8 -5.5 -13t-13.5 -5h-256z" />
    <glyph glyph-name="emacron" unicode="&#x113;" horiz-adv-x="513" 
d="M30 231q0 49 18 92.5t50.5 76.5t76.5 52.5t95 19.5q44 0 83.5 -16t69.5 -44.5t48 -68t18 -87.5q0 -5 -0.5 -15t-1.5 -15q-1 -9 -7.5 -14.5t-14.5 -5.5h-285q0 -14 6 -28t18 -25.5t30 -19t42 -7.5q23 0 48 9t40 20q17 15 29 0l51 -67q5 -7 6 -16t-7 -17q-30 -31 -73 -48.5
t-98 -17.5q-52 0 -96 17.5t-76.5 49.5t-51 76.5t-18.5 98.5zM333 294q-2 23 -20 40t-47 17t-46.5 -17t-22.5 -40h136zM142 563q-8 0 -13.5 5t-5.5 13v41q0 19 19 19h256q19 0 19 -19v-41q0 -8 -5.5 -13t-13.5 -5h-256z" />
    <glyph glyph-name="Ebreve" unicode="&#x114;" horiz-adv-x="578" 
d="M79 681q0 8 5.5 13.5t13.5 5.5h414q8 0 13.5 -5.5t5.5 -13.5v-109q0 -8 -5.5 -13.5t-13.5 -5.5h-277v-124h228q8 0 13.5 -5.5t5.5 -13.5v-109q0 -8 -5.5 -13.5t-13.5 -5.5h-228v-135h277q8 0 13.5 -5.5t5.5 -13.5v-109q0 -8 -5.5 -13.5t-13.5 -5.5h-414q-8 0 -13.5 5.5
t-5.5 13.5v662zM310 763q-56 0 -95 34.5t-47 85.5q-2 9 3.5 15.5t15.5 6.5h45q6 0 10.5 -3.5t6.5 -8.5q7 -20 23 -34t38 -14q20 0 36 15t23 33q2 5 7 8.5t10 3.5h47q9 0 14.5 -6.5t4.5 -15.5q-4 -26 -16.5 -47.5t-31.5 -38t-43 -25.5t-51 -9z" />
    <glyph glyph-name="ebreve" unicode="&#x115;" horiz-adv-x="513" 
d="M30 231q0 49 18 92.5t50.5 76.5t76.5 52.5t95 19.5q44 0 83.5 -16t69.5 -44.5t48 -68t18 -87.5q0 -5 -0.5 -15t-1.5 -15q-1 -9 -7.5 -14.5t-14.5 -5.5h-285q0 -14 6 -28t18 -25.5t30 -19t42 -7.5q23 0 48 9t40 20q17 15 29 0l51 -67q5 -7 6 -16t-7 -17q-30 -31 -73 -48.5
t-98 -17.5q-52 0 -96 17.5t-76.5 49.5t-51 76.5t-18.5 98.5zM333 294q-2 23 -20 40t-47 17t-46.5 -17t-22.5 -40h136zM273 527q-56 0 -95 34.5t-47 85.5q-2 9 3.5 15.5t15.5 6.5h45q6 0 10.5 -3.5t6.5 -8.5q7 -20 23 -34t38 -14q20 0 36 15t23 33q2 5 7 8.5t10 3.5h47
q9 0 14.5 -6.5t4.5 -15.5q-4 -26 -16.5 -47.5t-31.5 -38t-43 -25.5t-51 -9z" />
    <glyph glyph-name="Edotaccent" unicode="&#x116;" horiz-adv-x="578" 
d="M79 681q0 8 5.5 13.5t13.5 5.5h414q8 0 13.5 -5.5t5.5 -13.5v-109q0 -8 -5.5 -13.5t-13.5 -5.5h-277v-124h228q8 0 13.5 -5.5t5.5 -13.5v-109q0 -8 -5.5 -13.5t-13.5 -5.5h-228v-135h277q8 0 13.5 -5.5t5.5 -13.5v-109q0 -8 -5.5 -13.5t-13.5 -5.5h-414q-8 0 -13.5 5.5
t-5.5 13.5v662zM310 766q-18 0 -33.5 7t-27.5 18.5t-18.5 27t-6.5 33.5q0 36 25 62t61 26t61.5 -26t25.5 -62q0 -18 -7 -33.5t-18.5 -27t-27.5 -18.5t-34 -7z" />
    <glyph glyph-name="edotaccent" unicode="&#x117;" horiz-adv-x="513" 
d="M30 231q0 49 18 92.5t50.5 76.5t76.5 52.5t95 19.5q44 0 83.5 -16t69.5 -44.5t48 -68t18 -87.5q0 -5 -0.5 -15t-1.5 -15q-1 -9 -7.5 -14.5t-14.5 -5.5h-285q0 -14 6 -28t18 -25.5t30 -19t42 -7.5q23 0 48 9t40 20q17 15 29 0l51 -67q5 -7 6 -16t-7 -17q-30 -31 -73 -48.5
t-98 -17.5q-52 0 -96 17.5t-76.5 49.5t-51 76.5t-18.5 98.5zM333 294q-2 23 -20 40t-47 17t-46.5 -17t-22.5 -40h136zM270 526q-18 0 -33.5 7t-27.5 18.5t-18.5 27t-6.5 33.5q0 36 25 62t61 26t61.5 -26t25.5 -62q0 -18 -7 -33.5t-18.5 -27t-27.5 -18.5t-34 -7z" />
    <glyph glyph-name="Eogonek" unicode="&#x118;" horiz-adv-x="578" 
d="M79 681q0 8 5.5 13.5t13.5 5.5h414q8 0 13.5 -5.5t5.5 -13.5v-109q0 -8 -5.5 -13.5t-13.5 -5.5h-277v-124h228q8 0 13.5 -5.5t5.5 -13.5v-109q0 -8 -5.5 -13.5t-13.5 -5.5h-228v-135h277q8 0 13.5 -5.5t5.5 -13.5v-107q0 -13 -9 -18q-11 -8 -27.5 -21t-32.5 -29.5
t-27.5 -34.5t-11.5 -36q0 -21 9.5 -29t24.5 -8q20 0 37 11.5t23 17.5q7 7 14.5 4t7.5 -12v-57q0 -10 -3 -18.5t-13 -15.5q-13 -8 -37.5 -16t-54.5 -8q-54 0 -81 31t-27 76q0 26 10 48t24 39.5t30.5 31t29.5 23.5h-319q-8 0 -13.5 5.5t-5.5 13.5v662z" />
    <glyph glyph-name="eogonek" unicode="&#x119;" horiz-adv-x="513" 
d="M30 231q0 49 18 92.5t50.5 76.5t76.5 52.5t95 19.5q44 0 83.5 -16t69.5 -44.5t48 -68t18 -87.5q0 -5 -0.5 -15t-1.5 -15q-1 -9 -7.5 -14.5t-14.5 -5.5h-285q0 -14 6 -28t18 -25.5t30 -19t42 -7.5q23 0 48 9t40 20q17 15 29 0l51 -67q5 -7 6 -16t-7 -17q-39 -40 -95 -55
q-11 -8 -26 -21.5t-29 -29.5t-23.5 -33.5t-9.5 -33.5q0 -21 9.5 -29t24.5 -8q20 0 37 11.5t23 17.5q7 7 14.5 4t7.5 -12v-57q0 -10 -3 -18.5t-13 -15.5q-13 -8 -37.5 -16t-54.5 -8q-54 0 -81 31t-27 76q0 23 7 43t18.5 36.5t25 30t26.5 23.5q-45 6 -83 25.5t-65.5 51t-43 73
t-15.5 90.5zM333 294q-2 23 -20 40t-47 17t-46.5 -17t-22.5 -40h136z" />
    <glyph glyph-name="Ecaron" unicode="&#x11a;" horiz-adv-x="578" 
d="M79 681q0 8 5.5 13.5t13.5 5.5h414q8 0 13.5 -5.5t5.5 -13.5v-109q0 -8 -5.5 -13.5t-13.5 -5.5h-277v-124h228q8 0 13.5 -5.5t5.5 -13.5v-109q0 -8 -5.5 -13.5t-13.5 -5.5h-228v-135h277q8 0 13.5 -5.5t5.5 -13.5v-109q0 -8 -5.5 -13.5t-13.5 -5.5h-414q-8 0 -13.5 5.5
t-5.5 13.5v662zM161 866q-4 3 -6.5 8t0.5 11l34 46q9 12 21 5l99 -58l100 58q8 5 12.5 3.5t9.5 -7.5l33 -47q4 -5 1 -10.5t-7 -8.5l-135 -104q-6 -5 -12.5 -4t-11.5 4z" />
    <glyph glyph-name="ecaron" unicode="&#x11b;" horiz-adv-x="513" 
d="M30 231q0 49 18 92.5t50.5 76.5t76.5 52.5t95 19.5q44 0 83.5 -16t69.5 -44.5t48 -68t18 -87.5q0 -5 -0.5 -15t-1.5 -15q-1 -9 -7.5 -14.5t-14.5 -5.5h-285q0 -14 6 -28t18 -25.5t30 -19t42 -7.5q23 0 48 9t40 20q17 15 29 0l51 -67q5 -7 6 -16t-7 -17q-30 -31 -73 -48.5
t-98 -17.5q-52 0 -96 17.5t-76.5 49.5t-51 76.5t-18.5 98.5zM333 294q-2 23 -20 40t-47 17t-46.5 -17t-22.5 -40h136zM124 616q-4 3 -6.5 8t0.5 11l34 46q9 12 21 5l99 -58l100 58q8 5 12.5 3.5t9.5 -7.5l33 -47q4 -5 1 -10.5t-7 -8.5l-135 -104q-6 -5 -12.5 -4t-11.5 4z
" />
    <glyph glyph-name="Gcircumflex" unicode="&#x11c;" horiz-adv-x="709" 
d="M39 349q0 75 28 140.5t77 114.5t114 77t140 28q63 0 128 -24.5t116 -69.5q7 -5 7.5 -13t-5.5 -14l-79 -84q-13 -11 -27 -1q-29 26 -61.5 37t-69.5 11q-41 0 -77 -16t-62.5 -43.5t-42 -64.5t-15.5 -78t15.5 -77t42.5 -63t63 -43t77 -16q22 0 44 3.5t45 12.5v58h-63
q-8 0 -13.5 5t-5.5 13v99q0 19 19 19h201q8 0 13 -5.5t5 -13.5l1 -269q0 -7 -2.5 -10.5t-5.5 -5.5q-31 -19 -70 -33q-33 -12 -78.5 -22t-99.5 -10q-75 0 -140 28t-114 76t-77 113.5t-28 140.5zM300 762q-8 -5 -12.5 -3.5t-9.5 7.5l-33 47q-4 5 -1 10.5t7 8.5l135 104
q6 5 12.5 4t11.5 -4l138 -104q4 -3 6.5 -8t-0.5 -11l-34 -46q-9 -12 -21 -5l-99 58z" />
    <glyph glyph-name="gcircumflex" unicode="&#x11d;" horiz-adv-x="575" 
d="M190 512q-8 -5 -12.5 -3.5t-9.5 7.5l-33 47q-4 5 -1 10.5t7 8.5l135 104q6 5 12.5 4t11.5 -4l138 -104q4 -3 6.5 -8t-0.5 -11l-34 -46q-9 -12 -21 -5l-99 58l-100 -58v0zM519 15q0 -63 -19 -109t-52.5 -76.5t-78.5 -45.5t-97 -15q-26 0 -53 5t-50.5 12.5t-41.5 16.5
t-27 16q-11 10 -5 26l35 84q3 7 11 10.5t16 -1.5q17 -10 45 -23.5t67 -13.5q21 0 39 4.5t31 15t20.5 28.5t7.5 44v24q-6 -5 -17 -9.5t-26 -9t-31.5 -7t-32.5 -2.5q-46 0 -87.5 15t-73 45.5t-50 76t-18.5 106.5q0 49 17.5 93t48 76.5t72 51.5t90.5 19q38 0 67 -11t49 -25
q23 -16 40 -35l13 38q3 9 9.5 16t14.5 7h45q9 0 15.5 -7t6.5 -15v-425zM184 231q0 -21 7.5 -39t21 -31.5t31 -21t38.5 -7.5q43 0 70.5 28.5t27.5 70.5t-27.5 70.5t-70.5 28.5q-42 0 -70 -28.5t-28 -70.5z" />
    <glyph glyph-name="Gbreve" unicode="&#x11e;" horiz-adv-x="709" 
d="M39 349q0 75 28 140.5t77 114.5t114 77t140 28q63 0 128 -24.5t116 -69.5q7 -5 7.5 -13t-5.5 -14l-79 -84q-13 -11 -27 -1q-29 26 -61.5 37t-69.5 11q-41 0 -77 -16t-62.5 -43.5t-42 -64.5t-15.5 -78t15.5 -77t42.5 -63t63 -43t77 -16q22 0 44 3.5t45 12.5v58h-63
q-8 0 -13.5 5t-5.5 13v99q0 19 19 19h201q8 0 13 -5.5t5 -13.5l1 -269q0 -7 -2.5 -10.5t-5.5 -5.5q-31 -19 -70 -33q-33 -12 -78.5 -22t-99.5 -10q-75 0 -140 28t-114 76t-77 113.5t-28 140.5zM399 763q-56 0 -95 34.5t-47 85.5q-2 9 3.5 15.5t15.5 6.5h45q6 0 10.5 -3.5
t6.5 -8.5q7 -20 23 -34t38 -14q20 0 36 15t23 33q2 5 7 8.5t10 3.5h47q9 0 14.5 -6.5t4.5 -15.5q-4 -26 -16.5 -47.5t-31.5 -38t-43 -25.5t-51 -9z" />
    <glyph glyph-name="gbreve" unicode="&#x11f;" horiz-adv-x="575" 
d="M288 527q-56 0 -95 34.5t-47 85.5q-2 9 3.5 15.5t15.5 6.5h45q6 0 10.5 -3.5t6.5 -8.5q7 -20 23 -34t38 -14q20 0 36 15t23 33q2 5 7 8.5t10 3.5h47q9 0 14.5 -6.5t4.5 -15.5q-4 -26 -16.5 -47.5t-31.5 -38t-43 -25.5t-51 -9zM519 15q0 -63 -19 -109t-52.5 -76.5
t-78.5 -45.5t-97 -15q-26 0 -53 5t-50.5 12.5t-41.5 16.5t-27 16q-11 10 -5 26l35 84q3 7 11 10.5t16 -1.5q17 -10 45 -23.5t67 -13.5q21 0 39 4.5t31 15t20.5 28.5t7.5 44v24q-6 -5 -17 -9.5t-26 -9t-31.5 -7t-32.5 -2.5q-46 0 -87.5 15t-73 45.5t-50 76t-18.5 106.5
q0 49 17.5 93t48 76.5t72 51.5t90.5 19q38 0 67 -11t49 -25q23 -16 40 -35l13 38q3 9 9.5 16t14.5 7h45q9 0 15.5 -7t6.5 -15v-425zM184 231q0 -21 7.5 -39t21 -31.5t31 -21t38.5 -7.5q43 0 70.5 28.5t27.5 70.5t-27.5 70.5t-70.5 28.5q-42 0 -70 -28.5t-28 -70.5z" />
    <glyph glyph-name="Gdotaccent" unicode="&#x120;" horiz-adv-x="709" 
d="M39 349q0 75 28 140.5t77 114.5t114 77t140 28q63 0 128 -24.5t116 -69.5q7 -5 7.5 -13t-5.5 -14l-79 -84q-13 -11 -27 -1q-29 26 -61.5 37t-69.5 11q-41 0 -77 -16t-62.5 -43.5t-42 -64.5t-15.5 -78t15.5 -77t42.5 -63t63 -43t77 -16q22 0 44 3.5t45 12.5v58h-63
q-8 0 -13.5 5t-5.5 13v99q0 19 19 19h201q8 0 13 -5.5t5 -13.5l1 -269q0 -7 -2.5 -10.5t-5.5 -5.5q-31 -19 -70 -33q-33 -12 -78.5 -22t-99.5 -10q-75 0 -140 28t-114 76t-77 113.5t-28 140.5zM399 766q-18 0 -33.5 7t-27.5 18.5t-18.5 27t-6.5 33.5q0 36 25 62t61 26
t61.5 -26t25.5 -62q0 -18 -7 -33.5t-18.5 -27t-27.5 -18.5t-34 -7z" />
    <glyph glyph-name="gdotaccent" unicode="&#x121;" horiz-adv-x="575" 
d="M519 15q0 -63 -19 -109t-52.5 -76.5t-78.5 -45.5t-97 -15q-26 0 -53 5t-50.5 12.5t-41.5 16.5t-27 16q-11 10 -5 26l35 84q3 7 11 10.5t16 -1.5q17 -10 45 -23.5t67 -13.5q21 0 39 4.5t31 15t20.5 28.5t7.5 44v24q-6 -5 -17 -9.5t-26 -9t-31.5 -7t-32.5 -2.5
q-46 0 -87.5 15t-73 45.5t-50 76t-18.5 106.5q0 49 17.5 93t48 76.5t72 51.5t90.5 19q38 0 67 -11t49 -25q23 -16 40 -35l13 38q3 9 9.5 16t14.5 7h45q9 0 15.5 -7t6.5 -15v-425zM184 231q0 -21 7.5 -39t21 -31.5t31 -21t38.5 -7.5q43 0 70.5 28.5t27.5 70.5t-27.5 70.5
t-70.5 28.5q-42 0 -70 -28.5t-28 -70.5zM269 526q-18 0 -33.5 7t-27.5 18.5t-18.5 27t-6.5 33.5q0 36 25 62t61 26t61.5 -26t25.5 -62q0 -18 -7 -33.5t-18.5 -27t-27.5 -18.5t-34 -7z" />
    <glyph glyph-name="uni0122" unicode="&#x122;" horiz-adv-x="709" 
d="M39 349q0 75 28 140.5t77 114.5t114 77t140 28q63 0 128 -24.5t116 -69.5q7 -5 7.5 -13t-5.5 -14l-79 -84q-13 -11 -27 -1q-29 26 -61.5 37t-69.5 11q-41 0 -77 -16t-62.5 -43.5t-42 -64.5t-15.5 -78t15.5 -77t42.5 -63t63 -43t77 -16q22 0 44 3.5t45 12.5v58h-63
q-8 0 -13.5 5t-5.5 13v99q0 19 19 19h201q8 0 13 -5.5t5 -13.5l1 -269q0 -7 -2.5 -10.5t-5.5 -5.5q-31 -19 -70 -33q-33 -12 -78.5 -22t-99.5 -10q-75 0 -140 28t-114 76t-77 113.5t-28 140.5zM295 -144q0 38 24 59t62 21q19 0 36.5 -5.5t30.5 -18t21 -32.5t8 -48
q0 -53 -16.5 -88t-35.5 -61q-10 -10 -23 -1l-30 22q-7 5 -7 11.5t5 11.5q11 13 17.5 31t6.5 34v7q-4 -3 -9 -5t-11 -3t-13 -1q-31 0 -48.5 18.5t-17.5 47.5z" />
    <glyph glyph-name="uni0123" unicode="&#x123;" horiz-adv-x="575" 
d="M519 15q0 -63 -19 -109t-52.5 -76.5t-78.5 -45.5t-97 -15q-26 0 -53 5t-50.5 12.5t-41.5 16.5t-27 16q-11 10 -5 26l35 84q3 7 11 10.5t16 -1.5q17 -10 45 -23.5t67 -13.5q21 0 39 4.5t31 15t20.5 28.5t7.5 44v24q-6 -5 -17 -9.5t-26 -9t-31.5 -7t-32.5 -2.5
q-46 0 -87.5 15t-73 45.5t-50 76t-18.5 106.5q0 49 17.5 93t48 76.5t72 51.5t90.5 19q38 0 67 -11t49 -25q23 -16 40 -35l13 38q3 9 9.5 16t14.5 7h45q9 0 15.5 -7t6.5 -15v-425zM184 231q0 -21 7.5 -39t21 -31.5t31 -21t38.5 -7.5q43 0 70.5 28.5t27.5 70.5t-27.5 70.5
t-70.5 28.5q-42 0 -70 -28.5t-28 -70.5zM381 592q0 -38 -24 -59t-62 -21q-19 0 -36.5 5.5t-30.5 18t-21 32t-8 48.5q0 53 16.5 88t35.5 61q10 10 23 1l30 -22q7 -5 7 -11.5t-5 -11.5q-11 -13 -18 -31t-7 -34v-7l10 4t10.5 3.5t12.5 1.5q32 0 49.5 -18.5t17.5 -47.5z" />
    <glyph glyph-name="Hcircumflex" unicode="&#x124;" horiz-adv-x="758" 
d="M79 681q0 8 5.5 13.5t13.5 5.5h119q8 0 13.5 -5.5t5.5 -13.5v-252h286v252q0 8 5.5 13.5t13.5 5.5h119q8 0 13.5 -5.5t5.5 -13.5v-662q0 -8 -5.5 -13.5t-13.5 -5.5h-119q-8 0 -13.5 5.5t-5.5 13.5v263h-286v-263q0 -8 -5.5 -13.5t-13.5 -5.5h-119q-8 0 -13.5 5.5
t-5.5 13.5v662zM280 762q-8 -5 -12.5 -3.5t-9.5 7.5l-33 47q-4 5 -1 10.5t7 8.5l135 104q6 5 12.5 4t11.5 -4l138 -104q4 -3 6.5 -8t-0.5 -11l-34 -46q-9 -12 -21 -5l-99 58z" />
    <glyph glyph-name="hcircumflex" unicode="&#x125;" horiz-adv-x="549" 
d="M57 678q0 8 6.5 15t15.5 7h108q9 0 15.5 -7t6.5 -15v-239q48 33 98 33q54 0 91 -18.5t59 -50.5t31.5 -74.5t9.5 -90.5v-216q0 -9 -7 -15.5t-15 -6.5h-108q-10 0 -16 6.5t-6 15.5v218q0 39 -15.5 64.5t-53.5 25.5q-28 0 -48 -19t-20 -71v-218q0 -11 -5 -16.5t-20 -5.5
h-105q-9 0 -15.5 6.5t-6.5 15.5v656zM26 729q-8 -5 -12.5 -3.5t-9.5 7.5l-33 47q-4 5 -1 10.5t7 8.5l135 104q6 5 12.5 4t11.5 -4l138 -104q4 -3 6.5 -8t-0.5 -11l-34 -46q-9 -12 -21 -5l-99 58z" />
    <glyph glyph-name="Hbar" unicode="&#x126;" horiz-adv-x="758" 
d="M79 531h-28q-8 0 -13 5.5t-5 13.5v17q0 8 5 13.5t13 5.5h28v95q0 8 5.5 13.5t13.5 5.5h119q8 0 13.5 -5.5t5.5 -13.5v-95h286v95q0 8 5.5 13.5t13.5 5.5h119q8 0 13.5 -5.5t5.5 -13.5v-95h28q8 0 13.5 -5.5t5.5 -13.5v-18q0 -8 -5.5 -13t-13.5 -5h-28v-512
q0 -8 -5.5 -13.5t-13.5 -5.5h-119q-8 0 -13.5 5.5t-5.5 13.5v263h-286v-263q0 -8 -5.5 -13.5t-13.5 -5.5h-119q-8 0 -13.5 5.5t-5.5 13.5v512zM522 429v102h-286v-102h286z" />
    <glyph glyph-name="hbar" unicode="&#x127;" horiz-adv-x="568" 
d="M57 531h-24q-8 0 -13 5.5t-5 13.5v17q0 8 5 13.5t13 5.5h24v92q0 8 6.5 15t15.5 7h108q9 0 15.5 -7t6.5 -15v-92h101q8 0 13.5 -5.5t5.5 -13.5v-18q0 -8 -5.5 -13t-13.5 -5h-101v-92q24 17 53 25t55 8q54 0 92.5 -18.5t62.5 -50.5t35 -74.5t11 -90.5v-216q0 -9 -7 -15.5
t-15 -6.5h-108q-10 0 -16 6.5t-6 15.5v218q0 39 -20.5 64.5t-58.5 25.5q-14 0 -28 -4t-25 -14.5t-18 -28t-7 -43.5v-218q0 -11 -5 -16.5t-20 -5.5h-105q-9 0 -15.5 6.5t-6.5 15.5v509z" />
    <glyph glyph-name="Itilde" unicode="&#x128;" horiz-adv-x="316" 
d="M79 681q0 8 5.5 13.5t13.5 5.5h120q8 0 13.5 -5.5t5.5 -13.5v-662q0 -8 -5.5 -13.5t-13.5 -5.5h-120q-8 0 -13.5 5.5t-5.5 13.5v662zM7 813q-5 4 -6.5 11t0.5 12q4 7 13.5 21t23.5 28t32 24.5t38 10.5q18 0 31.5 -7.5t25.5 -16t24 -16t27 -7.5q12 0 22.5 11.5t15.5 19.5
q4 6 10.5 7.5t14.5 -5.5l34 -26q14 -10 1 -29q-4 -6 -12.5 -19t-21.5 -26t-29.5 -23t-36.5 -10t-34.5 7.5t-27 16.5t-24 16.5t-24.5 7.5q-7 0 -12.5 -4t-10.5 -9.5t-9.5 -11.5l-7.5 -10q-9 -9 -22 -1z" />
    <glyph glyph-name="itilde" unicode="&#x129;" horiz-adv-x="283" 
d="M56 440q0 10 6.5 16t15.5 6h127q9 0 15.5 -6t6.5 -16v-418q0 -9 -6.5 -15.5t-15.5 -6.5h-127q-9 0 -15.5 6.5t-6.5 15.5v418zM-11 583q-5 4 -6.5 11t0.5 12q4 7 13.5 21t23.5 28t32 24.5t38 10.5q18 0 31.5 -7.5t25.5 -16t24 -16t27 -7.5q12 0 22.5 11.5t15.5 19.5
q4 6 10.5 7.5t14.5 -5.5l34 -26q14 -10 1 -29q-4 -6 -12.5 -19t-21.5 -26t-29.5 -23t-36.5 -10t-34.5 7.5t-27 16.5t-24 16.5t-24.5 7.5q-7 0 -12.5 -4t-10.5 -9.5t-9.5 -11.5l-7.5 -10q-9 -9 -22 -1z" />
    <glyph glyph-name="Imacron" unicode="&#x12a;" horiz-adv-x="316" 
d="M79 681q0 8 5.5 13.5t13.5 5.5h120q8 0 13.5 -5.5t5.5 -13.5v-662q0 -8 -5.5 -13.5t-13.5 -5.5h-120q-8 0 -13.5 5.5t-5.5 13.5v662zM31 801q-8 0 -13.5 5t-5.5 13v41q0 19 19 19h256q19 0 19 -19v-41q0 -8 -5.5 -13t-13.5 -5h-256z" />
    <glyph glyph-name="imacron" unicode="&#x12b;" horiz-adv-x="283" 
d="M56 440q0 10 6.5 16t15.5 6h127q9 0 15.5 -6t6.5 -16v-418q0 -9 -6.5 -15.5t-15.5 -6.5h-127q-9 0 -15.5 6.5t-6.5 15.5v418zM13 563q-8 0 -13.5 5t-5.5 13v41q0 19 19 19h256q19 0 19 -19v-41q0 -8 -5.5 -13t-13.5 -5h-256z" />
    <glyph glyph-name="Ibreve" unicode="&#x12c;" horiz-adv-x="316" 
d="M79 681q0 8 5.5 13.5t13.5 5.5h120q8 0 13.5 -5.5t5.5 -13.5v-662q0 -8 -5.5 -13.5t-13.5 -5.5h-120q-8 0 -13.5 5.5t-5.5 13.5v662zM159 763q-56 0 -95 34.5t-47 85.5q-2 9 3.5 15.5t15.5 6.5h45q6 0 10.5 -3.5t6.5 -8.5q7 -20 23 -34t38 -14q20 0 36 15t23 33
q2 5 7 8.5t10 3.5h47q9 0 14.5 -6.5t4.5 -15.5q-4 -26 -16.5 -47.5t-31.5 -38t-43 -25.5t-51 -9z" />
    <glyph glyph-name="ibreve" unicode="&#x12d;" horiz-adv-x="283" 
d="M56 440q0 10 6.5 16t15.5 6h127q9 0 15.5 -6t6.5 -16v-418q0 -9 -6.5 -15.5t-15.5 -6.5h-127q-9 0 -15.5 6.5t-6.5 15.5v418zM139 527q-56 0 -95 34.5t-47 85.5q-2 9 3.5 15.5t15.5 6.5h45q6 0 10.5 -3.5t6.5 -8.5q7 -20 23 -34t38 -14q20 0 36 15t23 33q2 5 7 8.5
t10 3.5h47q9 0 14.5 -6.5t4.5 -15.5q-4 -26 -16.5 -47.5t-31.5 -38t-43 -25.5t-51 -9z" />
    <glyph glyph-name="Iogonek" unicode="&#x12e;" horiz-adv-x="316" 
d="M79 681q0 8 5.5 13.5t13.5 5.5h120q8 0 13.5 -5.5t5.5 -13.5v-662q0 -8 -5.5 -13.5t-13.5 -5.5h-11q-11 -8 -26 -21t-29 -29t-24 -33.5t-10 -34.5q0 -21 9.5 -29t24.5 -8q20 0 37 11.5t23 17.5q7 7 14.5 4t7.5 -12v-57q0 -10 -3 -18.5t-13 -15.5q-13 -8 -37.5 -16
t-54.5 -8q-54 0 -81 31t-27 76q0 26 9 48t22.5 39.5t29 31t28.5 23.5h-9q-8 0 -13.5 5.5t-5.5 13.5v662z" />
    <glyph glyph-name="iogonek" unicode="&#x12f;" horiz-adv-x="264" 
d="M56 440q0 10 6.5 16t15.5 6h108q9 0 15.5 -6t6.5 -16v-406q0 -11 -7 -20t-14 -14q-11 -8 -26 -21t-29 -29t-24 -33.5t-10 -34.5q0 -21 9.5 -29t24.5 -8q20 0 37 11.5t23 17.5q7 7 14.5 4t7.5 -12v-57q0 -10 -3 -18.5t-13 -15.5q-13 -8 -37.5 -16t-54.5 -8q-54 0 -81 31
t-27 76q0 26 9 48t22.5 39.5t29 31t28.5 23.5h-9q-9 0 -15.5 6.5t-6.5 15.5v418zM131 526q-18 0 -33.5 7t-27.5 18.5t-18.5 27t-6.5 33.5q0 36 25 62t61 26t61.5 -26t25.5 -62q0 -18 -7 -33.5t-18.5 -27t-27.5 -18.5t-34 -7z" />
    <glyph glyph-name="Idotaccent" unicode="&#x130;" horiz-adv-x="316" 
d="M79 681q0 8 5.5 13.5t13.5 5.5h120q8 0 13.5 -5.5t5.5 -13.5v-662q0 -8 -5.5 -13.5t-13.5 -5.5h-120q-8 0 -13.5 5.5t-5.5 13.5v662zM158 766q-18 0 -33.5 7t-27.5 18.5t-18.5 27t-6.5 33.5q0 36 25 62t61 26t61.5 -26t25.5 -62q0 -18 -7 -33.5t-18.5 -27t-27.5 -18.5
t-34 -7z" />
    <glyph glyph-name="dotlessi" unicode="&#x131;" horiz-adv-x="283" 
d="M56 440q0 10 6.5 16t15.5 6h127q9 0 15.5 -6t6.5 -16v-418q0 -9 -6.5 -15.5t-15.5 -6.5h-127q-9 0 -15.5 6.5t-6.5 15.5v418z" />
    <glyph glyph-name="IJ" unicode="&#x132;" horiz-adv-x="772" 
d="M79 681q0 8 5.5 13.5t13.5 5.5h120q8 0 13.5 -5.5t5.5 -13.5v-662q0 -8 -5.5 -13.5t-13.5 -5.5h-120q-8 0 -13.5 5.5t-5.5 13.5v662zM331 63q-8 13 2 25l68 67q6 5 13.5 5.5t13.5 -5.5q9 -9 21.5 -15t29.5 -6q10 0 21 2.5t19 10t13.5 20t5.5 33.5v481q0 8 5.5 13.5
t13.5 5.5h122q8 0 13.5 -5.5t5.5 -13.5v-482q0 -52 -17 -91t-45.5 -65.5t-66 -39.5t-77.5 -13q-36 0 -63.5 8.5t-47 20t-32 24t-18.5 20.5z" />
    <glyph glyph-name="ij" unicode="&#x133;" horiz-adv-x="539" 
d="M56 440q0 10 6.5 16t15.5 6h108q9 0 15.5 -6t6.5 -16v-418q0 -9 -6.5 -15.5t-15.5 -6.5h-108q-9 0 -15.5 6.5t-6.5 15.5v418zM131 526q-18 0 -33.5 7t-27.5 18.5t-18.5 27t-6.5 33.5q0 36 25 62t61 26t61.5 -26t25.5 -62q0 -18 -7 -33.5t-18.5 -27t-27.5 -18.5t-34 -7z
M406 526q-18 0 -33.5 7t-27.5 18.5t-18.5 27t-6.5 33.5q0 36 25 62t61 26t61.5 -26t25.5 -62q0 -18 -7 -33.5t-18.5 -27t-27.5 -18.5t-34 -7zM482 -4q0 -53 -14 -94t-37.5 -71t-54.5 -48.5t-64 -27.5q-21 -5 -32 -1t-17 18l-29 73q-6 16 1 23.5t15 10.5q15 6 29.5 14.5
t26 21t18 29.5t6.5 40v456q0 10 6.5 16t15.5 6h108q9 0 15.5 -6t6.5 -16v-444z" />
    <glyph glyph-name="Jcircumflex" unicode="&#x134;" horiz-adv-x="450" 
d="M9 63q-8 13 2 25l68 67q6 5 13.5 5.5t13.5 -5.5q9 -9 21.5 -15t29.5 -6q10 0 21 2.5t19 10t13.5 20t5.5 33.5v481q0 8 5.5 13.5t13.5 5.5h122q8 0 13.5 -5.5t5.5 -13.5v-482q0 -52 -17 -91t-45.5 -65.5t-66 -39.5t-77.5 -13q-36 0 -63.5 8.5t-47 20t-32 24t-18.5 20.5z
M191 762q-8 -5 -12.5 -3.5t-9.5 7.5l-33 47q-4 5 -1 10.5t7 8.5l135 104q6 5 12.5 4t11.5 -4l138 -104q4 -3 6.5 -8t-0.5 -11l-34 -46q-9 -12 -21 -5l-99 58z" />
    <glyph glyph-name="jcircumflex" unicode="&#x135;" horiz-adv-x="266" 
d="M209 -4q0 -53 -14 -94t-37.5 -71t-54.5 -48.5t-64 -27.5q-21 -5 -32 -1t-17 18l-29 73q-6 16 1 23.5t15 10.5q15 6 29.5 14.5t26 21t18 29.5t6.5 40v456q0 10 6.5 16t15.5 6h108q9 0 15.5 -6t6.5 -16v-444zM31 512q-8 -5 -12.5 -3.5t-9.5 7.5l-33 47q-4 5 -1 10.5t7 8.5
l135 104q6 5 12.5 4t11.5 -4l138 -104q4 -3 6.5 -8t-0.5 -11l-34 -46q-9 -12 -21 -5l-99 58z" />
    <glyph glyph-name="uni0136" unicode="&#x136;" horiz-adv-x="663" 
d="M79 676q0 10 6.5 17t17.5 7h117q10 0 17 -7t7 -17v-267l222 281q3 4 8.5 7t10.5 3h126q14 0 20 -13t-2 -24l-234 -297l255 -328q8 -11 1.5 -24t-20.5 -13h-138q-5 0 -10.5 2.5t-7.5 4.5l-231 310v-294q0 -10 -7 -17t-17 -7h-117q-11 0 -17.5 7t-6.5 17v652zM272 -144
q0 38 24 59t62 21q19 0 36.5 -5.5t30.5 -18t21 -32.5t8 -48q0 -53 -16.5 -88t-35.5 -61q-10 -10 -23 -1l-30 22q-7 5 -7 11.5t5 11.5q11 13 17.5 31t6.5 34v7q-4 -3 -9 -5t-11 -3t-13 -1q-31 0 -48.5 18.5t-17.5 47.5z" />
    <glyph glyph-name="uni0137" unicode="&#x137;" horiz-adv-x="537" 
d="M57 678q0 8 6.5 15t15.5 7h108q9 0 15.5 -7t6.5 -15v-391l130 161q5 5 12 9.5t17 4.5h123q15 0 21.5 -12.5t-3.5 -23.5l-154 -178l163 -213q9 -11 3.5 -23t-20.5 -12h-138q-3 0 -8 2.5t-8 6.5l-138 201v-188q0 -9 -6.5 -15.5t-15.5 -6.5h-108q-9 0 -15.5 6.5t-6.5 15.5
v656zM186 -144q0 38 24 59t62 21q19 0 36.5 -5.5t30.5 -18t21 -32.5t8 -48q0 -53 -16.5 -88t-35.5 -61q-10 -10 -23 -1l-30 22q-7 5 -7 11.5t5 11.5q11 13 17.5 31t6.5 34v7q-4 -3 -9 -5t-11 -3t-13 -1q-31 0 -48.5 18.5t-17.5 47.5z" />
    <glyph glyph-name="kgreenlandic" unicode="&#x138;" horiz-adv-x="550" 
d="M56 439q0 8 6.5 15t15.5 7h108q9 0 15.5 -7t6.5 -15v-175l140 184q5 5 12 9.5t17 4.5h123q15 0 22 -12.5t-4 -23.5l-164 -199l183 -192q9 -11 3.5 -23t-20.5 -12h-138q-3 0 -8 2.5t-8 6.5l-158 178v-165q0 -9 -6.5 -15.5t-15.5 -6.5h-108q-9 0 -15.5 6.5t-6.5 15.5v417z
" />
    <glyph glyph-name="Lacute" unicode="&#x139;" horiz-adv-x="510" 
d="M79 681q0 8 5.5 13.5t13.5 5.5h119q8 0 13.5 -5.5t5.5 -13.5v-534h238q8 0 13.5 -5.5t5.5 -13.5v-109q0 -8 -5.5 -13.5t-13.5 -5.5h-376q-8 0 -13.5 5.5t-5.5 13.5v662zM85 762q-10 -6 -16.5 -2.5t-10.5 11.5l-21 42q-3 6 -0.5 11t6.5 8l170 104q5 3 13.5 3.5t12.5 -6.5
l34 -59q6 -11 3 -18.5t-9 -11.5z" />
    <glyph glyph-name="lacute" unicode="&#x13a;" horiz-adv-x="266" 
d="M57 678q0 8 6.5 15t15.5 7h108q9 0 15.5 -7t6.5 -15v-656q0 -9 -6.5 -15.5t-15.5 -6.5h-108q-9 0 -15.5 6.5t-6.5 15.5v656zM63 729q-10 -6 -16.5 -2.5t-10.5 11.5l-21 42q-3 6 -0.5 11t6.5 8l170 104q5 3 13.5 3.5t12.5 -6.5l34 -59q6 -11 3 -18.5t-9 -11.5z" />
    <glyph glyph-name="uni013B" unicode="&#x13b;" horiz-adv-x="510" 
d="M79 681q0 8 5.5 13.5t13.5 5.5h119q8 0 13.5 -5.5t5.5 -13.5v-534h238q8 0 13.5 -5.5t5.5 -13.5v-109q0 -8 -5.5 -13.5t-13.5 -5.5h-376q-8 0 -13.5 5.5t-5.5 13.5v662zM195 -144q0 38 24 59t62 21q19 0 36.5 -5.5t30.5 -18t21 -32.5t8 -48q0 -53 -16.5 -88t-35.5 -61
q-10 -10 -23 -1l-30 22q-7 5 -7 11.5t5 11.5q11 13 17.5 31t6.5 34v7q-4 -3 -9 -5t-11 -3t-13 -1q-31 0 -48.5 18.5t-17.5 47.5z" />
    <glyph glyph-name="uni013C" unicode="&#x13c;" horiz-adv-x="266" 
d="M57 678q0 8 6.5 15t15.5 7h108q9 0 15.5 -7t6.5 -15v-656q0 -9 -6.5 -15.5t-15.5 -6.5h-108q-9 0 -15.5 6.5t-6.5 15.5v656zM43 -144q0 38 24 59t62 21q19 0 36.5 -5.5t30.5 -18t21 -32.5t8 -48q0 -53 -16.5 -88t-35.5 -61q-10 -10 -23 -1l-30 22q-7 5 -7 11.5t5 11.5
q11 13 17.5 31t6.5 34v7q-4 -3 -9 -5t-11 -3t-13 -1q-31 0 -48.5 18.5t-17.5 47.5z" />
    <glyph glyph-name="Lcaron" unicode="&#x13d;" horiz-adv-x="517" 
d="M79 681q0 8 5.5 13.5t13.5 5.5h119q8 0 13.5 -5.5t5.5 -13.5v-534h238q8 0 13.5 -5.5t5.5 -13.5v-109q0 -8 -5.5 -13.5t-13.5 -5.5h-376q-8 0 -13.5 5.5t-5.5 13.5v662zM301 630q0 38 24 59t62 21q19 0 36.5 -5.5t30.5 -18t21 -32.5t8 -48q0 -53 -16.5 -88t-35.5 -61
q-10 -10 -23 -1l-30 22q-7 5 -7 11.5t5 11.5q11 13 17.5 31t6.5 34v7q-4 -3 -9 -5t-11 -3t-13 -1q-31 0 -48.5 18.5t-17.5 47.5z" />
    <glyph glyph-name="lcaron" unicode="&#x13e;" horiz-adv-x="273" 
d="M57 678q0 8 6.5 15t15.5 7h108q9 0 15.5 -7t6.5 -15v-656q0 -9 -6.5 -15.5t-15.5 -6.5h-108q-9 0 -15.5 6.5t-6.5 15.5v656zM233 630q0 38 24 59t62 21q19 0 36.5 -5.5t30.5 -18t21 -32.5t8 -48q0 -53 -16.5 -88t-35.5 -61q-10 -10 -23 -1l-30 22q-7 5 -7 11.5t5 11.5
q11 13 17.5 31t6.5 34v7q-4 -3 -9 -5t-11 -3t-13 -1q-31 0 -48.5 18.5t-17.5 47.5z" />
    <glyph glyph-name="Ldot" unicode="&#x13f;" horiz-adv-x="546" 
d="M79 681q0 8 5.5 13.5t13.5 5.5h119q8 0 13.5 -5.5t5.5 -13.5v-534h238q8 0 13.5 -5.5t5.5 -13.5v-109q0 -8 -5.5 -13.5t-13.5 -5.5h-376q-8 0 -13.5 5.5t-5.5 13.5v662zM453 301q-18 0 -33.5 7t-27.5 18.5t-18.5 27t-6.5 33.5q0 36 25 62t61 26t61.5 -26t25.5 -62
q0 -18 -7 -33.5t-18.5 -27t-27.5 -18.5t-34 -7z" />
    <glyph glyph-name="ldot" unicode="&#x140;" horiz-adv-x="455" 
d="M57 678q0 8 6.5 15t15.5 7h108q9 0 15.5 -7t6.5 -15v-656q0 -9 -6.5 -15.5t-15.5 -6.5h-108q-9 0 -15.5 6.5t-6.5 15.5v656zM356 254q-18 0 -33.5 7t-27.5 18.5t-18.5 27t-6.5 33.5q0 36 25 62t61 26t61.5 -26t25.5 -62q0 -18 -7 -33.5t-18.5 -27t-27.5 -18.5t-34 -7z
" />
    <glyph glyph-name="Lslash" unicode="&#x141;" horiz-adv-x="510" 
d="M79 304l-23 -13q-7 -4 -14.5 -2t-11.5 9l-8 15q-4 6 -2.5 13.5t8.5 11.5l51 29v314q0 8 5.5 13.5t13.5 5.5h119q8 0 13.5 -5.5t5.5 -13.5v-223l75 44q8 4 15 2t11 -9l9 -16q4 -6 2 -13t-9 -12l-103 -60v-247h238q8 0 13.5 -5.5t5.5 -13.5v-109q0 -8 -5.5 -13.5
t-13.5 -5.5h-376q-8 0 -13.5 5.5t-5.5 13.5v285z" />
    <glyph glyph-name="lslash" unicode="&#x142;" horiz-adv-x="295" 
d="M69 304l-6 -3l-18 -10q-7 -4 -14.5 -2t-11.5 9l-8 15q-4 6 -2.5 13.5t8.5 11.5l46 27l6 3v310q0 8 6.5 15t15.5 7h108q9 0 15.5 -7t6.5 -15v-221l5 3l43 26q8 4 15 2t11 -9l9 -16q4 -6 2 -13t-9 -12l-71 -42l-5 -3v-371q0 -9 -6.5 -15.5t-15.5 -6.5h-108q-9 0 -15.5 6.5
t-6.5 15.5v282z" />
    <glyph glyph-name="Nacute" unicode="&#x143;" horiz-adv-x="759" 
d="M78 692q0 8 5.5 13t13.5 5h15q8 0 13.5 -4.5t11.5 -10.5l384 -369h1v355q0 8 5.5 13.5t13.5 5.5h120q8 0 13.5 -5.5t5.5 -13.5v-673q0 -9 -5.5 -13.5t-13.5 -4.5h-10q-14 0 -25 11l-389 391h-1v-373q0 -8 -5.5 -13.5t-13.5 -5.5h-119q-8 0 -13.5 5.5t-5.5 13.5zM310 762
q-10 -6 -16.5 -2.5t-10.5 11.5l-21 42q-3 6 -0.5 11t6.5 8l170 104q5 3 13.5 3.5t12.5 -6.5l34 -59q6 -11 3 -18.5t-9 -11.5z" />
    <glyph glyph-name="nacute" unicode="&#x144;" horiz-adv-x="549" 
d="M56 440q0 10 6.5 16t15.5 6h45q13 0 21 -14l17 -46q9 10 21 22.5t29 23t39.5 17.5t54.5 7q54 0 91 -18t59.5 -49t32.5 -72.5t10 -89.5v-221q0 -9 -6.5 -15.5t-14.5 -6.5h-109q-10 0 -16 6.5t-6 15.5v223q0 33 -14 59t-53 26q-35 0 -52.5 -22t-17.5 -57v-229
q0 -8 -4.5 -15t-16.5 -7h-110q-9 0 -15.5 6.5t-6.5 15.5v418zM221 512q-10 -6 -16.5 -2.5t-10.5 11.5l-21 42q-3 6 -0.5 11t6.5 8l170 104q5 3 13.5 3.5t12.5 -6.5l34 -59q6 -11 3 -18.5t-9 -11.5z" />
    <glyph glyph-name="uni0145" unicode="&#x145;" horiz-adv-x="759" 
d="M78 692q0 8 5.5 13t13.5 5h15q8 0 13.5 -4.5t11.5 -10.5l384 -369h1v355q0 8 5.5 13.5t13.5 5.5h120q8 0 13.5 -5.5t5.5 -13.5v-673q0 -9 -5.5 -13.5t-13.5 -4.5h-10q-14 0 -25 11l-389 391h-1v-373q0 -8 -5.5 -13.5t-13.5 -5.5h-119q-8 0 -13.5 5.5t-5.5 13.5zM314 -144
q0 38 24 59t62 21q19 0 36.5 -5.5t30.5 -18t21 -32.5t8 -48q0 -53 -16.5 -88t-35.5 -61q-10 -10 -23 -1l-30 22q-7 5 -7 11.5t5 11.5q11 13 17.5 31t6.5 34v7q-4 -3 -9 -5t-11 -3t-13 -1q-31 0 -48.5 18.5t-17.5 47.5z" />
    <glyph glyph-name="uni0146" unicode="&#x146;" horiz-adv-x="549" 
d="M56 440q0 10 6.5 16t15.5 6h45q13 0 21 -14l17 -46q9 10 21 22.5t29 23t39.5 17.5t54.5 7q54 0 91 -18t59.5 -49t32.5 -72.5t10 -89.5v-221q0 -9 -6.5 -15.5t-14.5 -6.5h-109q-10 0 -16 6.5t-6 15.5v223q0 33 -14 59t-53 26q-35 0 -52.5 -22t-17.5 -57v-229
q0 -8 -4.5 -15t-16.5 -7h-110q-9 0 -15.5 6.5t-6.5 15.5v418zM190 -144q0 38 24 59t62 21q19 0 36.5 -5.5t30.5 -18t21 -32.5t8 -48q0 -53 -16.5 -88t-35.5 -61q-10 -10 -23 -1l-30 22q-7 5 -7 11.5t5 11.5q11 13 17.5 31t6.5 34v7q-4 -3 -9 -5t-11 -3t-13 -1
q-31 0 -48.5 18.5t-17.5 47.5z" />
    <glyph glyph-name="Ncaron" unicode="&#x147;" horiz-adv-x="759" 
d="M78 692q0 8 5.5 13t13.5 5h15q8 0 13.5 -4.5t11.5 -10.5l384 -369h1v355q0 8 5.5 13.5t13.5 5.5h120q8 0 13.5 -5.5t5.5 -13.5v-673q0 -9 -5.5 -13.5t-13.5 -4.5h-10q-14 0 -25 11l-389 391h-1v-373q0 -8 -5.5 -13.5t-13.5 -5.5h-119q-8 0 -13.5 5.5t-5.5 13.5zM232 866
q-4 3 -6.5 8t0.5 11l34 46q9 12 21 5l99 -58l100 58q8 5 12.5 3.5t9.5 -7.5l33 -47q4 -5 1 -10.5t-7 -8.5l-135 -104q-6 -5 -12.5 -4t-11.5 4z" />
    <glyph glyph-name="ncaron" unicode="&#x148;" horiz-adv-x="549" 
d="M56 440q0 10 6.5 16t15.5 6h45q13 0 21 -14l17 -46q9 10 21 22.5t29 23t39.5 17.5t54.5 7q54 0 91 -18t59.5 -49t32.5 -72.5t10 -89.5v-221q0 -9 -6.5 -15.5t-14.5 -6.5h-109q-10 0 -16 6.5t-6 15.5v223q0 33 -14 59t-53 26q-35 0 -52.5 -22t-17.5 -57v-229
q0 -8 -4.5 -15t-16.5 -7h-110q-9 0 -15.5 6.5t-6.5 15.5v418zM142 616q-4 3 -6.5 8t0.5 11l34 46q9 12 21 5l99 -58l100 58q8 5 12.5 3.5t9.5 -7.5l33 -47q4 -5 1 -10.5t-7 -8.5l-135 -104q-6 -5 -12.5 -4t-11.5 4z" />
    <glyph glyph-name="napostrophe" unicode="&#x149;" horiz-adv-x="574" 
d="M-94 630q0 38 24 59t62 21q19 0 36.5 -5.5t30.5 -18t21 -32.5t8 -48q0 -53 -16.5 -88t-35.5 -61q-10 -10 -23 -1l-30 22q-7 5 -7 11.5t5 11.5q11 13 17.5 31t6.5 34v7q-4 -3 -9 -5t-11 -3t-13 -1q-31 0 -48.5 18.5t-17.5 47.5zM81 440q0 10 6.5 16t15.5 6h45q13 0 21 -14
l17 -46q9 10 21 22.5t29 23t39.5 17.5t54.5 7q54 0 91 -18t59.5 -49t32.5 -72.5t10 -89.5v-221q0 -9 -6.5 -15.5t-14.5 -6.5h-109q-10 0 -16 6.5t-6 15.5v223q0 33 -14 59t-53 26q-35 0 -52.5 -22t-17.5 -57v-229q0 -8 -4.5 -15t-16.5 -7h-110q-9 0 -15.5 6.5t-6.5 15.5v418
z" />
    <glyph glyph-name="Eng" unicode="&#x14a;" horiz-adv-x="759" 
d="M522 102l-285 290h-1v-373q0 -8 -5.5 -13.5t-13.5 -5.5h-119q-8 0 -13.5 5.5t-5.5 13.5v673q0 8 5.5 13t13.5 5h15q10 0 17 -7l391 -383h1v361q0 8 5.5 13.5t13.5 5.5h120q8 0 13.5 -5.5t5.5 -13.5l-1 -685q0 -53 -14 -94t-37 -71t-54 -48.5t-64 -27.5q-21 -5 -32 -1
t-17 18l-29 73q-6 16 -2 23.5t12 10.5q15 6 29.5 14.5t26 21t18 29.5t6.5 40v118z" />
    <glyph glyph-name="eng" unicode="&#x14b;" horiz-adv-x="549" 
d="M346 245q0 33 -14 59t-53 26q-35 0 -52.5 -22t-17.5 -57v-229q0 -8 -4.5 -15t-16.5 -7h-110q-9 0 -15.5 6.5t-6.5 15.5v418q0 10 6.5 16t15.5 6h45q13 0 21 -14l17 -46q10 10 22 22.5t28.5 23t39 17.5t54.5 7q54 0 91 -18t59.5 -49t32.5 -72.5t10 -89.5v-222
q0 -53 -14 -98t-37.5 -79.5t-54.5 -57t-64 -31.5q-21 -5 -32 -1t-17 18l-29 73q-6 16 1 23.5t15 10.5q15 6 29.5 14.5t26 21t18 29.5t6.5 40v261z" />
    <glyph glyph-name="Omacron" unicode="&#x14c;" horiz-adv-x="797" 
d="M39 349q0 75 28 141t76.5 114.5t114 77t140.5 28.5t140.5 -28.5t114.5 -77t77 -114.5t28 -141t-28 -140.5t-77 -114t-114.5 -76.5t-140.5 -28t-140.5 28t-114 76.5t-76.5 114t-28 140.5zM199 349q0 -41 16 -77t43 -63t63 -43t77 -16t77.5 16t63.5 43t43 63t16 77
t-16 77.5t-43 64t-63.5 43.5t-77.5 16t-77 -16t-63 -43.5t-43 -64t-16 -77.5zM270 801q-8 0 -13.5 5t-5.5 13v41q0 19 19 19h256q19 0 19 -19v-41q0 -8 -5.5 -13t-13.5 -5h-256z" />
    <glyph glyph-name="omacron" unicode="&#x14d;" horiz-adv-x="539" 
d="M29 232q0 49 19 92.5t52 76.5t76.5 52t93.5 19q49 0 93 -19t76.5 -52t51.5 -76.5t19 -92.5q0 -50 -19 -94t-51.5 -77t-76.5 -52.5t-93 -19.5q-50 0 -93.5 19.5t-76.5 52.5t-52 77t-19 94zM173 232q0 -20 7.5 -38.5t20.5 -32t31 -21.5t38 -8t37.5 8t30.5 21.5t20.5 32
t7.5 38.5t-7.5 37.5t-20.5 31t-30.5 21.5t-37.5 8t-38 -8t-31 -21.5t-20.5 -31t-7.5 -37.5zM142 563q-8 0 -13.5 5t-5.5 13v41q0 19 19 19h256q19 0 19 -19v-41q0 -8 -5.5 -13t-13.5 -5h-256z" />
    <glyph glyph-name="Obreve" unicode="&#x14e;" horiz-adv-x="797" 
d="M39 349q0 75 28 141t76.5 114.5t114 77t140.5 28.5t140.5 -28.5t114.5 -77t77 -114.5t28 -141t-28 -140.5t-77 -114t-114.5 -76.5t-140.5 -28t-140.5 28t-114 76.5t-76.5 114t-28 140.5zM199 349q0 -41 16 -77t43 -63t63 -43t77 -16t77.5 16t63.5 43t43 63t16 77
t-16 77.5t-43 64t-63.5 43.5t-77.5 16t-77 -16t-63 -43.5t-43 -64t-16 -77.5zM398 763q-56 0 -95 34.5t-47 85.5q-2 9 3.5 15.5t15.5 6.5h45q6 0 10.5 -3.5t6.5 -8.5q7 -20 23 -34t38 -14q20 0 36 15t23 33q2 5 7 8.5t10 3.5h47q9 0 14.5 -6.5t4.5 -15.5q-4 -26 -16.5 -47.5
t-31.5 -38t-43 -25.5t-51 -9z" />
    <glyph glyph-name="obreve" unicode="&#x14f;" horiz-adv-x="539" 
d="M29 232q0 49 19 92.5t52 76.5t76.5 52t93.5 19q49 0 93 -19t76.5 -52t51.5 -76.5t19 -92.5q0 -50 -19 -94t-51.5 -77t-76.5 -52.5t-93 -19.5q-50 0 -93.5 19.5t-76.5 52.5t-52 77t-19 94zM173 232q0 -20 7.5 -38.5t20.5 -32t31 -21.5t38 -8t37.5 8t30.5 21.5t20.5 32
t7.5 38.5t-7.5 37.5t-20.5 31t-30.5 21.5t-37.5 8t-38 -8t-31 -21.5t-20.5 -31t-7.5 -37.5zM272 527q-56 0 -95 34.5t-47 85.5q-2 9 3.5 15.5t15.5 6.5h45q6 0 10.5 -3.5t6.5 -8.5q7 -20 23 -34t38 -14q20 0 36 15t23 33q2 5 7 8.5t10 3.5h47q9 0 14.5 -6.5t4.5 -15.5
q-4 -26 -16.5 -47.5t-31.5 -38t-43 -25.5t-51 -9z" />
    <glyph glyph-name="Ohungarumlaut" unicode="&#x150;" horiz-adv-x="797" 
d="M39 349q0 75 28 141t76.5 114.5t114 77t140.5 28.5t140.5 -28.5t114.5 -77t77 -114.5t28 -141t-28 -140.5t-77 -114t-114.5 -76.5t-140.5 -28t-140.5 28t-114 76.5t-76.5 114t-28 140.5zM199 349q0 -41 16 -77t43 -63t63 -43t77 -16t77.5 16t63.5 43t43 63t16 77
t-16 77.5t-43 64t-63.5 43.5t-77.5 16t-77 -16t-63 -43.5t-43 -64t-16 -77.5zM469 768q-8 0 -14.5 5.5t-4.5 13.5l30 141q2 8 6.5 13.5t12.5 5.5h94q14 0 19 -8t-1 -17l-78 -139q-4 -5 -8.5 -10t-9.5 -5h-46zM303 768q-8 0 -14.5 5.5t-4.5 13.5l30 141q2 8 6.5 13.5
t12.5 5.5h94q14 0 18.5 -7.5t-0.5 -17.5l-78 -139q-3 -6 -8 -10.5t-10 -4.5h-46z" />
    <glyph glyph-name="ohungarumlaut" unicode="&#x151;" horiz-adv-x="539" 
d="M29 232q0 49 19 92.5t52 76.5t76.5 52t93.5 19q49 0 93 -19t76.5 -52t51.5 -76.5t19 -92.5q0 -50 -19 -94t-51.5 -77t-76.5 -52.5t-93 -19.5q-50 0 -93.5 19.5t-76.5 52.5t-52 77t-19 94zM173 232q0 -20 7.5 -38.5t20.5 -32t31 -21.5t38 -8t37.5 8t30.5 21.5t20.5 32
t7.5 38.5t-7.5 37.5t-20.5 31t-30.5 21.5t-37.5 8t-38 -8t-31 -21.5t-20.5 -31t-7.5 -37.5zM320 521q-8 0 -14.5 5.5t-4.5 13.5l30 141q2 8 6.5 13.5t12.5 5.5h94q14 0 19 -8t-1 -17l-78 -139q-4 -5 -8.5 -10t-9.5 -5h-46zM154 521q-8 0 -14.5 5.5t-4.5 13.5l30 141
q2 8 6.5 13.5t12.5 5.5h94q14 0 18.5 -7.5t-0.5 -17.5l-78 -139q-3 -6 -8 -10.5t-10 -4.5h-46z" />
    <glyph glyph-name="OE" unicode="&#x152;" horiz-adv-x="981" 
d="M39 349q0 75 28 141t76.5 114.5t114 77t140.5 28.5q20 0 38.5 -1.5t32.5 -3.5q17 -3 32 -5h414q8 0 13.5 -5.5t5.5 -13.5v-109q0 -8 -5.5 -13.5t-13.5 -5.5h-277v-124h228q8 0 13.5 -5.5t5.5 -13.5v-109q0 -8 -5.5 -13.5t-13.5 -5.5h-228v-135h277q8 0 13.5 -5.5
t5.5 -13.5v-109q0 -8 -5.5 -13.5t-13.5 -5.5h-414q-16 -3 -33 -5q-15 -2 -33 -3.5t-37 -1.5q-75 0 -140.5 28t-114 76.5t-76.5 114t-28 140.5zM199 349q0 -41 16 -77.5t43 -64.5t63 -44t77 -16q23 0 43.5 3.5t40.5 12.5v373q-20 9 -40.5 12.5t-43.5 3.5q-41 0 -77 -16.5
t-63 -44t-43 -64.5t-16 -78z" />
    <glyph glyph-name="oe" unicode="&#x153;" horiz-adv-x="825" 
d="M29 233q0 49 19 92.5t52 76t76.5 51.5t93.5 19q45 0 84 -16.5t71 -42.5q31 27 70.5 43t86.5 16q44 0 83.5 -16t69.5 -44.5t48 -68t18 -87.5q0 -5 -0.5 -15t-1.5 -15q-1 -9 -7.5 -14.5t-14.5 -5.5h-285q0 -12 5.5 -26t17.5 -26t29 -20t40 -8q30 0 54 10t38 19
q6 5 14.5 6.5t13.5 -5.5l52 -68q6 -6 6.5 -15.5t-5.5 -15.5q-32 -32 -75 -50t-98 -18q-47 0 -87 16t-72 43q-32 -27 -71 -43t-84 -16q-50 0 -93.5 19.5t-76.5 53t-52 77.5t-19 94zM174 232q0 -20 7.5 -38.5t20.5 -32t31 -21.5t38 -8t37.5 8t30.5 21.5t20.5 32t7.5 38.5
t-7.5 37.5t-20.5 31t-30.5 21.5t-37.5 8t-38 -8t-31 -21.5t-20.5 -31t-7.5 -37.5zM645 294q-2 23 -20 40t-47 17t-46.5 -17t-22.5 -40h136z" />
    <glyph glyph-name="Racute" unicode="&#x154;" horiz-adv-x="662" 
d="M79 681q0 8 5.5 13.5t13.5 5.5h299q48 0 88 -17t69 -46.5t45 -68.5t16 -84q0 -69 -39 -122t-109 -79l137 -254q5 -10 0.5 -19.5t-17.5 -9.5h-133q-6 0 -10 3t-6 6l-133 265h-69v-255q0 -8 -5.5 -13.5t-13.5 -5.5h-119q-8 0 -13.5 5.5t-5.5 13.5v662zM384 401
q31 0 53.5 22.5t22.5 57.5t-22.5 55.5t-53.5 20.5h-148v-156h148zM246 762q-10 -6 -16.5 -2.5t-10.5 11.5l-21 42q-3 6 -0.5 11t6.5 8l170 104q5 3 13.5 3.5t12.5 -6.5l34 -59q6 -11 3 -18.5t-9 -11.5z" />
    <glyph glyph-name="racute" unicode="&#x155;" horiz-adv-x="382" 
d="M56 440q0 10 6.5 16t15.5 6h48q16 0 21 -14l21 -51q15 28 42.5 51.5t72.5 23.5q32 0 54.5 -7t35.5 -17q6 -5 6.5 -11.5t-3.5 -13.5l-46 -91q-4 -7 -10 -11t-16 0q-6 2 -16.5 4.5t-18.5 2.5q-26 0 -43.5 -17.5t-17.5 -46.5v-242q0 -22 -25 -22h-105q-9 0 -15.5 6.5
t-6.5 15.5v418zM125 512q-10 -6 -16.5 -2.5t-10.5 11.5l-21 42q-3 6 -0.5 11t6.5 8l170 104q5 3 13.5 3.5t12.5 -6.5l34 -59q6 -11 3 -18.5t-9 -11.5z" />
    <glyph glyph-name="uni0156" unicode="&#x156;" horiz-adv-x="662" 
d="M79 681q0 8 5.5 13.5t13.5 5.5h299q48 0 88 -17t69 -46.5t45 -68.5t16 -84q0 -69 -39 -122t-109 -79l137 -254q5 -10 0.5 -19.5t-17.5 -9.5h-133q-6 0 -10 3t-6 6l-133 265h-69v-255q0 -8 -5.5 -13.5t-13.5 -5.5h-119q-8 0 -13.5 5.5t-5.5 13.5v662zM384 401
q31 0 53.5 22.5t22.5 57.5t-22.5 55.5t-53.5 20.5h-148v-156h148zM249 -144q0 38 24 59t62 21q19 0 36.5 -5.5t30.5 -18t21 -32.5t8 -48q0 -53 -16.5 -88t-35.5 -61q-10 -10 -23 -1l-30 22q-7 5 -7 11.5t5 11.5q11 13 17.5 31t6.5 34v7q-4 -3 -9 -5t-11 -3t-13 -1
q-31 0 -48.5 18.5t-17.5 47.5z" />
    <glyph glyph-name="uni0157" unicode="&#x157;" horiz-adv-x="382" 
d="M56 440q0 10 6.5 16t15.5 6h48q16 0 21 -14l21 -51q15 28 42.5 51.5t72.5 23.5q32 0 54.5 -7t35.5 -17q6 -5 6.5 -11.5t-3.5 -13.5l-46 -91q-4 -7 -10 -11t-16 0q-6 2 -16.5 4.5t-18.5 2.5q-26 0 -43.5 -17.5t-17.5 -46.5v-242q0 -22 -25 -22h-105q-9 0 -15.5 6.5
t-6.5 15.5v418zM47 -144q0 38 24 59t62 21q19 0 36.5 -5.5t30.5 -18t21 -32.5t8 -48q0 -53 -16.5 -88t-35.5 -61q-10 -10 -23 -1l-30 22q-7 5 -7 11.5t5 11.5q11 13 17.5 31t6.5 34v7q-4 -3 -9 -5t-11 -3t-13 -1q-31 0 -48.5 18.5t-17.5 47.5z" />
    <glyph glyph-name="Rcaron" unicode="&#x158;" horiz-adv-x="662" 
d="M79 681q0 8 5.5 13.5t13.5 5.5h299q48 0 88 -17t69 -46.5t45 -68.5t16 -84q0 -69 -39 -122t-109 -79l137 -254q5 -10 0.5 -19.5t-17.5 -9.5h-133q-6 0 -10 3t-6 6l-133 265h-69v-255q0 -8 -5.5 -13.5t-13.5 -5.5h-119q-8 0 -13.5 5.5t-5.5 13.5v662zM384 401
q31 0 53.5 22.5t22.5 57.5t-22.5 55.5t-53.5 20.5h-148v-156h148zM168 866q-4 3 -6.5 8t0.5 11l34 46q9 12 21 5l99 -58l100 58q8 5 12.5 3.5t9.5 -7.5l33 -47q4 -5 1 -10.5t-7 -8.5l-135 -104q-6 -5 -12.5 -4t-11.5 4z" />
    <glyph glyph-name="rcaron" unicode="&#x159;" horiz-adv-x="382" 
d="M56 440q0 10 6.5 16t15.5 6h48q16 0 21 -14l21 -51q15 28 42.5 51.5t72.5 23.5q32 0 54.5 -7t35.5 -17q6 -5 6.5 -11.5t-3.5 -13.5l-46 -91q-4 -7 -10 -11t-16 0q-6 2 -16.5 4.5t-18.5 2.5q-26 0 -43.5 -17.5t-17.5 -46.5v-242q0 -22 -25 -22h-105q-9 0 -15.5 6.5
t-6.5 15.5v418zM49 616q-4 3 -6.5 8t0.5 11l34 46q9 12 21 5l99 -58l100 58q8 5 12.5 3.5t9.5 -7.5l33 -47q4 -5 1 -10.5t-7 -8.5l-135 -104q-6 -5 -12.5 -4t-11.5 4z" />
    <glyph glyph-name="Sacute" unicode="&#x15a;" horiz-adv-x="553" 
d="M278 -10q-49 0 -87 9t-65.5 21t-45.5 25t-27 22q-6 6 -7.5 13t3.5 17l46 81q6 10 16 10.5t18 -4.5q10 -7 25 -16.5t33 -18t39 -14.5t45 -6q30 0 49.5 17t19.5 43q0 32 -26.5 54.5t-76.5 46.5q-36 18 -71 37.5t-62.5 45.5t-44 59.5t-16.5 78.5q0 37 14.5 73t43.5 64t72 45
t101 17q39 0 73 -8.5t61.5 -20.5t48 -25t31.5 -21q9 -5 9 -16t-3 -16l-51 -77q-5 -8 -17 -12t-27 5q-9 6 -23.5 15t-32.5 18t-38.5 15t-40.5 6q-32 0 -46.5 -16.5t-14.5 -38.5q0 -25 28 -46t81 -47q33 -16 68.5 -34.5t65.5 -44.5t49 -62t19 -87q0 -39 -16 -76t-46.5 -66
t-74.5 -47t-99 -18zM204 762q-10 -6 -16.5 -2.5t-10.5 11.5l-21 42q-3 6 -0.5 11t6.5 8l170 104q5 3 13.5 3.5t12.5 -6.5l34 -59q6 -11 3 -18.5t-9 -11.5z" />
    <glyph glyph-name="sacute" unicode="&#x15b;" horiz-adv-x="431" 
d="M212 -11q-57 0 -99.5 12t-65.5 26q-15 9 -8 24l37 76q2 6 9 10t15 0q28 -14 55 -21.5t59 -7.5q23 0 29 7t6 15q0 11 -19 21.5t-60 26.5q-67 26 -101 60t-34 90q0 31 10.5 57.5t32 45.5t54.5 30t78 11t88.5 -10.5t69.5 -24.5q9 -5 13 -13t-1 -17l-36 -74q-2 -6 -9.5 -8.5
t-14.5 0.5q-23 11 -51.5 19.5t-56.5 8.5q-20 0 -26.5 -5t-6.5 -14t13.5 -17t38.5 -17q35 -13 65.5 -27t53.5 -33t36.5 -44t13.5 -60q0 -30 -12 -56.5t-36 -47t-59 -32t-81 -11.5zM152 512q-10 -6 -16.5 -2.5t-10.5 11.5l-21 42q-3 6 -0.5 11t6.5 8l170 104q5 3 13.5 3.5
t12.5 -6.5l34 -59q6 -11 3 -18.5t-9 -11.5z" />
    <glyph glyph-name="Scircumflex" unicode="&#x15c;" horiz-adv-x="553" 
d="M278 -10q-49 0 -87 9t-65.5 21t-45.5 25t-27 22q-6 6 -7.5 13t3.5 17l46 81q6 10 16 10.5t18 -4.5q10 -7 25 -16.5t33 -18t39 -14.5t45 -6q30 0 49.5 17t19.5 43q0 32 -26.5 54.5t-76.5 46.5q-36 18 -71 37.5t-62.5 45.5t-44 59.5t-16.5 78.5q0 37 14.5 73t43.5 64t72 45
t101 17q39 0 73 -8.5t61.5 -20.5t48 -25t31.5 -21q9 -5 9 -16t-3 -16l-51 -77q-5 -8 -17 -12t-27 5q-9 6 -23.5 15t-32.5 18t-38.5 15t-40.5 6q-32 0 -46.5 -16.5t-14.5 -38.5q0 -25 28 -46t81 -47q33 -16 68.5 -34.5t65.5 -44.5t49 -62t19 -87q0 -39 -16 -76t-46.5 -66
t-74.5 -47t-99 -18zM176 762q-8 -5 -12.5 -3.5t-9.5 7.5l-33 47q-4 5 -1 10.5t7 8.5l135 104q6 5 12.5 4t11.5 -4l138 -104q4 -3 6.5 -8t-0.5 -11l-34 -46q-9 -12 -21 -5l-99 58z" />
    <glyph glyph-name="scircumflex" unicode="&#x15d;" horiz-adv-x="431" 
d="M212 -11q-57 0 -99.5 12t-65.5 26q-15 9 -8 24l37 76q2 6 9 10t15 0q28 -14 55 -21.5t59 -7.5q23 0 29 7t6 15q0 11 -19 21.5t-60 26.5q-67 26 -101 60t-34 90q0 31 10.5 57.5t32 45.5t54.5 30t78 11t88.5 -10.5t69.5 -24.5q9 -5 13 -13t-1 -17l-36 -74q-2 -6 -9.5 -8.5
t-14.5 0.5q-23 11 -51.5 19.5t-56.5 8.5q-20 0 -26.5 -5t-6.5 -14t13.5 -17t38.5 -17q35 -13 65.5 -27t53.5 -33t36.5 -44t13.5 -60q0 -30 -12 -56.5t-36 -47t-59 -32t-81 -11.5zM118 512q-8 -5 -12.5 -3.5t-9.5 7.5l-33 47q-4 5 -1 10.5t7 8.5l135 104q6 5 12.5 4t11.5 -4
l138 -104q4 -3 6.5 -8t-0.5 -11l-34 -46q-9 -12 -21 -5l-99 58z" />
    <glyph glyph-name="Scedilla" unicode="&#x15e;" horiz-adv-x="553" 
d="M229 -7q-38 4 -67 13.5t-51 20.5t-36.5 21.5t-21.5 18.5q-6 6 -7.5 13t3.5 17l46 81q6 10 16 10.5t18 -4.5q10 -7 25 -16.5t33 -18t39 -14.5t45 -6q30 0 49.5 17t19.5 43q0 32 -26.5 54.5t-76.5 46.5q-36 18 -71 37.5t-62.5 45.5t-44 59.5t-16.5 78.5q0 37 14.5 73
t43.5 64t72 45t101 17q39 0 73 -8.5t61.5 -20.5t48 -25t31.5 -21q9 -5 9 -16t-3 -16l-51 -77q-5 -8 -17 -12t-27 5q-9 6 -23.5 15t-32.5 18t-38.5 15t-40.5 6q-32 0 -46.5 -16.5t-14.5 -38.5q0 -25 28 -46t81 -47q33 -16 68.5 -34.5t65.5 -44.5t49 -62t19 -87
q0 -37 -15 -72.5t-42.5 -64t-67.5 -47.5t-91 -22l-30 -48q5 1 8.5 1h6.5q17 0 33 -5t29 -15.5t20.5 -27t7.5 -40.5q0 -26 -10 -45.5t-27 -32.5t-40 -20t-48 -7q-29 0 -50 6.5t-34 17.5q-7 6 -6.5 13.5t5.5 17.5l10 23q10 24 30 10q4 -3 15 -8t25 -5q19 0 30.5 8t11.5 25
t-11.5 25t-30.5 8q-13 0 -21.5 -3.5t-14.5 -5.5q-8 -3 -16 4t-4 15z" />
    <glyph glyph-name="scedilla" unicode="&#x15f;" horiz-adv-x="431" 
d="M47 27q-6 6 -9 11t1 13l41 80q2 6 9 10t15 0q23 -12 50 -22.5t59 -10.5q36 0 36 18q0 11 -16 22.5t-63 29.5q-67 26 -101 60t-34 90q0 31 10.5 57.5t32.5 45.5t56 30t81 11q55 0 94.5 -11.5t58.5 -23.5q8 -6 12.5 -13.5t-0.5 -16.5l-43 -77q-2 -6 -9.5 -8.5t-14.5 0.5
q-8 4 -19 9t-24 10t-27.5 8.5t-29.5 3.5q-34 0 -34 -18q0 -9 11.5 -16.5t40.5 -18.5q35 -12 66 -26t54 -33t36 -44.5t13 -60.5q0 -55 -41 -96.5t-122 -48.5l-30 -48q5 1 8.5 1h6.5q17 0 33 -5t29 -15.5t20.5 -27t7.5 -40.5q0 -26 -10 -45.5t-27 -32.5t-40 -20t-48 -7
q-29 0 -50 6.5t-34 17.5q-7 6 -6.5 13.5t5.5 17.5l10 23q10 24 30 10q4 -3 15 -8t25 -5q19 0 30.5 8t11.5 25t-11.5 25t-30.5 8q-13 0 -21.5 -3.5t-14.5 -5.5q-8 -3 -16 4t-4 15l41 89q-44 4 -75 14.5t-45 21.5z" />
    <glyph glyph-name="Scaron" unicode="&#x160;" horiz-adv-x="553" 
d="M278 -10q-49 0 -87 9t-65.5 21t-45.5 25t-27 22q-6 6 -7.5 13t3.5 17l46 81q6 10 16 10.5t18 -4.5q10 -7 25 -16.5t33 -18t39 -14.5t45 -6q30 0 49.5 17t19.5 43q0 32 -26.5 54.5t-76.5 46.5q-36 18 -71 37.5t-62.5 45.5t-44 59.5t-16.5 78.5q0 37 14.5 73t43.5 64t72 45
t101 17q39 0 73 -8.5t61.5 -20.5t48 -25t31.5 -21q9 -5 9 -16t-3 -16l-51 -77q-5 -8 -17 -12t-27 5q-9 6 -23.5 15t-32.5 18t-38.5 15t-40.5 6q-32 0 -46.5 -16.5t-14.5 -38.5q0 -25 28 -46t81 -47q33 -16 68.5 -34.5t65.5 -44.5t49 -62t19 -87q0 -39 -16 -76t-46.5 -66
t-74.5 -47t-99 -18zM126 866q-4 3 -6.5 8t0.5 11l34 46q9 12 21 5l99 -58l100 58q8 5 12.5 3.5t9.5 -7.5l33 -47q4 -5 1 -10.5t-7 -8.5l-135 -104q-6 -5 -12.5 -4t-11.5 4z" />
    <glyph glyph-name="scaron" unicode="&#x161;" horiz-adv-x="431" 
d="M212 -11q-57 0 -99.5 12t-65.5 26q-15 9 -8 24l37 76q2 6 9 10t15 0q28 -14 55 -21.5t59 -7.5q23 0 29 7t6 15q0 11 -19 21.5t-60 26.5q-67 26 -101 60t-34 90q0 31 10.5 57.5t32 45.5t54.5 30t78 11t88.5 -10.5t69.5 -24.5q9 -5 13 -13t-1 -17l-36 -74q-2 -6 -9.5 -8.5
t-14.5 0.5q-23 11 -51.5 19.5t-56.5 8.5q-20 0 -26.5 -5t-6.5 -14t13.5 -17t38.5 -17q35 -13 65.5 -27t53.5 -33t36.5 -44t13.5 -60q0 -30 -12 -56.5t-36 -47t-59 -32t-81 -11.5zM68 616q-4 3 -6.5 8t0.5 11l34 46q9 12 21 5l99 -58l100 58q8 5 12.5 3.5t9.5 -7.5l33 -47
q4 -5 1 -10.5t-7 -8.5l-135 -104q-6 -5 -12.5 -4t-11.5 4z" />
    <glyph glyph-name="uni0162" unicode="&#x162;" horiz-adv-x="534" 
d="M188 553h-143q-8 0 -13.5 5.5t-5.5 13.5v109q0 8 5.5 13.5t13.5 5.5h444q8 0 13.5 -5.5t5.5 -13.5v-109q0 -8 -5.5 -13.5t-13.5 -5.5h-143v-534q0 -8 -5.5 -13.5t-13.5 -5.5h-29l-36 -57q5 1 8.5 1h6.5q17 0 33 -5t29 -15.5t20.5 -27t7.5 -40.5q0 -26 -10 -45.5
t-27 -32.5t-40 -20t-48 -7q-29 0 -50 6.5t-34 17.5q-7 6 -6.5 13.5t5.5 17.5l10 23q10 24 30 10q4 -3 15 -8t25 -5q19 0 30.5 8t11.5 25t-11.5 25t-30.5 8q-13 0 -21.5 -3.5t-14.5 -5.5q-8 -3 -16 4t-4 15l45 98h-19q-8 0 -13.5 5.5t-5.5 13.5v534z" />
    <glyph glyph-name="uni0163" unicode="&#x163;" horiz-adv-x="396" 
d="M89 325h-38q-8 0 -14 6.5t-6 15.5v93q0 10 6 16t14 6h38v128q0 9 6.5 15.5t15.5 6.5h110q8 0 14 -6.5t6 -15.5v-128h93q9 0 15.5 -6t6.5 -16v-93q0 -9 -6.5 -15.5t-15.5 -6.5h-93v-161q0 -32 31 -32q12 0 30.5 4t26.5 6q9 2 16.5 -1.5t9.5 -12.5l20 -87q2 -11 -1.5 -16
t-13.5 -10q-19 -8 -45.5 -14.5t-55.5 -9.5l-30 -48q5 1 8.5 1h6.5q17 0 33 -5t29 -15.5t20.5 -27t7.5 -40.5q0 -26 -10 -45.5t-27 -32.5t-40 -20t-48 -7q-29 0 -50 6.5t-34 17.5q-7 6 -6.5 13.5t5.5 17.5l10 23q10 24 30 10q4 -3 15 -8t25 -5q19 0 30.5 8t11.5 25t-11.5 25
t-30.5 8q-13 0 -21.5 -3.5t-14.5 -5.5q-8 -3 -16 4t-4 15l42 91q-48 11 -74.5 50.5t-26.5 106.5v175z" />
    <glyph glyph-name="Tcaron" unicode="&#x164;" horiz-adv-x="534" 
d="M188 553h-143q-8 0 -13.5 5.5t-5.5 13.5v109q0 8 5.5 13.5t13.5 5.5h444q8 0 13.5 -5.5t5.5 -13.5v-109q0 -8 -5.5 -13.5t-13.5 -5.5h-143v-534q0 -8 -5.5 -13.5t-13.5 -5.5h-120q-8 0 -13.5 5.5t-5.5 13.5v534zM118 866q-4 3 -6.5 8t0.5 11l34 46q9 12 21 5l99 -58
l100 58q8 5 12.5 3.5t9.5 -7.5l33 -47q4 -5 1 -10.5t-7 -8.5l-135 -104q-6 -5 -12.5 -4t-11.5 4z" />
    <glyph glyph-name="tcaron" unicode="&#x165;" horiz-adv-x="420" 
d="M85 325h-38q-8 0 -14 6.5t-6 15.5v93q0 10 6 16t14 6h38v128q0 9 6.5 15.5t15.5 6.5h110q8 0 14 -6.5t6 -15.5v-128h93q9 0 15.5 -6t6.5 -16v-93q0 -9 -6.5 -15.5t-15.5 -6.5h-93v-161q0 -32 31 -32q12 0 30.5 4t26.5 6q9 2 16.5 -1.5t9.5 -12.5l20 -87q2 -11 -1.5 -16
t-13.5 -10q-23 -10 -59 -18t-73 -8q-66 0 -102.5 41t-36.5 120v175zM313 630q0 38 24 59t62 21q19 0 36.5 -5.5t30.5 -18t21 -32.5t8 -48q0 -53 -16.5 -88t-35.5 -61q-10 -10 -23 -1l-30 22q-7 5 -7 11.5t5 11.5q11 13 17.5 31t6.5 34v7q-4 -3 -9 -5t-11 -3t-13 -1
q-31 0 -48.5 18.5t-17.5 47.5z" />
    <glyph glyph-name="Tbar" unicode="&#x166;" horiz-adv-x="534" 
d="M188 289h-82q-8 0 -13 5.5t-5 13.5v17q0 8 5 13.5t13 5.5h82v209h-143q-8 0 -13.5 5.5t-5.5 13.5v109q0 8 5.5 13.5t13.5 5.5h444q8 0 13.5 -5.5t5.5 -13.5v-109q0 -8 -5.5 -13.5t-13.5 -5.5h-143v-209h87q8 0 13.5 -5.5t5.5 -13.5v-18q0 -8 -5.5 -13t-13.5 -5h-87v-270
q0 -8 -5.5 -13.5t-13.5 -5.5h-120q-8 0 -13.5 5.5t-5.5 13.5v270z" />
    <glyph glyph-name="tbar" unicode="&#x167;" horiz-adv-x="395" 
d="M86 194h-31q-8 0 -14 7t-6 15v19q0 9 6 15.5t14 6.5h31v58h-31q-17 0 -22 7t-5 15v103q0 10 6 16t14 6h7h31v128q0 9 6.5 15.5t15.5 6.5h110q8 0 14 -6.5t6 -15.5v-128h93h7q9 0 15.5 -6t6.5 -16v-103q0 -9 -6.5 -15.5t-15.5 -6.5h-100v-58h100q9 0 15.5 -6.5t6.5 -15.5
v-20q0 -8 -6.5 -14.5t-15.5 -6.5h-100v-30q0 -32 31 -32q12 0 30.5 4t26.5 6q9 2 16.5 -1.5t9.5 -12.5l20 -87q2 -11 -1.5 -16t-13.5 -10q-23 -10 -59 -18t-73 -8q-66 0 -102.5 41t-36.5 120v44z" />
    <glyph glyph-name="Utilde" unicode="&#x168;" horiz-adv-x="714" 
d="M72 681q0 8 5.5 13.5t13.5 5.5h123q8 0 13.5 -5.5t5.5 -13.5v-417q0 -55 34.5 -84.5t88.5 -29.5t89.5 29.5t35.5 84.5v417q0 8 5.5 13.5t13.5 5.5h123q8 0 13.5 -5.5t5.5 -13.5v-425q0 -57 -22.5 -105.5t-61.5 -84.5t-91 -56t-111 -20t-110.5 20t-90 56t-61 84.5
t-22.5 105.5v425zM205 813q-5 4 -6.5 11t0.5 12q4 7 13.5 21t23.5 28t32 24.5t38 10.5q18 0 31.5 -7.5t25.5 -16t24 -16t27 -7.5q12 0 22.5 11.5t15.5 19.5q4 6 10.5 7.5t14.5 -5.5l34 -26q14 -10 1 -29q-4 -6 -12.5 -19t-21.5 -26t-29.5 -23t-36.5 -10t-34.5 7.5t-27 16.5
t-24 16.5t-24.5 7.5q-7 0 -12.5 -4t-10.5 -9.5t-9.5 -11.5l-7.5 -10q-9 -9 -22 -1z" />
    <glyph glyph-name="utilde" unicode="&#x169;" horiz-adv-x="537" 
d="M52 440q0 10 6.5 16t14.5 6h109q9 0 15.5 -6t6.5 -16v-228q0 -39 13.5 -59.5t48.5 -20.5q34 0 48.5 20.5t14.5 51.5v236q0 14 8.5 18t16.5 4h105q9 0 15.5 -6t6.5 -16v-418q0 -9 -6.5 -15.5t-15.5 -6.5h-46q-8 0 -13.5 5t-8.5 11l-16 43q-11 -11 -25 -23t-32.5 -22.5
t-40.5 -17.5t-48 -7q-51 0 -85 16t-54.5 45t-29 69.5t-8.5 89.5v231zM120 583q-5 4 -6.5 11t0.5 12q4 7 13.5 21t23.5 28t32 24.5t38 10.5q18 0 31.5 -7.5t25.5 -16t24 -16t27 -7.5q12 0 22.5 11.5t15.5 19.5q4 6 10.5 7.5t14.5 -5.5l34 -26q14 -10 1 -29q-4 -6 -12.5 -19
t-21.5 -26t-29.5 -23t-36.5 -10t-34.5 7.5t-27 16.5t-24 16.5t-24.5 7.5q-7 0 -12.5 -4t-10.5 -9.5t-9.5 -11.5l-7.5 -10q-9 -9 -22 -1z" />
    <glyph glyph-name="Umacron" unicode="&#x16a;" horiz-adv-x="714" 
d="M72 681q0 8 5.5 13.5t13.5 5.5h123q8 0 13.5 -5.5t5.5 -13.5v-417q0 -55 34.5 -84.5t88.5 -29.5t89.5 29.5t35.5 84.5v417q0 8 5.5 13.5t13.5 5.5h123q8 0 13.5 -5.5t5.5 -13.5v-425q0 -57 -22.5 -105.5t-61.5 -84.5t-91 -56t-111 -20t-110.5 20t-90 56t-61 84.5
t-22.5 105.5v425zM229 801q-8 0 -13.5 5t-5.5 13v41q0 19 19 19h256q19 0 19 -19v-41q0 -8 -5.5 -13t-13.5 -5h-256z" />
    <glyph glyph-name="umacron" unicode="&#x16b;" horiz-adv-x="537" 
d="M52 440q0 10 6.5 16t14.5 6h109q9 0 15.5 -6t6.5 -16v-228q0 -39 13.5 -59.5t48.5 -20.5q34 0 48.5 20.5t14.5 51.5v236q0 14 8.5 18t16.5 4h105q9 0 15.5 -6t6.5 -16v-418q0 -9 -6.5 -15.5t-15.5 -6.5h-46q-8 0 -13.5 5t-8.5 11l-16 43q-11 -11 -25 -23t-32.5 -22.5
t-40.5 -17.5t-48 -7q-51 0 -85 16t-54.5 45t-29 69.5t-8.5 89.5v231zM143 563q-8 0 -13.5 5t-5.5 13v41q0 19 19 19h256q19 0 19 -19v-41q0 -8 -5.5 -13t-13.5 -5h-256z" />
    <glyph glyph-name="Ubreve" unicode="&#x16c;" horiz-adv-x="714" 
d="M72 681q0 8 5.5 13.5t13.5 5.5h123q8 0 13.5 -5.5t5.5 -13.5v-417q0 -55 34.5 -84.5t88.5 -29.5t89.5 29.5t35.5 84.5v417q0 8 5.5 13.5t13.5 5.5h123q8 0 13.5 -5.5t5.5 -13.5v-425q0 -57 -22.5 -105.5t-61.5 -84.5t-91 -56t-111 -20t-110.5 20t-90 56t-61 84.5
t-22.5 105.5v425zM357 763q-56 0 -95 34.5t-47 85.5q-2 9 3.5 15.5t15.5 6.5h45q6 0 10.5 -3.5t6.5 -8.5q7 -20 23 -34t38 -14q20 0 36 15t23 33q2 5 7 8.5t10 3.5h47q9 0 14.5 -6.5t4.5 -15.5q-4 -26 -16.5 -47.5t-31.5 -38t-43 -25.5t-51 -9z" />
    <glyph glyph-name="ubreve" unicode="&#x16d;" horiz-adv-x="537" 
d="M52 440q0 10 6.5 16t14.5 6h109q9 0 15.5 -6t6.5 -16v-228q0 -39 13.5 -59.5t48.5 -20.5q34 0 48.5 20.5t14.5 51.5v236q0 14 8.5 18t16.5 4h105q9 0 15.5 -6t6.5 -16v-418q0 -9 -6.5 -15.5t-15.5 -6.5h-46q-8 0 -13.5 5t-8.5 11l-16 43q-11 -11 -25 -23t-32.5 -22.5
t-40.5 -17.5t-48 -7q-51 0 -85 16t-54.5 45t-29 69.5t-8.5 89.5v231zM274 527q-56 0 -95 34.5t-47 85.5q-2 9 3.5 15.5t15.5 6.5h45q6 0 10.5 -3.5t6.5 -8.5q7 -20 23 -34t38 -14q20 0 36 15t23 33q2 5 7 8.5t10 3.5h47q9 0 14.5 -6.5t4.5 -15.5q-4 -26 -16.5 -47.5
t-31.5 -38t-43 -25.5t-51 -9z" />
    <glyph glyph-name="Uring" unicode="&#x16e;" horiz-adv-x="714" 
d="M72 681q0 8 5.5 13.5t13.5 5.5h123q8 0 13.5 -5.5t5.5 -13.5v-417q0 -55 34.5 -84.5t88.5 -29.5t89.5 29.5t35.5 84.5v417q0 8 5.5 13.5t13.5 5.5h123q8 0 13.5 -5.5t5.5 -13.5v-425q0 -57 -22.5 -105.5t-61.5 -84.5t-91 -56t-111 -20t-110.5 20t-90 56t-61 84.5
t-22.5 105.5v425zM357 752q-24 0 -45 9t-36.5 24.5t-24.5 36.5t-9 45t9 45t24.5 36.5t36.5 24.5t45 9t44.5 -9t36.5 -24.5t25 -36.5t9 -45t-9 -45t-25 -36.5t-36.5 -24.5t-44.5 -9zM357 823q17 0 30 13.5t13 30.5t-13 30t-30 13t-30.5 -13t-13.5 -30t13.5 -30.5t30.5 -13.5z
" />
    <glyph glyph-name="uring" unicode="&#x16f;" horiz-adv-x="537" 
d="M52 440q0 10 6.5 16t14.5 6h109q9 0 15.5 -6t6.5 -16v-228q0 -39 13.5 -59.5t48.5 -20.5q34 0 48.5 20.5t14.5 51.5v236q0 14 8.5 18t16.5 4h105q9 0 15.5 -6t6.5 -16v-418q0 -9 -6.5 -15.5t-15.5 -6.5h-46q-8 0 -13.5 5t-8.5 11l-16 43q-11 -11 -25 -23t-32.5 -22.5
t-40.5 -17.5t-48 -7q-51 0 -85 16t-54.5 45t-29 69.5t-8.5 89.5v231zM274 511q-24 0 -45 9t-36.5 24.5t-24.5 36.5t-9 45t9 45t24.5 36.5t36.5 24.5t45 9t44.5 -9t36.5 -24.5t25 -36.5t9 -45t-9 -45t-25 -36.5t-36.5 -24.5t-44.5 -9zM274 582q17 0 30 13.5t13 30.5t-13 30
t-30 13t-30.5 -13t-13.5 -30t13.5 -30.5t30.5 -13.5z" />
    <glyph glyph-name="Uhungarumlaut" unicode="&#x170;" horiz-adv-x="714" 
d="M72 681q0 8 5.5 13.5t13.5 5.5h123q8 0 13.5 -5.5t5.5 -13.5v-417q0 -55 34.5 -84.5t88.5 -29.5t89.5 29.5t35.5 84.5v417q0 8 5.5 13.5t13.5 5.5h123q8 0 13.5 -5.5t5.5 -13.5v-425q0 -57 -22.5 -105.5t-61.5 -84.5t-91 -56t-111 -20t-110.5 20t-90 56t-61 84.5
t-22.5 105.5v425zM418 768q-8 0 -14.5 5.5t-4.5 13.5l30 141q2 8 6.5 13.5t12.5 5.5h94q14 0 19 -8t-1 -17l-78 -139q-4 -5 -8.5 -10t-9.5 -5h-46zM252 768q-8 0 -14.5 5.5t-4.5 13.5l30 141q2 8 6.5 13.5t12.5 5.5h94q14 0 18.5 -7.5t-0.5 -17.5l-78 -139q-3 -6 -8 -10.5
t-10 -4.5h-46z" />
    <glyph glyph-name="uhungarumlaut" unicode="&#x171;" horiz-adv-x="536" 
d="M52 440q0 10 6.5 16t14.5 6h109q9 0 15.5 -6t6.5 -16v-228q0 -39 13.5 -59.5t48.5 -20.5q34 0 48.5 20.5t14.5 51.5v236q0 14 8.5 18t16.5 4h105q9 0 15.5 -6t6.5 -16v-418q0 -9 -6.5 -15.5t-15.5 -6.5h-46q-8 0 -13.5 5t-8.5 11l-16 43q-11 -11 -25 -23t-32.5 -22.5
t-40.5 -17.5t-48 -7q-51 0 -85 16t-54.5 45t-29 69.5t-8.5 89.5v231zM325 521q-8 0 -14.5 5.5t-4.5 13.5l30 141q2 8 6.5 13.5t12.5 5.5h94q14 0 19 -8t-1 -17l-78 -139q-4 -5 -8.5 -10t-9.5 -5h-46zM159 521q-8 0 -14.5 5.5t-4.5 13.5l30 141q2 8 6.5 13.5t12.5 5.5h94
q14 0 18.5 -7.5t-0.5 -17.5l-78 -139q-3 -6 -8 -10.5t-10 -4.5h-46z" />
    <glyph glyph-name="Uogonek" unicode="&#x172;" horiz-adv-x="714" 
d="M72 681q0 8 5.5 13.5t13.5 5.5h123q8 0 13.5 -5.5t5.5 -13.5v-405q0 -26 9 -49t25.5 -40t39 -27t49.5 -10t50 10t39.5 27t26 40t9.5 49v405q0 8 5.5 13.5t13.5 5.5h123q8 0 13.5 -5.5t5.5 -13.5v-413q0 -48 -16 -91.5t-44.5 -79t-68 -61t-85.5 -37.5q-11 -8 -26.5 -21.5
t-29 -29t-23 -33t-9.5 -33.5q0 -21 9.5 -29t24.5 -8q20 0 37 11.5t23 17.5q7 7 14.5 4t7.5 -12v-57q0 -10 -3 -18.5t-13 -15.5q-13 -8 -37.5 -16t-54.5 -8q-54 0 -81 31t-27 76q0 24 7.5 44t19 36.5t25.5 30t27 24.5q-53 6 -98 30.5t-78 61t-52 83.5t-19 100v413z" />
    <glyph glyph-name="uogonek" unicode="&#x173;" horiz-adv-x="537" 
d="M52 440q0 10 6.5 16t14.5 6h109q9 0 15.5 -6t6.5 -16v-220q0 -39 13.5 -63.5t48.5 -24.5q34 0 48.5 24.5t14.5 55.5v228q0 14 8.5 18t16.5 4h105q9 0 15.5 -6t6.5 -16v-412q0 -10 -4.5 -16.5t-10.5 -10.5q-11 -7 -26.5 -20t-30 -29.5t-24.5 -34.5t-10 -35q0 -21 9.5 -29
t24.5 -8q20 0 37 11.5t23 17.5q7 7 14.5 4t7.5 -12v-57q0 -10 -3 -18.5t-13 -15.5q-13 -8 -37.5 -16t-54.5 -8q-54 0 -81 31t-27 76q0 25 12 48.5t30 44t38 37t36 27.5l-16 44q-11 -11 -22 -23t-27 -22.5t-39 -17.5t-56 -7q-51 0 -85.5 17t-55.5 47.5t-29.5 72.5t-8.5 91
v223z" />
    <glyph glyph-name="Wcircumflex" unicode="&#x174;" horiz-adv-x="884" 
d="M18 676q-3 11 2 17.5t16 6.5h117q6 0 11 -4.5t7 -9.5l86 -339h4l155 352q5 11 17 11h18q13 0 17 -11l155 -352h4l86 339q2 5 7 9.5t11 4.5h117q11 0 16 -6.5t2 -17.5l-189 -672q-4 -14 -18 -14h-16q-12 0 -17 11l-183 409h-3l-182 -409q-6 -11 -17 -11h-16q-6 0 -11 4
t-7 10zM341 762q-8 -5 -12.5 -3.5t-9.5 7.5l-33 47q-4 5 -1 10.5t7 8.5l135 104q6 5 12.5 4t11.5 -4l138 -104q4 -3 6.5 -8t-0.5 -11l-34 -46q-9 -12 -21 -5l-99 58z" />
    <glyph glyph-name="wcircumflex" unicode="&#x175;" horiz-adv-x="720" 
d="M15 434q-4 11 2 19.5t19 8.5h99q5 0 12 -3.5t9 -10.5l67 -192h1l113 207q2 3 6 6t12 3h11q14 0 18 -9l114 -207h1l66 192q5 14 23 14h97q12 0 18.5 -8.5t2.5 -19.5l-153 -431q-5 -14 -21 -14h-5q-4 0 -10 3t-8 7l-149 249h-1l-147 -249q-2 -4 -8 -7t-10 -3h-6q-6 0 -12 4
t-8 10zM264 512q-8 -5 -12.5 -3.5t-9.5 7.5l-33 47q-4 5 -1 10.5t7 8.5l135 104q6 5 12.5 4t11.5 -4l138 -104q4 -3 6.5 -8t-0.5 -11l-34 -46q-9 -12 -21 -5l-99 58z" />
    <glyph glyph-name="Ycircumflex" unicode="&#x176;" horiz-adv-x="602" 
d="M222 337l-221 334q-6 10 -1 19.5t17 9.5h130q6 0 10 -3t6 -6l139 -205l139 205q2 3 5.5 6t10.5 3h130q12 0 17 -9.5t-1 -19.5l-224 -333v-319q0 -8 -5.5 -13.5t-13.5 -5.5h-119q-8 0 -13.5 5.5t-5.5 13.5v318zM203 762q-8 -5 -12.5 -3.5t-9.5 7.5l-33 47q-4 5 -1 10.5
t7 8.5l135 104q6 5 12.5 4t11.5 -4l138 -104q4 -3 6.5 -8t-0.5 -11l-34 -46q-9 -12 -21 -5l-99 58z" />
    <glyph glyph-name="ycircumflex" unicode="&#x177;" horiz-adv-x="495" 
d="M18 432q-4 11 1 20.5t18 9.5h119q6 0 11 -3.5t7 -9.5l63 -245h2l89 245q5 13 20 13h114q14 0 19.5 -9t0.5 -21l-273 -656q-2 -5 -7.5 -9.5t-11.5 -4.5h-112q-13 0 -18.5 9.5t-0.5 21.5l96 242zM154 512q-8 -5 -12.5 -3.5t-9.5 7.5l-33 47q-4 5 -1 10.5t7 8.5l135 104
q6 5 12.5 4t11.5 -4l138 -104q4 -3 6.5 -8t-0.5 -11l-34 -46q-9 -12 -21 -5l-99 58z" />
    <glyph glyph-name="Ydieresis" unicode="&#x178;" horiz-adv-x="602" 
d="M222 337l-221 334q-6 10 -1 19.5t17 9.5h130q6 0 10 -3t6 -6l139 -205l139 205q2 3 5.5 6t10.5 3h130q12 0 17 -9.5t-1 -19.5l-224 -333v-319q0 -8 -5.5 -13.5t-13.5 -5.5h-119q-8 0 -13.5 5.5t-5.5 13.5v318zM434 763q-32 0 -53.5 22t-21.5 54t21.5 53.5t53.5 21.5
t54 -21.5t22 -53.5t-22 -54t-54 -22zM169 763q-32 0 -53.5 22t-21.5 54t21.5 53.5t53.5 21.5t54 -21.5t22 -53.5t-22 -54t-54 -22z" />
    <glyph glyph-name="Zacute" unicode="&#x179;" horiz-adv-x="542" 
d="M23 26q0 7 1 12t5 12l260 501v2h-218q-8 0 -13.5 5.5t-5.5 13.5v109q0 8 5.5 13.5t13.5 5.5h425q8 0 13.5 -4.5t5.5 -12.5v-8q0 -5 -1 -8t-5 -11l-251 -507v-2h218q8 0 13.5 -5.5t5.5 -13.5v-109q0 -8 -5.5 -13.5t-13.5 -5.5h-434q-8 0 -13.5 5.5t-5.5 13.5v7zM208 762
q-10 -6 -16.5 -2.5t-10.5 11.5l-21 42q-3 6 -0.5 11t6.5 8l170 104q5 3 13.5 3.5t12.5 -6.5l34 -59q6 -11 3 -18.5t-9 -11.5z" />
    <glyph glyph-name="zacute" unicode="&#x17a;" horiz-adv-x="420" 
d="M52 0q-9 0 -15.5 6.5t-6.5 15.5q0 7 1 11t6 15l144 273v2h-119q-8 0 -14.5 6.5t-6.5 15.5v95q0 10 6.5 16t14.5 6h313q13 0 19.5 -9.5t-0.5 -22.5l-155 -290v-2h113q9 0 15.5 -6t6.5 -16v-94q0 -9 -6.5 -15.5t-15.5 -6.5h-300v0zM157 512q-10 -6 -16.5 -2.5t-10.5 11.5
l-21 42q-3 6 -0.5 11t6.5 8l170 104q5 3 13.5 3.5t12.5 -6.5l34 -59q6 -11 3 -18.5t-9 -11.5z" />
    <glyph glyph-name="Zdotaccent" unicode="&#x17b;" horiz-adv-x="542" 
d="M23 26q0 7 1 12t5 12l260 501v2h-218q-8 0 -13.5 5.5t-5.5 13.5v109q0 8 5.5 13.5t13.5 5.5h425q8 0 13.5 -4.5t5.5 -12.5v-8q0 -5 -1 -8t-5 -11l-251 -507v-2h218q8 0 13.5 -5.5t5.5 -13.5v-109q0 -8 -5.5 -13.5t-13.5 -5.5h-434q-8 0 -13.5 5.5t-5.5 13.5v7zM279 766
q-18 0 -33.5 7t-27.5 18.5t-18.5 27t-6.5 33.5q0 36 25 62t61 26t61.5 -26t25.5 -62q0 -18 -7 -33.5t-18.5 -27t-27.5 -18.5t-34 -7z" />
    <glyph glyph-name="zdotaccent" unicode="&#x17c;" horiz-adv-x="420" 
d="M52 0q-9 0 -15.5 6.5t-6.5 15.5q0 7 1 11t6 15l144 273v2h-119q-8 0 -14.5 6.5t-6.5 15.5v95q0 10 6.5 16t14.5 6h313q13 0 19.5 -9.5t-0.5 -22.5l-155 -290v-2h113q9 0 15.5 -6t6.5 -16v-94q0 -9 -6.5 -15.5t-15.5 -6.5h-300v0zM217 526q-18 0 -33.5 7t-27.5 18.5
t-18.5 27t-6.5 33.5q0 36 25 62t61 26t61.5 -26t25.5 -62q0 -18 -7 -33.5t-18.5 -27t-27.5 -18.5t-34 -7z" />
    <glyph glyph-name="Zcaron" unicode="&#x17d;" horiz-adv-x="542" 
d="M23 26q0 7 1 12t5 12l260 501v2h-218q-8 0 -13.5 5.5t-5.5 13.5v109q0 8 5.5 13.5t13.5 5.5h425q8 0 13.5 -4.5t5.5 -12.5v-8q0 -5 -1 -8t-5 -11l-251 -507v-2h218q8 0 13.5 -5.5t5.5 -13.5v-109q0 -8 -5.5 -13.5t-13.5 -5.5h-434q-8 0 -13.5 5.5t-5.5 13.5v7zM130 866
q-4 3 -6.5 8t0.5 11l34 46q9 12 21 5l99 -58l100 58q8 5 12.5 3.5t9.5 -7.5l33 -47q4 -5 1 -10.5t-7 -8.5l-135 -104q-6 -5 -12.5 -4t-11.5 4z" />
    <glyph glyph-name="zcaron" unicode="&#x17e;" horiz-adv-x="420" 
d="M52 0q-9 0 -15.5 6.5t-6.5 15.5q0 7 1 11t6 15l144 273v2h-119q-8 0 -14.5 6.5t-6.5 15.5v95q0 10 6.5 16t14.5 6h313q13 0 19.5 -9.5t-0.5 -22.5l-155 -290v-2h113q9 0 15.5 -6t6.5 -16v-94q0 -9 -6.5 -15.5t-15.5 -6.5h-300v0zM73 616q-4 3 -6.5 8t0.5 11l34 46
q9 12 21 5l99 -58l100 58q8 5 12.5 3.5t9.5 -7.5l33 -47q4 -5 1 -10.5t-7 -8.5l-135 -104q-6 -5 -12.5 -4t-11.5 4z" />
    <glyph glyph-name="florin" unicode="&#x192;" horiz-adv-x="404" 
d="M120 273h-81q-8 0 -13.5 5.5t-5.5 13.5v89q0 19 19 19h81v93q0 51 15.5 91.5t43.5 68.5t67.5 42.5t87.5 14.5q44 0 71.5 -14t39.5 -24q5 -5 6.5 -12t-2.5 -13l-48 -79q-9 -14 -23 -7q-8 2 -15 5q-6 2 -13.5 4t-13.5 2q-27 0 -45 -19t-18 -61v-92h92q19 0 19 -19v-89
q0 -8 -5.5 -13.5t-13.5 -5.5h-92v-305q0 -51 -16.5 -91.5t-45 -68.5t-67.5 -42.5t-85 -14.5q-44 0 -71.5 14t-39.5 24q-5 5 -6.5 12t2.5 13l48 79q9 14 23 7q8 -3 15 -6q13 -5 27 -5q26 0 44.5 19t18.5 61v304z" />
    <glyph glyph-name="Aringacute" unicode="&#x1fa;" horiz-adv-x="672" 
d="M265 875q-10 -6 -16.5 -2.5t-10.5 11.5l-21 42q-3 6 -0.5 11t6.5 8l170 104q5 3 13.5 3.5t12.5 -6.5l34 -59q6 -11 3 -18.5t-9 -11.5zM18 0q-11 0 -16.5 8t-0.5 18l291 626q-32 13 -51.5 41.5t-19.5 65.5q0 24 9 45t24.5 36.5t36.5 24.5t45 9t44.5 -9t36.5 -24.5
t25 -36.5t9 -45q0 -37 -20 -65.5t-52 -41.5l292 -626q5 -10 -0.5 -18t-16.5 -8h-111q-14 0 -21 5.5t-14 19.5l-36 79h-272l-36 -80q-4 -9 -12.5 -16.5t-23.5 -7.5h-110zM336 715q17 0 30 13.5t13 30.5t-13 30t-30 13t-30.5 -13t-13.5 -30t13.5 -30.5t30.5 -13.5zM412 240
l-76 165h-1l-75 -165h152z" />
    <glyph glyph-name="aringacute" unicode="&#x1fb;" horiz-adv-x="489" 
d="M250 509q-48 0 -81.5 28.5t-33.5 76.5t33.5 76.5t81.5 28.5q24 0 44.5 -7.5t36.5 -21t25 -33t9 -43.5t-9 -43.5t-25 -33t-36.5 -21t-44.5 -7.5zM250 580q17 0 30 8.5t13 25.5t-13 25t-30 8t-30.5 -8t-13.5 -25t13.5 -25.5t30.5 -8.5zM179 721q-10 -6 -16.5 -2.5
t-10.5 11.5l-21 42q-3 6 -0.5 11t6.5 8l170 84q5 3 14 3.5t13 -6.5l33 -59q6 -11 3 -18.5t-9 -11.5zM29 141q0 33 12 61.5t34 49t53.5 32t70.5 11.5q20 0 36.5 -3t28.5 -7q14 -4 26 -10q0 34 -12 52.5t-52 18.5q-12 0 -27.5 -1t-31.5 -3.5t-31 -5.5t-26 -6q-14 -5 -20 3
t-8 21l-11 71q-2 15 4 22.5t14 9.5q4 1 20 4t38 5t47.5 4t48.5 2q54 0 90.5 -11t59.5 -35t33 -61t10 -88v-255q0 -9 -7 -15.5t-15 -6.5h-49q-5 0 -10.5 2.5t-10.5 12.5l-15 31q-11 -9 -23.5 -19t-29.5 -18.5t-38.5 -14t-48.5 -5.5q-34 0 -63.5 11t-51 30.5t-33.5 47.5
t-12 63zM178 152q0 -21 15 -36t36 -15t36.5 15t15.5 36q0 20 -15.5 35.5t-36.5 15.5t-36 -15.5t-15 -35.5z" />
    <glyph glyph-name="AEacute" unicode="&#x1fc;" horiz-adv-x="899" 
d="M-1 0q-11 0 -14.5 8t2.5 18l401 643q10 15 17 23t27 8h401q8 0 13.5 -5.5t5.5 -13.5v-109q0 -8 -5.5 -13.5t-13.5 -5.5h-277v-124h228q8 0 13.5 -5.5t5.5 -13.5v-109q0 -8 -5.5 -13.5t-13.5 -5.5h-228v-135h277q8 0 13.5 -5.5t5.5 -13.5v-109q0 -8 -5.5 -13.5t-13.5 -5.5
h-414q-8 0 -13.5 5.5t-5.5 13.5v85h-184l-53 -87q-5 -9 -11.5 -13t-17.5 -4h-135zM400 240v177l-110 -177h110zM538 763q-10 -6 -16.5 -2.5t-10.5 11.5l-21 42q-3 6 -0.5 11t6.5 8l170 104q5 3 13.5 3.5t12.5 -6.5l34 -59q6 -11 3 -18.5t-9 -11.5z" />
    <glyph glyph-name="aeacute" unicode="&#x1fd;" horiz-adv-x="764" 
d="M29 143q0 32 11.5 60t33.5 48.5t54 32t74 11.5q17 0 33 -3t28 -7q14 -4 27 -10q1 39 -13 55t-49 16q-12 0 -27.5 -1t-32 -3.5t-31.5 -5t-26 -5.5q-23 -7 -27 19l-13 83q-1 8 5 14.5t14 8.5l54 8q23 3 50 5.5t50 2.5q53 0 88 -9.5t58 -29.5q28 19 61.5 29t70.5 10
q44 0 83.5 -16t69.5 -44.5t47.5 -68t17.5 -87.5v-16.5t-2.5 -16t-7 -12.5t-13.5 -5h-286q0 -13 6.5 -27t18.5 -25.5t29.5 -19t40.5 -7.5q33 0 54.5 9.5t35.5 19.5q5 5 14 6t14 -6l50 -68q7 -6 7.5 -15.5t-6.5 -15.5q-32 -32 -74 -50t-96 -18q-51 0 -96.5 20t-77.5 56
q-5 -7 -18.5 -19.5t-33.5 -25t-47.5 -22t-61.5 -9.5q-74 0 -117.5 42.5t-43.5 111.5zM584 294q-2 23 -20 40t-47 17t-46.5 -17t-22.5 -40h136zM178 152q0 -21 15 -36t36 -15t36.5 15t15.5 36q0 20 -15.5 35.5t-36.5 15.5t-36 -15.5t-15 -35.5zM348 512q-10 -6 -16.5 -2.5
t-10.5 11.5l-21 42q-3 6 -0.5 11t6.5 8l170 104q5 3 13.5 3.5t12.5 -6.5l34 -59q6 -11 3 -18.5t-9 -11.5z" />
    <glyph glyph-name="Oslashacute" unicode="&#x1fe;" horiz-adv-x="798" 
d="M59 23q-5 5 -5.5 13t4.5 13l67 66q-40 48 -62.5 107t-22.5 127q0 75 28 141t76.5 114.5t114 77t140.5 28.5q68 0 127.5 -23t107.5 -64l70 69q5 6 13 5.5t13 -5.5l12 -12q14 -12 0 -26l-70 -70q41 -48 64 -107.5t23 -127.5q0 -75 -28 -140.5t-77 -114t-114.5 -76.5
t-140.5 -28q-69 0 -128.5 22.5t-106.5 63.5l-67 -66q-5 -5 -13 -4.5t-13 5.5zM520 509q-26 19 -56.5 30t-64.5 11q-41 0 -77 -16t-63 -43.5t-43 -64t-16 -77.5q0 -34 10.5 -64t29.5 -55zM279 191q25 -20 55.5 -30.5t64.5 -10.5q41 0 77.5 16t63.5 43t43 63t16 77
q0 34 -10.5 65t-30.5 56zM328 762q-10 -6 -16.5 -2.5t-10.5 11.5l-21 42q-3 6 -0.5 11t6.5 8l170 104q5 3 13.5 3.5t12.5 -6.5l34 -59q6 -11 3 -18.5t-9 -11.5z" />
    <glyph glyph-name="oslashacute" unicode="&#x1ff;" horiz-adv-x="540" 
d="M30 232q0 49 19 92.5t52 76.5t76.5 52t93.5 19q42 0 79 -13.5t67 -37.5l34 34q6 7 15 6.5t15 -6.5l14 -14q7 -5 7 -14t-7 -15l-34 -35q23 -30 36.5 -67t13.5 -78q0 -50 -19 -94t-51.5 -77t-76.5 -52.5t-93 -19.5q-41 0 -77.5 13t-66.5 36l-29 -29q-6 -6 -15 -5.5t-14 6.5
l-15 14q-5 7 -5.5 15.5t4.5 15.5l28 28q-24 32 -37.5 69.5t-13.5 79.5zM174 232q0 -23 10 -45l131 131q-20 12 -44 12q-20 0 -38 -8t-31 -21.5t-20.5 -31t-7.5 -37.5zM367 232q0 21 -9 41l-129 -132q18 -9 42 -9q20 0 37.5 8t30.5 21.5t20.5 32t7.5 38.5zM199 512
q-10 -6 -16.5 -2.5t-10.5 11.5l-21 42q-3 6 -0.5 11t6.5 8l170 104q5 3 13.5 3.5t12.5 -6.5l34 -59q6 -11 3 -18.5t-9 -11.5z" />
    <glyph glyph-name="uni0218" unicode="&#x218;" horiz-adv-x="553" 
d="M278 -10q-49 0 -87 9t-65.5 21t-45.5 25t-27 22q-6 6 -7.5 13t3.5 17l46 81q6 10 16 10.5t18 -4.5q10 -7 25 -16.5t33 -18t39 -14.5t45 -6q30 0 49.5 17t19.5 43q0 32 -26.5 54.5t-76.5 46.5q-36 18 -71 37.5t-62.5 45.5t-44 59.5t-16.5 78.5q0 37 14.5 73t43.5 64t72 45
t101 17q39 0 73 -8.5t61.5 -20.5t48 -25t31.5 -21q9 -5 9 -16t-3 -16l-51 -77q-5 -8 -17 -12t-27 5q-9 6 -23.5 15t-32.5 18t-38.5 15t-40.5 6q-32 0 -46.5 -16.5t-14.5 -38.5q0 -25 28 -46t81 -47q33 -16 68.5 -34.5t65.5 -44.5t49 -62t19 -87q0 -39 -16 -76t-46.5 -66
t-74.5 -47t-99 -18zM186 -144q0 38 24 59t62 21q19 0 36.5 -5.5t30.5 -18t21 -32.5t8 -48q0 -53 -16.5 -88t-35.5 -61q-10 -10 -23 -1l-30 22q-7 5 -7 11.5t5 11.5q11 13 17.5 31t6.5 34v7q-4 -3 -9 -5t-11 -3t-13 -1q-31 0 -48.5 18.5t-17.5 47.5z" />
    <glyph glyph-name="uni0219" unicode="&#x219;" horiz-adv-x="431" 
d="M212 -11q-57 0 -99.5 12t-65.5 26q-15 9 -8 24l37 76q2 6 9 10t15 0q28 -14 55 -21.5t59 -7.5q23 0 29 7t6 15q0 11 -19 21.5t-60 26.5q-67 26 -101 60t-34 90q0 31 10.5 57.5t32 45.5t54.5 30t78 11t88.5 -10.5t69.5 -24.5q9 -5 13 -13t-1 -17l-36 -74q-2 -6 -9.5 -8.5
t-14.5 0.5q-23 11 -51.5 19.5t-56.5 8.5q-20 0 -26.5 -5t-6.5 -14t13.5 -17t38.5 -17q35 -13 65.5 -27t53.5 -33t36.5 -44t13.5 -60q0 -30 -12 -56.5t-36 -47t-59 -32t-81 -11.5zM133 -144q0 38 24 59t62 21q19 0 36.5 -5.5t30.5 -18t21 -32.5t8 -48q0 -53 -16.5 -88
t-35.5 -61q-10 -10 -23 -1l-30 22q-7 5 -7 11.5t5 11.5q11 13 17.5 31t6.5 34v7q-4 -3 -9 -5t-11 -3t-13 -1q-31 0 -48.5 18.5t-17.5 47.5z" />
    <glyph glyph-name="uni021A" unicode="&#x21a;" horiz-adv-x="534" 
d="M188 553h-143q-8 0 -13.5 5.5t-5.5 13.5v109q0 8 5.5 13.5t13.5 5.5h444q8 0 13.5 -5.5t5.5 -13.5v-109q0 -8 -5.5 -13.5t-13.5 -5.5h-143v-534q0 -8 -5.5 -13.5t-13.5 -5.5h-120q-8 0 -13.5 5.5t-5.5 13.5v534zM172 -144q0 38 24 59t62 21q19 0 36.5 -5.5t30.5 -18
t21 -32.5t8 -48q0 -53 -16.5 -88t-35.5 -61q-10 -10 -23 -1l-30 22q-7 5 -7 11.5t5 11.5q11 13 17.5 31t6.5 34v7q-4 -3 -9 -5t-11 -3t-13 -1q-31 0 -48.5 18.5t-17.5 47.5z" />
    <glyph glyph-name="uni021B" unicode="&#x21b;" horiz-adv-x="392" 
d="M85 325h-38q-8 0 -14 6.5t-6 15.5v93q0 10 6 16t14 6h38v128q0 9 6.5 15.5t15.5 6.5h110q8 0 14 -6.5t6 -15.5v-128h93q9 0 15.5 -6t6.5 -16v-93q0 -9 -6.5 -15.5t-15.5 -6.5h-93v-161q0 -32 31 -32q12 0 30.5 4t26.5 6q9 2 16.5 -1.5t9.5 -12.5l20 -87q2 -11 -1.5 -16
t-13.5 -10q-23 -10 -59 -18t-73 -8q-66 0 -102.5 41t-36.5 120v175zM133 -144q0 38 24 59t62 21q19 0 36.5 -5.5t30.5 -18t21 -32.5t8 -48q0 -53 -16.5 -88t-35.5 -61q-10 -10 -23 -1l-30 22q-7 5 -7 11.5t5 11.5q11 13 17.5 31t6.5 34v7q-4 -3 -9 -5t-11 -3t-13 -1
q-31 0 -48.5 18.5t-17.5 47.5z" />
    <glyph glyph-name="uni0237" unicode="&#x237;" horiz-adv-x="266" 
d="M209 -4q0 -53 -14 -94t-37.5 -71t-54.5 -48.5t-64 -27.5q-21 -5 -32 -1t-17 18l-29 73q-6 16 1 23.5t15 10.5q15 6 29.5 14.5t26 21t18 29.5t6.5 40v456q0 10 6.5 16t15.5 6h108q9 0 15.5 -6t6.5 -16v-444z" />
    <glyph glyph-name="circumflex" unicode="&#x2c6;" horiz-adv-x="373" 
d="M87 512q-8 -5 -12.5 -3.5t-9.5 7.5l-33 47q-4 5 -1 10.5t7 8.5l135 104q6 5 12.5 4t11.5 -4l138 -104q4 -3 6.5 -8t-0.5 -11l-34 -46q-9 -12 -21 -5l-99 58z" />
    <glyph glyph-name="caron" unicode="&#x2c7;" horiz-adv-x="373" 
d="M37 616q-4 3 -6.5 8t0.5 11l34 46q9 12 21 5l99 -58l100 58q8 5 12.5 3.5t9.5 -7.5l33 -47q4 -5 1 -10.5t-7 -8.5l-135 -104q-6 -5 -12.5 -4t-11.5 4z" />
    <glyph glyph-name="uni02C9" unicode="&#x2c9;" horiz-adv-x="414" 
d="M79 563q-8 0 -13.5 5t-5.5 13v41q0 19 19 19h256q19 0 19 -19v-41q0 -8 -5.5 -13t-13.5 -5h-256z" />
    <glyph glyph-name="breve" unicode="&#x2d8;" horiz-adv-x="346" 
d="M173 527q-56 0 -95 34.5t-47 85.5q-2 9 3.5 15.5t15.5 6.5h45q6 0 10.5 -3.5t6.5 -8.5q7 -20 23 -34t38 -14q20 0 36 15t23 33q2 5 7 8.5t10 3.5h47q9 0 14.5 -6.5t4.5 -15.5q-4 -26 -16.5 -47.5t-31.5 -38t-43 -25.5t-51 -9z" />
    <glyph glyph-name="dotaccent" unicode="&#x2d9;" horiz-adv-x="219" 
d="M109 513q-18 0 -33.5 7t-27.5 18.5t-18.5 27t-6.5 33.5q0 36 25 62t61 26t61.5 -26t25.5 -62q0 -18 -7 -33.5t-18.5 -27t-27.5 -18.5t-34 -7z" />
    <glyph glyph-name="ring" unicode="&#x2da;" horiz-adv-x="290" 
d="M145 480q-24 0 -45 9t-36.5 24.5t-24.5 36.5t-9 45t9 45t24.5 36.5t36.5 24.5t45 9t44.5 -9t36.5 -24.5t25 -36.5t9 -45t-9 -45t-25 -36.5t-36.5 -24.5t-44.5 -9zM145 551q17 0 30 13.5t13 30.5t-13 30t-30 13t-30.5 -13t-13.5 -30t13.5 -30.5t30.5 -13.5z" />
    <glyph glyph-name="ogonek" unicode="&#x2db;" horiz-adv-x="276" 
d="M215 3q-10 -7 -26 -20.5t-31 -30t-26 -34.5t-11 -36q0 -21 9.5 -29t24.5 -8q20 0 37 11.5t23 17.5q7 7 14.5 4t7.5 -12v-57q0 -10 -3 -18.5t-13 -15.5q-13 -8 -37.5 -16t-54.5 -8q-54 0 -81 31t-27 76q0 27 9.5 49.5t24 40.5t30.5 31.5t29 23.5h101z" />
    <glyph glyph-name="tilde" unicode="&#x2dc;" horiz-adv-x="380" 
d="M38 583q-5 4 -6.5 11t0.5 12q4 7 13.5 21t23.5 28t32 24.5t38 10.5q18 0 31.5 -7.5t25.5 -16t24 -16t27 -7.5q12 0 22.5 11.5t15.5 19.5q4 6 10.5 7.5t14.5 -5.5l34 -26q14 -10 1 -29q-4 -6 -12.5 -19t-21.5 -26t-29.5 -23t-36.5 -10t-34.5 7.5t-27 16.5t-24 16.5
t-24.5 7.5q-7 0 -12.5 -4t-10.5 -9.5t-9.5 -11.5l-7.5 -10q-9 -9 -22 -1z" />
    <glyph glyph-name="hungarumlaut" unicode="&#x2dd;" horiz-adv-x="392" 
d="M216 521q-8 0 -14.5 5.5t-4.5 13.5l30 141q2 8 6.5 13.5t12.5 5.5h94q14 0 19 -8t-1 -17l-78 -139q-4 -5 -8.5 -10t-9.5 -5h-46zM50 521q-8 0 -14.5 5.5t-4.5 13.5l30 141q2 8 6.5 13.5t12.5 5.5h94q14 0 18.5 -7.5t-0.5 -17.5l-78 -139q-3 -6 -8 -10.5t-10 -4.5h-46z
" />
    <glyph glyph-name="uni0394" unicode="&#x394;" horiz-adv-x="740" 
d="M349 699q5 11 17 11h10q11 0 17 -11l304 -656q8 -17 2.5 -30t-22.5 -13h-604q-20 0 -30 10.5t1 34.5zM490 145l-121 260h-1l-116 -261z" />
    <glyph glyph-name="uni03A9" unicode="&#x3a9;" horiz-adv-x="836" 
d="M54 128q0 8 5.5 13.5t13.5 5.5h77q-20 14 -37 38t-29 53t-19 60t-7 60q0 75 28 139.5t77 111.5t114.5 74t140.5 27t140.5 -27t114.5 -74t77 -111.5t28 -139.5q0 -29 -7 -60t-19 -60t-29 -53t-37 -38h77q8 0 13.5 -5.5t5.5 -13.5v-109q0 -8 -5.5 -13.5t-13.5 -5.5h-279
q-8 0 -13.5 5.5t-5.5 13.5v65q0 24 7 31t21 15q63 38 94 98.5t31 120.5q0 41 -16 77.5t-43 64t-63.5 43.5t-77.5 16t-77.5 -16t-63.5 -43.5t-43 -64t-16 -77.5q0 -60 31 -120.5t94 -98.5q14 -8 21 -15t7 -31v-65q0 -8 -5.5 -13.5t-13.5 -5.5h-279q-8 0 -13.5 5.5t-5.5 13.5
v109z" />
    <glyph glyph-name="uni03BC" unicode="&#x3bc;" horiz-adv-x="557" 
d="M74 440q0 10 6.5 16t14.5 6h109q9 0 15.5 -6t6.5 -16v-220q0 -39 13.5 -63.5t48.5 -24.5q34 0 48.5 24.5t14.5 55.5v228q0 14 8.5 18t16.5 4h105q9 0 15.5 -6t6.5 -16v-418q0 -9 -6.5 -15.5t-15.5 -6.5h-46q-8 0 -13.5 5t-8.5 11l-16 43q-11 -11 -22 -23t-27 -22.5
t-39 -17.5t-56 -7q-8 0 -14.5 0.5t-12.5 1.5v-207q0 -9 -6.5 -15.5t-15.5 -6.5h-108q-9 0 -15.5 6.5t-6.5 15.5v656z" />
    <glyph glyph-name="pi" unicode="&#x3c0;" horiz-adv-x="696" 
d="M127 325h-87q-10 0 -16 6.5t-6 15.5v93q0 22 22 22h616q22 0 22 -22v-93q0 -9 -6 -15.5t-16 -6.5h-96v-303q0 -9 -6.5 -15.5t-15.5 -6.5h-108q-8 0 -15 6.5t-7 15.5v303h-128v-303q0 -9 -7 -15.5t-15 -6.5h-109q-8 0 -15 6.5t-7 15.5v303z" />
    <glyph glyph-name="Wgrave" unicode="&#x1e80;" horiz-adv-x="884" 
d="M18 676q-3 11 2 17.5t16 6.5h117q6 0 11 -4.5t7 -9.5l86 -339h4l155 352q5 11 17 11h18q13 0 17 -11l155 -352h4l86 339q2 5 7 9.5t11 4.5h117q11 0 16 -6.5t2 -17.5l-189 -672q-4 -14 -18 -14h-16q-12 0 -17 11l-183 409h-3l-182 -409q-6 -11 -17 -11h-16q-6 0 -11 4
t-7 10zM330 844q-6 4 -9 11.5t3 18.5l34 59q4 7 12.5 6.5t13.5 -3.5l170 -104q4 -3 6.5 -8t-0.5 -11l-21 -42q-4 -8 -10.5 -11.5t-16.5 2.5z" />
    <glyph glyph-name="wgrave" unicode="&#x1e81;" horiz-adv-x="720" 
d="M15 434q-4 11 2 19.5t19 8.5h99q5 0 12 -3.5t9 -10.5l67 -192h1l113 207q2 3 6 6t12 3h11q14 0 18 -9l114 -207h1l66 192q5 14 23 14h97q12 0 18.5 -8.5t2.5 -19.5l-153 -431q-5 -14 -21 -14h-5q-4 0 -10 3t-8 7l-149 249h-1l-147 -249q-2 -4 -8 -7t-10 -3h-6q-6 0 -12 4
t-8 10zM250 594q-6 4 -9 11.5t3 18.5l34 59q4 7 12.5 6.5t13.5 -3.5l170 -104q4 -3 6.5 -8t-0.5 -11l-21 -42q-4 -8 -10.5 -11.5t-16.5 2.5z" />
    <glyph glyph-name="Wacute" unicode="&#x1e82;" horiz-adv-x="884" 
d="M18 676q-3 11 2 17.5t16 6.5h117q6 0 11 -4.5t7 -9.5l86 -339h4l155 352q5 11 17 11h18q13 0 17 -11l155 -352h4l86 339q2 5 7 9.5t11 4.5h117q11 0 16 -6.5t2 -17.5l-189 -672q-4 -14 -18 -14h-16q-12 0 -17 11l-183 409h-3l-182 -409q-6 -11 -17 -11h-16q-6 0 -11 4
t-7 10zM369 762q-10 -6 -16.5 -2.5t-10.5 11.5l-21 42q-3 6 -0.5 11t6.5 8l170 104q5 3 13.5 3.5t12.5 -6.5l34 -59q6 -11 3 -18.5t-9 -11.5z" />
    <glyph glyph-name="wacute" unicode="&#x1e83;" horiz-adv-x="720" 
d="M15 434q-4 11 2 19.5t19 8.5h99q5 0 12 -3.5t9 -10.5l67 -192h1l113 207q2 3 6 6t12 3h11q14 0 18 -9l114 -207h1l66 192q5 14 23 14h97q12 0 18.5 -8.5t2.5 -19.5l-153 -431q-5 -14 -21 -14h-5q-4 0 -10 3t-8 7l-149 249h-1l-147 -249q-2 -4 -8 -7t-10 -3h-6q-6 0 -12 4
t-8 10zM291 512q-10 -6 -16.5 -2.5t-10.5 11.5l-21 42q-3 6 -0.5 11t6.5 8l170 104q5 3 13.5 3.5t12.5 -6.5l34 -59q6 -11 3 -18.5t-9 -11.5z" />
    <glyph glyph-name="Wdieresis" unicode="&#x1e84;" horiz-adv-x="884" 
d="M18 676q-3 11 2 17.5t16 6.5h117q6 0 11 -4.5t7 -9.5l86 -339h4l155 352q5 11 17 11h18q13 0 17 -11l155 -352h4l86 339q2 5 7 9.5t11 4.5h117q11 0 16 -6.5t2 -17.5l-189 -672q-4 -14 -18 -14h-16q-12 0 -17 11l-183 409h-3l-182 -409q-6 -11 -17 -11h-16q-6 0 -11 4
t-7 10zM572 763q-32 0 -53.5 22t-21.5 54t21.5 53.5t53.5 21.5t54 -21.5t22 -53.5t-22 -54t-54 -22zM307 763q-32 0 -53.5 22t-21.5 54t21.5 53.5t53.5 21.5t54 -21.5t22 -53.5t-22 -54t-54 -22z" />
    <glyph glyph-name="wdieresis" unicode="&#x1e85;" horiz-adv-x="720" 
d="M15 434q-4 11 2 19.5t19 8.5h99q5 0 12 -3.5t9 -10.5l67 -192h1l113 207q2 3 6 6t12 3h11q14 0 18 -9l114 -207h1l66 192q5 14 23 14h97q12 0 18.5 -8.5t2.5 -19.5l-153 -431q-5 -14 -21 -14h-5q-4 0 -10 3t-8 7l-149 249h-1l-147 -249q-2 -4 -8 -7t-10 -3h-6q-6 0 -12 4
t-8 10zM465 530q-32 0 -53.5 22t-21.5 54t21.5 53.5t53.5 21.5t54 -21.5t22 -53.5t-22 -54t-54 -22zM260 530q-32 0 -53.5 22t-21.5 54t21.5 53.5t53.5 21.5t54 -21.5t22 -53.5t-22 -54t-54 -22z" />
    <glyph glyph-name="Ygrave" unicode="&#x1ef2;" horiz-adv-x="602" 
d="M222 337l-221 334q-6 10 -1 19.5t17 9.5h130q6 0 10 -3t6 -6l139 -205l139 205q2 3 5.5 6t10.5 3h130q12 0 17 -9.5t-1 -19.5l-224 -333v-319q0 -8 -5.5 -13.5t-13.5 -5.5h-119q-8 0 -13.5 5.5t-5.5 13.5v318zM191 844q-6 4 -9 11.5t3 18.5l34 59q4 7 12.5 6.5t13.5 -3.5
l170 -104q4 -3 6.5 -8t-0.5 -11l-21 -42q-4 -8 -10.5 -11.5t-16.5 2.5z" />
    <glyph glyph-name="ygrave" unicode="&#x1ef3;" horiz-adv-x="495" 
d="M18 432q-4 11 1 20.5t18 9.5h119q6 0 11 -3.5t7 -9.5l63 -245h2l89 245q5 13 20 13h114q14 0 19.5 -9t0.5 -21l-273 -656q-2 -5 -7.5 -9.5t-11.5 -4.5h-112q-13 0 -18.5 9.5t-0.5 21.5l96 242zM145 594q-6 4 -9 11.5t3 18.5l34 59q4 7 12.5 6.5t13.5 -3.5l170 -104
q4 -3 6.5 -8t-0.5 -11l-21 -42q-4 -8 -10.5 -11.5t-16.5 2.5z" />
    <glyph glyph-name="endash" unicode="&#x2013;" horiz-adv-x="548" 
d="M69 203q-8 0 -13.5 5t-5.5 13v51q0 19 19 19h409q19 0 19 -19v-51q0 -8 -5.5 -13t-13.5 -5h-409v0z" />
    <glyph glyph-name="emdash" unicode="&#x2014;" horiz-adv-x="768" 
d="M69 203q-8 0 -13.5 5t-5.5 13v51q0 19 19 19h629q19 0 19 -19v-51q0 -8 -5.5 -13t-13.5 -5h-629z" />
    <glyph glyph-name="quoteleft" unicode="&#x2018;" horiz-adv-x="239" 
d="M214 458q0 -35 -24.5 -58t-61.5 -23q-19 0 -36.5 7t-30.5 21.5t-21 36.5t-8 53q0 33 6.5 62.5t16.5 55t23 47.5t26 41q8 11 23 1l32 -22q12 -7 0 -24q-20 -27 -34.5 -59t-14.5 -63q0 -4 1 -8q13 10 35 10q34 0 51 -23t17 -55z" />
    <glyph glyph-name="quoteright" unicode="&#x2019;" horiz-adv-x="235" 
d="M23 629q0 35 24.5 58t61.5 23q19 0 36.5 -7t30.5 -21.5t21 -36.5t8 -53q0 -33 -6.5 -62.5t-16.5 -55t-23 -47.5t-26 -41q-8 -11 -23 -1l-32 22q-6 4 -5.5 10.5t5.5 13.5q19 28 34 59.5t15 62.5q0 4 -1 8q-13 -10 -35 -10q-34 0 -51 23t-17 55z" />
    <glyph glyph-name="quotesinglbase" unicode="&#x201a;" horiz-adv-x="251" 
d="M34 79q0 35 24.5 58t61.5 23q19 0 36.5 -7t30.5 -21.5t21 -36.5t8 -53q0 -33 -6.5 -62.5t-16.5 -55t-23 -47.5t-26 -41q-8 -11 -23 -1l-32 22q-6 4 -5.5 10.5t5.5 13.5q19 28 34 59.5t15 62.5q0 4 -1 8q-13 -10 -35 -10q-34 0 -51 23t-17 55z" />
    <glyph glyph-name="quotedblleft" unicode="&#x201c;" horiz-adv-x="464" 
d="M214 458q0 -35 -24.5 -58t-61.5 -23q-19 0 -36.5 7t-30.5 21.5t-21 36.5t-8 53q0 33 6.5 62.5t16.5 55t23 47.5t26 41q8 11 23 1l32 -22q12 -7 0 -24q-20 -27 -34.5 -59t-14.5 -63q0 -4 1 -8q13 10 35 10q34 0 51 -23t17 -55zM439 458q0 -35 -24.5 -58t-61.5 -23
q-19 0 -36.5 7t-30.5 21.5t-21 36.5t-8 53q0 33 6.5 62.5t16.5 55t23 47.5t26 41q8 11 23 1l32 -22q12 -7 0 -24q-20 -27 -34.5 -59t-14.5 -63q0 -4 1 -8q13 10 35 10q34 0 51 -23t17 -55z" />
    <glyph glyph-name="quotedblright" unicode="&#x201d;" horiz-adv-x="460" 
d="M23 629q0 35 24.5 58t61.5 23q19 0 36.5 -7t30.5 -21.5t21 -36.5t8 -53q0 -33 -6.5 -62.5t-16.5 -55t-23 -47.5t-26 -41q-8 -11 -23 -1l-32 22q-6 4 -5.5 10.5t5.5 13.5q19 28 34 59.5t15 62.5q0 4 -1 8q-13 -10 -35 -10q-34 0 -51 23t-17 55zM248 629q0 35 24.5 58
t61.5 23q19 0 36.5 -7t30.5 -21.5t21 -36.5t8 -53q0 -33 -6.5 -62.5t-16.5 -55t-23 -47.5t-26 -41q-8 -11 -23 -1l-32 22q-6 4 -5.5 10.5t5.5 13.5q19 28 34 59.5t15 62.5q0 4 -1 8q-13 -10 -35 -10q-34 0 -51 23t-17 55z" />
    <glyph glyph-name="quotedblbase" unicode="&#x201e;" horiz-adv-x="475" 
d="M34 79q0 35 24.5 58t61.5 23q19 0 36.5 -7t30.5 -21.5t21 -36.5t8 -53q0 -33 -6.5 -62.5t-16.5 -55t-23 -47.5t-26 -41q-8 -11 -23 -1l-32 22q-6 4 -5.5 10.5t5.5 13.5q19 28 34 59.5t15 62.5q0 4 -1 8q-13 -10 -35 -10q-34 0 -51 23t-17 55zM258 79q0 35 24.5 58
t61.5 23q19 0 36.5 -7t30.5 -21.5t21 -36.5t8 -53q0 -33 -6.5 -62.5t-16.5 -55t-23 -47.5t-26 -41q-8 -11 -23 -1l-32 22q-6 4 -5.5 10.5t5.5 13.5q19 28 34 59.5t15 62.5q0 4 -1 8q-13 -10 -35 -10q-34 0 -51 23t-17 55z" />
    <glyph glyph-name="dagger" unicode="&#x2020;" horiz-adv-x="602" 
d="M61 262q-8 0 -13.5 5.5t-5.5 13.5v100q0 8 5.5 13.5t13.5 5.5h157v281q0 8 5.5 13.5t13.5 5.5h120q8 0 13.5 -5.5t5.5 -13.5v-281h166q8 0 13 -5.5t5 -13.5v-100q0 -8 -5 -13.5t-13 -5.5h-176l-39 -484q-1 -6 -5.5 -11t-13.5 -5h-22q-8 0 -13 5t-6 11l-39 484h-167z" />
    <glyph glyph-name="daggerdbl" unicode="&#x2021;" horiz-adv-x="618" 
d="M80 120q0 8 5.5 13.5t13.5 5.5h145l-18 259v1h-157q-8 0 -13.5 5.5t-5.5 13.5v100q0 8 5.5 13.5t13.5 5.5h157v144q0 8 5.5 13.5t13.5 5.5h120q8 0 13.5 -5.5t5.5 -13.5v-144h166q8 0 13 -5.5t5 -13.5v-100q0 -8 -5 -13.5t-13 -5.5h-166l-19 -260h155q8 0 13 -5.5
t5 -13.5v-100q0 -8 -5 -13.5t-13 -5.5h-165l-20 -223q-1 -6 -6 -11t-13 -5h-22q-8 0 -13 5t-6 11l-21 223h-155q-8 0 -13.5 5.5t-5.5 13.5v100z" />
    <glyph glyph-name="bullet" unicode="&#x2022;" horiz-adv-x="398" 
d="M197 113q-29 0 -54.5 11.5t-44.5 30.5t-30.5 44.5t-11.5 54.5q0 30 11.5 56t30.5 46t44.5 31.5t54.5 11.5q30 0 56 -11.5t46 -31.5t31.5 -46t11.5 -56q0 -29 -11.5 -54.5t-31.5 -44.5t-46 -30.5t-56 -11.5z" />
    <glyph glyph-name="ellipsis" unicode="&#x2026;" horiz-adv-x="677" 
d="M485 70q0 33 23 56t56 23t56.5 -23t23.5 -56t-23.5 -56.5t-56.5 -23.5t-56 23.5t-23 56.5zM260 70q0 33 23 56t56 23t56.5 -23t23.5 -56t-23.5 -56.5t-56.5 -23.5t-56 23.5t-23 56.5zM34 70q0 33 23 56t56 23t56.5 -23t23.5 -56t-23.5 -56.5t-56.5 -23.5t-56 23.5
t-23 56.5z" />
    <glyph glyph-name="perthousand" unicode="&#x2030;" horiz-adv-x="998" 
d="M185 441q-28 0 -52.5 10.5t-43 29t-29 43t-10.5 52.5t10.5 52.5t29 43t43 29t52.5 10.5t52.5 -10.5t43 -29t29 -43t10.5 -52.5t-10.5 -52.5t-29 -43t-43 -29t-52.5 -10.5zM467 690q3 5 8 7.5t9 2.5h76q11 0 16.5 -8.5t0.5 -18.5l-345 -663q-2 -3 -7.5 -6.5t-9.5 -3.5h-74
q-11 0 -16.5 8.5t-0.5 18.5zM185 541q14 0 24 10.5t10 24.5t-10 24t-24 10t-24.5 -10t-10.5 -24t10.5 -24.5t24.5 -10.5zM685 125q0 28 10.5 52.5t29 43t43 29t52.5 10.5t53 -10.5t43.5 -29t29 -43t10.5 -52.5t-10.5 -52.5t-29 -43t-43.5 -29t-53 -10.5t-52.5 10.5t-43 29
t-29 43t-10.5 52.5zM385 125q0 28 10.5 52.5t29 43t43 29t52.5 10.5t53 -10.5t43.5 -29t29 -43t10.5 -52.5t-10.5 -52.5t-29 -43t-43.5 -29t-53 -10.5t-52.5 10.5t-43 29t-29 43t-10.5 52.5zM786 125q0 -14 10 -24t24 -10t24.5 10t10.5 24t-10.5 24.5t-24.5 10.5t-24 -10.5
t-10 -24.5zM486 125q0 -14 10 -24t24 -10t24.5 10t10.5 24t-10.5 24.5t-24.5 10.5t-24 -10.5t-10 -24.5z" />
    <glyph glyph-name="guilsinglleft" unicode="&#x2039;" horiz-adv-x="297" 
d="M33 224q-5 6 -4 12.5t4 11.5l109 148q2 4 7 8t11 4h79q13 0 17 -9.5t-2 -21.5l-65 -139l62 -147q5 -12 1.5 -21t-16.5 -9h-84q-3 0 -8 2.5t-7 5.5z" />
    <glyph glyph-name="guilsinglright" unicode="&#x203a;" horiz-adv-x="297" 
d="M60 61q-13 0 -16.5 9t1.5 21l62 147l-65 139q-6 12 -2 21.5t17 9.5h79q6 0 11 -4t7 -8l109 -148q3 -5 4 -11.5t-4 -12.5l-104 -155q-2 -3 -7 -5.5t-8 -2.5h-84v0z" />
    <glyph glyph-name="fraction" unicode="&#x2044;" horiz-adv-x="120" 
d="M-68 10q-2 -3 -5.5 -6.5t-11.5 -3.5h-55q-11 0 -16.5 8.5t-0.5 18.5l344 663q5 10 17 10h56q11 0 16.5 -8.5t0.5 -18.5z" />
    <glyph glyph-name="uni2070" unicode="&#x2070;" horiz-adv-x="326" 
d="M163 494q-63 0 -97 42t-34 116q0 75 34 116.5t97 41.5t97 -41.5t34 -116.5q0 -74 -34 -116t-97 -42zM163 574q15 0 23 18t8 60t-8 60t-23 18t-23 -18t-8 -60t8 -60t23 -18z" />
    <glyph glyph-name="uni2074" unicode="&#x2074;" horiz-adv-x="325" 
d="M171 504q-10 0 -10 9v47h-130q-9 0 -9 8v62l139 167q1 2 3 2.5t4 0.5h71q9 0 9 -9v-163h39q9 0 9 -8v-51q0 -9 -9 -9h-39v-47q0 -9 -9 -9h-68zM162 626v65l-58 -65h58z" />
    <glyph glyph-name="uni2075" unicode="&#x2075;" horiz-adv-x="289" 
d="M132 494q-38 0 -62.5 13.5t-33.5 24.5q-7 7 -1 15l30 39q8 13 17 4q5 -5 13 -9q7 -4 16.5 -6.5t21.5 -2.5t23.5 7t11.5 21t-10.5 21.5t-27.5 7.5h-72q-8 0 -12 5t-4 10v147q0 9 10 9h161q10 0 10 -9v-53q0 -9 -10 -9h-96v-29h29q54 0 84 -25.5t30 -73.5t-34.5 -77.5
t-93.5 -29.5z" />
    <glyph glyph-name="uni2076" unicode="&#x2076;" horiz-adv-x="296" 
d="M152 494q-57 0 -90 33.5t-33 85.5q0 51 21.5 87t49.5 60t56 37t42 17q15 4 20 -9l15 -40q2 -5 0.5 -10t-9.5 -7q-9 -3 -23 -8.5t-28.5 -14t-27 -19t-18.5 -23.5q6 3 13 6q6 2 15 4t22 2q16 0 32.5 -6t29.5 -18t21 -30.5t8 -42.5q0 -21 -9.5 -40t-25 -33.5t-36.5 -22.5
t-45 -8zM152 574q12 0 20.5 8t8.5 21t-8.5 21.5t-20.5 8.5t-21 -8.5t-9 -21.5t9 -21t21 -8z" />
    <glyph glyph-name="uni2077" unicode="&#x2077;" horiz-adv-x="268" 
d="M42 504q-13 0 -13 9v5l108 208h-92q-10 0 -10 8v57q0 9 10 9h198q10 0 10 -9v-16l-127 -262q-5 -9 -16 -9h-68z" />
    <glyph glyph-name="uni2078" unicode="&#x2078;" horiz-adv-x="315" 
d="M156 494q-57 0 -91 24.5t-34 61.5q0 19 9 33t20 23.5t20.5 14.5t11.5 5v1q-7 3 -16 8.5t-17 14t-13.5 20.5t-5.5 27q0 19 9.5 34.5t25.5 26t37 16.5t44 6q24 0 45.5 -6t37.5 -16.5t25.5 -26t9.5 -34.5q0 -30 -18.5 -47.5t-33.5 -22.5v-1q9 -2 20 -7.5t20.5 -14.5
t15.5 -22.5t6 -31.5q0 -37 -35 -61.5t-93 -24.5zM157 688q10 0 17.5 7t7.5 18t-7.5 18.5t-17.5 7.5t-18 -7.5t-8 -18.5t8 -18t18 -7zM158 562q11 0 21 7.5t10 22.5q0 12 -8.5 21.5t-22.5 9.5q-12 0 -22 -9.5t-10 -21.5q0 -14 10.5 -22t21.5 -8z" />
    <glyph glyph-name="uni2079" unicode="&#x2079;" horiz-adv-x="296" 
d="M98 490q-15 -4 -20 9l-15 40q-2 5 -0.5 10t9.5 7q9 3 23 8.5t28.5 14t27 19t18.5 23.5q-5 -3 -13 -6q-7 -2 -17 -4t-24 -2q-15 0 -30.5 6.5t-28 18.5t-20.5 30t-8 42q0 21 9.5 40t25 33.5t36.5 22.5t45 8q57 0 90 -33.5t33 -85.5q0 -51 -21.5 -87t-49.5 -60t-56.5 -37
t-41.5 -17zM144 671q12 0 21 8.5t9 21.5t-9 21t-21 8t-20.5 -8t-8.5 -21t8.5 -21.5t20.5 -8.5z" />
    <glyph glyph-name="uni2080" unicode="&#x2080;" horiz-adv-x="326" 
d="M32 -2q0 75 34 116.5t97 41.5t97 -41.5t34 -116.5q0 -74 -34 -116t-97 -42t-97 42t-34 116zM132 -2q0 -42 8 -60t23 -18t23 18t8 60t-8 60t-23 18t-23 -18t-8 -60z" />
    <glyph glyph-name="uni2081" unicode="&#x2081;" horiz-adv-x="220" 
d="M30 43q-8 0 -8 11v38q0 6 8 11l76 43h63q9 0 9 -9v-278q0 -9 -9 -9h-75q-10 0 -10 9v184h-54z" />
    <glyph glyph-name="uni2082" unicode="&#x2082;" horiz-adv-x="278" 
d="M41 101q-5 9 -6 14t10 13q7 5 31.5 16.5t61.5 11.5q44 0 74 -25t30 -69q0 -22 -8 -43t-22 -41l-40 -53h58q10 0 10 -9v-57q0 -9 -10 -9h-195q-10 0 -10 9v18l102 123q11 14 15.5 26t4.5 21q0 15 -9.5 22t-21.5 7q-11 0 -21 -5.5t-14 -9.5q-5 -3 -9.5 -3t-8.5 7z" />
    <glyph glyph-name="uni2083" unicode="&#x2083;" horiz-adv-x="274" 
d="M64 17q0 17 18 17h28q11 0 19.5 6.5t8.5 17.5q0 22 -29 22q-9 0 -16.5 -3t-13.5 -8q-5 -3 -8.5 -3.5t-8.5 7.5l-26 35q-5 7 -4 12t5 9q9 7 22 13q11 5 27.5 9.5t37.5 4.5q51 0 80.5 -22.5t29.5 -60.5q0 -28 -16.5 -44.5t-34.5 -25.5q9 -3 19.5 -9t19.5 -15t15 -22t6 -31
q0 -21 -10 -37.5t-26.5 -27t-38 -16t-44.5 -5.5q-20 0 -35.5 3.5t-26.5 8.5t-18 10t-10 7q-12 9 -3 22l23 34q8 11 20 4l10 -6q10 -5 26 -5q18 0 25.5 6.5t7.5 17.5t-8 18t-25 7h-33q-6 1 -9.5 3.5t-3.5 12.5v34z" />
    <glyph glyph-name="uni2084" unicode="&#x2084;" horiz-adv-x="326" 
d="M162 143q1 2 3 2.5t4 0.5h71q9 0 9 -9v-163h39q9 0 9 -8v-51q0 -9 -9 -9h-39v-47q0 -9 -9 -9h-68q-10 0 -10 9v47h-130q-9 0 -9 8v62zM163 -28v65l-58 -65h58z" />
    <glyph glyph-name="uni2085" unicode="&#x2085;" horiz-adv-x="289" 
d="M42 137q0 9 10 9h161q10 0 10 -9v-53q0 -9 -10 -9h-96v-29h29q54 0 84 -25.5t30 -73.5t-34.5 -77.5t-93.5 -29.5q-38 0 -62.5 13.5t-33.5 24.5q-7 7 -1 15l30 39q8 13 17 4q5 -5 13 -9q7 -4 16.5 -6.5t21.5 -2.5t23.5 7t11.5 21t-10.5 21.5t-27.5 7.5h-72q-8 0 -12 5
t-4 10v147z" />
    <glyph glyph-name="uni2086" unicode="&#x2086;" horiz-adv-x="296" 
d="M29 -41q0 51 21.5 87t49.5 60t56 37t42 17q15 4 20 -9l15 -40q2 -5 0.5 -10t-9.5 -7q-9 -3 -23 -8.5t-28.5 -14t-27 -19t-18.5 -23.5q6 3 13 6q6 2 15 4t22 2q16 0 32.5 -6t29.5 -18t21 -30.5t8 -42.5q0 -21 -9.5 -40t-25 -33.5t-36.5 -22.5t-45 -8q-57 0 -90 33.5
t-33 85.5zM122 -51q0 -13 9 -21t21 -8t20.5 8t8.5 21t-8.5 21.5t-20.5 8.5t-21 -8.5t-9 -21.5z" />
    <glyph glyph-name="uni2087" unicode="&#x2087;" horiz-adv-x="268" 
d="M35 137q0 9 10 9h198q10 0 10 -9v-16l-127 -262q-5 -9 -16 -9h-68q-13 0 -13 9v5l108 208h-92q-10 0 -10 8v57z" />
    <glyph glyph-name="uni2088" unicode="&#x2088;" horiz-adv-x="315" 
d="M31 -74q0 19 9 33t20 23.5t20.5 14.5t11.5 5v1q-7 3 -16 8.5t-17 14t-13.5 20.5t-5.5 27q0 19 9.5 34.5t25.5 26t37 16.5t44 6q24 0 45.5 -6t37.5 -16.5t25.5 -26t9.5 -34.5q0 -30 -18.5 -47.5t-33.5 -22.5v-1q9 -2 20 -7.5t20.5 -14.5t15.5 -22.5t6 -31.5
q0 -37 -35 -61.5t-93 -24.5q-57 0 -91 24.5t-34 61.5zM131 59q0 -11 8 -18t18 -7t17.5 7t7.5 18t-7.5 18.5t-17.5 7.5t-18 -7.5t-8 -18.5zM126 -62q0 -14 10.5 -22t21.5 -8t21 7.5t10 22.5q0 12 -8.5 21.5t-22.5 9.5q-12 0 -22 -9.5t-10 -21.5z" />
    <glyph glyph-name="uni2089" unicode="&#x2089;" horiz-adv-x="296" 
d="M28 52q0 21 9.5 40t25 33.5t36.5 22.5t45 8q57 0 90 -33.5t33 -85.5q0 -51 -21.5 -87t-49.5 -60t-56.5 -37t-41.5 -17q-15 -4 -20 9l-15 40q-2 5 -0.5 10t9.5 7q9 3 23 8.5t28.5 14t27 19t18.5 23.5q-5 -3 -13 -6q-7 -2 -17 -4t-24 -2q-15 0 -30.5 6.5t-28 18.5t-20.5 30
t-8 42zM115 47q0 -13 8.5 -21.5t20.5 -8.5t21 8.5t9 21.5t-9 21t-21 8t-20.5 -8t-8.5 -21z" />
    <glyph glyph-name="Euro" unicode="&#x20ac;" 
d="M81 303q-1 11 -1.5 22.5t-0.5 23.5v19h-39q-8 0 -13 5.5t-5 13.5v17q0 8 5 13.5t13 5.5h44q8 58 30 110.5t59 91.5t88.5 62t118.5 23q59 0 103 -17t85 -60q14 -15 1 -28l-62 -93q-5 -5 -12.5 -5t-12.5 5q-25 26 -47.5 36.5t-49.5 10.5q-43 0 -79.5 -33.5t-50.5 -102.5
h205q8 0 13.5 -5.5t5.5 -13.5v-18q0 -8 -5.5 -13t-13.5 -5h-211v-15v-25.5t1 -24.5h170q8 0 13.5 -5.5t5.5 -13.5v-18q0 -8 -5.5 -13t-13.5 -5h-161q11 -44 39 -71t84 -27q30 0 51.5 11t42.5 31q5 5 13 4.5t13 -5.5l68 -90q5 -5 4.5 -13.5t-5.5 -13.5q-44 -46 -90 -65
t-103 -19q-54 0 -101 17.5t-84.5 50.5t-64 81t-38.5 109h-48q-8 0 -13 5.5t-5 13.5v17q0 8 5 13.5t13 5.5h41z" />
    <glyph glyph-name="uni2113" unicode="&#x2113;" horiz-adv-x="478" 
d="M95 156q0 25 3 49q-9 -2 -21 -5.5t-20 -4.5q-13 -3 -15 12l-5 45q-1 5 0 11.5t16 9.5q16 3 31 6.5t30 8.5q4 21 7 40.5t8 40.5q30 163 80 252t129 89q57 0 88 -37.5t31 -101.5q0 -65 -23.5 -118.5t-62 -95.5t-89 -73t-104.5 -52q-4 -19 -6 -37t-2 -37q0 -18 4 -34.5
t12 -29t21.5 -20.5t31.5 -8q72 0 143 43q13 8 18.5 7t10.5 -12l16 -24q7 -12 7 -16t-9 -14q-5 -3 -21.5 -13t-41.5 -20.5t-56.5 -18.5t-66.5 -8q-38 0 -65 14t-44.5 37t-26 53t-8.5 62zM195 310q40 18 74.5 43.5t59.5 58.5t39 72.5t14 86.5q0 30 -12 46.5t-32 16.5
q-45 0 -79 -74.5t-56 -203.5z" />
    <glyph glyph-name="uni2117" unicode="&#x2117;" horiz-adv-x="827" 
d="M54 350q0 74 28 139.5t77 114.5t114.5 77.5t139.5 28.5t139.5 -28.5t114.5 -77.5t77.5 -114.5t28.5 -139.5t-28.5 -139.5t-77.5 -114.5t-114.5 -77.5t-139.5 -28.5t-139.5 28.5t-114.5 77.5t-77 114.5t-28 139.5zM141 350q0 -56 21.5 -106t58.5 -87t86.5 -58.5
t105.5 -21.5q57 0 106.5 21.5t86 58.5t58 87t21.5 106q0 57 -21.5 106.5t-58 86t-86 58t-106.5 21.5q-56 0 -105.5 -21.5t-86.5 -58t-58.5 -86t-21.5 -106.5zM285 515q0 8 5.5 13.5t13.5 5.5h162q23 0 45 -9t39.5 -26t28 -41t10.5 -54q0 -23 -8 -45.5t-25 -39.5t-43.5 -27.5
t-63.5 -10.5h-66v-94q0 -8 -5.5 -13.5t-13.5 -5.5h-60q-8 0 -13.5 5.5t-5.5 13.5v328zM449 369q16 0 24 9.5t8 23.5t-8 23.5t-24 9.5h-69v-66h69z" />
    <glyph glyph-name="trademark" unicode="&#x2122;" horiz-adv-x="781" 
d="M364 378q-10 0 -15.5 7t-3.5 16l52 289q1 6 6 10.5t13 4.5h4q11 0 17 -11l91 -172l92 172q5 11 17 11h4q7 0 12.5 -4.5t6.5 -10.5l53 -290q2 -9 -4 -15.5t-15 -6.5h-52q-7 0 -12.5 5t-6.5 12l-17 105l-59 -116q-5 -9 -16 -9h-6q-12 0 -17 10l-57 115l-18 -106
q-1 -6 -7 -11t-12 -5h-50zM171 378q-8 0 -13.5 5.5t-5.5 13.5v216h-60q-8 0 -13.5 5.5t-5.5 13.5v49q0 8 5.5 13.5t13.5 5.5h211q8 0 13.5 -5.5t5.5 -13.5v-49q0 -19 -19 -19h-60v-216q0 -8 -5.5 -13.5t-13.5 -5.5h-53z" />
    <glyph glyph-name="Omega" unicode="&#x2126;" horiz-adv-x="836" 
d="M54 128q0 8 5.5 13.5t13.5 5.5h77q-20 14 -37 38t-29 53t-19 60t-7 60q0 75 28 139.5t77 111.5t114.5 74t140.5 27t140.5 -27t114.5 -74t77 -111.5t28 -139.5q0 -29 -7 -60t-19 -60t-29 -53t-37 -38h77q8 0 13.5 -5.5t5.5 -13.5v-109q0 -8 -5.5 -13.5t-13.5 -5.5h-279
q-8 0 -13.5 5.5t-5.5 13.5v65q0 24 7 31t21 15q63 38 94 98.5t31 120.5q0 41 -16 77.5t-43 64t-63.5 43.5t-77.5 16t-77.5 -16t-63.5 -43.5t-43 -64t-16 -77.5q0 -60 31 -120.5t94 -98.5q14 -8 21 -15t7 -31v-65q0 -8 -5.5 -13.5t-13.5 -5.5h-279q-8 0 -13.5 5.5t-5.5 13.5
v109z" />
    <glyph glyph-name="estimated" unicode="&#x212e;" horiz-adv-x="834" 
d="M194 172q37 -51 99 -80t131 -29q51 0 102 21t94 58q8 8 15 10t16 -7l24 -26q12 -13 -7 -32q-52 -49 -114 -73t-130 -24q-76 0 -142.5 27.5t-115.5 76t-77 114t-28 141.5t28 142t77 114.5t115.5 76.5t142.5 28q75 0 141 -28.5t115 -78t77.5 -116t29.5 -142.5
q0 -19 -5.5 -25.5t-20.5 -6.5h-567v-141zM655 384v142q-40 51 -100 80.5t-131 29.5q-73 0 -132 -28t-98 -80v-144h461z" />
    <glyph glyph-name="onethird" unicode="&#x2153;" horiz-adv-x="672" 
d="M444 690q5 10 17 10h56q11 0 16.5 -8.5t0.5 -18.5l-345 -663q-2 -3 -5.5 -6.5t-11.5 -3.5h-55q-11 0 -16.5 8.5t-0.5 18.5zM119 404q-10 0 -10 9v184h-54q-8 0 -8 11v38q0 6 8 11l76 43h63q9 0 9 -9v-278q0 -9 -9 -9h-75zM432 75q8 11 20 4l10 -6q10 -5 26 -5
q18 0 25.5 6.5t7.5 17.5t-8 18t-25 7h-33q-6 1 -9.5 3.5t-3.5 12.5v34q0 17 18 17h28q11 0 19.5 6.5t8.5 17.5q0 22 -29 22q-9 0 -16.5 -3t-13.5 -8q-5 -3 -8.5 -3.5t-8.5 7.5l-26 35q-5 7 -4 12t5 9q9 7 22 13q11 5 27.5 9.5t37.5 4.5q51 0 80.5 -22.5t29.5 -60.5
q0 -28 -16.5 -44.5t-34.5 -25.5q9 -3 19.5 -9t19.5 -15t15 -22t6 -31q0 -21 -10 -37.5t-26.5 -27t-38 -16t-44.5 -5.5q-20 0 -35.5 3.5t-26.5 8.5t-18 10t-10 7q-12 9 -3 22z" />
    <glyph glyph-name="twothirds" unicode="&#x2154;" horiz-adv-x="721" 
d="M59 404q-10 0 -10 9v18l102 123q11 14 15.5 26t4.5 21q0 15 -9.5 22t-21.5 7q-11 0 -21 -5.5t-14 -9.5q-5 -3 -9.5 -3t-8.5 7l-22 36q-5 9 -6 14t10 13q7 5 31.5 16.5t61.5 11.5q44 0 74 -25t30 -69q0 -22 -8 -43t-22 -41l-40 -53h58q10 0 10 -9v-57q0 -9 -10 -9h-195z
M495 690q5 10 17 10h56q11 0 16.5 -8.5t0.5 -18.5l-345 -663q-2 -3 -5.5 -6.5t-11.5 -3.5h-55q-11 0 -16.5 8.5t-0.5 18.5zM483 75q8 11 20 4l10 -6q10 -5 26 -5q18 0 25.5 6.5t7.5 17.5t-8 18t-25 7h-33q-6 1 -9.5 3.5t-3.5 12.5v34q0 17 18 17h28q11 0 19.5 6.5t8.5 17.5
q0 22 -29 22q-9 0 -16.5 -3t-13.5 -8q-5 -3 -8.5 -3.5t-8.5 7.5l-26 35q-5 7 -4 12t5 9q9 7 22 13q11 5 27.5 9.5t37.5 4.5q51 0 80.5 -22.5t29.5 -60.5q0 -28 -16.5 -44.5t-34.5 -25.5q9 -3 19.5 -9t19.5 -15t15 -22t6 -31q0 -21 -10 -37.5t-26.5 -27t-38 -16t-44.5 -5.5
q-20 0 -35.5 3.5t-26.5 8.5t-18 10t-10 7q-12 9 -3 22z" />
    <glyph glyph-name="oneeighth" unicode="&#x215b;" horiz-adv-x="687" 
d="M444 690q5 10 17 10h56q11 0 16.5 -8.5t0.5 -18.5l-345 -663q-2 -3 -5.5 -6.5t-11.5 -3.5h-55q-11 0 -16.5 8.5t-0.5 18.5zM119 404q-10 0 -10 9v184h-54q-8 0 -8 11v38q0 6 8 11l76 43h63q9 0 9 -9v-278q0 -9 -9 -9h-75zM385 77q0 19 9 33t20 23.5t20.5 14.5t11.5 5v1
q-7 3 -16 8.5t-17 14t-13.5 20.5t-5.5 27q0 19 9.5 34.5t25.5 26t37 16.5t44 6q24 0 45.5 -6t37.5 -16.5t25.5 -26t9.5 -34.5q0 -30 -18.5 -47.5t-33.5 -22.5v-1q9 -2 20 -7.5t20.5 -14.5t15.5 -22.5t6 -31.5q0 -37 -35 -61.5t-93 -24.5q-57 0 -91 24.5t-34 61.5zM487 210
q0 -10 7.5 -16.5t16.5 -6.5t16 6.5t7 16.5t-7 17t-16 7t-16.5 -7t-7.5 -17zM483 89q0 -12 9 -19.5t20 -7.5q10 0 19 6.5t9 20.5q0 11 -7.5 19.5t-20.5 8.5q-11 0 -20 -8.5t-9 -19.5z" />
    <glyph glyph-name="threeeighths" unicode="&#x215c;" horiz-adv-x="710" 
d="M148 394q-20 0 -35.5 3.5t-26.5 8.5t-18 10t-10 7q-12 9 -3 22l23 34q8 11 20 4l10 -6q10 -5 26 -5q18 0 25.5 6.5t7.5 17.5t-8 18t-25 7h-33q-6 1 -9.5 3.5t-3.5 12.5v34q0 17 18 17h28q11 0 19.5 6.5t8.5 17.5q0 22 -29 22q-9 0 -16.5 -3t-13.5 -8q-5 -3 -8.5 -3.5
t-8.5 7.5l-26 35q-5 7 -4 12t5 9q9 7 22 13q11 5 27.5 9.5t37.5 4.5q51 0 80.5 -22.5t29.5 -60.5q0 -28 -16.5 -44.5t-34.5 -25.5q9 -3 19.5 -9t19.5 -15t15 -22t6 -31q0 -21 -10 -37.5t-26.5 -27t-38 -16t-44.5 -5.5zM469 690q5 10 17 10h56q11 0 16.5 -8.5t0.5 -18.5
l-345 -663q-2 -3 -5.5 -6.5t-11.5 -3.5h-55q-11 0 -16.5 8.5t-0.5 18.5zM409 77q0 19 9 33t20 23.5t20.5 14.5t11.5 5v1q-7 3 -16 8.5t-17 14t-13.5 20.5t-5.5 27q0 19 9.5 34.5t25.5 26t37 16.5t44 6q24 0 45.5 -6t37.5 -16.5t25.5 -26t9.5 -34.5q0 -30 -18.5 -47.5
t-33.5 -22.5v-1q9 -2 20 -7.5t20.5 -14.5t15.5 -22.5t6 -31.5q0 -37 -35 -61.5t-93 -24.5q-57 0 -91 24.5t-34 61.5zM511 210q0 -10 7.5 -16.5t16.5 -6.5t16 6.5t7 16.5t-7 17t-16 7t-16.5 -7t-7.5 -17zM507 89q0 -12 9 -19.5t20 -7.5q10 0 19 6.5t9 20.5q0 11 -7.5 19.5
t-20.5 8.5q-11 0 -20 -8.5t-9 -19.5z" />
    <glyph glyph-name="fiveeighths" unicode="&#x215d;" horiz-adv-x="722" 
d="M481 690q5 10 17 10h56q11 0 16.5 -8.5t0.5 -18.5l-345 -663q-2 -3 -5.5 -6.5t-11.5 -3.5h-55q-11 0 -16.5 8.5t-0.5 18.5zM152 394q-38 0 -62.5 13.5t-33.5 24.5q-7 7 -1 15l30 39q8 13 17 4q5 -5 13 -9q7 -4 16.5 -6.5t21.5 -2.5t23.5 7t11.5 21t-10.5 21.5t-27.5 7.5
h-72q-8 0 -12 5t-4 10v147q0 9 10 9h161q10 0 10 -9v-53q0 -9 -10 -9h-96v-29h29q54 0 84 -25.5t30 -73.5t-34.5 -77.5t-93.5 -29.5zM421 77q0 19 9 33t20 23.5t20.5 14.5t11.5 5v1q-7 3 -16 8.5t-17 14t-13.5 20.5t-5.5 27q0 19 9.5 34.5t25.5 26t37 16.5t44 6
q24 0 45.5 -6t37.5 -16.5t25.5 -26t9.5 -34.5q0 -30 -18.5 -47.5t-33.5 -22.5v-1q9 -2 20 -7.5t20.5 -14.5t15.5 -22.5t6 -31.5q0 -37 -35 -61.5t-93 -24.5q-57 0 -91 24.5t-34 61.5zM523 210q0 -10 7.5 -16.5t16.5 -6.5t16 6.5t7 16.5t-7 17t-16 7t-16.5 -7t-7.5 -17z
M519 89q0 -12 9 -19.5t20 -7.5q10 0 19 6.5t9 20.5q0 11 -7.5 19.5t-20.5 8.5q-11 0 -20 -8.5t-9 -19.5z" />
    <glyph glyph-name="seveneighths" unicode="&#x215e;" horiz-adv-x="690" 
d="M449 690q5 10 17 10h56q11 0 16.5 -8.5t0.5 -18.5l-345 -663q-2 -3 -5.5 -6.5t-11.5 -3.5h-55q-11 0 -16.5 8.5t-0.5 18.5zM69 404q-13 0 -13 9v5l108 208h-92q-10 0 -10 8v57q0 9 10 9h198q10 0 10 -9v-16l-127 -262q-5 -9 -16 -9h-68zM389 77q0 19 9 33t20 23.5
t20.5 14.5t11.5 5v1q-7 3 -16 8.5t-17 14t-13.5 20.5t-5.5 27q0 19 9.5 34.5t25.5 26t37 16.5t44 6q24 0 45.5 -6t37.5 -16.5t25.5 -26t9.5 -34.5q0 -30 -18.5 -47.5t-33.5 -22.5v-1q9 -2 20 -7.5t20.5 -14.5t15.5 -22.5t6 -31.5q0 -37 -35 -61.5t-93 -24.5q-57 0 -91 24.5
t-34 61.5zM491 210q0 -10 7.5 -16.5t16.5 -6.5t16 6.5t7 16.5t-7 17t-16 7t-16.5 -7t-7.5 -17zM487 89q0 -12 9 -19.5t20 -7.5q10 0 19 6.5t9 20.5q0 11 -7.5 19.5t-20.5 8.5q-11 0 -20 -8.5t-9 -19.5z" />
    <glyph glyph-name="partialdiff" unicode="&#x2202;" horiz-adv-x="593" 
d="M53 226q0 57 18.5 99t48 69.5t66 41t72.5 13.5q21 0 49.5 -6t48.5 -15q-8 40 -34.5 69.5t-58.5 49.5t-64 32t-50 18q-15 5 -18.5 13t-0.5 17l30 80q8 23 32 16q22 -7 56 -22t72.5 -40.5t77.5 -61t70 -83.5t50.5 -109t19.5 -137q0 -60 -16.5 -111.5t-48 -89t-78 -58.5
t-106.5 -21q-48 0 -91 18.5t-75 50.5t-51 75t-19 92zM193 231q0 -20 7.5 -38t21 -31.5t31.5 -21.5t38 -8q21 0 39 8t31.5 21.5t21 31.5t7.5 38t-7.5 38.5t-21 32t-31.5 21.5t-39 8q-20 0 -38 -8t-31.5 -21.5t-21 -32t-7.5 -38.5z" />
    <glyph glyph-name="Delta" unicode="&#x2206;" horiz-adv-x="740" 
d="M349 699q5 11 17 11h10q11 0 17 -11l304 -656q8 -17 2.5 -30t-22.5 -13h-604q-20 0 -30 10.5t1 34.5zM490 145l-121 260h-1l-116 -261z" />
    <glyph glyph-name="product" unicode="&#x220f;" horiz-adv-x="778" 
d="M89 681q0 8 5.5 13.5t13.5 5.5h562q8 0 13.5 -5.5t5.5 -13.5v-662q0 -8 -5.5 -13.5t-13.5 -5.5h-119q-8 0 -13.5 5.5t-5.5 13.5v534h-286v-534q0 -8 -5.5 -13.5t-13.5 -5.5h-119q-8 0 -13.5 5.5t-5.5 13.5v662z" />
    <glyph glyph-name="summation" unicode="&#x2211;" horiz-adv-x="570" 
d="M52 68l265 285l-265 287v41q0 8 5.5 13.5t13.5 5.5h414q8 0 13.5 -5.5t5.5 -13.5v-109q0 -8 -5.5 -13.5t-13.5 -5.5h-184l135 -124q5 -5 12 -14.5t7 -26.5v-69q0 -14 -7 -23t-12 -14l-135 -135h184q8 0 13.5 -5.5t5.5 -13.5v-109q0 -8 -5.5 -13.5t-13.5 -5.5h-414
q-8 0 -13.5 5.5t-5.5 13.5v49z" />
    <glyph glyph-name="minus" unicode="&#x2212;" 
d="M100 293q-8 0 -13.5 5.5t-5.5 13.5v70q0 8 5.5 13.5t13.5 5.5h401q8 0 13 -5.5t5 -13.5v-70q0 -8 -5 -13.5t-13 -5.5h-401z" />
    <glyph glyph-name="uni2215" unicode="&#x2215;" horiz-adv-x="120" 
d="M-68 10q-2 -3 -5.5 -6.5t-11.5 -3.5h-55q-11 0 -16.5 8.5t-0.5 18.5l344 663q5 10 17 10h56q11 0 16.5 -8.5t0.5 -18.5z" />
    <glyph glyph-name="uni2219" unicode="&#x2219;" horiz-adv-x="282" 
d="M139 149q-21 0 -40.5 8.5t-33.5 22.5t-22.5 33.5t-8.5 40.5q0 22 8.5 42t22.5 35t33.5 23.5t40.5 8.5q22 0 42 -8.5t35 -23.5t23.5 -35t8.5 -42q0 -21 -8.5 -40.5t-23.5 -33.5t-35 -22.5t-42 -8.5z" />
    <glyph glyph-name="radical" unicode="&#x221a;" horiz-adv-x="659" 
d="M20 374q-5 10 0.5 18t16.5 8h113q6 0 10.5 -3.5t6.5 -7.5l47 -106h6l185 406q2 4 6.5 7.5t10.5 3.5h205q19 0 19 -19v-89q0 -8 -5.5 -13.5t-13.5 -5.5h-122l-267 -572q-2 -5 -7.5 -8t-9.5 -3h-10q-4 0 -9.5 3t-7.5 8z" />
    <glyph glyph-name="infinity" unicode="&#x221e;" horiz-adv-x="598" 
d="M196 156q-29 0 -54.5 11t-44.5 30t-30 44.5t-11 54.5t11 54.5t30 44.5t44.5 30t54.5 11q30 0 56.5 -15t45.5 -35q20 20 46.5 35t56.5 15q29 0 55 -11t45 -30t30 -44.5t11 -54.5t-11 -54.5t-30 -44.5t-45 -30t-55 -11q-30 0 -56.5 14.5t-46.5 35.5q-19 -21 -45.5 -35.5
t-56.5 -14.5zM358 296q0 -16 11 -27t27 -11q17 0 28 11t11 27q0 17 -11 28t-28 11q-16 0 -27 -11t-11 -28zM201 258q17 0 28 11t11 27q0 17 -11 28t-28 11q-16 0 -27 -11t-11 -28q0 -16 11 -27t27 -11z" />
    </font>
</defs>
</svg>
