<?xml version="1.0" standalone="no"?>
<!DOCTYPE svg PUBLIC "-//W3C//DTD SVG 1.1//EN" "http://www.w3.org/Graphics/SVG/1.1/DTD/svg11.dtd" >
<svg xmlns="http://www.w3.org/2000/svg" xmlns:xlink="http://www.w3.org/1999/xlink" version="1.1">
<metadata>
Created by FontForge 20170731 at Wed Nov 25 18:24:28 2015
 By Aleksey,,,
Copyright (c) 2015 by Hannes von Doehren. All rights reserved.
</metadata>
<defs>
<font id="BrandonTextWeb-LightItalic" horiz-adv-x="600" >
  <font-face 
    font-family="BrandonTextWeb-LightItalic"
    font-weight="400"
    font-style="italic"
    font-stretch="normal"
    units-per-em="1000"
    panose-1="2 11 3 3 2 2 3 13 2 3"
    ascent="738"
    descent="-262"
    x-height="462"
    cap-height="700"
    bbox="-160.667 -263.769 1072 1026"
    underline-thickness="35"
    underline-position="-134"
    slope="-8"
    unicode-range="U+000D-FB04"
  />
<missing-glyph horiz-adv-x="599" 
d="M50 670q0 30 30 30h439q30 0 30 -30v-640q0 -30 -30 -30h-439q-30 0 -30 30v640zM262 314q0 -5 4.5 -8.5t9.5 -3.5h36q15 0 15 13v26q0 18 16.5 31.5t36 29t36 36t16.5 53.5q0 24 -9.5 44.5t-26.5 35.5t-39.5 23t-49.5 8q-33 0 -57 -10t-41 -21q-19 -13 -32 -30
q-3 -5 -4 -9.5t4 -8.5l22 -22q8 -6 17 0q5 4 12 11t17 14t23.5 11.5t31.5 4.5q30 0 45.5 -16t15.5 -36q0 -24 -15.5 -39t-34 -30t-34 -32.5t-15.5 -45.5v-29zM245 156q0 -20 14 -34t34 -14t34.5 14t14.5 34t-14.5 34t-34.5 14t-34 -14t-14 -34z" />
    <glyph glyph-name="uniFB00" unicode="ff" horiz-adv-x="628" 
d="M128 420h-66q-8 0 -10.5 5t-2.5 10l2 12q2 6 7 10.5t11 4.5h65l4 30q8 57 26.5 97t45.5 64.5t60 35.5t70 11q22 0 42 -4.5t37 -11.5t29.5 -15t20.5 -15q26 33 52.5 44.5t64.5 11.5q39 0 67.5 -14.5t42.5 -31.5q5 -5 3.5 -10.5t-4.5 -9.5l-11 -12q-10 -10 -20 0
t-29.5 22.5t-48.5 12.5q-54 0 -79.5 -37t-35.5 -106l-9 -62h150q16 0 13 -14l-3 -15q-2 -13 -16 -13h-149l-88 -643q-1 -7 -7 -11t-11 -4h-15q-6 0 -10 5t-3 10l89 643h-239l-89 -643q-1 -7 -6.5 -11t-12.5 -4h-13q-7 0 -10.5 5t-2.5 10zM417 462l9 61q3 19 8 45t14 46
q-6 6 -17.5 13.5t-26.5 13.5t-33 10.5t-37 4.5q-60 0 -98.5 -37.5t-51.5 -127.5l-4 -29h237z" />
    <glyph glyph-name="uniFB01" unicode="fi" horiz-adv-x="524" 
d="M53 -238q-7 0 -10.5 5t-2.5 10l89 643h-68q-9 0 -12 5t-1 13l2 9q1 6 6 10.5t11 4.5h67l8 55q15 103 65 148t122 45q27 0 50.5 -6.5t42 -16t31.5 -20t20 -17.5q7 -9 -1 -18l-12 -14q-7 -10 -19 -1q-8 6 -18 14.5t-23.5 16.5t-31 13.5t-39.5 5.5q-60 0 -95 -35t-46 -115
l-8 -55h270q7 0 10.5 -4.5t2.5 -10.5l-61 -432q-2 -15 -14 -15h-18q-5 0 -9 4.5t-3 10.5l56 405h-240l-89 -643q-1 -5 -5.5 -10t-9.5 -5h-17z" />
    <glyph glyph-name="uniFB02" unicode="fl" horiz-adv-x="558" 
d="M54 -238q-7 0 -10 5t-2 10l89 643h-70q-8 0 -11 5t-2 10l2 12q1 6 6 10.5t11 4.5h68l8 52q7 51 26 88t45.5 61t59 35.5t65.5 11.5q28 0 52 -7.5t42 -18t29.5 -20.5t14.5 -14l10 37q2 6 4.5 9.5t13.5 3.5h7q6 0 9 -4.5t2 -9.5l-96 -671q-1 -8 -6 -11.5t-10 -3.5h-15
q-6 0 -9.5 4.5t-2.5 10.5l82 585q-3 4 -12.5 15t-25.5 22.5t-38.5 20.5t-50.5 9q-26 0 -50 -9t-44.5 -28t-35 -47.5t-20.5 -68.5l-8 -52h149q15 0 12 -14l-3 -15q-2 -13 -16 -13h-148l-89 -643q-1 -5 -5.5 -10t-9.5 -5h-17z" />
    <glyph glyph-name="uniFB03" unicode="ffi" horiz-adv-x="807" 
d="M336 -238q-6 0 -10 5t-3 10l89 643h-239l-89 -643q-1 -7 -6.5 -11t-12.5 -4h-13q-7 0 -10.5 5t-2.5 10l89 643h-66q-8 0 -10.5 5t-2.5 10l2 12q2 6 7 10.5t11 4.5h64l4 29q8 57 27.5 97t48 65t64 36t74.5 11q51 0 82 -18t45 -33q26 33 60.5 47t72.5 14q27 0 51 -6.5
t42.5 -16t32 -20t20.5 -17.5q7 -9 -1 -18l-12 -14q-7 -10 -19 -1q-8 6 -18 14.5t-24 16.5t-31.5 13.5t-39.5 5.5q-60 0 -96 -37t-47 -123l-6 -45h270q7 0 10.5 -4.5t2.5 -10.5l-61 -432q-2 -15 -14 -15h-18q-5 0 -9 4.5t-3 10.5l56 405h-240l-89 -643q-1 -5 -5.5 -10
t-9.5 -5h-17zM418 462l7 51q4 26 11.5 52t16.5 46q-11 14 -38.5 29.5t-69.5 15.5q-66 0 -107.5 -38t-54.5 -128l-4 -28h239z" />
    <glyph glyph-name="uniFB04" unicode="ffl" horiz-adv-x="840" 
d="M337 -238q-6 0 -10 5t-3 10l89 643h-240l-89 -643q-1 -7 -6.5 -11t-12.5 -4h-13q-7 0 -10.5 5t-2.5 10l89 643h-66q-8 0 -10.5 5t-2.5 10l2 12q2 6 7 10.5t11 4.5h65l4 29q8 57 27 97t45.5 65t59 36t68.5 11q28 0 51 -5.5t41.5 -13.5t31.5 -17t21 -16q26 33 63 47.5
t75 14.5q28 0 52 -7.5t42 -18t29.5 -20.5t14.5 -14l10 37q2 6 4.5 9.5t13.5 3.5h7q6 0 9 -4.5t2 -9.5l-96 -671q-1 -8 -6 -11.5t-10 -3.5h-15q-6 0 -9.5 4.5t-2.5 10.5l82 585q-3 4 -12.5 15t-25.5 22.5t-38.5 20.5t-50.5 9q-57 0 -98.5 -40.5t-52.5 -112.5l-7 -52h149
q15 0 12 -14l-3 -15q-2 -13 -16 -13h-148l-89 -643q-1 -5 -5.5 -10t-9.5 -5h-16zM417 462l7 51q4 26 12.5 51.5t19.5 45.5q-6 6 -17.5 14t-27.5 15t-35 12t-40 5q-63 0 -101 -38t-51 -128l-4 -28h237z" />
    <glyph glyph-name="f_f_h.liga" unicode="ffh" horiz-adv-x="1123" 
d="M417 462l7 51q4 26 12.5 51.5t19.5 45.5q-6 6 -17.5 14t-27.5 15t-35 12t-40 5q-63 0 -101 -38t-51 -128l-4 -28h237zM678 0q-6 0 -9.5 4.5t-2.5 10.5l82 585q-3 4 -12.5 15t-25.5 22.5t-38.5 20.5t-50.5 9q-57 0 -98.5 -40.5t-52.5 -112.5l-7 -52h149q15 0 12 -14
l-3 -15q-2 -13 -16 -13h-148l-89 -643q-1 -5 -5.5 -10t-9.5 -5h-16q-6 0 -10 5t-3 10l89 643h-240l-89 -643q-1 -7 -6.5 -11t-12.5 -4h-13q-7 0 -10.5 5t-2.5 10l89 643h-66q-8 0 -10.5 5t-2.5 10l2 12q2 6 7 10.5t11 4.5h65l4 29q8 57 27 97t45.5 65t59 36t68.5 11
q28 0 51 -5.5t41.5 -13.5t31.5 -17t21 -16q26 33 63 47.5t75 14.5q28 0 52 -7.5t42 -18t29.5 -20.5t14.5 -14l10 37q2 6 4.5 9.5t13.5 3.5h5q5 0 9.5 -4.5t3.5 -9.5l-41 -284q5 6 17.5 17.5t32 23t45.5 20.5t58 9q75 0 106 -51t16 -155l-35 -251q-1 -6 -5.5 -10.5
t-10.5 -4.5h-15q-7 0 -10.5 4.5t-2.5 10.5l35 251q11 86 -10 124.5t-77 38.5q-33 0 -60 -12t-47 -26.5t-32 -27.5t-13 -15l-47 -333q-2 -15 -16 -15h-15z" />
    <glyph glyph-name="f_k.liga" unicode="fk" horiz-adv-x="764" 
d="M512 700q5 0 8.5 -4.5t2.5 -9.5l-59 -410l230 179q8 7 18 7h31q9 0 10 -6.5t-7 -12.5l-244 -191l189 -232q6 -7 2 -13.5t-11 -6.5h-18q-7 0 -11.5 0.5t-10.5 8.5l-183 230l-32 -224q-2 -15 -16 -15h-15q-6 0 -9.5 4.5t-2.5 10.5l82 585q-3 4 -12.5 15t-25.5 22.5
t-38.5 20.5t-50.5 9q-26 0 -50 -9t-44.5 -28t-35 -47.5t-20.5 -68.5l-8 -52h149q15 0 12 -14l-3 -15q-2 -13 -16 -13h-148l-89 -643q-1 -5 -5.5 -10t-9.5 -5h-17q-7 0 -10 5t-2 10l89 643h-70q-8 0 -11 5t-2 10l2 12q1 6 6 10.5t11 4.5h68l8 52q7 51 26 88t45.5 61t59 35.5
t65.5 11.5q28 0 52 -7.5t42 -18t29.5 -20.5t14.5 -14l10 37q2 6 4.5 9.5t13.5 3.5h7z" />
    <glyph glyph-name="f_j.liga" unicode="fj" horiz-adv-x="524" 
d="M414 420h-240l-89 -643q-1 -5 -5.5 -10t-9.5 -5h-17q-7 0 -10.5 5t-2.5 10l89 643h-68q-9 0 -12 5t-1 13l2 9q1 6 6 10.5t11 4.5h67l8 55q15 103 65 148t122 45q27 0 50.5 -6.5t42 -16t31.5 -20t20 -17.5q7 -9 -1 -18l-12 -14q-7 -10 -19 -1q-8 6 -18 14.5t-23.5 16.5
t-31 13.5t-39.5 5.5q-60 0 -95 -35t-46 -115l-8 -55h270q7 0 10.5 -4.5t2.5 -10.5l-73 -518q-6 -43 -17.5 -72t-29 -49t-40.5 -32.5t-52 -21.5q-18 -6 -22 8l-4 13q-2 6 1 13t12 9q41 10 70 36.5t37 86.5z" />
    <glyph glyph-name="f_f_j.liga" unicode="ffj" horiz-adv-x="807" 
d="M418 462l7 51q4 26 11.5 52t16.5 46q-11 14 -38.5 29.5t-69.5 15.5q-66 0 -107.5 -38t-54.5 -128l-4 -28h239zM697 420h-240l-89 -643q-1 -5 -5.5 -10t-9.5 -5h-17q-6 0 -10 5t-3 10l89 643h-239l-89 -643q-1 -7 -6.5 -11t-12.5 -4h-13q-7 0 -10.5 5t-2.5 10l89 643h-66
q-8 0 -10.5 5t-2.5 10l2 12q2 6 7 10.5t11 4.5h64l4 29q8 57 27.5 97t48 65t64 36t74.5 11q51 0 82 -18t45 -33q26 33 60.5 47t72.5 14q27 0 51 -6.5t42.5 -16t32 -20t20.5 -17.5q7 -9 -1 -18l-12 -14q-7 -10 -19 -1q-8 6 -18 14.5t-24 16.5t-31.5 13.5t-39.5 5.5
q-60 0 -96 -37t-47 -123l-6 -45h270q7 0 10.5 -4.5t2.5 -10.5l-73 -518q-6 -43 -17.5 -72t-29 -49t-41 -32.5t-52.5 -21.5q-18 -6 -22 8l-4 13q-2 6 1 13t12 9q41 10 70.5 36.5t37.5 86.5z" />
    <glyph glyph-name="f_b.liga" unicode="fb" horiz-adv-x="852" 
d="M511 700q5 0 8.5 -4.5t2.5 -9.5l-38 -259q17 12 39 22q18 8 43.5 15.5t54.5 7.5q36 0 67 -16t53.5 -44t35.5 -66.5t13 -83.5q0 -55 -18 -105t-48.5 -87.5t-72 -59.5t-87.5 -22q-30 0 -53.5 8.5t-40 19.5t-26 23t-12.5 18l-10 -42q-4 -15 -18 -15h-8q-6 0 -9.5 4.5
t-2.5 10.5l82 585q-3 4 -12.5 15t-25.5 22.5t-38.5 20.5t-50.5 9q-26 0 -50 -9t-44.5 -28t-35 -47.5t-20.5 -68.5l-8 -52h149q15 0 12 -14l-3 -15q-2 -13 -16 -13h-148l-89 -643q-1 -5 -5.5 -10t-9.5 -5h-17q-7 0 -10 5t-2 10l89 643h-70q-8 0 -11 5t-2 10l2 12q1 6 6 10.5
t11 4.5h68l8 52q7 51 26 88t45.5 61t59 35.5t65.5 11.5q28 0 52 -7.5t42 -18t29.5 -20.5t14.5 -14l10 37q2 6 4 9.5t12 3.5h8zM441 112q1 -2 8.5 -15t22.5 -27.5t38 -26.5t56 -12q36 0 68 19t57 50.5t39.5 73.5t14.5 87q0 35 -10 65.5t-28 53.5t-43.5 36t-56.5 13
q-27 0 -50.5 -7.5t-40.5 -16.5q-20 -11 -37 -24z" />
    <glyph glyph-name="f_f_k.liga" unicode="ffk" horiz-adv-x="1046" 
d="M417 462l7 51q4 26 12.5 51.5t19.5 45.5q-6 6 -17.5 14t-27.5 15t-35 12t-40 5q-63 0 -101 -38t-51 -128l-4 -28h237zM678 0q-6 0 -9.5 4.5t-2.5 10.5l82 585q-3 4 -12.5 15t-25.5 22.5t-38.5 20.5t-50.5 9q-57 0 -98.5 -40.5t-52.5 -112.5l-7 -52h149q15 0 12 -14
l-3 -15q-2 -13 -16 -13h-148l-89 -643q-1 -5 -5.5 -10t-9.5 -5h-16q-6 0 -10 5t-3 10l89 643h-240l-89 -643q-1 -7 -6.5 -11t-12.5 -4h-13q-7 0 -10.5 5t-2.5 10l89 643h-66q-8 0 -10.5 5t-2.5 10l2 12q2 6 7 10.5t11 4.5h65l4 29q8 57 27 97t45.5 65t59 36t68.5 11
q28 0 51 -5.5t41.5 -13.5t31.5 -17t21 -16q26 33 63 47.5t75 14.5q28 0 52 -7.5t42 -18t29.5 -20.5t14.5 -14l10 37q2 6 4.5 9.5t13.5 3.5h5q5 0 9.5 -4.5t3.5 -9.5l-59 -410l230 179q8 7 18 7h31q9 0 10 -6.5t-7 -12.5l-244 -191l189 -232q6 -7 2 -13.5t-11 -6.5h-18
q-7 0 -11.5 0.5t-10.5 8.5l-183 230l-32 -224q-2 -15 -16 -15h-15z" />
    <glyph glyph-name="f_h.liga" unicode="fh" horiz-adv-x="841" 
d="M510 700q7 0 10.5 -4.5t2.5 -9.5l-41 -284q5 6 17.5 17.5t32 23t45.5 20.5t58 9q75 0 106 -51t16 -155l-35 -251q-1 -6 -5.5 -10.5t-10.5 -4.5h-15q-7 0 -10.5 4.5t-2.5 10.5l35 251q11 86 -10 124.5t-77 38.5q-33 0 -60 -12t-47 -26.5t-32 -27.5t-13 -15l-47 -333
q-2 -15 -16 -15h-15q-6 0 -9.5 4.5t-2.5 10.5l82 585q-3 4 -12.5 15t-25.5 22.5t-38.5 20.5t-50.5 9q-26 0 -50 -9t-44.5 -28t-35 -47.5t-20.5 -68.5l-8 -52h149q15 0 12 -14l-3 -15q-2 -13 -16 -13h-148l-89 -643q-1 -5 -5.5 -10t-9.5 -5h-17q-7 0 -10 5t-2 10l89 643h-70
q-8 0 -11 5t-2 10l2 12q1 6 6 10.5t11 4.5h68l8 52q7 51 26 88t45.5 61t59 35.5t65.5 11.5q28 0 52 -7.5t42 -18t29.5 -20.5t14.5 -14l10 37q2 6 4.5 9.5t13.5 3.5h5z" />
    <glyph glyph-name="f_f_b.liga" unicode="ffb" horiz-adv-x="1135" 
d="M792 700q5 0 9 -4.5t3 -9.5l-38 -259q17 12 39 22q18 8 43.5 15.5t54.5 7.5q36 0 67 -16t53.5 -44t35.5 -66.5t13 -83.5q0 -55 -18 -105t-48.5 -87.5t-72 -59.5t-87.5 -22q-30 0 -53.5 8.5t-40 19.5t-26 23t-12.5 18l-10 -42q-4 -15 -18 -15h-8q-6 0 -9.5 4.5t-2.5 10.5
l82 585q-3 4 -12.5 15t-25.5 22.5t-38.5 20.5t-50.5 9q-57 0 -98.5 -40.5t-52.5 -112.5l-7 -52h149q15 0 12 -14l-3 -15q-2 -13 -16 -13h-148l-89 -643q-1 -5 -5.5 -10t-9.5 -5h-16q-6 0 -10 5t-3 10l89 643h-240l-89 -643q-1 -7 -6.5 -11t-12.5 -4h-13q-7 0 -10.5 5
t-2.5 10l89 643h-66q-8 0 -10.5 5t-2.5 10l2 12q2 6 7 10.5t11 4.5h65l4 29q8 57 27 97t45.5 65t59 36t68.5 11q28 0 51 -5.5t41.5 -13.5t31.5 -17t21 -16q26 33 63 47.5t75 14.5q28 0 52 -7.5t42 -18t29.5 -20.5t14.5 -14l10 37q2 6 4.5 9.5t13.5 3.5h5zM417 462l7 51
q4 26 12.5 51.5t19.5 45.5q-6 6 -17.5 14t-27.5 15t-35 12t-40 5q-63 0 -101 -38t-51 -128l-4 -28h237zM723 112q1 -2 8.5 -15t22.5 -27.5t38 -26.5t56 -12q36 0 68 19t57 50.5t39.5 73.5t14.5 87q0 35 -10 65.5t-28 53.5t-43.5 36t-56.5 13q-27 0 -50.5 -7.5t-40.5 -16.5
q-20 -11 -37 -24z" />
    <glyph glyph-name=".notdef" horiz-adv-x="599" 
d="M50 670q0 30 30 30h439q30 0 30 -30v-640q0 -30 -30 -30h-439q-30 0 -30 30v640zM262 314q0 -5 4.5 -8.5t9.5 -3.5h36q15 0 15 13v26q0 18 16.5 31.5t36 29t36 36t16.5 53.5q0 24 -9.5 44.5t-26.5 35.5t-39.5 23t-49.5 8q-33 0 -57 -10t-41 -21q-19 -13 -32 -30
q-3 -5 -4 -9.5t4 -8.5l22 -22q8 -6 17 0q5 4 12 11t17 14t23.5 11.5t31.5 4.5q30 0 45.5 -16t15.5 -36q0 -24 -15.5 -39t-34 -30t-34 -32.5t-15.5 -45.5v-29zM245 156q0 -20 14 -34t34 -14t34.5 14t14.5 34t-14.5 34t-34.5 14t-34 -14t-14 -34z" />
    <glyph glyph-name="glyph1" horiz-adv-x="0" 
 />
    <glyph glyph-name="glyph1" horiz-adv-x="0" 
 />
    <glyph glyph-name="uni000D" unicode="&#xd;" horiz-adv-x="0" 
 />
    <glyph glyph-name="space" unicode=" " horiz-adv-x="240" 
 />
    <glyph glyph-name="exclam" unicode="!" horiz-adv-x="250" 
d="M119 269q-5 0 -8.5 3.5t-2.5 8.5l47 406q1 8 6 10.5t10 2.5h26q13 0 11 -13l-67 -406q-2 -5 -5.5 -8.5t-8.5 -3.5h-8zM50 25q0 20 14 32.5t31 12.5q15 0 24 -10t9 -25q0 -19 -13 -32t-31 -13q-15 0 -24.5 10.5t-9.5 24.5z" />
    <glyph glyph-name="quotedbl" unicode="&#x22;" horiz-adv-x="314" 
d="M244 501q-8 0 -7 11l26 175q2 13 14 13h22q12 0 9 -16l-42 -172q-2 -11 -11 -11h-11zM109 501q-8 0 -7 11l25 175q2 13 15 13h22q12 0 9 -16l-42 -172q-4 -11 -11 -11h-11z" />
    <glyph glyph-name="numbersign" unicode="#" horiz-adv-x="525" 
d="M130 206h-74q-11 0 -9 13l1 7q2 11 13 11h77l53 182h-78q-13 0 -11 13l1 6q2 13 14 13h83l68 238q3 11 14 11h6q6 0 8.5 -4.5t0.5 -10.5l-67 -234h145l68 238q3 11 14 11h5q6 0 8.5 -4.5t0.5 -10.5l-66 -234h73q12 0 10 -13l-1 -6q-2 -13 -13 -13h-77l-53 -182h77
q13 0 11 -13l-1 -7q-2 -11 -13 -11h-83l-56 -195q-4 -11 -14 -11h-6q-14 0 -9 15l55 191h-146l-55 -195q-4 -11 -14 -11h-6q-14 0 -9 15zM314 237l52 182h-144l-53 -182h145z" />
    <glyph glyph-name="dollar" unicode="$" 
d="M86 72q-3 4 -5.5 10t4.5 12l14 13q11 10 21 -3q6 -7 16 -18t26.5 -22t39.5 -20t54 -11l42 300q-71 27 -113 71t-42 112q0 29 12 62t37.5 61t65 47.5t93.5 22.5l5 37q1 7 5.5 10t9.5 3h4q13 0 11 -13l-6 -38q30 -2 54.5 -10t41.5 -17q20 -11 36 -23q2 -2 4 -6t-2 -9
l-17 -24q-5 -9 -16 0q-8 8 -35 24.5t-72 21.5q-10 -74 -20.5 -149t-21.5 -149q72 -30 114 -71t42 -108q0 -43 -18 -78.5t-47 -61t-67 -41t-78 -17.5l-15 -108q-2 -12 -15 -12q-6 0 -10.5 2.5t-3.5 9.5l16 108q-42 4 -71.5 15.5t-49 25t-30 25.5t-13.5 16zM345 666
q-41 -2 -70.5 -17t-48 -36.5t-27.5 -46t-9 -46.5q0 -55 31 -87t84 -54zM284 33q30 2 58 14t49.5 32t34.5 47t13 58q0 49 -30.5 81t-83.5 55z" />
    <glyph glyph-name="percent" unicode="%" horiz-adv-x="628" 
d="M195 434q-23 0 -42.5 9.5t-33.5 25.5t-22 37.5t-8 46.5q0 33 12 61.5t32.5 49.5t46.5 33.5t54 12.5q23 0 42.5 -9.5t33.5 -25.5t22 -37.5t8 -46.5q0 -33 -12 -61.5t-32.5 -49.5t-46.5 -33.5t-54 -12.5zM517 693q3 5 7 6t7 1h18q6 0 8 -4t-2 -10l-433 -676q-5 -8 -9.5 -9
t-7.5 -1h-17q-6 0 -8 4t2 10zM200 471q20 0 38 9t32 25t22.5 36.5t8.5 44.5q0 35 -20 60.5t-52 25.5q-20 0 -38.5 -9t-32.5 -24.5t-22 -36.5t-8 -44q0 -36 20 -61.5t52 -25.5zM309 109q0 32 12 60.5t32 50t46 34t55 12.5q23 0 42 -9.5t33 -26t22 -38t8 -46.5
q0 -32 -12 -60.5t-32 -50t-46 -34t-54 -12.5q-24 0 -43.5 9.5t-33.5 26t-21.5 38t-7.5 46.5zM347 113q0 -36 20.5 -61t52.5 -25q19 0 37.5 9t32.5 24.5t22.5 36t8.5 44.5q0 35 -20.5 60.5t-52.5 25.5q-20 0 -38 -9t-32 -24.5t-22.5 -36.5t-8.5 -44z" />
    <glyph glyph-name="ampersand" unicode="&#x26;" horiz-adv-x="610" 
d="M51 147q0 46 15 81.5t38.5 63.5t52.5 48.5t57 36.5l-18 23q-22 29 -35.5 59.5t-13.5 73.5q0 37 13 69.5t36.5 56.5t56 37.5t72.5 13.5q32 0 56 -11t40 -29t24 -41.5t8 -48.5q0 -39 -16.5 -70.5t-42.5 -58t-58 -47.5t-62 -38l149 -199q18 20 33 47t26.5 57t18 61t6.5 59
q0 9 8 9h22q7 0 8.5 -3t1.5 -8q0 -60 -24 -126.5t-73 -128.5l77 -101q5 -5 7.5 -12t-4.5 -12l-16 -12q-8 -6 -12.5 -4t-7.5 6l-73 99q-29 -30 -63 -54q-29 -20 -69 -37t-85 -17q-37 0 -65.5 12.5t-48 34.5t-29.5 50t-10 60zM251 397q27 15 54.5 33t50 39.5t37 47.5t14.5 57
q0 18 -5 35.5t-16 31t-28 22t-41 8.5q-27 0 -50.5 -11.5t-41 -31t-27.5 -44t-10 -50.5q0 -30 11.5 -57.5t29.5 -51.5zM95 153q0 -26 8.5 -48.5t24 -39t36.5 -26t46 -9.5q38 0 72 15.5t60 34.5q30 22 54 51l-159 216q-25 -15 -50.5 -33t-45.5 -41.5t-33 -53t-13 -66.5z" />
    <glyph glyph-name="quotesingle" unicode="'" horiz-adv-x="178" 
d="M108 501q-8 0 -7 11l26 175q2 13 14 13h22q12 0 9 -16l-42 -172q-4 -11 -11 -11h-11v0z" />
    <glyph glyph-name="parenleft" unicode="(" horiz-adv-x="327" 
d="M61 207q0 139 26 234t66.5 154t90 85.5t97.5 29.5q11 0 11 -9l-1 -15q0 -5 -3 -8.5t-6 -3.5q-54 -8 -97.5 -40t-74.5 -90t-48 -141.5t-17 -194.5q0 -119 36.5 -179t99.5 -70q9 -2 6 -12l-4 -17q-1 -8 -12 -8q-33 2 -63.5 18t-54 49.5t-38 87t-14.5 130.5z" />
    <glyph glyph-name="parenright" unicode=")" horiz-adv-x="326" 
d="M-5 -40q109 16 172.5 129t63.5 334q0 118 -36 179.5t-99 71.5q-11 0 -7 13l3 14q1 9 14 9q32 -2 62.5 -18t54 -50t37.5 -88t14 -131q0 -139 -25.5 -234t-65.5 -153.5t-89.5 -85t-97.5 -28.5q-12 0 -12 8l1 18q0 10 10 12z" />
    <glyph glyph-name="asterisk" unicode="*" horiz-adv-x="390" 
d="M208 410q-13 0 -11 13l15 103l-83 -55q-5 -3 -10 -2t-7 6l-3 8q-2 5 -1 9.5t6 7.5l88 55l-73 55q-3 2 -4 7.5t3 9.5l7 8q3 4 7 5.5t9 -1.5l69 -55l14 103q1 5 5 9t9 4h8q13 0 11 -13l-16 -103l84 56q5 4 10 2.5t7 -6.5l3 -8q4 -11 -6 -17l-88 -56l73 -56q4 -2 4 -7t-2 -9
l-6 -9q-3 -5 -8.5 -6t-9.5 2l-69 56l-13 -103q-2 -13 -15 -13h-7v0z" />
    <glyph glyph-name="plus" unicode="+" 
d="M286 326h-153q-13 0 -11 13l3 16q2 13 14 13h153l24 172q2 12 14 12h16q13 0 11 -12l-24 -172h152q13 0 11 -13l-3 -16q-2 -13 -14 -13h-152l-24 -171q-2 -13 -14 -13h-17q-5 0 -8 4t-2 9z" />
    <glyph glyph-name="comma" unicode="," horiz-adv-x="223" 
d="M30 25q0 19 14 32.5t34 13.5q25 0 38 -22.5t13 -54.5q0 -47 -23.5 -89.5t-60.5 -74.5q-7 -6 -13 0l-10 10q-5 5 -3 8t6 7q25 25 46 55.5t21 68.5q0 15 -5 25q-11 -11 -26 -11q-14 0 -22.5 9t-8.5 23z" />
    <glyph glyph-name="hyphen" unicode="-" horiz-adv-x="376" 
d="M80 231q-12 0 -10 13l1 11q2 13 14 13h200q13 0 11 -13l-1 -11q-2 -13 -15 -13h-200v0z" />
    <glyph glyph-name="period" unicode="." horiz-adv-x="216" 
d="M29 29q0 23 16 37.5t37 14.5q17 0 27 -11.5t10 -29.5q0 -21 -15 -36t-36 -15q-17 0 -28 11.5t-11 28.5z" />
    <glyph glyph-name="slash" unicode="/" horiz-adv-x="355" 
d="M313 692q3 8 13 8h16q16 0 9 -14l-291 -677q-2 -5 -6 -7t-7 -2h-15q-6 0 -9 3.5t0 10.5z" />
    <glyph glyph-name="zero" unicode="0" horiz-adv-x="618" 
d="M269 -10q-91 0 -138 72.5t-47 196.5q0 101 20 184t57.5 142.5t90 92t118.5 32.5q45 0 79.5 -19t57.5 -54t35 -85t12 -112q0 -101 -20 -184t-56.5 -142t-89.5 -91.5t-119 -32.5zM275 32q54 0 97.5 29t73.5 82.5t46 128t16 165.5q0 106 -36.5 167.5t-107.5 61.5
q-55 0 -98.5 -29.5t-73.5 -82.5t-46 -127.5t-16 -165.5q0 -107 36.5 -168t108.5 -61z" />
    <glyph glyph-name="one" unicode="1" horiz-adv-x="328" 
d="M219 623h-1l-115 -95q-9 -6 -15 1l-13 18q-6 8 3 16l157 131q6 6 18 6h10q4 0 7 -3.5t2 -8.5l-95 -675q-2 -13 -16 -13h-20q-5 0 -9 4t-3 9z" />
    <glyph glyph-name="two" unicode="2" horiz-adv-x="518" 
d="M94 42h301q5 0 9 -4t3 -9l-3 -16q-1 -5 -5 -9t-9 -4h-361q-6 0 -9 3.5t-3 8.5l1 9q1 10 8 17l274 267q64 61 98 113.5t34 111.5q0 25 -7 49.5t-23 43t-41 30t-61 11.5q-29 0 -53 -11t-43 -25t-32 -27.5t-18 -19.5q-10 -12 -19 -4l-16 12q-9 7 1 19q15 18 34 36t42.5 32.5
t50.5 24t58 9.5q45 0 78.5 -14t55 -38t32.5 -55t11 -65q0 -40 -11.5 -74t-32 -65.5t-48 -61.5t-59.5 -61l-237 -233v-1z" />
    <glyph glyph-name="three" unicode="3" horiz-adv-x="537" 
d="M37 87q-4 9 3 14l18 12q10 7 17 -5q4 -8 13.5 -20.5t26 -25.5t41.5 -22t61 -9q37 0 70.5 12.5t58 35.5t39 54.5t14.5 70.5q0 32 -12.5 56.5t-33 41t-45.5 25t-49 8.5h-87q-9 0 -11 3t-1 8l3 21q1 12 16 12h82q30 0 60 11.5t54 32.5t39.5 51.5t15.5 68.5q0 55 -32.5 88.5
t-83.5 33.5q-32 0 -58.5 -10t-46.5 -23t-33 -26l-18 -18q-8 -8 -16 0l-14 15q-4 3 -3.5 8t4.5 9q11 12 29.5 28t42.5 29.5t53.5 23t63.5 9.5q36 0 66 -11.5t51 -32t33 -49.5t12 -64q0 -36 -11 -67.5t-29 -56t-41 -43t-48 -29.5v-2q18 -7 35.5 -20.5t31 -32.5t22 -43t8.5 -51
q0 -45 -17.5 -84.5t-48.5 -69.5t-75 -47t-96 -17q-42 0 -72.5 11.5t-51 27t-32.5 32t-18 26.5z" />
    <glyph glyph-name="four" unicode="4" horiz-adv-x="581" 
d="M36 161q-17 0 -15 12l1 11q1 10 8 18l437 500q7 8 17 8h7q4 0 6.5 -2.5t1.5 -10.5l-69 -495h71q13 0 11 -13l-2 -15q-1 -5 -5 -9t-9 -4h-72l-21 -148q-2 -13 -14 -13h-21q-8 0 -9.5 4.5t-0.5 9.5l21 147h-343zM85 202h301l61 417h-2l-360 -415v-2z" />
    <glyph glyph-name="five" unicode="5" horiz-adv-x="543" 
d="M48 87q-4 9 3 14l20 12q9 7 16 -5q5 -8 14 -20.5t25.5 -25.5t41 -22t60.5 -9q42 0 79 18.5t64 49t42.5 71.5t15.5 86q0 63 -36 102.5t-111 39.5h-151q-10 0 -14 6.5t-3 14.5l37 268q2 13 16 13h289q5 0 8 -4t2 -9l-2 -16q-2 -14 -14 -14h-260l-31 -216h129
q94 0 142 -47.5t48 -136.5q0 -54 -20 -102.5t-55 -85t-81.5 -58t-98.5 -21.5q-42 0 -72.5 11.5t-51.5 27t-33 32t-18 26.5z" />
    <glyph glyph-name="six" unicode="6" horiz-adv-x="552" 
d="M68 224q0 81 20.5 146.5t54 117.5t74.5 91t82.5 67t78 46t60.5 28q11 3 15 -11l4 -12q5 -13 -13 -19q-21 -8 -63.5 -29.5t-89 -58t-89 -89t-64.5 -122.5h1q7 9 23 21.5t39 24t52.5 20t63.5 8.5q36 0 67.5 -14t55 -39t37.5 -61t14 -79q0 -56 -20 -105t-54 -86t-77.5 -58
t-91.5 -21q-47 0 -80.5 18.5t-56 50t-33 74.5t-10.5 91zM254 31q36 0 70.5 18t61.5 48t43 70t16 85q0 34 -10.5 63t-28.5 50t-43 33t-54 12q-40 0 -74 -15.5t-58.5 -34.5t-39 -35.5t-15.5 -17.5q-3 -10 -5 -21q-5 -23 -5 -57q0 -38 8.5 -74t25.5 -63.5t44 -44t64 -16.5z" />
    <glyph glyph-name="seven" unicode="7" horiz-adv-x="466" 
d="M431 657h-332q-7 0 -10.5 3t-1.5 13l2 15q1 7 5.5 9.5t10.5 2.5h374q8 0 10.5 -4.5t2.5 -9.5q0 -3 -0.5 -6t-5.5 -11l-358 -657q-3 -5 -6 -8.5t-10 -3.5h-28q-8 0 -7.5 5.5t2.5 10.5l352 639v2z" />
    <glyph glyph-name="eight" unicode="8" horiz-adv-x="571" 
d="M61 156q0 41 14.5 74.5t37.5 59t51.5 42.5t57.5 25q0 1 1 2q-20 7 -37.5 20.5t-30.5 32.5t-21 42t-8 49q0 41 14 78.5t41.5 66t68 45.5t92.5 17q41 0 73 -13t53.5 -35t33 -51.5t11.5 -62.5q0 -37 -12.5 -68t-33 -55t-46 -40.5t-52.5 -25.5v-2q22 -6 42.5 -19.5t36 -33
t25 -44t9.5 -54.5q0 -100 -62 -158t-176 -58q-83 0 -133 44t-50 122zM299 384q77 6 122 48t45 111q0 25 -8.5 48.5t-24.5 41t-40.5 28t-55.5 10.5q-38 0 -68.5 -14t-52 -36.5t-33.5 -51.5t-12 -59q0 -56 33.5 -88.5t94.5 -37.5zM106 163q0 -34 11 -59.5t30.5 -42t45 -24.5
t55.5 -8q38 0 71.5 11t59 32.5t40.5 53t15 72.5q0 51 -37.5 90t-104.5 46q-42 -4 -76 -19t-58.5 -38t-38 -52.5t-13.5 -61.5z" />
    <glyph glyph-name="nine" unicode="9" horiz-adv-x="552" 
d="M114 5q-3 8 1 12.5t12 7.5q14 5 38 16t53 28.5t61 42t61.5 56t53.5 70.5t39 86h-1q-7 -9 -23 -21.5t-39 -24.5t-52.5 -20.5t-63.5 -8.5q-36 0 -67.5 14t-55 39.5t-37.5 61t-14 79.5q0 55 20.5 104t54.5 85t77.5 57t90.5 21q46 0 80 -18t56.5 -49t33 -73.5t10.5 -90.5
q0 -81 -20.5 -146.5t-54 -117.5t-74.5 -91t-82.5 -67.5t-78 -46.5t-60.5 -28q-11 -3 -14 8zM262 293q40 0 74 15.5t58.5 34.5t39 35t15.5 18q2 9 5 21q2 10 3.5 24.5t1.5 32.5q0 38 -8.5 73.5t-25.5 62.5t-44 43t-64 16q-36 0 -70.5 -17.5t-61.5 -47t-43 -69.5t-16 -85
q0 -34 10.5 -63t28.5 -50t43 -32.5t54 -11.5z" />
    <glyph glyph-name="colon" unicode=":" horiz-adv-x="241" 
d="M136 380q-17 0 -29 12.5t-12 29.5q0 21 16.5 35.5t36.5 14.5q17 0 27.5 -11t10.5 -27q0 -23 -15 -38.5t-35 -15.5zM41 29q0 23 16 37.5t36 14.5q17 0 27 -11.5t10 -29.5q0 -21 -14.5 -36t-35.5 -15q-17 0 -28 11.5t-11 28.5z" />
    <glyph glyph-name="semicolon" unicode=";" horiz-adv-x="261" 
d="M142 380q-18 0 -29 12.5t-11 27.5q0 23 16 37.5t36 14.5q17 0 27.5 -11t10.5 -27q0 -23 -15 -38.5t-35 -15.5zM46 25q0 19 14 32.5t34 13.5q25 0 38 -22.5t13 -54.5q0 -47 -23.5 -89.5t-60.5 -74.5q-7 -6 -13 0l-10 10q-5 5 -3 8t6 7q25 25 46 55.5t21 68.5q0 15 -5 25
q-11 -11 -26 -11q-14 0 -22.5 9t-8.5 23z" />
    <glyph glyph-name="less" unicode="&#x3c;" 
d="M118 215q-8 7 -8 13v2q0 8 12 16l350 224q6 4 11 1.5t4 -11.5l-2 -26q0 -3 -2 -6.5t-9 -8.5l-300 -191l247 -187q5 -4 6 -9t0 -8l-3 -16q-2 -9 -7.5 -11.5t-11.5 1.5l-287 217v0z" />
    <glyph glyph-name="equal" unicode="=" 
d="M170 366q-8 0 -10 4t-1 9l2 17q1 5 4 9t11 4h281q5 0 8 -4t2 -9l-2 -17q-2 -13 -14 -13h-281zM140 158q-8 0 -9.5 4t-0.5 9l2 17q1 5 3.5 9t10.5 4h281q13 0 11 -13l-2 -17q-2 -13 -15 -13h-281z" />
    <glyph glyph-name="greater" unicode="&#x3e;" 
d="M114 -2q-6 -4 -11.5 -1.5t-4.5 11.5l3 26q2 10 10 15l299 184l-246 192q-8 5 -6 16l3 19q2 9 8 12t12 -2l285 -224q8 -7 8 -15v-1q0 -8 -12 -15l-348 -217v0z" />
    <glyph glyph-name="question" unicode="?" horiz-adv-x="424" 
d="M180 273q-13 0 -12 14l8 58q4 29 21 51t43 41q20 15 40.5 30t37 32t27 37.5t10.5 46.5q0 15 -5.5 30.5t-16.5 28t-27 20t-38 7.5q-29 0 -52 -8.5t-39.5 -20t-26.5 -23t-14 -17.5q-2 -4 -6 -5.5t-11 3.5l-14 10q-8 5 -6 9.5t5 9.5q15 23 40 41q20 16 52 29t77 13
q30 0 54 -10t40.5 -26.5t25 -38t8.5 -45.5q0 -37 -14.5 -65t-36 -50t-45 -39t-41.5 -31q-41 -32 -45 -61l-8 -57q-2 -14 -14 -14h-17zM119 25q0 20 13.5 32.5t30.5 12.5q15 0 25 -10t10 -25q0 -19 -14 -32t-32 -13q-14 0 -23.5 10.5t-9.5 24.5z" />
    <glyph glyph-name="at" unicode="@" horiz-adv-x="915" 
d="M548 99q-7 -10 -20 -23.5t-31 -26t-41 -21t-49 -8.5q-32 0 -57.5 13t-43.5 36.5t-28 55.5t-10 70q0 56 17.5 101t47 77t67 49.5t77.5 17.5q24 0 42.5 -5.5t31 -13t19.5 -14.5t9 -10l6 21q2 6 4.5 9t10.5 3h10q13 0 11 -13l-36 -251q-8 -57 7.5 -83t50.5 -26
q43 0 77.5 24.5t58.5 66.5t37 98t13 118q0 67 -18.5 124t-55 98t-91.5 64t-128 23q-97 0 -178.5 -38.5t-140 -106.5t-91 -162.5t-32.5 -205.5q0 -60 14 -113.5t40 -98t62 -79t80 -57.5q7 -3 7.5 -6t-3.5 -10l-9 -16q-6 -10 -15 -6q-48 24 -88 62t-68.5 87t-44 107.5
t-15.5 124.5q0 118 35.5 219.5t99.5 176t154 117t199 42.5q80 0 141 -25.5t102.5 -71t62.5 -108t21 -137.5q0 -36 -5 -75.5t-16.5 -78t-29 -74t-43.5 -62t-60.5 -42.5t-78.5 -16t-64 23t-24 56zM313 201q0 -62 27.5 -100.5t75.5 -38.5q28 0 50 11.5t37 27t24.5 30.5t12.5 23
l27 189q0 1 -5 10t-16 19.5t-29 18.5t-43 8q-31 0 -60 -14t-51.5 -39.5t-36 -62.5t-13.5 -82z" />
    <glyph glyph-name="A" unicode="A" horiz-adv-x="605" 
d="M-19 0q-12 0 -5 14l370 689q3 7 13 7h3q4 0 7 -1t5 -6l182 -691q2 -5 -0.5 -8.5t-10.5 -3.5h-26q-7 0 -9.5 3t-3.5 6l-46 184h-338l-96 -184q-2 -3 -5.5 -6t-10.5 -3h-29zM449 232l-96 398h-3l-205 -398h304z" />
    <glyph glyph-name="B" unicode="B" horiz-adv-x="583" 
d="M407 355q38 -15 66 -50.5t28 -89.5q0 -49 -17.5 -89t-47.5 -68t-71.5 -43t-89.5 -15h-201q-13 0 -11 13l95 674q1 5 5 9t9 4h193q75 0 119 -42.5t44 -112.5q0 -35 -10 -65t-26.5 -54t-38.5 -42t-46 -28v-1zM317 376q35 0 64.5 12.5t51 34.5t33.5 52t12 65q0 54 -31.5 85
t-87.5 31h-159l-39 -280h156zM283 42q34 0 64.5 12t53.5 33.5t36 52.5t13 70q0 57 -37.5 90t-99.5 33h-159l-41 -291h170z" />
    <glyph glyph-name="C" unicode="C" horiz-adv-x="656" 
d="M65 301q0 86 30.5 161t82.5 130t121 86.5t145 31.5q69 0 119 -24t88 -69q8 -9 -1 -18l-17 -15q-9 -7 -17 1q-32 38 -77.5 59t-99.5 21q-64 0 -122.5 -28.5t-103 -77.5t-71 -114.5t-26.5 -138.5q0 -56 17 -104.5t48 -84.5t74 -57t95 -21q58 0 106.5 24t88.5 60q10 8 16 2
l19 -21q7 -8 -2 -17q-54 -49 -113 -73t-119 -24q-61 0 -112.5 24.5t-89 66.5t-58.5 98.5t-21 121.5z" />
    <glyph glyph-name="D" unicode="D" horiz-adv-x="683" 
d="M158 687q2 13 13 13h193q57 0 106.5 -24t86 -65.5t57.5 -96.5t21 -118q0 -82 -30 -154t-81 -126t-118 -85t-140 -31h-193q-5 0 -8 4t-2 9zM263 43q64 0 122.5 27t103 74t70.5 111.5t26 138.5q0 55 -17 103.5t-48 83.5t-74.5 55.5t-96.5 20.5h-149l-86 -614h149z" />
    <glyph glyph-name="E" unicode="E" horiz-adv-x="538" 
d="M158 687q1 5 5 9t9 4h360q13 0 11 -13l-2 -17q-2 -13 -15 -13h-324l-39 -276h280q13 0 11 -13l-2 -17q-2 -13 -15 -13h-280l-42 -296h325q13 0 11 -13l-3 -16q-2 -13 -14 -13h-360q-13 0 -11 13z" />
    <glyph glyph-name="F" unicode="F" horiz-adv-x="522" 
d="M158 687q1 5 5 9t9 4h360q13 0 11 -13l-2 -17q-2 -13 -15 -13h-324l-43 -304h284q13 0 11 -13l-2 -17q-2 -13 -15 -13h-284l-43 -297q-3 -13 -15 -13h-21q-13 0 -11 13z" />
    <glyph glyph-name="G" unicode="G" horiz-adv-x="685" 
d="M65 306q0 84 31 158t83 128.5t121 86t146 31.5q68 0 117.5 -24t87.5 -69q3 -4 3 -9t-5 -9l-18 -16q-9 -9 -17 0q-31 39 -76.5 60.5t-99.5 21.5q-63 0 -121.5 -28.5t-103 -77t-71 -113.5t-26.5 -138q0 -56 17 -105t48 -86t74 -58t95 -21q42 0 76.5 10t60.5 22q30 14 54 32
l24 177h-143q-8 0 -10 3t-1 10l3 20q1 6 3.5 9t10.5 3h179q5 0 8.5 -3.5t2.5 -8.5l-30 -215q-2 -13 -6.5 -19.5t-10.5 -11.5q-7 -6 -28 -18.5t-51.5 -25.5t-68.5 -22.5t-78 -9.5q-59 0 -110.5 24.5t-89 67t-59 100t-21.5 124.5z" />
    <glyph glyph-name="H" unicode="H" horiz-adv-x="694" 
d="M158 687q2 13 14 13h22q13 0 11 -13l-44 -307h398l43 307q2 13 14 13h22q13 0 11 -13l-95 -674q-2 -13 -14 -13h-22q-13 0 -11 13l46 325h-397l-46 -325q-2 -13 -15 -13h-21q-13 0 -11 13z" />
    <glyph glyph-name="I" unicode="I" horiz-adv-x="252" 
d="M158 687q2 13 15 13h22q13 0 11 -13l-94 -674q-3 -13 -16 -13h-21q-13 0 -11 13z" />
    <glyph glyph-name="J" unicode="J" horiz-adv-x="434" 
d="M-6 65q-6 11 3 17l14 11q11 9 17 0q6 -8 14 -18.5t20 -20t28.5 -16t37.5 -6.5q27 0 51.5 8.5t44 27.5t34 49.5t20.5 75.5l70 494q2 13 15 13h21q13 0 11 -13l-70 -493q-15 -106 -67.5 -155t-133.5 -49q-30 0 -52 9t-38 21t-26 24.5t-14 20.5z" />
    <glyph glyph-name="K" unicode="K" horiz-adv-x="534" 
d="M158 685q2 15 16 15h19q15 0 13 -15l-45 -312l346 320q7 5 10 6t10 1h30q8 0 8.5 -6t-4.5 -11l-357 -330l274 -336q4 -4 1 -10.5t-14 -6.5h-24q-11 0 -20 10l-265 329l-45 -326q-1 -8 -6 -10.5t-11 -2.5h-20q-13 0 -11 13z" />
    <glyph glyph-name="L" unicode="L" horiz-adv-x="457" 
d="M158 687q1 5 5 9t9 4h23q5 0 8 -4t2 -9l-91 -645h283q9 0 10.5 -4t0.5 -9l-3 -18q-2 -11 -14 -11h-317q-13 0 -11 13z" />
    <glyph glyph-name="M" unicode="M" horiz-adv-x="791" 
d="M242 703q2 7 10 7h9q6 0 7 -7l94 -602h2l275 602q3 7 9 7h9q8 0 8 -7l33 -690q0 -13 -13 -13h-24q-10 0 -10 11l-20 572h-2l-264 -585q-4 -8 -12 -8h-4q-9 0 -10 8l-93 585h-2l-183 -572q-4 -11 -13 -11h-24q-13 0 -9 13z" />
    <glyph glyph-name="N" unicode="N" horiz-adv-x="709" 
d="M160 697q3 13 16 13h5q9 0 15 -9l338 -612h2l82 598q2 13 15 13h20q13 0 11 -13l-96 -684q-1 -7 -6 -10t-11 -3h-6q-9 0 -15 9l-336 614h-1l-84 -600q-2 -10 -9.5 -11.5t-15.5 -1.5h-9q-13 0 -11 13z" />
    <glyph glyph-name="O" unicode="O" horiz-adv-x="769" 
d="M65 300q0 85 30 159.5t82 130t120.5 88t146.5 32.5q59 0 110 -24.5t88.5 -67t58.5 -99.5t21 -122q0 -85 -30 -159t-82 -129t-120.5 -87t-146.5 -32q-59 0 -110 24t-88.5 66t-58.5 98.5t-21 121.5zM111 306q0 -56 17.5 -105.5t49 -86.5t75 -58.5t96.5 -21.5q64 0 123 28
t104.5 76.5t72.5 113.5t27 139q0 57 -17.5 107t-49 87.5t-75.5 59t-96 21.5q-64 0 -123 -28.5t-104.5 -77.5t-72.5 -114.5t-27 -139.5z" />
    <glyph glyph-name="P" unicode="P" horiz-adv-x="555" 
d="M158 687q1 5 5 9t9 4h195q36 0 67.5 -15.5t55.5 -42t37.5 -62t13.5 -75.5q0 -53 -18.5 -99.5t-50.5 -81t-75 -55t-93 -20.5h-161l-33 -236q-2 -13 -18 -13h-18q-13 0 -11 13zM308 295q39 0 72.5 16.5t58 44t39 65t14.5 79.5q0 34 -10 62t-28 48t-42.5 31.5t-54.5 11.5
h-157l-50 -358h158z" />
    <glyph glyph-name="Q" unicode="Q" horiz-adv-x="769" 
d="M65 300q0 85 30 159.5t82 130t120.5 88t146.5 32.5q59 0 110 -24.5t88.5 -67t58.5 -99.5t21 -122q0 -66 -18.5 -126t-52 -110t-80 -88t-101.5 -60l80 -191q2 -4 -0.5 -9.5t-8.5 -5.5h-33q-2 0 -6 2t-6 8l-73 183q-19 -5 -40 -7.5t-40 -2.5q-59 0 -110 24t-88.5 66
t-58.5 98.5t-21 121.5zM112 306q0 -56 17.5 -105.5t48.5 -86.5t74.5 -58.5t96.5 -21.5q64 0 123 28t104.5 76.5t72.5 113.5t27 139q0 57 -17.5 107t-49 87.5t-75.5 59t-96 21.5q-64 0 -123 -28.5t-104 -77.5t-72 -114.5t-27 -139.5z" />
    <glyph glyph-name="R" unicode="R" horiz-adv-x="602" 
d="M110 13q-2 -13 -18 -13h-18q-13 0 -11 13l95 674q2 13 14 13h225q35 0 66.5 -14.5t55 -39.5t37 -59t13.5 -73q0 -43 -13.5 -81.5t-37.5 -70t-56.5 -53.5t-69.5 -32l93 -259q2 -6 0 -12t-10 -6h-25q-8 0 -11.5 2.5t-5.5 10.5l-91 258q-9 -1 -18.5 -1h-18.5h-159zM340 316
q34 0 66.5 14.5t57.5 40t40 61t15 76.5q0 31 -10 57.5t-27 46t-41.5 31t-52.5 11.5h-187l-48 -338h187z" />
    <glyph glyph-name="S" unicode="S" horiz-adv-x="503" 
d="M39 70q-4 4 -6 9.5t4 11.5l11 14q10 13 21 2t25.5 -24t34 -24t44 -19t55.5 -8q33 0 63 11.5t52.5 31.5t35.5 48t13 60q0 28 -11 49t-30.5 39t-47.5 33.5t-61 32.5q-33 16 -60 33t-47 37.5t-31 46t-11 60.5t12.5 70t39 63t67 45.5t97.5 17.5q54 0 89 -15.5t64 -35.5
q5 -3 6.5 -9t-3.5 -12l-8 -11q-10 -13 -22 -5q-32 22 -62 33.5t-68 11.5q-42 0 -73 -13t-51.5 -34.5t-30.5 -48t-10 -53.5q0 -26 9.5 -46.5t26 -37t40 -30t50.5 -26.5q39 -19 71.5 -37.5t55 -40.5t35 -49t12.5 -63q0 -44 -17 -80.5t-46.5 -62.5t-68.5 -40.5t-83 -14.5
q-36 0 -66 9t-54 22t-40.5 26.5t-25.5 22.5z" />
    <glyph glyph-name="T" unicode="T" horiz-adv-x="469" 
d="M262 657h-170q-8 0 -9.5 4t-0.5 11l2 15q1 6 5 9.5t9 3.5h386q13 0 11 -13l-2 -17q-2 -13 -15 -13h-170l-90 -644q-2 -13 -17 -13h-19q-13 0 -11 13z" />
    <glyph glyph-name="U" unicode="U" horiz-adv-x="663" 
d="M152 687q1 5 5 9t9 4h22q13 0 11 -13l-62 -440q-3 -24 -3 -45q0 -78 42 -122t120 -44q89 0 147 56.5t72 153.5l63 441q2 13 15 13h21q5 0 8 -4t2 -9l-62 -445q-8 -57 -31 -103.5t-58.5 -79.5t-82 -51t-101.5 -18q-46 0 -83.5 14.5t-64 41.5t-41 65t-14.5 86q0 21 3 45z
" />
    <glyph glyph-name="V" unicode="V" horiz-adv-x="598" 
d="M67 687q-3 13 10 13h27q7 0 9 -7l151 -609h3l328 609q2 2 4 4.5t8 2.5h28q15 0 7 -14l-372 -687q-5 -9 -13 -9h-4q-9 0 -11 9z" />
    <glyph glyph-name="W" unicode="W" horiz-adv-x="809" 
d="M92 687q-1 13 13 13h24q8 0 10 -11l65 -571h3l240 583q4 9 11 9h6q8 0 10 -9l80 -582h2l225 570q4 11 13 11h26q14 0 10 -13l-276 -690q-4 -7 -9 -7h-7q-8 0 -9 7l-81 595h-3l-244 -595q-3 -7 -9 -7h-7q-9 0 -9 7z" />
    <glyph glyph-name="X" unicode="X" horiz-adv-x="518" 
d="M2 0q-8 0 -9.5 4.5t3.5 10.5l244 344l-139 326q-2 6 0.5 10.5t10.5 4.5h24q8 0 11 -6l124 -298h1l205 298q4 6 14 6h31q8 0 10 -4.5t-3 -10.5l-232 -327l149 -343q3 -6 0.5 -10.5t-10.5 -4.5h-26q-10 0 -12 6l-134 312h-1l-216 -312q-5 -6 -13 -6h-32v0z" />
    <glyph glyph-name="Y" unicode="Y" horiz-adv-x="527" 
d="M272 388l247 306q6 6 14 6h33q8 0 10 -4.5t-3 -10.5l-282 -344l-46 -328q-2 -13 -15 -13h-20q-12 0 -11 13l45 327l-181 347q-7 13 9 13h28q5 0 7.5 -2t3.5 -4l159 -306h2z" />
    <glyph glyph-name="Z" unicode="Z" horiz-adv-x="484" 
d="M3 0q-14 0 -12 12l1 8q1 10 7 18l438 615v3h-315q-12 0 -10 13l2 19q2 12 15 12h368q13 0 11 -12l-1 -7q-1 -10 -7 -18l-439 -616v-3h325q13 0 11 -13l-2 -18q-2 -13 -15 -13h-377v0z" />
    <glyph glyph-name="bracketleft" unicode="[" horiz-adv-x="317" 
d="M206 -197q13 0 11 -13l-2 -15q-2 -13 -15 -13h-174q-13 0 -11 13l128 912q2 13 15 13h174q13 0 11 -13l-2 -15q-2 -13 -15 -13h-144l-120 -856h144z" />
    <glyph glyph-name="backslash" unicode="\" horiz-adv-x="354" 
d="M117 690q-1 5 0.5 7.5t8.5 2.5h18q9 0 11 -8l100 -682q2 -10 -9 -10h-17q-10 0 -11 9z" />
    <glyph glyph-name="bracketright" unicode="]" horiz-adv-x="317" 
d="M119 -197l120 856h-143q-13 0 -11 13l2 15q2 13 15 13h173q13 0 11 -13l-128 -912q-2 -13 -15 -13h-173q-13 0 -11 13l2 15q2 13 15 13h143z" />
    <glyph glyph-name="asciicircum" unicode="^" horiz-adv-x="472" 
d="M58 400q-8 0 -8 4.5t5 11.5l229 291q5 7 11 7h1q5 0 9 -7l151 -291q4 -6 2 -11t-10 -5h-21q-11 0 -15 8l-122 240h-1l-189 -240q-6 -8 -16 -8h-26z" />
    <glyph glyph-name="underscore" unicode="_" horiz-adv-x="523" 
d="M353 -10q13 0 11 -13l-2 -10q-2 -12 -14 -12h-281q-13 0 -11 12l1 10q2 13 15 13h281z" />
    <glyph glyph-name="grave" unicode="`" horiz-adv-x="272" 
d="M96 639q-8 5 -1 15l12 19q3 5 8 5.5t9 -2.5l132 -90q8 -5 4 -14l-6 -9q-3 -4 -6 -5t-10 2z" />
    <glyph glyph-name="a" unicode="a" horiz-adv-x="517" 
d="M394 15q-1 -6 -6 -10.5t-10 -4.5h-9q-14 0 -13 16l2 40q-5 -6 -18 -17t-32.5 -22.5t-44.5 -19.5t-55 -8q-36 0 -65.5 16t-50.5 44.5t-32.5 67.5t-11.5 84q0 55 18.5 104.5t50 86.5t74 58.5t90.5 21.5q28 0 50.5 -7t38.5 -16t25.5 -18t12.5 -13l10 31q4 13 14 13h10
q5 0 9 -4.5t2 -10.5zM398 369q-1 2 -8.5 11.5t-22 20.5t-36 19.5t-51.5 8.5q-40 0 -74 -18.5t-59.5 -50t-40 -72.5t-14.5 -87q0 -33 9 -64t25 -54.5t39 -37.5t51 -14q32 0 59 12.5t46.5 27.5t30.5 28.5t12 15.5z" />
    <glyph glyph-name="b" unicode="b" horiz-adv-x="519" 
d="M61 0q-7 0 -10.5 4.5t-2.5 10.5l94 671q1 5 5.5 9.5t10.5 4.5h17q5 0 9.5 -4.5t3.5 -9.5l-38 -259q17 12 39 22q18 8 43.5 15.5t54.5 7.5q36 0 67 -16t53.5 -44t35.5 -66.5t13 -83.5q0 -55 -18 -105t-48.5 -87.5t-72 -59.5t-87.5 -22q-30 0 -53.5 8.5t-40 19.5t-26 23
t-12.5 18l-10 -42q-4 -15 -18 -15h-9zM107 112q1 -2 8.5 -15t22.5 -27.5t38 -26.5t56 -12q36 0 68 19t57 50.5t39.5 73.5t14.5 87q0 35 -10 65.5t-28 53.5t-43.5 36t-56.5 13q-27 0 -50.5 -7.5t-40.5 -16.5q-20 -11 -37 -24z" />
    <glyph glyph-name="c" unicode="c" horiz-adv-x="479" 
d="M47 197q0 63 20.5 114t55 87t79.5 55t95 19q28 0 51 -7t41 -17.5t30.5 -23t20.5 -22.5q6 -7 -6 -21l-7 -8q-6 -7 -12 -4.5t-11 7.5q-6 7 -15.5 16t-23 17t-31.5 14t-41 6q-38 0 -74 -15.5t-64.5 -45.5t-46 -73t-17.5 -98q0 -33 11 -63t30.5 -53t46 -36.5t56.5 -13.5
q28 0 50.5 9t40 21t29 24.5t17.5 18.5q6 8 10 7.5t10 -5.5l12 -10q9 -8 1 -18q-8 -11 -24 -26t-38.5 -29t-51 -24t-61.5 -10q-39 0 -72.5 16t-58 44t-38.5 66t-14 82z" />
    <glyph glyph-name="d" unicode="d" horiz-adv-x="517" 
d="M47 194q0 58 18 109t49.5 88.5t75 59t94.5 21.5q29 0 51.5 -7.5t38.5 -15.5q18 -10 32 -22l37 259q3 14 15 14h17q6 0 10 -4.5t2 -9.5l-93 -671q-1 -6 -6 -10.5t-10 -4.5h-10q-14 0 -13 16l2 40q-5 -6 -18.5 -17t-33.5 -22.5t-45.5 -19.5t-54.5 -8q-36 0 -65 16t-50 43.5
t-32 65t-11 80.5zM214 31q32 0 59 12.5t46.5 27.5t30.5 28.5t12 15.5l37 263q-13 14 -31 25q-15 10 -36.5 18t-49.5 8q-41 0 -76 -18.5t-60.5 -50t-40 -73.5t-14.5 -90q0 -33 9 -63.5t25 -53t38.5 -36t50.5 -13.5z" />
    <glyph glyph-name="e" unicode="e" horiz-adv-x="474" 
d="M47 193q0 57 17.5 107.5t49 88.5t75 60.5t96.5 22.5q61 0 101.5 -31.5t40.5 -85.5q0 -52 -32 -81.5t-81.5 -43.5t-108.5 -15.5t-113 2.5q-4 -40 3.5 -74t24.5 -59t43 -39t60 -14q25 0 45 5t36 12t28 15t20 14q14 10 22 -4l7 -11q2 -4 2 -8.5t-5 -9.5q-11 -8 -26 -17.5
t-35 -18t-44.5 -14t-54.5 -5.5q-41 0 -72.5 16t-53.5 43.5t-33.5 65t-11.5 79.5zM98 257q53 -4 104 -3t91.5 11.5t65 31t24.5 55.5q0 36 -29 56.5t-74 20.5q-33 0 -63.5 -13.5t-55 -37t-41.5 -54.5t-22 -67z" />
    <glyph glyph-name="f" unicode="f" horiz-adv-x="345" 
d="M50 -238q-6 0 -10 5t-2 10l91 643h-66q-8 0 -11 5t-2 10l2 12q2 6 6.5 10.5t9.5 4.5h66l12 76q12 78 49 125t108 47q40 0 68 -15t42 -32q5 -5 3.5 -10t-4.5 -9l-11 -12q-12 -10 -20 0q-14 15 -33 25t-45 10q-51 0 -77 -34.5t-36 -99.5l-11 -71h150q16 0 13 -14l-3 -15
q-2 -13 -16 -13h-149l-91 -643q-1 -5 -6 -10t-11 -5h-16v0z" />
    <glyph glyph-name="g" unicode="g" horiz-adv-x="517" 
d="M46 194q0 58 18.5 108.5t50.5 88t74.5 59.5t90.5 22q28 0 50.5 -7t39 -16t26 -18t12.5 -13l10 31q3 13 15 13h8q5 0 9 -4.5t2 -10.5l-59 -435q-9 -66 -29 -110.5t-47.5 -71t-60 -38t-66.5 -11.5q-30 0 -55 9.5t-44.5 22.5t-33 25.5t-18.5 18.5q-11 11 1 23l9 9
q5 5 11.5 5.5t14.5 -8.5q6 -7 16.5 -17.5t25.5 -20.5t34 -17t42 -7q22 0 46 7t45.5 27.5t38.5 56.5t26 94l3 24q-4 -5 -15 -12t-28 -14t-39.5 -12t-48.5 -5q-41 0 -73.5 16t-55 43.5t-34.5 64.5t-12 80zM92 199q0 -34 9.5 -64.5t26.5 -53.5t42 -36.5t56 -13.5q28 0 51.5 7.5
t41 17t27.5 18.5t12 11l40 282q-1 2 -8.5 12t-22.5 21t-36.5 20t-51.5 9q-40 0 -74 -18.5t-59 -50t-39.5 -73.5t-14.5 -88z" />
    <glyph glyph-name="h" unicode="h" horiz-adv-x="506" 
d="M59 0q-7 0 -9.5 4.5t-1.5 10.5l94 671q1 5 3.5 9.5t9.5 4.5h20q5 0 9.5 -4.5t3.5 -9.5l-41 -284q5 6 17.5 17.5t32 23t45.5 20.5t58 9q75 0 106 -51t16 -155l-35 -251q-1 -6 -5.5 -10.5t-10.5 -4.5h-15q-7 0 -10.5 4.5t-2.5 10.5l35 251q11 86 -10 124.5t-77 38.5
q-33 0 -60 -12t-47 -26.5t-32 -27.5t-13 -15l-47 -333q-2 -15 -16 -15h-17v0z" />
    <glyph glyph-name="i" unicode="i" horiz-adv-x="216" 
d="M59 0q-7 0 -9.5 4.5t-1.5 10.5l61 432q1 6 6 10.5t12 4.5h14q6 0 9.5 -4.5t2.5 -10.5l-61 -432q-2 -15 -15 -15h-18zM150 590q-15 0 -25 9.5t-10 23.5q0 18 14 31t32 13q15 0 24 -9.5t9 -23.5q0 -18 -13 -31t-31 -13z" />
    <glyph glyph-name="j" unicode="j" horiz-adv-x="216" 
d="M150 591q-15 0 -25 9.5t-10 23.5q0 18 14 31t32 13q15 0 24 -9.5t9 -23.5q0 -18 -13 -31t-31 -13zM81 -71q-6 -43 -17.5 -72t-29 -49t-41 -32.5t-52.5 -21.5q-18 -6 -22 8l-4 13q-2 6 1 13t12 9q41 10 70 36.5t37 86.5l74 527q1 6 6 10.5t12 4.5h14q5 0 9.5 -4.5
t2.5 -10.5z" />
    <glyph glyph-name="k" unicode="k" horiz-adv-x="428" 
d="M59 0q-7 0 -9.5 4.5t-1.5 10.5l94 671q1 5 5.5 9.5t10.5 4.5h16q5 0 9.5 -4.5t3.5 -9.5l-59 -410l230 179q8 7 18 7h31q9 0 10 -6.5t-7 -12.5l-244 -191l189 -232q6 -7 2 -13.5t-11 -6.5h-18q-7 0 -11.5 0.5t-10.5 8.5l-183 230l-32 -224q-2 -15 -16 -15h-16v0z" />
    <glyph glyph-name="l" unicode="l" horiz-adv-x="229" 
d="M65 0q-7 0 -9.5 4.5t-1.5 10.5l94 671q1 5 5 9.5t9 4.5h19q5 0 9.5 -4.5t3.5 -9.5l-96 -671q-2 -15 -16 -15h-17v0z" />
    <glyph glyph-name="m" unicode="m" horiz-adv-x="761" 
d="M59 0q-7 0 -9.5 4.5t-1.5 10.5l60 432q1 6 4.5 10.5t10.5 4.5h10q11 0 11 -12l-2 -46q6 6 18 17.5t30.5 22.5t42.5 19.5t54 8.5q48 0 72.5 -21.5t38.5 -55.5q10 9 24.5 22.5t34 25.5t44.5 20.5t57 8.5q40 0 66.5 -15t40.5 -42t16.5 -65t-4.5 -84l-34 -251q-1 -6 -6 -10.5
t-11 -4.5h-17q-13 0 -11 15l35 251q11 81 -7 122t-76 41q-30 0 -53.5 -9t-41 -21.5t-29.5 -26t-19 -21.5q3 -18 2 -40t-4 -45l-34 -251q-1 -6 -6.5 -10.5t-10.5 -4.5h-16q-14 0 -12 15l35 251q11 81 -8 122t-74 41q-33 0 -58.5 -11.5t-43 -25.5t-27 -27t-11.5 -17l-47 -333
q-3 -15 -16 -15h-17v0z" />
    <glyph glyph-name="n" unicode="n" horiz-adv-x="505" 
d="M59 0q-7 0 -9.5 4.5t-1.5 10.5l61 432q1 6 4 10.5t10 4.5h10q13 0 13 -12l-3 -46q7 7 20.5 18.5t33 22.5t44.5 19t57 8q42 0 69 -14.5t41.5 -41.5t17.5 -65t-4 -85l-36 -251q-1 -6 -5.5 -10.5t-10.5 -4.5h-15q-7 0 -10.5 4.5t-2.5 10.5l36 251q11 81 -8.5 122t-80.5 41
q-32 0 -57.5 -10.5t-44.5 -23.5t-31 -26t-16 -17l-48 -337q-2 -15 -17 -15h-16v0z" />
    <glyph glyph-name="o" unicode="o" horiz-adv-x="531" 
d="M46 197q0 57 19.5 107t53 87.5t78.5 59t96 21.5q37 0 69.5 -16.5t56 -44.5t37 -65.5t13.5 -80.5q0 -57 -19.5 -107.5t-53 -88t-78 -59t-94.5 -21.5q-38 0 -70.5 16.5t-56.5 44.5t-37.5 66t-13.5 81zM90 202q0 -36 10 -67t28.5 -54.5t44 -36.5t56.5 -13q38 0 73.5 18
t62.5 49t43.5 73t16.5 90q0 35 -10.5 66t-29 53.5t-44 35.5t-55.5 13q-40 0 -75.5 -18t-62.5 -48.5t-42.5 -72t-15.5 -88.5z" />
    <glyph glyph-name="p" unicode="p" horiz-adv-x="517" 
d="M59 -223q-1 -5 -6 -10t-12 -5h-13q-6 0 -10 5t-3 10l94 670q1 8 6 11.5t12 3.5h6q13 0 13 -12l-1 -31q4 4 16.5 13t31 18t43 15.5t53.5 6.5q37 0 68 -16t52.5 -44t33.5 -66t12 -82q0 -57 -19 -107t-52 -87.5t-77.5 -59t-94.5 -21.5q-25 0 -44.5 5t-33.5 12t-24 15t-15 14
zM103 83q4 -6 14 -15t24 -17.5t32 -14t40 -5.5q41 0 77 18.5t63 50.5t42.5 74.5t15.5 90.5q0 33 -9 63t-26 52.5t-41.5 35.5t-55.5 13q-30 0 -54.5 -9t-42.5 -20.5t-29 -22t-12 -12.5z" />
    <glyph glyph-name="q" unicode="q" horiz-adv-x="515" 
d="M47 198q0 56 17.5 106t49 87.5t73.5 59t92 21.5q28 0 51 -7t39 -16t26 -18t13 -13l10 31q4 13 15 13h7q5 0 8.5 -4.5t2.5 -10.5l-92 -670q-1 -5 -6 -10t-10 -5h-15q-6 0 -10 5t-3 10l36 256q-4 -5 -15 -12t-28 -14.5t-39.5 -12.5t-48.5 -5q-39 0 -70.5 16t-54.5 44
t-35.5 66.5t-12.5 82.5zM91 197q0 -34 10 -64.5t28.5 -53t44.5 -35.5t58 -13q26 0 48 7.5t38.5 17t26.5 18.5t12 11l40 283q-1 2 -8.5 11.5t-22.5 20.5t-36.5 20t-51.5 9q-40 0 -74 -18t-59 -49.5t-39.5 -74t-14.5 -90.5z" />
    <glyph glyph-name="r" unicode="r" horiz-adv-x="359" 
d="M59 0q-7 0 -9.5 4.5t-1.5 10.5l61 432q1 6 5 10.5t9 4.5h11q5 0 9 -3t3 -10l-3 -44q5 7 16.5 18.5t29.5 22t42 18.5t53 8q24 0 39.5 -4.5t22.5 -7.5q16 -8 10 -21l-9 -18q-6 -14 -20 -5q-5 2 -19.5 7.5t-37.5 5.5q-24 0 -45 -8.5t-37.5 -21.5t-28.5 -27t-19 -24l-48 -333
q-2 -15 -15 -15h-18v0z" />
    <glyph glyph-name="s" unicode="s" horiz-adv-x="393" 
d="M162 -11q-46 0 -81 17.5t-52 33.5q-3 2 -4.5 7t2.5 10l11 16q3 5 9 6t11 -4q6 -5 15.5 -12.5t22.5 -14.5t30 -12t39 -5q50 0 81.5 27t31.5 66q0 17 -8 30t-22.5 24t-33.5 21t-41 21q-23 11 -42 22.5t-33.5 26t-22.5 32.5t-8 41t9 46t27.5 42t47 30.5t66.5 11.5
q42 0 70.5 -12t42.5 -23q11 -8 3 -21l-8 -12q-9 -12 -21 -4q-3 2 -11.5 7t-20.5 10t-27 8.5t-31 3.5q-51 0 -77 -25.5t-26 -58.5q0 -29 25 -50t63 -39q25 -11 47.5 -23.5t39 -27.5t26.5 -33.5t10 -42.5q0 -31 -12 -56.5t-33.5 -44t-51 -29t-63.5 -10.5z" />
    <glyph glyph-name="t" unicode="t" horiz-adv-x="340" 
d="M155 -11q-28 0 -45 10t-25 27.5t-9 41t3 51.5l44 301h-54q-8 0 -10 4t0 11l3 15q3 12 14 12h53l17 126q1 7 6 11t11 4l13 1q7 0 11 -4.5t2 -10.5l-17 -127h143q7 0 10 -4.5t2 -10.5l-2 -12q-2 -15 -16 -15h-143l-43 -301q-6 -45 1 -66.5t39 -21.5q15 0 30 4t27.5 10
t22.5 12t16 9q8 5 11 3t6 -7l8 -12q7 -11 -5 -19q-7 -5 -19 -12t-28 -13.5t-35.5 -11.5t-41.5 -5z" />
    <glyph glyph-name="u" unicode="u" horiz-adv-x="494" 
d="M190 -11q-41 0 -68 12.5t-41.5 37t-17.5 60t3 81.5l38 267q1 6 5.5 10.5t9.5 4.5h16q6 0 10 -4.5t3 -10.5l-39 -267q-11 -81 10 -115t81 -34q32 0 57 12t43 27t28 28t12 15l47 334q1 15 16 15h16q5 0 9 -4.5t2 -10.5l-59 -432q-1 -6 -4.5 -10.5t-9.5 -4.5h-12
q-6 0 -8.5 4.5t-2.5 9.5l2 42q-5 -6 -16.5 -17.5t-30 -22.5t-43.5 -19t-56 -8z" />
    <glyph glyph-name="v" unicode="v" horiz-adv-x="453" 
d="M53 445q-2 7 0 12t10 5h21q4 0 7.5 -2t5.5 -9l94 -378h1l205 378q5 11 16 11h23q8 0 10 -5t-3 -12l-242 -445q-6 -11 -15 -11h-6q-5 0 -8 3.5t-4 7.5z" />
    <glyph glyph-name="w" unicode="w" horiz-adv-x="649" 
d="M66 443q-3 19 11 19h20q5 0 8.5 -2t4.5 -9l47 -355h2l172 365q5 11 14 11h5q8 0 11 -11l72 -365h1l145 355q3 7 7.5 9t9.5 2h23q8 0 9.5 -5.5t-2.5 -13.5l-189 -443q-5 -11 -13 -11h-4q-8 0 -10 11l-73 380h-1l-179 -380q-5 -11 -14 -11h-5q-6 0 -8 11z" />
    <glyph glyph-name="x" unicode="x" horiz-adv-x="434" 
d="M6 0q-6 0 -8.5 5t3.5 11l182 223l-113 207q-4 6 -1 11t11 5h22q9 0 15 -11l94 -178h2l146 178q7 11 19 11h25q8 0 10.5 -5t-3.5 -11l-173 -211l120 -219q5 -6 1.5 -11t-10.5 -5h-26q-6 0 -12 10l-102 192h-2l-154 -192q-10 -10 -19 -10h-27v0z" />
    <glyph glyph-name="y" unicode="y" horiz-adv-x="466" 
d="M55 443q-2 8 0.5 13.5t10.5 5.5h21q10 0 13 -11l98 -395h2l209 395q5 11 15 11h24q7 0 9.5 -5.5t-2.5 -13.5l-359 -671q-5 -10 -16 -10h-21q-16 0 -8 16l119 225z" />
    <glyph glyph-name="z" unicode="z" horiz-adv-x="392" 
d="M12 0q-8 0 -9.5 3.5t-1.5 9.5q0 8 2.5 11.5t5.5 8.5l297 386v1h-217q-5 0 -9 4.5t-2 9.5l3 13q4 15 14 15h268q14 0 14 -11q0 -5 -4 -11l-304 -396v-2h219q6 0 10 -4t2 -11l-2 -12q-1 -6 -5.5 -10.5t-11.5 -4.5h-269v0z" />
    <glyph glyph-name="braceleft" unicode="{" horiz-adv-x="347" 
d="M90 126q3 24 -2 40t-14 26t-19.5 15t-17.5 8q-4 2 -5.5 3t-0.5 6l2 16q1 5 2.5 6t6.5 3q7 3 19 8t24 15t22 26t13 40l19 140q10 71 33.5 116t55.5 71t68.5 35.5t71.5 9.5q5 0 8 -3.5t2 -8.5l-1 -12q-1 -10 -11 -12q-36 -3 -67.5 -15t-56 -35t-41 -59.5t-23.5 -87.5
l-19 -139q-4 -26 -15 -45.5t-24 -32.5t-23.5 -20t-13.5 -8v-1q1 -1 10 -7.5t18 -19t15.5 -32t2.5 -46.5l-19 -143q-7 -51 -0.5 -87t23.5 -59.5t44.5 -35t63.5 -14.5q9 -1 7 -12l-1 -12q-1 -5 -5 -8.5t-9 -3.5q-35 0 -68 12.5t-57 40t-35.5 71.5t-2.5 107z" />
    <glyph glyph-name="bar" unicode="|" horiz-adv-x="203" 
d="M151 746q3 13 15 13h6q5 0 8 -3.5t1 -9.5l-136 -972q-2 -12 -14 -12h-5q-13 0 -11 12z" />
    <glyph glyph-name="braceright" unicode="}" horiz-adv-x="347" 
d="M192 -18q-10 -69 -33 -113t-54 -70t-67.5 -36.5t-73.5 -11.5q-5 0 -8 3.5t-2 8.5l1 12q1 10 11 12q36 3 67 14.5t55.5 34.5t41 59t23.5 87l20 144q4 27 15.5 46.5t24.5 32t23.5 19t12.5 7.5v1q-3 1 -11.5 8t-17.5 20t-15 32.5t-2 45.5l19 139q7 51 0.5 87.5t-24 59.5
t-45 35t-63.5 15q-9 1 -7 12l2 15q1 5 4.5 7t8.5 2q35 0 68 -13t57 -41t35 -72t3 -106l-19 -140q-3 -24 2 -40t14 -26t19 -15t17 -8q5 -2 6.5 -3.5t0.5 -8.5l-2 -13q-1 -5 -3 -6t-7 -3q-8 -3 -19.5 -8t-23 -15t-21.5 -26t-13 -40z" />
    <glyph glyph-name="asciitilde" unicode="~" horiz-adv-x="530" 
d="M60 249q-6 6 0 16q15 26 35 47q17 18 41 33t55 15q16 0 29.5 -5.5t24.5 -13.5t20 -17.5t16 -17.5q11 -13 26.5 -28.5t37.5 -15.5q20 0 36.5 10.5t29 24t20.5 25.5t10 16q6 10 17 3l15 -9q6 -5 0 -16q-16 -27 -35 -48q-17 -18 -41 -32.5t-55 -14.5q-16 0 -29 5.5t-24 13.5
t-19.5 17t-15.5 17q-12 14 -27.5 29.5t-38.5 15.5q-20 0 -37 -10.5t-29.5 -24t-21 -26t-10.5 -16.5q-3 -5 -8.5 -6t-10.5 3z" />
    <glyph glyph-name="uni00A0" unicode="&#xa0;" horiz-adv-x="240" 
 />
    <glyph glyph-name="exclamdown" unicode="&#xa1;" horiz-adv-x="228" 
d="M130 392q-15 0 -24 10t-9 25q0 19 13 32t31 13q15 0 24.5 -10.5t9.5 -24.5q0 -20 -14 -32.5t-31 -12.5zM84 181q2 5 5.5 8.5t8.5 3.5h8q5 0 8.5 -3.5t2.5 -8.5l-47 -406q-1 -8 -6 -10.5t-10 -2.5h-26q-13 0 -11 13z" />
    <glyph glyph-name="cent" unicode="&#xa2;" horiz-adv-x="524" 
d="M174 5q-24 12 -43.5 31t-34 44t-22 54.5t-7.5 61.5q0 60 20.5 110.5t55 87t80.5 57.5t98 21h16.5t15.5 -2l18 47q5 11 15 10l9 -3q13 -4 7 -18l-17 -44q32 -11 52 -30.5t28 -30.5q5 -10 -6 -21l-13 -11q-8 -8 -12.5 -5t-9.5 8q-4 5 -19 19.5t-40 23.5l-139 -375
q15 -3 33 -3q28 0 50.5 8.5t39.5 20t28.5 22.5t17.5 16q11 12 22 2l10 -9q11 -9 3 -19q-9 -11 -25.5 -26t-39.5 -29t-51.5 -24t-59.5 -10q-26 0 -48 7l-39 -106q-4 -11 -17 -9l-8 1q-6 1 -8 6.5t0 10.5zM332 423q-8 2 -17 2q-38 0 -73 -17t-62 -46.5t-43.5 -70t-16.5 -87.5
q0 -51 19.5 -91.5t53.5 -58.5z" />
    <glyph glyph-name="sterling" unicode="&#xa3;" 
d="M106 23q14 27 26.5 55t21.5 54t15 49t8 40q3 26 3.5 45t0.5 36h-39q-12 0 -10 14l1 7q2 10 14 10h31q-1 23 -4.5 57t-3.5 68q0 61 17 108.5t46 79t68.5 48t84.5 16.5q30 0 55 -8t43.5 -19.5t31 -24t16.5 -21.5q2 -5 2 -10t-8 -12l-9 -9q-4 -4 -10 -4.5t-11 6.5
q-2 3 -10.5 12.5t-23.5 20t-36 19t-48 8.5q-32 0 -61.5 -14t-52 -40.5t-36.5 -65t-14 -88.5q0 -35 3.5 -69.5t4.5 -57.5h176q7 0 9.5 -4.5t1.5 -9.5l-1 -7q-1 -10 -14 -10h-169q1 -18 -1 -39.5t-5 -41.5q-7 -45 -20 -88.5t-37 -91.5h261q8 0 10 -3.5t1 -10.5l-2 -15
q-1 -5 -4.5 -8.5t-8.5 -3.5h-304q-10 0 -10 8t1 15z" />
    <glyph glyph-name="currency" unicode="&#xa4;" horiz-adv-x="467" 
d="M73 172q-4 5 -2 10.5t4 7.5l55 53q-19 35 -12.5 79t34.5 78l-40 52q-2 3 -1.5 8t5.5 10l11 11q11 10 17 2l39 -53q36 27 74.5 26t66.5 -27l55 53q2 2 7.5 2t9.5 -5l7 -9q4 -5 3 -10.5t-5 -8.5l-54 -51q19 -35 13 -78.5t-34 -77.5l38 -51q6 -9 -4 -19l-12 -11
q-10 -9 -16 -1l-39 51q-35 -26 -74.5 -26t-66.5 26l-51 -51q-4 -4 -9.5 -4t-9.5 4zM171 253q21 -27 54 -27.5t62 27.5q14 14 23 31.5t12 36.5t-0.5 36.5t-13.5 31.5q-21 29 -54 28.5t-62 -28.5q-15 -14 -24 -31.5t-12 -36.5t0.5 -36.5t14.5 -31.5z" />
    <glyph glyph-name="yen" unicode="&#xa5;" 
d="M120 139q-12 0 -10 12l1 8q2 11 13 11h132l13 88h-132q-12 0 -10 12l1 8q2 11 13 11h132l7 51l-179 345q-4 6 -1 10.5t11 4.5h28q9 0 12 -6l155 -309l246 309q4 6 13 6h38q8 0 9.5 -4.5t-3.5 -10.5l-282 -344l-7 -52h132q12 0 10 -13l-1 -7q-2 -11 -14 -11h-131l-13 -88
h132q12 0 10 -13l-1 -6q-2 -12 -13 -12h-132l-18 -126q-1 -5 -5 -9t-9 -4h-23q-12 0 -10 13l18 126h-132z" />
    <glyph glyph-name="brokenbar" unicode="&#xa6;" horiz-adv-x="210" 
d="M117 388q-13 0 -11 13l48 345q3 13 15 13h6q5 0 8 -3.5t1 -9.5l-48 -345q-2 -13 -15 -13h-4zM67 120q2 13 14 13h6q12 0 10 -13l-49 -346q-2 -12 -14 -12h-5q-13 0 -11 12z" />
    <glyph glyph-name="section" unicode="&#xa7;" horiz-adv-x="536" 
d="M42 -114q5 5 9.5 5.5t9.5 -4.5q2 -3 13.5 -15.5t30.5 -25.5t45.5 -23.5t58.5 -10.5q28 0 56.5 9.5t51.5 27.5t37.5 44t14.5 58q0 53 -38.5 86.5t-107.5 60.5q-32 13 -59 28.5t-46.5 36t-30 46t-10.5 57.5q0 30 10 53.5t23.5 41.5t27 30t19.5 18q-3 5 -10.5 14.5t-15 24
t-13 32.5t-5.5 41q0 30 12 63t38.5 61t68 46.5t100.5 18.5q32 0 59 -8t47 -18q23 -11 41 -25q3 -2 5.5 -7t-4.5 -13l-12 -15q-4 -5 -8.5 -7t-11.5 3q-2 1 -12 8.5t-26.5 16.5t-38 16t-45.5 7q-45 0 -76.5 -14t-51.5 -35t-29.5 -47t-9.5 -50q0 -49 33.5 -81t89.5 -53
q39 -15 71 -31.5t55 -36.5t35.5 -45.5t12.5 -58.5q0 -29 -11.5 -53t-26 -42.5t-28.5 -31t-20 -18.5l12 -15t16 -25t14 -34t6 -43q0 -40 -17.5 -74t-47.5 -58.5t-69 -38t-82 -13.5q-38 0 -68.5 10.5t-53 24.5t-36 26.5t-17.5 17.5q-3 4 -5.5 8.5t5.5 12.5zM244 143
q51 -20 93 -49q4 5 15.5 14.5t23 23.5t20.5 32.5t9 42.5q0 25 -10 45t-29 36t-46.5 30t-61.5 28q-20 8 -40.5 18t-33.5 20q-6 -5 -16 -14t-19.5 -22.5t-17 -32t-7.5 -42.5q0 -50 33 -79t87 -51z" />
    <glyph glyph-name="dieresis" unicode="&#xa8;" horiz-adv-x="373" 
d="M311 590q-15 0 -24.5 10.5t-9.5 24.5q0 19 13 32t30 13q16 0 26 -10.5t10 -25.5q0 -18 -13.5 -31t-31.5 -13zM139 590q-15 0 -25 10.5t-10 24.5q0 19 13.5 32t30.5 13q16 0 25 -10.5t9 -25.5q0 -18 -12.5 -31t-30.5 -13z" />
    <glyph glyph-name="copyright" unicode="&#xa9;" horiz-adv-x="795" 
d="M78 302q0 84 31 158t83 129.5t121 88t144 32.5q58 0 109 -25t88.5 -67.5t59 -99.5t21.5 -121q0 -84 -31 -158t-83.5 -129.5t-121 -87.5t-143.5 -32q-59 0 -109.5 24.5t-88 67t-59 99t-21.5 121.5zM117 307q0 -57 18 -108t50.5 -88.5t77.5 -59.5t98 -22q65 0 125 28.5
t106.5 78t74.5 116t28 141.5q0 57 -18 107.5t-50.5 88t-77.5 59.5t-98 22q-65 0 -125 -28.5t-106.5 -78t-74.5 -115.5t-28 -141zM241 323q0 45 16 84t43 68t63.5 46t77.5 17q27 0 53 -9t46 -29q9 -9 -1 -19l-11 -11q-5 -5 -9 -4.5t-8 3.5q-15 16 -35 22.5t-40 6.5
q-30 0 -57 -13.5t-48 -36.5t-33 -54t-12 -66q0 -26 7.5 -49.5t22 -40.5t34.5 -27t45 -10q42 0 82 31q13 8 18 -2l8 -12q5 -10 -4 -17q-26 -23 -54 -33t-58 -10t-56.5 13t-46.5 35.5t-31.5 52.5t-11.5 64z" />
    <glyph glyph-name="ordfeminine" unicode="&#xaa;" horiz-adv-x="330" 
d="M155 403q-32 0 -52 22t-20 60q0 50 33.5 81.5t90.5 31.5q20 0 37.5 -4.5t21.5 -6.5q7 47 1 69t-40 22q-32 0 -53 -9t-27 -11q-9 -3 -11.5 4.5t-2.5 12.5t3 8t6 5q4 2 27.5 12t64.5 10q29 0 44 -10.5t21 -28.5t4.5 -43t-5.5 -54l-22 -154q-2 -10 -11 -10h-11q-8 0 -8 8v23
q-14 -12 -37.5 -25t-53.5 -13zM162 434q28 0 52.5 14.5t35.5 28.5l11 83q-7 3 -22.5 7t-37.5 4q-37 0 -61.5 -22.5t-24.5 -57.5q0 -26 12.5 -41.5t34.5 -15.5z" />
    <glyph glyph-name="guillemotleft" unicode="&#xab;" horiz-adv-x="398" 
d="M192 229q-4 9 3 17l116 154q5 6 8.5 7.5t8.5 1.5h16q6 0 7 -5t-4 -13l-103 -153l59 -157q3 -8 0.5 -13t-7.5 -5h-17q-4 0 -7.5 1.5t-6.5 7.5zM48 229q-4 9 3 17l116 154q5 6 8.5 7.5t8.5 1.5h16q6 0 7 -5t-4 -13l-103 -153l59 -157q3 -8 0.5 -13t-7.5 -5h-17
q-4 0 -7.5 1.5t-6.5 7.5z" />
    <glyph glyph-name="logicalnot" unicode="&#xac;" horiz-adv-x="553" 
d="M105 327q-12 0 -10 13l2 16q2 13 14 13h346q11 0 9 -13l-28 -201q-2 -12 -14 -12h-14q-5 0 -8 3.5t-2 8.5l24 172h-319z" />
    <glyph glyph-name="uni00AD" unicode="&#xad;" horiz-adv-x="376" 
d="M80 231q-12 0 -10 13l1 11q2 13 14 13h200q13 0 11 -13l-1 -11q-2 -13 -15 -13h-200z" />
    <glyph glyph-name="registered" unicode="&#xae;" horiz-adv-x="795" 
d="M78 302q0 84 31 158t83 129.5t121 88t144 32.5q58 0 109 -25t88.5 -67.5t59 -99.5t21.5 -121q0 -84 -31 -158t-83.5 -129.5t-121 -87.5t-143.5 -32q-59 0 -109.5 24.5t-88 67t-59 99t-21.5 121.5zM117 307q0 -57 18 -108t50.5 -88.5t77.5 -59.5t98 -22q65 0 125 28.5
t106.5 78t74.5 116t28 141.5q0 57 -18 107.5t-50.5 88t-77.5 59.5t-98 22q-65 0 -125 -28.5t-106.5 -78t-74.5 -115.5t-28 -141zM315 523q2 13 14 13h131q18 0 35.5 -6t32 -18t23 -30t8.5 -42q0 -32 -9.5 -54.5t-24.5 -38t-32.5 -24.5t-33.5 -12l43 -128q2 -5 -0.5 -10
t-9.5 -5h-21q-9 0 -12 10l-40 130h-94l-18 -128q-2 -13 -14 -13h-16q-12 0 -10 13zM433 345q16 0 31.5 6t27.5 17.5t19 28.5t7 39q0 35 -22 49.5t-54 14.5h-90l-22 -155h103z" />
    <glyph glyph-name="macron" unicode="&#xaf;" horiz-adv-x="373" 
d="M50 595q-13 0 -11 12l2 13q2 13 14 13h242q13 0 11 -13l-2 -13q-2 -12 -14 -12h-242z" />
    <glyph glyph-name="degree" unicode="&#xb0;" horiz-adv-x="355" 
d="M198 435q-48 0 -77 34.5t-29 84.5q0 33 12 61.5t31.5 49.5t45.5 33t55 12q23 0 42.5 -9t33.5 -25t22 -38t8 -47q0 -32 -12 -60.5t-32.5 -49.5t-46.5 -33.5t-53 -12.5zM203 470q19 0 37.5 9.5t33 25t23.5 36.5t9 45q0 36 -21.5 62t-53.5 26q-20 0 -38.5 -9t-33.5 -24.5
t-24 -36.5t-9 -44q0 -37 22 -63.5t55 -26.5z" />
    <glyph glyph-name="plusminus" unicode="&#xb1;" 
d="M288 243q-12 0 -10 13l18 126h-152q-5 0 -8.5 4t-2.5 9l3 15q2 13 13 13h152l24 168q2 12 14 12h19q5 0 8 -3.5t2 -8.5l-24 -168h152q11 0 9 -13l-3 -15q-2 -13 -11 -13h-152l-18 -126q-1 -5 -5 -9t-9 -4h-19zM100 74q-5 0 -8 4t-2 9l2 15q1 5 5 9t9 4h347q10 0 8 -13
l-2 -15q-2 -13 -12 -13h-347z" />
    <glyph glyph-name="uni00B2" unicode="&#xb2;" horiz-adv-x="267" 
d="M112 755q-4 4 1 10q11 12 25 22q12 8 28.5 15.5t37.5 7.5q40 0 61.5 -22.5t21.5 -54.5q0 -28 -15 -54t-38 -47l-107 -97h125q7 0 6 -8l-2 -15q0 -8 -8 -8h-173q-7 0 -7 8l1 9l141 130q15 14 28.5 33t13.5 42q0 20 -13 35.5t-42 15.5q-25 0 -41 -14t-22 -20t-10 0z" />
    <glyph glyph-name="uni00B3" unicode="&#xb3;" horiz-adv-x="277" 
d="M133 661q0 8 8 8h41q13 0 26 5.5t23 14.5t16 20.5t6 22.5q0 21 -14 33.5t-38 12.5q-15 0 -26.5 -4t-20 -9t-14 -10t-7.5 -7t-4.5 -2.5t-4.5 1.5l-10 11q-4 6 1 11q11 11 25 20q12 8 29 14.5t39 6.5q32 0 57 -19t25 -52q0 -26 -16.5 -48t-41.5 -35q12 -5 22 -14
q8 -8 15.5 -20t7.5 -30q0 -22 -10 -40t-26 -31t-37 -20t-43 -7q-21 0 -36.5 5t-26 11.5t-16.5 13.5t-9 11q-5 5 2 11l11 11q7 7 11 0q3 -3 7.5 -8t12 -10.5t19.5 -9.5t29 -4q13 0 27 4.5t24.5 13t17.5 20.5t7 27q0 20 -15 34.5t-48 14.5h-41q-8 0 -6 10z" />
    <glyph glyph-name="acute" unicode="&#xb4;" horiz-adv-x="272" 
d="M106 559q-12 -5 -15 3l-4 11q-3 8 8 14l157 90q3 2 8.5 2t7.5 -5l9 -21q3 -10 -6 -15z" />
    <glyph glyph-name="mu" unicode="&#xb5;" horiz-adv-x="500" 
d="M206 -11q-38 0 -63 12t-40 34l-37 -258q-2 -15 -16 -15h-13q-7 0 -9.5 4.5t-1.5 10.5l94 670q1 6 5.5 10.5t9.5 4.5h16q6 0 10 -4.5t3 -10.5l-37 -254q-12 -81 8.5 -121.5t80.5 -40.5q32 0 57 12t43 27t28 28t12 15l47 334q1 15 16 15h16q5 0 9 -4.5t2 -10.5l-59 -432
q-1 -6 -4.5 -10.5t-9.5 -4.5h-12q-6 0 -8.5 4.5t-2.5 9.5l2 42q-5 -6 -16.5 -17.5t-30 -22.5t-43.5 -19t-56 -8z" />
    <glyph glyph-name="paragraph" unicode="&#xb6;" horiz-adv-x="658" 
d="M281 283h-65q-36 0 -64 14t-47 37.5t-29 55t-10 66.5q0 40 14.5 83t42 79t66 59t86.5 23h385q12 0 10 -13l-2 -12q-2 -13 -14 -13h-91l-124 -887q-2 -13 -14 -13h-15q-10 0 -9 13l124 887h-153l-124 -887q-2 -13 -13 -13h-15q-11 0 -10 13z" />
    <glyph glyph-name="periodcentered" unicode="&#xb7;" horiz-adv-x="227" 
d="M105 221q-15 0 -25 10.5t-10 24.5q0 20 14.5 32.5t31.5 12.5q15 0 24 -10t9 -25q0 -19 -13 -32t-31 -13z" />
    <glyph glyph-name="cedilla" unicode="&#xb8;" horiz-adv-x="247" 
d="M176 0h-2l-51 -69q10 2 15 2q15 0 29.5 -4t26.5 -12.5t19.5 -23t7.5 -35.5q0 -20 -9 -37t-24.5 -30t-36 -20t-44.5 -7q-28 0 -48.5 9.5t-31.5 21.5q-3 4 -2 7.5t3 5.5l12 19q6 9 14 1q10 -10 21.5 -17.5t31.5 -7.5q10 0 22.5 3t23 9.5t17.5 16.5t7 25q0 20 -15 29t-38 9
q-14 0 -27.5 -2.5t-23.5 -6.5q-5 -2 -10 4t-2 11l72 101z" />
    <glyph glyph-name="uni00B9" unicode="&#xb9;" horiz-adv-x="172" 
d="M122 504q-8 0 -6 8l34 239l-47 -26q-6 -3 -8 2l-4 13q-2 6 4 11l76 49h11q3 0 6 -1.5t2 -6.5l-39 -280q-2 -8 -8 -8h-21z" />
    <glyph glyph-name="ordmasculine" unicode="&#xba;" horiz-adv-x="338" 
d="M183 394q-45 0 -68 30.5t-23 86.5q0 46 10.5 82.5t29 62.5t43.5 40t53 14q45 0 68 -30.5t23 -85.5q0 -46 -10.5 -83t-28.5 -63t-43 -40t-54 -14zM188 427q42 0 68.5 44t26.5 121q0 41 -15 63.5t-45 22.5q-41 0 -68 -45t-27 -122q0 -40 15 -62t45 -22z" />
    <glyph glyph-name="guillemotright" unicode="&#xbb;" horiz-adv-x="398" 
d="M182 63q-13 0 -2 18l103 157l-60 153q-3 8 -0.5 13t8.5 5h16q5 0 8 -1.5t6 -7.5l73 -154q4 -7 -2 -17l-117 -157q-5 -6 -8.5 -7.5t-8.5 -1.5h-16zM38 63q-13 0 -2 18l103 157l-60 153q-3 8 -0.5 13t8.5 5h16q5 0 8 -1.5t6 -7.5l73 -154q4 -7 -2 -17l-117 -157
q-5 -6 -8.5 -7.5t-8.5 -1.5h-16z" />
    <glyph glyph-name="onequarter" unicode="&#xbc;" horiz-adv-x="611" 
d="M479 693q3 5 7 6t7 1h18q6 0 8 -4t-2 -10l-433 -676q-5 -8 -9.5 -9t-7.5 -1h-17q-6 0 -8 4t2 10zM136 404q-8 0 -6 8l34 239l-47 -26q-6 -3 -8 2l-4 13q-2 6 4 11l76 49h11q3 0 6 -1.5t2 -6.5l-39 -280q-2 -8 -8 -8h-21zM300 87l199 209h13q3 0 6 -2.5t2 -6.5l-26 -185
h35q3 0 5.5 -2t1.5 -6l-2 -16q-2 -8 -9 -8h-35l-9 -61q-2 -9 -10 -9h-19q-3 0 -6 2.5t-2 6.5l8 60h-147q-8 0 -6 9zM457 103l18 126l-117 -126h99z" />
    <glyph glyph-name="onehalf" unicode="&#xbd;" horiz-adv-x="614" 
d="M479 693q3 5 7 6t7 1h18q6 0 8 -4t-2 -10l-433 -676q-5 -8 -9.5 -9t-7.5 -1h-17q-6 0 -8 4t2 10zM136 404q-8 0 -6 8l34 239l-47 -26q-6 -3 -8 2l-4 13q-2 6 4 11l76 49h11q3 0 6 -1.5t2 -6.5l-39 -280q-2 -8 -8 -8h-21zM375 251q-4 4 1 10q11 12 25 22q12 8 28.5 15.5
t37.5 7.5q40 0 61.5 -22.5t21.5 -54.5q0 -28 -15 -54t-38 -47l-107 -97h125q7 0 6 -8l-2 -15q0 -8 -8 -8h-173q-7 0 -7 8l1 9l141 130q15 14 28.5 33t13.5 42q0 20 -13 35.5t-42 15.5q-25 0 -41 -14t-22 -20t-10 0z" />
    <glyph glyph-name="threequarters" unicode="&#xbe;" horiz-adv-x="683" 
d="M551 693q3 5 7 6t7 1h18q6 0 8 -4t-2 -10l-433 -676q-5 -8 -9.5 -9t-7.5 -1h-17q-6 0 -8 4t2 10zM372 87l199 209h13q3 0 6 -2.5t2 -6.5l-26 -185h35q3 0 5.5 -2t1.5 -6l-2 -16q-2 -8 -9 -8h-35l-9 -61q-2 -9 -10 -9h-19q-3 0 -6 2.5t-2 6.5l8 60h-147q-8 0 -6 9z
M529 103l18 126l-117 -126h99zM137 561q0 8 8 8h41q13 0 26 5.5t23 14.5t16 20.5t6 22.5q0 21 -14 33.5t-38 12.5q-15 0 -26.5 -4t-20 -9t-14 -10t-7.5 -7t-4.5 -2.5t-4.5 1.5l-10 11q-4 6 1 11q11 11 25 20q12 8 29 14.5t39 6.5q32 0 57 -19t25 -52q0 -26 -16.5 -48
t-41.5 -35q12 -5 22 -14q8 -8 15.5 -20t7.5 -30q0 -22 -10 -40t-26 -31t-37 -20t-43 -7q-21 0 -36.5 5t-26 11.5t-16.5 13.5t-9 11q-5 5 2 11l11 11q7 7 11 0q3 -3 7.5 -8t12 -10.5t19.5 -9.5t29 -4q13 0 27 4.5t24.5 13t17.5 20.5t7 27q0 20 -15 34.5t-48 14.5h-41
q-8 0 -6 10z" />
    <glyph glyph-name="questiondown" unicode="&#xbf;" horiz-adv-x="393" 
d="M220 392q-15 0 -25 10t-10 25q0 19 14 32t32 13q14 0 23.5 -10.5t9.5 -24.5q0 -20 -13.5 -32.5t-30.5 -12.5zM119 57q41 32 45 61l8 57q2 14 14 14h17q13 0 12 -14l-8 -58q-4 -29 -21 -51t-43 -41q-20 -15 -40.5 -30t-37 -32t-27 -37.5t-10.5 -46.5q0 -15 5.5 -30.5
t16.5 -28t27 -20t38 -7.5q29 0 52 8.5t39.5 20t26.5 23t14 17.5q2 4 6 5.5t11 -3.5l14 -10q8 -5 6 -9.5t-5 -9.5q-16 -24 -40 -42q-21 -16 -52.5 -28.5t-76.5 -12.5q-30 0 -54 9.5t-40.5 26t-25 38.5t-8.5 46q0 37 14.5 65t36 50t45 39t41.5 31z" />
    <glyph glyph-name="Agrave" unicode="&#xc0;" horiz-adv-x="605" 
d="M-19 0q-12 0 -5 14l370 689q3 7 13 7h3q4 0 7 -1t5 -6l182 -691q2 -5 -0.5 -8.5t-10.5 -3.5h-26q-7 0 -9.5 3t-3.5 6l-46 184h-338l-96 -184q-2 -3 -5.5 -6t-10.5 -3h-29zM449 232l-96 398h-3l-205 -398h304zM304 862q-8 5 -1 15l12 19q6 10 17 3l132 -90q8 -5 4 -14
l-6 -9q-3 -4 -6 -5t-10 2z" />
    <glyph glyph-name="Aacute" unicode="&#xc1;" horiz-adv-x="605" 
d="M-19 0q-12 0 -5 14l370 689q3 7 13 7h3q4 0 7 -1t5 -6l182 -691q2 -5 -0.5 -8.5t-10.5 -3.5h-26q-7 0 -9.5 3t-3.5 6l-46 184h-338l-96 -184q-2 -3 -5.5 -6t-10.5 -3h-29zM449 232l-96 398h-3l-205 -398h304zM310 781q-12 -5 -15 3l-4 11q-3 8 8 14l157 90q3 2 8.5 2
t7.5 -5l9 -21q3 -10 -6 -15z" />
    <glyph glyph-name="Acircumflex" unicode="&#xc2;" horiz-adv-x="605" 
d="M-19 0q-12 0 -5 14l370 689q3 7 13 7h3q4 0 7 -1t5 -6l182 -691q2 -5 -0.5 -8.5t-10.5 -3.5h-26q-7 0 -9.5 3t-3.5 6l-46 184h-338l-96 -184q-2 -3 -5.5 -6t-10.5 -3h-29zM449 232l-96 398h-3l-205 -398h304zM273 768q-7 -5 -10 -3t-5 5l-7 11q-4 7 4 14l123 98q6 5 12 5
q4 0 9 -5l96 -98q3 -3 4.5 -6.5t-2.5 -7.5l-7 -8q-3 -3 -6.5 -5t-8.5 3l-89 81z" />
    <glyph glyph-name="Atilde" unicode="&#xc3;" horiz-adv-x="605" 
d="M-19 0q-12 0 -5 14l370 689q3 7 13 7h3q4 0 7 -1t5 -6l182 -691q2 -5 -0.5 -8.5t-10.5 -3.5h-26q-7 0 -9.5 3t-3.5 6l-46 184h-338l-96 -184q-2 -3 -5.5 -6t-10.5 -3h-29zM449 232l-96 398h-3l-205 -398h304zM251 804q-9 3 -4 14q3 7 10 21t18 28.5t27 25.5t39 11
t34.5 -14t19 -31.5t15 -31.5t22.5 -14q12 0 21.5 6.5t16 16t11 19.5t7.5 17q5 12 15 7l12 -4q2 -2 4 -4.5t0 -8.5q-1 -3 -6.5 -17t-17 -29t-28.5 -27.5t-41 -12.5q-23 0 -34.5 14.5t-19.5 31.5t-15.5 31.5t-21.5 14.5q-13 0 -22.5 -7.5t-17 -17.5t-12 -20.5l-7.5 -17.5
q-4 -11 -14 -6z" />
    <glyph glyph-name="Adieresis" unicode="&#xc4;" horiz-adv-x="605" 
d="M-19 0q-12 0 -5 14l370 689q3 7 13 7h3q4 0 7 -1t5 -6l182 -691q2 -5 -0.5 -8.5t-10.5 -3.5h-26q-7 0 -9.5 3t-3.5 6l-46 184h-338l-96 -184q-2 -3 -5.5 -6t-10.5 -3h-29zM449 232l-96 398h-3l-205 -398h304zM471 795q-14 0 -24 10.5t-10 24.5q0 19 13.5 32t30.5 13
q15 0 25 -10.5t10 -25.5q0 -18 -13.5 -31t-31.5 -13zM283 795q-15 0 -24.5 10.5t-9.5 24.5q0 19 13.5 32t30.5 13q15 0 25 -10.5t10 -25.5q0 -18 -13.5 -31t-31.5 -13z" />
    <glyph glyph-name="Aring" unicode="&#xc5;" horiz-adv-x="605" 
d="M-19 0q-12 0 -5 14l370 689q3 7 13 7h3q4 0 7 -1t5 -6l182 -691q2 -5 -0.5 -8.5t-10.5 -3.5h-26q-7 0 -9.5 3t-3.5 6l-46 184h-338l-96 -184q-2 -3 -5.5 -6t-10.5 -3h-29zM449 232l-96 398h-3l-205 -398h304zM373 754q-37 0 -60 26.5t-23 64.5q0 25 8.5 47.5t24 39t36 26
t44.5 9.5q36 0 59 -27t23 -65q0 -26 -8.5 -48t-23.5 -38t-35.5 -25.5t-44.5 -9.5zM378 786q32 0 52.5 25t20.5 59q0 26 -14.5 45t-37.5 19q-32 0 -54 -24.5t-22 -58.5q0 -26 15.5 -45.5t39.5 -19.5z" />
    <glyph glyph-name="AE" unicode="&#xc6;" horiz-adv-x="824" 
d="M-34 0q-7 0 -6.5 5t5.5 12l472 666q5 7 11 12t17 5h352q13 0 11 -13l-2 -16q-2 -13 -15 -13h-328l-39 -277h282q8 0 12.5 -3.5t2.5 -11.5l-2 -13q-1 -6 -4.5 -10.5t-11.5 -4.5h-285l-41 -296h328q14 0 11 -15l-3 -14q-2 -13 -14 -13h-359q-13 0 -11 13l25 180h-235
l-127 -184q-8 -9 -17 -9h-29zM380 232l53 382l-266 -382h213z" />
    <glyph glyph-name="Ccedilla" unicode="&#xc7;" horiz-adv-x="656" 
d="M65 301q0 86 30.5 161t82.5 130t121 86.5t145 31.5q69 0 119 -24t88 -69q8 -9 -1 -18l-17 -15q-9 -7 -17 1q-32 38 -77.5 59t-99.5 21q-64 0 -122.5 -28.5t-103 -77.5t-71 -114.5t-26.5 -138.5q0 -56 17 -104.5t48 -84.5t74 -57t95 -21q58 0 106.5 24t88.5 60q10 8 16 2
l19 -21q7 -8 -2 -17q-51 -46 -105.5 -69.5t-110.5 -26.5l-44 -60q10 2 15 2q15 0 29.5 -4t26.5 -12.5t19.5 -23t7.5 -35.5q0 -20 -9 -37t-24.5 -30t-36 -20t-44.5 -7q-28 0 -48.5 9.5t-31.5 21.5q-3 4 -2 7.5t3 5.5l12 19q6 9 14 1q10 -10 21.5 -17.5t31.5 -7.5q10 0 22.5 3
t23 9.5t17.5 16.5t7 25q0 20 -15 29t-38 9q-14 0 -27.5 -2.5t-23.5 -6.5q-5 -2 -10 4t-2 11l64 90q-56 5 -103 31t-80.5 67.5t-52.5 95.5t-19 116z" />
    <glyph glyph-name="Egrave" unicode="&#xc8;" horiz-adv-x="538" 
d="M158 687q1 5 5 9t9 4h360q13 0 11 -13l-2 -17q-2 -13 -15 -13h-324l-39 -276h280q13 0 11 -13l-2 -17q-2 -13 -15 -13h-280l-42 -296h325q13 0 11 -13l-3 -16q-2 -13 -14 -13h-360q-13 0 -11 13zM285 862q-8 5 -1 15l12 19q6 10 17 3l132 -90q8 -5 4 -14l-6 -9
q-3 -4 -6 -5t-10 2z" />
    <glyph glyph-name="Eacute" unicode="&#xc9;" horiz-adv-x="538" 
d="M158 687q1 5 5 9t9 4h360q13 0 11 -13l-2 -17q-2 -13 -15 -13h-324l-39 -276h280q13 0 11 -13l-2 -17q-2 -13 -15 -13h-280l-42 -296h325q13 0 11 -13l-3 -16q-2 -13 -14 -13h-360q-13 0 -11 13zM291 781q-12 -5 -15 3l-4 11q-3 8 8 14l157 90q3 2 8.5 2t7.5 -5l9 -21
q3 -10 -6 -15z" />
    <glyph glyph-name="Ecircumflex" unicode="&#xca;" horiz-adv-x="538" 
d="M158 687q1 5 5 9t9 4h360q13 0 11 -13l-2 -17q-2 -13 -15 -13h-324l-39 -276h280q13 0 11 -13l-2 -17q-2 -13 -15 -13h-280l-42 -296h325q13 0 11 -13l-3 -16q-2 -13 -14 -13h-360q-13 0 -11 13zM250 768q-7 -5 -10 -3t-5 5l-7 11q-4 7 4 14l123 98q6 5 12 5q4 0 9 -5
l96 -98q3 -3 4.5 -6.5t-2.5 -7.5l-7 -8q-3 -3 -6.5 -5t-8.5 3l-89 81z" />
    <glyph glyph-name="Edieresis" unicode="&#xcb;" horiz-adv-x="538" 
d="M158 687q1 5 5 9t9 4h360q13 0 11 -13l-2 -17q-2 -13 -15 -13h-324l-39 -276h280q13 0 11 -13l-2 -17q-2 -13 -15 -13h-280l-42 -296h325q13 0 11 -13l-3 -16q-2 -13 -14 -13h-360q-13 0 -11 13zM452 795q-14 0 -24 10.5t-10 24.5q0 19 13.5 32t30.5 13q15 0 25 -10.5
t10 -25.5q0 -18 -13.5 -31t-31.5 -13zM264 795q-15 0 -24.5 10.5t-9.5 24.5q0 19 13.5 32t30.5 13q15 0 25 -10.5t10 -25.5q0 -18 -13.5 -31t-31.5 -13z" />
    <glyph glyph-name="Igrave" unicode="&#xcc;" horiz-adv-x="252" 
d="M158 687q2 13 15 13h22q13 0 11 -13l-94 -674q-3 -13 -16 -13h-21q-13 0 -11 13zM122 862q-8 5 -1 15l12 19q6 10 17 3l132 -90q8 -5 4 -14l-6 -9q-3 -4 -6 -5t-10 2z" />
    <glyph glyph-name="Iacute" unicode="&#xcd;" horiz-adv-x="252" 
d="M158 687q2 13 15 13h22q13 0 11 -13l-94 -674q-3 -13 -16 -13h-21q-13 0 -11 13zM126 781q-12 -5 -15 3l-4 11q-3 8 8 14l157 90q3 2 8.5 2t7.5 -5l9 -21q3 -10 -6 -15z" />
    <glyph glyph-name="Icircumflex" unicode="&#xce;" horiz-adv-x="252" 
d="M158 687q2 13 15 13h22q13 0 11 -13l-94 -674q-3 -13 -16 -13h-21q-13 0 -11 13zM91 768q-7 -5 -10 -3t-5 5l-7 11q-4 7 4 14l123 98q6 5 12 5q4 0 9 -5l96 -98q3 -3 4.5 -6.5t-2.5 -7.5l-7 -8q-3 -3 -6.5 -5t-8.5 3l-89 81z" />
    <glyph glyph-name="Idieresis" unicode="&#xcf;" horiz-adv-x="252" 
d="M158 687q2 13 15 13h22q13 0 11 -13l-94 -674q-3 -13 -16 -13h-21q-13 0 -11 13zM291 795q-14 0 -24 10.5t-10 24.5q0 19 13.5 32t30.5 13q15 0 25 -10.5t10 -25.5q0 -18 -13.5 -31t-31.5 -13zM103 795q-15 0 -24.5 10.5t-9.5 24.5q0 19 13.5 32t30.5 13q15 0 25 -10.5
t10 -25.5q0 -18 -13.5 -31t-31.5 -13z" />
    <glyph glyph-name="Eth" unicode="&#xd0;" horiz-adv-x="691" 
d="M109 332h-31q-12 0 -10 13l1 7q2 11 14 11h30l46 324q2 13 13 13h200q59 0 109 -24t86 -65.5t56.5 -96.5t20.5 -118q0 -82 -31 -154t-82.5 -126t-118 -85t-138.5 -31h-200q-12 0 -10 13zM272 43q64 0 122 27t102 74t70 111.5t26 138.5q0 55 -17 103.5t-48 83.5t-74 55.5
t-95 20.5h-157l-41 -294h219q13 0 11 -11l-1 -8q-1 -5 -5 -8.5t-9 -3.5h-219l-41 -289h157z" />
    <glyph glyph-name="Ntilde" unicode="&#xd1;" horiz-adv-x="709" 
d="M160 697q3 13 16 13h5q9 0 15 -9l338 -612h2l82 598q2 13 15 13h20q13 0 11 -13l-96 -684q-1 -7 -6 -10t-11 -3h-6q-9 0 -15 9l-336 614h-1l-84 -600q-2 -10 -9.5 -11.5t-15.5 -1.5h-9q-13 0 -11 13zM303 804q-9 3 -4 14q3 7 10 21t18 28.5t27 25.5t39 11t34.5 -14
t19 -31.5t15 -31.5t22.5 -14q12 0 21.5 6.5t16 16t11 19.5t7.5 17q5 12 15 7l12 -4q2 -2 4 -4.5t0 -8.5q-1 -3 -6.5 -17t-17 -29t-28.5 -27.5t-41 -12.5q-23 0 -34.5 14.5t-19.5 31.5t-15.5 31.5t-21.5 14.5q-13 0 -22.5 -7.5t-17 -17.5t-12 -20.5l-7.5 -17.5q-4 -11 -14 -6
z" />
    <glyph glyph-name="Ograve" unicode="&#xd2;" horiz-adv-x="769" 
d="M65 300q0 85 30 159.5t82 130t120.5 88t146.5 32.5q59 0 110 -24.5t88.5 -67t58.5 -99.5t21 -122q0 -85 -30 -159t-82 -129t-120.5 -87t-146.5 -32q-59 0 -110 24t-88.5 66t-58.5 98.5t-21 121.5zM111 306q0 -56 17.5 -105.5t49 -86.5t75 -58.5t96.5 -21.5q64 0 123 28
t104.5 76.5t72.5 113.5t27 139q0 57 -17.5 107t-49 87.5t-75.5 59t-96 21.5q-64 0 -123 -28.5t-104.5 -77.5t-72.5 -114.5t-27 -139.5zM392 862q-8 5 -1 15l12 19q6 10 17 3l132 -90q8 -5 4 -14l-6 -9q-3 -4 -6 -5t-10 2z" />
    <glyph glyph-name="Oacute" unicode="&#xd3;" horiz-adv-x="769" 
d="M65 300q0 85 30 159.5t82 130t120.5 88t146.5 32.5q59 0 110 -24.5t88.5 -67t58.5 -99.5t21 -122q0 -85 -30 -159t-82 -129t-120.5 -87t-146.5 -32q-59 0 -110 24t-88.5 66t-58.5 98.5t-21 121.5zM111 306q0 -56 17.5 -105.5t49 -86.5t75 -58.5t96.5 -21.5q64 0 123 28
t104.5 76.5t72.5 113.5t27 139q0 57 -17.5 107t-49 87.5t-75.5 59t-96 21.5q-64 0 -123 -28.5t-104.5 -77.5t-72.5 -114.5t-27 -139.5zM396 781q-12 -5 -15 3l-4 11q-3 8 8 14l157 90q3 2 8.5 2t7.5 -5l9 -21q3 -10 -6 -15z" />
    <glyph glyph-name="Ocircumflex" unicode="&#xd4;" horiz-adv-x="769" 
d="M65 300q0 85 30 159.5t82 130t120.5 88t146.5 32.5q59 0 110 -24.5t88.5 -67t58.5 -99.5t21 -122q0 -85 -30 -159t-82 -129t-120.5 -87t-146.5 -32q-59 0 -110 24t-88.5 66t-58.5 98.5t-21 121.5zM111 306q0 -56 17.5 -105.5t49 -86.5t75 -58.5t96.5 -21.5q64 0 123 28
t104.5 76.5t72.5 113.5t27 139q0 57 -17.5 107t-49 87.5t-75.5 59t-96 21.5q-64 0 -123 -28.5t-104.5 -77.5t-72.5 -114.5t-27 -139.5zM360 768q-7 -5 -10 -3t-5 5l-7 11q-4 7 4 14l123 98q6 5 12 5q4 0 9 -5l96 -98q3 -3 4.5 -6.5t-2.5 -7.5l-7 -8q-3 -3 -6.5 -5t-8.5 3
l-89 81z" />
    <glyph glyph-name="Otilde" unicode="&#xd5;" horiz-adv-x="769" 
d="M65 300q0 85 30 159.5t82 130t120.5 88t146.5 32.5q59 0 110 -24.5t88.5 -67t58.5 -99.5t21 -122q0 -85 -30 -159t-82 -129t-120.5 -87t-146.5 -32q-59 0 -110 24t-88.5 66t-58.5 98.5t-21 121.5zM111 306q0 -56 17.5 -105.5t49 -86.5t75 -58.5t96.5 -21.5q64 0 123 28
t104.5 76.5t72.5 113.5t27 139q0 57 -17.5 107t-49 87.5t-75.5 59t-96 21.5q-64 0 -123 -28.5t-104.5 -77.5t-72.5 -114.5t-27 -139.5zM339 804q-9 3 -4 14q3 7 10 21t18 28.5t27 25.5t39 11t34.5 -14t19 -31.5t15 -31.5t22.5 -14q12 0 21.5 6.5t16 16t11 19.5t7.5 17
q5 12 15 7l12 -4q2 -2 4 -4.5t0 -8.5q-1 -3 -6.5 -17t-17 -29t-28.5 -27.5t-41 -12.5q-23 0 -34.5 14.5t-19.5 31.5t-15.5 31.5t-21.5 14.5q-13 0 -22.5 -7.5t-17 -17.5t-12 -20.5l-7.5 -17.5q-4 -11 -14 -6z" />
    <glyph glyph-name="Odieresis" unicode="&#xd6;" horiz-adv-x="769" 
d="M65 300q0 85 30 159.5t82 130t120.5 88t146.5 32.5q59 0 110 -24.5t88.5 -67t58.5 -99.5t21 -122q0 -85 -30 -159t-82 -129t-120.5 -87t-146.5 -32q-59 0 -110 24t-88.5 66t-58.5 98.5t-21 121.5zM111 306q0 -56 17.5 -105.5t49 -86.5t75 -58.5t96.5 -21.5q64 0 123 28
t104.5 76.5t72.5 113.5t27 139q0 57 -17.5 107t-49 87.5t-75.5 59t-96 21.5q-64 0 -123 -28.5t-104.5 -77.5t-72.5 -114.5t-27 -139.5zM559 795q-14 0 -24 10.5t-10 24.5q0 19 13.5 32t30.5 13q15 0 25 -10.5t10 -25.5q0 -18 -13.5 -31t-31.5 -13zM371 795q-15 0 -24.5 10.5
t-9.5 24.5q0 19 13.5 32t30.5 13q15 0 25 -10.5t10 -25.5q0 -18 -13.5 -31t-31.5 -13z" />
    <glyph glyph-name="multiply" unicode="&#xd7;" 
d="M149 209q-4 4 -3 9t6 9l125 122l-89 120q-3 4 -2.5 10t4.5 9l11 9q4 4 9.5 4t8.5 -4l90 -120l125 123q4 4 9 3.5t9 -4.5l12 -13q3 -3 2.5 -8.5t-4.5 -9.5l-126 -123l90 -120q3 -4 2 -9.5t-5 -8.5l-12 -9q-4 -3 -8.5 -4t-7.5 3l-91 121l-126 -122q-9 -7 -16 0z" />
    <glyph glyph-name="Oslash" unicode="&#xd8;" horiz-adv-x="768" 
d="M49 28q-6 10 2 18l65 62q-25 38 -38 89.5t-13 102.5q0 85 31 159.5t83.5 130t121 88t143.5 32.5q64 0 117 -26t90 -72l68 64q4 4 9 4.5t8 -4.5l3 -4q7 -9 -3 -18l-67 -64q25 -38 39 -90.5t14 -103.5q0 -84 -31.5 -158t-84 -129t-121.5 -87t-143 -32q-65 0 -118 25t-90 71
l-66 -62q-3 -4 -8 -4t-8 4zM616 581q-32 40 -78 62.5t-101 22.5q-64 0 -123 -28.5t-104.5 -77.5t-73 -114.5t-27.5 -140.5q0 -45 11 -89t32 -76zM170 118q32 -40 77.5 -62t101.5 -22q64 0 123 28t105 76.5t73.5 114t27.5 139.5q0 44 -11.5 89t-33.5 78z" />
    <glyph glyph-name="Ugrave" unicode="&#xd9;" horiz-adv-x="663" 
d="M152 687q1 5 5 9t9 4h22q13 0 11 -13l-62 -440q-3 -24 -3 -45q0 -78 42 -122t120 -44q89 0 147 56.5t72 153.5l63 441q2 13 15 13h21q5 0 8 -4t2 -9l-62 -445q-8 -57 -31 -103.5t-58.5 -79.5t-82 -51t-101.5 -18q-46 0 -83.5 14.5t-64 41.5t-41 65t-14.5 86q0 21 3 45z
M323 862q-8 5 -1 15l12 19q6 10 17 3l132 -90q8 -5 4 -14l-6 -9q-3 -4 -6 -5t-10 2z" />
    <glyph glyph-name="Uacute" unicode="&#xda;" horiz-adv-x="663" 
d="M152 687q1 5 5 9t9 4h22q13 0 11 -13l-62 -440q-3 -24 -3 -45q0 -78 42 -122t120 -44q89 0 147 56.5t72 153.5l63 441q2 13 15 13h21q5 0 8 -4t2 -9l-62 -445q-8 -57 -31 -103.5t-58.5 -79.5t-82 -51t-101.5 -18q-46 0 -83.5 14.5t-64 41.5t-41 65t-14.5 86q0 21 3 45z
M327 781q-12 -5 -15 3l-4 11q-3 8 8 14l157 90q3 2 8.5 2t7.5 -5l9 -21q3 -10 -6 -15z" />
    <glyph glyph-name="Ucircumflex" unicode="&#xdb;" horiz-adv-x="663" 
d="M152 687q1 5 5 9t9 4h22q13 0 11 -13l-62 -440q-3 -24 -3 -45q0 -78 42 -122t120 -44q89 0 147 56.5t72 153.5l63 441q2 13 15 13h21q5 0 8 -4t2 -9l-62 -445q-8 -57 -31 -103.5t-58.5 -79.5t-82 -51t-101.5 -18q-46 0 -83.5 14.5t-64 41.5t-41 65t-14.5 86q0 21 3 45z
M292 768q-7 -5 -10 -3t-5 5l-7 11q-4 7 4 14l123 98q6 5 12 5q4 0 9 -5l96 -98q3 -3 4.5 -6.5t-2.5 -7.5l-7 -8q-3 -3 -6.5 -5t-8.5 3l-89 81z" />
    <glyph glyph-name="Udieresis" unicode="&#xdc;" horiz-adv-x="663" 
d="M152 687q1 5 5 9t9 4h22q13 0 11 -13l-62 -440q-3 -24 -3 -45q0 -78 42 -122t120 -44q89 0 147 56.5t72 153.5l63 441q2 13 15 13h21q5 0 8 -4t2 -9l-62 -445q-8 -57 -31 -103.5t-58.5 -79.5t-82 -51t-101.5 -18q-46 0 -83.5 14.5t-64 41.5t-41 65t-14.5 86q0 21 3 45z
M492 795q-14 0 -24 10.5t-10 24.5q0 19 13.5 32t30.5 13q15 0 25 -10.5t10 -25.5q0 -18 -13.5 -31t-31.5 -13zM304 795q-15 0 -24.5 10.5t-9.5 24.5q0 19 13.5 32t30.5 13q15 0 25 -10.5t10 -25.5q0 -18 -13.5 -31t-31.5 -13z" />
    <glyph glyph-name="Yacute" unicode="&#xdd;" horiz-adv-x="527" 
d="M272 388l247 306q6 6 14 6h33q8 0 10 -4.5t-3 -10.5l-282 -344l-46 -328q-2 -13 -15 -13h-20q-12 0 -11 13l45 327l-181 347q-7 13 9 13h28q5 0 7.5 -2t3.5 -4l159 -306h2zM259 781q-12 -5 -15 3l-4 11q-3 8 8 14l157 90q3 2 8.5 2t7.5 -5l9 -21q3 -10 -6 -15z" />
    <glyph glyph-name="Thorn" unicode="&#xde;" horiz-adv-x="554" 
d="M158 687q1 5 5 9t9 4h22q13 0 11 -13l-16 -111h161q36 0 67.5 -15.5t55 -42t37.5 -61.5t14 -75q0 -53 -19.5 -99.5t-52 -81.5t-75.5 -55t-90 -20h-161l-16 -113q-2 -13 -18 -13h-18q-13 0 -11 13zM290 171q35 0 68.5 16.5t59.5 44.5t42 65.5t16 79.5q0 32 -10.5 59.5
t-28.5 48t-43 32.5t-54 12h-157l-51 -358h158z" />
    <glyph glyph-name="germandbls" unicode="&#xdf;" horiz-adv-x="556" 
d="M302 -11q-30 0 -55.5 7t-41.5 15q-6 3 -9.5 8.5t0.5 13.5l5 12q2 5 7.5 8.5t12.5 -0.5q15 -8 36.5 -15t51.5 -7q55 0 92.5 30.5t37.5 84.5q0 31 -19 58.5t-41.5 51.5t-41 44.5t-18.5 38.5q0 21 20 43.5t44.5 48t44.5 55t20 65.5q0 53 -30 84.5t-84 31.5q-40 0 -70 -14
t-51.5 -39t-34.5 -61t-19 -79l-99 -697q-2 -8 -5 -11.5t-11 -3.5h-19q-5 0 -8 5t-2 10l98 697q17 114 72 175t150 61q37 0 66.5 -12t50 -33t31.5 -50t11 -63q0 -42 -19.5 -75t-43.5 -58t-43.5 -43.5t-19.5 -31.5t18.5 -31.5t40.5 -43t40.5 -55t18.5 -66.5q0 -39 -14 -68.5
t-39 -49.5t-58.5 -30.5t-72.5 -10.5z" />
    <glyph glyph-name="agrave" unicode="&#xe0;" horiz-adv-x="517" 
d="M394 15q-1 -6 -6 -10.5t-10 -4.5h-9q-14 0 -13 16l2 40q-5 -6 -18 -17t-32.5 -22.5t-44.5 -19.5t-55 -8q-36 0 -65.5 16t-50.5 44.5t-32.5 67.5t-11.5 84q0 55 18.5 104.5t50 86.5t74 58.5t90.5 21.5q28 0 50.5 -7t38.5 -16t25.5 -18t12.5 -13l10 31q4 13 14 13h10
q5 0 9 -4.5t2 -10.5zM398 369q-1 2 -8.5 11.5t-22 20.5t-36 19.5t-51.5 8.5q-40 0 -74 -18.5t-59.5 -50t-40 -72.5t-14.5 -87q0 -33 9 -64t25 -54.5t39 -37.5t51 -14q32 0 59 12.5t46.5 27.5t30.5 28.5t12 15.5zM230 639q-8 5 -1 15l12 19q3 5 8 5.5t9 -2.5l132 -90
q8 -5 4 -14l-6 -9q-3 -4 -6 -5t-10 2z" />
    <glyph glyph-name="aacute" unicode="&#xe1;" horiz-adv-x="517" 
d="M394 15q-1 -6 -6 -10.5t-10 -4.5h-9q-14 0 -13 16l2 40q-5 -6 -18 -17t-32.5 -22.5t-44.5 -19.5t-55 -8q-36 0 -65.5 16t-50.5 44.5t-32.5 67.5t-11.5 84q0 55 18.5 104.5t50 86.5t74 58.5t90.5 21.5q28 0 50.5 -7t38.5 -16t25.5 -18t12.5 -13l10 31q4 13 14 13h10
q5 0 9 -4.5t2 -10.5zM398 369q-1 2 -8.5 11.5t-22 20.5t-36 19.5t-51.5 8.5q-40 0 -74 -18.5t-59.5 -50t-40 -72.5t-14.5 -87q0 -33 9 -64t25 -54.5t39 -37.5t51 -14q32 0 59 12.5t46.5 27.5t30.5 28.5t12 15.5zM261 559q-12 -5 -15 3l-4 11q-3 8 8 14l157 90q3 2 8.5 2
t7.5 -5l9 -21q3 -10 -6 -15z" />
    <glyph glyph-name="acircumflex" unicode="&#xe2;" horiz-adv-x="516" 
d="M394 15q-1 -6 -6 -10.5t-10 -4.5h-9q-14 0 -13 16l2 40q-5 -6 -18 -17t-32.5 -22.5t-44.5 -19.5t-55 -8q-36 0 -65.5 16t-50.5 44.5t-32.5 67.5t-11.5 84q0 55 18.5 104.5t50 86.5t74 58.5t90.5 21.5q28 0 50.5 -7t38.5 -16t25.5 -18t12.5 -13l10 31q4 13 14 13h10
q5 0 9 -4.5t2 -10.5zM398 369q-1 2 -8.5 11.5t-22 20.5t-36 19.5t-51.5 8.5q-40 0 -74 -18.5t-59.5 -50t-40 -72.5t-14.5 -87q0 -33 9 -64t25 -54.5t39 -37.5t51 -14q32 0 59 12.5t46.5 27.5t30.5 28.5t12 15.5zM186 563q-4 7 4 14l123 98q6 5 12 5q4 0 9 -5l96 -98
q3 -3 4.5 -6.5t-2.5 -7.5l-7 -8q-3 -3 -6.5 -5t-8.5 3l-89 81l-113 -84q-7 -5 -10 -3t-5 5z" />
    <glyph glyph-name="atilde" unicode="&#xe3;" horiz-adv-x="517" 
d="M394 15q-1 -6 -6 -10.5t-10 -4.5h-9q-14 0 -13 16l2 40q-5 -6 -18 -17t-32.5 -22.5t-44.5 -19.5t-55 -8q-36 0 -65.5 16t-50.5 44.5t-32.5 67.5t-11.5 84q0 55 18.5 104.5t50 86.5t74 58.5t90.5 21.5q28 0 50.5 -7t38.5 -16t25.5 -18t12.5 -13l10 31q4 13 14 13h10
q5 0 9 -4.5t2 -10.5zM398 369q-1 2 -8.5 11.5t-22 20.5t-36 19.5t-51.5 8.5q-40 0 -74 -18.5t-59.5 -50t-40 -72.5t-14.5 -87q0 -33 9 -64t25 -54.5t39 -37.5t51 -14q32 0 59 12.5t46.5 27.5t30.5 28.5t12 15.5zM192 584q-9 3 -4 14q3 7 10 21t18 28.5t27 25.5t39 11
t34.5 -14t19 -31.5t15 -31.5t22.5 -14q12 0 21.5 6.5t16 16t11 19.5t7.5 17q5 12 15 7l12 -4q2 -2 4 -4.5t0 -8.5q-1 -3 -6.5 -17t-17 -29t-28.5 -27.5t-41 -12.5q-23 0 -34.5 14.5t-19.5 31.5t-15.5 31.5t-21.5 14.5q-13 0 -22.5 -7.5t-17 -17.5t-12 -20.5l-7.5 -17.5
q-4 -11 -14 -6z" />
    <glyph glyph-name="adieresis" unicode="&#xe4;" horiz-adv-x="517" 
d="M394 15q-1 -6 -6 -10.5t-10 -4.5h-9q-14 0 -13 16l2 40q-5 -6 -18 -17t-32.5 -22.5t-44.5 -19.5t-55 -8q-36 0 -65.5 16t-50.5 44.5t-32.5 67.5t-11.5 84q0 55 18.5 104.5t50 86.5t74 58.5t90.5 21.5q28 0 50.5 -7t38.5 -16t25.5 -18t12.5 -13l10 31q4 13 14 13h10
q5 0 9 -4.5t2 -10.5zM398 369q-1 2 -8.5 11.5t-22 20.5t-36 19.5t-51.5 8.5q-40 0 -74 -18.5t-59.5 -50t-40 -72.5t-14.5 -87q0 -33 9 -64t25 -54.5t39 -37.5t51 -14q32 0 59 12.5t46.5 27.5t30.5 28.5t12 15.5zM402 590q-15 0 -24.5 10.5t-9.5 24.5q0 19 13 32t30 13
q16 0 26 -10.5t10 -25.5q0 -18 -13.5 -31t-31.5 -13zM230 590q-15 0 -25 10.5t-10 24.5q0 19 13.5 32t30.5 13q16 0 25 -10.5t9 -25.5q0 -18 -12.5 -31t-30.5 -13z" />
    <glyph glyph-name="aring" unicode="&#xe5;" horiz-adv-x="516" 
d="M394 15q-1 -6 -6 -10.5t-10 -4.5h-9q-14 0 -13 16l2 40q-5 -6 -18 -17t-32.5 -22.5t-44.5 -19.5t-55 -8q-36 0 -65.5 16t-50.5 44.5t-32.5 67.5t-11.5 84q0 55 18.5 104.5t50 86.5t74 58.5t90.5 21.5q28 0 50.5 -7t38.5 -16t25.5 -18t12.5 -13l10 31q4 13 14 13h10
q5 0 9 -4.5t2 -10.5zM398 369q-1 2 -8.5 11.5t-22 20.5t-36 19.5t-51.5 8.5q-40 0 -74 -18.5t-59.5 -50t-40 -72.5t-14.5 -87q0 -33 9 -64t25 -54.5t39 -37.5t51 -14q32 0 59 12.5t46.5 27.5t30.5 28.5t12 15.5zM301 510q-37 0 -60 26.5t-23 64.5q0 25 8.5 47.5t24 39t36 26
t44.5 9.5q36 0 59 -27t23 -65q0 -26 -8.5 -48t-23.5 -38t-35.5 -25.5t-44.5 -9.5zM306 542q32 0 52.5 25t20.5 59q0 26 -14.5 45t-37.5 19q-32 0 -54 -24.5t-22 -58.5q0 -26 15.5 -45.5t39.5 -19.5z" />
    <glyph glyph-name="ae" unicode="&#xe6;" horiz-adv-x="733" 
d="M146 -11q-51 0 -85.5 33.5t-34.5 93.5q0 38 14.5 71t40.5 57.5t61 38.5t76 14t67.5 -5.5t35.5 -10.5q6 39 8 67t-3.5 46t-21 26.5t-45.5 8.5q-27 0 -50 -4.5t-40.5 -9.5t-29 -10.5t-14.5 -6.5q-12 -3 -14 9l-3 18q-1 5 2.5 9t8.5 6q19 9 42 16q20 6 46.5 11t58.5 5
q48 0 71.5 -23t27.5 -63q28 37 75 61.5t104 24.5q30 0 55.5 -8.5t45 -24t30.5 -37t11 -48.5q0 -42 -22 -69t-55.5 -42t-74 -21.5t-77 -7.5t-65 0.5t-38.5 2.5l-12 -102q18 -40 52.5 -62t82.5 -22q27 0 47.5 4.5t36.5 11.5t28 15t22 15q5 4 10.5 4.5t9.5 -5.5l9 -15
q6 -10 -4 -19q-20 -17 -61.5 -35t-106.5 -18q-51 0 -87 23.5t-58 55.5q-13 -14 -32 -28t-42.5 -25.5t-49.5 -18.5t-53 -7zM158 31q22 0 43.5 6.5t39.5 16.5t32.5 22.5t23.5 23.5l19 141q-5 2 -31 9.5t-69 7.5q-29 0 -55 -10t-46.5 -28.5t-32.5 -44t-12 -56.5q0 -44 25 -66
t63 -22zM360 257q53 -5 103.5 -4t90.5 11.5t64 31.5t24 56q0 36 -29 56.5t-74 20.5q-23 0 -47.5 -7t-47 -20t-41.5 -30t-32 -38z" />
    <glyph glyph-name="ccedilla" unicode="&#xe7;" horiz-adv-x="479" 
d="M47 197q0 63 20.5 114t55 87t79.5 55t95 19q28 0 51 -7t41 -17.5t30.5 -23t20.5 -22.5q6 -7 -6 -21l-7 -8q-6 -7 -12 -4.5t-11 7.5q-6 7 -15.5 16t-23 17t-31.5 14t-41 6q-38 0 -74 -15.5t-64.5 -45.5t-46 -73t-17.5 -98q0 -33 11 -63t30.5 -53t46 -36.5t56.5 -13.5
q28 0 50.5 9t40 21t29 24.5t17.5 18.5q6 8 10 7.5t10 -5.5l12 -10q9 -8 1 -18t-21.5 -23.5t-32.5 -26.5t-43 -23.5t-52 -13.5l-44 -60q10 2 15 2q15 0 29.5 -4t26.5 -12.5t19.5 -23t7.5 -35.5q0 -20 -9 -37t-24.5 -30t-36 -20t-44.5 -7q-28 0 -48.5 9.5t-31.5 21.5
q-3 4 -2 7.5t3 5.5l12 19q6 9 14 1q10 -10 21.5 -17.5t31.5 -7.5q10 0 22.5 3t23 9.5t17.5 16.5t7 25q0 20 -15 29t-38 9q-14 0 -27.5 -2.5t-23.5 -6.5q-5 -2 -10 4t-2 11l63 89q-36 3 -66.5 20t-52.5 44.5t-34.5 64t-12.5 78.5z" />
    <glyph glyph-name="egrave" unicode="&#xe8;" horiz-adv-x="474" 
d="M47 193q0 57 17.5 107.5t49 88.5t75 60.5t96.5 22.5q61 0 101.5 -31.5t40.5 -85.5q0 -52 -32 -81.5t-81.5 -43.5t-108.5 -15.5t-113 2.5q-4 -40 3.5 -74t24.5 -59t43 -39t60 -14q25 0 45 5t36 12t28 15t20 14q14 10 22 -4l7 -11q2 -4 2 -8.5t-5 -9.5q-11 -8 -26 -17.5
t-35 -18t-44.5 -14t-54.5 -5.5q-41 0 -72.5 16t-53.5 43.5t-33.5 65t-11.5 79.5zM98 257q53 -4 104 -3t91.5 11.5t65 31t24.5 55.5q0 36 -29 56.5t-74 20.5q-33 0 -63.5 -13.5t-55 -37t-41.5 -54.5t-22 -67zM248 639q-8 5 -1 15l12 19q3 5 8 5.5t9 -2.5l132 -90q8 -5 4 -14
l-6 -9q-3 -4 -6 -5t-10 2z" />
    <glyph glyph-name="eacute" unicode="&#xe9;" horiz-adv-x="474" 
d="M47 193q0 57 17.5 107.5t49 88.5t75 60.5t96.5 22.5q61 0 101.5 -31.5t40.5 -85.5q0 -52 -32 -81.5t-81.5 -43.5t-108.5 -15.5t-113 2.5q-4 -40 3.5 -74t24.5 -59t43 -39t60 -14q25 0 45 5t36 12t28 15t20 14q14 10 22 -4l7 -11q2 -4 2 -8.5t-5 -9.5q-11 -8 -26 -17.5
t-35 -18t-44.5 -14t-54.5 -5.5q-41 0 -72.5 16t-53.5 43.5t-33.5 65t-11.5 79.5zM98 257q53 -4 104 -3t91.5 11.5t65 31t24.5 55.5q0 36 -29 56.5t-74 20.5q-33 0 -63.5 -13.5t-55 -37t-41.5 -54.5t-22 -67zM209 559q-12 -5 -15 3l-4 11q-3 8 8 14l157 90q3 2 8.5 2t7.5 -5
l9 -21q3 -10 -6 -15z" />
    <glyph glyph-name="ecircumflex" unicode="&#xea;" horiz-adv-x="474" 
d="M47 193q0 57 17.5 107.5t49 88.5t75 60.5t96.5 22.5q61 0 101.5 -31.5t40.5 -85.5q0 -52 -32 -81.5t-81.5 -43.5t-108.5 -15.5t-113 2.5q-4 -40 3.5 -74t24.5 -59t43 -39t60 -14q25 0 45 5t36 12t28 15t20 14q14 10 22 -4l7 -11q2 -4 2 -8.5t-5 -9.5q-11 -8 -26 -17.5
t-35 -18t-44.5 -14t-54.5 -5.5q-41 0 -72.5 16t-53.5 43.5t-33.5 65t-11.5 79.5zM98 257q53 -4 104 -3t91.5 11.5t65 31t24.5 55.5q0 36 -29 56.5t-74 20.5q-33 0 -63.5 -13.5t-55 -37t-41.5 -54.5t-22 -67zM173 563q-4 7 4 14l123 98q6 5 12 5q4 0 9 -5l96 -98
q3 -3 4.5 -6.5t-2.5 -7.5l-7 -8q-3 -3 -6.5 -5t-8.5 3l-89 81l-113 -84q-7 -5 -10 -3t-5 5z" />
    <glyph glyph-name="edieresis" unicode="&#xeb;" horiz-adv-x="474" 
d="M47 193q0 57 17.5 107.5t49 88.5t75 60.5t96.5 22.5q61 0 101.5 -31.5t40.5 -85.5q0 -52 -32 -81.5t-81.5 -43.5t-108.5 -15.5t-113 2.5q-4 -40 3.5 -74t24.5 -59t43 -39t60 -14q25 0 45 5t36 12t28 15t20 14q14 10 22 -4l7 -11q2 -4 2 -8.5t-5 -9.5q-11 -8 -26 -17.5
t-35 -18t-44.5 -14t-54.5 -5.5q-41 0 -72.5 16t-53.5 43.5t-33.5 65t-11.5 79.5zM98 257q53 -4 104 -3t91.5 11.5t65 31t24.5 55.5q0 36 -29 56.5t-74 20.5q-33 0 -63.5 -13.5t-55 -37t-41.5 -54.5t-22 -67zM398 590q-15 0 -24.5 10.5t-9.5 24.5q0 19 13 32t30 13
q16 0 26 -10.5t10 -25.5q0 -18 -13.5 -31t-31.5 -13zM226 590q-15 0 -25 10.5t-10 24.5q0 19 13.5 32t30.5 13q16 0 25 -10.5t9 -25.5q0 -18 -12.5 -31t-30.5 -13z" />
    <glyph glyph-name="igrave" unicode="&#xec;" horiz-adv-x="216" 
d="M59 0q-7 0 -9.5 4.5t-1.5 10.5l61 432q1 6 6 10.5t12 4.5h14q6 0 9.5 -4.5t2.5 -10.5l-61 -432q-2 -15 -15 -15h-18v0zM57 639q-8 5 -1 15l12 19q3 5 8 5.5t9 -2.5l132 -90q8 -5 4 -14l-6 -9q-3 -4 -6 -5t-10 2z" />
    <glyph glyph-name="iacute" unicode="&#xed;" horiz-adv-x="216" 
d="M59 0q-7 0 -9.5 4.5t-1.5 10.5l61 432q1 6 6 10.5t12 4.5h14q6 0 9.5 -4.5t2.5 -10.5l-61 -432q-2 -15 -15 -15h-18v0zM101 559q-12 -5 -15 3l-4 11q-3 8 8 14l157 90q3 2 8.5 2t7.5 -5l9 -21q3 -10 -6 -15z" />
    <glyph glyph-name="icircumflex" unicode="&#xee;" horiz-adv-x="215" 
d="M59 0q-7 0 -9.5 4.5t-1.5 10.5l61 432q1 6 6 10.5t12 4.5h14q6 0 9.5 -4.5t2.5 -10.5l-61 -432q-2 -15 -15 -15h-18v0zM19 563q-4 7 4 14l123 98q6 5 12 5q4 0 9 -5l96 -98q3 -3 4.5 -6.5t-2.5 -7.5l-7 -8q-3 -3 -6.5 -5t-8.5 3l-89 81l-113 -84q-7 -5 -10 -3t-5 5z" />
    <glyph glyph-name="idieresis" unicode="&#xef;" horiz-adv-x="215" 
d="M59 0q-7 0 -9.5 4.5t-1.5 10.5l61 432q1 6 6 10.5t12 4.5h14q6 0 9.5 -4.5t2.5 -10.5l-61 -432q-2 -15 -15 -15h-18v0zM237 590q-15 0 -24.5 10.5t-9.5 24.5q0 19 13 32t30 13q16 0 26 -10.5t10 -25.5q0 -18 -13.5 -31t-31.5 -13zM65 590q-15 0 -25 10.5t-10 24.5
q0 19 13.5 32t30.5 13q16 0 25 -10.5t9 -25.5q0 -18 -12.5 -31t-30.5 -13z" />
    <glyph glyph-name="eth" unicode="&#xf0;" horiz-adv-x="551" 
d="M45 184q0 59 21.5 108.5t55.5 85t76.5 55.5t84.5 20q33 0 60.5 -9t47.5 -22t32.5 -26t17.5 -22h1q-1 36 -9.5 68t-22 59.5t-31 51t-36.5 43.5l-116 -68q-5 -2 -9.5 -0.5t-6.5 6.5l-2 5q-2 5 -0.5 10t6.5 7l105 62q-30 26 -57 42t-41 23q-7 2 -9.5 8.5t2.5 13.5l9 14
q2 3 5.5 5.5t9.5 0.5q22 -11 55.5 -30.5t68.5 -51.5l67 40q12 6 18 -5l2 -5q3 -12 -7 -18l-57 -34q21 -22 39.5 -48.5t32.5 -59t22.5 -70t8.5 -80.5q0 -66 -17 -132.5t-51 -120t-83.5 -87t-115.5 -33.5q-38 0 -70.5 14.5t-56 40.5t-37 61.5t-13.5 77.5zM90 191
q0 -34 10.5 -63.5t29 -51t43.5 -33.5t55 -12q45 0 83.5 26t66.5 66.5t43.5 89.5t14.5 94q0 1 -9.5 17.5t-28.5 35.5t-48.5 34.5t-69.5 15.5q-35 0 -69 -17t-61 -47t-43.5 -70t-16.5 -85z" />
    <glyph glyph-name="ntilde" unicode="&#xf1;" horiz-adv-x="505" 
d="M59 0q-7 0 -9.5 4.5t-1.5 10.5l61 432q1 6 4 10.5t10 4.5h10q13 0 13 -12l-3 -46q7 7 20.5 18.5t33 22.5t44.5 19t57 8q42 0 69 -14.5t41.5 -41.5t17.5 -65t-4 -85l-36 -251q-1 -6 -5.5 -10.5t-10.5 -4.5h-15q-7 0 -10.5 4.5t-2.5 10.5l36 251q11 81 -8.5 122t-80.5 41
q-32 0 -57.5 -10.5t-44.5 -23.5t-31 -26t-16 -17l-48 -337q-2 -15 -17 -15h-16v0zM185 584q-9 3 -4 14q3 7 10 21t18 28.5t27 25.5t39 11t34.5 -14t19 -31.5t15 -31.5t22.5 -14q12 0 21.5 6.5t16 16t11 19.5t7.5 17q5 12 15 7l12 -4q2 -2 4 -4.5t0 -8.5q-1 -3 -6.5 -17
t-17 -29t-28.5 -27.5t-41 -12.5q-23 0 -34.5 14.5t-19.5 31.5t-15.5 31.5t-21.5 14.5q-13 0 -22.5 -7.5t-17 -17.5t-12 -20.5l-7.5 -17.5q-4 -11 -14 -6z" />
    <glyph glyph-name="ograve" unicode="&#xf2;" horiz-adv-x="531" 
d="M46 197q0 57 19.5 107t53 87.5t78.5 59t96 21.5q37 0 69.5 -16.5t56 -44.5t37 -65.5t13.5 -80.5q0 -57 -19.5 -107.5t-53 -88t-78 -59t-94.5 -21.5q-38 0 -70.5 16.5t-56.5 44.5t-37.5 66t-13.5 81zM90 202q0 -36 10 -67t28.5 -54.5t44 -36.5t56.5 -13q38 0 73.5 18
t62.5 49t43.5 73t16.5 90q0 35 -10.5 66t-29 53.5t-44 35.5t-55.5 13q-40 0 -75.5 -18t-62.5 -48.5t-42.5 -72t-15.5 -88.5zM211 639q-8 5 -1 15l12 19q3 5 8 5.5t9 -2.5l132 -90q8 -5 4 -14l-6 -9q-3 -4 -6 -5t-10 2z" />
    <glyph glyph-name="oacute" unicode="&#xf3;" horiz-adv-x="531" 
d="M46 197q0 57 19.5 107t53 87.5t78.5 59t96 21.5q37 0 69.5 -16.5t56 -44.5t37 -65.5t13.5 -80.5q0 -57 -19.5 -107.5t-53 -88t-78 -59t-94.5 -21.5q-38 0 -70.5 16.5t-56.5 44.5t-37.5 66t-13.5 81zM90 202q0 -36 10 -67t28.5 -54.5t44 -36.5t56.5 -13q38 0 73.5 18
t62.5 49t43.5 73t16.5 90q0 35 -10.5 66t-29 53.5t-44 35.5t-55.5 13q-40 0 -75.5 -18t-62.5 -48.5t-42.5 -72t-15.5 -88.5zM256 559q-12 -5 -15 3l-4 11q-3 8 8 14l157 90q3 2 8.5 2t7.5 -5l9 -21q3 -10 -6 -15z" />
    <glyph glyph-name="ocircumflex" unicode="&#xf4;" horiz-adv-x="531" 
d="M46 197q0 57 19.5 107t53 87.5t78.5 59t96 21.5q37 0 69.5 -16.5t56 -44.5t37 -65.5t13.5 -80.5q0 -57 -19.5 -107.5t-53 -88t-78 -59t-94.5 -21.5q-38 0 -70.5 16.5t-56.5 44.5t-37.5 66t-13.5 81zM90 202q0 -36 10 -67t28.5 -54.5t44 -36.5t56.5 -13q38 0 73.5 18
t62.5 49t43.5 73t16.5 90q0 35 -10.5 66t-29 53.5t-44 35.5t-55.5 13q-40 0 -75.5 -18t-62.5 -48.5t-42.5 -72t-15.5 -88.5zM179 563q-4 7 4 14l123 98q6 5 12 5q4 0 9 -5l96 -98q3 -3 4.5 -6.5t-2.5 -7.5l-7 -8q-3 -3 -6.5 -5t-8.5 3l-89 81l-113 -84q-7 -5 -10 -3t-5 5z
" />
    <glyph glyph-name="otilde" unicode="&#xf5;" horiz-adv-x="531" 
d="M46 197q0 57 19.5 107t53 87.5t78.5 59t96 21.5q37 0 69.5 -16.5t56 -44.5t37 -65.5t13.5 -80.5q0 -57 -19.5 -107.5t-53 -88t-78 -59t-94.5 -21.5q-38 0 -70.5 16.5t-56.5 44.5t-37.5 66t-13.5 81zM90 202q0 -36 10 -67t28.5 -54.5t44 -36.5t56.5 -13q38 0 73.5 18
t62.5 49t43.5 73t16.5 90q0 35 -10.5 66t-29 53.5t-44 35.5t-55.5 13q-40 0 -75.5 -18t-62.5 -48.5t-42.5 -72t-15.5 -88.5zM184 584q-9 3 -4 14q3 7 10 21t18 28.5t27 25.5t39 11t34.5 -14t19 -31.5t15 -31.5t22.5 -14q12 0 21.5 6.5t16 16t11 19.5t7.5 17q5 12 15 7l12 -4
q2 -2 4 -4.5t0 -8.5q-1 -3 -6.5 -17t-17 -29t-28.5 -27.5t-41 -12.5q-23 0 -34.5 14.5t-19.5 31.5t-15.5 31.5t-21.5 14.5q-13 0 -22.5 -7.5t-17 -17.5t-12 -20.5l-7.5 -17.5q-4 -11 -14 -6z" />
    <glyph glyph-name="odieresis" unicode="&#xf6;" horiz-adv-x="531" 
d="M46 197q0 57 19.5 107t53 87.5t78.5 59t96 21.5q37 0 69.5 -16.5t56 -44.5t37 -65.5t13.5 -80.5q0 -57 -19.5 -107.5t-53 -88t-78 -59t-94.5 -21.5q-38 0 -70.5 16.5t-56.5 44.5t-37.5 66t-13.5 81zM90 202q0 -36 10 -67t28.5 -54.5t44 -36.5t56.5 -13q38 0 73.5 18
t62.5 49t43.5 73t16.5 90q0 35 -10.5 66t-29 53.5t-44 35.5t-55.5 13q-40 0 -75.5 -18t-62.5 -48.5t-42.5 -72t-15.5 -88.5zM401 590q-15 0 -24.5 10.5t-9.5 24.5q0 19 13 32t30 13q16 0 26 -10.5t10 -25.5q0 -18 -13.5 -31t-31.5 -13zM229 590q-15 0 -25 10.5t-10 24.5
q0 19 13.5 32t30.5 13q16 0 25 -10.5t9 -25.5q0 -18 -12.5 -31t-30.5 -13z" />
    <glyph glyph-name="divide" unicode="&#xf7;" 
d="M321 463q-14 0 -24 11t-10 25q0 19 14.5 32t31.5 13q15 0 24 -10.5t9 -24.5q0 -18 -13 -32t-32 -14zM133 327q-13 0 -11 13l2 16q1 5 5 9t9 4h346q12 0 10 -13l-2 -16q-2 -13 -14 -13h-345zM243 185q0 19 14.5 32t31.5 13q15 0 24 -10.5t9 -24.5q0 -18 -13 -32t-32 -14
q-14 0 -24 11t-10 25z" />
    <glyph glyph-name="oslash" unicode="&#xf8;" horiz-adv-x="531" 
d="M47 197q0 57 19.5 107t53 87.5t78.5 59t96 21.5q39 0 72.5 -18t57.5 -49l29 27q10 10 19 0l5 -5q11 -9 -3 -21l-32 -29q28 -51 28 -112q0 -57 -19.5 -107.5t-53 -88t-78 -59t-94.5 -21.5q-40 0 -73.5 17.5t-58.5 49.5l-21 -20q-10 -10 -19 1l-5 5q-5 5 -3.5 10.5t6.5 9.5
l24 22q-28 50 -28 113zM91 202q0 -48 17 -87l283 260q-19 25 -45.5 39.5t-58.5 14.5q-40 0 -75.5 -18t-62.5 -48.5t-42.5 -72t-15.5 -88.5zM426 261q0 48 -18 84l-283 -260q19 -26 45.5 -40t59.5 -14q38 0 73.5 18t62.5 49t43.5 73t16.5 90z" />
    <glyph glyph-name="ugrave" unicode="&#xf9;" horiz-adv-x="494" 
d="M190 -11q-41 0 -68 12.5t-41.5 37t-17.5 60t3 81.5l38 267q1 6 5.5 10.5t9.5 4.5h16q6 0 10 -4.5t3 -10.5l-39 -267q-11 -81 10 -115t81 -34q32 0 57 12t43 27t28 28t12 15l47 334q1 15 16 15h16q5 0 9 -4.5t2 -10.5l-59 -432q-1 -6 -4.5 -10.5t-9.5 -4.5h-12
q-6 0 -8.5 4.5t-2.5 9.5l2 42q-5 -6 -16.5 -17.5t-30 -22.5t-43.5 -19t-56 -8zM182 639q-8 5 -1 15l12 19q3 5 8 5.5t9 -2.5l132 -90q8 -5 4 -14l-6 -9q-3 -4 -6 -5t-10 2z" />
    <glyph glyph-name="uacute" unicode="&#xfa;" horiz-adv-x="494" 
d="M190 -11q-41 0 -68 12.5t-41.5 37t-17.5 60t3 81.5l38 267q1 6 5.5 10.5t9.5 4.5h16q6 0 10 -4.5t3 -10.5l-39 -267q-11 -81 10 -115t81 -34q32 0 57 12t43 27t28 28t12 15l47 334q1 15 16 15h16q5 0 9 -4.5t2 -10.5l-59 -432q-1 -6 -4.5 -10.5t-9.5 -4.5h-12
q-6 0 -8.5 4.5t-2.5 9.5l2 42q-5 -6 -16.5 -17.5t-30 -22.5t-43.5 -19t-56 -8zM228 559q-12 -5 -15 3l-4 11q-3 8 8 14l157 90q3 2 8.5 2t7.5 -5l9 -21q3 -10 -6 -15z" />
    <glyph glyph-name="ucircumflex" unicode="&#xfb;" horiz-adv-x="494" 
d="M190 -11q-41 0 -68 12.5t-41.5 37t-17.5 60t3 81.5l38 267q1 6 5.5 10.5t9.5 4.5h16q6 0 10 -4.5t3 -10.5l-39 -267q-11 -81 10 -115t81 -34q32 0 57 12t43 27t28 28t12 15l47 334q1 15 16 15h16q5 0 9 -4.5t2 -10.5l-59 -432q-1 -6 -4.5 -10.5t-9.5 -4.5h-12
q-6 0 -8.5 4.5t-2.5 9.5l2 42q-5 -6 -16.5 -17.5t-30 -22.5t-43.5 -19t-56 -8zM150 563q-4 7 4 14l123 98q6 5 12 5q4 0 9 -5l96 -98q3 -3 4.5 -6.5t-2.5 -7.5l-7 -8q-3 -3 -6.5 -5t-8.5 3l-89 81l-113 -84q-7 -5 -10 -3t-5 5z" />
    <glyph glyph-name="udieresis" unicode="&#xfc;" horiz-adv-x="494" 
d="M190 -11q-41 0 -68 12.5t-41.5 37t-17.5 60t3 81.5l38 267q1 6 5.5 10.5t9.5 4.5h16q6 0 10 -4.5t3 -10.5l-39 -267q-11 -81 10 -115t81 -34q32 0 57 12t43 27t28 28t12 15l47 334q1 15 16 15h16q5 0 9 -4.5t2 -10.5l-59 -432q-1 -6 -4.5 -10.5t-9.5 -4.5h-12
q-6 0 -8.5 4.5t-2.5 9.5l2 42q-5 -6 -16.5 -17.5t-30 -22.5t-43.5 -19t-56 -8zM367 590q-15 0 -24.5 10.5t-9.5 24.5q0 19 13 32t30 13q16 0 26 -10.5t10 -25.5q0 -18 -13.5 -31t-31.5 -13zM195 590q-15 0 -25 10.5t-10 24.5q0 19 13.5 32t30.5 13q16 0 25 -10.5t9 -25.5
q0 -18 -12.5 -31t-30.5 -13z" />
    <glyph glyph-name="yacute" unicode="&#xfd;" horiz-adv-x="466" 
d="M55 443q-2 8 0.5 13.5t10.5 5.5h21q10 0 13 -11l98 -395h2l209 395q5 11 15 11h24q7 0 9.5 -5.5t-2.5 -13.5l-359 -671q-5 -10 -16 -10h-21q-16 0 -8 16l119 225zM220 559q-12 -5 -15 3l-4 11q-3 8 8 14l157 90q3 2 8.5 2t7.5 -5l9 -21q3 -10 -6 -15z" />
    <glyph glyph-name="thorn" unicode="&#xfe;" horiz-adv-x="516" 
d="M57 -223q-1 -5 -6 -10t-10 -5h-15q-6 0 -9.5 5t-1.5 10l126 909q1 7 6.5 10.5t11.5 3.5h13q5 0 9.5 -4.5t3.5 -9.5l-39 -267q5 4 17 13t30 18t41.5 15.5t52.5 6.5q39 0 69.5 -16t52 -44.5t33 -67t11.5 -82.5q0 -57 -18 -107t-50.5 -86.5t-77 -58t-97.5 -21.5q-26 0 -46 6
t-35 13.5t-24 15.5t-12 13zM102 86q5 -7 15 -16.5t23.5 -18t31.5 -14.5t39 -6q41 0 77 17t62.5 47.5t42 73t15.5 93.5q0 33 -9 63.5t-26 53.5t-41 36.5t-55 13.5q-27 0 -50 -8t-40.5 -19t-29.5 -22.5t-18 -18.5z" />
    <glyph glyph-name="ydieresis" unicode="&#xff;" horiz-adv-x="466" 
d="M55 443q-2 8 0.5 13.5t10.5 5.5h21q10 0 13 -11l98 -395h2l209 395q5 11 15 11h24q7 0 9.5 -5.5t-2.5 -13.5l-359 -671q-5 -10 -16 -10h-21q-16 0 -8 16l119 225zM359 590q-15 0 -24.5 10.5t-9.5 24.5q0 19 13 32t30 13q16 0 26 -10.5t10 -25.5q0 -18 -13.5 -31
t-31.5 -13zM187 590q-15 0 -25 10.5t-10 24.5q0 19 13.5 32t30.5 13q16 0 25 -10.5t9 -25.5q0 -18 -12.5 -31t-30.5 -13z" />
    <glyph glyph-name="Amacron" unicode="&#x100;" horiz-adv-x="605" 
d="M-19 0q-12 0 -5 14l370 689q3 7 13 7h3q4 0 7 -1t5 -6l182 -691q2 -5 -0.5 -8.5t-10.5 -3.5h-26q-7 0 -9.5 3t-3.5 6l-46 184h-338l-96 -184q-2 -3 -5.5 -6t-10.5 -3h-29zM449 232l-96 398h-3l-205 -398h304zM261 831q-13 0 -11 13l2 12q2 13 14 13h243q5 0 8.5 -3.5
t1.5 -9.5l-1 -12q-2 -13 -15 -13h-242z" />
    <glyph glyph-name="amacron" unicode="&#x101;" horiz-adv-x="516" 
d="M394 15q-1 -6 -6 -10.5t-10 -4.5h-9q-14 0 -13 16l2 40q-5 -6 -18 -17t-32.5 -22.5t-44.5 -19.5t-55 -8q-36 0 -65.5 16t-50.5 44.5t-32.5 67.5t-11.5 84q0 55 18.5 104.5t50 86.5t74 58.5t90.5 21.5q28 0 50.5 -7t38.5 -16t25.5 -18t12.5 -13l10 31q4 13 14 13h10
q5 0 9 -4.5t2 -10.5zM398 369q-1 2 -8.5 11.5t-22 20.5t-36 19.5t-51.5 8.5q-40 0 -74 -18.5t-59.5 -50t-40 -72.5t-14.5 -87q0 -33 9 -64t25 -54.5t39 -37.5t51 -14q32 0 59 12.5t46.5 27.5t30.5 28.5t12 15.5zM190 595q-13 0 -11 12l2 13q2 13 14 13h242q13 0 11 -13
l-2 -13q-2 -12 -14 -12h-242z" />
    <glyph glyph-name="Abreve" unicode="&#x102;" horiz-adv-x="605" 
d="M-19 0q-12 0 -5 14l370 689q3 7 13 7h3q4 0 7 -1t5 -6l182 -691q2 -5 -0.5 -8.5t-10.5 -3.5h-26q-7 0 -9.5 3t-3.5 6l-46 184h-338l-96 -184q-2 -3 -5.5 -6t-10.5 -3h-29zM449 232l-96 398h-3l-205 -398h304zM377 775q-22 0 -41 8.5t-33 23.5t-21.5 35.5t-7.5 43.5
q0 5 2.5 9.5t8.5 4.5h11q5 0 7 -3.5t3 -8.5q5 -33 23.5 -55.5t50.5 -22.5q29 0 55.5 22.5t38.5 55.5q5 12 13 12h16q5 0 7.5 -4.5t0.5 -9.5q-14 -48 -49.5 -79.5t-84.5 -31.5z" />
    <glyph glyph-name="abreve" unicode="&#x103;" horiz-adv-x="517" 
d="M394 15q-1 -6 -6 -10.5t-10 -4.5h-9q-14 0 -13 16l2 40q-5 -6 -18 -17t-32.5 -22.5t-44.5 -19.5t-55 -8q-36 0 -65.5 16t-50.5 44.5t-32.5 67.5t-11.5 84q0 55 18.5 104.5t50 86.5t74 58.5t90.5 21.5q28 0 50.5 -7t38.5 -16t25.5 -18t12.5 -13l10 31q4 13 14 13h10
q5 0 9 -4.5t2 -10.5zM398 369q-1 2 -8.5 11.5t-22 20.5t-36 19.5t-51.5 8.5q-40 0 -74 -18.5t-59.5 -50t-40 -72.5t-14.5 -87q0 -33 9 -64t25 -54.5t39 -37.5t51 -14q32 0 59 12.5t46.5 27.5t30.5 28.5t12 15.5zM299 538q-21 0 -39.5 8.5t-32.5 23.5t-22 35t-9 43
q0 14 12 14h11q8 0 10 -11q3 -34 22 -56.5t51 -22.5q30 0 56.5 22.5t37.5 56.5q5 11 14 11h16q10 0 7 -14q-13 -47 -48.5 -78.5t-85.5 -31.5z" />
    <glyph glyph-name="Aogonek" unicode="&#x104;" horiz-adv-x="605" 
d="M460 193h-338l-96 -184q-2 -3 -5.5 -6t-10.5 -3h-29q-12 0 -5 14l371 689q3 7 13 7h3q4 0 7 -1t5 -6l181 -691q2 -8 -7 -12q-20 -10 -43 -25t-43 -34.5t-33.5 -43.5t-13.5 -52q0 -22 13.5 -35t38.5 -13q23 0 42.5 10.5t28.5 15.5q2 2 6 1.5t4 -5.5l-1 -19q0 -5 -2 -9.5
t-10 -8.5q-11 -6 -31.5 -15t-45.5 -9q-41 0 -64 24t-23 59q0 29 11 53.5t29 45t42 38.5t51 33zM449 232l-95 398h-3l-206 -398h304z" />
    <glyph glyph-name="aogonek" unicode="&#x105;" horiz-adv-x="516" 
d="M394 17q-2 -10 -8 -14t-11 -6q-20 -11 -42.5 -25.5t-41.5 -33t-31.5 -42t-12.5 -51.5q0 -22 13.5 -35t38.5 -13q23 0 42.5 10.5t28.5 15.5q2 2 6 1.5t4 -5.5l-1 -19q0 -5 -2 -9.5t-10 -8.5q-11 -6 -31.5 -15t-45.5 -9q-41 0 -64 24t-23 59q0 60 42.5 101.5t110.5 73.5
l2 40q-5 -6 -18 -17t-32.5 -22.5t-44.5 -19.5t-55 -8q-36 0 -65.5 16t-50.5 44.5t-32.5 67.5t-11.5 84q0 55 18.5 104.5t50 86.5t74 58.5t90.5 21.5q28 0 50.5 -7t38.5 -16t25.5 -18t12.5 -13l10 31q4 13 14 13h10q5 0 9 -4.5t2 -10.5zM398 369q-1 2 -8.5 11.5t-22 20.5
t-36 19.5t-51.5 8.5q-40 0 -74 -18.5t-59.5 -50t-40 -72.5t-14.5 -87q0 -33 9 -64t25 -54.5t39 -37.5t51 -14q32 0 59 12.5t46.5 27.5t30.5 28.5t12 15.5z" />
    <glyph glyph-name="Cacute" unicode="&#x106;" horiz-adv-x="656" 
d="M65 301q0 86 30.5 161t82.5 130t121 86.5t145 31.5q69 0 119 -24t88 -69q8 -9 -1 -18l-17 -15q-9 -7 -17 1q-32 38 -77.5 59t-99.5 21q-64 0 -122.5 -28.5t-103 -77.5t-71 -114.5t-26.5 -138.5q0 -56 17 -104.5t48 -84.5t74 -57t95 -21q58 0 106.5 24t88.5 60q10 8 16 2
l19 -21q7 -8 -2 -17q-54 -49 -113 -73t-119 -24q-61 0 -112.5 24.5t-89 66.5t-58.5 98.5t-21 121.5zM390 781q-12 -5 -15 3l-4 11q-3 8 8 14l157 90q3 2 8.5 2t7.5 -5l9 -21q3 -10 -6 -15z" />
    <glyph glyph-name="cacute" unicode="&#x107;" horiz-adv-x="479" 
d="M47 197q0 63 20.5 114t55 87t79.5 55t95 19q28 0 51 -7t41 -17.5t30.5 -23t20.5 -22.5q6 -7 -6 -21l-7 -8q-6 -7 -12 -4.5t-11 7.5q-6 7 -15.5 16t-23 17t-31.5 14t-41 6q-38 0 -74 -15.5t-64.5 -45.5t-46 -73t-17.5 -98q0 -33 11 -63t30.5 -53t46 -36.5t56.5 -13.5
q28 0 50.5 9t40 21t29 24.5t17.5 18.5q6 8 10 7.5t10 -5.5l12 -10q9 -8 1 -18q-8 -11 -24 -26t-38.5 -29t-51 -24t-61.5 -10q-39 0 -72.5 16t-58 44t-38.5 66t-14 82zM270 559q-12 -5 -15 3l-4 11q-3 8 8 14l157 90q3 2 8.5 2t7.5 -5l9 -21q3 -10 -6 -15z" />
    <glyph glyph-name="Ccircumflex" unicode="&#x108;" horiz-adv-x="656" 
d="M65 301q0 86 30.5 161t82.5 130t121 86.5t145 31.5q69 0 119 -24t88 -69q8 -9 -1 -18l-17 -15q-9 -7 -17 1q-32 38 -77.5 59t-99.5 21q-64 0 -122.5 -28.5t-103 -77.5t-71 -114.5t-26.5 -138.5q0 -56 17 -104.5t48 -84.5t74 -57t95 -21q58 0 106.5 24t88.5 60q10 8 16 2
l19 -21q7 -8 -2 -17q-54 -49 -113 -73t-119 -24q-61 0 -112.5 24.5t-89 66.5t-58.5 98.5t-21 121.5zM356 768q-7 -5 -10 -3t-5 5l-7 11q-4 7 4 14l123 98q6 5 12 5q4 0 9 -5l96 -98q3 -3 4.5 -6.5t-2.5 -7.5l-7 -8q-3 -3 -6.5 -5t-8.5 3l-89 81z" />
    <glyph glyph-name="ccircumflex" unicode="&#x109;" horiz-adv-x="479" 
d="M47 197q0 63 20.5 114t55 87t79.5 55t95 19q28 0 51 -7t41 -17.5t30.5 -23t20.5 -22.5q6 -7 -6 -21l-7 -8q-6 -7 -12 -4.5t-11 7.5q-6 7 -15.5 16t-23 17t-31.5 14t-41 6q-38 0 -74 -15.5t-64.5 -45.5t-46 -73t-17.5 -98q0 -33 11 -63t30.5 -53t46 -36.5t56.5 -13.5
q28 0 50.5 9t40 21t29 24.5t17.5 18.5q6 8 10 7.5t10 -5.5l12 -10q9 -8 1 -18q-8 -11 -24 -26t-38.5 -29t-51 -24t-61.5 -10q-39 0 -72.5 16t-58 44t-38.5 66t-14 82zM195 563q-4 7 4 14l123 98q6 5 12 5q4 0 9 -5l96 -98q3 -3 4.5 -6.5t-2.5 -7.5l-7 -8q-3 -3 -6.5 -5
t-8.5 3l-89 81l-113 -84q-7 -5 -10 -3t-5 5z" />
    <glyph glyph-name="Cdotaccent" unicode="&#x10a;" horiz-adv-x="656" 
d="M65 301q0 86 30.5 161t82.5 130t121 86.5t145 31.5q69 0 119 -24t88 -69q8 -9 -1 -18l-17 -15q-9 -7 -17 1q-32 38 -77.5 59t-99.5 21q-64 0 -122.5 -28.5t-103 -77.5t-71 -114.5t-26.5 -138.5q0 -56 17 -104.5t48 -84.5t74 -57t95 -21q58 0 106.5 24t88.5 60q10 8 16 2
l19 -21q7 -8 -2 -17q-54 -49 -113 -73t-119 -24q-61 0 -112.5 24.5t-89 66.5t-58.5 98.5t-21 121.5zM464 809q-15 0 -25 9.5t-10 23.5q0 18 14 31t32 13q15 0 24 -9.5t9 -23.5q0 -18 -13 -31t-31 -13z" />
    <glyph glyph-name="cdotaccent" unicode="&#x10b;" horiz-adv-x="479" 
d="M47 197q0 63 20.5 114t55 87t79.5 55t95 19q28 0 51 -7t41 -17.5t30.5 -23t20.5 -22.5q6 -7 -6 -21l-7 -8q-6 -7 -12 -4.5t-11 7.5q-6 7 -15.5 16t-23 17t-31.5 14t-41 6q-38 0 -74 -15.5t-64.5 -45.5t-46 -73t-17.5 -98q0 -33 11 -63t30.5 -53t46 -36.5t56.5 -13.5
q28 0 50.5 9t40 21t29 24.5t17.5 18.5q6 8 10 7.5t10 -5.5l12 -10q9 -8 1 -18q-8 -11 -24 -26t-38.5 -29t-51 -24t-61.5 -10q-39 0 -72.5 16t-58 44t-38.5 66t-14 82zM318 590q-15 0 -25 9.5t-10 23.5q0 18 14 31t32 13q15 0 24 -9.5t9 -23.5q0 -18 -13 -31t-31 -13z" />
    <glyph glyph-name="Ccaron" unicode="&#x10c;" horiz-adv-x="656" 
d="M65 301q0 86 30.5 161t82.5 130t121 86.5t145 31.5q69 0 119 -24t88 -69q8 -9 -1 -18l-17 -15q-9 -7 -17 1q-32 38 -77.5 59t-99.5 21q-64 0 -122.5 -28.5t-103 -77.5t-71 -114.5t-26.5 -138.5q0 -56 17 -104.5t48 -84.5t74 -57t95 -21q58 0 106.5 24t88.5 60q10 8 16 2
l19 -21q7 -8 -2 -17q-54 -49 -113 -73t-119 -24q-61 0 -112.5 24.5t-89 66.5t-58.5 98.5t-21 121.5zM455 762q-4 0 -9 5l-96 98q-8 8 -2 14l7 8q3 3 6.5 5t8.5 -3l89 -81l113 84q7 5 10 3t5 -5l7 -11q4 -7 -4 -14l-123 -98q-6 -5 -12 -5z" />
    <glyph glyph-name="ccaron" unicode="&#x10d;" horiz-adv-x="479" 
d="M47 197q0 63 20.5 114t55 87t79.5 55t95 19q28 0 51 -7t41 -17.5t30.5 -23t20.5 -22.5q6 -7 -6 -21l-7 -8q-6 -7 -12 -4.5t-11 7.5q-6 7 -15.5 16t-23 17t-31.5 14t-41 6q-38 0 -74 -15.5t-64.5 -45.5t-46 -73t-17.5 -98q0 -33 11 -63t30.5 -53t46 -36.5t56.5 -13.5
q28 0 50.5 9t40 21t29 24.5t17.5 18.5q6 8 10 7.5t10 -5.5l12 -10q9 -8 1 -18q-8 -11 -24 -26t-38.5 -29t-51 -24t-61.5 -10q-39 0 -72.5 16t-58 44t-38.5 66t-14 82zM318 544q-4 0 -9 5l-96 98q-8 8 -2 14l7 8q3 3 6.5 5t8.5 -3l89 -81l113 84q7 5 10 3t5 -5l7 -11
q4 -7 -4 -14l-123 -98q-6 -5 -12 -5z" />
    <glyph glyph-name="Dcaron" unicode="&#x10e;" horiz-adv-x="683" 
d="M158 687q2 13 13 13h193q57 0 106.5 -24t86 -65.5t57.5 -96.5t21 -118q0 -82 -30 -154t-81 -126t-118 -85t-140 -31h-193q-5 0 -8 4t-2 9zM263 43q64 0 122.5 27t103 74t70.5 111.5t26 138.5q0 55 -17 103.5t-48 83.5t-74.5 55.5t-96.5 20.5h-149l-86 -614h149zM356 762
q-4 0 -9 5l-96 98q-8 8 -2 14l7 8q3 3 6.5 5t8.5 -3l89 -81l113 84q7 5 10 3t5 -5l7 -11q4 -7 -4 -14l-123 -98q-6 -5 -12 -5z" />
    <glyph glyph-name="dcaron" unicode="&#x10f;" horiz-adv-x="524" 
d="M47 194q0 58 18 109t49.5 88.5t75 59t94.5 21.5q29 0 51.5 -7.5t38.5 -15.5q18 -10 32 -22l37 259q3 14 15 14h17q6 0 10 -4.5t2 -9.5l-93 -671q-1 -6 -6 -10.5t-10 -4.5h-10q-14 0 -13 16l2 40q-5 -6 -18.5 -17t-33.5 -22.5t-45.5 -19.5t-54.5 -8q-36 0 -65 16t-50 43.5
t-32 65t-11 80.5zM214 31q32 0 59 12.5t46.5 27.5t30.5 28.5t12 15.5l37 263q-13 14 -31 25q-15 10 -36.5 18t-49.5 8q-41 0 -76 -18.5t-60.5 -50t-40 -73.5t-14.5 -90q0 -33 9 -63.5t25 -53t38.5 -36t50.5 -13.5zM549 668q0 18 13.5 30.5t33.5 12.5q23 0 35.5 -15t12.5 -42
q0 -32 -14.5 -65t-42.5 -55q-7 -7 -12 -1l-10 10q-5 5 -3 8t6 6q16 14 27 35t11 41q0 8 -3 14q-7 -7 -23 -7q-14 0 -22.5 8t-8.5 20z" />
    <glyph glyph-name="Dcroat" unicode="&#x110;" horiz-adv-x="691" 
d="M109 332h-31q-12 0 -10 13l1 7q2 11 14 11h30l46 324q2 13 13 13h200q59 0 109 -24t86 -65.5t56.5 -96.5t20.5 -118q0 -82 -31 -154t-82.5 -126t-118 -85t-138.5 -31h-200q-12 0 -10 13zM272 43q64 0 122 27t102 74t70 111.5t26 138.5q0 55 -17 103.5t-48 83.5t-74 55.5
t-95 20.5h-157l-41 -294h219q13 0 11 -11l-1 -8q-1 -5 -5 -8.5t-9 -3.5h-219l-41 -289h157z" />
    <glyph glyph-name="dcroat" unicode="&#x111;" horiz-adv-x="515" 
d="M47 194q0 58 18 109t49.5 88.5t75 59t94.5 21.5q29 0 51.5 -7.5t38.5 -15.5q18 -10 32 -22l16 115h-165q-13 0 -11 13l1 6q2 12 14 12h166l16 113q3 14 15 14h15q6 0 10 -4.5t2 -9.5l-16 -113h36q11 0 10 -12l-1 -6q-2 -13 -14 -13h-35l-73 -527q-1 -6 -6 -10.5t-10 -4.5
h-8q-14 0 -13 16l2 40q-5 -6 -18.5 -17t-33.5 -22.5t-45.5 -19.5t-54.5 -8q-36 0 -65 16t-50 43.5t-32 65t-11 80.5zM214 31q32 0 59 12.5t46.5 27.5t30.5 28.5t12 15.5l37 263q-13 14 -31 25q-15 10 -36.5 18t-49.5 8q-41 0 -76 -18.5t-60.5 -50t-40 -73.5t-14.5 -90
q0 -33 9 -63.5t25 -53t38.5 -36t50.5 -13.5z" />
    <glyph glyph-name="Emacron" unicode="&#x112;" horiz-adv-x="538" 
d="M158 687q1 5 5 9t9 4h360q13 0 11 -13l-2 -17q-2 -13 -15 -13h-324l-39 -276h280q13 0 11 -13l-2 -17q-2 -13 -15 -13h-280l-42 -296h325q13 0 11 -13l-3 -16q-2 -13 -14 -13h-360q-13 0 -11 13zM246 831q-13 0 -11 13l2 12q2 13 14 13h243q5 0 8.5 -3.5t1.5 -9.5l-1 -12
q-2 -13 -15 -13h-242z" />
    <glyph glyph-name="emacron" unicode="&#x113;" horiz-adv-x="474" 
d="M47 193q0 57 17.5 107.5t49 88.5t75 60.5t96.5 22.5q61 0 101.5 -31.5t40.5 -85.5q0 -52 -32 -81.5t-81.5 -43.5t-108.5 -15.5t-113 2.5q-4 -40 3.5 -74t24.5 -59t43 -39t60 -14q25 0 45 5t36 12t28 15t20 14q14 10 22 -4l7 -11q2 -4 2 -8.5t-5 -9.5q-11 -8 -26 -17.5
t-35 -18t-44.5 -14t-54.5 -5.5q-41 0 -72.5 16t-53.5 43.5t-33.5 65t-11.5 79.5zM98 257q53 -4 104 -3t91.5 11.5t65 31t24.5 55.5q0 36 -29 56.5t-74 20.5q-33 0 -63.5 -13.5t-55 -37t-41.5 -54.5t-22 -67zM187 595q-13 0 -11 12l2 13q2 13 14 13h242q13 0 11 -13l-2 -13
q-2 -12 -14 -12h-242z" />
    <glyph glyph-name="Ebreve" unicode="&#x114;" horiz-adv-x="538" 
d="M158 687q1 5 5 9t9 4h360q13 0 11 -13l-2 -17q-2 -13 -15 -13h-324l-39 -276h280q13 0 11 -13l-2 -17q-2 -13 -15 -13h-280l-42 -296h325q13 0 11 -13l-3 -16q-2 -13 -14 -13h-360q-13 0 -11 13zM363 775q-22 0 -41 8.5t-33 23.5t-21.5 35.5t-7.5 43.5q0 5 2.5 9.5
t8.5 4.5h11q5 0 7 -3.5t3 -8.5q5 -33 23.5 -55.5t50.5 -22.5q29 0 55.5 22.5t38.5 55.5q5 12 13 12h16q5 0 7.5 -4.5t0.5 -9.5q-14 -48 -49.5 -79.5t-84.5 -31.5z" />
    <glyph glyph-name="ebreve" unicode="&#x115;" horiz-adv-x="474" 
d="M47 193q0 57 17.5 107.5t49 88.5t75 60.5t96.5 22.5q61 0 101.5 -31.5t40.5 -85.5q0 -52 -32 -81.5t-81.5 -43.5t-108.5 -15.5t-113 2.5q-4 -40 3.5 -74t24.5 -59t43 -39t60 -14q25 0 45 5t36 12t28 15t20 14q14 10 22 -4l7 -11q2 -4 2 -8.5t-5 -9.5q-11 -8 -26 -17.5
t-35 -18t-44.5 -14t-54.5 -5.5q-41 0 -72.5 16t-53.5 43.5t-33.5 65t-11.5 79.5zM98 257q53 -4 104 -3t91.5 11.5t65 31t24.5 55.5q0 36 -29 56.5t-74 20.5q-33 0 -63.5 -13.5t-55 -37t-41.5 -54.5t-22 -67zM297 538q-21 0 -39.5 8.5t-32.5 23.5t-22 35t-9 43q0 14 12 14h11
q8 0 10 -11q3 -34 22 -56.5t51 -22.5q30 0 56.5 22.5t37.5 56.5q5 11 14 11h16q10 0 7 -14q-13 -47 -48.5 -78.5t-85.5 -31.5z" />
    <glyph glyph-name="Edotaccent" unicode="&#x116;" horiz-adv-x="538" 
d="M158 687q1 5 5 9t9 4h360q13 0 11 -13l-2 -17q-2 -13 -15 -13h-324l-39 -276h280q13 0 11 -13l-2 -17q-2 -13 -15 -13h-280l-42 -296h325q13 0 11 -13l-3 -16q-2 -13 -14 -13h-360q-13 0 -11 13zM362 809q-15 0 -25 9.5t-10 23.5q0 18 14 31t32 13q15 0 24 -9.5t9 -23.5
q0 -18 -13 -31t-31 -13z" />
    <glyph glyph-name="edotaccent" unicode="&#x117;" horiz-adv-x="474" 
d="M47 193q0 57 17.5 107.5t49 88.5t75 60.5t96.5 22.5q61 0 101.5 -31.5t40.5 -85.5q0 -52 -32 -81.5t-81.5 -43.5t-108.5 -15.5t-113 2.5q-4 -40 3.5 -74t24.5 -59t43 -39t60 -14q25 0 45 5t36 12t28 15t20 14q14 10 22 -4l7 -11q2 -4 2 -8.5t-5 -9.5q-11 -8 -26 -17.5
t-35 -18t-44.5 -14t-54.5 -5.5q-41 0 -72.5 16t-53.5 43.5t-33.5 65t-11.5 79.5zM98 257q53 -4 104 -3t91.5 11.5t65 31t24.5 55.5q0 36 -29 56.5t-74 20.5q-33 0 -63.5 -13.5t-55 -37t-41.5 -54.5t-22 -67zM304 590q-15 0 -25 9.5t-10 23.5q0 18 14 31t32 13q15 0 24 -9.5
t9 -23.5q0 -18 -13 -31t-31 -13z" />
    <glyph glyph-name="Eogonek" unicode="&#x118;" horiz-adv-x="538" 
d="M158 687q1 5 5 9t9 4h360q13 0 11 -13l-2 -17q-2 -13 -15 -13h-324l-39 -276h280q13 0 11 -13l-2 -17q-2 -13 -15 -13h-280l-42 -296h325q13 0 11 -13l-3 -16q-1 -5 -4.5 -7.5t-8.5 -5.5q-23 -13 -46 -28t-42.5 -34t-31.5 -42t-12 -51q0 -22 13.5 -35t38.5 -13
q23 0 42.5 10.5t28.5 15.5q2 2 6 1.5t4 -5.5l-1 -19q0 -5 -2 -9.5t-10 -8.5q-11 -6 -31.5 -15t-45.5 -9q-41 0 -64 24t-23 59q0 27 9 49.5t24.5 42t36 36t44.5 31.5h-299q-13 0 -11 13z" />
    <glyph glyph-name="eogonek" unicode="&#x119;" horiz-adv-x="474" 
d="M47 193q0 57 17.5 107.5t49 88.5t75 60.5t96.5 22.5q61 0 101.5 -31.5t40.5 -85.5q0 -52 -32 -81.5t-81.5 -43.5t-108.5 -15.5t-113 2.5q-4 -40 3.5 -74t24.5 -59t43 -39t60 -14q25 0 45 5t36 12t28 15t20 14q14 10 22 -4l7 -12q2 -4 2 -8.5t-5 -9.5q-8 -8 -32 -21
t-58 -23q-21 -11 -44.5 -26t-42.5 -34t-31.5 -42.5t-12.5 -51.5q0 -22 13.5 -35t38.5 -13q23 0 42.5 10.5t28.5 15.5q2 2 6 1.5t4 -5.5l-1 -19q0 -5 -2 -9.5t-10 -8.5q-11 -6 -31.5 -15t-45.5 -9q-41 0 -64 24t-23 59q0 48 28 83.5t70 64.5q-39 1 -69.5 17.5t-51.5 44
t-32 64t-11 78.5zM98 257q53 -4 104 -3t91.5 11.5t65 31t24.5 55.5q0 36 -29 56.5t-74 20.5q-33 0 -63.5 -13.5t-55 -37t-41.5 -54.5t-22 -67z" />
    <glyph glyph-name="Ecaron" unicode="&#x11a;" horiz-adv-x="538" 
d="M158 687q1 5 5 9t9 4h360q13 0 11 -13l-2 -17q-2 -13 -15 -13h-324l-39 -276h280q13 0 11 -13l-2 -17q-2 -13 -15 -13h-280l-42 -296h325q13 0 11 -13l-3 -16q-2 -13 -14 -13h-360q-13 0 -11 13zM356 762q-4 0 -9 5l-96 98q-8 8 -2 14l7 8q3 3 6.5 5t8.5 -3l89 -81
l113 84q7 5 10 3t5 -5l7 -11q4 -7 -4 -14l-123 -98q-6 -5 -12 -5z" />
    <glyph glyph-name="ecaron" unicode="&#x11b;" horiz-adv-x="474" 
d="M47 193q0 57 17.5 107.5t49 88.5t75 60.5t96.5 22.5q61 0 101.5 -31.5t40.5 -85.5q0 -52 -32 -81.5t-81.5 -43.5t-108.5 -15.5t-113 2.5q-4 -40 3.5 -74t24.5 -59t43 -39t60 -14q25 0 45 5t36 12t28 15t20 14q14 10 22 -4l7 -11q2 -4 2 -8.5t-5 -9.5q-11 -8 -26 -17.5
t-35 -18t-44.5 -14t-54.5 -5.5q-41 0 -72.5 16t-53.5 43.5t-33.5 65t-11.5 79.5zM98 257q53 -4 104 -3t91.5 11.5t65 31t24.5 55.5q0 36 -29 56.5t-74 20.5q-33 0 -63.5 -13.5t-55 -37t-41.5 -54.5t-22 -67zM298 544q-4 0 -9 5l-96 98q-8 8 -2 14l7 8q3 3 6.5 5t8.5 -3
l89 -81l113 84q7 5 10 3t5 -5l7 -11q4 -7 -4 -14l-123 -98q-6 -5 -12 -5z" />
    <glyph glyph-name="Gcircumflex" unicode="&#x11c;" horiz-adv-x="685" 
d="M65 306q0 84 31 158t83 128.5t121 86t146 31.5q68 0 117.5 -24t87.5 -69q3 -4 3 -9t-5 -9l-18 -16q-9 -9 -17 0q-31 39 -76.5 60.5t-99.5 21.5q-63 0 -121.5 -28.5t-103 -77t-71 -113.5t-26.5 -138q0 -56 17 -105t48 -86t74 -58t95 -21q42 0 76.5 10t60.5 22q30 14 54 32
l24 177h-143q-8 0 -10 3t-1 10l3 20q1 6 3.5 9t10.5 3h179q5 0 8.5 -3.5t2.5 -8.5l-30 -215q-2 -13 -6.5 -19.5t-10.5 -11.5q-7 -6 -28 -18.5t-51.5 -25.5t-68.5 -22.5t-78 -9.5q-59 0 -110.5 24.5t-89 67t-59 100t-21.5 124.5zM355 768q-7 -5 -10 -3t-5 5l-7 11q-4 7 4 14
l123 98q6 5 12 5q4 0 9 -5l96 -98q3 -3 4.5 -6.5t-2.5 -7.5l-7 -8q-3 -3 -6.5 -5t-8.5 3l-89 81z" />
    <glyph glyph-name="gcircumflex" unicode="&#x11d;" horiz-adv-x="517" 
d="M46 194q0 58 18.5 108.5t50.5 88t74.5 59.5t90.5 22q28 0 50.5 -7t39 -16t26 -18t12.5 -13l10 31q3 13 15 13h8q5 0 9 -4.5t2 -10.5l-59 -435q-9 -66 -29 -110.5t-47.5 -71t-60 -38t-66.5 -11.5q-30 0 -55 9.5t-44.5 22.5t-33 25.5t-18.5 18.5q-11 11 1 23l9 9
q5 5 11.5 5.5t14.5 -8.5q6 -7 16.5 -17.5t25.5 -20.5t34 -17t42 -7q22 0 46 7t45.5 27.5t38.5 56.5t26 94l3 24q-4 -5 -15 -12t-28 -14t-39.5 -12t-48.5 -5q-41 0 -73.5 16t-55 43.5t-34.5 64.5t-12 80zM92 199q0 -34 9.5 -64.5t26.5 -53.5t42 -36.5t56 -13.5q28 0 51.5 7.5
t41 17t27.5 18.5t12 11l40 282q-1 2 -8.5 12t-22.5 21t-36.5 20t-51.5 9q-40 0 -74 -18.5t-59 -50t-39.5 -73.5t-14.5 -88zM178 563q-4 7 4 14l123 98q6 5 12 5q4 0 9 -5l96 -98q3 -3 4.5 -6.5t-2.5 -7.5l-7 -8q-3 -3 -6.5 -5t-8.5 3l-89 81l-113 -84q-7 -5 -10 -3t-5 5z
" />
    <glyph glyph-name="Gbreve" unicode="&#x11e;" horiz-adv-x="685" 
d="M65 306q0 84 31 158t83 128.5t121 86t146 31.5q68 0 117.5 -24t87.5 -69q3 -4 3 -9t-5 -9l-18 -16q-9 -9 -17 0q-31 39 -76.5 60.5t-99.5 21.5q-63 0 -121.5 -28.5t-103 -77t-71 -113.5t-26.5 -138q0 -56 17 -105t48 -86t74 -58t95 -21q42 0 76.5 10t60.5 22q30 14 54 32
l24 177h-143q-8 0 -10 3t-1 10l3 20q1 6 3.5 9t10.5 3h179q5 0 8.5 -3.5t2.5 -8.5l-30 -215q-2 -13 -6.5 -19.5t-10.5 -11.5q-7 -6 -28 -18.5t-51.5 -25.5t-68.5 -22.5t-78 -9.5q-59 0 -110.5 24.5t-89 67t-59 100t-21.5 124.5zM463 775q-22 0 -41 8.5t-33 23.5t-21.5 35.5
t-7.5 43.5q0 5 2.5 9.5t8.5 4.5h11q5 0 7 -3.5t3 -8.5q5 -33 23.5 -55.5t50.5 -22.5q29 0 55.5 22.5t38.5 55.5q5 12 13 12h16q5 0 7.5 -4.5t0.5 -9.5q-14 -48 -49.5 -79.5t-84.5 -31.5z" />
    <glyph glyph-name="gbreve" unicode="&#x11f;" horiz-adv-x="517" 
d="M46 194q0 58 18.5 108.5t50.5 88t74.5 59.5t90.5 22q28 0 50.5 -7t39 -16t26 -18t12.5 -13l10 31q3 13 15 13h8q5 0 9 -4.5t2 -10.5l-59 -435q-9 -66 -29 -110.5t-47.5 -71t-60 -38t-66.5 -11.5q-30 0 -55 9.5t-44.5 22.5t-33 25.5t-18.5 18.5q-11 11 1 23l9 9
q5 5 11.5 5.5t14.5 -8.5q6 -7 16.5 -17.5t25.5 -20.5t34 -17t42 -7q22 0 46 7t45.5 27.5t38.5 56.5t26 94l3 24q-4 -5 -15 -12t-28 -14t-39.5 -12t-48.5 -5q-41 0 -73.5 16t-55 43.5t-34.5 64.5t-12 80zM92 199q0 -34 9.5 -64.5t26.5 -53.5t42 -36.5t56 -13.5q28 0 51.5 7.5
t41 17t27.5 18.5t12 11l40 282q-1 2 -8.5 12t-22.5 21t-36.5 20t-51.5 9q-40 0 -74 -18.5t-59 -50t-39.5 -73.5t-14.5 -88zM295 538q-21 0 -39.5 8.5t-32.5 23.5t-22 35t-9 43q0 14 12 14h11q8 0 10 -11q3 -34 22 -56.5t51 -22.5q30 0 56.5 22.5t37.5 56.5q5 11 14 11h16
q10 0 7 -14q-13 -47 -48.5 -78.5t-85.5 -31.5z" />
    <glyph glyph-name="Gdotaccent" unicode="&#x120;" horiz-adv-x="685" 
d="M65 306q0 84 31 158t83 128.5t121 86t146 31.5q68 0 117.5 -24t87.5 -69q3 -4 3 -9t-5 -9l-18 -16q-9 -9 -17 0q-31 39 -76.5 60.5t-99.5 21.5q-63 0 -121.5 -28.5t-103 -77t-71 -113.5t-26.5 -138q0 -56 17 -105t48 -86t74 -58t95 -21q42 0 76.5 10t60.5 22q30 14 54 32
l24 177h-143q-8 0 -10 3t-1 10l3 20q1 6 3.5 9t10.5 3h179q5 0 8.5 -3.5t2.5 -8.5l-30 -215q-2 -13 -6.5 -19.5t-10.5 -11.5q-7 -6 -28 -18.5t-51.5 -25.5t-68.5 -22.5t-78 -9.5q-59 0 -110.5 24.5t-89 67t-59 100t-21.5 124.5zM462 809q-15 0 -25 9.5t-10 23.5q0 18 14 31
t32 13q15 0 24 -9.5t9 -23.5q0 -18 -13 -31t-31 -13z" />
    <glyph glyph-name="gdotaccent" unicode="&#x121;" horiz-adv-x="517" 
d="M46 194q0 58 18.5 108.5t50.5 88t74.5 59.5t90.5 22q28 0 50.5 -7t39 -16t26 -18t12.5 -13l10 31q3 13 15 13h8q5 0 9 -4.5t2 -10.5l-59 -435q-9 -66 -29 -110.5t-47.5 -71t-60 -38t-66.5 -11.5q-30 0 -55 9.5t-44.5 22.5t-33 25.5t-18.5 18.5q-11 11 1 23l9 9
q5 5 11.5 5.5t14.5 -8.5q6 -7 16.5 -17.5t25.5 -20.5t34 -17t42 -7q22 0 46 7t45.5 27.5t38.5 56.5t26 94l3 24q-4 -5 -15 -12t-28 -14t-39.5 -12t-48.5 -5q-41 0 -73.5 16t-55 43.5t-34.5 64.5t-12 80zM92 199q0 -34 9.5 -64.5t26.5 -53.5t42 -36.5t56 -13.5q28 0 51.5 7.5
t41 17t27.5 18.5t12 11l40 282q-1 2 -8.5 12t-22.5 21t-36.5 20t-51.5 9q-40 0 -74 -18.5t-59 -50t-39.5 -73.5t-14.5 -88zM304 590q-15 0 -25 9.5t-10 23.5q0 18 14 31t32 13q15 0 24 -9.5t9 -23.5q0 -18 -13 -31t-31 -13z" />
    <glyph glyph-name="uni0122" unicode="&#x122;" horiz-adv-x="685" 
d="M65 306q0 84 31 158t83 128.5t121 86t146 31.5q68 0 117.5 -24t87.5 -69q3 -4 3 -9t-5 -9l-18 -16q-9 -9 -17 0q-31 39 -76.5 60.5t-99.5 21.5q-63 0 -121.5 -28.5t-103 -77t-71 -113.5t-26.5 -138q0 -56 17 -105t48 -86t74 -58t95 -21q42 0 76.5 10t60.5 22q30 14 54 32
l24 177h-143q-8 0 -10 3t-1 10l3 20q1 6 3.5 9t10.5 3h179q5 0 8.5 -3.5t2.5 -8.5l-30 -215q-2 -13 -6.5 -19.5t-10.5 -11.5q-7 -6 -28 -18.5t-51.5 -25.5t-68.5 -22.5t-78 -9.5q-59 0 -110.5 24.5t-89 67t-59 100t-21.5 124.5zM281 -119q0 18 13.5 30.5t33.5 12.5
q23 0 35.5 -15t12.5 -42q0 -32 -14.5 -65t-42.5 -55q-7 -7 -12 -1l-10 10q-5 5 -3 8t6 6q16 14 27 35t11 41q0 8 -3 14q-7 -7 -23 -7q-14 0 -22.5 8t-8.5 20z" />
    <glyph glyph-name="uni0123" unicode="&#x123;" horiz-adv-x="517" 
d="M46 194q0 58 18.5 108.5t50.5 88t74.5 59.5t90.5 22q28 0 50.5 -7t39 -16t26 -18t12.5 -13l10 31q3 13 15 13h8q5 0 9 -4.5t2 -10.5l-59 -435q-9 -66 -29 -110.5t-47.5 -71t-60 -38t-66.5 -11.5q-30 0 -55 9.5t-44.5 22.5t-33 25.5t-18.5 18.5q-11 11 1 23l9 9
q5 5 11.5 5.5t14.5 -8.5q6 -7 16.5 -17.5t25.5 -20.5t34 -17t42 -7q22 0 46 7t45.5 27.5t38.5 56.5t26 94l3 24q-4 -5 -15 -12t-28 -14t-39.5 -12t-48.5 -5q-41 0 -73.5 16t-55 43.5t-34.5 64.5t-12 80zM92 199q0 -34 9.5 -64.5t26.5 -53.5t42 -36.5t56 -13.5q28 0 51.5 7.5
t41 17t27.5 18.5t12 11l40 282q-1 2 -8.5 12t-22.5 21t-36.5 20t-51.5 9q-40 0 -74 -18.5t-59 -50t-39.5 -73.5t-14.5 -88zM351 606q0 -18 -13.5 -30.5t-33.5 -12.5q-23 0 -35.5 15t-12.5 42q0 32 14.5 65t42.5 55q6 6 12 1l10 -10q5 -5 3 -8t-6 -6q-16 -14 -27 -35t-11 -41
q0 -8 3 -14q7 7 23 7q14 0 22.5 -8t8.5 -20z" />
    <glyph glyph-name="Hcircumflex" unicode="&#x124;" horiz-adv-x="694" 
d="M158 687q2 13 14 13h22q13 0 11 -13l-44 -307h398l43 307q2 13 14 13h22q13 0 11 -13l-95 -674q-2 -13 -14 -13h-22q-13 0 -11 13l46 325h-397l-46 -325q-2 -13 -15 -13h-21q-13 0 -11 13zM316 768q-7 -5 -10 -3t-5 5l-7 11q-4 7 4 14l123 98q6 5 12 5q4 0 9 -5l96 -98
q3 -3 4.5 -6.5t-2.5 -7.5l-7 -8q-3 -3 -6.5 -5t-8.5 3l-89 81z" />
    <glyph glyph-name="hcircumflex" unicode="&#x125;" horiz-adv-x="506" 
d="M59 0q-7 0 -9.5 4.5t-1.5 10.5l94 671q1 5 3.5 9.5t9.5 4.5h20q5 0 9.5 -4.5t3.5 -9.5l-41 -284q5 6 17.5 17.5t32 23t45.5 20.5t58 9q75 0 106 -51t16 -155l-35 -251q-1 -6 -5.5 -10.5t-10.5 -4.5h-15q-7 0 -10.5 4.5t-2.5 10.5l35 251q11 86 -10 124.5t-77 38.5
q-33 0 -60 -12t-47 -26.5t-32 -27.5t-13 -15l-47 -333q-2 -15 -16 -15h-17v0zM44 780q-4 7 4 14l123 98q6 5 12 5q4 0 9 -5l96 -98q3 -3 4.5 -6.5t-2.5 -7.5l-7 -8q-3 -3 -6.5 -5t-8.5 3l-89 81l-113 -84q-7 -5 -10 -3t-5 5z" />
    <glyph glyph-name="Hbar" unicode="&#x126;" horiz-adv-x="696" 
d="M138 542h-23q-11 0 -9 14l1 6q2 11 13 11h23l16 114q1 5 5 9t9 4h22q13 0 11 -13l-16 -114h397l16 114q2 11 7 12t10 1h20q13 0 11 -13l-16 -114h22q12 0 11 -12l-1 -7q-2 -12 -14 -12h-22l-75 -529q-1 -5 -5 -9t-9 -4h-21q-9 0 -11.5 5t-1.5 13l46 320h-397l-46 -325
q-2 -8 -6 -10.5t-12 -2.5h-18q-13 0 -11 13zM560 381l23 161h-398l-22 -161h397z" />
    <glyph glyph-name="hbar" unicode="&#x127;" horiz-adv-x="524" 
d="M59 0q-7 0 -9.5 4.5t-1.5 10.5l74 527h-34q-5 0 -7.5 4.5t-1.5 9.5l1 6q2 11 13 11h33l16 113q1 5 3.5 9.5t9.5 4.5h19q5 0 9.5 -4.5t3.5 -9.5l-17 -113h166q12 0 11 -12l-1 -7q-1 -5 -5 -8.5t-9 -3.5h-166l-20 -140q5 6 19 17.5t35.5 23t49 20.5t59.5 9q75 0 111 -51
t21 -155l-35 -251q-1 -6 -5.5 -10.5t-10.5 -4.5h-15q-7 0 -10.5 4.5t-2.5 10.5l35 251q11 86 -15 124.5t-82 38.5q-33 0 -61.5 -12t-50.5 -26.5t-35.5 -27.5t-14.5 -15l-47 -333q-2 -15 -16 -15h-16z" />
    <glyph glyph-name="Itilde" unicode="&#x128;" horiz-adv-x="252" 
d="M158 687q2 13 15 13h22q13 0 11 -13l-94 -674q-3 -13 -16 -13h-21q-13 0 -11 13zM71 804q-9 3 -4 14q3 7 10 21t18 28.5t27 25.5t39 11t34.5 -14t19 -31.5t15 -31.5t22.5 -14q12 0 21.5 6.5t16 16t11 19.5t7.5 17q5 12 15 7l12 -4q2 -2 4 -4.5t0 -8.5q-1 -3 -6.5 -17
t-17 -29t-28.5 -27.5t-41 -12.5q-23 0 -34.5 14.5t-19.5 31.5t-15.5 31.5t-21.5 14.5q-13 0 -22.5 -7.5t-17 -17.5t-12 -20.5l-7.5 -17.5q-4 -11 -14 -6z" />
    <glyph glyph-name="itilde" unicode="&#x129;" horiz-adv-x="216" 
d="M59 0q-7 0 -9.5 4.5t-1.5 10.5l61 432q1 6 6 10.5t12 4.5h14q6 0 9.5 -4.5t2.5 -10.5l-61 -432q-2 -15 -15 -15h-18v0zM24 584q-9 3 -4 14q3 7 10 21t18 28.5t27 25.5t39 11t34.5 -14t19 -31.5t15 -31.5t22.5 -14q12 0 21.5 6.5t16 16t11 19.5t7.5 17q5 12 15 7l12 -4
q2 -2 4 -4.5t0 -8.5q-1 -3 -6.5 -17t-17 -29t-28.5 -27.5t-41 -12.5q-23 0 -34.5 14.5t-19.5 31.5t-15.5 31.5t-21.5 14.5q-13 0 -22.5 -7.5t-17 -17.5t-12 -20.5l-7.5 -17.5q-4 -11 -14 -6z" />
    <glyph glyph-name="Imacron" unicode="&#x12a;" horiz-adv-x="252" 
d="M158 687q2 13 15 13h22q13 0 11 -13l-94 -674q-3 -13 -16 -13h-21q-13 0 -11 13zM80 831q-13 0 -11 13l2 12q2 13 14 13h243q5 0 8.5 -3.5t1.5 -9.5l-1 -12q-2 -13 -15 -13h-242z" />
    <glyph glyph-name="imacron" unicode="&#x12b;" horiz-adv-x="216" 
d="M59 0q-7 0 -9.5 4.5t-1.5 10.5l61 432q1 6 6 10.5t12 4.5h14q6 0 9.5 -4.5t2.5 -10.5l-61 -432q-2 -15 -15 -15h-18v0zM32 595q-13 0 -11 12l2 13q2 13 14 13h242q13 0 11 -13l-2 -13q-2 -12 -14 -12h-242z" />
    <glyph glyph-name="Ibreve" unicode="&#x12c;" horiz-adv-x="252" 
d="M158 687q2 13 15 13h22q13 0 11 -13l-94 -674q-3 -13 -16 -13h-21q-13 0 -11 13zM196 775q-22 0 -41 8.5t-33 23.5t-21.5 35.5t-7.5 43.5q0 5 2.5 9.5t8.5 4.5h11q5 0 7 -3.5t3 -8.5q5 -33 23.5 -55.5t50.5 -22.5q29 0 55.5 22.5t38.5 55.5q5 12 13 12h16q5 0 7.5 -4.5
t0.5 -9.5q-14 -48 -49.5 -79.5t-84.5 -31.5z" />
    <glyph glyph-name="ibreve" unicode="&#x12d;" horiz-adv-x="216" 
d="M59 0q-7 0 -9.5 4.5t-1.5 10.5l61 432q1 6 6 10.5t12 4.5h14q6 0 9.5 -4.5t2.5 -10.5l-61 -432q-2 -15 -15 -15h-18v0zM146 538q-21 0 -39.5 8.5t-32.5 23.5t-22 35t-9 43q0 14 12 14h11q8 0 10 -11q3 -34 22 -56.5t51 -22.5q30 0 56.5 22.5t37.5 56.5q5 11 14 11h16
q10 0 7 -14q-13 -47 -48.5 -78.5t-85.5 -31.5z" />
    <glyph glyph-name="Iogonek" unicode="&#x12e;" horiz-adv-x="252" 
d="M159 687q2 13 15 13h22q13 0 11 -13l-94 -672q-1 -7 -4.5 -10t-8.5 -5q-22 -12 -45.5 -27t-43 -34t-32 -42.5t-12.5 -51.5q0 -22 13.5 -35t38.5 -13q23 0 42.5 10.5t28.5 15.5q2 2 6 1.5t4 -5.5l-1 -19q0 -5 -2 -9.5t-10 -8.5q-11 -6 -31.5 -15t-45.5 -9q-41 0 -64 24
t-23 59q0 30 11.5 55t31 46.5t45.5 39.5t54 34z" />
    <glyph glyph-name="iogonek" unicode="&#x12f;" horiz-adv-x="216" 
d="M110 447q1 6 6 10.5t12 4.5h14q6 0 9.5 -4.5t2.5 -10.5l-61 -428q-2 -14 -11 -19q-20 -10 -43 -25t-43 -34.5t-33.5 -43.5t-13.5 -52q0 -22 13.5 -35t38.5 -13q23 0 42.5 10.5t28.5 15.5q2 2 6 1.5t4 -5.5l-1 -19q0 -5 -2 -9.5t-10 -8.5q-11 -6 -31.5 -15t-45.5 -9
q-41 0 -64 24t-23 59q0 30 12 55.5t32 47t46 39.5t54 34zM151 590q-15 0 -25 9.5t-10 23.5q0 18 14 31t32 13q15 0 24 -9.5t9 -23.5q0 -18 -13 -31t-31 -13z" />
    <glyph glyph-name="Idotaccent" unicode="&#x130;" horiz-adv-x="252" 
d="M158 687q2 13 15 13h22q13 0 11 -13l-94 -674q-3 -13 -16 -13h-21q-13 0 -11 13zM199 809q-15 0 -25 9.5t-10 23.5q0 18 14 31t32 13q15 0 24 -9.5t9 -23.5q0 -18 -13 -31t-31 -13z" />
    <glyph glyph-name="dotlessi" unicode="&#x131;" horiz-adv-x="216" 
d="M59 0q-7 0 -9.5 4.5t-1.5 10.5l61 432q1 6 6 10.5t12 4.5h14q6 0 9.5 -4.5t2.5 -10.5l-61 -432q-2 -15 -15 -15h-18v0z" />
    <glyph glyph-name="IJ" unicode="&#x132;" horiz-adv-x="641" 
d="M158 687q2 13 15 13h22q13 0 11 -13l-94 -674q-3 -13 -16 -13h-21q-13 0 -11 13zM201 65q-6 11 3 17l14 11q11 9 17 0q6 -8 14 -18.5t20 -20t28.5 -16t37.5 -6.5q27 0 51.5 8.5t44 27.5t34 49.5t20.5 75.5l70 494q2 13 15 13h21q13 0 11 -13l-70 -493
q-15 -106 -67.5 -155t-133.5 -49q-30 0 -52 9t-38 21t-26 24.5t-14 20.5z" />
    <glyph glyph-name="ij" unicode="&#x133;" horiz-adv-x="415" 
d="M59 0q-7 0 -9.5 4.5t-1.5 10.5l61 432q1 6 6 10.5t12 4.5h14q6 0 9.5 -4.5t2.5 -10.5l-61 -432q-2 -15 -15 -15h-18zM150 590q-15 0 -25 9.5t-10 23.5q0 18 14 31t32 13q15 0 24 -9.5t9 -23.5q0 -18 -13 -31t-31 -13zM349 591q-15 0 -25 9.5t-10 23.5q0 18 14 31t32 13
q15 0 24 -9.5t9 -23.5q0 -18 -13 -31t-31 -13zM280 -71q-6 -43 -17.5 -72t-29 -49t-41 -32.5t-52.5 -21.5q-18 -6 -22 8l-4 13q-2 6 1 13t12 9q41 10 70 36.5t37 86.5l74 527q1 6 6 10.5t12 4.5h14q5 0 9.5 -4.5t2.5 -10.5z" />
    <glyph glyph-name="Jcircumflex" unicode="&#x134;" horiz-adv-x="434" 
d="M-6 65q-6 11 3 17l14 11q11 9 17 0q6 -8 14 -18.5t20 -20t28.5 -16t37.5 -6.5q27 0 51.5 8.5t44 27.5t34 49.5t20.5 75.5l70 494q2 13 15 13h21q13 0 11 -13l-70 -493q-15 -106 -67.5 -155t-133.5 -49q-30 0 -52 9t-38 21t-26 24.5t-14 20.5zM283 768q-7 -5 -10 -3t-5 5
l-7 11q-4 7 4 14l123 98q6 5 12 5q4 0 9 -5l96 -98q3 -3 4.5 -6.5t-2.5 -7.5l-7 -8q-3 -3 -6.5 -5t-8.5 3l-89 81z" />
    <glyph glyph-name="jcircumflex" unicode="&#x135;" horiz-adv-x="216" 
d="M81 -71q-6 -43 -17.5 -72t-29 -49t-41 -32.5t-52.5 -21.5q-18 -6 -22 8l-4 13q-2 6 1 13t12 9q41 10 70 36.5t37 86.5l74 527q1 6 6 10.5t12 4.5h14q5 0 9.5 -4.5t2.5 -10.5zM23 563q-4 7 4 14l123 98q6 5 12 5q4 0 9 -5l96 -98q3 -3 4.5 -6.5t-2.5 -7.5l-7 -8
q-3 -3 -6.5 -5t-8.5 3l-89 81l-113 -84q-7 -5 -10 -3t-5 5z" />
    <glyph glyph-name="uni0136" unicode="&#x136;" horiz-adv-x="534" 
d="M158 685q2 15 16 15h19q15 0 13 -15l-45 -312l346 320q7 5 10 6t10 1h30q8 0 8.5 -6t-4.5 -11l-357 -330l274 -336q4 -4 1 -10.5t-14 -6.5h-24q-11 0 -20 10l-265 329l-45 -326q-1 -8 -6 -10.5t-11 -2.5h-20q-13 0 -11 13zM176 -119q0 18 13.5 30.5t33.5 12.5
q23 0 35.5 -15t12.5 -42q0 -32 -14.5 -65t-42.5 -55q-7 -7 -12 -1l-10 10q-5 5 -3 8t6 6q16 14 27 35t11 41q0 8 -3 14q-7 -7 -23 -7q-14 0 -22.5 8t-8.5 20z" />
    <glyph glyph-name="uni0137" unicode="&#x137;" horiz-adv-x="428" 
d="M59 0q-7 0 -9.5 4.5t-1.5 10.5l94 671q1 5 5.5 9.5t10.5 4.5h16q5 0 9.5 -4.5t3.5 -9.5l-59 -410l230 179q8 7 18 7h31q9 0 10 -6.5t-7 -12.5l-244 -191l189 -232q6 -7 2 -13.5t-11 -6.5h-18q-7 0 -11.5 0.5t-10.5 8.5l-183 230l-32 -224q-2 -15 -16 -15h-16v0zM132 -119
q0 18 13.5 30.5t33.5 12.5q23 0 35.5 -15t12.5 -42q0 -32 -14.5 -65t-42.5 -55q-7 -7 -12 -1l-10 10q-5 5 -3 8t6 6q16 14 27 35t11 41q0 8 -3 14q-7 -7 -23 -7q-14 0 -22.5 8t-8.5 20z" />
    <glyph glyph-name="kgreenlandic" unicode="&#x138;" horiz-adv-x="457" 
d="M108 447q1 6 5.5 10.5t10.5 4.5h22q5 0 8.5 -4.5t2.5 -10.5l-27 -196l248 204q8 7 19 7h36q8 0 7.5 -8t-8.5 -13l-257 -210l214 -211q6 -5 2 -12.5t-10 -7.5h-29q-5 0 -8.5 1.5t-10.5 7.5l-209 205l-28 -199q-2 -15 -15 -15h-18q-7 0 -12 4.5t-4 10.5z" />
    <glyph glyph-name="Lacute" unicode="&#x139;" horiz-adv-x="457" 
d="M158 687q1 5 5 9t9 4h23q5 0 8 -4t2 -9l-91 -645h283q9 0 10.5 -4t0.5 -9l-3 -18q-2 -11 -14 -11h-317q-13 0 -11 13zM128 781q-12 -5 -15 3l-4 11q-3 8 8 14l157 90q3 2 8.5 2t7.5 -5l9 -21q3 -10 -6 -15z" />
    <glyph glyph-name="lacute" unicode="&#x13a;" horiz-adv-x="229" 
d="M65 0q-7 0 -9.5 4.5t-1.5 10.5l94 671q1 5 5 9.5t9 4.5h19q5 0 9.5 -4.5t3.5 -9.5l-96 -671q-2 -15 -16 -15h-17v0zM131 776q-12 -5 -15 3l-4 11q-3 8 8 14l157 90q3 2 8.5 2t7.5 -5l9 -21q3 -10 -6 -15z" />
    <glyph glyph-name="uni013B" unicode="&#x13b;" horiz-adv-x="457" 
d="M158 687q1 5 5 9t9 4h23q5 0 8 -4t2 -9l-91 -645h283q9 0 10.5 -4t0.5 -9l-3 -18q-2 -11 -14 -11h-317q-13 0 -11 13zM166 -119q0 18 13.5 30.5t33.5 12.5q23 0 35.5 -15t12.5 -42q0 -32 -14.5 -65t-42.5 -55q-7 -7 -12 -1l-10 10q-5 5 -3 8t6 6q16 14 27 35t11 41
q0 8 -3 14q-7 -7 -23 -7q-14 0 -22.5 8t-8.5 20z" />
    <glyph glyph-name="uni013C" unicode="&#x13c;" horiz-adv-x="229" 
d="M65 0q-7 0 -9.5 4.5t-1.5 10.5l94 671q1 5 5 9.5t9 4.5h19q5 0 9.5 -4.5t3.5 -9.5l-96 -671q-2 -15 -16 -15h-17v0zM11 -119q0 18 13.5 30.5t33.5 12.5q23 0 35.5 -15t12.5 -42q0 -32 -14.5 -65t-42.5 -55q-7 -7 -12 -1l-10 10q-5 5 -3 8t6 6q16 14 27 35t11 41
q0 8 -3 14q-7 -7 -23 -7q-14 0 -22.5 8t-8.5 20z" />
    <glyph glyph-name="Lcaron" unicode="&#x13d;" horiz-adv-x="459" 
d="M158 687q1 5 5 9t9 4h23q5 0 8 -4t2 -9l-91 -645h283q9 0 10.5 -4t0.5 -9l-3 -18q-2 -11 -14 -11h-317q-13 0 -11 13zM333 668q0 18 13.5 30.5t33.5 12.5q23 0 35.5 -15t12.5 -42q0 -32 -14.5 -65t-42.5 -55q-7 -7 -12 -1l-10 10q-5 5 -3 8t6 6q16 14 27 35t11 41
q0 8 -3 14q-7 -7 -23 -7q-14 0 -22.5 8t-8.5 20z" />
    <glyph glyph-name="lcaron" unicode="&#x13e;" horiz-adv-x="229" 
d="M65 0q-7 0 -9.5 4.5t-1.5 10.5l94 671q1 5 5 9.5t9 4.5h19q5 0 9.5 -4.5t3.5 -9.5l-96 -671q-2 -15 -16 -15h-17v0zM256 668q0 18 13.5 30.5t33.5 12.5q23 0 35.5 -15t12.5 -42q0 -32 -14.5 -65t-42.5 -55q-7 -7 -12 -1l-10 10q-5 5 -3 8t6 6q16 14 27 35t11 41
q0 8 -3 14q-7 -7 -23 -7q-14 0 -22.5 8t-8.5 20z" />
    <glyph glyph-name="Ldot" unicode="&#x13f;" horiz-adv-x="475" 
d="M158 687q1 5 5 9t9 4h23q5 0 8 -4t2 -9l-91 -645h283q9 0 10.5 -4t0.5 -9l-3 -18q-2 -11 -14 -11h-317q-13 0 -11 13zM412 316q-15 0 -25 10.5t-10 24.5q0 20 14.5 32.5t31.5 12.5q15 0 24 -10t9 -25q0 -19 -13 -32t-31 -13z" />
    <glyph glyph-name="ldot" unicode="&#x140;" horiz-adv-x="294" 
d="M65 0q-7 0 -9.5 4.5t-1.5 10.5l94 671q1 5 5 9.5t9 4.5h19q5 0 9.5 -4.5t3.5 -9.5l-96 -671q-2 -15 -16 -15h-17v0zM265 303q-15 0 -25 10.5t-10 24.5q0 20 14.5 32.5t31.5 12.5q15 0 24 -10t9 -25q0 -19 -13 -32t-31 -13z" />
    <glyph glyph-name="Lslash" unicode="&#x141;" horiz-adv-x="459" 
d="M107 320l-30 -16q-11 -7 -15 4l-2 8q-2 11 6 15l46 24l47 332q2 13 15 13h21q13 0 11 -13l-43 -305l137 74q11 8 15 -5l2 -6q4 -11 -7 -16l-152 -83l-43 -304h290q9 0 10.5 -4t0.5 -11l-2 -14q-2 -13 -15 -13h-324q-13 0 -11 13z" />
    <glyph glyph-name="lslash" unicode="&#x142;" horiz-adv-x="275" 
d="M71 0q-7 0 -9.5 4.5t-1.5 10.5l45 320l-63 -34q-5 -2 -9 -1.5t-6 5.5l-2 6q-2 5 -1 9.5t7 7.5l79 42l44 316q1 5 5 9.5t9 4.5h19q5 0 9.5 -4.5t3.5 -9.5l-42 -290l106 57q11 6 15 -5l2 -6q4 -10 -7 -16l-121 -65l-49 -346q-2 -15 -16 -15h-17z" />
    <glyph glyph-name="Nacute" unicode="&#x143;" horiz-adv-x="709" 
d="M160 697q3 13 16 13h5q9 0 15 -9l338 -612h2l82 598q2 13 15 13h20q13 0 11 -13l-96 -684q-1 -7 -6 -10t-11 -3h-6q-9 0 -15 9l-336 614h-1l-84 -600q-2 -10 -9.5 -11.5t-15.5 -1.5h-9q-13 0 -11 13zM362 781q-12 -5 -15 3l-4 11q-3 8 8 14l157 90q3 2 8.5 2t7.5 -5
l9 -21q3 -10 -6 -15z" />
    <glyph glyph-name="nacute" unicode="&#x144;" horiz-adv-x="505" 
d="M59 0q-7 0 -9.5 4.5t-1.5 10.5l61 432q1 6 4 10.5t10 4.5h10q13 0 13 -12l-3 -46q7 7 20.5 18.5t33 22.5t44.5 19t57 8q42 0 69 -14.5t41.5 -41.5t17.5 -65t-4 -85l-36 -251q-1 -6 -5.5 -10.5t-10.5 -4.5h-15q-7 0 -10.5 4.5t-2.5 10.5l36 251q11 81 -8.5 122t-80.5 41
q-32 0 -57.5 -10.5t-44.5 -23.5t-31 -26t-16 -17l-48 -337q-2 -15 -17 -15h-16v0zM262 559q-12 -5 -15 3l-4 11q-3 8 8 14l157 90q3 2 8.5 2t7.5 -5l9 -21q3 -10 -6 -15z" />
    <glyph glyph-name="uni0145" unicode="&#x145;" horiz-adv-x="709" 
d="M160 697q3 13 16 13h5q9 0 15 -9l338 -612h2l82 598q2 13 15 13h20q13 0 11 -13l-96 -684q-1 -7 -6 -10t-11 -3h-6q-9 0 -15 9l-336 614h-1l-84 -600q-2 -10 -9.5 -11.5t-15.5 -1.5h-9q-13 0 -11 13zM255 -119q0 18 13.5 30.5t33.5 12.5q23 0 35.5 -15t12.5 -42
q0 -32 -14.5 -65t-42.5 -55q-7 -7 -12 -1l-10 10q-5 5 -3 8t6 6q16 14 27 35t11 41q0 8 -3 14q-7 -7 -23 -7q-14 0 -22.5 8t-8.5 20z" />
    <glyph glyph-name="uni0146" unicode="&#x146;" horiz-adv-x="505" 
d="M59 0q-7 0 -9.5 4.5t-1.5 10.5l61 432q1 6 4 10.5t10 4.5h10q13 0 13 -12l-3 -46q7 7 20.5 18.5t33 22.5t44.5 19t57 8q42 0 69 -14.5t41.5 -41.5t17.5 -65t-4 -85l-36 -251q-1 -6 -5.5 -10.5t-10.5 -4.5h-15q-7 0 -10.5 4.5t-2.5 10.5l36 251q11 81 -8.5 122t-80.5 41
q-32 0 -57.5 -10.5t-44.5 -23.5t-31 -26t-16 -17l-48 -337q-2 -15 -17 -15h-16v0zM164 -119q0 18 13.5 30.5t33.5 12.5q23 0 35.5 -15t12.5 -42q0 -32 -14.5 -65t-42.5 -55q-7 -7 -12 -1l-10 10q-5 5 -3 8t6 6q16 14 27 35t11 41q0 8 -3 14q-7 -7 -23 -7q-14 0 -22.5 8
t-8.5 20z" />
    <glyph glyph-name="Ncaron" unicode="&#x147;" horiz-adv-x="709" 
d="M160 697q3 13 16 13h5q9 0 15 -9l338 -612h2l82 598q2 13 15 13h20q13 0 11 -13l-96 -684q-1 -7 -6 -10t-11 -3h-6q-9 0 -15 9l-336 614h-1l-84 -600q-2 -10 -9.5 -11.5t-15.5 -1.5h-9q-13 0 -11 13zM428 762q-4 0 -9 5l-96 98q-8 8 -2 14l7 8q3 3 6.5 5t8.5 -3l89 -81
l113 84q7 5 10 3t5 -5l7 -11q4 -7 -4 -14l-123 -98q-6 -5 -12 -5z" />
    <glyph glyph-name="ncaron" unicode="&#x148;" horiz-adv-x="505" 
d="M59 0q-7 0 -9.5 4.5t-1.5 10.5l61 432q1 6 4 10.5t10 4.5h10q13 0 13 -12l-3 -46q7 7 20.5 18.5t33 22.5t44.5 19t57 8q42 0 69 -14.5t41.5 -41.5t17.5 -65t-4 -85l-36 -251q-1 -6 -5.5 -10.5t-10.5 -4.5h-15q-7 0 -10.5 4.5t-2.5 10.5l36 251q11 81 -8.5 122t-80.5 41
q-32 0 -57.5 -10.5t-44.5 -23.5t-31 -26t-16 -17l-48 -337q-2 -15 -17 -15h-16v0zM297 544q-4 0 -9 5l-96 98q-8 8 -2 14l7 8q3 3 6.5 5t8.5 -3l89 -81l113 84q7 5 10 3t5 -5l7 -11q4 -7 -4 -14l-123 -98q-6 -5 -12 -5z" />
    <glyph glyph-name="napostrophe" unicode="&#x149;" horiz-adv-x="505" 
d="M49 668q0 18 13.5 30.5t33.5 12.5q23 0 35.5 -15t12.5 -42q0 -32 -14.5 -65t-42.5 -55q-7 -7 -12 -1l-10 10q-5 5 -3 8t6 6q16 14 27 35t11 41q0 8 -3 14q-7 -7 -23 -7q-14 0 -22.5 8t-8.5 20zM59 0q-7 0 -9.5 4.5t-1.5 10.5l61 432q1 6 4 10.5t10 4.5h10q13 0 13 -12
l-3 -46q7 7 20.5 18.5t33 22.5t44.5 19t57 8q42 0 69 -14.5t41.5 -41.5t17.5 -65t-4 -85l-36 -251q-1 -6 -5.5 -10.5t-10.5 -4.5h-15q-7 0 -10.5 4.5t-2.5 10.5l36 251q11 81 -8.5 122t-80.5 41q-32 0 -57.5 -10.5t-44.5 -23.5t-31 -26t-16 -17l-48 -337q-2 -15 -17 -15h-16
v0z" />
    <glyph glyph-name="Eng" unicode="&#x14a;" horiz-adv-x="710" 
d="M160 697q3 13 16 13h5q9 0 15 -9l338 -612h1l83 598q2 13 15 13h20q13 0 11 -13l-106 -758q-6 -43 -17.5 -72t-29 -49t-41 -32.5t-52.5 -21.5q-18 -6 -22 8l-4 13q-2 6 1 13t12 9q41 10 70 36.5t37 86.5l12 90l-330 603h-1l-84 -600q-2 -10 -9.5 -11.5t-15.5 -1.5h-9
q-13 0 -11 13z" />
    <glyph glyph-name="eng" unicode="&#x14b;" horiz-adv-x="506" 
d="M59 0q-7 0 -9.5 4.5t-1.5 10.5l61 432q1 6 4 10.5t10 4.5h10q13 0 13 -12l-3 -46q7 7 20.5 18.5t33 22.5t44.5 19t57 8q42 0 69 -14.5t41.5 -41.5t17.5 -65t-4 -85l-47 -337q-6 -43 -17.5 -72t-29 -49t-41 -32.5t-52.5 -21.5q-18 -6 -22 8l-4 13q-2 6 1 13t12 9
q41 10 70 36.5t37 86.5l49 346q11 81 -8.5 122t-80.5 41q-32 0 -57.5 -10.5t-44.5 -23.5t-31 -26t-16 -17l-48 -337q-2 -15 -17 -15h-16z" />
    <glyph glyph-name="Omacron" unicode="&#x14c;" horiz-adv-x="769" 
d="M65 300q0 85 30 159.5t82 130t120.5 88t146.5 32.5q59 0 110 -24.5t88.5 -67t58.5 -99.5t21 -122q0 -85 -30 -159t-82 -129t-120.5 -87t-146.5 -32q-59 0 -110 24t-88.5 66t-58.5 98.5t-21 121.5zM111 306q0 -56 17.5 -105.5t49 -86.5t75 -58.5t96.5 -21.5q64 0 123 28
t104.5 76.5t72.5 113.5t27 139q0 57 -17.5 107t-49 87.5t-75.5 59t-96 21.5q-64 0 -123 -28.5t-104.5 -77.5t-72.5 -114.5t-27 -139.5zM348 831q-13 0 -11 13l2 12q2 13 14 13h243q5 0 8.5 -3.5t1.5 -9.5l-1 -12q-2 -13 -15 -13h-242z" />
    <glyph glyph-name="omacron" unicode="&#x14d;" horiz-adv-x="531" 
d="M46 197q0 57 19.5 107t53 87.5t78.5 59t96 21.5q37 0 69.5 -16.5t56 -44.5t37 -65.5t13.5 -80.5q0 -57 -19.5 -107.5t-53 -88t-78 -59t-94.5 -21.5q-38 0 -70.5 16.5t-56.5 44.5t-37.5 66t-13.5 81zM90 202q0 -36 10 -67t28.5 -54.5t44 -36.5t56.5 -13q38 0 73.5 18
t62.5 49t43.5 73t16.5 90q0 35 -10.5 66t-29 53.5t-44 35.5t-55.5 13q-40 0 -75.5 -18t-62.5 -48.5t-42.5 -72t-15.5 -88.5zM188 595q-13 0 -11 12l2 13q2 13 14 13h242q13 0 11 -13l-2 -13q-2 -12 -14 -12h-242z" />
    <glyph glyph-name="Obreve" unicode="&#x14e;" horiz-adv-x="769" 
d="M65 300q0 85 30 159.5t82 130t120.5 88t146.5 32.5q59 0 110 -24.5t88.5 -67t58.5 -99.5t21 -122q0 -85 -30 -159t-82 -129t-120.5 -87t-146.5 -32q-59 0 -110 24t-88.5 66t-58.5 98.5t-21 121.5zM111 306q0 -56 17.5 -105.5t49 -86.5t75 -58.5t96.5 -21.5q64 0 123 28
t104.5 76.5t72.5 113.5t27 139q0 57 -17.5 107t-49 87.5t-75.5 59t-96 21.5q-64 0 -123 -28.5t-104.5 -77.5t-72.5 -114.5t-27 -139.5zM463 775q-22 0 -41 8.5t-33 23.5t-21.5 35.5t-7.5 43.5q0 5 2.5 9.5t8.5 4.5h11q5 0 7 -3.5t3 -8.5q5 -33 23.5 -55.5t50.5 -22.5
q29 0 55.5 22.5t38.5 55.5q5 12 13 12h16q5 0 7.5 -4.5t0.5 -9.5q-14 -48 -49.5 -79.5t-84.5 -31.5z" />
    <glyph glyph-name="obreve" unicode="&#x14f;" horiz-adv-x="531" 
d="M46 197q0 57 19.5 107t53 87.5t78.5 59t96 21.5q37 0 69.5 -16.5t56 -44.5t37 -65.5t13.5 -80.5q0 -57 -19.5 -107.5t-53 -88t-78 -59t-94.5 -21.5q-38 0 -70.5 16.5t-56.5 44.5t-37.5 66t-13.5 81zM90 202q0 -36 10 -67t28.5 -54.5t44 -36.5t56.5 -13q38 0 73.5 18
t62.5 49t43.5 73t16.5 90q0 35 -10.5 66t-29 53.5t-44 35.5t-55.5 13q-40 0 -75.5 -18t-62.5 -48.5t-42.5 -72t-15.5 -88.5zM299 538q-21 0 -39.5 8.5t-32.5 23.5t-22 35t-9 43q0 14 12 14h11q8 0 10 -11q3 -34 22 -56.5t51 -22.5q30 0 56.5 22.5t37.5 56.5q5 11 14 11h16
q10 0 7 -14q-13 -47 -48.5 -78.5t-85.5 -31.5z" />
    <glyph glyph-name="Ohungarumlaut" unicode="&#x150;" horiz-adv-x="769" 
d="M65 300q0 85 30 159.5t82 130t120.5 88t146.5 32.5q59 0 110 -24.5t88.5 -67t58.5 -99.5t21 -122q0 -85 -30 -159t-82 -129t-120.5 -87t-146.5 -32q-59 0 -110 24t-88.5 66t-58.5 98.5t-21 121.5zM111 306q0 -56 17.5 -105.5t49 -86.5t75 -58.5t96.5 -21.5q64 0 123 28
t104.5 76.5t72.5 113.5t27 139q0 57 -17.5 107t-49 87.5t-75.5 59t-96 21.5q-64 0 -123 -28.5t-104.5 -77.5t-72.5 -114.5t-27 -139.5zM521 766q-12 0 -5 12l89 159q5 11 15 11h22q8 0 10.5 -5t-2.5 -12l-103 -157q-5 -8 -14 -8h-12zM372 766q-11 0 -6 12l89 159q6 11 15 11
h23q8 0 10.5 -5t-2.5 -12l-104 -157q-2 -5 -6 -6.5t-7 -1.5h-12z" />
    <glyph glyph-name="ohungarumlaut" unicode="&#x151;" horiz-adv-x="531" 
d="M46 197q0 57 19.5 107t53 87.5t78.5 59t96 21.5q37 0 69.5 -16.5t56 -44.5t37 -65.5t13.5 -80.5q0 -57 -19.5 -107.5t-53 -88t-78 -59t-94.5 -21.5q-38 0 -70.5 16.5t-56.5 44.5t-37.5 66t-13.5 81zM90 202q0 -36 10 -67t28.5 -54.5t44 -36.5t56.5 -13q38 0 73.5 18
t62.5 49t43.5 73t16.5 90q0 35 -10.5 66t-29 53.5t-44 35.5t-55.5 13q-40 0 -75.5 -18t-62.5 -48.5t-42.5 -72t-15.5 -88.5zM355 518q-12 0 -5 12l89 159q5 11 14 11h23q8 0 10.5 -5t-2.5 -12l-104 -157q-4 -8 -13 -8h-12zM206 518q-11 0 -6 12l89 159q6 11 15 11h23
q8 0 10 -5t-3 -12l-103 -157q-5 -8 -13 -8h-12z" />
    <glyph glyph-name="OE" unicode="&#x152;" horiz-adv-x="881" 
d="M65 300q0 85 30 159.5t81.5 130t120 88t145.5 32.5q26 0 47 -4t29 -6h358q12 0 10 -13l-2 -17q-2 -13 -14 -13h-325l-38 -276h280q13 0 11 -13l-2 -17q-2 -13 -15 -13h-280l-42 -296h325q5 0 8 -4t2 -9l-3 -16q-2 -13 -13 -13h-358q-8 -2 -30.5 -6t-48.5 -4
q-59 0 -109.5 24t-87.5 66t-58 98.5t-21 121.5zM108 306q0 -56 18 -105.5t49.5 -86.5t75.5 -58.5t97 -21.5q34 0 63 7l87 616q-15 4 -30 6t-32 2q-64 0 -123 -28.5t-104.5 -77t-73 -114t-27.5 -139.5z" />
    <glyph glyph-name="oe" unicode="&#x153;" horiz-adv-x="829" 
d="M450 268q52 -8 103.5 -9t93 8t67.5 29.5t26 55.5q0 36 -29 56.5t-77 20.5q-30 0 -57 -8.5t-49.5 -22t-40.5 -30.5t-30 -33zM91 203q0 -35 10 -66t28 -54.5t43.5 -37.5t56.5 -14t58 10t48.5 26t36.5 35t23 36l20 196q-5 15 -16 31.5t-27.5 30.5t-38.5 23.5t-49 9.5
q-38 0 -73 -18t-61.5 -48.5t-42.5 -72t-16 -87.5zM569 -11q-25 0 -50.5 8.5t-47 22t-38.5 31t-25 35.5q-35 -45 -81 -71t-105 -26q-37 0 -69 16.5t-55.5 45t-37 68t-13.5 84.5q0 54 19.5 103t52.5 86t77 58.5t93 21.5q52 0 90.5 -26t61.5 -70q18 22 41.5 39.5t49 30
t51.5 19.5t50 7q30 0 57.5 -7.5t48.5 -22t33 -36.5t12 -51q0 -35 -14.5 -58.5t-38.5 -39t-54.5 -24t-62.5 -11.5q-75 -8 -169 6l-9 -107q8 -19 22.5 -35.5t33.5 -28.5t41 -19t45 -7q25 0 44.5 5t35.5 12t27.5 15t19.5 14q14 10 22 -4l7 -12q2 -4 2 -8.5t-5 -9.5
q-6 -5 -21 -14t-36.5 -18t-48 -15.5t-56.5 -6.5z" />
    <glyph glyph-name="Racute" unicode="&#x154;" horiz-adv-x="602" 
d="M110 13q-2 -13 -18 -13h-18q-13 0 -11 13l95 674q2 13 14 13h225q35 0 66.5 -14.5t55 -39.5t37 -59t13.5 -73q0 -43 -13.5 -81.5t-37.5 -70t-56.5 -53.5t-69.5 -32l93 -259q2 -6 0 -12t-10 -6h-25q-8 0 -11.5 2.5t-5.5 10.5l-91 258q-9 -1 -18.5 -1h-18.5h-159zM340 316
q34 0 66.5 14.5t57.5 40t40 61t15 76.5q0 31 -10 57.5t-27 46t-41.5 31t-52.5 11.5h-187l-48 -338h187zM275 781q-12 -5 -15 3l-4 11q-3 8 8 14l157 90q3 2 8.5 2t7.5 -5l9 -21q3 -10 -6 -15z" />
    <glyph glyph-name="racute" unicode="&#x155;" horiz-adv-x="358" 
d="M59 0q-7 0 -9.5 4.5t-1.5 10.5l61 432q1 6 5 10.5t9 4.5h11q5 0 9 -3t3 -10l-3 -44q5 7 16.5 18.5t29.5 22t42 18.5t53 8q24 0 39.5 -4.5t22.5 -7.5q16 -8 10 -21l-9 -18q-6 -14 -20 -5q-5 2 -19.5 7.5t-37.5 5.5q-24 0 -45 -8.5t-37.5 -21.5t-28.5 -27t-19 -24l-48 -333
q-2 -15 -15 -15h-18v0zM157 559q-12 -5 -15 3l-4 11q-3 8 8 14l157 90q3 2 8.5 2t7.5 -5l9 -21q3 -10 -6 -15z" />
    <glyph glyph-name="uni0156" unicode="&#x156;" horiz-adv-x="602" 
d="M110 13q-2 -13 -18 -13h-18q-13 0 -11 13l95 674q2 13 14 13h225q35 0 66.5 -14.5t55 -39.5t37 -59t13.5 -73q0 -43 -13.5 -81.5t-37.5 -70t-56.5 -53.5t-69.5 -32l93 -259q2 -6 0 -12t-10 -6h-25q-8 0 -11.5 2.5t-5.5 10.5l-91 258q-9 -1 -18.5 -1h-18.5h-159zM340 316
q34 0 66.5 14.5t57.5 40t40 61t15 76.5q0 31 -10 57.5t-27 46t-41.5 31t-52.5 11.5h-187l-48 -338h187zM197 -119q0 18 13.5 30.5t33.5 12.5q23 0 35.5 -15t12.5 -42q0 -32 -14.5 -65t-42.5 -55q-7 -7 -12 -1l-10 10q-5 5 -3 8t6 6q16 14 27 35t11 41q0 8 -3 14
q-7 -7 -23 -7q-14 0 -22.5 8t-8.5 20z" />
    <glyph glyph-name="uni0157" unicode="&#x157;" horiz-adv-x="358" 
d="M59 0q-7 0 -9.5 4.5t-1.5 10.5l61 432q1 6 5 10.5t9 4.5h11q5 0 9 -3t3 -10l-3 -44q5 7 16.5 18.5t29.5 22t42 18.5t53 8q24 0 39.5 -4.5t22.5 -7.5q16 -8 10 -21l-9 -18q-6 -14 -20 -5q-5 2 -19.5 7.5t-37.5 5.5q-24 0 -45 -8.5t-37.5 -21.5t-28.5 -27t-19 -24l-48 -333
q-2 -15 -15 -15h-18v0zM8 -119q0 18 13.5 30.5t33.5 12.5q23 0 35.5 -15t12.5 -42q0 -32 -14.5 -65t-42.5 -55q-7 -7 -12 -1l-10 10q-5 5 -3 8t6 6q16 14 27 35t11 41q0 8 -3 14q-7 -7 -23 -7q-14 0 -22.5 8t-8.5 20z" />
    <glyph glyph-name="Rcaron" unicode="&#x158;" horiz-adv-x="602" 
d="M110 13q-2 -13 -18 -13h-18q-13 0 -11 13l95 674q2 13 14 13h225q35 0 66.5 -14.5t55 -39.5t37 -59t13.5 -73q0 -43 -13.5 -81.5t-37.5 -70t-56.5 -53.5t-69.5 -32l93 -259q2 -6 0 -12t-10 -6h-25q-8 0 -11.5 2.5t-5.5 10.5l-91 258q-9 -1 -18.5 -1h-18.5h-159zM340 316
q34 0 66.5 14.5t57.5 40t40 61t15 76.5q0 31 -10 57.5t-27 46t-41.5 31t-52.5 11.5h-187l-48 -338h187zM341 762q-4 0 -9 5l-96 98q-8 8 -2 14l7 8q3 3 6.5 5t8.5 -3l89 -81l113 84q7 5 10 3t5 -5l7 -11q4 -7 -4 -14l-123 -98q-6 -5 -12 -5z" />
    <glyph glyph-name="rcaron" unicode="&#x159;" horiz-adv-x="358" 
d="M59 0q-7 0 -9.5 4.5t-1.5 10.5l61 432q1 6 5 10.5t9 4.5h11q5 0 9 -3t3 -10l-3 -44q5 7 16.5 18.5t29.5 22t42 18.5t53 8q24 0 39.5 -4.5t22.5 -7.5q16 -8 10 -21l-9 -18q-6 -14 -20 -5q-5 2 -19.5 7.5t-37.5 5.5q-24 0 -45 -8.5t-37.5 -21.5t-28.5 -27t-19 -24l-48 -333
q-2 -15 -15 -15h-18v0zM239 544q-4 0 -9 5l-96 98q-8 8 -2 14l7 8q3 3 6.5 5t8.5 -3l89 -81l113 84q7 5 10 3t5 -5l7 -11q4 -7 -4 -14l-123 -98q-6 -5 -12 -5z" />
    <glyph glyph-name="Sacute" unicode="&#x15a;" horiz-adv-x="503" 
d="M39 70q-4 4 -6 9.5t4 11.5l11 14q10 13 21 2t25.5 -24t34 -24t44 -19t55.5 -8q33 0 63 11.5t52.5 31.5t35.5 48t13 60q0 28 -11 49t-30.5 39t-47.5 33.5t-61 32.5q-33 16 -60 33t-47 37.5t-31 46t-11 60.5t12.5 70t39 63t67 45.5t97.5 17.5q54 0 89 -15.5t64 -35.5
q5 -3 6.5 -9t-3.5 -12l-8 -11q-10 -13 -22 -5q-32 22 -62 33.5t-68 11.5q-42 0 -73 -13t-51.5 -34.5t-30.5 -48t-10 -53.5q0 -26 9.5 -46.5t26 -37t40 -30t50.5 -26.5q39 -19 71.5 -37.5t55 -40.5t35 -49t12.5 -63q0 -44 -17 -80.5t-46.5 -62.5t-68.5 -40.5t-83 -14.5
q-36 0 -66 9t-54 22t-40.5 26.5t-25.5 22.5zM253 774q-12 -5 -15 3l-4 11q-3 8 8 14l157 90q3 2 8.5 2t7.5 -5l9 -21q3 -10 -6 -15z" />
    <glyph glyph-name="sacute" unicode="&#x15b;" horiz-adv-x="393" 
d="M162 -11q-46 0 -81 17.5t-52 33.5q-3 2 -4.5 7t2.5 10l11 16q3 5 9 6t11 -4q6 -5 15.5 -12.5t22.5 -14.5t30 -12t39 -5q50 0 81.5 27t31.5 66q0 17 -8 30t-22.5 24t-33.5 21t-41 21q-23 11 -42 22.5t-33.5 26t-22.5 32.5t-8 41t9 46t27.5 42t47 30.5t66.5 11.5
q42 0 70.5 -12t42.5 -23q11 -8 3 -21l-8 -12q-9 -12 -21 -4q-3 2 -11.5 7t-20.5 10t-27 8.5t-31 3.5q-51 0 -77 -25.5t-26 -58.5q0 -29 25 -50t63 -39q25 -11 47.5 -23.5t39 -27.5t26.5 -33.5t10 -42.5q0 -31 -12 -56.5t-33.5 -44t-51 -29t-63.5 -10.5zM184 560
q-12 -5 -15 3l-4 11q-3 8 8 14l157 90q3 2 8.5 2t7.5 -5l9 -21q3 -10 -6 -15z" />
    <glyph glyph-name="Scircumflex" unicode="&#x15c;" horiz-adv-x="503" 
d="M39 70q-4 4 -6 9.5t4 11.5l11 14q10 13 21 2t25.5 -24t34 -24t44 -19t55.5 -8q33 0 63 11.5t52.5 31.5t35.5 48t13 60q0 28 -11 49t-30.5 39t-47.5 33.5t-61 32.5q-33 16 -60 33t-47 37.5t-31 46t-11 60.5t12.5 70t39 63t67 45.5t97.5 17.5q54 0 89 -15.5t64 -35.5
q5 -3 6.5 -9t-3.5 -12l-8 -11q-10 -13 -22 -5q-32 22 -62 33.5t-68 11.5q-42 0 -73 -13t-51.5 -34.5t-30.5 -48t-10 -53.5q0 -26 9.5 -46.5t26 -37t40 -30t50.5 -26.5q39 -19 71.5 -37.5t55 -40.5t35 -49t12.5 -63q0 -44 -17 -80.5t-46.5 -62.5t-68.5 -40.5t-83 -14.5
q-36 0 -66 9t-54 22t-40.5 26.5t-25.5 22.5zM215 761q-7 -5 -10 -3t-5 5l-7 11q-4 7 4 14l123 98q6 5 12 5q4 0 9 -5l96 -98q3 -3 4.5 -6.5t-2.5 -7.5l-7 -8q-3 -3 -6.5 -5t-8.5 3l-89 81z" />
    <glyph glyph-name="scircumflex" unicode="&#x15d;" horiz-adv-x="393" 
d="M162 -11q-46 0 -81 17.5t-52 33.5q-3 2 -4.5 7t2.5 10l11 16q3 5 9 6t11 -4q6 -5 15.5 -12.5t22.5 -14.5t30 -12t39 -5q50 0 81.5 27t31.5 66q0 17 -8 30t-22.5 24t-33.5 21t-41 21q-23 11 -42 22.5t-33.5 26t-22.5 32.5t-8 41t9 46t27.5 42t47 30.5t66.5 11.5
q42 0 70.5 -12t42.5 -23q11 -8 3 -21l-8 -12q-9 -12 -21 -4q-3 2 -11.5 7t-20.5 10t-27 8.5t-31 3.5q-51 0 -77 -25.5t-26 -58.5q0 -29 25 -50t63 -39q25 -11 47.5 -23.5t39 -27.5t26.5 -33.5t10 -42.5q0 -31 -12 -56.5t-33.5 -44t-51 -29t-63.5 -10.5zM108 564q-4 7 4 14
l123 98q6 5 12 5q4 0 9 -5l96 -98q3 -3 4.5 -6.5t-2.5 -7.5l-7 -8q-3 -3 -6.5 -5t-8.5 3l-89 81l-113 -84q-7 -5 -10 -3t-5 5z" />
    <glyph glyph-name="Scedilla" unicode="&#x15e;" horiz-adv-x="503" 
d="M39 70q-4 4 -6 9.5t4 11.5l11 14q10 13 21 2t25.5 -24t34 -24t44 -19t55.5 -8q33 0 63 11.5t52.5 31.5t35.5 48t13 60q0 28 -11 49t-30.5 39t-47.5 33.5t-61 32.5q-33 16 -60 33t-47 37.5t-31 46t-11 60.5t12.5 70t39 63t67 45.5t97.5 17.5q54 0 89 -15.5t64 -35.5
q5 -3 6.5 -9t-3.5 -12l-8 -11q-10 -13 -22 -5q-32 22 -62 33.5t-68 11.5q-42 0 -73 -13t-51.5 -34.5t-30.5 -48t-10 -53.5q0 -26 9.5 -46.5t26 -37t40 -30t50.5 -26.5q39 -19 71.5 -37.5t55 -40.5t35 -49t12.5 -63q0 -41 -15 -75.5t-40.5 -60t-60 -41t-74.5 -19.5l-44 -61
q10 2 15 2q15 0 29.5 -4t26.5 -12.5t19.5 -23t7.5 -35.5q0 -20 -9 -37t-24.5 -30t-36 -20t-44.5 -7q-28 0 -48.5 9.5t-31.5 21.5q-3 4 -2 7.5t3 5.5l12 19q6 9 14 1q10 -10 21.5 -17.5t31.5 -7.5q10 0 22.5 3t23 9.5t17.5 16.5t7 25q0 20 -15 29t-38 9q-14 0 -27.5 -2.5
t-23.5 -6.5q-5 -2 -10 4t-2 11l64 90q-32 2 -59.5 11.5t-49.5 21.5t-37 24.5t-23 21.5z" />
    <glyph glyph-name="scedilla" unicode="&#x15f;" horiz-adv-x="393" 
d="M322 129q0 -57 -38 -94t-98 -44l-44 -60q10 2 15 2q15 0 29.5 -4t26.5 -12.5t19.5 -23t7.5 -35.5q0 -20 -9 -37t-24.5 -30t-36 -20t-44.5 -7q-28 0 -48.5 9.5t-31.5 21.5q-3 4 -2 7.5t3 5.5l12 19q6 9 14 1q10 -10 21.5 -17.5t31.5 -7.5q10 0 22.5 3t23 9.5t17.5 16.5
t7 25q0 20 -15 29t-38 9q-14 0 -27.5 -2.5t-23.5 -6.5q-5 -2 -10 4t-2 11l63 89q-39 4 -69 20t-45 30q-3 2 -4.5 7t2.5 10l11 16q3 5 9 6t11 -4q6 -5 15.5 -12.5t22.5 -14.5t30 -12t39 -5q50 0 81.5 27t31.5 66q0 17 -8 30t-22.5 24t-33.5 21t-41 21q-23 11 -42 22.5
t-33.5 26t-22.5 32.5t-8 41t9 46t27.5 42t47 30.5t66.5 11.5q42 0 70.5 -12t42.5 -23q11 -8 3 -21l-8 -12q-9 -12 -21 -4q-3 2 -11.5 7t-20.5 10t-27 8.5t-31 3.5q-51 0 -77 -25.5t-26 -58.5q0 -29 25 -50t63 -39q25 -11 47.5 -23.5t39 -27.5t26.5 -33.5t10 -42.5z" />
    <glyph glyph-name="Scaron" unicode="&#x160;" horiz-adv-x="503" 
d="M39 70q-4 4 -6 9.5t4 11.5l11 14q10 13 21 2t25.5 -24t34 -24t44 -19t55.5 -8q33 0 63 11.5t52.5 31.5t35.5 48t13 60q0 28 -11 49t-30.5 39t-47.5 33.5t-61 32.5q-33 16 -60 33t-47 37.5t-31 46t-11 60.5t12.5 70t39 63t67 45.5t97.5 17.5q54 0 89 -15.5t64 -35.5
q5 -3 6.5 -9t-3.5 -12l-8 -11q-10 -13 -22 -5q-32 22 -62 33.5t-68 11.5q-42 0 -73 -13t-51.5 -34.5t-30.5 -48t-10 -53.5q0 -26 9.5 -46.5t26 -37t40 -30t50.5 -26.5q39 -19 71.5 -37.5t55 -40.5t35 -49t12.5 -63q0 -44 -17 -80.5t-46.5 -62.5t-68.5 -40.5t-83 -14.5
q-36 0 -66 9t-54 22t-40.5 26.5t-25.5 22.5zM317 755q-4 0 -9 5l-96 98q-8 8 -2 14l7 8q3 3 6.5 5t8.5 -3l89 -81l113 84q7 5 10 3t5 -5l7 -11q4 -7 -4 -14l-123 -98q-6 -5 -12 -5z" />
    <glyph glyph-name="scaron" unicode="&#x161;" horiz-adv-x="393" 
d="M162 -11q-46 0 -81 17.5t-52 33.5q-3 2 -4.5 7t2.5 10l11 16q3 5 9 6t11 -4q6 -5 15.5 -12.5t22.5 -14.5t30 -12t39 -5q50 0 81.5 27t31.5 66q0 17 -8 30t-22.5 24t-33.5 21t-41 21q-23 11 -42 22.5t-33.5 26t-22.5 32.5t-8 41t9 46t27.5 42t47 30.5t66.5 11.5
q42 0 70.5 -12t42.5 -23q11 -8 3 -21l-8 -12q-9 -12 -21 -4q-3 2 -11.5 7t-20.5 10t-27 8.5t-31 3.5q-51 0 -77 -25.5t-26 -58.5q0 -29 25 -50t63 -39q25 -11 47.5 -23.5t39 -27.5t26.5 -33.5t10 -42.5q0 -31 -12 -56.5t-33.5 -44t-51 -29t-63.5 -10.5zM230 545q-4 0 -9 5
l-96 98q-8 8 -2 14l7 8q3 3 6.5 5t8.5 -3l89 -81l113 84q7 5 10 3t5 -5l7 -11q4 -7 -4 -14l-123 -98q-6 -5 -12 -5z" />
    <glyph glyph-name="uni0162" unicode="&#x162;" horiz-adv-x="469" 
d="M262 657h-170q-8 0 -9.5 4t-0.5 11l2 15q1 6 5 9.5t9 3.5h386q13 0 11 -13l-2 -17q-2 -13 -15 -13h-170l-90 -644q-2 -7 -7 -10l-57 -74q11 4 27 4q29 0 49.5 -16.5t20.5 -53.5q0 -45 -31 -72t-78 -27q-28 0 -49 9.5t-32 21.5q-5 7 1 13l11 14q6 8 13 1q18 -23 55 -23
q27 0 49 16.5t22 46.5q0 22 -14.5 32.5t-37.5 10.5q-14 0 -26 -2.5t-22 -6.5q-5 -2 -8 2.5t0 9.5l68 96q-1 2 -1 8z" />
    <glyph glyph-name="uni0163" unicode="&#x163;" horiz-adv-x="341" 
d="M281 31q-12 -8 -38 -21.5t-61 -18.5l-49 -62q11 4 27 4q29 0 49.5 -16.5t20.5 -53.5q0 -45 -31 -72t-78 -27q-28 0 -49 9.5t-32 21.5q-5 7 1 13l11 14q6 8 13 1q18 -23 55 -23q27 0 49 16.5t22 46.5q0 22 -14.5 32.5t-37.5 10.5q-14 0 -26 -2.5t-22 -6.5q-5 -2 -8 2.5
t0 9.5l58 81q-45 6 -56.5 41.5t-3.5 87.5l44 301h-54q-8 0 -10 4t0 11l3 15q3 12 14 12h53l17 126q1 7 6 11t11 4l13 1q7 0 11 -4.5t2 -10.5l-17 -127h143q7 0 10 -4.5t2 -10.5l-2 -12q-2 -15 -16 -15h-143l-43 -301q-6 -45 1 -66.5t39 -21.5q15 0 30 4t27.5 10t22.5 12
t16 9q8 5 11 3t6 -7l8 -12q7 -11 -5 -19z" />
    <glyph glyph-name="Tcaron" unicode="&#x164;" horiz-adv-x="469" 
d="M262 657h-170q-8 0 -9.5 4t-0.5 11l2 15q1 6 5 9.5t9 3.5h386q13 0 11 -13l-2 -17q-2 -13 -15 -13h-170l-90 -644q-2 -13 -17 -13h-19q-13 0 -11 13zM300 762q-4 0 -9 5l-96 98q-8 8 -2 14l7 8q3 3 6.5 5t8.5 -3l89 -81l113 84q7 5 10 3t5 -5l7 -11q4 -7 -4 -14l-123 -98
q-6 -5 -12 -5z" />
    <glyph glyph-name="tcaron" unicode="&#x165;" horiz-adv-x="340" 
d="M155 -11q-28 0 -45 10t-25 27.5t-9 41t3 51.5l44 301h-54q-8 0 -10 4t0 11l3 15q3 12 14 12h53l17 126q1 7 6 11t11 4l13 1q7 0 11 -4.5t2 -10.5l-17 -127h143q7 0 10 -4.5t2 -10.5l-2 -12q-2 -15 -16 -15h-143l-43 -301q-6 -45 1 -66.5t39 -21.5q15 0 30 4t27.5 10
t22.5 12t16 9q8 5 11 3t6 -7l8 -12q7 -11 -5 -19q-7 -5 -19 -12t-28 -13.5t-35.5 -11.5t-41.5 -5zM325 668q0 18 13.5 30.5t33.5 12.5q23 0 35.5 -15t12.5 -42q0 -32 -14.5 -65t-42.5 -55q-7 -7 -12 -1l-10 10q-5 5 -3 8t6 6q16 14 27 35t11 41q0 8 -3 14q-7 -7 -23 -7
q-14 0 -22.5 8t-8.5 20z" />
    <glyph glyph-name="Tbar" unicode="&#x166;" horiz-adv-x="470" 
d="M213 303h-112q-6 0 -9 4.5t-1 10.5v4q1 5 5 8.5t9 3.5h112l46 323h-170q-8 0 -9.5 4t-0.5 11l2 15q1 6 5 9.5t9 3.5h386q13 0 11 -13l-2 -17q-2 -13 -15 -13h-170l-45 -323h109q5 0 8.5 -3.5t2.5 -8.5l-1 -6q-1 -5 -5 -9t-9 -4h-110l-40 -290q-2 -13 -17 -13h-19
q-13 0 -11 13z" />
    <glyph glyph-name="tbar" unicode="&#x167;" horiz-adv-x="340" 
d="M156 -11q-28 0 -45 10t-25 27.5t-9 41t3 51.5l15 101h-34q-13 0 -11 13l1 6q2 12 14 12h34l25 169h-54q-8 0 -10 4t0 11l3 15q3 12 14 12h53l17 126q1 7 6 11t11 4l13 1q7 0 11 -4.5t2 -10.5l-17 -127h143q7 0 10 -4.5t2 -10.5l-2 -12q-2 -15 -16 -15h-143l-24 -169h100
q13 0 11 -13l-1 -6q-2 -12 -14 -12h-101l-14 -101q-6 -45 1 -66.5t39 -21.5q15 0 30 4t27.5 10t22.5 12t16 9q8 5 11 3t6 -7l8 -12q7 -11 -5 -19q-7 -5 -19 -12t-28 -13.5t-35.5 -11.5t-41.5 -5z" />
    <glyph glyph-name="Utilde" unicode="&#x168;" horiz-adv-x="663" 
d="M152 687q1 5 5 9t9 4h22q13 0 11 -13l-62 -440q-3 -24 -3 -45q0 -78 42 -122t120 -44q89 0 147 56.5t72 153.5l63 441q2 13 15 13h21q5 0 8 -4t2 -9l-62 -445q-8 -57 -31 -103.5t-58.5 -79.5t-82 -51t-101.5 -18q-46 0 -83.5 14.5t-64 41.5t-41 65t-14.5 86q0 21 3 45z
M271 804q-9 3 -4 14q3 7 10 21t18 28.5t27 25.5t39 11t34.5 -14t19 -31.5t15 -31.5t22.5 -14q12 0 21.5 6.5t16 16t11 19.5t7.5 17q5 12 15 7l12 -4q2 -2 4 -4.5t0 -8.5q-1 -3 -6.5 -17t-17 -29t-28.5 -27.5t-41 -12.5q-23 0 -34.5 14.5t-19.5 31.5t-15.5 31.5t-21.5 14.5
q-13 0 -22.5 -7.5t-17 -17.5t-12 -20.5l-7.5 -17.5q-4 -11 -14 -6z" />
    <glyph glyph-name="utilde" unicode="&#x169;" horiz-adv-x="494" 
d="M190 -11q-41 0 -68 12.5t-41.5 37t-17.5 60t3 81.5l38 267q1 6 5.5 10.5t9.5 4.5h16q6 0 10 -4.5t3 -10.5l-39 -267q-11 -81 10 -115t81 -34q32 0 57 12t43 27t28 28t12 15l47 334q1 15 16 15h16q5 0 9 -4.5t2 -10.5l-59 -432q-1 -6 -4.5 -10.5t-9.5 -4.5h-12
q-6 0 -8.5 4.5t-2.5 9.5l2 42q-5 -6 -16.5 -17.5t-30 -22.5t-43.5 -19t-56 -8zM152 584q-9 3 -4 14q3 7 10 21t18 28.5t27 25.5t39 11t34.5 -14t19 -31.5t15 -31.5t22.5 -14q12 0 21.5 6.5t16 16t11 19.5t7.5 17q5 12 15 7l12 -4q2 -2 4 -4.5t0 -8.5q-1 -3 -6.5 -17t-17 -29
t-28.5 -27.5t-41 -12.5q-23 0 -34.5 14.5t-19.5 31.5t-15.5 31.5t-21.5 14.5q-13 0 -22.5 -7.5t-17 -17.5t-12 -20.5l-7.5 -17.5q-4 -11 -14 -6z" />
    <glyph glyph-name="Umacron" unicode="&#x16a;" horiz-adv-x="663" 
d="M152 687q1 5 5 9t9 4h22q13 0 11 -13l-62 -440q-3 -24 -3 -45q0 -78 42 -122t120 -44q89 0 147 56.5t72 153.5l63 441q2 13 15 13h21q5 0 8 -4t2 -9l-62 -445q-8 -57 -31 -103.5t-58.5 -79.5t-82 -51t-101.5 -18q-46 0 -83.5 14.5t-64 41.5t-41 65t-14.5 86q0 21 3 45z
M280 831q-13 0 -11 13l2 12q2 13 14 13h243q5 0 8.5 -3.5t1.5 -9.5l-1 -12q-2 -13 -15 -13h-242z" />
    <glyph glyph-name="umacron" unicode="&#x16b;" horiz-adv-x="494" 
d="M190 -11q-41 0 -68 12.5t-41.5 37t-17.5 60t3 81.5l38 267q1 6 5.5 10.5t9.5 4.5h16q6 0 10 -4.5t3 -10.5l-39 -267q-11 -81 10 -115t81 -34q32 0 57 12t43 27t28 28t12 15l47 334q1 15 16 15h16q5 0 9 -4.5t2 -10.5l-59 -432q-1 -6 -4.5 -10.5t-9.5 -4.5h-12
q-6 0 -8.5 4.5t-2.5 9.5l2 42q-5 -6 -16.5 -17.5t-30 -22.5t-43.5 -19t-56 -8zM160 595q-13 0 -11 12l2 13q2 13 14 13h242q13 0 11 -13l-2 -13q-2 -12 -14 -12h-242z" />
    <glyph glyph-name="Ubreve" unicode="&#x16c;" horiz-adv-x="663" 
d="M152 687q1 5 5 9t9 4h22q13 0 11 -13l-62 -440q-3 -24 -3 -45q0 -78 42 -122t120 -44q89 0 147 56.5t72 153.5l63 441q2 13 15 13h21q5 0 8 -4t2 -9l-62 -445q-8 -57 -31 -103.5t-58.5 -79.5t-82 -51t-101.5 -18q-46 0 -83.5 14.5t-64 41.5t-41 65t-14.5 86q0 21 3 45z
M396 775q-22 0 -41 8.5t-33 23.5t-21.5 35.5t-7.5 43.5q0 5 2.5 9.5t8.5 4.5h11q5 0 7 -3.5t3 -8.5q5 -33 23.5 -55.5t50.5 -22.5q29 0 55.5 22.5t38.5 55.5q5 12 13 12h16q5 0 7.5 -4.5t0.5 -9.5q-14 -48 -49.5 -79.5t-84.5 -31.5z" />
    <glyph glyph-name="ubreve" unicode="&#x16d;" horiz-adv-x="494" 
d="M190 -11q-41 0 -68 12.5t-41.5 37t-17.5 60t3 81.5l38 267q1 6 5.5 10.5t9.5 4.5h16q6 0 10 -4.5t3 -10.5l-39 -267q-11 -81 10 -115t81 -34q32 0 57 12t43 27t28 28t12 15l47 334q1 15 16 15h16q5 0 9 -4.5t2 -10.5l-59 -432q-1 -6 -4.5 -10.5t-9.5 -4.5h-12
q-6 0 -8.5 4.5t-2.5 9.5l2 42q-5 -6 -16.5 -17.5t-30 -22.5t-43.5 -19t-56 -8zM272 538q-21 0 -39.5 8.5t-32.5 23.5t-22 35t-9 43q0 14 12 14h11q8 0 10 -11q3 -34 22 -56.5t51 -22.5q30 0 56.5 22.5t37.5 56.5q5 11 14 11h16q10 0 7 -14q-13 -47 -48.5 -78.5t-85.5 -31.5z
" />
    <glyph glyph-name="Uring" unicode="&#x16e;" horiz-adv-x="663" 
d="M152 687q1 5 5 9t9 4h22q13 0 11 -13l-62 -440q-3 -24 -3 -45q0 -78 42 -122t120 -44q89 0 147 56.5t72 153.5l63 441q2 13 15 13h21q5 0 8 -4t2 -9l-62 -445q-8 -57 -31 -103.5t-58.5 -79.5t-82 -51t-101.5 -18q-46 0 -83.5 14.5t-64 41.5t-41 65t-14.5 86q0 21 3 45z
M392 754q-37 0 -60 26.5t-23 64.5q0 25 8.5 47.5t24 39t36 26t44.5 9.5q36 0 59 -27t23 -65q0 -26 -8.5 -48t-23.5 -38t-35.5 -25.5t-44.5 -9.5zM397 786q32 0 52.5 25t20.5 59q0 26 -14.5 45t-37.5 19q-32 0 -54 -24.5t-22 -58.5q0 -26 15.5 -45.5t39.5 -19.5z" />
    <glyph glyph-name="uring" unicode="&#x16f;" horiz-adv-x="494" 
d="M190 -11q-41 0 -68 12.5t-41.5 37t-17.5 60t3 81.5l38 267q1 6 5.5 10.5t9.5 4.5h16q6 0 10 -4.5t3 -10.5l-39 -267q-11 -81 10 -115t81 -34q32 0 57 12t43 27t28 28t12 15l47 334q1 15 16 15h16q5 0 9 -4.5t2 -10.5l-59 -432q-1 -6 -4.5 -10.5t-9.5 -4.5h-12
q-6 0 -8.5 4.5t-2.5 9.5l2 42q-5 -6 -16.5 -17.5t-30 -22.5t-43.5 -19t-56 -8zM270 497q-37 0 -60 26.5t-23 64.5q0 25 8.5 47.5t24 39t36 26t44.5 9.5q36 0 59 -27t23 -65q0 -26 -8.5 -48t-23.5 -38t-35.5 -25.5t-44.5 -9.5zM275 529q32 0 52.5 25t20.5 59q0 26 -14.5 45
t-37.5 19q-32 0 -54 -24.5t-22 -58.5q0 -26 15.5 -45.5t39.5 -19.5z" />
    <glyph glyph-name="Uhungarumlaut" unicode="&#x170;" horiz-adv-x="663" 
d="M152 687q1 5 5 9t9 4h22q13 0 11 -13l-62 -440q-3 -24 -3 -45q0 -78 42 -122t120 -44q89 0 147 56.5t72 153.5l63 441q2 13 15 13h21q5 0 8 -4t2 -9l-62 -445q-8 -57 -31 -103.5t-58.5 -79.5t-82 -51t-101.5 -18q-46 0 -83.5 14.5t-64 41.5t-41 65t-14.5 86q0 21 3 45z
M453 766q-12 0 -5 12l89 159q5 11 15 11h22q8 0 10.5 -5t-2.5 -12l-103 -157q-5 -8 -14 -8h-12zM304 766q-11 0 -6 12l89 159q6 11 15 11h23q8 0 10.5 -5t-2.5 -12l-104 -157q-2 -5 -6 -6.5t-7 -1.5h-12z" />
    <glyph glyph-name="uhungarumlaut" unicode="&#x171;" horiz-adv-x="494" 
d="M190 -11q-41 0 -68 12.5t-41.5 37t-17.5 60t3 81.5l38 267q1 6 5.5 10.5t9.5 4.5h16q6 0 10 -4.5t3 -10.5l-39 -267q-11 -81 10 -115t81 -34q32 0 57 12t43 27t28 28t12 15l47 334q1 15 16 15h16q5 0 9 -4.5t2 -10.5l-59 -432q-1 -6 -4.5 -10.5t-9.5 -4.5h-12
q-6 0 -8.5 4.5t-2.5 9.5l2 42q-5 -6 -16.5 -17.5t-30 -22.5t-43.5 -19t-56 -8zM349 518q-12 0 -5 12l89 159q5 11 14 11h23q8 0 10.5 -5t-2.5 -12l-104 -157q-4 -8 -13 -8h-12zM200 518q-11 0 -6 12l89 159q6 11 15 11h23q8 0 10 -5t-3 -12l-103 -157q-5 -8 -13 -8h-12z" />
    <glyph glyph-name="Uogonek" unicode="&#x172;" horiz-adv-x="663" 
d="M152 687q1 5 5 9t9 4h22q13 0 11 -13l-60 -427q-7 -48 0 -89t27 -71t53 -47t77 -17t81.5 16.5t66.5 46.5t47.5 71t25.5 89l61 428q2 13 15 13h21q5 0 8 -4t2 -9l-60 -432q-8 -51 -27 -95t-48.5 -78t-67.5 -56.5t-84 -30.5q-21 -11 -42.5 -26t-39 -33.5t-29 -41
t-11.5 -49.5q0 -22 13.5 -35t38.5 -13q23 0 42.5 10.5t28.5 15.5q2 2 6 1.5t4 -5.5l-1 -19q0 -5 -2 -9.5t-10 -8.5q-11 -6 -31.5 -15t-45.5 -9q-41 0 -64 24t-23 59q0 49 29 85t71 65q-47 3 -84 24t-61 56t-33.5 82t-1.5 102z" />
    <glyph glyph-name="uogonek" unicode="&#x173;" horiz-adv-x="494" 
d="M190 -11q-41 0 -67.5 14.5t-41 41.5t-17 64.5t3.5 83.5l36 254q1 6 5.5 10.5t9.5 4.5h16q6 0 10 -4.5t3 -10.5l-37 -254q-11 -81 9 -121.5t80 -40.5q32 0 57 12t43 27t28 28t12 15l47 334q1 15 16 15h16q5 0 9 -4.5t2 -10.5l-59 -432q-2 -13 -12 -19q-21 -11 -44 -25.5
t-43 -33t-33 -41.5t-13 -51q0 -22 13.5 -35t38.5 -13q23 0 42.5 10.5t28.5 15.5q2 2 6 1.5t4 -5.5l-1 -19q0 -5 -2 -9.5t-10 -8.5q-11 -6 -31.5 -15t-45.5 -9q-41 0 -64 24t-23 59q0 30 12.5 55t33.5 46.5t48.5 39t57.5 32.5l2 42q-5 -6 -16.5 -17.5t-30 -22.5t-43.5 -19
t-56 -8z" />
    <glyph glyph-name="Wcircumflex" unicode="&#x174;" horiz-adv-x="809" 
d="M92 687q-1 13 13 13h24q8 0 10 -11l65 -571h3l240 583q4 9 11 9h6q8 0 10 -9l80 -582h2l225 570q4 11 13 11h26q14 0 10 -13l-276 -690q-4 -7 -9 -7h-7q-8 0 -9 7l-81 595h-3l-244 -595q-3 -7 -9 -7h-7q-9 0 -9 7zM371 768q-7 -5 -10 -3t-5 5l-7 11q-4 7 4 14l123 98
q6 5 12 5q4 0 9 -5l96 -98q3 -3 4.5 -6.5t-2.5 -7.5l-7 -8q-3 -3 -6.5 -5t-8.5 3l-89 81z" />
    <glyph glyph-name="wcircumflex" unicode="&#x175;" horiz-adv-x="649" 
d="M66 443q-3 19 11 19h20q5 0 8.5 -2t4.5 -9l47 -355h2l172 365q5 11 14 11h5q8 0 11 -11l72 -365h1l145 355q3 7 7.5 9t9.5 2h23q8 0 9.5 -5.5t-2.5 -13.5l-189 -443q-5 -11 -13 -11h-4q-8 0 -10 11l-73 380h-1l-179 -380q-5 -11 -14 -11h-5q-6 0 -8 11zM237 563
q-4 7 4 14l123 98q6 5 12 5q4 0 9 -5l96 -98q3 -3 4.5 -6.5t-2.5 -7.5l-7 -8q-3 -3 -6.5 -5t-8.5 3l-89 81l-113 -84q-7 -5 -10 -3t-5 5z" />
    <glyph glyph-name="Ycircumflex" unicode="&#x176;" horiz-adv-x="527" 
d="M272 388l247 306q6 6 14 6h33q8 0 10 -4.5t-3 -10.5l-282 -344l-46 -328q-2 -13 -15 -13h-20q-12 0 -11 13l45 327l-181 347q-7 13 9 13h28q5 0 7.5 -2t3.5 -4l159 -306h2zM223 768q-7 -5 -10 -3t-5 5l-7 11q-4 7 4 14l123 98q6 5 12 5q4 0 9 -5l96 -98q3 -3 4.5 -6.5
t-2.5 -7.5l-7 -8q-3 -3 -6.5 -5t-8.5 3l-89 81z" />
    <glyph glyph-name="ycircumflex" unicode="&#x177;" horiz-adv-x="466" 
d="M55 443q-2 8 0.5 13.5t10.5 5.5h21q10 0 13 -11l98 -395h2l209 395q5 11 15 11h24q7 0 9.5 -5.5t-2.5 -13.5l-359 -671q-5 -10 -16 -10h-21q-16 0 -8 16l119 225zM145 563q-4 7 4 14l123 98q6 5 12 5q4 0 9 -5l96 -98q3 -3 4.5 -6.5t-2.5 -7.5l-7 -8q-3 -3 -6.5 -5
t-8.5 3l-89 81l-113 -84q-7 -5 -10 -3t-5 5z" />
    <glyph glyph-name="Ydieresis" unicode="&#x178;" horiz-adv-x="527" 
d="M272 388l247 306q6 6 14 6h33q8 0 10 -4.5t-3 -10.5l-282 -344l-46 -328q-2 -13 -15 -13h-20q-12 0 -11 13l45 327l-181 347q-7 13 9 13h28q5 0 7.5 -2t3.5 -4l159 -306h2zM423 795q-14 0 -24 10.5t-10 24.5q0 19 13.5 32t30.5 13q15 0 25 -10.5t10 -25.5
q0 -18 -13.5 -31t-31.5 -13zM235 795q-15 0 -24.5 10.5t-9.5 24.5q0 19 13.5 32t30.5 13q15 0 25 -10.5t10 -25.5q0 -18 -13.5 -31t-31.5 -13z" />
    <glyph glyph-name="Zacute" unicode="&#x179;" horiz-adv-x="484" 
d="M3 0q-14 0 -12 12l1 8q1 10 7 18l438 615v3h-315q-12 0 -10 13l2 19q2 12 15 12h368q13 0 11 -12l-1 -7q-1 -10 -7 -18l-439 -616v-3h325q13 0 11 -13l-2 -18q-2 -13 -15 -13h-377v0zM259 781q-12 -5 -15 3l-4 11q-3 8 8 14l157 90q3 2 8.5 2t7.5 -5l9 -21q3 -10 -6 -15z
" />
    <glyph glyph-name="zacute" unicode="&#x17a;" horiz-adv-x="392" 
d="M12 0q-8 0 -9.5 3.5t-1.5 9.5q0 8 2.5 11.5t5.5 8.5l297 386v1h-217q-5 0 -9 4.5t-2 9.5l3 13q4 15 14 15h268q14 0 14 -11q0 -5 -4 -11l-304 -396v-2h219q6 0 10 -4t2 -11l-2 -12q-1 -6 -5.5 -10.5t-11.5 -4.5h-269v0zM190 559q-12 -5 -15 3l-4 11q-3 8 8 14l157 90
q3 2 8.5 2t7.5 -5l9 -21q3 -10 -6 -15z" />
    <glyph glyph-name="Zdotaccent" unicode="&#x17b;" horiz-adv-x="484" 
d="M3 0q-14 0 -12 12l1 8q1 10 7 18l438 615v3h-315q-12 0 -10 13l2 19q2 12 15 12h368q13 0 11 -12l-1 -7q-1 -10 -7 -18l-439 -616v-3h325q13 0 11 -13l-2 -18q-2 -13 -15 -13h-377v0zM329 809q-15 0 -25 9.5t-10 23.5q0 18 14 31t32 13q15 0 24 -9.5t9 -23.5
q0 -18 -13 -31t-31 -13z" />
    <glyph glyph-name="zdotaccent" unicode="&#x17c;" horiz-adv-x="392" 
d="M12 0q-8 0 -9.5 3.5t-1.5 9.5q0 8 2.5 11.5t5.5 8.5l297 386v1h-217q-5 0 -9 4.5t-2 9.5l3 13q4 15 14 15h268q14 0 14 -11q0 -5 -4 -11l-304 -396v-2h219q6 0 10 -4t2 -11l-2 -12q-1 -6 -5.5 -10.5t-11.5 -4.5h-269v0zM244 590q-15 0 -25 9.5t-10 23.5q0 18 14 31t32 13
q15 0 24 -9.5t9 -23.5q0 -18 -13 -31t-31 -13z" />
    <glyph glyph-name="Zcaron" unicode="&#x17d;" horiz-adv-x="484" 
d="M3 0q-14 0 -12 12l1 8q1 10 7 18l438 615v3h-315q-12 0 -10 13l2 19q2 12 15 12h368q13 0 11 -12l-1 -7q-1 -10 -7 -18l-439 -616v-3h325q13 0 11 -13l-2 -18q-2 -13 -15 -13h-377v0zM320 762q-4 0 -9 5l-96 98q-8 8 -2 14l7 8q3 3 6.5 5t8.5 -3l89 -81l113 84q7 5 10 3
t5 -5l7 -11q4 -7 -4 -14l-123 -98q-6 -5 -12 -5z" />
    <glyph glyph-name="zcaron" unicode="&#x17e;" horiz-adv-x="392" 
d="M12 0q-8 0 -9.5 3.5t-1.5 9.5q0 8 2.5 11.5t5.5 8.5l297 386v1h-217q-5 0 -9 4.5t-2 9.5l3 13q4 15 14 15h268q14 0 14 -11q0 -5 -4 -11l-304 -396v-2h219q6 0 10 -4t2 -11l-2 -12q-1 -6 -5.5 -10.5t-11.5 -4.5h-269v0zM237 544q-4 0 -9 5l-96 98q-8 8 -2 14l7 8
q3 3 6.5 5t8.5 -3l89 -81l113 84q7 5 10 3t5 -5l7 -11q4 -7 -4 -14l-123 -98q-6 -5 -12 -5z" />
    <glyph glyph-name="florin" unicode="&#x192;" horiz-adv-x="335" 
d="M129 361h-74q-7 0 -9.5 4t-1.5 9l2 13q2 13 14 13h75l19 137q13 89 55.5 131t105.5 42q34 0 60 -14.5t34 -28.5q6 -8 0 -16l-12 -14q-9 -11 -17 -1q-8 11 -28 22.5t-43 11.5q-41 0 -71 -32t-40 -101l-19 -137h128q13 0 11 -12l-3 -15q-2 -12 -14 -12h-128l-61 -434
q-12 -89 -54.5 -132t-105.5 -43q-34 0 -60.5 14.5t-34.5 28.5q-6 9 1 16l12 14q7 11 16 1q8 -11 28 -22.5t43 -11.5q42 0 72 33t40 102z" />
    <glyph glyph-name="Aringacute" unicode="&#x1fa;" horiz-adv-x="607" 
d="M310 920q-3 8 8 14l157 90q3 2 8.5 2t7.5 -5l9 -21q3 -10 -6 -15l-165 -79q-12 -5 -15 3zM-18 0q-12 0 -5 14l365 676q-26 8 -42 32t-16 56q0 25 8.5 47.5t24 39t36 26t44.5 9.5q36 0 59 -27t23 -65q0 -47 -26.5 -80t-67.5 -40l172 -676q2 -5 -0.5 -8.5t-10.5 -3.5h-26
q-7 0 -9.5 3t-3.5 6l-46 184h-338l-96 -184q-2 -3 -5.5 -6t-10.5 -3h-29zM372 719q32 0 52.5 25t20.5 59q0 26 -14.5 45t-37.5 19q-32 0 -54 -24.5t-22 -58.5q0 -26 15.5 -45.5t39.5 -19.5zM450 232l-93 403h-3l-208 -403h304z" />
    <glyph glyph-name="aringacute" unicode="&#x1fb;" horiz-adv-x="517" 
d="M302 510q-37 0 -60 26.5t-23 64.5q0 25 8.5 47.5t24 39t36 26t44.5 9.5q36 0 59 -27t23 -65q0 -26 -8.5 -48t-23.5 -38t-35.5 -25.5t-44.5 -9.5zM307 542q32 0 52.5 25t20.5 59q0 26 -14.5 45t-37.5 19q-32 0 -54 -24.5t-22 -58.5q0 -26 15.5 -45.5t39.5 -19.5zM263 731
q-12 -5 -15 3l-4 11q-3 8 8 14l157 90q3 2 8.5 2t7.5 -5l9 -21q3 -10 -6 -15zM394 15q-1 -6 -6 -10.5t-10 -4.5h-9q-14 0 -13 16l2 40q-5 -6 -18 -17t-32.5 -22.5t-44.5 -19.5t-55 -8q-36 0 -65.5 16t-50.5 44.5t-32.5 67.5t-11.5 84q0 55 18.5 104.5t50 86.5t74 58.5
t90.5 21.5q28 0 50.5 -7t38.5 -16t25.5 -18t12.5 -13l10 31q4 13 14 13h10q5 0 9 -4.5t2 -10.5zM398 369q-1 2 -8.5 11.5t-22 20.5t-36 19.5t-51.5 8.5q-40 0 -74 -18.5t-59.5 -50t-40 -72.5t-14.5 -87q0 -33 9 -64t25 -54.5t39 -37.5t51 -14q32 0 59 12.5t46.5 27.5
t30.5 28.5t12 15.5z" />
    <glyph glyph-name="AEacute" unicode="&#x1fc;" horiz-adv-x="824" 
d="M-34 0q-7 0 -6.5 5t5.5 12l472 666q5 7 11 12t17 5h352q13 0 11 -13l-2 -16q-2 -13 -15 -13h-328l-39 -277h282q8 0 12.5 -3.5t2.5 -11.5l-2 -13q-1 -6 -4.5 -10.5t-11.5 -4.5h-285l-41 -296h328q14 0 11 -15l-3 -14q-2 -13 -14 -13h-359q-13 0 -11 13l25 180h-235
l-127 -184q-8 -9 -17 -9h-29zM380 232l53 382l-266 -382h213zM584 782q-12 -5 -15 3l-4 11q-3 8 8 14l157 90q3 2 8.5 2t7.5 -5l9 -21q3 -10 -6 -15z" />
    <glyph glyph-name="aeacute" unicode="&#x1fd;" horiz-adv-x="733" 
d="M146 -11q-51 0 -85.5 33.5t-34.5 93.5q0 38 14.5 71t40.5 57.5t61 38.5t76 14t67.5 -5.5t35.5 -10.5q6 39 8 67t-3.5 46t-21 26.5t-45.5 8.5q-27 0 -50 -4.5t-40.5 -9.5t-29 -10.5t-14.5 -6.5q-12 -3 -14 9l-3 18q-1 5 2.5 9t8.5 6q19 9 42 16q20 6 46.5 11t58.5 5
q48 0 71.5 -23t27.5 -63q28 37 75 61.5t104 24.5q30 0 55.5 -8.5t45 -24t30.5 -37t11 -48.5q0 -42 -22 -69t-55.5 -42t-74 -21.5t-77 -7.5t-65 0.5t-38.5 2.5l-12 -102q18 -40 52.5 -62t82.5 -22q27 0 47.5 4.5t36.5 11.5t28 15t22 15q5 4 10.5 4.5t9.5 -5.5l9 -15
q6 -10 -4 -19q-20 -17 -61.5 -35t-106.5 -18q-51 0 -87 23.5t-58 55.5q-13 -14 -32 -28t-42.5 -25.5t-49.5 -18.5t-53 -7zM158 31q22 0 43.5 6.5t39.5 16.5t32.5 22.5t23.5 23.5l19 141q-5 2 -31 9.5t-69 7.5q-29 0 -55 -10t-46.5 -28.5t-32.5 -44t-12 -56.5q0 -44 25 -66
t63 -22zM360 257q53 -5 103.5 -4t90.5 11.5t64 31.5t24 56q0 36 -29 56.5t-74 20.5q-23 0 -47.5 -7t-47 -20t-41.5 -30t-32 -38zM383 559q-12 -5 -15 3l-4 11q-3 8 8 14l157 90q3 2 8.5 2t7.5 -5l9 -21q3 -10 -6 -15z" />
    <glyph glyph-name="Oslashacute" unicode="&#x1fe;" horiz-adv-x="768" 
d="M49 28q-6 10 2 18l65 62q-25 38 -38 89.5t-13 102.5q0 85 31 159.5t83.5 130t121 88t143.5 32.5q64 0 117 -26t90 -72l68 64q4 4 9 4.5t8 -4.5l3 -4q7 -9 -3 -18l-67 -64q25 -38 39 -90.5t14 -103.5q0 -84 -31.5 -158t-84 -129t-121.5 -87t-143 -32q-65 0 -118 25t-90 71
l-66 -62q-3 -4 -8 -4t-8 4zM616 581q-32 40 -78 62.5t-101 22.5q-64 0 -123 -28.5t-104.5 -77.5t-73 -114.5t-27.5 -140.5q0 -45 11 -89t32 -76zM170 118q32 -40 77.5 -62t101.5 -22q64 0 123 28t105 76.5t73.5 114t27.5 139.5q0 44 -11.5 89t-33.5 78zM399 781
q-12 -5 -15 3l-4 11q-3 8 8 14l157 90q3 2 8.5 2t7.5 -5l9 -21q3 -10 -6 -15z" />
    <glyph glyph-name="oslashacute" unicode="&#x1ff;" horiz-adv-x="531" 
d="M47 197q0 57 19.5 107t53 87.5t78.5 59t96 21.5q39 0 72.5 -18t57.5 -49l29 27q10 10 19 0l5 -5q11 -9 -3 -21l-32 -29q28 -51 28 -112q0 -57 -19.5 -107.5t-53 -88t-78 -59t-94.5 -21.5q-40 0 -73.5 17.5t-58.5 49.5l-21 -20q-10 -10 -19 1l-5 5q-5 5 -3.5 10.5t6.5 9.5
l24 22q-28 50 -28 113zM91 202q0 -48 17 -87l283 260q-19 25 -45.5 39.5t-58.5 14.5q-40 0 -75.5 -18t-62.5 -48.5t-42.5 -72t-15.5 -88.5zM426 261q0 48 -18 84l-283 -260q19 -26 45.5 -40t59.5 -14q38 0 73.5 18t62.5 49t43.5 73t16.5 90zM257 559q-12 -5 -15 3l-4 11
q-3 8 8 14l157 90q3 2 8.5 2t7.5 -5l9 -21q3 -10 -6 -15z" />
    <glyph glyph-name="uni0218" unicode="&#x218;" horiz-adv-x="503" 
d="M39 70q-4 4 -6 9.5t4 11.5l11 14q10 13 21 2t25.5 -24t34 -24t44 -19t55.5 -8q33 0 63 11.5t52.5 31.5t35.5 48t13 60q0 28 -11 49t-30.5 39t-47.5 33.5t-61 32.5q-33 16 -60 33t-47 37.5t-31 46t-11 60.5t12.5 70t39 63t67 45.5t97.5 17.5q54 0 89 -15.5t64 -35.5
q5 -3 6.5 -9t-3.5 -12l-8 -11q-10 -13 -22 -5q-32 22 -62 33.5t-68 11.5q-42 0 -73 -13t-51.5 -34.5t-30.5 -48t-10 -53.5q0 -26 9.5 -46.5t26 -37t40 -30t50.5 -26.5q39 -19 71.5 -37.5t55 -40.5t35 -49t12.5 -63q0 -44 -17 -80.5t-46.5 -62.5t-68.5 -40.5t-83 -14.5
q-36 0 -66 9t-54 22t-40.5 26.5t-25.5 22.5zM158 -126q0 18 13.5 30.5t33.5 12.5q23 0 35.5 -15t12.5 -42q0 -32 -14.5 -65t-42.5 -55q-7 -7 -12 -1l-10 10q-5 5 -3 8t6 6q16 14 27 35t11 41q0 8 -3 14q-7 -7 -23 -7q-14 0 -22.5 8t-8.5 20z" />
    <glyph glyph-name="uni0219" unicode="&#x219;" horiz-adv-x="393" 
d="M162 -11q-46 0 -81 17.5t-52 33.5q-3 2 -4.5 7t2.5 10l11 16q3 5 9 6t11 -4q6 -5 15.5 -12.5t22.5 -14.5t30 -12t39 -5q50 0 81.5 27t31.5 66q0 17 -8 30t-22.5 24t-33.5 21t-41 21q-23 11 -42 22.5t-33.5 26t-22.5 32.5t-8 41t9 46t27.5 42t47 30.5t66.5 11.5
q42 0 70.5 -12t42.5 -23q11 -8 3 -21l-8 -12q-9 -12 -21 -4q-3 2 -11.5 7t-20.5 10t-27 8.5t-31 3.5q-51 0 -77 -25.5t-26 -58.5q0 -29 25 -50t63 -39q25 -11 47.5 -23.5t39 -27.5t26.5 -33.5t10 -42.5q0 -31 -12 -56.5t-33.5 -44t-51 -29t-63.5 -10.5zM92 -118
q0 18 13.5 30.5t33.5 12.5q23 0 35.5 -15t12.5 -42q0 -32 -14.5 -65t-42.5 -55q-7 -7 -12 -1l-10 10q-5 5 -3 8t6 6q16 14 27 35t11 41q0 8 -3 14q-7 -7 -23 -7q-14 0 -22.5 8t-8.5 20z" />
    <glyph glyph-name="uni021A" unicode="&#x21a;" horiz-adv-x="469" 
d="M262 657h-170q-8 0 -9.5 4t-0.5 11l2 15q1 6 5 9.5t9 3.5h386q13 0 11 -13l-2 -17q-2 -13 -15 -13h-170l-90 -644q-2 -13 -17 -13h-19q-13 0 -11 13zM115 -119q0 18 13.5 30.5t33.5 12.5q23 0 35.5 -15t12.5 -42q0 -32 -14.5 -65t-42.5 -55q-7 -7 -12 -1l-10 10
q-5 5 -3 8t6 6q16 14 27 35t11 41q0 8 -3 14q-7 -7 -23 -7q-14 0 -22.5 8t-8.5 20z" />
    <glyph glyph-name="uni021B" unicode="&#x21b;" horiz-adv-x="340" 
d="M155 -11q-28 0 -45 10t-25 27.5t-9 41t3 51.5l44 301h-54q-8 0 -10 4t0 11l3 15q3 12 14 12h53l17 126q1 7 6 11t11 4l13 1q7 0 11 -4.5t2 -10.5l-17 -127h143q7 0 10 -4.5t2 -10.5l-2 -12q-2 -15 -16 -15h-143l-43 -301q-6 -45 1 -66.5t39 -21.5q15 0 30 4t27.5 10
t22.5 12t16 9q8 5 11 3t6 -7l8 -12q7 -11 -5 -19q-7 -5 -19 -12t-28 -13.5t-35.5 -11.5t-41.5 -5zM96 -119q0 18 13.5 30.5t33.5 12.5q23 0 35.5 -15t12.5 -42q0 -32 -14.5 -65t-42.5 -55q-7 -7 -12 -1l-10 10q-5 5 -3 8t6 6q16 14 27 35t11 41q0 8 -3 14q-7 -7 -23 -7
q-14 0 -22.5 8t-8.5 20z" />
    <glyph glyph-name="uni0237" unicode="&#x237;" horiz-adv-x="216" 
d="M81 -71q-6 -43 -17.5 -72t-29 -49t-41 -32.5t-52.5 -21.5q-18 -6 -22 8l-4 13q-2 6 1 13t12 9q41 10 70 36.5t37 86.5l74 527q1 6 6 10.5t12 4.5h14q5 0 9.5 -4.5t2.5 -10.5z" />
    <glyph glyph-name="circumflex" unicode="&#x2c6;" horiz-adv-x="336" 
d="M62 563q-4 7 4 14l123 98q6 5 12 5q4 0 9 -5l96 -98q3 -3 4.5 -6.5t-2.5 -7.5l-7 -8q-3 -3 -6.5 -5t-8.5 3l-89 81l-113 -84q-7 -5 -10 -3t-5 5z" />
    <glyph glyph-name="caron" unicode="&#x2c7;" horiz-adv-x="336" 
d="M171 544q-4 0 -9 5l-96 98q-8 8 -2 14l7 8q3 3 6.5 5t8.5 -3l89 -81l113 84q7 5 10 3t5 -5l7 -11q4 -7 -4 -14l-123 -98q-6 -5 -12 -5z" />
    <glyph glyph-name="uni02C9" unicode="&#x2c9;" horiz-adv-x="373" 
d="M89 595q-13 0 -11 12l2 13q2 13 14 13h242q13 0 11 -13l-2 -13q-2 -12 -14 -12h-242z" />
    <glyph glyph-name="breve" unicode="&#x2d8;" horiz-adv-x="311" 
d="M171 538q-21 0 -39.5 8.5t-32.5 23.5t-22 35t-9 43q0 14 12 14h11q8 0 10 -11q3 -34 22 -56.5t51 -22.5q30 0 56.5 22.5t37.5 56.5q5 11 14 11h16q10 0 7 -14q-13 -47 -48.5 -78.5t-85.5 -31.5z" />
    <glyph glyph-name="dotaccent" unicode="&#x2d9;" horiz-adv-x="197" 
d="M120 581q-15 0 -25 9.5t-10 23.5q0 18 14 31t32 13q15 0 24 -9.5t9 -23.5q0 -18 -13 -31t-31 -13z" />
    <glyph glyph-name="ring" unicode="&#x2da;" horiz-adv-x="261" 
d="M140 497q-37 0 -60 26.5t-23 64.5q0 25 8.5 47.5t24 39t36 26t44.5 9.5q36 0 59 -27t23 -65q0 -26 -8.5 -48t-23.5 -38t-35.5 -25.5t-44.5 -9.5zM145 529q32 0 52.5 25t20.5 59q0 26 -14.5 45t-37.5 19q-32 0 -54 -24.5t-22 -58.5q0 -26 15.5 -45.5t39.5 -19.5z" />
    <glyph glyph-name="ogonek" unicode="&#x2db;" horiz-adv-x="276" 
d="M207 3q-21 -11 -45.5 -26t-45.5 -34.5t-34.5 -44t-13.5 -53.5q0 -22 13.5 -35t38.5 -13q23 0 42.5 10.5t28.5 15.5q2 2 6 1.5t4 -5.5l-1 -19q0 -5 -2 -9.5t-10 -8.5q-11 -6 -31.5 -15t-45.5 -9q-41 0 -64 24t-23 59q0 30 11.5 55t31 46.5t45 39.5t53.5 34z" />
    <glyph glyph-name="tilde" unicode="&#x2dc;" horiz-adv-x="342" 
d="M61 584q-9 3 -4 14q3 7 10 21t18 28.5t27 25.5t39 11t34.5 -14t19 -31.5t15 -31.5t22.5 -14q12 0 21.5 6.5t16 16t11 19.5t7.5 17q5 12 15 7l12 -4q2 -2 4 -4.5t0 -8.5q-1 -3 -6.5 -17t-17 -29t-28.5 -27.5t-41 -12.5q-23 0 -34.5 14.5t-19.5 31.5t-15.5 31.5t-21.5 14.5
q-13 0 -22.5 -7.5t-17 -17.5t-12 -20.5l-7.5 -17.5q-4 -11 -14 -6z" />
    <glyph glyph-name="hungarumlaut" unicode="&#x2dd;" horiz-adv-x="353" 
d="M221 518q-12 0 -5 12l89 159q5 11 14 11h23q8 0 10.5 -5t-2.5 -12l-104 -157q-4 -8 -13 -8h-12zM72 518q-11 0 -6 12l89 159q6 11 15 11h23q8 0 10 -5t-3 -12l-103 -157q-5 -8 -13 -8h-12z" />
    <glyph glyph-name="uni0394" unicode="&#x394;" horiz-adv-x="643" 
d="M18 0q-17 0 -16.5 11.5t8.5 25.5l361 666q2 3 5.5 5t6.5 2h3q3 0 6 -1t5 -6l170 -668q1 -5 1.5 -11t-1 -11.5t-6.5 -9t-15 -3.5h-528zM516 42l-139 584h-2l-311 -584h452z" />
    <glyph glyph-name="uni03A9" unicode="&#x3a9;" horiz-adv-x="771" 
d="M52 28q2 13 13 13h129q-32 23 -58 55t-43 71.5t-23 85.5t1 96q10 75 44 141t84 114.5t113.5 77t132.5 28.5q66 0 121 -28.5t92.5 -77t54 -114.5t6.5 -141q-14 -101 -69.5 -181.5t-136.5 -126.5h124q5 0 8.5 -4t2.5 -9l-3 -15q-2 -13 -13 -13h-213q-5 0 -8 4t-2 9l3 15
q1 9 12 13q48 13 90 42t75 69.5t55 90.5t30 106q9 66 -4.5 123.5t-45 100.5t-79 68t-106.5 25t-113.5 -25t-98 -68t-73 -100.5t-38.5 -123.5q-8 -56 0 -106t29 -90.5t55 -69.5t78 -42q11 -4 10 -13l-3 -15q-2 -13 -12 -13h-213q-13 0 -11 13z" />
    <glyph glyph-name="uni03BC" unicode="&#x3bc;" horiz-adv-x="500" 
d="M206 -11q-38 0 -63 12t-40 34l-37 -258q-2 -15 -16 -15h-13q-7 0 -9.5 4.5t-1.5 10.5l94 670q1 6 5.5 10.5t9.5 4.5h16q6 0 10 -4.5t3 -10.5l-37 -254q-12 -81 8.5 -121.5t80.5 -40.5q32 0 57 12t43 27t28 28t12 15l47 334q1 15 16 15h16q5 0 9 -4.5t2 -10.5l-59 -432
q-1 -6 -4.5 -10.5t-9.5 -4.5h-12q-6 0 -8.5 4.5t-2.5 9.5l2 42q-5 -6 -16.5 -17.5t-30 -22.5t-43.5 -19t-56 -8z" />
    <glyph glyph-name="pi" unicode="&#x3c0;" horiz-adv-x="606" 
d="M169 419h-111q-7 0 -9.5 5t-1.5 10l1 13q1 6 5.5 10.5t10.5 4.5h527q14 0 12 -14l-2 -16q-2 -13 -15 -13h-112l-58 -404q-2 -15 -17 -15h-16q-5 0 -8.5 4.5t-2.5 10.5l58 404h-215l-58 -404q-1 -8 -7 -11.5t-11 -3.5h-16q-6 0 -9.5 4.5t-2.5 10.5z" />
    <glyph glyph-name="Wgrave" unicode="&#x1e80;" horiz-adv-x="809" 
d="M92 687q-1 13 13 13h24q8 0 10 -11l65 -571h3l240 583q4 9 11 9h6q8 0 10 -9l80 -582h2l225 570q4 11 13 11h26q14 0 10 -13l-276 -690q-4 -7 -9 -7h-7q-8 0 -9 7l-81 595h-3l-244 -595q-3 -7 -9 -7h-7q-9 0 -9 7zM401 862q-8 5 -1 15l12 19q6 10 17 3l132 -90
q8 -5 4 -14l-6 -9q-3 -4 -6 -5t-10 2z" />
    <glyph glyph-name="wgrave" unicode="&#x1e81;" horiz-adv-x="649" 
d="M66 443q-3 19 11 19h20q5 0 8.5 -2t4.5 -9l47 -355h2l172 365q5 11 14 11h5q8 0 11 -11l72 -365h1l145 355q3 7 7.5 9t9.5 2h23q8 0 9.5 -5.5t-2.5 -13.5l-189 -443q-5 -11 -13 -11h-4q-8 0 -10 11l-73 380h-1l-179 -380q-5 -11 -14 -11h-5q-6 0 -8 11zM269 639
q-8 5 -1 15l12 19q3 5 8 5.5t9 -2.5l132 -90q8 -5 4 -14l-6 -9q-3 -4 -6 -5t-10 2z" />
    <glyph glyph-name="Wacute" unicode="&#x1e82;" horiz-adv-x="809" 
d="M92 687q-1 13 13 13h24q8 0 10 -11l65 -571h3l240 583q4 9 11 9h6q8 0 10 -9l80 -582h2l225 570q4 11 13 11h26q14 0 10 -13l-276 -690q-4 -7 -9 -7h-7q-8 0 -9 7l-81 595h-3l-244 -595q-3 -7 -9 -7h-7q-9 0 -9 7zM405 781q-12 -5 -15 3l-4 11q-3 8 8 14l157 90
q3 2 8.5 2t7.5 -5l9 -21q3 -10 -6 -15z" />
    <glyph glyph-name="wacute" unicode="&#x1e83;" horiz-adv-x="649" 
d="M66 443q-3 19 11 19h20q5 0 8.5 -2t4.5 -9l47 -355h2l172 365q5 11 14 11h5q8 0 11 -11l72 -365h1l145 355q3 7 7.5 9t9.5 2h23q8 0 9.5 -5.5t-2.5 -13.5l-189 -443q-5 -11 -13 -11h-4q-8 0 -10 11l-73 380h-1l-179 -380q-5 -11 -14 -11h-5q-6 0 -8 11zM313 559
q-12 -5 -15 3l-4 11q-3 8 8 14l157 90q3 2 8.5 2t7.5 -5l9 -21q3 -10 -6 -15z" />
    <glyph glyph-name="Wdieresis" unicode="&#x1e84;" horiz-adv-x="809" 
d="M92 687q-1 13 13 13h24q8 0 10 -11l65 -571h3l240 583q4 9 11 9h6q8 0 10 -9l80 -582h2l225 570q4 11 13 11h26q14 0 10 -13l-276 -690q-4 -7 -9 -7h-7q-8 0 -9 7l-81 595h-3l-244 -595q-3 -7 -9 -7h-7q-9 0 -9 7zM570 795q-14 0 -24 10.5t-10 24.5q0 19 13.5 32t30.5 13
q15 0 25 -10.5t10 -25.5q0 -18 -13.5 -31t-31.5 -13zM382 795q-15 0 -24.5 10.5t-9.5 24.5q0 19 13.5 32t30.5 13q15 0 25 -10.5t10 -25.5q0 -18 -13.5 -31t-31.5 -13z" />
    <glyph glyph-name="wdieresis" unicode="&#x1e85;" horiz-adv-x="649" 
d="M66 443q-3 19 11 19h20q5 0 8.5 -2t4.5 -9l47 -355h2l172 365q5 11 14 11h5q8 0 11 -11l72 -365h1l145 355q3 7 7.5 9t9.5 2h23q8 0 9.5 -5.5t-2.5 -13.5l-189 -443q-5 -11 -13 -11h-4q-8 0 -10 11l-73 380h-1l-179 -380q-5 -11 -14 -11h-5q-6 0 -8 11zM451 590
q-15 0 -24.5 10.5t-9.5 24.5q0 19 13 32t30 13q16 0 26 -10.5t10 -25.5q0 -18 -13.5 -31t-31.5 -13zM279 590q-15 0 -25 10.5t-10 24.5q0 19 13.5 32t30.5 13q16 0 25 -10.5t9 -25.5q0 -18 -12.5 -31t-30.5 -13z" />
    <glyph glyph-name="Ygrave" unicode="&#x1ef2;" horiz-adv-x="527" 
d="M272 388l247 306q6 6 14 6h33q8 0 10 -4.5t-3 -10.5l-282 -344l-46 -328q-2 -13 -15 -13h-20q-12 0 -11 13l45 327l-181 347q-7 13 9 13h28q5 0 7.5 -2t3.5 -4l159 -306h2zM254 862q-8 5 -1 15l12 19q6 10 17 3l132 -90q8 -5 4 -14l-6 -9q-3 -4 -6 -5t-10 2z" />
    <glyph glyph-name="ygrave" unicode="&#x1ef3;" horiz-adv-x="466" 
d="M55 443q-2 8 0.5 13.5t10.5 5.5h21q10 0 13 -11l98 -395h2l209 395q5 11 15 11h24q7 0 9.5 -5.5t-2.5 -13.5l-359 -671q-5 -10 -16 -10h-21q-16 0 -8 16l119 225zM167 639q-8 5 -1 15l12 19q3 5 8 5.5t9 -2.5l132 -90q8 -5 4 -14l-6 -9q-3 -4 -6 -5t-10 2z" />
    <glyph glyph-name="endash" unicode="&#x2013;" horiz-adv-x="513" 
d="M77 233q-13 0 -11 12l1 8q2 13 15 13h343q13 0 11 -13l-1 -8q-2 -12 -15 -12h-343v0z" />
    <glyph glyph-name="emdash" unicode="&#x2014;" horiz-adv-x="709" 
d="M77 233q-13 0 -11 12l1 8q2 13 15 13h539q13 0 11 -13l-1 -8q-2 -12 -14 -12h-540z" />
    <glyph glyph-name="quoteleft" unicode="&#x2018;" horiz-adv-x="219" 
d="M194 510q0 -19 -14 -32.5t-34 -13.5q-25 0 -38 22.5t-13 54.5q0 50 23.5 91t60.5 73q7 6 13 0l10 -10q5 -5 3.5 -7.5t-6.5 -7.5q-27 -23 -47 -54.5t-20 -69.5q0 -15 5 -25q11 11 26 11q14 0 22.5 -9t8.5 -23z" />
    <glyph glyph-name="quoteright" unicode="&#x2019;" horiz-adv-x="218" 
d="M109 664q0 19 14 32.5t34 13.5q25 0 38 -22.5t13 -54.5q0 -50 -23.5 -91t-60.5 -73q-7 -6 -13 0l-10 10q-5 5 -3.5 7.5t6.5 7.5q27 23 47 54.5t20 69.5q0 15 -5 25q-11 -11 -26 -11q-14 0 -22.5 9t-8.5 23z" />
    <glyph glyph-name="quotesinglbase" unicode="&#x201a;" horiz-adv-x="223" 
d="M31 26q0 19 14 32.5t34 13.5q25 0 38 -22.5t13 -54.5q0 -50 -23.5 -91t-60.5 -73q-7 -6 -13 0l-10 10q-5 5 -3.5 7.5t6.5 7.5q27 23 47 54.5t20 69.5q0 15 -5 25q-11 -11 -26 -11q-14 0 -22.5 9t-8.5 23z" />
    <glyph glyph-name="quotedblleft" unicode="&#x201c;" horiz-adv-x="380" 
d="M354 510q0 -19 -14 -32.5t-34 -13.5q-25 0 -38 22.5t-13 54.5q0 50 23.5 91t60.5 73q7 6 13 0l10 -10q5 -5 3.5 -7.5t-6.5 -7.5q-27 -23 -47 -54.5t-20 -69.5q0 -15 5 -25q11 11 26 11q14 0 22.5 -9t8.5 -23zM194 510q0 -19 -14 -32.5t-34 -13.5q-25 0 -38 22.5t-13 54.5
q0 50 23.5 91t60.5 73q7 6 13 0l10 -10q5 -5 3.5 -7.5t-6.5 -7.5q-27 -23 -47 -54.5t-20 -69.5q0 -15 5 -25q11 11 26 11q14 0 22.5 -9t8.5 -23z" />
    <glyph glyph-name="quotedblright" unicode="&#x201d;" horiz-adv-x="380" 
d="M109 664q0 19 14 32.5t34 13.5q25 0 38 -22.5t13 -54.5q0 -50 -23.5 -91t-60.5 -73q-7 -6 -13 0l-10 10q-5 5 -3.5 7.5t6.5 7.5q27 23 47 54.5t20 69.5q0 15 -5 25q-11 -11 -26 -11q-14 0 -22.5 9t-8.5 23zM271 664q0 19 14 32.5t34 13.5q25 0 38 -22.5t13 -54.5
q0 -50 -23.5 -91t-60.5 -73q-7 -6 -13 0l-10 10q-5 5 -3.5 7.5t6.5 7.5q27 23 47 54.5t20 69.5q0 15 -5 25q-11 -11 -26 -11q-14 0 -22.5 9t-8.5 23z" />
    <glyph glyph-name="quotedblbase" unicode="&#x201e;" horiz-adv-x="385" 
d="M31 26q0 19 14 32.5t34 13.5q25 0 38 -22.5t13 -54.5q0 -50 -23.5 -91t-60.5 -73q-7 -6 -13 0l-10 10q-5 5 -3.5 7.5t6.5 7.5q27 23 47 54.5t20 69.5q0 15 -5 25q-11 -11 -26 -11q-14 0 -22.5 9t-8.5 23zM192 26q0 19 14 32.5t34 13.5q25 0 38 -22.5t13 -54.5
q0 -50 -23.5 -91t-60.5 -73q-7 -6 -13 0l-10 10q-5 5 -3.5 7.5t6.5 7.5q27 23 47 54.5t20 69.5q0 15 -5 25q-11 -11 -26 -11q-14 0 -22.5 9t-8.5 23z" />
    <glyph glyph-name="dagger" unicode="&#x2020;" horiz-adv-x="517" 
d="M243 358h-184q-13 0 -11 15l2 14q1 5 5 9t9 4h183l41 287q2 13 15 13h27q13 0 11 -13l-40 -287h184q12 0 10 -13l-2 -16q-2 -13 -13 -13h-186l-92 -585q-2 -11 -14 -11h-8q-13 0 -11 11z" />
    <glyph glyph-name="daggerdbl" unicode="&#x2021;" horiz-adv-x="542" 
d="M39 29q2 13 14 13h160l46 358h-183q-12 0 -10 14l2 15q1 5 5 9t9 4h183l35 245q2 13 15 13h27q13 0 11 -13l-35 -245h185q9 0 9.5 -7.5t-0.5 -14.5l-1 -7q-2 -13 -14 -13h-184l-56 -358h163q12 0 10 -13l-2 -16q-2 -13 -14 -13h-164l-36 -227q-1 -7 -6.5 -9t-11.5 -2h-4
q-13 0 -11 11l27 227h-161q-5 0 -8.5 4t-1.5 10z" />
    <glyph glyph-name="bullet" unicode="&#x2022;" horiz-adv-x="326" 
d="M147 184q-26 0 -43 18t-17 44q0 35 24.5 59t56.5 24q27 0 44.5 -19t17.5 -46q0 -33 -25 -56.5t-58 -23.5z" />
    <glyph glyph-name="ellipsis" unicode="&#x2026;" horiz-adv-x="555" 
d="M379 26q0 19 14 32t31 13q15 0 24 -10.5t9 -24.5q0 -18 -13 -32t-32 -14q-14 0 -23.5 11t-9.5 25zM203 26q0 19 14 32t31 13q15 0 24 -10.5t9 -24.5q0 -18 -13 -32t-31 -14q-15 0 -24.5 11t-9.5 25zM30 26q0 19 14.5 32t31.5 13q15 0 24 -10.5t9 -24.5q0 -18 -13 -32
t-32 -14q-14 0 -24 11t-10 25z" />
    <glyph glyph-name="perthousand" unicode="&#x2030;" horiz-adv-x="904" 
d="M197 434q-23 0 -42 9.5t-33.5 25.5t-22.5 37.5t-8 46.5q0 33 11.5 61.5t31 49.5t46 33.5t56.5 12.5q22 0 41 -9.5t33 -25.5t22.5 -37.5t8.5 -46.5q0 -33 -11.5 -61.5t-31 -49.5t-45.5 -33.5t-56 -12.5zM517 693q3 5 7 6t7 1h18q6 0 8 -4t-2 -10l-433 -676q-5 -8 -9.5 -9
t-7.5 -1h-17q-6 0 -8 4t2 10zM202 471q19 0 37 9t32.5 24.5t23 36t8.5 44.5q0 36 -20.5 61.5t-52.5 25.5q-20 0 -38.5 -9t-33 -24.5t-23 -36.5t-8.5 -44q0 -36 21 -61.5t54 -25.5zM594 109q0 33 11.5 61.5t31 49.5t46 33.5t56.5 12.5q22 0 41 -9.5t33 -25.5t22.5 -37.5
t8.5 -46.5q0 -33 -11.5 -61.5t-31 -49.5t-45.5 -33.5t-56 -12.5q-23 0 -42 9.5t-33.5 25.5t-22.5 37.5t-8 46.5zM310 109q0 33 11.5 61.5t31 49.5t46 33.5t56.5 12.5q22 0 41 -9.5t33 -25.5t22.5 -37.5t8.5 -46.5q0 -33 -11.5 -61.5t-31 -49.5t-45.5 -33.5t-56 -12.5
q-23 0 -42 9.5t-33.5 25.5t-22.5 37.5t-8 46.5zM630 114q0 -36 21 -61.5t54 -25.5q19 0 37 9t32.5 24.5t23 36t8.5 44.5q0 36 -20.5 61.5t-52.5 25.5q-20 0 -38.5 -9t-33 -24.5t-23 -36.5t-8.5 -44zM346 114q0 -36 21 -61.5t54 -25.5q19 0 37 9t32.5 24.5t23 36t8.5 44.5
q0 36 -20.5 61.5t-52.5 25.5q-20 0 -38.5 -9t-33 -24.5t-23 -36.5t-8.5 -44z" />
    <glyph glyph-name="guilsinglleft" unicode="&#x2039;" horiz-adv-x="254" 
d="M48 229q-4 9 3 17l116 154q5 6 8.5 7.5t8.5 1.5h16q6 0 7 -5t-4 -13l-103 -153l59 -157q3 -8 0.5 -13t-7.5 -5h-17q-4 0 -7.5 1.5t-6.5 7.5z" />
    <glyph glyph-name="guilsinglright" unicode="&#x203a;" horiz-adv-x="254" 
d="M38 63q-13 0 -2 18l103 157l-60 153q-3 8 -0.5 13t8.5 5h16q5 0 8 -1.5t6 -7.5l73 -154q4 -7 -2 -17l-117 -157q-5 -6 -8.5 -7.5t-8.5 -1.5h-16v0z" />
    <glyph glyph-name="fraction" unicode="&#x2044;" horiz-adv-x="140" 
d="M-118 10q-5 -8 -9.5 -9t-7.5 -1h-17q-6 0 -8 4t2 10l435 679q3 5 7 6t7 1h18q6 0 8 -4t-2 -10z" />
    <glyph glyph-name="uni2070" unicode="&#x2070;" horiz-adv-x="306" 
d="M182 494q-45 0 -68 30.5t-23 86.5q0 46 10.5 82.5t29 62.5t43.5 40t53 14q45 0 68 -30.5t23 -85.5q0 -46 -10.5 -83t-28.5 -63t-43 -40t-54 -14zM187 527q42 0 68.5 44t26.5 121q0 41 -15 63.5t-45 22.5q-41 0 -68 -45t-27 -122q0 -40 15 -62t45 -22z" />
    <glyph glyph-name="uni2074" unicode="&#x2074;" horiz-adv-x="297" 
d="M221 504q-3 0 -6 2.5t-2 6.5l8 60h-147q-8 0 -6 9l1 9l199 209h13q3 0 6 -2.5t2 -6.5l-26 -185h35q3 0 5.5 -2t1.5 -6l-2 -16q-2 -8 -9 -8h-35l-9 -61q-2 -9 -10 -9h-19zM226 607l18 126l-117 -126h99z" />
    <glyph glyph-name="uni2075" unicode="&#x2075;" horiz-adv-x="274" 
d="M127 791q0 4 3 6.5t6 2.5h133q9 0 7 -9l-3 -17q-2 -8 -9 -8h-108l-10 -75h50q42 0 65 -20.5t23 -60.5q0 -51 -35 -83.5t-88 -32.5q-34 0 -55 14t-29 24q-4 5 -3 7.5t5 7.5l10 11q5 7 11 0q1 -1 5 -6.5t12.5 -11.5t20.5 -10.5t28 -4.5q15 0 29.5 6.5t25.5 17.5t18 26t7 32
q0 23 -14 37t-40 14h-70q-14 0 -12 15z" />
    <glyph glyph-name="uni2076" unicode="&#x2076;" horiz-adv-x="276" 
d="M88 628q6 45 28 78t48.5 55.5t52.5 35.5t41 18q8 3 10 -6l3 -11q2 -5 0.5 -10t-8.5 -7q-35 -11 -72.5 -39t-60.5 -76q2 1 7.5 6t14.5 10t22.5 9.5t31.5 4.5q30 0 54 -22t24 -60q0 -22 -8 -43.5t-23 -38.5t-36 -27.5t-46 -10.5q-42 0 -63.5 30.5t-21.5 75.5q0 7 0.5 14
t1.5 14zM122 623q-1 -5 -1.5 -11t-0.5 -11q0 -30 13.5 -53t42.5 -23q32 0 51.5 26.5t19.5 59.5q0 25 -14.5 40t-38.5 15q-26 0 -45 -15.5t-27 -27.5z" />
    <glyph glyph-name="uni2077" unicode="&#x2077;" horiz-adv-x="251" 
d="M103 504q-5 0 -9 2t-2 12l156 248h-141q-9 0 -7 9l2 16q2 9 9 9h177q9 0 7 -9l-2 -16l-162 -262q-5 -9 -13 -9h-15z" />
    <glyph glyph-name="uni2078" unicode="&#x2078;" horiz-adv-x="287" 
d="M173 494q-40 0 -65 21t-25 54q0 29 17.5 52t43.5 34v2q-14 8 -23 24t-9 36q0 43 30.5 68t75.5 25q35 0 58.5 -18.5t23.5 -51.5q0 -28 -16.5 -50.5t-36.5 -32.5v-2q2 -1 8.5 -5t13.5 -11.5t12.5 -18.5t5.5 -27q0 -42 -30.5 -70.5t-83.5 -28.5zM213 778q-26 0 -45 -18
t-19 -48q0 -39 49 -43q29 2 46.5 18t17.5 46q0 21 -12.5 33t-36.5 12zM178 525q32 0 52 18.5t20 46.5q0 18 -12 32.5t-44 16.5q-27 -2 -50 -17.5t-23 -49.5q0 -21 14.5 -34t42.5 -13z" />
    <glyph glyph-name="uni2079" unicode="&#x2079;" horiz-adv-x="276" 
d="M292 702q0 -7 -0.5 -14t-1.5 -14q-6 -45 -28 -78.5t-48.5 -56t-52.5 -35t-41 -17.5q-8 -3 -10 6l-3 11q-2 5 -0.5 10t8.5 7q35 11 72.5 39t60.5 76q-2 -1 -7.5 -6t-14.5 -10t-22.5 -9.5t-31.5 -4.5q-30 0 -54 22t-24 60q0 24 8.5 45.5t23.5 38t35.5 26.5t45.5 10
q42 0 63.5 -30.5t21.5 -75.5zM256 679q1 5 1.5 11t0.5 11q0 30 -13.5 53t-42.5 23q-15 0 -28 -7.5t-22.5 -19.5t-15 -27.5t-5.5 -31.5q0 -25 14.5 -40t38.5 -15q26 0 45 15.5t27 27.5z" />
    <glyph glyph-name="uni2080" unicode="&#x2080;" horiz-adv-x="306" 
d="M2 -3q11 75 46 117t87 42q45 0 68 -30.5t23 -85.5q0 -46 -10.5 -83t-28.5 -63t-43 -40t-54 -14q-45 0 -68 30.5t-23 86.5q0 19 3 40zM38 -3q-3 -21 -3 -40q0 -40 15 -62t45 -22q42 0 68.5 44t26.5 121q0 41 -15 63.5t-45 22.5q-37 0 -60.5 -33.5t-31.5 -93.5z" />
    <glyph glyph-name="uni2081" unicode="&#x2081;" horiz-adv-x="171" 
d="M-1 86q-2 6 4 11l76 49h11q3 0 6 -1.5t2 -6.5l-39 -280q-2 -8 -8 -8h-21q-8 0 -6 8l34 239l-47 -26q-6 -3 -8 2z" />
    <glyph glyph-name="uni2082" unicode="&#x2082;" horiz-adv-x="267" 
d="M20 101q-4 4 1 10q11 12 25 22q12 8 28.5 15.5t37.5 7.5q40 0 61.5 -22.5t21.5 -54.5q0 -28 -15 -54t-38 -47l-107 -97h125q7 0 6 -8l-2 -15q0 -8 -8 -8h-173q-7 0 -7 8l1 9l141 130q15 14 28.5 33t13.5 42q0 20 -13 35.5t-42 15.5q-25 0 -41 -14t-22 -20t-10 0z" />
    <glyph glyph-name="uni2083" unicode="&#x2083;" horiz-adv-x="277" 
d="M41 7q0 8 8 8h41q13 0 26 5.5t23 14.5t16 20.5t6 22.5q0 21 -14 33.5t-38 12.5q-15 0 -26.5 -4t-20 -9t-14 -10t-7.5 -7t-4.5 -2.5t-4.5 1.5l-10 11q-4 6 1 11q11 11 25 20q12 8 29 14.5t39 6.5q32 0 57 -19t25 -52q0 -26 -16.5 -48t-41.5 -35q12 -5 22 -14
q8 -8 15.5 -20t7.5 -30q0 -22 -10 -40t-26 -31t-37 -20t-43 -7q-21 0 -36.5 5t-26 11.5t-16.5 13.5t-9 11q-5 5 2 11l11 11q7 7 11 0q3 -3 7.5 -8t12 -10.5t19.5 -9.5t29 -4q13 0 27 4.5t24.5 13t17.5 20.5t7 27q0 20 -15 34.5t-48 14.5h-41q-8 0 -6 10z" />
    <glyph glyph-name="uni2084" unicode="&#x2084;" horiz-adv-x="298" 
d="M177 146h13q3 0 6 -2.5t2 -6.5l-26 -185h35q3 0 5.5 -2t1.5 -6l-2 -16q-2 -8 -9 -8h-35l-9 -61q-2 -9 -10 -9h-19q-3 0 -6 2.5t-2 6.5l8 60h-147q-8 0 -6 9l1 9zM135 -47l18 126l-117 -126h99z" />
    <glyph glyph-name="uni2085" unicode="&#x2085;" horiz-adv-x="274" 
d="M35 137q0 4 3 6.5t6 2.5h133q9 0 7 -9l-3 -17q-2 -8 -9 -8h-108l-10 -75h50q42 0 65 -20.5t23 -60.5q0 -51 -35 -83.5t-88 -32.5q-34 0 -55 14t-29 24q-4 5 -3 7.5t5 7.5l10 11q5 7 11 0q1 -1 5 -6.5t12.5 -11.5t20.5 -10.5t28 -4.5q15 0 29.5 6.5t25.5 17.5t18 26t7 32
q0 23 -14 37t-40 14h-70q-14 0 -12 15z" />
    <glyph glyph-name="uni2086" unicode="&#x2086;" horiz-adv-x="276" 
d="M-4 -26q6 45 28 78t48.5 55.5t52.5 35.5t41 18q8 3 10 -6l3 -11q2 -5 0.5 -10t-8.5 -7q-35 -11 -72.5 -39t-60.5 -76q2 1 7.5 6t14.5 10t22.5 9.5t31.5 4.5q30 0 54 -22t24 -60q0 -22 -8 -43.5t-23 -38.5t-36 -27.5t-46 -10.5q-42 0 -63.5 30.5t-21.5 75.5q0 7 0.5 14
t1.5 14zM30 -31q-1 -5 -1.5 -11t-0.5 -11q0 -30 13.5 -53t42.5 -23q32 0 51.5 26.5t19.5 59.5q0 25 -14.5 40t-38.5 15q-26 0 -45 -15.5t-27 -27.5z" />
    <glyph glyph-name="uni2087" unicode="&#x2087;" horiz-adv-x="250" 
d="M15 112q-9 0 -7 9l2 16q2 9 9 9h177q9 0 7 -9l-2 -16l-162 -262q-5 -9 -13 -9h-15q-5 0 -9 2t-2 12l156 248h-141z" />
    <glyph glyph-name="uni2088" unicode="&#x2088;" horiz-adv-x="287" 
d="M81 -160q-40 0 -65 21t-25 54q0 29 17.5 52t43.5 34v2q-14 8 -23 24t-9 36q0 43 30.5 68t75.5 25q35 0 58.5 -18.5t23.5 -51.5q0 -28 -16.5 -50.5t-36.5 -32.5v-2q2 -1 8.5 -5t13.5 -11.5t12.5 -18.5t5.5 -27q0 -42 -30.5 -70.5t-83.5 -28.5zM121 124q-26 0 -45 -18
t-19 -48q0 -39 49 -43q29 2 46.5 18t17.5 46q0 21 -12.5 33t-36.5 12zM86 -129q32 0 52 18.5t20 46.5q0 18 -12 32.5t-44 16.5q-27 -2 -50 -17.5t-23 -49.5q0 -21 14.5 -34t42.5 -13z" />
    <glyph glyph-name="uni2089" unicode="&#x2089;" horiz-adv-x="275" 
d="M200 48q0 -7 -0.5 -14t-1.5 -14q-6 -45 -28 -78.5t-48.5 -56t-52.5 -35t-41 -17.5q-8 -3 -10 6l-3 11q-2 5 -0.5 10t8.5 7q35 11 72.5 39t60.5 76q-2 -1 -7.5 -6t-14.5 -10t-22.5 -9.5t-31.5 -4.5q-30 0 -54 22t-24 60q0 24 8.5 45.5t23.5 38t35.5 26.5t45.5 10
q42 0 63.5 -30.5t21.5 -75.5zM164 25q1 5 1.5 11t0.5 11q0 30 -13.5 53t-42.5 23q-15 0 -28 -7.5t-22.5 -19.5t-15 -27.5t-5.5 -31.5q0 -25 14.5 -40t38.5 -15q26 0 45 15.5t27 27.5z" />
    <glyph glyph-name="Euro" unicode="&#x20ac;" 
d="M142 377q-5 -23 -7.5 -47t-2.5 -40h287q12 0 10 -13l-1 -7q-2 -11 -13 -11h-283q1 -48 14 -89t38.5 -71t63 -47t87.5 -17q54 0 93.5 20t74.5 45q11 8 17 2l14 -19q4 -5 3 -9.5t-5 -7.5q-46 -36 -95.5 -56t-101.5 -20q-60 0 -106.5 19t-78.5 54.5t-49.5 85t-18.5 110.5
h-49q-13 0 -11 12l1 7q2 12 14 12h45q1 14 3 36t7 51h-43q-12 0 -10 12l1 9q2 11 14 11h45q15 60 43 114.5t69 96t94.5 66t119.5 24.5q56 0 101 -16t85 -55q4 -4 3.5 -9.5t-4.5 -9.5l-12 -13q-5 -5 -10.5 -5t-9.5 4q-30 32 -70 45.5t-84 13.5q-51 0 -94.5 -18.5t-79 -52
t-61 -80.5t-39.5 -105h325q7 0 9.5 -5t1.5 -10l-1 -6q-2 -11 -15 -11h-328z" />
    <glyph glyph-name="uni2113" unicode="&#x2113;" horiz-adv-x="435" 
d="M181 -10q-33 0 -54.5 13t-32.5 34.5t-14 49.5t2 58q3 22 8 41.5t11 39.5q-15 -5 -29 -8.5l-22 -5.5q-7 -1 -9.5 0.5t-4.5 7.5l-1 12q-1 17 14 19q17 3 34 7t32 9l31 99q26 82 52.5 146t55 108t58.5 67t63 23q41 0 62.5 -34.5t13.5 -93.5q-9 -66 -38 -120t-71 -96t-93 -73
t-104 -52q-7 -20 -13 -44t-10 -50q-3 -22 -2.5 -43t7 -37.5t21 -26.5t39.5 -10q33 0 60 6.5t47 15t31.5 15.5t14.5 9q12 7 15 -2l4 -13q2 -5 2 -8t-7 -9q-2 -2 -15 -10.5t-35.5 -18t-54 -17.5t-68.5 -8zM159 281q45 20 87 48.5t76 66t57.5 84t31.5 102.5q6 41 -3.5 64.5
t-38.5 23.5q-26 0 -49 -21t-45.5 -61t-44.5 -97.5t-46 -130.5z" />
    <glyph glyph-name="uni2117" unicode="&#x2117;" horiz-adv-x="795" 
d="M78 302q0 84 31 158t83 129.5t121 88t144 32.5q58 0 109 -25t88.5 -67.5t59 -99.5t21.5 -121q0 -84 -31 -158t-83.5 -129.5t-121 -87.5t-143.5 -32q-59 0 -109.5 24.5t-88 67t-59 99t-21.5 121.5zM117 307q0 -57 18 -108t50.5 -88.5t77.5 -59.5t98 -22q65 0 125 28.5
t106.5 78t74.5 116t28 141.5q0 57 -18 107.5t-50.5 88t-77.5 59.5t-98 22q-65 0 -125 -28.5t-106.5 -78t-74.5 -115.5t-28 -141zM325 183q-1 -6 -4 -11t-9 -5h-19q-11 0 -9 13l48 343q2 13 13 13h115q45 0 76 -23t31 -76q0 -27 -9.5 -50.5t-27 -41t-41.5 -27.5t-53 -10h-93z
M429 344q47 0 73.5 23t26.5 71q0 35 -22.5 48.5t-55.5 13.5h-81l-22 -156h81z" />
    <glyph glyph-name="trademark" unicode="&#x2122;" horiz-adv-x="701" 
d="M319 394q-6 0 -7.5 4.5t0.5 10.5l102 291q2 5 4 7.5t7 2.5h7q7 0 8 -10l39 -241h1l111 241q5 10 10 10h7q8 0 9 -10l20 -291q1 -6 -1.5 -10.5t-9.5 -4.5h-14q-9 0 -10 10l-12 217h-1l-104 -224q-4 -8 -9 -8h-9q-6 0 -7 8l-41 224h-1l-73 -217q-3 -10 -11 -10h-15z
M183 394q-4 0 -7 3.5t-2 9.5l37 260h-77q-5 0 -7.5 4.5t-1.5 10.5l1 6q2 12 13 12h188q11 0 9 -13l-1 -7q-2 -13 -13 -13h-76l-37 -260q-2 -13 -13 -13h-13z" />
    <glyph glyph-name="Omega" unicode="&#x2126;" horiz-adv-x="771" 
d="M52 28q2 13 13 13h129q-32 23 -58 55t-43 71.5t-23 85.5t1 96q10 75 44 141t84 114.5t113.5 77t132.5 28.5q66 0 121 -28.5t92.5 -77t54 -114.5t6.5 -141q-14 -101 -69.5 -181.5t-136.5 -126.5h124q5 0 8.5 -4t2.5 -9l-3 -15q-2 -13 -13 -13h-213q-5 0 -8 4t-2 9l3 15
q1 9 12 13q48 13 90 42t75 69.5t55 90.5t30 106q9 66 -4.5 123.5t-45 100.5t-79 68t-106.5 25t-113.5 -25t-98 -68t-73 -100.5t-38.5 -123.5q-8 -56 0 -106t29 -90.5t55 -69.5t78 -42q11 -4 10 -13l-3 -15q-2 -13 -12 -13h-213q-13 0 -11 13z" />
    <glyph glyph-name="estimated" unicode="&#x212e;" horiz-adv-x="778" 
d="M149 154q28 -60 85.5 -93t126.5 -33q53 0 107 23t104 65q4 4 9.5 5t8.5 -5l5 -9q3 -6 2 -9.5t-6 -8.5q-108 -99 -235 -99q-67 0 -122.5 27.5t-93.5 76t-55 114t-6 141.5t45 142t84.5 114.5t114 76.5t134.5 28q66 0 121.5 -27.5t93.5 -76t55.5 -114t7.5 -141.5
q-3 -21 -19 -21h-543zM642 366l25 177q-32 61 -86 95t-129 34q-74 0 -137.5 -33.5t-111.5 -93.5l-25 -179h464z" />
    <glyph glyph-name="onethird" unicode="&#x2153;" horiz-adv-x="620" 
d="M479 693q3 5 7 6t7 1h18q6 0 8 -4t-2 -10l-433 -676q-5 -8 -9.5 -9t-7.5 -1h-17q-6 0 -8 4t2 10zM136 404q-8 0 -6 8l34 239l-47 -26q-6 -3 -8 2l-4 13q-2 6 4 11l76 49h11q3 0 6 -1.5t2 -6.5l-39 -280q-2 -8 -8 -8h-21zM393 157q0 8 8 8h41q13 0 26 5.5t23 14.5t16 20.5
t6 22.5q0 21 -14 33.5t-38 12.5q-15 0 -26.5 -4t-20 -9t-14 -10t-7.5 -7t-4.5 -2.5t-4.5 1.5l-10 11q-4 6 1 11q11 11 25 20q12 8 29 14.5t39 6.5q32 0 57 -19t25 -52q0 -26 -16.5 -48t-41.5 -35q12 -5 22 -14q8 -8 15.5 -20t7.5 -30q0 -22 -10 -40t-26 -31t-37 -20t-43 -7
q-21 0 -36.5 5t-26 11.5t-16.5 13.5t-9 11q-5 5 2 11l11 11q7 7 11 0q3 -3 7.5 -8t12 -10.5t19.5 -9.5t29 -4q13 0 27 4.5t24.5 13t17.5 20.5t7 27q0 20 -15 34.5t-48 14.5h-41q-8 0 -6 10z" />
    <glyph glyph-name="twothirds" unicode="&#x2154;" horiz-adv-x="683" 
d="M542 693q3 5 7 6t7 1h18q6 0 8 -4t-2 -10l-433 -676q-5 -8 -9.5 -9t-7.5 -1h-17q-6 0 -8 4t2 10zM118 655q-4 4 1 10q11 12 25 22q12 8 28.5 15.5t37.5 7.5q40 0 61.5 -22.5t21.5 -54.5q0 -28 -15 -54t-38 -47l-107 -97h125q7 0 6 -8l-2 -15q0 -8 -8 -8h-173q-7 0 -7 8
l1 9l141 130q15 14 28.5 33t13.5 42q0 20 -13 35.5t-42 15.5q-25 0 -41 -14t-22 -20t-10 0zM456 157q0 8 8 8h41q13 0 26 5.5t23 14.5t16 20.5t6 22.5q0 21 -14 33.5t-38 12.5q-15 0 -26.5 -4t-20 -9t-14 -10t-7.5 -7t-4.5 -2.5t-4.5 1.5l-10 11q-4 6 1 11q11 11 25 20
q12 8 29 14.5t39 6.5q32 0 57 -19t25 -52q0 -26 -16.5 -48t-41.5 -35q12 -5 22 -14q8 -8 15.5 -20t7.5 -30q0 -22 -10 -40t-26 -31t-37 -20t-43 -7q-21 0 -36.5 5t-26 11.5t-16.5 13.5t-9 11q-5 5 2 11l11 11q7 7 11 0q3 -3 7.5 -8t12 -10.5t19.5 -9.5t29 -4q13 0 27 4.5
t24.5 13t17.5 20.5t7 27q0 20 -15 34.5t-48 14.5h-41q-8 0 -6 10z" />
    <glyph glyph-name="oneeighth" unicode="&#x215b;" horiz-adv-x="624" 
d="M479 693q3 5 7 6t7 1h18q6 0 8 -4t-2 -10l-433 -676q-5 -8 -9.5 -9t-7.5 -1h-17q-6 0 -8 4t2 10zM136 404q-8 0 -6 8l34 239l-47 -26q-6 -3 -8 2l-4 13q-2 6 4 11l76 49h11q3 0 6 -1.5t2 -6.5l-39 -280q-2 -8 -8 -8h-21zM338 76q3 19 11.5 33t18.5 23t18.5 13.5t11.5 5.5
v2q-16 8 -25 27.5t-6 43.5q5 38 34 60t71 22q38 0 62 -22t19 -60q-3 -24 -18.5 -43.5t-33.5 -27.5v-2q3 -1 10.5 -5.5t15 -13.5t12 -23t1.5 -33q-5 -37 -34.5 -61.5t-78.5 -24.5q-43 0 -68.5 24.5t-20.5 61.5zM404 220q-7 -51 48 -55q57 5 64 55q3 25 -10 39.5t-39 14.5
t-43 -14.5t-20 -39.5zM376 78q-4 -25 10.5 -41t45.5 -16q30 0 49 16t23 41q2 20 -9 37.5t-47 19.5q-38 -2 -54 -19.5t-18 -37.5z" />
    <glyph glyph-name="threeeighths" unicode="&#x215c;" horiz-adv-x="696" 
d="M551 693q3 5 7 6t7 1h18q6 0 8 -4t-2 -10l-433 -676q-5 -8 -9.5 -9t-7.5 -1h-17q-6 0 -8 4t2 10zM499 -10q-40 0 -65 21t-25 54q0 29 17.5 52t43.5 34v2q-14 8 -23 24t-9 36q0 43 30.5 68t75.5 25q35 0 58.5 -18.5t23.5 -51.5q0 -28 -16.5 -50.5t-36.5 -32.5v-2
q2 -1 8.5 -5t13.5 -11.5t12.5 -18.5t5.5 -27q0 -42 -30.5 -70.5t-83.5 -28.5zM539 274q-26 0 -45 -18t-19 -48q0 -39 49 -43q29 2 46.5 18t17.5 46q0 21 -12.5 33t-36.5 12zM504 21q32 0 52 18.5t20 46.5q0 18 -12 32.5t-44 16.5q-27 -2 -50 -17.5t-23 -49.5q0 -21 14.5 -34
t42.5 -13zM137 561q0 8 8 8h41q13 0 26 5.5t23 14.5t16 20.5t6 22.5q0 21 -14 33.5t-38 12.5q-15 0 -26.5 -4t-20 -9t-14 -10t-7.5 -7t-4.5 -2.5t-4.5 1.5l-10 11q-4 6 1 11q11 11 25 20q12 8 29 14.5t39 6.5q32 0 57 -19t25 -52q0 -26 -16.5 -48t-41.5 -35q12 -5 22 -14
q8 -8 15.5 -20t7.5 -30q0 -22 -10 -40t-26 -31t-37 -20t-43 -7q-21 0 -36.5 5t-26 11.5t-16.5 13.5t-9 11q-5 5 2 11l11 11q7 7 11 0q3 -3 7.5 -8t12 -10.5t19.5 -9.5t29 -4q13 0 27 4.5t24.5 13t17.5 20.5t7 27q0 20 -15 34.5t-48 14.5h-41q-8 0 -6 10z" />
    <glyph glyph-name="fiveeighths" unicode="&#x215d;" horiz-adv-x="694" 
d="M549 693q3 5 7 6t7 1h18q6 0 8 -4t-2 -10l-433 -676q-5 -8 -9.5 -9t-7.5 -1h-17q-6 0 -8 4t2 10zM163 394q-34 0 -55 14t-29 24q-4 5 -3 7.5t5 7.5l10 11q5 7 11 0q1 -1 5 -6.5t12.5 -11.5t20.5 -10.5t28 -4.5q15 0 29.5 6.5t25.5 17.5t18 26t7 32q0 23 -14 37t-40 14
h-70q-14 0 -12 15l17 118q0 4 3 6.5t6 2.5h133q9 0 7 -9l-3 -17q-2 -8 -9 -8h-108l-10 -75h50q42 0 65 -20t23 -57q0 -26 -9.5 -47.5t-26 -38t-39 -25.5t-48.5 -9zM497 -10q-40 0 -65 21t-25 54q0 29 17.5 52t43.5 34v2q-14 8 -23 24t-9 36q0 43 30.5 68t75.5 25
q35 0 58.5 -18.5t23.5 -51.5q0 -28 -16.5 -50.5t-36.5 -32.5v-2q2 -1 8.5 -5t13.5 -11.5t12.5 -18.5t5.5 -27q0 -42 -30.5 -70.5t-83.5 -28.5zM537 274q-26 0 -45 -18t-19 -48q0 -39 49 -43q29 2 46.5 18t17.5 46q0 21 -12.5 33t-36.5 12zM502 21q32 0 52 18.5t20 46.5
q0 18 -12 32.5t-44 16.5q-27 -2 -50 -17.5t-23 -49.5q0 -21 14.5 -34t42.5 -13z" />
    <glyph glyph-name="seveneighths" unicode="&#x215e;" horiz-adv-x="667" 
d="M522 693q3 5 7 6t7 1h18q6 0 8 -4t-2 -10l-433 -676q-5 -8 -9.5 -9t-7.5 -1h-17q-6 0 -8 4t2 10zM104 404q-5 0 -9 2t-2 12l156 248h-141q-9 0 -7 9l2 16q2 9 9 9h177q9 0 7 -9l-2 -16l-162 -262q-5 -9 -13 -9h-15zM471 -10q-40 0 -65 21t-25 54q0 29 17.5 52t43.5 34v2
q-14 8 -23 24t-9 36q0 43 30.5 68t75.5 25q35 0 58.5 -18.5t23.5 -51.5q0 -28 -16.5 -50.5t-36.5 -32.5v-2q2 -1 8.5 -5t13.5 -11.5t12.5 -18.5t5.5 -27q0 -42 -30.5 -70.5t-83.5 -28.5zM511 274q-26 0 -45 -18t-19 -48q0 -39 49 -43q29 2 46.5 18t17.5 46q0 21 -12.5 33
t-36.5 12zM476 21q32 0 52 18.5t20 46.5q0 18 -12 32.5t-44 16.5q-27 -2 -50 -17.5t-23 -49.5q0 -21 14.5 -34t42.5 -13z" />
    <glyph glyph-name="partialdiff" unicode="&#x2202;" horiz-adv-x="553" 
d="M43 184q0 59 21.5 108.5t55.5 85t76.5 55.5t84.5 20q33 0 60.5 -9t47.5 -22t32.5 -26t17.5 -22h1q-1 46 -14.5 86t-34 72.5t-45 58t-48.5 44.5t-45 31t-33 17q-7 2 -9.5 8.5t2.5 13.5l9 14q2 3 5.5 5.5t9.5 0.5q27 -12 69 -38.5t82.5 -70t69.5 -106.5t29 -147
q0 -66 -17 -132.5t-51 -120t-83.5 -87t-115.5 -33.5q-38 0 -70.5 14.5t-56 40.5t-37 61.5t-13.5 77.5zM88 191q0 -34 10.5 -63.5t29 -51t43.5 -33.5t55 -12q45 0 83.5 26t66.5 66.5t43.5 89.5t14.5 94q0 1 -9.5 17.5t-28.5 35.5t-48.5 34.5t-69.5 15.5q-35 0 -69 -17
t-61 -47t-43.5 -70t-16.5 -85z" />
    <glyph glyph-name="Delta" unicode="&#x2206;" horiz-adv-x="643" 
d="M18 0q-17 0 -16.5 11.5t8.5 25.5l360 666q2 3 5.5 5t6.5 2h3q3 0 6 -1t5 -6l171 -668q1 -5 1.5 -11t-1 -11.5t-6.5 -9t-15 -3.5h-528zM516 42l-140 584h-2l-310 -584h452z" />
    <glyph glyph-name="product" unicode="&#x220f;" horiz-adv-x="716" 
d="M170 687q1 5 5 9t9 4h465q12 0 10 -13l-95 -674q-2 -13 -14 -13h-24q-11 0 -9 13l91 645h-395l-91 -645q-2 -13 -13 -13h-24q-5 0 -8 4t-2 9z" />
    <glyph glyph-name="summation" unicode="&#x2211;" horiz-adv-x="503" 
d="M14 22l340 341l-248 314l2 10q1 5 5 9t9 4h361q5 0 8 -4t2 -9l-3 -17q-2 -13 -13 -13h-294l211 -272q3 -4 7 -9.5t3 -10.5l-2 -11q-1 -5 -6 -10.5t-9 -9.5l-291 -292h294q5 0 8 -4t2 -9l-2 -16q-1 -5 -5 -9t-9 -4h-361q-5 0 -8 4t-2 9z" />
    <glyph glyph-name="minus" unicode="&#x2212;" 
d="M132 327q-13 0 -11 13l2 16q1 5 5 9t9 4h346q12 0 10 -13l-2 -16q-2 -13 -14 -13h-345z" />
    <glyph glyph-name="uni2215" unicode="&#x2215;" horiz-adv-x="407" 
d="M17 10q-5 -8 -9.5 -9t-7.5 -1h-17q-6 0 -8 4t2 10l435 679q3 5 7 6t7 1h18q6 0 8 -4t-2 -10z" />
    <glyph glyph-name="uni2219" unicode="&#x2219;" horiz-adv-x="227" 
d="M105 221q-15 0 -25 10.5t-10 24.5q0 20 14.5 32.5t31.5 12.5q15 0 24 -10t9 -25q0 -19 -13 -32t-31 -13z" />
    <glyph glyph-name="radical" unicode="&#x221a;" horiz-adv-x="609" 
d="M55 387q-2 13 9 13h26q9 0 9 -7l76 -315h2l327 613q4 9 13 9h120q12 0 10 -13l-3 -15q-2 -13 -12 -13h-96l-358 -660q-5 -9 -12 -9h-5q-4 0 -6.5 3.5t-2.5 5.5z" />
    <glyph glyph-name="infinity" unicode="&#x221e;" horiz-adv-x="618" 
d="M183 158q-22 0 -41 9t-33.5 25t-23 38t-8.5 47q0 32 11.5 60.5t31.5 50.5t46.5 34.5t55.5 12.5q35 0 60 -20.5t37 -52.5q21 32 51 52.5t68 20.5q21 0 40 -9t33.5 -25t23 -38t8.5 -47q0 -32 -11.5 -60.5t-31.5 -50.5t-46 -34.5t-55 -12.5q-33 0 -60 20.5t-39 51.5
q-21 -31 -50 -51.5t-67 -20.5zM330 296q-1 -5 -1 -8.5v-7.5q0 -36 20 -60t55 -24q20 0 38 9.5t31.5 25.5t21.5 37.5t8 45.5q0 35 -19.5 58.5t-51.5 23.5q-19 0 -36.5 -8t-31 -21.5t-22.5 -31.5t-12 -39zM188 196q20 0 38.5 9.5t32.5 25t22.5 37t8.5 45.5q0 35 -20.5 59
t-53.5 24q-20 0 -38.5 -9.5t-32.5 -25.5t-22 -37t-8 -44q0 -36 19.5 -60t53.5 -24z" />
    <glyph glyph-name="integral" unicode="&#x222b;" horiz-adv-x="470" 
d="M248 537q13 89 55.5 131t105.5 42q34 0 60 -14.5t34 -28.5q6 -8 0 -16l-12 -14q-9 -11 -17 -1q-8 11 -28 22.5t-43 11.5q-41 0 -71 -32t-40 -101l-86 -610q-12 -89 -54.5 -132t-105.5 -43q-34 0 -60.5 14.5t-34.5 28.5q-6 9 1 16l12 14q7 11 16 1q8 -11 28 -22.5
t43 -11.5q42 0 72 33t40 102z" />
    <glyph glyph-name="approxequal" unicode="&#x2248;" 
d="M147 339q-10 7 0 24q3 5 11 18.5t21 27.5t31 25t42 11q13 0 24 -4.5t19.5 -10.5t14.5 -12.5t9 -10.5q7 -8 20.5 -20t28.5 -12q13 0 23.5 6.5t18.5 15.5t14 19t9 16q4 7 10 7t11 -3l13 -8q5 -3 3.5 -9t-4.5 -13q-3 -6 -11.5 -18.5t-22 -25.5t-31.5 -23t-39 -10t-35.5 11
t-26.5 24t-24 24t-28 11q-13 0 -23.5 -6t-19 -15t-15 -18.5t-9.5 -15.5q-4 -7 -10.5 -12t-13.5 0zM138 171q-10 7 0 24q3 5 11 18.5t21 27.5t31 25t42 11q13 0 24 -4.5t19.5 -10.5t14.5 -12.5t9 -10.5q7 -8 20.5 -20t28.5 -12q13 0 23.5 6.5t18.5 15.5t14 19t9 16q4 7 10 7
t11 -3l13 -8q5 -3 3.5 -9t-4.5 -13q-3 -6 -11.5 -18.5t-22 -25.5t-31.5 -23t-39 -10t-35.5 11t-26.5 24t-24 24t-28 11q-13 0 -23.5 -6t-19 -15t-15 -18.5t-9.5 -15.5q-4 -7 -10.5 -12t-13.5 0z" />
    <glyph glyph-name="notequal" unicode="&#x2260;" 
d="M177 70q-11 5 -4 16l42 72h-75q-13 0 -11 14l2 16q2 13 15 13h96l99 165h-172q-13 0 -10 15l2 15q2 13 14 13h192l43 71q7 12 17 7l7 -4q8 -5 1 -16l-34 -58h55q13 0 11 -13l-2 -17q-2 -13 -15 -13h-76l-98 -165h151q14 0 10 -16l-2 -14q-2 -13 -14 -13h-173l-50 -85
q-6 -11 -15 -6z" />
    <glyph glyph-name="lessequal" unicode="&#x2264;" 
d="M134 382q-6 4 -7 8t0 9v1q1 4 2.5 7.5t8.5 7.5l376 199q12 6 11 -10l-3 -24l-2.5 -7.5t-6.5 -7.5l-332 -169l285 -166q5 -3 5 -7.5v-7.5l-3 -18q-3 -16 -14 -10zM93 74q-5 0 -8 4t-2 9l2 15q1 5 5 9t9 4h347q10 0 8 -13l-2 -15q-2 -13 -12 -13h-347z" />
    <glyph glyph-name="greaterequal" unicode="&#x2265;" 
d="M122 187q-5 -3 -8.5 -0.5t-1.5 10.5l3 23q0 3 1.5 7.5t7.5 7.5l331 166l-284 169q-5 3 -5.5 7.5t0.5 7.5l3 19q2 18 13 10l320 -199q9 -6 7 -15v-1q-1 -5 -3 -9t-8 -8zM104 74q-10 0 -8 13l2 15q2 13 12 13h347q5 0 8 -4t2 -9l-2 -15q-1 -5 -5 -9t-9 -4h-347z" />
    <glyph glyph-name="lozenge" unicode="&#x25ca;" horiz-adv-x="570" 
d="M83 303q-12 22 -14.5 31t-0.5 23q1 7 3 12.5t5 11t8.5 12.5t13.5 18l234 292q2 3 5.5 5t6.5 2h3q3 0 6 -1t4 -6l149 -290q5 -10 8.5 -16.5t5 -12.5t1.5 -12t-1 -15q-2 -16 -8.5 -26t-20.5 -30l-233 -305q-4 -7 -12 -7h-3q-7 0 -10 7zM251 53l231 304l-142 289h-2
l-231 -289l142 -304h2z" />
    <glyph glyph-name="uniF6C3" unicode="&#xf6c3;" horiz-adv-x="262" 
d="M124 -119q0 18 13.5 30.5t33.5 12.5q23 0 35.5 -15t12.5 -42q0 -32 -14.5 -65t-42.5 -55q-7 -7 -12 -1l-10 10q-5 5 -3 8t6 6q16 14 27 35t11 41q0 8 -3 14q-7 -7 -23 -7q-14 0 -22.5 8t-8.5 20z" />
    <glyph glyph-name="uniF8FF" unicode="&#xf8ff;" horiz-adv-x="599" 
d="M50 670q0 30 30 30h439q30 0 30 -30v-640q0 -30 -30 -30h-439q-30 0 -30 30v640zM262 314q0 -5 4.5 -8.5t9.5 -3.5h36q15 0 15 13v26q0 18 16.5 31.5t36 29t36 36t16.5 53.5q0 24 -9.5 44.5t-26.5 35.5t-39.5 23t-49.5 8q-33 0 -57 -10t-41 -21q-19 -13 -32 -30
q-3 -5 -4 -9.5t4 -8.5l22 -22q8 -6 17 0q5 4 12 11t17 14t23.5 11.5t31.5 4.5q30 0 45.5 -16t15.5 -36q0 -24 -15.5 -39t-34 -30t-34 -32.5t-15.5 -45.5v-29zM245 156q0 -20 14 -34t34 -14t34.5 14t14.5 34t-14.5 34t-34.5 14t-34 -14t-14 -34z" />
    <glyph glyph-name="glyph310" horiz-adv-x="272" 
d="M99 862q-8 5 -1 15l12 19q6 10 17 3l132 -90q8 -5 4 -14l-6 -9q-3 -4 -6 -5t-10 2z" />
    <glyph glyph-name="glyph312" horiz-adv-x="272" 
d="M106 781q-12 -5 -15 3l-4 11q-3 8 8 14l157 90q3 2 8.5 2t7.5 -5l9 -21q3 -10 -6 -15z" />
    <glyph glyph-name="glyph314" horiz-adv-x="336" 
d="M92 768q-7 -5 -10 -3t-5 5l-7 11q-4 7 4 14l123 98q6 5 12 5q4 0 9 -5l96 -98q3 -3 4.5 -6.5t-2.5 -7.5l-7 -8q-3 -3 -6.5 -5t-8.5 3l-89 81z" />
    <glyph glyph-name="glyph316" horiz-adv-x="336" 
d="M195 762q-4 0 -9 5l-96 98q-8 8 -2 14l7 8q3 3 6.5 5t8.5 -3l89 -81l113 84q7 5 10 3t5 -5l7 -11q4 -7 -4 -14l-123 -98q-6 -5 -12 -5z" />
    <glyph glyph-name="glyph317" horiz-adv-x="336" 
d="M139 668q0 18 13.5 30.5t33.5 12.5q23 0 35.5 -15t12.5 -42q0 -32 -14.5 -65t-42.5 -55q-7 -7 -12 -1l-10 10q-5 5 -3 8t6 6q16 14 27 35t11 41q0 8 -3 14q-7 -7 -23 -7q-14 0 -22.5 8t-8.5 20z" />
    <glyph glyph-name="glyph319" horiz-adv-x="342" 
d="M73 804q-9 3 -4 14q3 7 10 21t18 28.5t27 25.5t39 11t34.5 -14t19 -31.5t15 -31.5t22.5 -14q12 0 21.5 6.5t16 16t11 19.5t7.5 17q5 12 15 7l12 -4q2 -2 4 -4.5t0 -8.5q-1 -3 -6.5 -17t-17 -29t-28.5 -27.5t-41 -12.5q-23 0 -34.5 14.5t-19.5 31.5t-15.5 31.5t-21.5 14.5
q-13 0 -22.5 -7.5t-17 -17.5t-12 -20.5l-7.5 -17.5q-4 -11 -14 -6z" />
    <glyph glyph-name="glyph321" horiz-adv-x="427" 
d="M339 795q-14 0 -24 10.5t-10 24.5q0 19 13.5 32t30.5 13q15 0 25 -10.5t10 -25.5q0 -18 -13.5 -31t-31.5 -13zM151 795q-15 0 -24.5 10.5t-9.5 24.5q0 19 13.5 32t30.5 13q15 0 25 -10.5t10 -25.5q0 -18 -13.5 -31t-31.5 -13z" />
    <glyph glyph-name="glyph323" horiz-adv-x="373" 
d="M102 831q-13 0 -11 13l2 12q2 13 14 13h243q5 0 8.5 -3.5t1.5 -9.5l-1 -12q-2 -13 -15 -13h-242z" />
    <glyph glyph-name="glyph326" horiz-adv-x="311" 
d="M187 775q-22 0 -41 8.5t-33 23.5t-21.5 35.5t-7.5 43.5q0 5 2.5 9.5t8.5 4.5h11q5 0 7 -3.5t3 -8.5q5 -33 23.5 -55.5t50.5 -22.5q29 0 55.5 22.5t38.5 55.5q5 12 13 12h16q5 0 7.5 -4.5t0.5 -9.5q-14 -48 -49.5 -79.5t-84.5 -31.5z" />
    <glyph glyph-name="glyph328" horiz-adv-x="261" 
d="M157 754q-37 0 -60 26.5t-23 64.5q0 25 8.5 47.5t24 39t36 26t44.5 9.5q36 0 59 -27t23 -65q0 -26 -8.5 -48t-23.5 -38t-35.5 -25.5t-44.5 -9.5zM162 786q32 0 52.5 25t20.5 59q0 26 -14.5 45t-37.5 19q-32 0 -54 -24.5t-22 -58.5q0 -26 15.5 -45.5t39.5 -19.5z" />
    <glyph glyph-name="glyph330" horiz-adv-x="353" 
d="M226 766q-12 0 -5 12l89 159q5 11 15 11h22q8 0 10.5 -5t-2.5 -12l-103 -157q-5 -8 -14 -8h-12zM77 766q-11 0 -6 12l89 159q6 11 15 11h23q8 0 10.5 -5t-2.5 -12l-104 -157q-2 -5 -6 -6.5t-7 -1.5h-12z" />
    <glyph glyph-name="glyph332" horiz-adv-x="197" 
d="M132 809q-15 0 -25 9.5t-10 23.5q0 18 14 31t32 13q15 0 24 -9.5t9 -23.5q0 -18 -13 -31t-31 -13z" />
    <glyph glyph-name="glyph334" horiz-adv-x="247" 
d="M176 0h-2l-51 -69q10 2 15 2q15 0 29.5 -4t26.5 -12.5t19.5 -23t7.5 -35.5q0 -20 -9 -37t-24.5 -30t-36 -20t-44.5 -7q-28 0 -48.5 9.5t-31.5 21.5q-3 4 -2 7.5t3 5.5l12 19q6 9 14 1q10 -10 21.5 -17.5t31.5 -7.5q10 0 22.5 3t23 9.5t17.5 16.5t7 25q0 20 -15 29t-38 9
q-14 0 -27.5 -2.5t-23.5 -6.5q-5 -2 -10 4t-2 11l72 101z" />
    <glyph glyph-name="glyph336" horiz-adv-x="276" 
d="M207 3q-21 -11 -45.5 -26t-45.5 -34.5t-34.5 -44t-13.5 -53.5q0 -22 13.5 -35t38.5 -13q23 0 42.5 10.5t28.5 15.5q2 2 6 1.5t4 -5.5l-1 -19q0 -5 -2 -9.5t-10 -8.5q-11 -6 -31.5 -15t-45.5 -9q-41 0 -64 24t-23 59q0 30 11.5 55t31 46.5t45 39.5t53.5 34z" />
    </font>
</defs>
</svg>
